<?xml version="1.0" standalone="no"?>
<!DOCTYPE svg PUBLIC "-//W3C//DTD SVG 1.1//EN" "http://www.w3.org/Graphics/SVG/1.1/DTD/svg11.dtd" >
<svg xmlns="http://www.w3.org/2000/svg" xmlns:xlink="http://www.w3.org/1999/xlink" version="1.1">
<metadata>
Created by FontForge 20201107 at Thu Jul 31 20:26:51 2025
 By 
Copyright (c) 2022 by Connary Fagen. All rights reserved.
</metadata>
<defs>
<font id="ManifoldCF-Light" horiz-adv-x="1269" >
  <font-face 
    font-family="Manifold CF Light"
    font-weight="300"
    font-stretch="normal"
    units-per-em="2048"
    panose-1="0 0 0 0 0 0 0 0 0 0"
    ascent="1638"
    descent="-410"
    x-height="1024"
    cap-height="1434"
    bbox="-358.571 -487 1970 2269"
    underline-thickness="102"
    underline-position="-255"
    unicode-range="U+0020-FB02"
  />
<missing-glyph horiz-adv-x="1024" 
d="M840 1638v-2048h-650v2048h650zM342 -268h340v67h-209l143 97h66v67h-340v-67h143l-143 -97v-67zM342 10h340v232h-340v-232zM342 365h340v231h-205v-115h70v47h67v-96h-204v164h-68v-231zM342 641h340v205h-68v-135h-272v-70zM342 758h205v143h135v68h-340v-68h135v-76
h-135v-67zM342 1024h340v70h-135v143h-205v-213zM342 1290h340v68h-135v76h135v67h-338v-67h133v-76h-135v-68zM410 78v96h204v-96h-204zM410 1094v73h67v-73h-67z" />
    <glyph glyph-name="fi" unicode="fi" horiz-adv-x="919" 
d="M242 0q-23 0 -23 23v919h-110q-25 0 -25 23v36q0 23 25 23h110v98q0 312 283 312h92q31 0 31 -31v-23q0 -30 -31 -30h-90q-105 0 -151 -57.5t-46 -174.5v-94h453q24 0 24 -23v-978q0 -23 -24 -23h-41q-25 0 -25 23v919h-387v-919q0 -23 -22 -23h-43z" />
    <glyph glyph-name="fl" unicode="fl" horiz-adv-x="999" 
d="M242 0q-23 0 -23 23v919h-110q-25 0 -25 23v36q0 23 25 23h110v98q0 312 283 312h338q22 0 22 -23v-1388q0 -23 -22 -23h-43q-23 0 -23 23v1327h-270q-105 0 -151 -57.5t-46 -174.5v-94h287q22 0 22 -23v-36q0 -23 -22 -23h-287v-919q0 -23 -22 -23h-43z" />
    <glyph glyph-name=".notdef" horiz-adv-x="1024" 
d="M840 1638v-2048h-650v2048h650zM342 -268h340v67h-209l143 97h66v67h-340v-67h143l-143 -97v-67zM342 10h340v232h-340v-232zM342 365h340v231h-205v-115h70v47h67v-96h-204v164h-68v-231zM342 641h340v205h-68v-135h-272v-70zM342 758h205v143h135v68h-340v-68h135v-76
h-135v-67zM342 1024h340v70h-135v143h-205v-213zM342 1290h340v68h-135v76h135v67h-338v-67h133v-76h-135v-68zM410 78v96h204v-96h-204zM410 1094v73h67v-73h-67z" />
    <glyph glyph-name=".null" horiz-adv-x="0" 
 />
    <glyph glyph-name="nonmarkingreturn" horiz-adv-x="682" 
 />
    <glyph glyph-name="space" unicode=" " horiz-adv-x="409" 
 />
    <glyph glyph-name="space" unicode="&#xa0;" horiz-adv-x="409" 
 />
    <glyph glyph-name="exclam" unicode="!" horiz-adv-x="397" 
d="M174 311q-15 0 -19.5 5t-4.5 20v1073q0 15 4.5 20t19.5 5h49q15 0 20 -5t5 -20v-1073q0 -15 -5 -20t-20 -5h-49zM145 27v53q0 15 5.5 19.5t21.5 4.5h53q15 0 20 -4.5t5 -19.5v-53q0 -15 -5 -21t-20 -6h-53q-15 0 -21 6t-6 21z" />
    <glyph glyph-name="quotedbl" unicode="&#x22;" horiz-adv-x="641" 
d="M444 852q-15 0 -20.5 5t-5.5 20v532q0 15 5.5 20t20.5 5h37q15 0 21 -5t6 -20v-532q0 -15 -6 -20t-21 -5h-37zM133 877v532q0 15 6 20t21 5h37q15 0 19.5 -5t4.5 -20v-532q0 -15 -4.5 -20t-19.5 -5h-37q-15 0 -21 5t-6 20z" />
    <glyph glyph-name="numbersign" unicode="#" horiz-adv-x="1105" 
d="M760 0q-25 0 -25 23v331h-366v-331q0 -23 -25 -23h-41q-24 0 -24 23v331h-158q-12 0 -17.5 5t-5.5 18v37q0 22 23 22h158v561h-158q-23 0 -23 23v39q0 22 23 22h158v330q0 23 24 23h41q25 0 25 -23v-330h366v330q0 23 25 23h41q24 0 24 -23v-330h162q23 0 23 -22v-39
q0 -23 -23 -23h-162v-561h162q23 0 23 -22v-37q0 -23 -23 -23h-162v-331q0 -23 -24 -23h-41zM369 436h366v561h-366v-561z" />
    <glyph glyph-name="dollar" unicode="$" horiz-adv-x="966" 
d="M471 123q-25 0 -25 24v142q-344 4 -344 274q0 25 27 25h35q26 0 26 -25q-1 -102 65 -144t191 -44v364q-68 9 -114.5 19.5t-92 30.5t-72 48.5t-42.5 72.5t-16 104q0 135 85.5 195.5t251.5 62.5v137q0 25 25 25h25q24 0 24 -25v-137q70 -2 126.5 -18t103 -49t72.5 -92
t26 -140q0 -14 -5 -18.5t-20 -4.5h-32q-29 0 -29 23q3 116 -61 163.5t-181 49.5v-373q67 -8 112.5 -17.5t93 -29t75 -46.5t45.5 -70.5t18 -102.5q0 -61 -18 -106.5t-48 -74t-75.5 -46t-93.5 -24t-109 -7.5v-142q0 -24 -24 -24h-25zM197 1016q0 -104 55 -141.5t194 -53.5v365
q-64 -1 -106.5 -8t-76.5 -25t-50 -51.5t-16 -85.5zM520 375q42 0 68 1.5t59.5 6t53.5 16t39 29.5t27.5 47.5t8.5 69.5q0 42 -11.5 72t-30.5 49t-53.5 32t-70.5 20t-90 13v-356z" />
    <glyph glyph-name="percent" unicode="%" horiz-adv-x="1361" 
d="M256 909q-86 0 -130 47.5t-44 128.5v175q0 80 44 127t130 47h98q86 0 130 -47t44 -127v-175q0 -81 -44 -128.5t-130 -47.5h-98zM164 1077q0 -88 98 -88h84q103 0 103 88v189q0 88 -103 88h-84q-98 0 -98 -88v-189zM197 31l870 1374q10 17 17.5 23t21.5 6h39q16 0 22 -8
t-2 -23l-870 -1374q-10 -17 -17.5 -23t-21.5 -6h-39q-16 0 -22 8t2 23zM836 174v176q0 80 44 127t130 47h96q86 0 130 -47t44 -127v-176q0 -80 -44 -127t-130 -47h-96q-86 0 -130 47t-44 127zM915 168q0 -88 101 -88h84q100 0 100 88v188q0 88 -100 88h-84q-101 0 -101 -88
v-188z" />
    <glyph glyph-name="ampersand" unicode="&#x26;" horiz-adv-x="1415" 
d="M551 -10q-208 0 -307 80.5t-99 269.5v143q0 43 3.5 74t15 65t31.5 58.5t55 46.5t84 37l67 18l-28 25q-76 67 -103.5 122.5t-27.5 133.5v123q0 134 82 196t243 62h117q164 0 251 -67t87 -218v-123q0 -24 -23 -24h-43q-22 0 -22 24v115q0 117 -57 163t-193 46h-117
q-131 0 -183 -42.5t-52 -146.5v-106q0 -71 25.5 -117t88.5 -98l641 -537v449q0 22 23 22h180q23 0 23 -22v-37q0 -23 -23 -23h-119v-362q0 -191 -95 -270.5t-302 -79.5h-223zM236 334q0 -145 72 -202.5t237 -57.5h233q131 0 202.5 33.5t94.5 111.5l-608 512l-92 -31
q-76 -25 -107.5 -70.5t-31.5 -137.5v-158z" />
    <glyph glyph-name="quotesingle" unicode="'" horiz-adv-x="354" 
d="M160 852q-15 0 -21 5t-6 20v532q0 15 6 20t21 5h37q15 0 19.5 -5t4.5 -20v-532q0 -15 -4.5 -20t-19.5 -5h-37z" />
    <glyph glyph-name="parenleft" unicode="(" horiz-adv-x="591" 
d="M416 -143q-161 0 -232 78.5t-71 277.5v1061q0 199 71 277.5t232 78.5h35q28 0 28 -31v-30q0 -31 -28 -31h-48q-103 0 -150.5 -59t-47.5 -183v-1106q0 -124 47.5 -182.5t150.5 -58.5h48q28 0 28 -31v-31q0 -30 -28 -30h-35z" />
    <glyph glyph-name="parenright" unicode=")" horiz-adv-x="591" 
d="M141 -143q-28 0 -28 30v31q0 31 28 31h47q104 0 151.5 58.5t47.5 182.5v1106q0 124 -48 183t-151 59h-47q-28 0 -28 31v30q0 31 28 31h35q161 0 232 -78.5t71 -277.5v-1061q0 -199 -71 -277.5t-232 -78.5h-35z" />
    <glyph glyph-name="asterisk" unicode="*" horiz-adv-x="716" 
d="M326 936q-23 0 -23 20l8 174l-137 -100q-8 -7 -18 -5t-15 11l-32 56q-13 19 6 30l157 88l-157 86q-22 9 -6 31l32 55q5 9 15 12t18 -3l137 -101l-8 172q0 21 23 21h65q23 0 23 -21l-8 -172l135 99q21 15 32 -7l35 -55q15 -21 -8 -31l-154 -86l154 -88q20 -11 8 -30
l-35 -56q-11 -22 -30 -6l-137 100l8 -174q0 -20 -23 -20h-65z" />
    <glyph glyph-name="plus" unicode="+" horiz-adv-x="1019" 
d="M489 236q-15 0 -20.5 6.5t-5.5 21.5v350h-332q-16 0 -22.5 5.5t-6.5 19.5v45q0 14 6.5 19.5t22.5 5.5h332v348q0 15 5.5 21.5t20.5 6.5h41q15 0 20 -6.5t5 -21.5v-348h336q15 0 21 -5t6 -20v-45q0 -15 -6 -20t-23 -5h-334v-350q0 -16 -5 -22t-20 -6h-41z" />
    <glyph glyph-name="comma" unicode="," horiz-adv-x="284" 
d="M78 -274q-15 0 -21 5.5t-6 20.5v27q0 15 5.5 19.5t21.5 4.5h51v277q0 15 5.5 19.5t21.5 4.5h30q16 0 21.5 -4.5t5.5 -19.5v-309q0 -25 -10 -35t-33 -10h-92z" />
    <glyph glyph-name="hyphen" unicode="-" horiz-adv-x="716" 
d="M125 479q-23 0 -23 23v37q0 22 23 22h467q22 0 22 -22v-37q0 -23 -22 -23h-467z" />
    <glyph glyph-name="period" unicode="." horiz-adv-x="247" 
d="M98 0q-15 0 -20.5 6t-5.5 21v53q0 15 5.5 19.5t20.5 4.5h54q15 0 19.5 -4.5t4.5 -19.5v-53q0 -16 -4.5 -21.5t-19.5 -5.5h-54z" />
    <glyph glyph-name="slash" unicode="/" horiz-adv-x="858" 
d="M74 -72q-31 0 -19 29l654 1516q7 17 13.5 23.5t20.5 6.5h41q31 0 19 -30l-651 -1514q-12 -31 -37 -31h-41z" />
    <glyph glyph-name="zero" unicode="0" horiz-adv-x="1224" 
d="M578 -10q-433 0 -433 409v635q0 410 433 410h67q432 0 432 -410v-635q0 -409 -432 -409h-67zM236 397q0 -167 80.5 -245t256.5 -78h78q174 0 256 78.5t82 244.5v639q0 166 -82 245t-256 79h-78q-176 0 -256.5 -78.5t-80.5 -245.5v-639z" />
    <glyph glyph-name="one" unicode="1" horiz-adv-x="487" 
d="M274 0q-22 0 -22 23v1329h-158q-22 0 -22 22v37q0 23 22 23h223q23 0 23 -23v-1388q0 -23 -23 -23h-43z" />
    <glyph glyph-name="two" unicode="2" horiz-adv-x="1118" 
d="M133 0q-31 0 -31 31v125q0 122 26.5 197t84.5 127t174 112l258 135q55 28 88.5 47t69.5 43.5t55.5 47t36.5 52.5t24 65.5t7 80.5q0 155 -71.5 225t-233.5 70h-93q-164 0 -242.5 -72t-78.5 -235q0 -25 -23 -25h-43q-22 0 -22 25v28q0 187 109 276t296 89h99
q198 0 295.5 -92t97.5 -289q0 -64 -14.5 -115.5t-39 -90.5t-70 -76.5t-94 -66.5t-124.5 -69l-264 -135q-126 -64 -171.5 -135.5t-45.5 -190.5v-102h790q23 0 23 -23v-36q0 -23 -23 -23h-850z" />
    <glyph glyph-name="three" unicode="3" horiz-adv-x="1148" 
d="M522 -10q-189 0 -298 89t-109 277v29q0 23 24 23h41q25 0 25 -23q0 -164 77.5 -235.5t243.5 -71.5h103q162 0 239.5 75.5t77.5 229.5q0 183 -97.5 255.5t-295.5 72.5h-111q-22 0 -22 22v37q0 23 22 23h111q189 0 272.5 61.5t83.5 208.5q0 154 -73.5 224.5t-237.5 70.5
h-55q-166 0 -244 -72t-78 -235q0 -25 -24 -25h-41q-25 0 -25 25v28q0 95 30 166t85 114t128.5 64t164.5 21h61q199 0 298 -92t99 -289q0 -134 -52.5 -201t-172.5 -104v-13q63 -17 107 -40t81 -63.5t55.5 -104.5t18.5 -154q0 -197 -103.5 -295t-299.5 -98h-109z" />
    <glyph glyph-name="four" unicode="4" horiz-adv-x="1085" 
d="M106 350q-14 0 -26 21l-12 18q-13 21 0 43l505 983q13 19 29 19h51q13 0 17 -8t-2 -17l-508 -977h567v338q0 25 23 25h43q22 0 22 -25v-338h156q22 0 22 -22v-37q0 -23 -22 -23h-156v-327q0 -23 -22 -23h-43q-23 0 -23 23v327h-621z" />
    <glyph glyph-name="five" unicode="5" horiz-adv-x="1146" 
d="M508 -10q-91 0 -163.5 20.5t-127.5 63.5t-85 114.5t-30 167.5v29q0 23 23 23h43q22 0 22 -23q0 -164 79 -235.5t245 -71.5h109q164 0 241.5 79t77.5 244v97q0 166 -76 242.5t-248 76.5h-106q-204 0 -291 -141h-69q-30 0 -27 37l59 690q3 31 31 31h715q22 0 22 -23v-37
q0 -22 -22 -22h-666l-49 -574h12q36 51 115 87t184 36h129q100 0 174 -30t117 -84t63.5 -122.5t20.5 -152.5v-111q0 -204 -104.5 -307.5t-300.5 -103.5h-117z" />
    <glyph glyph-name="six" unicode="6" horiz-adv-x="1200" 
d="M565 -10q-215 0 -317.5 101t-102.5 308v668q0 198 100 287.5t302 89.5h106q94 0 164.5 -15.5t123.5 -49t80.5 -90.5t27.5 -136v-35q0 -24 -25 -24h-41q-25 0 -25 24q0 131 -71.5 186.5t-237.5 55.5h-100q-166 0 -239.5 -70.5t-73.5 -228.5v-287h10q35 58 114 97.5
t187 39.5h162q100 0 174 -30t117.5 -84t64 -122.5t20.5 -152.5v-121q0 -209 -101.5 -310t-317.5 -101h-101zM236 401q0 -168 75 -247.5t248 -79.5h113q172 0 248.5 80t76.5 247v105q0 168 -76 244.5t-249 76.5h-113q-174 0 -248.5 -76.5t-74.5 -244.5v-105z" />
    <glyph glyph-name="seven" unicode="7" horiz-adv-x="1067" 
d="M211 0q-28 0 -21 31q80 361 256 679.5t445 626.5v15h-776q-23 0 -23 22v37q0 23 23 23h856q24 0 24 -23v-59q0 -7 -5.5 -15t-17 -21t-18.5 -22q-251 -285 -420 -591.5t-251 -669.5q-7 -33 -35 -33h-37z" />
    <glyph glyph-name="eight" unicode="8" horiz-adv-x="1230" 
d="M565 -10q-215 0 -317.5 100t-102.5 301v45q0 285 217 357q-163 73 -163 303q0 169 89 258.5t259 89.5h139q170 0 259 -89.5t89 -258.5q0 -227 -164 -303q215 -72 215 -361v-39q0 -203 -101.5 -303t-317.5 -100h-101zM236 393q0 -163 75 -241t248 -78h113q171 0 248 78.5
t77 240.5v39q0 160 -77 239t-248 79h-113q-173 0 -248 -78.5t-75 -239.5v-39zM285 1096q0 -139 66 -203t202 -64h131q133 0 198.5 64t65.5 203q0 138 -66.5 202t-199.5 64h-133q-133 0 -198.5 -63.5t-65.5 -202.5z" />
    <glyph glyph-name="nine" unicode="9" horiz-adv-x="1200" 
d="M635 1444q215 0 317.5 -101.5t102.5 -308.5v-667q0 -198 -100 -287.5t-302 -89.5h-106q-191 0 -293 68t-102 223v34q0 25 24 25h41q25 0 25 -25q0 -131 71 -186t238 -55h100q166 0 240 70.5t74 228.5v286h-11q-35 -58 -114 -97.5t-187 -39.5h-161q-100 0 -174 30
t-117.5 84t-64.5 122.5t-21 152.5v121q0 209 102 310.5t318 101.5h100zM203 928q0 -168 76 -245t249 -77h113q174 0 249 77t75 245v104q0 168 -75.5 248t-248.5 80h-113q-172 0 -248.5 -80.5t-76.5 -247.5v-104z" />
    <glyph glyph-name="colon" unicode=":" horiz-adv-x="247" 
d="M98 0q-15 0 -20.5 6t-5.5 21v53q0 15 5.5 19.5t20.5 4.5h54q15 0 19.5 -4.5t4.5 -19.5v-53q0 -16 -4.5 -21.5t-19.5 -5.5h-54zM72 946v53q0 15 5.5 20t20.5 5h54q15 0 19.5 -5t4.5 -20v-53q0 -15 -4.5 -20.5t-19.5 -5.5h-54q-15 0 -20.5 5.5t-5.5 20.5z" />
    <glyph glyph-name="semicolon" unicode=";" horiz-adv-x="315" 
d="M98 -274q-15 0 -20.5 5.5t-5.5 20.5v27q0 15 5.5 19.5t20.5 4.5h52v277q0 15 5.5 19.5t20.5 4.5h31q15 0 20.5 -4.5t5.5 -19.5v-309q0 -25 -10 -35t-33 -10h-92zM139 946v53q0 15 6 20t21 5h53q15 0 20 -5t5 -20v-53q0 -15 -5 -20.5t-20 -5.5h-53q-15 0 -21 5.5t-6 20.5z
" />
    <glyph glyph-name="less" unicode="&#x3c;" horiz-adv-x="940" 
d="M127 430q-25 16 -25 53q0 38 25 54l678 389q13 7 23 1.5t10 -18.5v-47q0 -28 -23 -41l-592 -338l592 -338q23 -13 23 -41v-47q0 -11 -10 -16.5t-23 2.5z" />
    <glyph glyph-name="equal" unicode="=" horiz-adv-x="1005" 
d="M131 774q-16 0 -22.5 5.5t-6.5 19.5v45q0 14 6.5 19t22.5 5h748q15 0 19.5 -4.5t4.5 -19.5v-45q0 -15 -4.5 -20t-21.5 -5h-746zM102 481v45q0 14 6.5 19.5t22.5 5.5h748q15 0 19.5 -5t4.5 -20v-45q0 -15 -4.5 -19.5t-21.5 -4.5h-746q-16 0 -22.5 5t-6.5 19z" />
    <glyph glyph-name="greater" unicode="&#x3e;" horiz-adv-x="940" 
d="M135 43q-13 -8 -23 -2.5t-10 16.5v47q0 28 23 41l592 338l-592 338q-23 13 -23 41v47q0 13 10 18.5t23 -1.5l678 -389q25 -16 25 -54q0 -37 -25 -53z" />
    <glyph glyph-name="question" unicode="?" horiz-adv-x="1044" 
d="M444 311q-15 0 -20.5 5t-5.5 20v131q0 75 24.5 121t72 75t144.5 66q100 37 127 54q69 43 88 137q11 50 11 124q0 167 -71 238.5t-234 71.5h-101q-167 0 -243 -70t-76 -233q0 -25 -25 -25h-41q-22 0 -22 25v28q0 187 109 276t296 89h98q200 0 299 -95.5t99 -304.5
q0 -82 -11.5 -140.5t-28.5 -95.5t-54 -66t-71.5 -45.5t-96.5 -39.5q-126 -45 -163.5 -82t-37.5 -120v-119q0 -15 -6 -20t-21 -5h-39zM416 27v53q0 15 5.5 19.5t20.5 4.5h54q15 0 19.5 -4.5t4.5 -19.5v-53q0 -16 -4.5 -21.5t-19.5 -5.5h-54q-15 0 -20.5 6t-5.5 21z" />
    <glyph glyph-name="at" unicode="@" horiz-adv-x="1492" 
d="M618 -129q-234 0 -353.5 104.5t-119.5 323.5v598q0 220 120 324t356 104h251q236 0 355 -100t119 -318v-588q0 -65 -57.5 -101t-135.5 -36q-136 0 -176 123q-37 -55 -106.5 -87t-141.5 -32h-61q-238 0 -238 224v352q0 111 58 161t180 50h338q36 0 36 -39v-588
q0 -38 25.5 -60t75.5 -22q61 0 92 22t31 60v572q0 160 -94 244.5t-304 84.5h-243q-398 0 -398 -338v-620q0 -340 396 -340h110q146 0 318 49v-70q-129 -57 -318 -57h-115zM512 430q0 -95 43 -129.5t137 -34.5h39q91 0 160.5 50.5t69.5 117.5v459h-267q-96 0 -139 -27.5
t-43 -99.5v-336z" />
    <glyph glyph-name="A" unicode="A" horiz-adv-x="1187" 
d="M643 1434q25 0 35 -33l424 -1370q8 -31 -23 -31h-41q-15 0 -21 6.5t-11 24.5l-88 286h-648l-88 -286q-5 -18 -11 -24.5t-21 -6.5h-41q-31 0 -23 31l424 1370q10 33 37 33h96zM297 401h594l-287 930h-18z" />
    <glyph glyph-name="B" unicode="B" horiz-adv-x="1187" 
d="M172 0q-15 0 -21 6t-6 21v1382q0 15 6 20t21 5h508q180 0 260 -83t80 -274q0 -123 -34.5 -199.5t-117.5 -111.5v-8q104 -35 154.5 -112.5t50.5 -215.5v-51q0 -203 -99.5 -291t-293.5 -88h-508zM238 88h446q158 0 227.5 64t69.5 225v53q0 160 -68.5 219.5t-228.5 59.5
h-446v-621zM238 791h446q132 0 188 63t56 205v28q0 141 -54.5 200t-189.5 59h-446v-555z" />
    <glyph glyph-name="C" unicode="C" horiz-adv-x="1226" 
d="M578 -10q-433 0 -433 409v635q0 410 433 410h98q217 0 321.5 -94.5t104.5 -292.5v-10q0 -7 -5.5 -12t-13.5 -5h-57q-16 0 -16 17q0 162 -80.5 235.5t-249.5 73.5h-105q-173 0 -255 -78.5t-82 -243.5v-633q0 -166 82 -244.5t255 -78.5h105q168 0 249 69.5t81 219.5
q0 16 16 16h57q19 0 19 -16v-11q0 -185 -105 -275.5t-321 -90.5h-98z" />
    <glyph glyph-name="D" unicode="D" horiz-adv-x="1239" 
d="M172 0q-15 0 -21 6t-6 21v1382q0 15 6 20t21 5h490q432 0 432 -410v-614q0 -410 -432 -410h-490zM238 88h426q173 0 255 79t82 245v612q0 165 -82 243.5t-255 78.5h-426v-1258z" />
    <glyph glyph-name="E" unicode="E" horiz-adv-x="1060" 
d="M174 0q-29 0 -29 27v1382q0 14 6.5 19.5t22.5 5.5h770q16 0 22.5 -5.5t6.5 -19.5v-37q0 -26 -29 -26h-706v-582h647q15 0 21.5 -5t6.5 -20v-34q0 -15 -6.5 -20t-21.5 -5h-647v-592h710q15 0 21 -5t6 -20v-36q0 -15 -6 -21t-21 -6h-774z" />
    <glyph glyph-name="F" unicode="F" horiz-adv-x="1056" 
d="M172 0q-15 0 -21 6t-6 21v1382q0 15 6 20t21 5h772q16 0 22.5 -5.5t6.5 -19.5v-37q0 -26 -29 -26h-706v-582h649q15 0 21.5 -5t6.5 -20v-34q0 -15 -6.5 -20t-21.5 -5h-649v-653q0 -15 -5 -21t-20 -6h-41z" />
    <glyph glyph-name="G" unicode="G" horiz-adv-x="1247" 
d="M578 -10q-433 0 -433 409v635q0 410 433 410h98q217 0 320.5 -94.5t103.5 -292.5v-10q0 -7 -5.5 -12t-13.5 -5h-57q-16 0 -16 17q0 163 -79.5 236t-248.5 73h-105q-173 0 -255 -78.5t-82 -243.5v-633q0 -166 82 -244.5t255 -78.5h97q173 0 255.5 78.5t82.5 244.5v279
h-324q-15 0 -21 5t-6 20v34q0 15 6 20t21 5h387q12 0 20.5 -8.5t8.5 -20.5v-336q0 -409 -432 -409h-92z" />
    <glyph glyph-name="H" unicode="H" horiz-adv-x="1239" 
d="M1028 0q-15 0 -21 6t-6 21v653h-763v-653q0 -15 -5 -21t-20 -6h-41q-15 0 -21 6t-6 21v1382q0 15 6 20t21 5h41q15 0 20 -5t5 -20v-645h763v645q0 15 6 20t21 5h39q15 0 21 -5t6 -20v-1382q0 -15 -6 -21t-21 -6h-39z" />
    <glyph glyph-name="I" unicode="I" horiz-adv-x="385" 
d="M172 0q-15 0 -21 6t-6 21v1382q0 15 6 20t21 5h41q15 0 20 -5t5 -20v-1382q0 -15 -5 -21t-20 -6h-41z" />
    <glyph glyph-name="J" unicode="J" horiz-adv-x="727" 
d="M123 -10q-16 0 -22.5 5t-6.5 21v37q0 14 6.5 19.5t22.5 5.5h29q173 0 255 78.5t82 244.5v1008q0 15 5 20t20 5h41q15 0 21 -5t6 -20v-1010q0 -409 -432 -409h-27z" />
    <glyph glyph-name="K" unicode="K" horiz-adv-x="1118" 
d="M172 0q-15 0 -21 6t-6 21v1382q0 15 6 20t21 5h41q15 0 20 -5t5 -20v-791l639 789q20 27 36 27h56q19 0 21.5 -11t-11.5 -30l-518 -633l567 -725q11 -12 6.5 -23.5t-22.5 -11.5h-43q-17 0 -27 6.5t-24 22.5l-515 661l-165 -203v-460q0 -15 -5 -21t-20 -6h-41z" />
    <glyph glyph-name="L" unicode="L" horiz-adv-x="1019" 
d="M174 0q-29 0 -29 27v1382q0 15 6 20t21 5h41q15 0 20 -5t5 -20v-1321h659q15 0 21 -5t6 -20v-36q0 -15 -6 -21t-21 -6h-723z" />
    <glyph glyph-name="M" unicode="M" horiz-adv-x="1468" 
d="M172 0q-15 0 -21 6t-6 21v1382q0 15 6 20t21 5h117q28 0 37 -31l401 -1307h14l402 1307q12 31 37 31h116q15 0 21 -5t6 -20v-1382q0 -15 -6 -21t-21 -6h-41q-15 0 -19.5 5.5t-4.5 21.5v1310h-17l-403 -1306q-9 -31 -39 -31h-76q-27 0 -39 31l-403 1306h-16v-1310
q0 -15 -5 -21t-20 -6h-41z" />
    <glyph glyph-name="N" unicode="N" horiz-adv-x="1204" 
d="M172 0q-15 0 -21 6t-6 21v1382q0 15 6 20t21 5h107q25 0 36 -23l635 -1313h15v1311q0 15 5.5 20t20.5 5h41q15 0 20 -5t5 -20v-1382q0 -15 -5 -21t-20 -6h-108q-23 0 -37 23l-633 1314h-16v-1310q0 -15 -5 -21t-20 -6h-41z" />
    <glyph glyph-name="O" unicode="O" 
d="M578 -10q-433 0 -433 409v635q0 410 433 410h114q432 0 432 -410v-635q0 -409 -432 -409h-114zM238 401q0 -166 81.5 -244.5t255.5 -78.5h119q173 0 255.5 78.5t82.5 244.5v633q0 164 -82.5 243t-255.5 79h-119q-174 0 -255.5 -78.5t-81.5 -243.5v-633z" />
    <glyph glyph-name="P" unicode="P" horiz-adv-x="1173" 
d="M172 0q-15 0 -21 6t-6 21v1382q0 15 6 20t21 5h457q219 0 318.5 -94t99.5 -304v-192q0 -210 -99.5 -304t-318.5 -94h-391v-419q0 -15 -5 -21t-20 -6h-41zM238 535h393q173 0 248 72t75 237v192q0 166 -75 238t-248 72h-393v-811z" />
    <glyph glyph-name="Q" unicode="Q" 
d="M616 -184q-15 0 -20.5 4.5t-5.5 19.5v150h-12q-433 0 -433 409v635q0 410 433 410h114q432 0 432 -410v-635q0 -409 -432 -409h-10v-150q0 -15 -5 -19.5t-20 -4.5h-41zM238 401q0 -166 81.5 -244.5t255.5 -78.5h119q173 0 255.5 78.5t82.5 244.5v633q0 164 -82.5 243
t-255.5 79h-119q-174 0 -255.5 -78.5t-81.5 -243.5v-633z" />
    <glyph glyph-name="R" unicode="R" horiz-adv-x="1159" 
d="M172 0q-15 0 -21 6t-6 21v1382q0 15 6 20t21 5h457q219 0 318.5 -94t99.5 -304v-192q0 -154 -53 -245t-165 -128l215 -436q6 -15 0.5 -25t-20.5 -10h-41q-20 0 -31 20l-213 437q-50 -11 -92 -11h-409v-419q0 -15 -5 -21t-20 -6h-41zM238 535h393q173 0 248 72t75 237v192
q0 166 -75 238t-248 72h-393v-811z" />
    <glyph glyph-name="S" unicode="S" horiz-adv-x="1165" 
d="M549 -10q-212 0 -323 82.5t-111 271.5q0 13 8 21t20 8h37q12 0 20 -8t7 -21q-1 -140 85.5 -203t252.5 -63h98q160 0 237.5 67t77.5 217q0 47 -9 85.5t-23.5 66.5t-40.5 51t-51.5 38t-64 28.5t-72 22t-81.5 18.5l-79 18q-47 10 -74.5 16t-68 17.5t-64.5 22t-55 28
t-49.5 37t-38.5 47.5t-30 61.5t-17 76.5t-7 94q0 191 109 272.5t311 81.5h61q406 0 406 -367q0 -26 -29 -26h-35q-28 0 -28 26q1 149 -77 214t-235 65h-65q-165 0 -245.5 -60t-80.5 -209q0 -36 3.5 -66.5t13 -55t18 -44.5t26 -36.5t30.5 -28.5t37.5 -23t40.5 -17.5t46 -14.5
t47.5 -12t51.5 -11l79 -16q49 -11 80 -18t73 -19.5t69 -24t59.5 -29.5t52.5 -37.5t41 -47.5t32.5 -60t18.5 -73.5t7 -90.5q0 -191 -107.5 -281.5t-302.5 -90.5h-92z" />
    <glyph glyph-name="T" unicode="T" horiz-adv-x="1075" 
d="M518 0q-15 0 -19.5 5.5t-4.5 21.5v1319h-361q-29 0 -29 26v37q0 14 6.5 19.5t22.5 5.5h809q16 0 22.5 -5.5t6.5 -19.5v-37q0 -26 -29 -26h-356v-1319q0 -15 -6 -21t-21 -6h-41z" />
    <glyph glyph-name="U" unicode="U" 
d="M578 -10q-433 0 -433 409v1010q0 15 6 20t21 5h41q15 0 20 -5t5 -20v-1008q0 -166 81.5 -244.5t255.5 -78.5h119q173 0 255.5 78.5t82.5 244.5v1008q0 15 5 20t20 5h41q15 0 20.5 -5t5.5 -20v-1010q0 -409 -432 -409h-114z" />
    <glyph glyph-name="V" unicode="V" horiz-adv-x="1187" 
d="M547 0q-27 0 -37 33l-424 1370q-8 31 23 31h41q15 0 21 -6.5t11 -24.5l404 -1301h18l402 1301q5 18 11 24.5t21 6.5h41q31 0 23 -31l-424 -1370q-10 -33 -35 -33h-96z" />
    <glyph glyph-name="W" unicode="W" horiz-adv-x="1839" 
d="M455 0q-30 0 -37 33l-330 1370q-11 31 21 31h41q14 0 21 -6.5t13 -24.5l310 -1299h16l348 1299q6 18 12.5 24.5t20.5 6.5h57q15 0 20.5 -6t10.5 -25l350 -1299h17l309 1299q8 31 35 31h41q28 0 20 -31l-330 -1370q-7 -33 -37 -33h-98q-24 0 -37 33l-319 1237h-21
l-321 -1237q-10 -33 -35 -33h-98z" />
    <glyph glyph-name="X" unicode="X" horiz-adv-x="1126" 
d="M121 0q-28 0 -10 27l397 690l-395 690q-16 27 10 27h57q14 0 20.5 -6t16.5 -23l340 -604h12l340 604q10 17 16.5 23t20.5 6h58q26 0 10 -27l-396 -690l398 -690q18 -27 -10 -27h-58q-10 0 -16.5 4t-10 8t-12.5 17l-340 604h-12l-340 -604q-10 -17 -17.5 -23t-21.5 -6h-57
z" />
    <glyph glyph-name="Y" unicode="Y" horiz-adv-x="1124" 
d="M88 1405q-13 29 12 29h58q14 0 21.5 -6.5t15.5 -22.5l362 -729h10l363 729q14 29 35 29h57q28 0 12 -29l-426 -844v-534q0 -15 -5.5 -21t-20.5 -6h-41q-15 0 -20 6t-5 21v530z" />
    <glyph glyph-name="Z" unicode="Z" horiz-adv-x="1060" 
d="M133 0q-29 0 -29 27v57q0 20 15 49l737 1198v15h-704q-29 0 -29 26v37q0 14 6.5 19.5t22.5 5.5h776q15 0 20.5 -5t5.5 -20v-59q0 -23 -14 -50l-735 -1198v-14h719q16 0 22 -5t6 -20v-36q0 -27 -28 -27h-791z" />
    <glyph glyph-name="bracketleft" unicode="[" horiz-adv-x="557" 
d="M176 -143q-31 0 -31 30v1712q0 31 31 31h244q15 0 19.5 -4.5t4.5 -19.5v-41q0 -15 -4.5 -20t-19.5 -5h-182v-1593h182q15 0 19.5 -5t4.5 -20v-41q0 -15 -4.5 -19.5t-19.5 -4.5h-244z" />
    <glyph glyph-name="backslash" unicode="\" horiz-adv-x="858" 
d="M743 -72q-24 0 -36 31l-652 1514q-12 30 19 30h41q14 0 21 -7t14 -23l653 -1516q12 -29 -19 -29h-41z" />
    <glyph glyph-name="bracketright" unicode="]" horiz-adv-x="557" 
d="M137 -143q-15 0 -19.5 4.5t-4.5 19.5v41q0 15 4.5 20t19.5 5h182v1593h-182q-15 0 -19.5 5t-4.5 20v41q0 15 4.5 19.5t19.5 4.5h244q31 0 31 -31v-1712q0 -30 -31 -30h-244z" />
    <glyph glyph-name="asciicircum" unicode="^" horiz-adv-x="772" 
d="M127 932q-33 0 -21 31l216 493q14 31 40 31h48q27 0 41 -31l215 -493q12 -31 -21 -31h-45q-29 0 -41 31l-172 403l-174 -403q-9 -31 -41 -31h-45z" />
    <glyph glyph-name="underscore" unicode="_" horiz-adv-x="1177" 
d="M125 -82q-23 0 -23 23v36q0 23 23 23h928q22 0 22 -23v-36q0 -23 -22 -23h-928z" />
    <glyph glyph-name="grave" unicode="`" horiz-adv-x="501" 
d="M342 1124q-25 0 -51 37l-170 236q-11 17 -5.5 27t23.5 10h51q18 0 28.5 -8.5t21.5 -28.5l153 -236q10 -17 3.5 -27t-23.5 -10h-31z" />
    <glyph glyph-name="a" unicode="a" horiz-adv-x="1044" 
d="M844 0q-25 0 -25 23v143h-16q-61 -80 -154 -128t-211 -48h-8q-326 0 -326 301v45q0 258 314 258h401v98q0 65 -12.5 109t-43.5 78t-89 50.5t-146 16.5q-187 0 -297 -39q-7 -3 -13.5 1t-8.5 12l-8 45q-3 17 10 20q115 47 309 47h35q185 0 269.5 -82.5t84.5 -251.5v-675
q0 -23 -24 -23h-41zM195 297q0 -115 57 -168t174 -53h59q131 0 232.5 87.5t101.5 194.5v156h-395q-115 0 -172 -41.5t-57 -142.5v-33z" />
    <glyph glyph-name="b" unicode="b" horiz-adv-x="1052" 
d="M504 -10q-93 0 -160.5 34.5t-103.5 96.5h-15v-98q0 -23 -24 -23h-41q-25 0 -25 23v1388q0 23 25 23h41q24 0 24 -23v-508h15q74 129 264 129h82q170 0 261 -87.5t91 -258.5v-350q0 -171 -91 -258.5t-261 -87.5h-82zM225 336q0 -123 67.5 -192.5t196.5 -69.5h89
q272 0 272 268v340q0 266 -272 266h-89q-129 0 -196.5 -69.5t-67.5 -192.5v-350z" />
    <glyph glyph-name="c" unicode="c" horiz-adv-x="1007" 
d="M510 -10q-194 0 -294.5 89t-100.5 257v350q0 164 95.5 255t260.5 91h86q160 0 253 -78.5t93 -218.5v-12q0 -23 -24 -23h-41q-25 0 -25 23v10q0 100 -65.5 157.5t-186.5 57.5h-94q-128 0 -195 -69.5t-67 -194.5v-350q0 -124 75 -192t230 -68h14q86 0 141 13t86 36t58 65
q9 14 15.5 17t29.5 -4l18 -8q25 -12 13 -39q-27 -51 -66 -85t-113.5 -56.5t-179.5 -22.5h-16z" />
    <glyph glyph-name="d" unicode="d" horiz-adv-x="1052" 
d="M467 -10q-170 0 -261 87.5t-91 258.5v350q0 171 91 258.5t261 87.5h82q190 0 264 -129h16v508q0 23 23 23h43q23 0 23 -23v-1388q0 -23 -23 -23h-43q-23 0 -23 23v98h-16q-36 -62 -103.5 -96.5t-160.5 -34.5h-82zM205 342q0 -268 270 -268h88q129 0 197.5 69.5
t68.5 192.5v350q0 123 -68.5 192.5t-197.5 69.5h-88q-270 0 -270 -266v-340z" />
    <glyph glyph-name="e" unicode="e" horiz-adv-x="1030" 
d="M504 -10q-192 0 -290.5 91t-98.5 255v350q0 164 94 255t258 91h94q168 0 260 -87.5t92 -252.5v-155q0 -29 -17 -46.5t-46 -17.5h-645v-135q0 -124 74.5 -196t226.5 -72h20q180 0 295 84q16 13 25 0l24 -31q6 -6 5.5 -13t-5.5 -10q-44 -46 -135 -78t-213 -32h-18zM205 549
h620v141q0 258 -264 258h-94q-129 0 -195.5 -70t-66.5 -194v-135z" />
    <glyph glyph-name="f" unicode="f" horiz-adv-x="698" 
d="M242 0q-23 0 -23 23v919h-110q-25 0 -25 23v36q0 23 25 23h110v98q0 312 283 312h92q31 0 31 -31v-23q0 -30 -31 -30h-90q-105 0 -151 -57.5t-46 -174.5v-94h287q22 0 22 -23v-36q0 -23 -22 -23h-287v-919q0 -23 -22 -23h-43z" />
    <glyph glyph-name="g" unicode="g" horiz-adv-x="1042" 
d="M496 -379q-90 0 -166 6q-39 6 -39 27v37q0 10 7 15t17 3q72 -6 197 -6q78 0 132.5 11t98 38t65 78t21.5 127v164h-16q-36 -62 -103.5 -96.5t-160.5 -34.5h-82q-170 0 -261 87.5t-91 258.5v350q0 171 91 258.5t261 87.5h82q190 0 264 -129h16v96q0 25 23 25h43
q23 0 23 -25v-1042q0 -185 -99.5 -260.5t-322.5 -75.5zM205 342q0 -268 270 -268h88q129 0 197.5 69.5t68.5 192.5v350q0 123 -68.5 192.5t-197.5 69.5h-88q-270 0 -270 -266v-340z" />
    <glyph glyph-name="h" unicode="h" horiz-adv-x="1073" 
d="M160 0q-25 0 -25 23v1388q0 23 25 23h41q24 0 24 -23v-506h19q92 127 278 127h76q175 0 257.5 -85.5t82.5 -260.5v-663q0 -23 -25 -23h-41q-22 0 -22 23v659q0 132 -64.5 199t-203.5 67h-70q-138 0 -212.5 -70t-74.5 -194v-661q0 -23 -24 -23h-41z" />
    <glyph glyph-name="i" unicode="i" horiz-adv-x="364" 
d="M160 1339q-25 0 -25 25v47q0 23 25 23h47q22 0 22 -23v-47q0 -25 -22 -25h-47zM139 23v978q0 23 23 23h43q22 0 22 -23v-978q0 -23 -22 -23h-43q-23 0 -23 23z" />
    <glyph glyph-name="j" unicode="j" horiz-adv-x="376" 
d="M170 1339q-23 0 -23 25v47q0 23 23 23h47q23 0 23 -23v-47q0 -25 -23 -25h-47zM-18 -344v33q0 24 30 24q78 0 109 34.5t31 129.5v1124q0 23 22 23h43q23 0 23 -23v-1142q0 -121 -48 -175.5t-145 -54.5q-65 0 -65 27z" />
    <glyph glyph-name="k" unicode="k" horiz-adv-x="968" 
d="M160 0q-25 0 -25 23v1388q0 23 25 23h41q24 0 24 -23v-928l518 523q22 18 39 18h56q18 0 20.5 -11t-8.5 -22l-426 -420l473 -540q11 -12 6 -21.5t-22 -9.5h-50q-14 0 -21 4.5t-19 18.5l-424 491l-142 -139v-352q0 -23 -24 -23h-41z" />
    <glyph glyph-name="l" unicode="l" horiz-adv-x="360" 
d="M160 0q-25 0 -25 23v1388q0 23 25 23h41q24 0 24 -23v-1388q0 -23 -24 -23h-41z" />
    <glyph glyph-name="m" unicode="m" horiz-adv-x="1703" 
d="M831 0q-24 0 -24 23v659q0 132 -59.5 199t-188.5 67h-59q-129 0 -202 -70.5t-73 -193.5v-661q0 -23 -24 -23h-41q-25 0 -25 23v978q0 23 25 23h41q24 0 24 -23v-96h19q81 127 282 127h43q222 0 293 -158h12q45 82 125.5 120t204.5 38h41q324 0 324 -346v-663
q0 -23 -25 -23h-41q-24 0 -24 23v659q0 132 -59.5 199t-188.5 67h-60q-129 0 -201.5 -70.5t-72.5 -193.5v-661q0 -23 -25 -23h-41z" />
    <glyph glyph-name="n" unicode="n" horiz-adv-x="1073" 
d="M160 0q-25 0 -25 23v978q0 23 25 23h41q24 0 24 -23v-96h19q92 127 278 127h76q175 0 257.5 -85.5t82.5 -260.5v-663q0 -23 -25 -23h-41q-22 0 -22 23v659q0 132 -64.5 199t-203.5 67h-70q-138 0 -212.5 -70t-74.5 -194v-661q0 -23 -24 -23h-41z" />
    <glyph glyph-name="o" unicode="o" horiz-adv-x="1032" 
d="M471 -10q-169 0 -262.5 88t-93.5 254v360q0 164 93.5 252t262.5 88h92q168 0 261.5 -88t93.5 -252v-360q0 -165 -94 -253.5t-261 -88.5h-92zM205 332q0 -124 65 -191t197 -67h98q132 0 198 67t66 191v358q0 124 -66 191t-198 67h-98q-132 0 -197 -67t-65 -191v-358z" />
    <glyph glyph-name="p" unicode="p" horiz-adv-x="1052" 
d="M160 -362q-25 0 -25 22v1341q0 23 25 23h41q24 0 24 -23v-98h15q74 129 264 129h82q170 0 261 -87.5t91 -258.5v-350q0 -171 -91 -258.5t-261 -87.5h-82q-93 0 -160.5 34.5t-103.5 96.5h-15v-461q0 -22 -24 -22h-41zM225 336q0 -123 67.5 -192.5t196.5 -69.5h89
q272 0 272 268v340q0 266 -272 266h-89q-129 0 -196.5 -69.5t-67.5 -192.5v-350z" />
    <glyph glyph-name="q" unicode="q" horiz-adv-x="1052" 
d="M852 -362q-25 0 -25 22v461h-14q-36 -62 -103.5 -96.5t-160.5 -34.5h-82q-170 0 -261 87.5t-91 258.5v350q0 171 91 258.5t261 87.5h82q190 0 264 -129h14v98q0 23 25 23h41q25 0 25 -23v-1341q0 -22 -25 -22h-41zM203 342q0 -268 272 -268h88q129 0 196.5 69.5
t67.5 192.5v350q0 123 -67.5 192.5t-196.5 69.5h-88q-272 0 -272 -266v-340z" />
    <glyph glyph-name="r" unicode="r" horiz-adv-x="903" 
d="M160 0q-25 0 -25 23v978q0 23 25 23h41q24 0 24 -23v-96h19q39 61 108 94t160 33h51q129 0 192.5 -68t63.5 -198v-12q0 -12 -4 -16.5t-16 -4.5h-43q-12 0 -16.5 4.5t-4.5 16.5q0 194 -196 194h-47q-128 0 -197.5 -70t-69.5 -194v-661q0 -23 -24 -23h-41z" />
    <glyph glyph-name="s" unicode="s" horiz-adv-x="966" 
d="M436 -10q-155 0 -243.5 63t-88.5 187q0 26 27 26h39q22 0 25 -26q8 -86 64.5 -127t170.5 -41h88q120 0 188 46t68 158q0 34 -9 61t-21 45.5t-37 33.5t-45 23.5t-58 16t-62.5 10.5t-70.5 9l-27 2q-63 6 -109 16.5t-89.5 31t-71 51t-43.5 77.5t-16 109q0 270 334 270h59
q154 0 243 -69t89 -205q0 -29 -23 -29h-39q-13 0 -18.5 7t-7.5 24q-8 99 -65.5 144.5t-176.5 45.5h-57q-126 0 -188 -43t-62 -147q0 -56 17.5 -94t56 -60.5t84 -34t116.5 -18.5l29 -2q69 -8 116 -17t96 -28.5t78 -47.5t47.5 -74.5t18.5 -109.5q0 -284 -344 -284h-82z" />
    <glyph glyph-name="t" unicode="t" horiz-adv-x="598" 
d="M428 -10q-97 0 -144.5 54t-47.5 175v723h-140q-22 0 -22 23v36q0 23 22 23h140v188q0 23 22 23h43q23 0 23 -23v-188h155q12 0 17.5 -5t5.5 -18v-36q0 -13 -5.5 -18t-17.5 -5h-155v-704q0 -95 30.5 -129.5t108.5 -34.5q31 0 31 -25v-33q0 -26 -66 -26z" />
    <glyph glyph-name="u" unicode="u" horiz-adv-x="1073" 
d="M475 -8q-175 0 -257.5 85.5t-82.5 260.5v663q0 23 25 23h41q24 0 24 -23v-659q0 -132 64 -199t203 -67h69q138 0 213.5 70t75.5 194v661q0 23 22 23h43q23 0 23 -23v-978q0 -23 -23 -23h-43q-22 0 -22 23v96h-19q-43 -59 -114.5 -93t-165.5 -34h-76z" />
    <glyph glyph-name="v" unicode="v" horiz-adv-x="993" 
d="M463 0q-27 0 -39 31l-338 964q-11 29 14 29h47q9 0 14.5 -1.5t9.5 -7t4.5 -7t4.5 -11.5l312 -907h10l311 907q0 1 1.5 5t2 5l2 4t2.5 4t2.5 3t3.5 2.5t4.5 1.5t5.5 1.5t7 0.5h47q25 0 14 -29l-336 -964q-12 -31 -39 -31h-67z" />
    <glyph glyph-name="w" unicode="w" horiz-adv-x="1474" 
d="M371 0q-30 0 -39 31l-244 964q-7 29 16 29h46q14 0 19 -7t9 -22l228 -903h6l264 903q0 1 1.5 4.5t2 4.5t1.5 4t2 4t2.5 3.5t2.5 3t3 2t4 2t4.5 1t5.5 0.5h65q3 0 6 -0.5t5 -1.5t4 -1.5t3.5 -3t2.5 -3.5t2.5 -4.5t2 -4.5t2 -5t1.5 -5l264 -903h6l225 903q7 29 31 29h45
q23 0 16 -29l-245 -964q-9 -31 -39 -31h-72q-30 0 -39 31l-250 876h-8l-250 -876q-9 -31 -39 -31h-73z" />
    <glyph glyph-name="x" unicode="x" horiz-adv-x="897" 
d="M109 0q-18 0 -23.5 9t2.5 20l303 491l-293 475q-8 12 -3.5 20.5t22.5 8.5h43q23 0 39 -27l243 -403h15l241 403q11 16 18.5 21.5t20.5 5.5h45q35 0 17 -29l-293 -475l305 -491q7 -11 1.5 -20t-24.5 -9h-38q-23 0 -39 27l-254 422h-15l-254 -422q-19 -27 -38 -27h-41z" />
    <glyph glyph-name="y" unicode="y" horiz-adv-x="1044" 
d="M373 -362q-27 0 -19 28l121 309l-389 1020q-4 12 -2 20.5t16 8.5h52q14 0 18.5 -6t11.5 -27l334 -891h10l334 891q5 14 7.5 19.5t8 9.5t15.5 4h53q25 0 14 -29l-509 -1329q-12 -28 -31 -28h-45z" />
    <glyph glyph-name="z" unicode="z" horiz-adv-x="868" 
d="M109 0q-25 0 -25 23v53q0 16 10 28l586 826v12h-549q-22 0 -22 23v36q0 23 22 23h621q22 0 22 -23v-61q0 -12 -10 -25l-582 -821v-12h570q22 0 22 -23v-36q0 -23 -24 -23h-641z" />
    <glyph glyph-name="braceleft" unicode="{" horiz-adv-x="706" 
d="M530 -143q-161 0 -232 78.5t-71 277.5v358q0 20 -14 37l-92 113q-19 23 0 45l92 113q14 17 14 36v359q0 199 71 277.5t232 78.5h35q29 0 29 -31v-30q0 -31 -29 -31h-47q-103 0 -151 -59t-48 -183v-401q0 -20 -14 -37l-90 -115l92 -114q12 -14 12 -37v-402
q0 -124 47.5 -182.5t151.5 -58.5h47q29 0 29 -31v-31q0 -30 -29 -30h-35z" />
    <glyph glyph-name="bar" unicode="|" horiz-adv-x="419" 
d="M195 -410q-31 0 -31 31v1987q0 30 31 30h30q31 0 31 -30v-1987q0 -31 -31 -31h-30z" />
    <glyph glyph-name="braceright" unicode="}" horiz-adv-x="706" 
d="M141 -143q-28 0 -28 30v31q0 31 28 31h47q104 0 151.5 58.5t47.5 182.5v402q0 23 12 37l93 114l-91 115q-14 17 -14 37v401q0 124 -48 183t-151 59h-47q-28 0 -28 31v30q0 31 28 31h35q161 0 232 -78.5t71 -277.5v-359q0 -18 15 -36l92 -113q19 -22 0 -45l-92 -113
q-15 -18 -15 -37v-358q0 -199 -71 -277.5t-232 -78.5h-35z" />
    <glyph glyph-name="asciitilde" unicode="~" horiz-adv-x="1058" 
d="M160 600q-20 -14 -35 16l-19 35q-13 23 21 45q200 149 420 9q102 -63 173 -62t179 74q20 13 35 -17l18 -34q12 -24 -20 -45q-200 -149 -420 -9q-101 63 -172.5 61.5t-179.5 -73.5z" />
    <glyph glyph-name="exclamdown" unicode="&#xa1;" horiz-adv-x="397" 
d="M174 -410q-15 0 -19.5 5t-4.5 20v1073q0 15 4.5 20t19.5 5h49q15 0 20 -5t5 -20v-1073q0 -15 -5 -20t-20 -5h-49zM145 946v53q0 15 6 20t21 5h53q15 0 20 -5t5 -20v-53q0 -15 -5 -20.5t-20 -5.5h-53q-15 0 -21 5.5t-6 20.5z" />
    <glyph glyph-name="cent" unicode="&#xa2;" horiz-adv-x="1007" 
d="M502 -145q-25 0 -25 24v111q-179 7 -270.5 96t-91.5 250v350q0 164 95.5 255t260.5 91h6v109q0 24 25 24h22q25 0 25 -24v-109h8q160 0 253 -78.5t93 -218.5v-12q0 -23 -24 -23h-41q-25 0 -25 23v10q0 100 -65.5 157.5t-186.5 57.5h-12v-874q113 3 167 29t93 85
q9 14 15.5 17t29.5 -4l18 -8q25 -12 13 -39q-39 -75 -116.5 -118t-219.5 -46v-111q0 -24 -25 -24h-22zM205 334q0 -118 66.5 -185.5t205.5 -74.5v874h-10q-128 0 -195 -69.5t-67 -194.5v-350z" />
    <glyph glyph-name="sterling" unicode="&#xa3;" horiz-adv-x="1136" 
d="M813 -12q-79 0 -191.5 42t-175.5 42q-97 0 -229 -74q-14 -8 -49 35.5t-25 60.5q37 53 57.5 86.5t46.5 87.5t38 112.5t12 125.5q0 71 -16 143h-158q-23 0 -23 23v37q0 22 23 22h135q-9 27 -30 86.5t-31.5 93t-20.5 86t-10 101.5q0 346 399 346h68q187 0 294 -89t107 -276
v-28q0 -25 -22 -25h-43q-23 0 -23 25q0 163 -77 235t-242 72h-58q-162 0 -238.5 -65t-76.5 -195q0 -44 10 -95t21.5 -87t32 -94t30.5 -91h299q23 0 23 -22v-37q0 -23 -23 -23h-276q16 -75 16 -147q0 -111 -36 -206t-107 -200q107 62 213 62q74 0 172.5 -39t169.5 -39
q92 0 202 49q29 12 29 -16v-54q0 -10 -6.5 -16t-22.5 -12q-101 -43 -188 -43z" />
    <glyph glyph-name="currency" unicode="&#xa4;" horiz-adv-x="1302" 
d="M125 35q-21 21 0 43l145 141q-16 44 -16 113v356q0 77 16 129l-145 144q-21 21 0 43l22 20q21 22 43 0l123 -119q92 119 291 119h92q201 0 295 -123l123 123q22 22 43 0l21 -20q22 -22 0 -43l-148 -146q17 -55 17 -127v-356q0 -53 -13 -113l144 -141q22 -22 0 -43
l-21 -23q-21 -22 -43 0l-115 113q-94 -129 -303 -129h-92q-209 0 -303 129l-111 -113q-22 -22 -43 0zM346 334q0 -122 63.5 -186t192.5 -64h96q260 0 260 250v352q0 123 -64.5 188.5t-195.5 65.5h-96q-128 0 -192 -66t-64 -188v-352z" />
    <glyph glyph-name="yen" unicode="&#xa5;" horiz-adv-x="1124" 
d="M289 457q-23 0 -23 22v35q0 23 23 23h227v20l-428 848q-13 29 12 29h58q14 0 21.5 -6.5t15.5 -22.5l362 -729h10l363 729q14 29 35 29h57q28 0 12 -29l-426 -844v-24h230q22 0 22 -23v-35q0 -22 -22 -22h-230v-82h230q22 0 22 -23v-35q0 -22 -22 -22h-230v-268
q0 -15 -5.5 -21t-20.5 -6h-41q-15 0 -20 6t-5 21v268h-227q-23 0 -23 22v35q0 23 23 23h227v82h-227z" />
    <glyph glyph-name="brokenbar" unicode="&#xa6;" horiz-adv-x="419" 
d="M195 772q-31 0 -31 31v661q0 31 31 31h30q31 0 31 -31v-661q0 -31 -31 -31h-30zM164 -236v662q0 31 31 31h30q31 0 31 -31v-662q0 -30 -31 -30h-30q-31 0 -31 30z" />
    <glyph glyph-name="section" unicode="&#xa7;" horiz-adv-x="966" 
d="M438 -57q-153 0 -243.5 63.5t-90.5 188.5q0 24 27 24h41q22 0 25 -26q18 -166 239 -166h82q121 0 188.5 45.5t67.5 158.5q0 108 -54.5 152.5t-197.5 44.5h-78q-329 0 -329 289q0 169 153 221q-153 75 -153 260q0 270 334 270h57q151 0 242.5 -69.5t91.5 -204.5
q0 -29 -23 -29h-41q-14 0 -19 6.5t-7 22.5q-9 98 -68 145t-176 47h-53q-126 0 -188 -43t-62 -147q0 -113 64.5 -162t197.5 -49h67q164 0 247 -60.5t83 -213.5q0 -184 -143 -236q143 -59 143 -246q0 -286 -344 -286h-80zM205 713q0 -114 59.5 -159.5t192.5 -45.5h63
q133 0 193.5 45.5t60.5 159.5q0 111 -59 150.5t-195 39.5h-63q-136 0 -194 -39.5t-58 -150.5z" />
    <glyph glyph-name="dieresis" unicode="&#xa8;" horiz-adv-x="825" 
d="M645 1329q-15 0 -21 6t-6 21v53q0 15 6 20t21 5h53q15 0 20 -5t5 -20v-53q0 -15 -5 -21t-20 -6h-53zM102 1356v53q0 15 6 20t21 5h53q15 0 20 -5t5 -20v-53q0 -15 -5 -21t-20 -6h-53q-15 0 -21 6t-6 21z" />
    <glyph glyph-name="copyright" unicode="&#xa9;" horiz-adv-x="1454" 
d="M592 -10q-214 0 -330.5 113t-116.5 315v600q0 201 116.5 313.5t330.5 112.5h270q213 0 330 -112.5t117 -313.5v-600q0 -202 -117 -315t-330 -113h-270zM336 518q0 -165 98.5 -243t296.5 -78h17q155 0 238 42.5t118 120.5q13 29 -12 37l-19 11q-29 13 -45 -13
q-39 -62 -96.5 -88t-181.5 -26h-15q-162 0 -236.5 56.5t-74.5 176.5v404q0 121 65.5 179t198.5 58h92q122 0 188 -55t66 -154v-10q0 -27 23 -27h43q22 0 22 27v16q0 139 -92 213t-252 74h-88q-168 0 -261 -79t-93 -240v-402z" />
    <glyph glyph-name="ordfeminine" unicode="&#xaa;" horiz-adv-x="647" 
d="M485 920q-12 0 -12 20v45q-62 -65 -154 -65h-30q-187 0 -187 159q0 78 47.5 119t139.5 41h184q0 70 -27 99.5t-86 29.5h-32q-70 0 -144 -33q-21 -12 -30 4l-15 33q-9 17 11 27q88 45 180 45h30q88 0 136.5 -52.5t48.5 -154.5v-297q0 -20 -13 -20h-47zM178 1079
q0 -47 27.5 -63.5t87.5 -16.5h29q56 0 88 12t63 38v114h-180q-115 0 -115 -84z" />
    <glyph glyph-name="guillemotleft" unicode="&#xab;" horiz-adv-x="1105" 
d="M578 455q-4 3 -12 9.5t-10.5 9.5t-5.5 9.5t-3 14.5v57q0 6 1.5 10.5l2.5 7.5t5 7t6 5.5l8 6t8 6.5l380 287q14 10 25.5 4t11.5 -21v-49q0 -9 -6 -18t-10 -12.5t-21 -16.5l-331 -246l331 -245q15 -10 20.5 -14.5t11 -12.5t5.5 -18v-52q0 -14 -11.5 -20t-25.5 4zM113 498
v57q0 5 0.5 9t2.5 7.5t3 5.5t4.5 5.5t5.5 5t7 5.5t7 5l381 287q14 10 25.5 4t11.5 -21v-49q0 -9 -6 -18t-10 -12.5t-21 -16.5l-331 -246l331 -245q15 -10 20.5 -14.5t11 -12.5t5.5 -18v-52q0 -14 -11.5 -20t-25.5 4l-381 287q-4 3 -10 8t-8.5 7.5t-6 7t-4.5 9t-1 11.5z" />
    <glyph glyph-name="logicalnot" unicode="&#xac;" horiz-adv-x="1001" 
d="M131 614q-29 0 -29 27v41q0 27 29 27h741q15 0 21 -6t6 -21v-418q0 -28 -27 -28h-41q-14 0 -19 6t-5 22v350h-676z" />
    <glyph glyph-name="uni00AD" unicode="&#xad;" horiz-adv-x="716" 
d="M125 479q-23 0 -23 23v37q0 22 23 22h467q22 0 22 -22v-37q0 -23 -22 -23h-467z" />
    <glyph glyph-name="registered" unicode="&#xae;" horiz-adv-x="1470" 
d="M596 -10q-217 0 -334 113.5t-117 318.5v590q0 205 117 318.5t334 113.5h276q216 0 333.5 -113.5t117.5 -318.5v-590q0 -205 -117.5 -318.5t-333.5 -113.5h-276zM391 248q0 -23 21 -23h43q22 0 22 23v407h373q186 0 186 -186v-213q0 -31 31 -31h25q28 0 28 31v205
q0 185 -133 235v9q36 15 62 44t39 64t18.5 67.5t5.5 65.5q0 145 -64 211t-204 66h-432q-21 0 -21 -23v-952zM477 735v404h385q84 0 123 -46t39 -137q0 -110 -41 -165.5t-135 -55.5h-371z" />
    <glyph glyph-name="macron" unicode="&#xaf;" horiz-adv-x="929" 
d="M131 1341q-29 0 -29 29v35q0 29 29 29h668q28 0 28 -29v-35q0 -29 -28 -29h-668z" />
    <glyph glyph-name="degree" unicode="&#xb0;" horiz-adv-x="620" 
d="M276 844q-86 0 -130 47t-44 127v242q0 80 44 127t130 47h64q86 0 130 -47t44 -127v-242q0 -80 -44 -127t-130 -47h-64zM184 1012q0 -88 99 -88h51q100 0 100 88v254q0 88 -100 88h-51q-99 0 -99 -88v-254z" />
    <glyph glyph-name="plusminus" unicode="&#xb1;" horiz-adv-x="1019" 
d="M139 0q-26 0 -26 29v34q0 29 26 29h742q26 0 26 -29v-34q0 -16 -5.5 -22.5t-22.5 -6.5h-740zM102 711v45q0 14 6.5 19t22.5 5h332v348q0 29 26 29h41q14 0 19.5 -6.5t5.5 -22.5v-348h336q16 0 21.5 -4.5t5.5 -19.5v-45q0 -15 -6 -20t-23 -5h-334v-350q0 -16 -5.5 -22.5
t-19.5 -6.5h-41q-26 0 -26 29v350h-332q-16 0 -22.5 5.5t-6.5 19.5z" />
    <glyph glyph-name="uni00B2" unicode="&#xb2;" horiz-adv-x="655" 
d="M158 799q-31 0 -31 30v68q0 20 6 31t23 26l178 168q23 22 35.5 35t24.5 35.5t12 44.5q0 38 -22.5 59t-61.5 21q-35 0 -55.5 -17t-20.5 -49v-14q0 -31 -31 -31h-61q-31 0 -31 31v27q0 75 48.5 122.5t131.5 47.5h51q86 0 131 -53.5t45 -131.5q0 -71 -34.5 -122t-100.5 -107
l-114 -100h221q30 0 30 -31v-60q0 -30 -30 -30h-344z" />
    <glyph glyph-name="uni00B3" unicode="&#xb3;" horiz-adv-x="661" 
d="M307 799q-86 0 -135 47.5t-49 122.5v26q0 31 31 31h61q31 0 31 -31v-16q0 -64 84 -64q41 0 62.5 20.5t21.5 57.5q0 35 -18.5 52.5t-61.5 17.5h-33q-29 0 -29 31v45q0 30 29 30h33q76 0 76 70q0 37 -21 57.5t-59 20.5q-80 0 -80 -64v-16q0 -31 -31 -31h-61q-31 0 -31 31
v27q0 75 48.5 122.5t131.5 47.5h51q83 0 127.5 -52.5t44.5 -124.5q0 -97 -86 -141q99 -46 99 -141q0 -73 -47 -124.5t-138 -51.5h-51z" />
    <glyph glyph-name="acute" unicode="&#xb4;" horiz-adv-x="501" 
d="M129 1124q-16 0 -22.5 10t2.5 27l155 236q21 37 45 37h51q18 0 25 -10t-4 -27l-170 -236q-26 -37 -51 -37h-31z" />
    <glyph glyph-name="uni00B5" unicode="&#xb5;" horiz-adv-x="1073" 
d="M166 -410q-31 0 -31 31v1380q0 23 25 23h41q24 0 24 -23v-659q0 -132 64 -199t203 -67h69q138 0 213.5 70t75.5 194v661q0 23 22 23h43q23 0 23 -23v-978q0 -23 -23 -23h-43q-22 0 -22 23v96h-21q-94 -127 -284 -127h-76q-169 0 -248 121v-492q0 -31 -31 -31h-24z" />
    <glyph glyph-name="paragraph" unicode="&#xb6;" horiz-adv-x="1171" 
d="M565 446q-219 0 -319.5 94t-100.5 304v192q0 210 100.5 304t319.5 94h436q15 0 20 -5t5 -20v-1382q0 -15 -5 -21t-20 -6h-40q-15 0 -21 6t-6 21v419h-158v-419q0 -15 -5.5 -21t-20.5 -6h-41q-15 0 -20 6t-5 21v419h-119zM238 844q0 -164 76 -236.5t249 -72.5h121v811
h-121q-173 0 -249 -72t-76 -238v-192zM776 535h158v811h-158v-811z" />
    <glyph glyph-name="periodcentered" unicode="&#xb7;" horiz-adv-x="309" 
d="M129 459q-15 0 -21 5.5t-6 20.5v54q0 15 5.5 19.5t21.5 4.5h53q15 0 20 -4.5t5 -19.5v-54q0 -15 -5 -20.5t-20 -5.5h-53z" />
    <glyph glyph-name="cedilla" unicode="&#xb8;" horiz-adv-x="630" 
d="M279 -408q-96 0 -136.5 38t-40.5 116q0 25 23 25h37q8 0 14 -5t6 -12q-2 -48 24 -69t91 -21h41q60 0 84 16.5t24 55.5t-23 56.5t-75 17.5h-106q-34 0 -56 18t-22 51q0 48 76 121h92q-136 -123 -27 -123h66q75 0 116 -29.5t41 -115.5q0 -72 -40 -106t-134 -34h-75z" />
    <glyph glyph-name="uni00B9" unicode="&#xb9;" horiz-adv-x="618" 
d="M276 801q-30 0 -30 30v572q0 31 30 31h66q31 0 31 -31v-572q0 -30 -31 -30h-66z" />
    <glyph glyph-name="ordmasculine" unicode="&#xba;" horiz-adv-x="684" 
d="M309 920q-90 0 -148.5 59.5t-58.5 148.5v109q0 86 59 146.5t148 60.5h66q88 0 147.5 -60.5t59.5 -146.5v-109q0 -88 -59 -148t-148 -60h-66zM180 1126q0 -59 35.5 -95t93.5 -36h64q58 0 95.5 36.5t37.5 94.5v113q0 58 -37.5 93.5t-95.5 35.5h-64q-59 0 -94 -35t-35 -94
v-113z" />
    <glyph glyph-name="guillemotright" unicode="&#xbb;" horiz-adv-x="1105" 
d="M150 168q-14 -10 -25.5 -4t-11.5 20v52q0 10 5.5 18t11 12.5t20.5 14.5l331 245l-331 246q-2 1 -6.5 5t-6 5t-5.5 4t-5 4.5t-4 4t-4 4.5t-2.5 4.5t-2 4.5t-1 5t-0.5 6v49q0 15 11.5 21t25.5 -4l380 -287q2 -2 8 -6.5l8 -6t6 -5.5t5 -7l2.5 -7.5t1.5 -10.5v-57
q0 -8 -3 -14.5t-5.5 -9.5t-10.5 -9.5t-12 -9.5zM545 184v52q0 10 5.5 18t11 12.5t20.5 14.5l331 245l-331 246q-2 1 -6.5 5t-6 5t-5.5 4t-5 4.5t-4 4t-4 4.5t-2.5 4.5t-2 4.5t-1 5t-0.5 6v49q0 15 11.5 21t25.5 -4l381 -287q2 -1 7 -5t7 -5.5t5.5 -5t4.5 -5.5t3 -5.5
t2.5 -7.5t0.5 -9v-57q0 -8 -3 -14.5t-5 -9t-10.5 -9.5t-11.5 -10l-381 -287q-14 -10 -25.5 -4t-11.5 20z" />
    <glyph glyph-name="onequarter" unicode="&#xbc;" horiz-adv-x="1564" 
d="M276 801q-30 0 -30 30v572q0 31 30 31h66q31 0 31 -31v-572q0 -30 -31 -30h-66zM264 31l828 1372q10 17 18.5 24t22.5 7h77q16 0 22.5 -8t-1.5 -23l-828 -1372q-10 -17 -18.5 -24t-22.5 -7h-77q-16 0 -22.5 8t1.5 23zM999 135v51q0 15 11 37l204 389q12 23 35 23h103
q30 0 30 -31v-383h29q31 0 31 -31v-55q0 -31 -31 -31h-29v-73q0 -31 -30 -31h-62q-30 0 -30 31v73h-226q-35 0 -35 31zM1141 225h119v240z" />
    <glyph glyph-name="onehalf" unicode="&#xbd;" horiz-adv-x="1531" 
d="M276 801q-30 0 -30 30v572q0 31 30 31h66q31 0 31 -31v-572q0 -30 -31 -30h-66zM264 31l828 1372q10 17 18.5 24t22.5 7h77q16 0 22.5 -8t-1.5 -23l-828 -1372q-10 -17 -18.5 -24t-22.5 -7h-77q-16 0 -22.5 8t1.5 23zM999 438v27q0 75 49 122.5t132 47.5h51q86 0 131 -53
t45 -131q0 -71 -35 -123t-100 -107l-115 -100h221q31 0 31 -31v-59q0 -31 -31 -31h-344q-30 0 -30 31v67q0 21 6 32.5t22 25.5l178 168q24 23 35.5 35t24 34.5t12.5 44.5q0 38 -22.5 59t-61.5 21q-35 0 -55.5 -17t-20.5 -48v-15q0 -30 -30 -30h-62q-31 0 -31 30z" />
    <glyph glyph-name="threequarters" unicode="&#xbe;" horiz-adv-x="1607" 
d="M307 799q-86 0 -135 47.5t-49 122.5v26q0 31 31 31h61q31 0 31 -31v-16q0 -64 84 -64q41 0 62.5 20.5t21.5 57.5q0 35 -18.5 52.5t-61.5 17.5h-33q-29 0 -29 31v45q0 30 29 30h33q76 0 76 70q0 37 -21 57.5t-59 20.5q-80 0 -80 -64v-16q0 -31 -31 -31h-61q-31 0 -31 31
v27q0 75 48.5 122.5t131.5 47.5h51q83 0 127.5 -52.5t44.5 -124.5q0 -97 -86 -141q99 -46 99 -141q0 -73 -47 -124.5t-138 -51.5h-51zM307 31l828 1372q10 17 18.5 24t22.5 7h77q16 0 22.5 -8t-1.5 -23l-828 -1372q-10 -17 -18 -24t-22 -7h-78q-16 0 -22.5 8t1.5 23z
M1042 135v51q0 15 11 37l204 389q11 23 35 23h103q30 0 30 -31v-383h29q31 0 31 -31v-55q0 -31 -31 -31h-29v-73q0 -31 -30 -31h-62q-30 0 -30 31v73h-226q-35 0 -35 31zM1184 225h119v240z" />
    <glyph glyph-name="questiondown" unicode="&#xbf;" horiz-adv-x="1044" 
d="M600 713q15 0 21 -5t6 -20v-131q0 -57 -11.5 -94.5t-43 -67.5t-73.5 -51t-116 -49q-99 -37 -127 -54q-68 -43 -88 -137q-10 -50 -10 -124q0 -167 71 -238.5t234 -71.5h100q167 0 243.5 70t76.5 233q0 25 24 25h41q23 0 23 -25v-28q0 -187 -109.5 -276t-296.5 -89h-98
q-199 0 -298 95.5t-99 304.5q0 82 11.5 140.5t28.5 95.5t54 66t71.5 45.5t96.5 39.5q126 45 164.5 82.5t38.5 119.5v119q0 15 5.5 20t20.5 5h39zM524 944v53q0 15 5 21t20 6h53q15 0 21 -6t6 -21v-53q0 -15 -5.5 -19.5t-21.5 -4.5h-53q-15 0 -20 4.5t-5 19.5z" />
    <glyph glyph-name="Agrave" unicode="&#xc0;" horiz-adv-x="1187" 
d="M643 1434q25 0 35 -33l424 -1370q8 -31 -23 -31h-41q-15 0 -21 6.5t-11 24.5l-88 286h-648l-88 -286q-5 -18 -11 -24.5t-21 -6.5h-41q-31 0 -23 31l424 1370q10 33 37 33h96zM297 401h594l-287 930h-18zM362 1806q-11 17 -5 27t24 10h51q18 0 28 -8.5t21 -28.5l154 -235
q10 -17 3 -27t-24 -10h-30q-26 0 -52 37z" />
    <glyph glyph-name="Aacute" unicode="&#xc1;" horiz-adv-x="1187" 
d="M643 1434q25 0 35 -33l424 -1370q8 -31 -23 -31h-41q-15 0 -21 6.5t-11 24.5l-88 286h-648l-88 -286q-5 -18 -11 -24.5t-21 -6.5h-41q-31 0 -23 31l424 1370q10 33 37 33h96zM297 401h594l-287 930h-18zM553 1571l156 235q21 37 45 37h51q18 0 24.5 -10t-4.5 -27
l-170 -235q-26 -37 -51 -37h-31q-16 0 -22.5 10t2.5 27z" />
    <glyph glyph-name="Acircumflex" unicode="&#xc2;" horiz-adv-x="1187" 
d="M643 1434q25 0 35 -33l424 -1370q8 -31 -23 -31h-41q-15 0 -21 6.5t-11 24.5l-88 286h-648l-88 -286q-5 -18 -11 -24.5t-21 -6.5h-41q-31 0 -23 31l424 1370q10 33 37 33h96zM291 1571l217 246q14 16 23 21t26 5h37q14 0 21.5 -1t17 -7t18.5 -18l217 -246q9 -12 6 -21.5
t-18 -9.5h-45q-11 0 -16 1t-12.5 6t-16.5 16l-176 200h-21l-176 -200q-12 -16 -21.5 -19.5t-25.5 -3.5h-43q-15 0 -18.5 9.5t6.5 21.5zM297 401h594l-287 930h-18z" />
    <glyph glyph-name="Atilde" unicode="&#xc3;" horiz-adv-x="1187" 
d="M643 1434q25 0 35 -33l424 -1370q8 -31 -23 -31h-41q-15 0 -21 6.5t-11 24.5l-88 286h-648l-88 -286q-5 -18 -11 -24.5t-21 -6.5h-41q-31 0 -23 31l424 1370q10 33 37 33h96zM268 1774q-9 15 15 30q81 49 159 49q44 0 87 -16t72.5 -35t71 -35t83.5 -16q59 0 116 39
q23 14 31 -8l17 -31q10 -17 -13 -31q-81 -49 -159 -49q-44 0 -87 16t-73 35.5t-72 35.5t-84 16q-54 0 -117 -39q-8 -5 -13 -6t-8.5 2.5t-6.5 11.5zM297 401h594l-287 930h-18z" />
    <glyph glyph-name="Adieresis" unicode="&#xc4;" horiz-adv-x="1187" 
d="M643 1434q25 0 35 -33l424 -1370q8 -31 -23 -31h-41q-15 0 -21 6.5t-11 24.5l-88 286h-648l-88 -286q-5 -18 -11 -24.5t-21 -6.5h-41q-31 0 -23 31l424 1370q10 33 37 33h96zM285 1765v54q0 15 5.5 19.5t20.5 4.5h54q15 0 19.5 -4.5t4.5 -19.5v-54q0 -15 -4.5 -20.5
t-19.5 -5.5h-54q-15 0 -20.5 5.5t-5.5 20.5zM297 401h594l-287 930h-18zM801 1765v54q0 15 5.5 19.5t20.5 4.5h54q15 0 19.5 -4.5t4.5 -19.5v-54q0 -15 -4.5 -20.5t-19.5 -5.5h-54q-15 0 -20.5 5.5t-5.5 20.5z" />
    <glyph glyph-name="Aring" unicode="&#xc5;" horiz-adv-x="1187" 
d="M643 1434q25 0 35 -33l424 -1370q8 -31 -23 -31h-41q-15 0 -21 6.5t-11 24.5l-88 286h-648l-88 -286q-5 -18 -11 -24.5t-21 -6.5h-41q-31 0 -23 31l424 1370q10 33 37 33h96zM297 401h594l-287 930h-18zM410 1681v25q0 71 49 119.5t123 48.5h24q74 0 123 -48.5t49 -119.5
v-25q0 -71 -49 -119.5t-123 -48.5h-24q-74 0 -123 48.5t-49 119.5zM485 1686q0 -45 27 -72t74 -27h16q47 0 73.5 27t26.5 72v16q0 45 -26.5 71.5t-73.5 26.5h-16q-47 0 -74 -26.5t-27 -71.5v-16z" />
    <glyph glyph-name="AE" unicode="&#xc6;" horiz-adv-x="1812" 
d="M82 0q-15 0 -19.5 9t3.5 22l765 1372q10 17 18.5 24t22.5 7h826q16 0 22 -5t6 -20v-37q0 -15 -6.5 -20.5t-21.5 -5.5h-707v-582h647q16 0 22.5 -5.5t6.5 -19.5v-34q0 -14 -6.5 -19.5t-22.5 -5.5h-647v-592h709q16 0 22.5 -5.5t6.5 -19.5v-36q0 -27 -29 -27h-772
q-29 0 -29 27v290h-569l-160 -286q-10 -17 -18.5 -24t-22.5 -7h-47zM377 401h522v938z" />
    <glyph glyph-name="Ccedilla" unicode="&#xc7;" horiz-adv-x="1226" 
d="M623 -408q-96 0 -136.5 38t-40.5 116q0 25 23 25h37q8 0 14 -5t6 -12q-2 -48 24 -69t91 -21h41q61 0 85 16.5t24 55.5t-23.5 56.5t-75.5 17.5h-106q-34 0 -56 18t-22 51q0 46 65 111q-428 3 -428 409v635q0 410 433 410h98q217 0 321.5 -94.5t104.5 -292.5v-10
q0 -7 -5.5 -12t-13.5 -5h-57q-16 0 -16 17q0 162 -80.5 235.5t-249.5 73.5h-105q-173 0 -255 -78.5t-82 -243.5v-633q0 -166 82 -244.5t255 -78.5h105q168 0 249 69.5t81 219.5q0 16 16 16h57q19 0 19 -16v-11q0 -185 -105 -275.5t-321 -90.5h-10q-121 -113 -17 -113h66
q75 0 116 -29.5t41 -115.5q0 -72 -40 -106t-134 -34h-75z" />
    <glyph glyph-name="Egrave" unicode="&#xc8;" horiz-adv-x="1060" 
d="M174 0q-29 0 -29 27v1382q0 14 6.5 19.5t22.5 5.5h770q16 0 22.5 -5.5t6.5 -19.5v-37q0 -26 -29 -26h-706v-582h647q15 0 21.5 -5t6.5 -20v-34q0 -15 -6.5 -20t-21.5 -5h-647v-592h710q15 0 21 -5t6 -20v-36q0 -15 -6 -21t-21 -6h-774zM338 1806q-11 17 -5.5 27t23.5 10
h52q18 0 28 -8.5t21 -28.5l153 -235q10 -17 3.5 -27t-23.5 -10h-31q-25 0 -51 37z" />
    <glyph glyph-name="Eacute" unicode="&#xc9;" horiz-adv-x="1060" 
d="M174 0q-29 0 -29 27v1382q0 14 6.5 19.5t22.5 5.5h770q16 0 22.5 -5.5t6.5 -19.5v-37q0 -26 -29 -26h-706v-582h647q15 0 21.5 -5t6.5 -20v-34q0 -15 -6.5 -20t-21.5 -5h-647v-592h710q15 0 21 -5t6 -20v-36q0 -15 -6 -21t-21 -6h-774zM526 1571l156 235q21 37 45 37h51
q18 0 25 -10t-4 -27l-170 -235q-26 -37 -51 -37h-31q-16 0 -23 10t2 27z" />
    <glyph glyph-name="Ecircumflex" unicode="&#xca;" horiz-adv-x="1060" 
d="M174 0q-29 0 -29 27v1382q0 14 6.5 19.5t22.5 5.5h770q16 0 22.5 -5.5t6.5 -19.5v-37q0 -26 -29 -26h-706v-582h647q15 0 21.5 -5t6.5 -20v-34q0 -15 -6.5 -20t-21.5 -5h-647v-592h710q15 0 21 -5t6 -20v-36q0 -15 -6 -21t-21 -6h-774zM266 1571l217 246q14 16 23 21
t26 5h37q14 0 22 -1t17.5 -7t18.5 -18l217 -246q9 -12 5.5 -21.5t-18.5 -9.5h-45q-11 0 -16 1t-12.5 6t-16.5 16l-176 200h-20l-176 -200q-12 -16 -21.5 -19.5t-25.5 -3.5h-43q-15 0 -19 9.5t6 21.5z" />
    <glyph glyph-name="Edieresis" unicode="&#xcb;" horiz-adv-x="1060" 
d="M174 0q-29 0 -29 27v1382q0 14 6.5 19.5t22.5 5.5h770q16 0 22.5 -5.5t6.5 -19.5v-37q0 -26 -29 -26h-706v-582h647q15 0 21.5 -5t6.5 -20v-34q0 -15 -6.5 -20t-21.5 -5h-647v-592h710q15 0 21 -5t6 -20v-36q0 -15 -6 -21t-21 -6h-774zM260 1765v54q0 15 5.5 19.5
t21.5 4.5h53q15 0 20 -4.5t5 -19.5v-54q0 -15 -5 -20.5t-20 -5.5h-53q-15 0 -21 5.5t-6 20.5zM776 1765v54q0 15 5.5 19.5t21.5 4.5h53q15 0 20 -4.5t5 -19.5v-54q0 -15 -5 -20.5t-20 -5.5h-53q-15 0 -21 5.5t-6 20.5z" />
    <glyph glyph-name="Igrave" unicode="&#xcc;" horiz-adv-x="385" 
d="M172 0q-15 0 -21 6t-6 21v1382q0 15 6 20t21 5h41q15 0 20 -5t5 -20v-1382q0 -15 -5 -21t-20 -6h-41zM-39 1806q-11 17 -5 27t24 10h51q18 0 28 -8.5t21 -28.5l153 -235q10 -17 3.5 -27t-23.5 -10h-31q-25 0 -51 37z" />
    <glyph glyph-name="Iacute" unicode="&#xcd;" horiz-adv-x="385" 
d="M172 0q-15 0 -21 6t-6 21v1382q0 15 6 20t21 5h41q15 0 20 -5t5 -20v-1382q0 -15 -5 -21t-20 -6h-41zM150 1571l155 235q21 37 45 37h51q18 0 25 -10t-4 -27l-170 -235q-26 -37 -51 -37h-31q-16 0 -22.5 10t2.5 27z" />
    <glyph glyph-name="Icircumflex" unicode="&#xce;" horiz-adv-x="385" 
d="M172 0q-15 0 -21 6t-6 21v1382q0 15 6 20t21 5h41q15 0 20 -5t5 -20v-1382q0 -15 -5 -21t-20 -6h-41zM-113 1571l219 246q23 26 50 26h37q14 0 21.5 -1t17 -7t18.5 -18l217 -246q9 -12 6 -21.5t-18 -9.5h-45q-11 0 -16 1t-12.5 6t-16.5 16l-177 200h-20l-178 -200
q-12 -16 -21.5 -19.5t-25.5 -3.5h-43q-15 0 -19 9.5t6 21.5z" />
    <glyph glyph-name="Idieresis" unicode="&#xcf;" horiz-adv-x="385" 
d="M172 0q-15 0 -21 6t-6 21v1382q0 15 6 20t21 5h41q15 0 20 -5t5 -20v-1382q0 -15 -5 -21t-20 -6h-41zM-119 1765v54q0 15 5.5 19.5t21.5 4.5h53q15 0 20 -4.5t5 -19.5v-54q0 -15 -5 -20.5t-20 -5.5h-53q-15 0 -21 5.5t-6 20.5zM397 1765v54q0 15 5.5 19.5t21.5 4.5h53
q15 0 20 -4.5t5 -19.5v-54q0 -15 -5 -20.5t-20 -5.5h-53q-15 0 -21 5.5t-6 20.5z" />
    <glyph glyph-name="Eth" unicode="&#xd0;" horiz-adv-x="1255" 
d="M188 0q-15 0 -20.5 6t-5.5 21v653h-131q-23 0 -23 22v37q0 23 23 23h131v647q0 15 5.5 20t20.5 5h490q432 0 432 -410v-614q0 -410 -432 -410h-490zM254 88h426q173 0 255.5 79t82.5 245v612q0 164 -82.5 243t-255.5 79h-426v-584h244q22 0 22 -23v-37q0 -22 -22 -22
h-244v-592z" />
    <glyph glyph-name="Ntilde" unicode="&#xd1;" horiz-adv-x="1204" 
d="M172 0q-15 0 -21 6t-6 21v1382q0 15 6 20t21 5h107q25 0 36 -23l635 -1313h15v1311q0 15 5.5 20t20.5 5h41q15 0 20 -5t5 -20v-1382q0 -15 -5 -21t-20 -6h-108q-23 0 -37 23l-633 1314h-16v-1310q0 -15 -5 -21t-20 -6h-41zM276 1774q-9 15 15 30q81 49 160 49
q55 0 107 -25.5t103 -51t103 -25.5q60 0 117 39q22 14 30 -8l17 -31q10 -17 -13 -31q-81 -49 -159 -49q-44 0 -87 16t-73 35.5t-72 35.5t-84 16q-53 0 -116 -39q-21 -13 -29 8z" />
    <glyph glyph-name="Ograve" unicode="&#xd2;" 
d="M578 -10q-433 0 -433 409v635q0 410 433 410h114q432 0 432 -410v-635q0 -409 -432 -409h-114zM238 401q0 -166 81.5 -244.5t255.5 -78.5h119q173 0 255.5 78.5t82.5 244.5v633q0 164 -82.5 243t-255.5 79h-119q-174 0 -255.5 -78.5t-81.5 -243.5v-633zM406 1806
q-11 17 -5.5 27t23.5 10h51q18 0 28 -8.5t21 -28.5l154 -235q10 -17 3 -27t-24 -10h-30q-26 0 -52 37z" />
    <glyph glyph-name="Oacute" unicode="&#xd3;" 
d="M578 -10q-433 0 -433 409v635q0 410 433 410h114q432 0 432 -410v-635q0 -409 -432 -409h-114zM238 401q0 -166 81.5 -244.5t255.5 -78.5h119q173 0 255.5 78.5t82.5 244.5v633q0 164 -82.5 243t-255.5 79h-119q-174 0 -255.5 -78.5t-81.5 -243.5v-633zM594 1571l156 235
q21 37 45 37h51q18 0 24.5 -10t-4.5 -27l-170 -235q-26 -37 -51 -37h-31q-16 0 -22.5 10t2.5 27z" />
    <glyph glyph-name="Ocircumflex" unicode="&#xd4;" 
d="M578 -10q-433 0 -433 409v635q0 410 433 410h114q432 0 432 -410v-635q0 -409 -432 -409h-114zM238 401q0 -166 81.5 -244.5t255.5 -78.5h119q173 0 255.5 78.5t82.5 244.5v633q0 164 -82.5 243t-255.5 79h-119q-174 0 -255.5 -78.5t-81.5 -243.5v-633zM332 1571l217 246
q14 16 23 21t26 5h37q14 0 21.5 -1t17 -7t18.5 -18l217 -246q9 -12 6 -21.5t-18 -9.5h-45q-11 0 -16 1t-12.5 6t-16.5 16l-176 200h-21l-176 -200q-12 -16 -21.5 -19.5t-25.5 -3.5h-43q-15 0 -18.5 9.5t6.5 21.5z" />
    <glyph glyph-name="Otilde" unicode="&#xd5;" 
d="M578 -10q-433 0 -433 409v635q0 410 433 410h114q432 0 432 -410v-635q0 -409 -432 -409h-114zM238 401q0 -166 81.5 -244.5t255.5 -78.5h119q173 0 255.5 78.5t82.5 244.5v633q0 164 -82.5 243t-255.5 79h-119q-174 0 -255.5 -78.5t-81.5 -243.5v-633zM309 1774
q-9 15 15 30q81 49 159 49q44 0 87 -16t72.5 -35t71 -35t83.5 -16q59 0 116 39q23 14 31 -8l17 -31q10 -17 -13 -31q-81 -49 -160 -49q-44 0 -87 16t-73 35.5t-71.5 35.5t-83.5 16q-54 0 -117 -39q-8 -5 -13 -6t-8.5 2.5t-6.5 11.5z" />
    <glyph glyph-name="Odieresis" unicode="&#xd6;" 
d="M578 -10q-433 0 -433 409v635q0 410 433 410h114q432 0 432 -410v-635q0 -409 -432 -409h-114zM238 401q0 -166 81.5 -244.5t255.5 -78.5h119q173 0 255.5 78.5t82.5 244.5v633q0 164 -82.5 243t-255.5 79h-119q-174 0 -255.5 -78.5t-81.5 -243.5v-633zM326 1765v54
q0 15 5.5 19.5t20.5 4.5h54q15 0 19.5 -4.5t4.5 -19.5v-54q0 -15 -4.5 -20.5t-19.5 -5.5h-54q-15 0 -20.5 5.5t-5.5 20.5zM842 1765v54q0 15 5.5 19.5t20.5 4.5h54q15 0 19.5 -4.5t4.5 -19.5v-54q0 -15 -4.5 -20.5t-19.5 -5.5h-54q-15 0 -20.5 5.5t-5.5 20.5z" />
    <glyph glyph-name="multiply" unicode="&#xd7;" horiz-adv-x="817" 
d="M113 395q-11 11 -11 18t11 19l231 230l-229 229q-11 11 -11.5 18.5t9.5 18.5l28 30q19 18 39 -2l230 -229l227 229q21 20 39 2l29 -30q17 -17 -3 -37l-229 -229l232 -230q11 -12 11 -19t-11 -18l-29 -30q-18 -19 -39 2l-227 229l-230 -229q-20 -21 -39 -2z" />
    <glyph glyph-name="Oslash" unicode="&#xd8;" 
d="M281 -72q-31 0 -19 29l41 96q-158 98 -158 346v635q0 410 433 410h114q113 0 199 -25l24 54q7 16 14 23t21 7h41q31 0 19 -30l-39 -95q153 -99 153 -344v-635q0 -409 -432 -409h-114q-119 0 -197 22l-23 -53q-12 -31 -36 -31h-41zM240 401q0 -203 104 -256l512 1188
q-57 23 -149 23h-132q-174 0 -254.5 -78.5t-80.5 -243.5v-633zM418 98q51 -20 145 -20h131q173 0 255.5 78.5t82.5 244.5v633q0 197 -102 252z" />
    <glyph glyph-name="Ugrave" unicode="&#xd9;" 
d="M578 -10q-433 0 -433 409v1010q0 15 6 20t21 5h41q15 0 20 -5t5 -20v-1008q0 -166 81.5 -244.5t255.5 -78.5h119q173 0 255.5 78.5t82.5 244.5v1008q0 15 5 20t20 5h41q15 0 20.5 -5t5.5 -20v-1010q0 -409 -432 -409h-114zM406 1806q-11 17 -5.5 27t23.5 10h51
q18 0 28 -8.5t21 -28.5l154 -235q10 -17 3 -27t-24 -10h-30q-26 0 -52 37z" />
    <glyph glyph-name="Uacute" unicode="&#xda;" 
d="M578 -10q-433 0 -433 409v1010q0 15 6 20t21 5h41q15 0 20 -5t5 -20v-1008q0 -166 81.5 -244.5t255.5 -78.5h119q173 0 255.5 78.5t82.5 244.5v1008q0 15 5 20t20 5h41q15 0 20.5 -5t5.5 -20v-1010q0 -409 -432 -409h-114zM594 1571l156 235q21 37 45 37h51
q18 0 24.5 -10t-4.5 -27l-170 -235q-26 -37 -51 -37h-31q-16 0 -22.5 10t2.5 27z" />
    <glyph glyph-name="Ucircumflex" unicode="&#xdb;" 
d="M578 -10q-433 0 -433 409v1010q0 15 6 20t21 5h41q15 0 20 -5t5 -20v-1008q0 -166 81.5 -244.5t255.5 -78.5h119q173 0 255.5 78.5t82.5 244.5v1008q0 15 5 20t20 5h41q15 0 20.5 -5t5.5 -20v-1010q0 -409 -432 -409h-114zM332 1571l217 246q14 16 23 21t26 5h37
q14 0 21.5 -1t17 -7t18.5 -18l217 -246q9 -12 6 -21.5t-18 -9.5h-45q-11 0 -16 1t-12.5 6t-16.5 16l-176 200h-21l-176 -200q-12 -16 -21.5 -19.5t-25.5 -3.5h-43q-15 0 -18.5 9.5t6.5 21.5z" />
    <glyph glyph-name="Udieresis" unicode="&#xdc;" 
d="M578 -10q-433 0 -433 409v1010q0 15 6 20t21 5h41q15 0 20 -5t5 -20v-1008q0 -166 81.5 -244.5t255.5 -78.5h119q173 0 255.5 78.5t82.5 244.5v1008q0 15 5 20t20 5h41q15 0 20.5 -5t5.5 -20v-1010q0 -409 -432 -409h-114zM326 1765v54q0 15 5.5 19.5t20.5 4.5h54
q15 0 19.5 -4.5t4.5 -19.5v-54q0 -15 -4.5 -20.5t-19.5 -5.5h-54q-15 0 -20.5 5.5t-5.5 20.5zM842 1765v54q0 15 5.5 19.5t20.5 4.5h54q15 0 19.5 -4.5t4.5 -19.5v-54q0 -15 -4.5 -20.5t-19.5 -5.5h-54q-15 0 -20.5 5.5t-5.5 20.5z" />
    <glyph glyph-name="Yacute" unicode="&#xdd;" horiz-adv-x="1124" 
d="M88 1405q-13 29 12 29h58q14 0 21.5 -6.5t15.5 -22.5l362 -729h10l363 729q14 29 35 29h57q28 0 12 -29l-426 -844v-534q0 -15 -5.5 -21t-20.5 -6h-41q-15 0 -20 6t-5 21v530zM520 1571l156 235q21 37 45 37h51q18 0 25 -10t-4 -27l-170 -235q-26 -37 -52 -37h-30
q-16 0 -23 10t2 27z" />
    <glyph glyph-name="Thorn" unicode="&#xde;" horiz-adv-x="1193" 
d="M172 0q-15 0 -21 6t-6 21v1382q0 15 6 20t21 5h41q15 0 20 -5t5 -20v-197h391q216 0 317 -95.5t101 -301.5v-194q0 -205 -101 -300.5t-317 -95.5h-391v-198q0 -15 -5 -21t-20 -6h-41zM238 313h393q173 0 248 72t75 238v192q0 165 -75 237t-248 72h-393v-811z" />
    <glyph glyph-name="germandbls" unicode="&#xdf;" horiz-adv-x="1120" 
d="M160 0q-25 0 -25 23v1075q0 165 96.5 255.5t260.5 90.5h98q164 0 259 -90.5t95 -255.5v-62q0 -104 -40 -166t-132 -100v-10q42 -13 72 -26t62.5 -36t52 -52t32.5 -73.5t13 -101.5v-109q0 -191 -95.5 -276.5t-300.5 -85.5h-73q-23 0 -23 23v36q0 13 5.5 18t17.5 5h73
q167 0 237 66t70 214v109q0 244 -323 244h-57q-13 0 -18 4.5t-5 17.5v37q0 23 23 23h57q117 0 190.5 59t73.5 180v62q0 124 -67 193t-197 69h-105q-128 0 -195 -69t-67 -193v-1075q0 -23 -24 -23h-41z" />
    <glyph glyph-name="agrave" unicode="&#xe0;" horiz-adv-x="1044" 
d="M844 0q-25 0 -25 23v143h-16q-61 -80 -154 -128t-211 -48h-8q-326 0 -326 301v45q0 258 314 258h401v98q0 65 -12.5 109t-43.5 78t-89 50.5t-146 16.5q-187 0 -297 -39q-7 -3 -13.5 1t-8.5 12l-8 45q-3 17 10 20q115 47 309 47h35q185 0 269.5 -82.5t84.5 -251.5v-675
q0 -23 -24 -23h-41zM195 297q0 -115 57 -168t174 -53h59q131 0 232.5 87.5t101.5 194.5v156h-395q-115 0 -172 -41.5t-57 -142.5v-33zM313 1397q-11 17 -5 27t24 10h51q18 0 28 -8.5t21 -28.5l154 -236q10 -17 3 -27t-24 -10h-30q-26 0 -52 37z" />
    <glyph glyph-name="aacute" unicode="&#xe1;" horiz-adv-x="1044" 
d="M844 0q-25 0 -25 23v143h-16q-61 -80 -154 -128t-211 -48h-8q-326 0 -326 301v45q0 258 314 258h401v98q0 65 -12.5 109t-43.5 78t-89 50.5t-146 16.5q-187 0 -297 -39q-7 -3 -13.5 1t-8.5 12l-8 45q-3 17 10 20q115 47 309 47h35q185 0 269.5 -82.5t84.5 -251.5v-675
q0 -23 -24 -23h-41zM195 297q0 -115 57 -168t174 -53h59q131 0 232.5 87.5t101.5 194.5v156h-395q-115 0 -172 -41.5t-57 -142.5v-33zM502 1161l155 236q21 37 45 37h52q18 0 24.5 -10t-4.5 -27l-170 -236q-26 -37 -51 -37h-31q-16 0 -22.5 10t2.5 27z" />
    <glyph glyph-name="acircumflex" unicode="&#xe2;" horiz-adv-x="1044" 
d="M844 0q-25 0 -25 23v143h-16q-61 -80 -154 -128t-211 -48h-8q-326 0 -326 301v45q0 258 314 258h401v98q0 65 -12.5 109t-43.5 78t-89 50.5t-146 16.5q-187 0 -297 -39q-7 -3 -13.5 1t-8.5 12l-8 45q-3 17 10 20q115 47 309 47h35q185 0 269.5 -82.5t84.5 -251.5v-675
q0 -23 -24 -23h-41zM195 297q0 -115 57 -168t174 -53h59q131 0 232.5 87.5t101.5 194.5v156h-395q-115 0 -172 -41.5t-57 -142.5v-33zM240 1161l217 246q15 16 24 21.5t25 5.5h37q38 0 57 -27l217 -246q9 -12 6 -21.5t-18 -9.5h-45q-11 0 -16 1t-12.5 6t-16.5 16l-176 201
h-21l-176 -201q-12 -16 -21.5 -19.5t-25.5 -3.5h-43q-15 0 -18.5 9.5t6.5 21.5z" />
    <glyph glyph-name="atilde" unicode="&#xe3;" horiz-adv-x="1044" 
d="M844 0q-25 0 -25 23v143h-16q-61 -80 -154 -128t-211 -48h-8q-326 0 -326 301v45q0 258 314 258h401v98q0 65 -12.5 109t-43.5 78t-89 50.5t-146 16.5q-187 0 -297 -39q-7 -3 -13.5 1t-8.5 12l-8 45q-3 17 10 20q115 47 309 47h35q185 0 269.5 -82.5t84.5 -251.5v-675
q0 -23 -24 -23h-41zM195 297q0 -115 57 -168t174 -53h59q131 0 232.5 87.5t101.5 194.5v156h-395q-115 0 -172 -41.5t-57 -142.5v-33zM217 1364q-10 16 14 31q81 49 160 49q44 0 87 -16t72.5 -35.5t71 -35.5t83.5 -16q59 0 116 39q23 14 31 -8l16 -31q10 -16 -12 -30
q-81 -49 -160 -49q-55 0 -107.5 25.5t-104 51t-103.5 25.5q-54 0 -117 -39q-8 -5 -13 -6t-8.5 2.5t-6.5 11.5z" />
    <glyph glyph-name="adieresis" unicode="&#xe4;" horiz-adv-x="1044" 
d="M844 0q-25 0 -25 23v143h-16q-61 -80 -154 -128t-211 -48h-8q-326 0 -326 301v45q0 258 314 258h401v98q0 65 -12.5 109t-43.5 78t-89 50.5t-146 16.5q-187 0 -297 -39q-7 -3 -13.5 1t-8.5 12l-8 45q-3 17 10 20q115 47 309 47h35q185 0 269.5 -82.5t84.5 -251.5v-675
q0 -23 -24 -23h-41zM195 297q0 -115 57 -168t174 -53h59q131 0 232.5 87.5t101.5 194.5v156h-395q-115 0 -172 -41.5t-57 -142.5v-33zM233 1356v53q0 15 6 20t21 5h53q15 0 20 -5t5 -20v-53q0 -15 -5 -21t-20 -6h-53q-15 0 -21 6t-6 21zM750 1356v53q0 15 5.5 20t20.5 5h53
q15 0 20 -5t5 -20v-53q0 -15 -5 -21t-20 -6h-53q-15 0 -20.5 6t-5.5 21z" />
    <glyph glyph-name="aring" unicode="&#xe5;" horiz-adv-x="1044" 
d="M844 0q-25 0 -25 23v143h-16q-61 -80 -154 -128t-211 -48h-8q-326 0 -326 301v45q0 258 314 258h401v98q0 65 -12.5 109t-43.5 78t-89 50.5t-146 16.5q-187 0 -297 -39q-7 -3 -13.5 1t-8.5 12l-8 45q-3 17 10 20q115 47 309 47h35q185 0 269.5 -82.5t84.5 -251.5v-675
q0 -23 -24 -23h-41zM195 297q0 -115 57 -168t174 -53h59q131 0 232.5 87.5t101.5 194.5v156h-395q-115 0 -172 -41.5t-57 -142.5v-33zM360 1272v24q0 71 49 119.5t123 48.5h25q74 0 123 -48.5t49 -119.5v-24q0 -71 -49 -119.5t-123 -48.5h-25q-74 0 -123 48.5t-49 119.5z
M436 1276q0 -45 27 -71.5t74 -26.5h16q47 0 73.5 26.5t26.5 71.5v16q0 45 -26.5 72t-73.5 27h-16q-47 0 -74 -27t-27 -72v-16z" />
    <glyph glyph-name="ae" unicode="&#xe6;" horiz-adv-x="1734" 
d="M430 -10q-172 0 -249 66t-77 212v43q0 120 83.5 180t230.5 60h401v145q0 64 -12.5 107.5t-43.5 77t-89 49.5t-146 16q-187 0 -297 -39q-7 -3 -13.5 1t-8.5 12l-8 45q-3 17 10 20q115 47 309 47h35q237 0 315 -143q43 69 120.5 106t180.5 37h95q168 0 260 -87.5t92 -252.5
v-155q0 -29 -17.5 -46.5t-46.5 -17.5h-645v-135q0 -124 74.5 -196t226.5 -72h21q180 0 295 84q16 13 24 0l25 -31q6 -6 5.5 -13t-5.5 -10q-44 -46 -135 -78t-213 -32h-19q-293 0 -368 211q-52 -97 -159.5 -154t-236.5 -57h-14zM195 274q0 -114 54.5 -156t176.5 -42h59
q131 0 232.5 87.5t101.5 194.5v117h-395q-229 0 -229 -168v-33zM909 549h621v141q0 258 -264 258h-95q-129 0 -195.5 -70t-66.5 -194v-135z" />
    <glyph glyph-name="ccedilla" unicode="&#xe7;" horiz-adv-x="1007" 
d="M553 -408q-96 0 -136 38t-40 116q0 25 22 25h37q8 0 14.5 -5t6.5 -12q-2 -48 23.5 -69t90.5 -21h41q61 0 85 16.5t24 55.5t-23 56.5t-75 17.5h-107q-34 0 -56 18t-22 51q0 45 66 111q-191 1 -290 90t-99 256v350q0 164 95.5 255t260.5 91h86q160 0 253 -78.5t93 -218.5
v-12q0 -23 -24 -23h-41q-25 0 -25 23v10q0 100 -65.5 157.5t-186.5 57.5h-94q-128 0 -195 -69.5t-67 -194.5v-350q0 -124 75 -192t230 -68h14q86 0 141 13t86 36t58 65q9 14 15.5 17t29.5 -4l18 -8q25 -12 13 -39q-35 -69 -102 -110.5t-185 -51.5q-123 -115 -18 -115h65
q36 0 61.5 -5.5t49 -20t35.5 -44.5t12 -75q0 -72 -40 -106t-134 -34h-76z" />
    <glyph glyph-name="egrave" unicode="&#xe8;" horiz-adv-x="1030" 
d="M504 -10q-192 0 -290.5 91t-98.5 255v350q0 164 94 255t258 91h94q168 0 260 -87.5t92 -252.5v-155q0 -29 -17 -46.5t-46 -17.5h-645v-135q0 -124 74.5 -196t226.5 -72h20q180 0 295 84q16 13 25 0l24 -31q6 -6 5.5 -13t-5.5 -10q-44 -46 -135 -78t-213 -32h-18zM205 549
h620v141q0 258 -264 258h-94q-129 0 -195.5 -70t-66.5 -194v-135zM287 1397q-11 17 -5.5 27t23.5 10h51q18 0 28.5 -8.5t21.5 -28.5l153 -236q10 -17 3.5 -27t-23.5 -10h-31q-25 0 -51 37z" />
    <glyph glyph-name="eacute" unicode="&#xe9;" horiz-adv-x="1030" 
d="M504 -10q-192 0 -290.5 91t-98.5 255v350q0 164 94 255t258 91h94q168 0 260 -87.5t92 -252.5v-155q0 -29 -17 -46.5t-46 -17.5h-645v-135q0 -124 74.5 -196t226.5 -72h20q180 0 295 84q16 13 25 0l24 -31q6 -6 5.5 -13t-5.5 -10q-44 -46 -135 -78t-213 -32h-18zM205 549
h620v141q0 258 -264 258h-94q-129 0 -195.5 -70t-66.5 -194v-135zM475 1161l156 236q21 37 45 37h51q18 0 25 -10t-4 -27l-170 -236q-26 -37 -52 -37h-30q-16 0 -23 10t2 27z" />
    <glyph glyph-name="ecircumflex" unicode="&#xea;" horiz-adv-x="1030" 
d="M504 -10q-192 0 -290.5 91t-98.5 255v350q0 164 94 255t258 91h94q168 0 260 -87.5t92 -252.5v-155q0 -29 -17 -46.5t-46 -17.5h-645v-135q0 -124 74.5 -196t226.5 -72h20q180 0 295 84q16 13 25 0l24 -31q6 -6 5.5 -13t-5.5 -10q-44 -46 -135 -78t-213 -32h-18zM205 549
h620v141q0 258 -264 258h-94q-129 0 -195.5 -70t-66.5 -194v-135zM213 1161l217 246q15 16 24 21.5t25 5.5h37q38 0 57 -27l218 -246q9 -12 5.5 -21.5t-18.5 -9.5h-45q-11 0 -16 1t-12.5 6t-16.5 16l-176 201h-20l-177 -201q-12 -16 -21.5 -19.5t-25.5 -3.5h-43
q-15 0 -18.5 9.5t6.5 21.5z" />
    <glyph glyph-name="edieresis" unicode="&#xeb;" horiz-adv-x="1030" 
d="M504 -10q-192 0 -290.5 91t-98.5 255v350q0 164 94 255t258 91h94q168 0 260 -87.5t92 -252.5v-155q0 -29 -17 -46.5t-46 -17.5h-645v-135q0 -124 74.5 -196t226.5 -72h20q180 0 295 84q16 13 25 0l24 -31q6 -6 5.5 -13t-5.5 -10q-44 -46 -135 -78t-213 -32h-18zM205 549
h620v141q0 258 -264 258h-94q-129 0 -195.5 -70t-66.5 -194v-135zM207 1356v53q0 15 5.5 20t20.5 5h54q15 0 19.5 -5t4.5 -20v-53q0 -16 -4.5 -21.5t-19.5 -5.5h-54q-15 0 -20.5 6t-5.5 21zM723 1356v53q0 15 6 20t21 5h53q15 0 19.5 -5t4.5 -20v-53q0 -16 -4.5 -21.5
t-19.5 -5.5h-53q-15 0 -21 6t-6 21z" />
    <glyph glyph-name="igrave" unicode="&#xec;" horiz-adv-x="313" 
d="M135 0q-22 0 -22 23v978q0 23 22 23h43q23 0 23 -23v-978q0 -23 -23 -23h-43zM-74 1397q-11 17 -5 27t24 10h51q18 0 28 -8.5t21 -28.5l154 -236q10 -17 3 -27t-24 -10h-31q-25 0 -51 37z" />
    <glyph glyph-name="iacute" unicode="&#xed;" horiz-adv-x="313" 
d="M135 0q-22 0 -22 23v978q0 23 22 23h43q23 0 23 -23v-978q0 -23 -23 -23h-43zM117 1161l155 236q21 37 45 37h52q18 0 24.5 -10t-4.5 -27l-170 -236q-26 -37 -51 -37h-31q-16 0 -22.5 10t2.5 27z" />
    <glyph glyph-name="icircumflex" unicode="&#xee;" horiz-adv-x="313" 
d="M135 0q-22 0 -22 23v978q0 23 22 23h43q23 0 23 -23v-978q0 -23 -23 -23h-43zM-145 1161l217 246q15 16 24 21.5t25 5.5h37q38 0 57 -27l217 -246q9 -12 6 -21.5t-18 -9.5h-45q-11 0 -16 1t-12.5 6t-16.5 16l-176 201h-21l-176 -201q-12 -16 -21.5 -19.5t-25.5 -3.5h-43
q-15 0 -18.5 9.5t6.5 21.5z" />
    <glyph glyph-name="idieresis" unicode="&#xef;" horiz-adv-x="313" 
d="M135 0q-22 0 -22 23v978q0 23 22 23h43q23 0 23 -23v-978q0 -23 -23 -23h-43zM-152 1356v53q0 15 6 20t21 5h53q15 0 20 -5t5 -20v-53q0 -15 -5 -21t-20 -6h-53q-15 0 -21 6t-6 21zM365 1356v53q0 15 5.5 20t20.5 5h53q15 0 20 -5t5 -20v-53q0 -15 -5 -21t-20 -6h-53
q-15 0 -20.5 6t-5.5 21z" />
    <glyph glyph-name="eth" unicode="&#xf0;" horiz-adv-x="1032" 
d="M604 1130l225 175v106q0 23 23 23h43q23 0 23 -23v-39h114l-114 -88v-1261q0 -23 -23 -23h-43q-23 0 -23 23v98h-16q-36 -62 -103.5 -96.5t-160.5 -34.5h-82q-170 0 -261 87.5t-91 258.5v350q0 171 91 258.5t261 87.5h82q190 0 264 -129h16v316l-114 -89h-111zM205 342
q0 -268 270 -268h88q129 0 197.5 69.5t68.5 192.5v350q0 123 -68.5 192.5t-197.5 69.5h-88q-270 0 -270 -266v-340z" />
    <glyph glyph-name="ntilde" unicode="&#xf1;" horiz-adv-x="1073" 
d="M160 0q-25 0 -25 23v978q0 23 25 23h41q24 0 24 -23v-96h19q92 127 278 127h76q175 0 257.5 -85.5t82.5 -260.5v-663q0 -23 -25 -23h-41q-22 0 -22 23v659q0 132 -64.5 199t-203.5 67h-70q-138 0 -212.5 -70t-74.5 -194v-661q0 -23 -24 -23h-41zM211 1364q-10 16 14 31
q81 49 160 49q44 0 86.5 -16t72 -35.5t71 -35.5t83.5 -16q60 0 117 39q23 14 31 -8l16 -31q10 -16 -12 -30q-81 -49 -160 -49q-55 0 -107.5 25.5t-104 51t-103.5 25.5q-54 0 -117 -39q-21 -13 -29 8z" />
    <glyph glyph-name="ograve" unicode="&#xf2;" horiz-adv-x="1032" 
d="M471 -10q-169 0 -262.5 88t-93.5 254v360q0 164 93.5 252t262.5 88h92q168 0 261.5 -88t93.5 -252v-360q0 -165 -94 -253.5t-261 -88.5h-92zM205 332q0 -124 65 -191t197 -67h98q132 0 198 67t66 191v358q0 124 -66 191t-198 67h-98q-132 0 -197 -67t-65 -191v-358z
M285 1397q-11 17 -5.5 27t23.5 10h51q18 0 28 -8.5t21 -28.5l154 -236q10 -17 3.5 -27t-23.5 -10h-31q-25 0 -51 37z" />
    <glyph glyph-name="oacute" unicode="&#xf3;" horiz-adv-x="1032" 
d="M471 -10q-169 0 -262.5 88t-93.5 254v360q0 164 93.5 252t262.5 88h92q168 0 261.5 -88t93.5 -252v-360q0 -165 -94 -253.5t-261 -88.5h-92zM205 332q0 -124 65 -191t197 -67h98q132 0 198 67t66 191v358q0 124 -66 191t-198 67h-98q-132 0 -197 -67t-65 -191v-358z
M475 1161l156 236q21 37 45 37h51q18 0 25 -10t-4 -27l-170 -236q-26 -37 -52 -37h-30q-16 0 -23 10t2 27z" />
    <glyph glyph-name="ocircumflex" unicode="&#xf4;" horiz-adv-x="1032" 
d="M471 -10q-169 0 -262.5 88t-93.5 254v360q0 164 93.5 252t262.5 88h92q168 0 261.5 -88t93.5 -252v-360q0 -165 -94 -253.5t-261 -88.5h-92zM205 332q0 -124 65 -191t197 -67h98q132 0 198 67t66 191v358q0 124 -66 191t-198 67h-98q-132 0 -197 -67t-65 -191v-358z
M213 1161l217 246q15 16 24 21.5t25 5.5h37q38 0 57 -27l218 -246q9 -12 5.5 -21.5t-18.5 -9.5h-45q-11 0 -16 1t-12.5 6t-16.5 16l-176 201h-20l-177 -201q-12 -16 -21.5 -19.5t-25.5 -3.5h-43q-15 0 -18.5 9.5t6.5 21.5z" />
    <glyph glyph-name="otilde" unicode="&#xf5;" horiz-adv-x="1032" 
d="M471 -10q-169 0 -262.5 88t-93.5 254v360q0 164 93.5 252t262.5 88h92q168 0 261.5 -88t93.5 -252v-360q0 -165 -94 -253.5t-261 -88.5h-92zM190 1364q-9 16 15 31q81 49 160 49q44 0 86.5 -16t72 -35.5t71 -35.5t83.5 -16q60 0 117 39q22 14 30 -8l17 -31
q10 -16 -13 -30q-81 -49 -159 -49q-44 0 -87 16t-73 35t-72 35t-84 16q-53 0 -116 -39q-21 -13 -29 8zM205 332q0 -124 65 -191t197 -67h98q132 0 198 67t66 191v358q0 124 -66 191t-198 67h-98q-132 0 -197 -67t-65 -191v-358z" />
    <glyph glyph-name="odieresis" unicode="&#xf6;" horiz-adv-x="1032" 
d="M471 -10q-169 0 -262.5 88t-93.5 254v360q0 164 93.5 252t262.5 88h92q168 0 261.5 -88t93.5 -252v-360q0 -165 -94 -253.5t-261 -88.5h-92zM205 332q0 -124 65 -191t197 -67h98q132 0 198 67t66 191v358q0 124 -66 191t-198 67h-98q-132 0 -197 -67t-65 -191v-358z
M207 1356v53q0 15 5.5 20t20.5 5h54q15 0 19.5 -5t4.5 -20v-53q0 -16 -4.5 -21.5t-19.5 -5.5h-54q-15 0 -20.5 6t-5.5 21zM723 1356v53q0 15 6 20t21 5h53q15 0 19.5 -5t4.5 -20v-53q0 -16 -4.5 -21.5t-19.5 -5.5h-53q-15 0 -21 6t-6 21z" />
    <glyph glyph-name="divide" unicode="&#xf7;" horiz-adv-x="1005" 
d="M467 913q-31 0 -31 31v76q0 31 31 31h74q30 0 30 -31v-76q0 -31 -30 -31h-74zM102 639v45q0 14 6.5 19.5t22.5 5.5h748q15 0 19.5 -5t4.5 -20v-45q0 -15 -4.5 -20t-21.5 -5h-746q-16 0 -22.5 5.5t-6.5 19.5zM436 305v76q0 31 31 31h74q30 0 30 -31v-76q0 -31 -30 -31h-74
q-31 0 -31 31z" />
    <glyph glyph-name="oslash" unicode="&#xf8;" horiz-adv-x="1032" 
d="M260 -47q-30 0 -18 24l24 58q-151 83 -151 297v360q0 164 93.5 252t262.5 88h104q71 0 127 -16l11 26q9 19 30 19h33q26 0 19 -21l-27 -55q150 -81 150 -293v-360q0 -165 -94 -253.5t-261 -88.5h-106q-76 0 -119 14l-16 -33q-9 -18 -31 -18h-31zM203 332q0 -145 100 -213
l363 817q-41 12 -88 12h-111q-132 0 -198 -67t-66 -191v-358zM373 88q44 -14 84 -14h108q132 0 198 67t66 191v358q0 139 -94 211z" />
    <glyph glyph-name="ugrave" unicode="&#xf9;" horiz-adv-x="1073" 
d="M475 -8q-175 0 -257.5 85.5t-82.5 260.5v663q0 23 25 23h41q24 0 24 -23v-659q0 -132 64 -199t203 -67h69q138 0 213.5 70t75.5 194v661q0 23 22 23h43q23 0 23 -23v-978q0 -23 -23 -23h-43q-22 0 -22 23v96h-19q-43 -59 -114.5 -93t-165.5 -34h-76zM276 1397
q-11 17 -5 27t24 10h51q18 0 28 -8.5t21 -28.5l154 -236q10 -17 3 -27t-24 -10h-30q-26 0 -52 37z" />
    <glyph glyph-name="uacute" unicode="&#xfa;" horiz-adv-x="1073" 
d="M475 -8q-175 0 -257.5 85.5t-82.5 260.5v663q0 23 25 23h41q24 0 24 -23v-659q0 -132 64 -199t203 -67h69q138 0 213.5 70t75.5 194v661q0 23 22 23h43q23 0 23 -23v-978q0 -23 -23 -23h-43q-22 0 -22 23v96h-19q-43 -59 -114.5 -93t-165.5 -34h-76zM465 1161l156 236
q21 37 45 37h51q18 0 24.5 -10t-4.5 -27l-170 -236q-26 -37 -51 -37h-31q-16 0 -22.5 10t2.5 27z" />
    <glyph glyph-name="ucircumflex" unicode="&#xfb;" horiz-adv-x="1073" 
d="M475 -8q-175 0 -257.5 85.5t-82.5 260.5v663q0 23 25 23h41q24 0 24 -23v-659q0 -132 64 -199t203 -67h69q138 0 213.5 70t75.5 194v661q0 23 22 23h43q23 0 23 -23v-978q0 -23 -23 -23h-43q-22 0 -22 23v96h-19q-43 -59 -114.5 -93t-165.5 -34h-76zM205 1161l217 246
q15 16 24 21.5t25 5.5h37q38 0 57 -27l217 -246q9 -12 6 -21.5t-18 -9.5h-45q-11 0 -16 1t-12.5 6t-16.5 16l-176 201h-21l-176 -201q-12 -16 -21.5 -19.5t-25.5 -3.5h-43q-15 0 -18.5 9.5t6.5 21.5z" />
    <glyph glyph-name="udieresis" unicode="&#xfc;" horiz-adv-x="1073" 
d="M475 -8q-175 0 -257.5 85.5t-82.5 260.5v663q0 23 25 23h41q24 0 24 -23v-659q0 -132 64 -199t203 -67h69q138 0 213.5 70t75.5 194v661q0 23 22 23h43q23 0 23 -23v-978q0 -23 -23 -23h-43q-22 0 -22 23v96h-19q-43 -59 -114.5 -93t-165.5 -34h-76zM199 1356v53
q0 15 5.5 20t20.5 5h54q15 0 19.5 -5t4.5 -20v-53q0 -16 -4.5 -21.5t-19.5 -5.5h-54q-15 0 -20.5 6t-5.5 21zM715 1356v53q0 15 5.5 20t20.5 5h54q15 0 19.5 -5t4.5 -20v-53q0 -16 -4.5 -21.5t-19.5 -5.5h-54q-15 0 -20.5 6t-5.5 21z" />
    <glyph glyph-name="yacute" unicode="&#xfd;" horiz-adv-x="1044" 
d="M373 -362q-27 0 -19 28l121 309l-389 1020q-4 12 -2 20.5t16 8.5h52q14 0 18.5 -6t11.5 -27l334 -891h10l334 891q5 14 7.5 19.5t8 9.5t15.5 4h53q25 0 14 -29l-509 -1329q-12 -28 -31 -28h-45zM479 1161l156 236q21 37 45 37h51q18 0 25 -10t-4 -27l-170 -236
q-26 -37 -52 -37h-30q-16 0 -23 10t2 27z" />
    <glyph glyph-name="thorn" unicode="&#xfe;" horiz-adv-x="1052" 
d="M504 -10q-93 0 -160.5 34.5t-103.5 96.5h-15v-461q0 -22 -24 -22h-41q-25 0 -25 22v1751q0 23 25 23h41q24 0 24 -23v-508h15q74 129 264 129h82q170 0 261 -87.5t91 -258.5v-350q0 -171 -91 -258.5t-261 -87.5h-82zM225 336q0 -123 67.5 -192.5t196.5 -69.5h89
q272 0 272 268v340q0 266 -272 266h-89q-129 0 -196.5 -69.5t-67.5 -192.5v-350z" />
    <glyph glyph-name="ydieresis" unicode="&#xff;" horiz-adv-x="1044" 
d="M373 -362q-27 0 -19 28l121 309l-389 1020q-4 12 -2 20.5t16 8.5h52q14 0 18.5 -6t11.5 -27l334 -891h10l334 891q5 14 7.5 19.5t8 9.5t15.5 4h53q25 0 14 -29l-509 -1329q-12 -28 -31 -28h-45zM211 1356v53q0 15 6 20t21 5h53q15 0 19.5 -5t4.5 -20v-53
q0 -16 -4.5 -21.5t-19.5 -5.5h-53q-15 0 -21 6t-6 21zM727 1356v53q0 15 6 20t21 5h53q15 0 19.5 -5t4.5 -20v-53q0 -16 -4.5 -21.5t-19.5 -5.5h-53q-15 0 -21 6t-6 21z" />
    <glyph glyph-name="Amacron" unicode="&#x100;" horiz-adv-x="1187" 
d="M643 1434q25 0 35 -33l424 -1370q8 -31 -23 -31h-41q-15 0 -21 6.5t-11 24.5l-88 286h-648l-88 -286q-5 -18 -11 -24.5t-21 -6.5h-41q-31 0 -23 31l424 1370q10 33 37 33h96zM231 1780v35q0 28 29 28h668q28 0 28 -28v-35q0 -29 -28 -29h-668q-29 0 -29 29zM297 401h594
l-287 930h-18z" />
    <glyph glyph-name="amacron" unicode="&#x101;" horiz-adv-x="1044" 
d="M844 0q-25 0 -25 23v143h-16q-61 -80 -154 -128t-211 -48h-8q-326 0 -326 301v45q0 258 314 258h401v98q0 65 -12.5 109t-43.5 78t-89 50.5t-146 16.5q-187 0 -297 -39q-7 -3 -13.5 1t-8.5 12l-8 45q-3 17 10 20q115 47 309 47h35q185 0 269.5 -82.5t84.5 -251.5v-675
q0 -23 -24 -23h-41zM182 1370v35q0 29 29 29h668q28 0 28 -29v-35q0 -29 -28 -29h-668q-29 0 -29 29zM195 297q0 -115 57 -168t174 -53h59q131 0 232.5 87.5t101.5 194.5v156h-395q-115 0 -172 -41.5t-57 -142.5v-33z" />
    <glyph glyph-name="Abreve" unicode="&#x102;" horiz-adv-x="1187" 
d="M643 1434q25 0 35 -33l424 -1370q8 -31 -23 -31h-41q-15 0 -21 6.5t-11 24.5l-88 286h-648l-88 -286q-5 -18 -11 -24.5t-21 -6.5h-41q-31 0 -23 31l424 1370q10 33 37 33h96zM297 401h594l-287 930h-18zM328 1817q0 26 26 26h31q28 0 25 -26q2 -75 39.5 -118.5
t107.5 -43.5h72q71 0 108 43.5t37 118.5q0 26 27 26h30q27 0 27 -26q0 -120 -57 -178t-174 -58h-70q-229 0 -229 236z" />
    <glyph glyph-name="abreve" unicode="&#x103;" horiz-adv-x="1044" 
d="M844 0q-25 0 -25 23v143h-16q-61 -80 -154 -128t-211 -48h-8q-326 0 -326 301v45q0 258 314 258h401v98q0 65 -12.5 109t-43.5 78t-89 50.5t-146 16.5q-187 0 -297 -39q-7 -3 -13.5 1t-8.5 12l-8 45q-3 17 10 20q115 47 309 47h35q185 0 269.5 -82.5t84.5 -251.5v-675
q0 -23 -24 -23h-41zM195 297q0 -115 57 -168t174 -53h59q131 0 232.5 87.5t101.5 194.5v156h-395q-115 0 -172 -41.5t-57 -142.5v-33zM279 1407q0 27 26 27h31q27 0 24 -27q2 -75 40 -118.5t108 -43.5h72q71 0 108 43.5t37 118.5q0 27 27 27h30q27 0 27 -27q0 -120 -57 -178
t-174 -58h-70q-229 0 -229 236z" />
    <glyph glyph-name="Aogonek" unicode="&#x104;" horiz-adv-x="1142" 
d="M889 -412q-102 0 -139 33t-37 117q0 35 6.5 58t16.5 37t34.5 22.5t47 12.5t67.5 9l90 10q43 4 53 17t2 41l-115 372h-645l-88 -286q-5 -18 -11 -24.5t-21 -6.5h-41q-31 0 -23 31l424 1370q10 33 37 33h96q25 0 35 -33l448 -1450q19 -60 -6 -91.5t-82 -37.5l-184 -23
q-34 -5 -45.5 -16t-11.5 -47q0 -46 20 -62t84 -16h186q21 0 21 -18v-31q0 -21 -21 -21h-198zM297 401h592l-285 930h-18z" />
    <glyph glyph-name="aogonek" unicode="&#x105;" horiz-adv-x="1044" 
d="M430 -10q-326 0 -326 301v45q0 258 314 258h401v98q0 65 -12.5 109t-43.5 78t-89 50.5t-146 16.5q-187 0 -297 -39q-7 -3 -13.5 1t-8.5 12l-8 45q-3 17 10 20q115 47 309 47h35q185 0 269.5 -82.5t84.5 -251.5v-675q0 -9 -2 -13v-59q0 -66 -17 -91.5t-67 -29.5l-190 -25
q-34 -3 -46 -14t-12 -51q0 -48 21 -65t84 -17h186q21 0 21 -18v-31q0 -21 -21 -21h-198q-102 0 -139 33t-37 117q0 35 6.5 58t16.5 37t34.5 22.5t47 12.5t67.5 9l92 10q41 4 52 18t11 46v215h-16q-61 -80 -154 -128t-211 -48h-8zM195 297q0 -115 57 -168t174 -53h59
q131 0 232.5 87.5t101.5 194.5v156h-395q-115 0 -172 -41.5t-57 -142.5v-33z" />
    <glyph glyph-name="Cacute" unicode="&#x106;" horiz-adv-x="1226" 
d="M578 -10q-433 0 -433 409v635q0 410 433 410h98q217 0 321.5 -94.5t104.5 -292.5v-10q0 -7 -5.5 -12t-13.5 -5h-57q-16 0 -16 17q0 162 -80.5 235.5t-249.5 73.5h-105q-173 0 -255 -78.5t-82 -243.5v-633q0 -166 82 -244.5t255 -78.5h105q168 0 249 69.5t81 219.5
q0 16 16 16h57q19 0 19 -16v-11q0 -185 -105 -275.5t-321 -90.5h-98zM584 1571l155 235q21 37 45 37h52q18 0 24.5 -10t-4.5 -27l-170 -235q-26 -37 -51 -37h-31q-16 0 -22.5 10t2.5 27z" />
    <glyph glyph-name="cacute" unicode="&#x107;" horiz-adv-x="1007" 
d="M510 -10q-194 0 -294.5 89t-100.5 257v350q0 164 95.5 255t260.5 91h86q160 0 253 -78.5t93 -218.5v-12q0 -23 -24 -23h-41q-25 0 -25 23v10q0 100 -65.5 157.5t-186.5 57.5h-94q-128 0 -195 -69.5t-67 -194.5v-350q0 -124 75 -192t230 -68h14q86 0 141 13t86 36t58 65
q9 14 15.5 17t29.5 -4l18 -8q25 -12 13 -39q-27 -51 -66 -85t-113.5 -56.5t-179.5 -22.5h-16zM473 1161l156 236q21 37 45 37h51q18 0 24.5 -10t-4.5 -27l-170 -236q-26 -37 -51 -37h-30q-16 0 -23 10t2 27z" />
    <glyph glyph-name="Ccircumflex" unicode="&#x108;" horiz-adv-x="1226" 
d="M578 -10q-433 0 -433 409v635q0 410 433 410h98q217 0 321.5 -94.5t104.5 -292.5v-10q0 -7 -5.5 -12t-13.5 -5h-57q-16 0 -16 17q0 162 -80.5 235.5t-249.5 73.5h-105q-173 0 -255 -78.5t-82 -243.5v-633q0 -166 82 -244.5t255 -78.5h105q168 0 249 69.5t81 219.5
q0 16 16 16h57q19 0 19 -16v-11q0 -185 -105 -275.5t-321 -90.5h-98zM322 1571l217 246q14 16 23 21t26 5h37q14 0 21.5 -1t17 -7t18.5 -18l217 -246q9 -12 6 -21.5t-18 -9.5h-45q-11 0 -16 1t-12.5 6t-16.5 16l-176 200h-21l-176 -200q-12 -16 -21.5 -19.5t-25.5 -3.5h-43
q-15 0 -18.5 9.5t6.5 21.5z" />
    <glyph glyph-name="ccircumflex" unicode="&#x109;" horiz-adv-x="1007" 
d="M510 -10q-194 0 -294.5 89t-100.5 257v350q0 164 95.5 255t260.5 91h86q160 0 253 -78.5t93 -218.5v-12q0 -23 -24 -23h-41q-25 0 -25 23v10q0 100 -65.5 157.5t-186.5 57.5h-94q-128 0 -195 -69.5t-67 -194.5v-350q0 -124 75 -192t230 -68h14q86 0 141 13t86 36t58 65
q9 14 15.5 17t29.5 -4l18 -8q25 -12 13 -39q-27 -51 -66 -85t-113.5 -56.5t-179.5 -22.5h-16zM213 1161l217 246q15 16 24 21.5t25 5.5h37q38 0 57 -27l218 -246q9 -12 5.5 -21.5t-18.5 -9.5h-45q-11 0 -16 1t-12.5 6t-16.5 16l-176 201h-20l-177 -201q-12 -16 -21.5 -19.5
t-25.5 -3.5h-43q-15 0 -18.5 9.5t6.5 21.5z" />
    <glyph glyph-name="Cdotaccent" unicode="&#x10a;" horiz-adv-x="1226" 
d="M578 -10q-433 0 -433 409v635q0 410 433 410h98q217 0 321.5 -94.5t104.5 -292.5v-10q0 -7 -5.5 -12t-13.5 -5h-57q-16 0 -16 17q0 162 -80.5 235.5t-249.5 73.5h-105q-173 0 -255 -78.5t-82 -243.5v-633q0 -166 82 -244.5t255 -78.5h105q168 0 249 69.5t81 219.5
q0 16 16 16h57q19 0 19 -16v-11q0 -185 -105 -275.5t-321 -90.5h-98zM573 1765v54q0 15 5.5 19.5t21.5 4.5h53q15 0 20 -4.5t5 -19.5v-54q0 -15 -5 -20.5t-20 -5.5h-53q-15 0 -21 5.5t-6 20.5z" />
    <glyph glyph-name="cdotaccent" unicode="&#x10b;" horiz-adv-x="1007" 
d="M510 -10q-194 0 -294.5 89t-100.5 257v350q0 164 95.5 255t260.5 91h86q160 0 253 -78.5t93 -218.5v-12q0 -23 -24 -23h-41q-25 0 -25 23v10q0 100 -65.5 157.5t-186.5 57.5h-94q-128 0 -195 -69.5t-67 -194.5v-350q0 -124 75 -192t230 -68h14q86 0 141 13t86 36t58 65
q9 14 15.5 17t29.5 -4l18 -8q25 -12 13 -39q-27 -51 -66 -85t-113.5 -56.5t-179.5 -22.5h-16zM463 1356v53q0 15 5.5 20t20.5 5h54q15 0 19.5 -5t4.5 -20v-53q0 -16 -4.5 -21.5t-19.5 -5.5h-54q-15 0 -20.5 6t-5.5 21z" />
    <glyph glyph-name="Ccaron" unicode="&#x10c;" horiz-adv-x="1226" 
d="M578 -10q-433 0 -433 409v635q0 410 433 410h98q217 0 321.5 -94.5t104.5 -292.5v-10q0 -7 -5.5 -12t-13.5 -5h-57q-16 0 -16 17q0 162 -80.5 235.5t-249.5 73.5h-105q-173 0 -255 -78.5t-82 -243.5v-633q0 -166 82 -244.5t255 -78.5h105q168 0 249 69.5t81 219.5
q0 16 16 16h57q19 0 19 -16v-11q0 -185 -105 -275.5t-321 -90.5h-98zM338 1812q-10 12 -6.5 21.5t18.5 9.5h43q27 0 47 -22l176 -201h21l176 201q20 22 45 22h45q15 0 18 -9.5t-6 -21.5l-217 -247q-20 -25 -57 -25h-37q-17 0 -26 5t-23 20z" />
    <glyph glyph-name="ccaron" unicode="&#x10d;" horiz-adv-x="1007" 
d="M510 -10q-194 0 -294.5 89t-100.5 257v350q0 164 95.5 255t260.5 91h86q160 0 253 -78.5t93 -218.5v-12q0 -23 -24 -23h-41q-25 0 -25 23v10q0 100 -65.5 157.5t-186.5 57.5h-94q-128 0 -195 -69.5t-67 -194.5v-350q0 -124 75 -192t230 -68h14q86 0 141 13t86 36t58 65
q9 14 15.5 17t29.5 -4l18 -8q25 -12 13 -39q-27 -51 -66 -85t-113.5 -56.5t-179.5 -22.5h-16zM227 1403q-10 12 -6 21.5t19 9.5h43q26 0 47 -23l176 -201h20l176 201q21 23 46 23h45q15 0 18 -9.5t-6 -21.5l-217 -248q-20 -25 -58 -25h-36q-28 0 -50 25z" />
    <glyph glyph-name="Dcaron" unicode="&#x10e;" horiz-adv-x="1239" 
d="M172 0q-15 0 -21 6t-6 21v1382q0 15 6 20t21 5h490q432 0 432 -410v-614q0 -410 -432 -410h-490zM238 88h426q173 0 255 79t82 245v612q0 165 -82 243.5t-255 78.5h-426v-1258zM311 1812q-10 12 -6 21.5t19 9.5h43q27 0 47 -22l176 -201h20l176 201q20 22 45 22h46
q15 0 18 -9.5t-6 -21.5l-217 -247q-20 -25 -58 -25h-36q-28 0 -50 25z" />
    <glyph glyph-name="dcaron" unicode="&#x10f;" horiz-adv-x="1036" 
d="M467 -10q-170 0 -261 87.5t-91 258.5v350q0 171 91 258.5t261 87.5h82q190 0 264 -129h16v508q0 23 23 23h43q23 0 23 -23v-1388q0 -23 -23 -23h-43q-23 0 -23 23v98h-16q-36 -62 -103.5 -96.5t-160.5 -34.5h-82zM205 342q0 -268 270 -268h88q129 0 197.5 69.5
t68.5 192.5v350q0 123 -68.5 192.5t-197.5 69.5h-88q-270 0 -270 -266v-340zM971 1081v27q0 15 5.5 20t20.5 5h52v276q0 15 5.5 20t20.5 5h31q15 0 21 -5t6 -20v-309q0 -25 -10 -35t-33 -10h-93q-15 0 -20.5 5.5t-5.5 20.5z" />
    <glyph glyph-name="Dcroat" unicode="&#x110;" horiz-adv-x="1255" 
d="M188 0q-15 0 -20.5 6t-5.5 21v653h-131q-23 0 -23 22v37q0 23 23 23h131v647q0 15 5.5 20t20.5 5h490q432 0 432 -410v-614q0 -410 -432 -410h-490zM254 88h426q173 0 255.5 79t82.5 245v612q0 164 -82.5 243t-255.5 79h-426v-584h244q22 0 22 -23v-37q0 -22 -22 -22
h-244v-592z" />
    <glyph glyph-name="dcroat" unicode="&#x111;" horiz-adv-x="1028" 
d="M305 1167q-29 0 -29 27v27q0 26 29 26h524v164q0 23 23 23h43q23 0 23 -23v-164h57q14 0 20 -5.5t6 -20.5v-27q0 -27 -26 -27h-57v-1144q0 -23 -23 -23h-43q-23 0 -23 23v98h-16q-36 -62 -103.5 -96.5t-160.5 -34.5h-82q-170 0 -261 87.5t-91 258.5v350q0 171 91 258.5
t261 87.5h82q190 0 264 -129h16v264h-524zM205 342q0 -268 270 -268h88q129 0 197.5 69.5t68.5 192.5v350q0 123 -68.5 192.5t-197.5 69.5h-88q-270 0 -270 -266v-340z" />
    <glyph glyph-name="Emacron" unicode="&#x112;" horiz-adv-x="1060" 
d="M174 0q-29 0 -29 27v1382q0 14 6.5 19.5t22.5 5.5h770q16 0 22.5 -5.5t6.5 -19.5v-37q0 -26 -29 -26h-706v-582h647q15 0 21.5 -5t6.5 -20v-34q0 -15 -6.5 -20t-21.5 -5h-647v-592h710q15 0 21 -5t6 -20v-36q0 -15 -6 -21t-21 -6h-774zM207 1780v35q0 28 29 28h667
q29 0 29 -28v-35q0 -29 -29 -29h-667q-29 0 -29 29z" />
    <glyph glyph-name="emacron" unicode="&#x113;" horiz-adv-x="1030" 
d="M504 -10q-192 0 -290.5 91t-98.5 255v350q0 164 94 255t258 91h94q168 0 260 -87.5t92 -252.5v-155q0 -29 -17 -46.5t-46 -17.5h-645v-135q0 -124 74.5 -196t226.5 -72h20q180 0 295 84q16 13 25 0l24 -31q6 -6 5.5 -13t-5.5 -10q-44 -46 -135 -78t-213 -32h-18z
M156 1370v35q0 29 28 29h668q29 0 29 -29v-35q0 -29 -29 -29h-668q-28 0 -28 29zM205 549h620v141q0 258 -264 258h-94q-129 0 -195.5 -70t-66.5 -194v-135z" />
    <glyph glyph-name="Edotaccent" unicode="&#x116;" horiz-adv-x="1060" 
d="M174 0q-29 0 -29 27v1382q0 14 6.5 19.5t22.5 5.5h770q16 0 22.5 -5.5t6.5 -19.5v-37q0 -26 -29 -26h-706v-582h647q15 0 21.5 -5t6.5 -20v-34q0 -15 -6.5 -20t-21.5 -5h-647v-592h710q15 0 21 -5t6 -20v-36q0 -15 -6 -21t-21 -6h-774zM516 1765v54q0 15 5.5 19.5
t21.5 4.5h53q15 0 20 -4.5t5 -19.5v-54q0 -15 -5 -20.5t-20 -5.5h-53q-15 0 -21 5.5t-6 20.5z" />
    <glyph glyph-name="edotaccent" unicode="&#x117;" horiz-adv-x="1030" 
d="M504 -10q-192 0 -290.5 91t-98.5 255v350q0 164 94 255t258 91h94q168 0 260 -87.5t92 -252.5v-155q0 -29 -17 -46.5t-46 -17.5h-645v-135q0 -124 74.5 -196t226.5 -72h20q180 0 295 84q16 13 25 0l24 -31q6 -6 5.5 -13t-5.5 -10q-44 -46 -135 -78t-213 -32h-18zM205 549
h620v141q0 258 -264 258h-94q-129 0 -195.5 -70t-66.5 -194v-135zM465 1356v53q0 15 6 20t21 5h53q15 0 19.5 -5t4.5 -20v-53q0 -16 -4.5 -21.5t-19.5 -5.5h-53q-15 0 -21 6t-6 21z" />
    <glyph glyph-name="Eogonek" unicode="&#x118;" horiz-adv-x="1060" 
d="M174 0q-29 0 -29 27v1382q0 14 6.5 19.5t22.5 5.5h770q16 0 22.5 -5.5t6.5 -19.5v-37q0 -26 -29 -26h-706v-582h647q15 0 21.5 -5t6.5 -20v-34q0 -15 -6.5 -20t-21.5 -5h-647v-592h710q15 0 21 -5t6 -20v-112q0 -66 -17 -91.5t-67 -29.5l-191 -25q-34 -3 -45.5 -14
t-11.5 -51q0 -48 21 -65t84 -17h186q20 0 20 -18v-31q0 -21 -20 -21h-199q-102 0 -139 33t-37 117q0 35 6.5 58t16.5 37t34.5 22.5t47 12.5t67.5 9l92 10q41 4 52.5 18.5t11.5 45.5v49h-713z" />
    <glyph glyph-name="eogonek" unicode="&#x119;" horiz-adv-x="1030" 
d="M422 -412q-101 0 -138.5 33.5t-37.5 116.5q0 35 6.5 58t16.5 37t35 22.5t47.5 12.5t68.5 9l90 10q43 6 53 24.5t10 78.5q-129 -1 -219 21.5t-141.5 69t-74.5 108.5t-23 147v350q0 164 94 255t258 91h94q168 0 260 -87.5t92 -252.5v-155q0 -29 -17 -46.5t-46 -17.5h-645
v-135q0 -124 74.5 -196t226.5 -72h20q180 0 295 84q16 13 25 0l24 -31q6 -6 5.5 -13t-5.5 -10q-65 -69 -206 -98v-51q0 -65 -18 -91t-68 -30l-191 -25q-33 -3 -44 -14t-11 -51q0 -48 20 -65t82 -17h189q20 0 20 -18v-31q0 -21 -20 -21h-201zM205 549h620v141q0 258 -264 258
h-94q-129 0 -195.5 -70t-66.5 -194v-135z" />
    <glyph glyph-name="Ecaron" unicode="&#x11a;" horiz-adv-x="1060" 
d="M174 0q-29 0 -29 27v1382q0 14 6.5 19.5t22.5 5.5h770q16 0 22.5 -5.5t6.5 -19.5v-37q0 -26 -29 -26h-706v-582h647q15 0 21.5 -5t6.5 -20v-34q0 -15 -6.5 -20t-21.5 -5h-647v-592h710q15 0 21 -5t6 -20v-36q0 -15 -6 -21t-21 -6h-774zM281 1812q-10 12 -6.5 21.5
t18.5 9.5h43q27 0 47 -22l176 -201h21l176 201q20 22 45 22h45q15 0 18 -9.5t-6 -21.5l-217 -247q-20 -25 -57 -25h-37q-17 0 -26 5t-23 20z" />
    <glyph glyph-name="ecaron" unicode="&#x11b;" horiz-adv-x="1030" 
d="M504 -10q-192 0 -290.5 91t-98.5 255v350q0 164 94 255t258 91h94q168 0 260 -87.5t92 -252.5v-155q0 -29 -17 -46.5t-46 -17.5h-645v-135q0 -124 74.5 -196t226.5 -72h20q180 0 295 84q16 13 25 0l24 -31q6 -6 5.5 -13t-5.5 -10q-44 -46 -135 -78t-213 -32h-18zM205 549
h620v141q0 258 -264 258h-94q-129 0 -195.5 -70t-66.5 -194v-135zM229 1403q-10 12 -6 21.5t19 9.5h43q26 0 47 -23l176 -201h20l177 201q21 23 45 23h45q15 0 18 -9.5t-6 -21.5l-217 -248q-20 -25 -58 -25h-36q-17 0 -26.5 5t-23.5 20z" />
    <glyph glyph-name="Gcircumflex" unicode="&#x11c;" horiz-adv-x="1247" 
d="M578 -10q-433 0 -433 409v635q0 410 433 410h98q217 0 320.5 -94.5t103.5 -292.5v-10q0 -7 -5.5 -12t-13.5 -5h-57q-16 0 -16 17q0 163 -79.5 236t-248.5 73h-105q-173 0 -255 -78.5t-82 -243.5v-633q0 -166 82 -244.5t255 -78.5h97q173 0 255.5 78.5t82.5 244.5v279
h-324q-15 0 -21 5t-6 20v34q0 15 6 20t21 5h387q12 0 20.5 -8.5t8.5 -20.5v-336q0 -409 -432 -409h-92zM324 1571l217 246q14 16 23 21t26 5h37q14 0 21.5 -1t17 -7t18.5 -18l217 -246q9 -12 6 -21.5t-18 -9.5h-45q-11 0 -16 1t-12.5 6t-16.5 16l-176 200h-21l-176 -200
q-12 -16 -21.5 -19.5t-25.5 -3.5h-43q-15 0 -18.5 9.5t6.5 21.5z" />
    <glyph glyph-name="gcircumflex" unicode="&#x11d;" horiz-adv-x="1042" 
d="M496 -379q-90 0 -166 6q-39 6 -39 27v37q0 10 7 15t17 3q72 -6 197 -6q78 0 132.5 11t98 38t65 78t21.5 127v164h-16q-36 -62 -103.5 -96.5t-160.5 -34.5h-82q-170 0 -261 87.5t-91 258.5v350q0 171 91 258.5t261 87.5h82q190 0 264 -129h16v96q0 25 23 25h43
q23 0 23 -25v-1042q0 -185 -99.5 -260.5t-322.5 -75.5zM205 342q0 -268 270 -268h88q129 0 197.5 69.5t68.5 192.5v350q0 123 -68.5 192.5t-197.5 69.5h-88q-270 0 -270 -266v-340zM231 1161l218 246q15 16 24 21.5t25 5.5h37q38 0 57 -27l217 -246q9 -12 6 -21.5t-18 -9.5
h-45q-11 0 -16 1t-12.5 6t-16.5 16l-177 201h-20l-176 -201q-12 -16 -21.5 -19.5t-25.5 -3.5h-43q-15 0 -19 9.5t6 21.5z" />
    <glyph glyph-name="Gbreve" unicode="&#x11e;" horiz-adv-x="1247" 
d="M578 -10q-433 0 -433 409v635q0 410 433 410h98q217 0 320.5 -94.5t103.5 -292.5v-10q0 -7 -5.5 -12t-13.5 -5h-57q-16 0 -16 17q0 163 -79.5 236t-248.5 73h-105q-173 0 -255 -78.5t-82 -243.5v-633q0 -166 82 -244.5t255 -78.5h97q173 0 255.5 78.5t82.5 244.5v279
h-324q-15 0 -21 5t-6 20v34q0 15 6 20t21 5h387q12 0 20.5 -8.5t8.5 -20.5v-336q0 -409 -432 -409h-92zM360 1817q0 26 27 26h31q27 0 24 -26q2 -75 40 -118.5t108 -43.5h72q71 0 108 43.5t37 118.5q0 26 27 26h30q27 0 27 -26q0 -120 -57.5 -178t-174.5 -58h-69
q-230 0 -230 236z" />
    <glyph glyph-name="gbreve" unicode="&#x11f;" horiz-adv-x="1042" 
d="M496 -379q-90 0 -166 6q-39 6 -39 27v37q0 10 7 15t17 3q72 -6 197 -6q78 0 132.5 11t98 38t65 78t21.5 127v164h-16q-36 -62 -103.5 -96.5t-160.5 -34.5h-82q-170 0 -261 87.5t-91 258.5v350q0 171 91 258.5t261 87.5h82q190 0 264 -129h16v96q0 25 23 25h43
q23 0 23 -25v-1042q0 -185 -99.5 -260.5t-322.5 -75.5zM205 342q0 -268 270 -268h88q129 0 197.5 69.5t68.5 192.5v350q0 123 -68.5 192.5t-197.5 69.5h-88q-270 0 -270 -266v-340zM268 1407q0 27 27 27h31q27 0 24 -27q2 -75 40 -118.5t108 -43.5h71q71 0 108.5 43.5
t37.5 118.5q0 27 26 27h31q27 0 27 -27q0 -120 -57.5 -178t-174.5 -58h-69q-230 0 -230 236z" />
    <glyph glyph-name="Gdotaccent" unicode="&#x120;" horiz-adv-x="1247" 
d="M578 -10q-433 0 -433 409v635q0 410 433 410h98q217 0 320.5 -94.5t103.5 -292.5v-10q0 -7 -5.5 -12t-13.5 -5h-57q-16 0 -16 17q0 163 -79.5 236t-248.5 73h-105q-173 0 -255 -78.5t-82 -243.5v-633q0 -166 82 -244.5t255 -78.5h97q173 0 255.5 78.5t82.5 244.5v279
h-324q-15 0 -21 5t-6 20v34q0 15 6 20t21 5h387q12 0 20.5 -8.5t8.5 -20.5v-336q0 -409 -432 -409h-92zM573 1765v54q0 15 5.5 19.5t21.5 4.5h53q15 0 20 -4.5t5 -19.5v-54q0 -15 -5 -20.5t-20 -5.5h-53q-15 0 -21 5.5t-6 20.5z" />
    <glyph glyph-name="gdotaccent" unicode="&#x121;" horiz-adv-x="1042" 
d="M496 -379q-90 0 -166 6q-39 6 -39 27v37q0 10 7 15t17 3q72 -6 197 -6q78 0 132.5 11t98 38t65 78t21.5 127v164h-16q-36 -62 -103.5 -96.5t-160.5 -34.5h-82q-170 0 -261 87.5t-91 258.5v350q0 171 91 258.5t261 87.5h82q190 0 264 -129h16v96q0 25 23 25h43
q23 0 23 -25v-1042q0 -185 -99.5 -260.5t-322.5 -75.5zM205 342q0 -268 270 -268h88q129 0 197.5 69.5t68.5 192.5v350q0 123 -68.5 192.5t-197.5 69.5h-88q-270 0 -270 -266v-340zM481 1356v53q0 15 6 20t21 5h53q15 0 20 -5t5 -20v-53q0 -15 -5 -21t-20 -6h-53
q-15 0 -21 6t-6 21z" />
    <glyph glyph-name="uni0122" unicode="&#x122;" horiz-adv-x="1247" 
d="M578 -10q-433 0 -433 409v635q0 410 433 410h98q217 0 320.5 -94.5t103.5 -292.5v-10q0 -7 -5.5 -12t-13.5 -5h-57q-16 0 -16 17q0 163 -79.5 236t-248.5 73h-105q-173 0 -255 -78.5t-82 -243.5v-633q0 -166 82 -244.5t255 -78.5h97q173 0 255.5 78.5t82.5 244.5v279
h-324q-15 0 -21 5t-6 20v34q0 15 6 20t21 5h387q12 0 20.5 -8.5t8.5 -20.5v-336q0 -409 -432 -409h-92zM504 -463v27q0 15 5.5 20.5t20.5 5.5h52v260q0 15 5.5 21t20.5 6h31q15 0 21 -6t6 -21v-294q0 -23 -10 -33t-33 -10h-93q-15 0 -20.5 4.5t-5.5 19.5z" />
    <glyph glyph-name="uni0123" unicode="&#x123;" horiz-adv-x="1042" 
d="M463 1231q-15 0 -20 5.5t-5 20.5v338q0 24 9.5 33.5t33.5 9.5h92q15 0 20 -4.5t5 -19.5v-27q0 -15 -5 -20.5t-20 -5.5h-53v-304q0 -15 -4.5 -20.5t-19.5 -5.5h-33zM115 336v350q0 171 91 258.5t261 87.5h82q190 0 264 -129h16v96q0 25 23 25h43q23 0 23 -25v-1042
q0 -185 -99.5 -260.5t-322.5 -75.5q-90 0 -166 6q-39 6 -39 27v37q0 10 7 15t17 3q72 -6 197 -6q78 0 132.5 11t98 38t65 78t21.5 127v164h-16q-36 -62 -103.5 -96.5t-160.5 -34.5h-82q-170 0 -261 87.5t-91 258.5zM205 342q0 -268 270 -268h88q129 0 197.5 69.5t68.5 192.5
v350q0 123 -68.5 192.5t-197.5 69.5h-88q-270 0 -270 -266v-340z" />
    <glyph glyph-name="Hcircumflex" unicode="&#x124;" horiz-adv-x="1239" 
d="M1028 0q-15 0 -21 6t-6 21v653h-763v-653q0 -15 -5 -21t-20 -6h-41q-15 0 -21 6t-6 21v1382q0 15 6 20t21 5h41q15 0 20 -5t5 -20v-645h763v645q0 15 6 20t21 5h39q15 0 21 -5t6 -20v-1382q0 -15 -6 -21t-21 -6h-39zM315 1571l217 246q23 26 50 26h36q14 0 22 -1t17.5 -7
t18.5 -18l217 -246q9 -12 6 -21.5t-18 -9.5h-45q-11 0 -16 1t-12.5 6t-16.5 16l-177 200h-20l-176 -200q-12 -16 -21.5 -19.5t-25.5 -3.5h-43q-15 0 -19 9.5t6 21.5z" />
    <glyph glyph-name="hcircumflex" unicode="&#x125;" horiz-adv-x="1073" 
d="M160 0q-25 0 -25 23v1388q0 23 25 23h41q24 0 24 -23v-506h19q92 127 278 127h76q175 0 257.5 -85.5t82.5 -260.5v-663q0 -23 -25 -23h-41q-22 0 -22 23v659q0 132 -64.5 199t-203.5 67h-70q-138 0 -212.5 -70t-74.5 -194v-661q0 -23 -24 -23h-41zM-121 1571l217 246
q14 16 23 21t26 5h37q14 0 22 -1t17.5 -7t18.5 -18l217 -246q9 -12 5.5 -21.5t-18.5 -9.5h-45q-11 0 -16 1t-12.5 6t-16.5 16l-176 200h-20l-176 -200q-9 -11 -17 -16t-14 -6t-17 -1h-43q-15 0 -18.5 9.5t6.5 21.5z" />
    <glyph glyph-name="Hbar" unicode="&#x126;" horiz-adv-x="1239" 
d="M1028 0q-15 0 -21 6t-6 21v653h-763v-653q0 -15 -5 -21t-20 -6h-41q-15 0 -21 6t-6 21v1382q0 15 6 20t21 5h41q15 0 20 -5t5 -20v-362h763v362q0 15 6 20t21 5h39q15 0 21 -5t6 -20v-1382q0 -15 -6 -21t-21 -6h-39zM238 764h763v199h-763v-199z" />
    <glyph glyph-name="hbar" unicode="&#x127;" horiz-adv-x="1073" 
d="M160 0q-25 0 -25 23v1132h-106q-29 0 -29 29v35q0 28 29 28h106v164q0 23 25 23h41q24 0 24 -23v-164h471q29 0 29 -28v-35q0 -29 -29 -29h-471v-250h19q92 127 278 127h76q175 0 257.5 -85.5t82.5 -260.5v-663q0 -23 -25 -23h-41q-22 0 -22 23v659q0 132 -64.5 199
t-203.5 67h-70q-138 0 -212.5 -70t-74.5 -194v-661q0 -23 -24 -23h-41z" />
    <glyph glyph-name="Itilde" unicode="&#x128;" horiz-adv-x="385" 
d="M172 0q-15 0 -21 6t-6 21v1382q0 15 6 20t21 5h41q15 0 20 -5t5 -20v-1382q0 -15 -5 -21t-20 -6h-41zM-135 1774q-9 15 14 30q81 49 160 49q55 0 107 -25.5t103 -51t103 -25.5q60 0 117 39q23 14 31 -8l16 -31q10 -17 -12 -31q-81 -49 -160 -49q-44 0 -87 16t-73 35.5
t-71.5 35.5t-83.5 16q-54 0 -117 -39q-21 -13 -29 8z" />
    <glyph glyph-name="itilde" unicode="&#x129;" horiz-adv-x="313" 
d="M135 0q-22 0 -22 23v978q0 23 22 23h43q23 0 23 -23v-978q0 -23 -23 -23h-43zM-168 1364q-10 16 14 31q81 49 160 49q44 0 86.5 -16t72 -35.5t71 -35.5t83.5 -16q60 0 117 39q23 14 31 -8l16 -31q10 -16 -12 -30q-81 -49 -160 -49q-55 0 -107.5 25.5t-104 51t-103.5 25.5
q-54 0 -117 -39q-21 -13 -29 8z" />
    <glyph glyph-name="Imacron" unicode="&#x12a;" horiz-adv-x="385" 
d="M172 0q-15 0 -21 6t-6 21v1382q0 15 6 20t21 5h41q15 0 20 -5t5 -20v-1382q0 -15 -5 -21t-20 -6h-41zM-170 1780v35q0 28 29 28h667q29 0 29 -28v-35q0 -29 -29 -29h-667q-29 0 -29 29z" />
    <glyph glyph-name="imacron" unicode="&#x12b;" horiz-adv-x="313" 
d="M135 0q-22 0 -22 23v978q0 23 22 23h43q23 0 23 -23v-978q0 -23 -23 -23h-43zM-205 1370v35q0 29 29 29h668q28 0 28 -29v-35q0 -29 -28 -29h-668q-29 0 -29 29z" />
    <glyph glyph-name="Iogonek" unicode="&#x12e;" horiz-adv-x="385" 
d="M-4 -412q-101 0 -138.5 33.5t-37.5 116.5q0 35 6.5 58t16.5 37t35 22.5t47.5 12.5t68.5 9l88 10q42 4 53.5 18t11.5 46v57q-4 8 -4 19v1382q0 15 6 20t21 5h41q15 0 20 -5t5 -20v-1368h4v-90q0 -65 -18.5 -91t-69.5 -30l-191 -25q-33 -3 -44 -14t-11 -51q0 -48 20.5 -65
t83.5 -17h187q20 0 20 -18v-31q0 -21 -20 -21h-201z" />
    <glyph glyph-name="iogonek" unicode="&#x12f;" horiz-adv-x="313" 
d="M131 1329q-15 0 -21 6t-6 21v53q0 15 6 20t21 5h53q15 0 20 -5t5 -20v-53q0 -15 -5 -21t-20 -6h-53zM-215 -262q0 35 6.5 58t16.5 37t34.5 22.5t47 12.5t67.5 9l92 10q41 4 52.5 18.5t11.5 45.5v1050q0 23 22 23h43q23 0 23 -23v-1050q0 -66 -17 -91.5t-67 -29.5
l-191 -25q-34 -3 -45.5 -14t-11.5 -51q0 -48 20.5 -65t83.5 -17h187q20 0 20 -18v-31q0 -21 -20 -21h-199q-102 0 -139 33t-37 117z" />
    <glyph glyph-name="Idotaccent" unicode="&#x130;" horiz-adv-x="385" 
d="M172 0q-15 0 -21 6t-6 21v1382q0 15 6 20t21 5h41q15 0 20 -5t5 -20v-1382q0 -15 -5 -21t-20 -6h-41zM139 1765v54q0 15 5.5 19.5t21.5 4.5h53q15 0 20 -4.5t5 -19.5v-54q0 -15 -5 -20.5t-20 -5.5h-53q-15 0 -21 5.5t-6 20.5z" />
    <glyph glyph-name="dotlessi" unicode="&#x131;" horiz-adv-x="313" 
d="M135 0q-22 0 -22 23v978q0 23 22 23h43q23 0 23 -23v-978q0 -23 -23 -23h-43z" />
    <glyph glyph-name="IJ" unicode="&#x132;" horiz-adv-x="1112" 
d="M172 0q-15 0 -21 6t-6 21v1382q0 15 6 20t21 5h41q15 0 20 -5t5 -20v-1382q0 -15 -5 -21t-20 -6h-41zM479 16v37q0 14 6.5 19.5t22.5 5.5h29q173 0 255 78.5t82 244.5v1008q0 15 5 20t20 5h41q15 0 21 -5t6 -20v-1010q0 -409 -432 -409h-27q-16 0 -22.5 5t-6.5 21z" />
    <glyph glyph-name="ij" unicode="&#x133;" horiz-adv-x="741" 
d="M160 1339q-25 0 -25 25v47q0 23 25 23h47q22 0 22 -23v-47q0 -25 -22 -25h-47zM139 23v978q0 23 23 23h43q22 0 22 -23v-978q0 -23 -22 -23h-43q-23 0 -23 23zM348 -344v33q0 24 31 24q78 0 108.5 34.5t30.5 129.5v1124q0 23 23 23h43q22 0 22 -23v-1142
q0 -121 -47.5 -175.5t-144.5 -54.5q-66 0 -66 27zM512 1364v47q0 23 23 23h47q22 0 22 -23v-47q0 -25 -22 -25h-47q-23 0 -23 25z" />
    <glyph glyph-name="Jcircumflex" unicode="&#x134;" horiz-adv-x="727" 
d="M123 -10q-16 0 -22.5 5t-6.5 21v37q0 14 6.5 19.5t22.5 5.5h29q173 0 255 78.5t82 244.5v1008q0 15 5 20t20 5h41q15 0 21 -5t6 -20v-1010q0 -409 -432 -409h-27zM231 1571l218 246q14 16 23 21t26 5h37q14 0 21.5 -1t17 -7t18.5 -18l217 -246q9 -12 6 -21.5t-18 -9.5
h-45q-11 0 -16 1t-12.5 6t-16.5 16l-177 200h-20l-176 -200q-12 -16 -21.5 -19.5t-25.5 -3.5h-43q-15 0 -19 9.5t6 21.5z" />
    <glyph glyph-name="jcircumflex" unicode="&#x135;" horiz-adv-x="352" 
d="M25 -371q-66 0 -66 27v33q0 24 31 24q78 0 108.5 34.5t30.5 129.5v1124q0 23 23 23h43q22 0 22 -23v-1142q0 -121 -47.5 -175.5t-144.5 -54.5zM-135 1161l217 246q15 16 24 21.5t25 5.5h37q38 0 57 -27l217 -246q9 -12 6 -21.5t-18 -9.5h-45q-11 0 -16 1t-12.5 6
t-16.5 16l-176 201h-21l-176 -201q-12 -16 -21.5 -19.5t-25.5 -3.5h-43q-15 0 -18.5 9.5t6.5 21.5z" />
    <glyph glyph-name="uni0136" unicode="&#x136;" horiz-adv-x="1118" 
d="M172 0q-15 0 -21 6t-6 21v1382q0 15 6 20t21 5h41q15 0 20 -5t5 -20v-791l639 789q20 27 36 27h56q19 0 21.5 -11t-11.5 -30l-518 -633l567 -725q11 -12 6.5 -23.5t-22.5 -11.5h-43q-17 0 -27 6.5t-24 22.5l-515 661l-165 -203v-460q0 -15 -5 -21t-20 -6h-41zM430 -463
v27q0 15 6 20.5t21 5.5h51v260q0 15 6 21t21 6h30q15 0 21 -6t6 -21v-294q0 -23 -10 -33t-33 -10h-92q-16 0 -21.5 4.5t-5.5 19.5z" />
    <glyph glyph-name="uni0137" unicode="&#x137;" horiz-adv-x="968" 
d="M160 0q-25 0 -25 23v1388q0 23 25 23h41q24 0 24 -23v-928l518 523q22 18 39 18h56q18 0 20.5 -11t-8.5 -22l-426 -420l473 -540q11 -12 6 -21.5t-22 -9.5h-50q-14 0 -21 4.5t-19 18.5l-424 491l-142 -139v-352q0 -23 -24 -23h-41zM350 -463v27q0 15 6 20.5t21 5.5h51
v260q0 15 6 21t21 6h30q15 0 21 -6t6 -21v-294q0 -23 -10 -33t-33 -10h-92q-16 0 -21.5 4.5t-5.5 19.5z" />
    <glyph glyph-name="Lacute" unicode="&#x139;" horiz-adv-x="1019" 
d="M174 0q-29 0 -29 27v1382q0 15 6 20t21 5h41q15 0 20 -5t5 -20v-1321h659q15 0 21 -5t6 -20v-36q0 -15 -6 -21t-21 -6h-723zM150 1571l155 235q21 37 45 37h51q18 0 25 -10t-4 -27l-170 -235q-26 -37 -51 -37h-31q-16 0 -22.5 10t2.5 27z" />
    <glyph glyph-name="lacute" unicode="&#x13a;" horiz-adv-x="360" 
d="M160 0q-25 0 -25 23v1388q0 23 25 23h41q24 0 24 -23v-1388q0 -23 -24 -23h-41zM137 1571l156 235q21 37 45 37h51q18 0 25 -10t-4 -27l-170 -235q-26 -37 -52 -37h-30q-16 0 -23 10t2 27z" />
    <glyph glyph-name="uni013B" unicode="&#x13b;" horiz-adv-x="1019" 
d="M174 0q-29 0 -29 27v1382q0 15 6 20t21 5h41q15 0 20 -5t5 -20v-1321h659q15 0 21 -5t6 -20v-36q0 -15 -6 -21t-21 -6h-723zM426 -463v27q0 15 6 20.5t21 5.5h51v260q0 15 5.5 21t20.5 6h31q15 0 21 -6t6 -21v-294q0 -23 -10 -33t-33 -10h-92q-16 0 -21.5 4.5t-5.5 19.5z
" />
    <glyph glyph-name="uni013C" unicode="&#x13c;" horiz-adv-x="360" 
d="M160 0q-25 0 -25 23v1388q0 23 25 23h41q24 0 24 -23v-1388q0 -23 -24 -23h-41zM57 -463v27q0 15 6 20.5t21 5.5h51v260q0 15 6 21t21 6h31q15 0 20.5 -6t5.5 -21v-294q0 -23 -10 -33t-33 -10h-92q-16 0 -21.5 4.5t-5.5 19.5z" />
    <glyph glyph-name="Lcaron" unicode="&#x13d;" horiz-adv-x="1019" 
d="M174 0q-29 0 -29 27v1382q0 15 6 20t21 5h41q15 0 20 -5t5 -20v-1321h659q15 0 21 -5t6 -20v-36q0 -15 -6 -21t-21 -6h-723zM479 1081v27q0 15 6 20t21 5h51v276q0 15 6 20t21 5h30q15 0 21 -5t6 -20v-309q0 -25 -10 -35t-33 -10h-92q-15 0 -21 5.5t-6 20.5z" />
    <glyph glyph-name="lcaron" unicode="&#x13e;" horiz-adv-x="395" 
d="M160 0q-25 0 -25 23v1388q0 23 25 23h41q24 0 24 -23v-1388q0 -23 -24 -23h-41zM285 1081v27q0 15 5.5 20t20.5 5h51v276q0 15 6 20t21 5h31q15 0 20.5 -5t5.5 -20v-309q0 -25 -10 -35t-33 -10h-92q-15 0 -20.5 5.5t-5.5 20.5z" />
    <glyph glyph-name="Ldot" unicode="&#x13f;" horiz-adv-x="1019" 
d="M174 0q-29 0 -29 27v1382q0 15 6 20t21 5h41q15 0 20 -5t5 -20v-1321h659q15 0 21 -5t6 -20v-36q0 -15 -6 -21t-21 -6h-723zM516 715v53q0 15 6 20t21 5h53q15 0 20 -5t5 -20v-53q0 -15 -5 -21t-20 -6h-53q-15 0 -21 6t-6 21z" />
    <glyph glyph-name="ldot" unicode="&#x140;" horiz-adv-x="360" 
d="M160 0q-25 0 -25 23v1388q0 23 25 23h41q24 0 24 -23v-1388q0 -23 -24 -23h-41zM283 586v53q0 15 5.5 20t20.5 5h53q15 0 20 -5t5 -20v-53q0 -15 -5 -21t-20 -6h-53q-15 0 -20.5 6t-5.5 21z" />
    <glyph glyph-name="Lslash" unicode="&#x141;" horiz-adv-x="1087" 
d="M39 303q-19 0 -25.5 9t4.5 24l197 239v834q0 15 6 20t21 5h41q15 0 19.5 -5t4.5 -20v-719l197 240q24 33 47 33h43q19 0 24.5 -8t-6.5 -23l-305 -377v-467h660q15 0 20.5 -5t5.5 -20v-36q0 -15 -5.5 -21t-20.5 -6h-723q-29 0 -29 27v415l-86 -106q-24 -33 -47 -33h-43z
" />
    <glyph glyph-name="lslash" unicode="&#x142;" horiz-adv-x="370" 
d="M164 0q-23 0 -23 23v630l-69 -69q-22 -25 -41 -25h-47q-9 0 -15.5 8.5t2.5 20.5l170 178v645q0 23 23 23h43q22 0 22 -23v-543l66 68q22 25 45 25h47q14 0 15.5 -10t-7.5 -19l-166 -176v-733q0 -23 -22 -23h-43z" />
    <glyph glyph-name="Nacute" unicode="&#x143;" horiz-adv-x="1204" 
d="M172 0q-15 0 -21 6t-6 21v1382q0 15 6 20t21 5h107q25 0 36 -23l635 -1313h15v1311q0 15 5.5 20t20.5 5h41q15 0 20 -5t5 -20v-1382q0 -15 -5 -21t-20 -6h-108q-23 0 -37 23l-633 1314h-16v-1310q0 -15 -5 -21t-20 -6h-41zM559 1571l156 235q21 37 45 37h51
q18 0 24.5 -10t-4.5 -27l-169 -235q-26 -37 -52 -37h-30q-16 0 -23 10t2 27z" />
    <glyph glyph-name="nacute" unicode="&#x144;" horiz-adv-x="1073" 
d="M160 0q-25 0 -25 23v978q0 23 25 23h41q24 0 24 -23v-96h19q92 127 278 127h76q175 0 257.5 -85.5t82.5 -260.5v-663q0 -23 -25 -23h-41q-22 0 -22 23v659q0 132 -64.5 199t-203.5 67h-70q-138 0 -212.5 -70t-74.5 -194v-661q0 -23 -24 -23h-41zM496 1161l155 236
q21 37 45 37h52q18 0 24.5 -10t-4.5 -27l-170 -236q-26 -37 -51 -37h-31q-16 0 -22.5 10t2.5 27z" />
    <glyph glyph-name="uni0145" unicode="&#x145;" horiz-adv-x="1204" 
d="M172 0q-15 0 -21 6t-6 21v1382q0 15 6 20t21 5h107q25 0 36 -23l635 -1313h15v1311q0 15 5.5 20t20.5 5h41q15 0 20 -5t5 -20v-1382q0 -15 -5 -21t-20 -6h-108q-23 0 -37 23l-633 1314h-16v-1310q0 -15 -5 -21t-20 -6h-41zM479 -463v27q0 15 6 20.5t21 5.5h51v260
q0 15 6 21t21 6h30q15 0 21 -6t6 -21v-294q0 -23 -10 -33t-33 -10h-92q-16 0 -21.5 4.5t-5.5 19.5z" />
    <glyph glyph-name="uni0146" unicode="&#x146;" horiz-adv-x="1073" 
d="M160 0q-25 0 -25 23v978q0 23 25 23h41q24 0 24 -23v-96h19q92 127 278 127h76q175 0 257.5 -85.5t82.5 -260.5v-663q0 -23 -25 -23h-41q-22 0 -22 23v659q0 132 -64.5 199t-203.5 67h-70q-138 0 -212.5 -70t-74.5 -194v-661q0 -23 -24 -23h-41zM414 -463v27
q0 15 5.5 20.5t20.5 5.5h52v260q0 15 5.5 21t20.5 6h31q15 0 20.5 -6t5.5 -21v-294q0 -23 -10 -33t-33 -10h-92q-15 0 -20.5 4.5t-5.5 19.5z" />
    <glyph glyph-name="Ncaron" unicode="&#x147;" horiz-adv-x="1204" 
d="M172 0q-15 0 -21 6t-6 21v1382q0 15 6 20t21 5h107q25 0 36 -23l635 -1313h15v1311q0 15 5.5 20t20.5 5h41q15 0 20 -5t5 -20v-1382q0 -15 -5 -21t-20 -6h-108q-23 0 -37 23l-633 1314h-16v-1310q0 -15 -5 -21t-20 -6h-41zM313 1812q-10 12 -6 21.5t19 9.5h43
q27 0 47 -22l176 -201h20l176 201q20 22 46 22h45q15 0 18 -9.5t-6 -21.5l-217 -247q-20 -25 -58 -25h-36q-28 0 -50 25z" />
    <glyph glyph-name="ncaron" unicode="&#x148;" horiz-adv-x="1073" 
d="M160 0q-25 0 -25 23v978q0 23 25 23h41q24 0 24 -23v-96h19q92 127 278 127h76q175 0 257.5 -85.5t82.5 -260.5v-663q0 -23 -25 -23h-41q-22 0 -22 23v659q0 132 -64.5 199t-203.5 67h-70q-138 0 -212.5 -70t-74.5 -194v-661q0 -23 -24 -23h-41zM248 1403
q-10 12 -6.5 21.5t18.5 9.5h43q26 0 47 -23l176 -201h21l176 201q21 23 45 23h45q15 0 18 -9.5t-6 -21.5l-217 -248q-20 -25 -57 -25h-37q-17 0 -26 5t-23 20z" />
    <glyph glyph-name="Eng" unicode="&#x14a;" horiz-adv-x="1204" 
d="M172 0q-15 0 -21 6t-6 21v1382q0 15 6 20t21 5h107q25 0 36 -23l635 -1313h15v1311q0 15 5.5 20t20.5 5h41q15 0 20 -5t5 -20v-395q2 -4 2 -15v-1009q0 -410 -432 -410h-27q-16 0 -22.5 5.5t-6.5 21.5v37q0 14 6.5 19t22.5 5h29q173 0 255.5 79t82.5 245v8h-43
q-23 0 -37 23l-633 1314h-16v-1310q0 -15 -5 -21t-20 -6h-41z" />
    <glyph glyph-name="eng" unicode="&#x14b;" horiz-adv-x="1073" 
d="M745 -420q-65 0 -65 27v33q0 22 31 22q78 0 108.5 35.5t30.5 130.5v854q0 132 -64.5 199t-203.5 67h-70q-138 0 -212.5 -70t-74.5 -194v-661q0 -23 -24 -23h-41q-25 0 -25 23v978q0 23 25 23h41q24 0 24 -23v-96h19q92 127 278 127h76q175 0 257.5 -85.5t82.5 -260.5
v-879q0 -119 -48 -173t-145 -54z" />
    <glyph glyph-name="Omacron" unicode="&#x14c;" 
d="M578 -10q-433 0 -433 409v635q0 410 433 410h114q432 0 432 -410v-635q0 -409 -432 -409h-114zM238 401q0 -166 81.5 -244.5t255.5 -78.5h119q173 0 255.5 78.5t82.5 244.5v633q0 164 -82.5 243t-255.5 79h-119q-174 0 -255.5 -78.5t-81.5 -243.5v-633zM274 1780v35
q0 28 29 28h668q28 0 28 -28v-35q0 -29 -28 -29h-668q-29 0 -29 29z" />
    <glyph glyph-name="omacron" unicode="&#x14d;" horiz-adv-x="1032" 
d="M471 -10q-169 0 -262.5 88t-93.5 254v360q0 164 93.5 252t262.5 88h92q168 0 261.5 -88t93.5 -252v-360q0 -165 -94 -253.5t-261 -88.5h-92zM154 1370v35q0 29 28 29h668q29 0 29 -29v-35q0 -29 -29 -29h-668q-28 0 -28 29zM205 332q0 -124 65 -191t197 -67h98
q132 0 198 67t66 191v358q0 124 -66 191t-198 67h-98q-132 0 -197 -67t-65 -191v-358z" />
    <glyph glyph-name="Ohungarumlaut" unicode="&#x150;" 
d="M578 -10q-433 0 -433 409v635q0 410 433 410h114q432 0 432 -410v-635q0 -409 -432 -409h-114zM238 401q0 -166 81.5 -244.5t255.5 -78.5h119q173 0 255.5 78.5t82.5 244.5v633q0 164 -82.5 243t-255.5 79h-119q-174 0 -255.5 -78.5t-81.5 -243.5v-633zM483 1571l156 235
q21 37 45 37h51q18 0 25 -10t-4 -27l-170 -235q-26 -37 -51 -37h-31q-16 0 -23 10t2 27zM717 1571l155 235q21 37 46 37h51q18 0 24.5 -10t-4.5 -27l-170 -235q-26 -37 -51 -37h-31q-16 0 -22.5 10t2.5 27z" />
    <glyph glyph-name="ohungarumlaut" unicode="&#x151;" horiz-adv-x="1032" 
d="M471 -10q-169 0 -262.5 88t-93.5 254v360q0 164 93.5 252t262.5 88h92q168 0 261.5 -88t93.5 -252v-360q0 -165 -94 -253.5t-261 -88.5h-92zM205 332q0 -124 65 -191t197 -67h98q132 0 198 67t66 191v358q0 124 -66 191t-198 67h-98q-132 0 -197 -67t-65 -191v-358z
M362 1161l156 236q21 37 45 37h51q18 0 25 -10t-4 -27l-170 -236q-26 -37 -51 -37h-31q-16 0 -23 10t2 27zM598 1161l156 236q21 37 45 37h51q18 0 24.5 -10t-4.5 -27l-170 -236q-26 -37 -51 -37h-31q-16 0 -22.5 10t2.5 27z" />
    <glyph glyph-name="OE" unicode="&#x152;" horiz-adv-x="1945" 
d="M578 -10q-433 0 -433 409v635q0 410 433 410h114q233 0 340 -119v84q0 14 6.5 19.5t22.5 5.5h770q16 0 22.5 -5.5t6.5 -19.5v-37q0 -26 -29 -26h-707v-582h648q16 0 22 -5t6 -20v-34q0 -15 -6 -20t-22 -5h-648v-592h711q15 0 21 -5t6 -20v-36q0 -15 -6 -21t-21 -6h-774
q-29 0 -29 27v82q-107 -119 -340 -119h-114zM238 401q0 -166 81.5 -244.5t255.5 -78.5h119q173 0 255.5 78.5t82.5 244.5v633q0 164 -82.5 243t-255.5 79h-119q-174 0 -255.5 -78.5t-81.5 -243.5v-633z" />
    <glyph glyph-name="oe" unicode="&#x153;" horiz-adv-x="1742" 
d="M471 -10q-169 0 -262.5 88t-93.5 254v360q0 164 93.5 252t262.5 88h92q231 0 311 -168q83 168 308 168h94q167 0 259.5 -88t92.5 -252v-155q0 -29 -18 -46.5t-47 -17.5h-645v-135q0 -124 74.5 -196t228.5 -72h20q178 0 293 84q16 13 25 0l24 -31q6 -6 5.5 -13t-5.5 -10
q-44 -46 -134.5 -78t-213.5 -32h-18q-257 0 -343 170q-83 -170 -311 -170h-92zM205 332q0 -124 65 -191t197 -67h98q132 0 198 67t66 191v358q0 124 -66 191t-198 67h-98q-132 0 -197 -67t-65 -191v-358zM918 549h620v141q0 258 -262 258h-94q-131 0 -197.5 -69.5
t-66.5 -194.5v-135z" />
    <glyph glyph-name="Racute" unicode="&#x154;" horiz-adv-x="1159" 
d="M172 0q-15 0 -21 6t-6 21v1382q0 15 6 20t21 5h457q219 0 318.5 -94t99.5 -304v-192q0 -154 -53 -245t-165 -128l215 -436q6 -15 0.5 -25t-20.5 -10h-41q-20 0 -31 20l-213 437q-50 -11 -92 -11h-409v-419q0 -15 -5 -21t-20 -6h-41zM238 535h393q173 0 248 72t75 237v192
q0 166 -75 238t-248 72h-393v-811zM508 1571l156 235q21 37 45 37h51q18 0 24.5 -10t-4.5 -27l-170 -235q-26 -37 -51 -37h-31q-16 0 -22.5 10t2.5 27z" />
    <glyph glyph-name="racute" unicode="&#x155;" horiz-adv-x="903" 
d="M160 0q-25 0 -25 23v978q0 23 25 23h41q24 0 24 -23v-96h19q39 61 108 94t160 33h51q129 0 192.5 -68t63.5 -198v-12q0 -12 -4 -16.5t-16 -4.5h-43q-12 0 -16.5 4.5t-4.5 16.5q0 194 -196 194h-47q-128 0 -197.5 -70t-69.5 -194v-661q0 -23 -24 -23h-41zM442 1161
l156 236q21 37 45 37h51q18 0 25 -10t-4 -27l-170 -236q-26 -37 -51 -37h-31q-16 0 -23 10t2 27z" />
    <glyph glyph-name="uni0156" unicode="&#x156;" horiz-adv-x="1159" 
d="M172 0q-15 0 -21 6t-6 21v1382q0 15 6 20t21 5h457q219 0 318.5 -94t99.5 -304v-192q0 -154 -53 -245t-165 -128l215 -436q6 -15 0.5 -25t-20.5 -10h-41q-20 0 -31 20l-213 437q-50 -11 -92 -11h-409v-419q0 -15 -5 -21t-20 -6h-41zM238 535h393q173 0 248 72t75 237v192
q0 166 -75 238t-248 72h-393v-811zM426 -463v27q0 15 6 20.5t21 5.5h51v260q0 15 5.5 21t20.5 6h31q15 0 21 -6t6 -21v-294q0 -23 -10 -33t-33 -10h-92q-16 0 -21.5 4.5t-5.5 19.5z" />
    <glyph glyph-name="uni0157" unicode="&#x157;" horiz-adv-x="903" 
d="M160 0q-25 0 -25 23v978q0 23 25 23h41q24 0 24 -23v-96h19q39 61 108 94t160 33h51q129 0 192.5 -68t63.5 -198v-12q0 -12 -4 -16.5t-16 -4.5h-43q-12 0 -16.5 4.5t-4.5 16.5q0 194 -196 194h-47q-128 0 -197.5 -70t-69.5 -194v-661q0 -23 -24 -23h-41zM57 -463v27
q0 15 6 20.5t21 5.5h51v260q0 15 6 21t21 6h31q15 0 20.5 -6t5.5 -21v-294q0 -23 -10 -33t-33 -10h-92q-16 0 -21.5 4.5t-5.5 19.5z" />
    <glyph glyph-name="Rcaron" unicode="&#x158;" horiz-adv-x="1159" 
d="M172 0q-15 0 -21 6t-6 21v1382q0 15 6 20t21 5h457q219 0 318.5 -94t99.5 -304v-192q0 -154 -53 -245t-165 -128l215 -436q6 -15 0.5 -25t-20.5 -10h-41q-20 0 -31 20l-213 437q-50 -11 -92 -11h-409v-419q0 -15 -5 -21t-20 -6h-41zM238 535h393q173 0 248 72t75 237v192
q0 166 -75 238t-248 72h-393v-811zM262 1812q-10 12 -6.5 21.5t18.5 9.5h43q28 0 48 -22l176 -201h20l176 201q20 22 45 22h45q15 0 18.5 -9.5t-5.5 -21.5l-217 -247q-20 -25 -58 -25h-37q-17 0 -26 5t-23 20z" />
    <glyph glyph-name="rcaron" unicode="&#x159;" horiz-adv-x="903" 
d="M160 0q-25 0 -25 23v978q0 23 25 23h41q24 0 24 -23v-96h19q39 61 108 94t160 33h51q129 0 192.5 -68t63.5 -198v-12q0 -12 -4 -16.5t-16 -4.5h-43q-12 0 -16.5 4.5t-4.5 16.5q0 194 -196 194h-47q-128 0 -197.5 -70t-69.5 -194v-661q0 -23 -24 -23h-41zM197 1403
q-10 12 -6.5 21.5t18.5 9.5h43q26 0 47 -23l176 -201h21l176 201q21 23 45 23h45q15 0 18 -9.5t-6 -21.5l-217 -248q-20 -25 -57 -25h-37q-17 0 -26 5t-23 20z" />
    <glyph glyph-name="Sacute" unicode="&#x15a;" horiz-adv-x="1165" 
d="M549 -10q-212 0 -323 82.5t-111 271.5q0 13 8 21t20 8h37q12 0 20 -8t7 -21q-1 -140 85.5 -203t252.5 -63h98q160 0 237.5 67t77.5 217q0 47 -9 85.5t-23.5 66.5t-40.5 51t-51.5 38t-64 28.5t-72 22t-81.5 18.5l-79 18q-47 10 -74.5 16t-68 17.5t-64.5 22t-55 28
t-49.5 37t-38.5 47.5t-30 61.5t-17 76.5t-7 94q0 191 109 272.5t311 81.5h61q406 0 406 -367q0 -26 -29 -26h-35q-28 0 -28 26q1 149 -77 214t-235 65h-65q-165 0 -245.5 -60t-80.5 -209q0 -36 3.5 -66.5t13 -55t18 -44.5t26 -36.5t30.5 -28.5t37.5 -23t40.5 -17.5t46 -14.5
t47.5 -12t51.5 -11l79 -16q49 -11 80 -18t73 -19.5t69 -24t59.5 -29.5t52.5 -37.5t41 -47.5t32.5 -60t18.5 -73.5t7 -90.5q0 -191 -107.5 -281.5t-302.5 -90.5h-92zM543 1571l155 235q21 37 45 37h52q18 0 24.5 -10t-4.5 -27l-170 -235q-26 -37 -51 -37h-31q-16 0 -22.5 10
t2.5 27z" />
    <glyph glyph-name="sacute" unicode="&#x15b;" horiz-adv-x="966" 
d="M436 -10q-155 0 -243.5 63t-88.5 187q0 26 27 26h39q22 0 25 -26q8 -86 64.5 -127t170.5 -41h88q120 0 188 46t68 158q0 34 -9 61t-21 45.5t-37 33.5t-45 23.5t-58 16t-62.5 10.5t-70.5 9l-27 2q-63 6 -109 16.5t-89.5 31t-71 51t-43.5 77.5t-16 109q0 270 334 270h59
q154 0 243 -69t89 -205q0 -29 -23 -29h-39q-13 0 -18.5 7t-7.5 24q-8 99 -65.5 144.5t-176.5 45.5h-57q-126 0 -188 -43t-62 -147q0 -56 17.5 -94t56 -60.5t84 -34t116.5 -18.5l29 -2q69 -8 116 -17t96 -28.5t78 -47.5t47.5 -74.5t18.5 -109.5q0 -284 -344 -284h-82z
M440 1161l156 236q21 37 45 37h51q18 0 25 -10t-4 -27l-170 -236q-26 -37 -51 -37h-31q-16 0 -23 10t2 27z" />
    <glyph glyph-name="Scircumflex" unicode="&#x15c;" horiz-adv-x="1165" 
d="M549 -10q-212 0 -323 82.5t-111 271.5q0 13 8 21t20 8h37q12 0 20 -8t7 -21q-1 -140 85.5 -203t252.5 -63h98q160 0 237.5 67t77.5 217q0 47 -9 85.5t-23.5 66.5t-40.5 51t-51.5 38t-64 28.5t-72 22t-81.5 18.5l-79 18q-47 10 -74.5 16t-68 17.5t-64.5 22t-55 28
t-49.5 37t-38.5 47.5t-30 61.5t-17 76.5t-7 94q0 191 109 272.5t311 81.5h61q406 0 406 -367q0 -26 -29 -26h-35q-28 0 -28 26q1 149 -77 214t-235 65h-65q-165 0 -245.5 -60t-80.5 -209q0 -36 3.5 -66.5t13 -55t18 -44.5t26 -36.5t30.5 -28.5t37.5 -23t40.5 -17.5t46 -14.5
t47.5 -12t51.5 -11l79 -16q49 -11 80 -18t73 -19.5t69 -24t59.5 -29.5t52.5 -37.5t41 -47.5t32.5 -60t18.5 -73.5t7 -90.5q0 -191 -107.5 -281.5t-302.5 -90.5h-92zM281 1571l217 246q14 16 23 21t26 5h37q14 0 21.5 -1t17 -7t18.5 -18l217 -246q9 -12 6 -21.5t-18 -9.5h-45
q-11 0 -16 1t-12.5 6t-16.5 16l-176 200h-21l-176 -200q-12 -16 -21.5 -19.5t-25.5 -3.5h-43q-15 0 -18.5 9.5t6.5 21.5z" />
    <glyph glyph-name="scircumflex" unicode="&#x15d;" horiz-adv-x="966" 
d="M436 -10q-155 0 -243.5 63t-88.5 187q0 26 27 26h39q22 0 25 -26q8 -86 64.5 -127t170.5 -41h88q120 0 188 46t68 158q0 34 -9 61t-21 45.5t-37 33.5t-45 23.5t-58 16t-62.5 10.5t-70.5 9l-27 2q-63 6 -109 16.5t-89.5 31t-71 51t-43.5 77.5t-16 109q0 270 334 270h59
q154 0 243 -69t89 -205q0 -29 -23 -29h-39q-13 0 -18.5 7t-7.5 24q-8 99 -65.5 144.5t-176.5 45.5h-57q-126 0 -188 -43t-62 -147q0 -56 17.5 -94t56 -60.5t84 -34t116.5 -18.5l29 -2q69 -8 116 -17t96 -28.5t78 -47.5t47.5 -74.5t18.5 -109.5q0 -284 -344 -284h-82z
M178 1161l217 246q15 16 24 21.5t25 5.5h37q39 0 58 -27l217 -246q9 -12 5.5 -21.5t-18.5 -9.5h-45q-11 0 -16 1t-12.5 6t-16.5 16l-176 201h-20l-176 -201q-9 -11 -17 -16t-14 -6t-17 -1h-43q-15 0 -18.5 9.5t6.5 21.5z" />
    <glyph glyph-name="Scedilla" unicode="&#x15e;" horiz-adv-x="1165" 
d="M582 -408q-96 0 -136 38t-40 116q0 25 22 25h37q8 0 14 -5t6 -12q-2 -48 24 -69t91 -21h41q61 0 85 16.5t24 55.5t-23.5 56.5t-75.5 17.5h-106q-34 0 -56 18t-22 51q0 46 65 111q-203 3 -310 86t-107 268q0 13 8 21t20 8h37q12 0 20 -8t7 -21q-1 -140 85.5 -203
t252.5 -63h98q160 0 237.5 67t77.5 217q0 47 -9 85.5t-23.5 66.5t-40.5 51t-51.5 38t-64 28.5t-72 22t-81.5 18.5l-79 18q-47 10 -74.5 16t-68 17.5t-64.5 22t-55 28t-49.5 37t-38.5 47.5t-30 61.5t-17 76.5t-7 94q0 191 109 272.5t311 81.5h61q406 0 406 -367
q0 -26 -29 -26h-35q-28 0 -28 26q1 149 -77 214t-235 65h-65q-165 0 -245.5 -60t-80.5 -209q0 -36 3.5 -66.5t13 -55t18 -44.5t26 -36.5t30.5 -28.5t37.5 -23t40.5 -17.5t46 -14.5t47.5 -12t51.5 -11l79 -16q49 -11 80 -18t73 -19.5t69 -24t59.5 -29.5t52.5 -37.5t41 -47.5
t32.5 -60t18.5 -73.5t7 -90.5q0 -191 -107.5 -281.5t-302.5 -90.5h-16q-121 -113 -17 -113h66q75 0 116 -29.5t41 -115.5q0 -72 -40 -106t-134 -34h-75z" />
    <glyph glyph-name="scedilla" unicode="&#x15f;" horiz-adv-x="966" 
d="M479 -408q-96 0 -136 38t-40 116q0 25 23 25h36q8 0 14.5 -5t6.5 -12q-2 -48 24 -69t91 -21h41q60 0 84 16.5t24 55.5t-23 56.5t-75 17.5h-107q-34 0 -55.5 18t-21.5 51q0 46 65 111q-152 2 -239 64.5t-87 185.5q0 26 27 26h39q22 0 25 -26q8 -86 64.5 -127t170.5 -41h88
q120 0 188 46t68 158q0 34 -9 61t-21 45.5t-37 33.5t-45 23.5t-58 16t-62.5 10.5t-70.5 9l-27 2q-63 6 -109 16.5t-89.5 31t-71 51t-43.5 77.5t-16 109q0 270 334 270h59q154 0 243 -69t89 -205q0 -29 -23 -29h-39q-13 0 -18.5 7t-7.5 24q-8 99 -65.5 144.5t-176.5 45.5h-57
q-126 0 -188 -43t-62 -147q0 -56 17.5 -94t56 -60.5t84 -34t116.5 -18.5l29 -2q69 -8 116 -17t96 -28.5t78 -47.5t47.5 -74.5t18.5 -109.5q0 -79 -26.5 -135.5t-75 -88t-107 -46t-131.5 -14.5q-121 -113 -16 -113h65q36 0 61.5 -5.5t49 -20t35.5 -44.5t12 -75
q0 -72 -40 -106t-134 -34h-76z" />
    <glyph glyph-name="Scaron" unicode="&#x160;" horiz-adv-x="1165" 
d="M549 -10q-212 0 -323 82.5t-111 271.5q0 13 8 21t20 8h37q12 0 20 -8t7 -21q-1 -140 85.5 -203t252.5 -63h98q160 0 237.5 67t77.5 217q0 47 -9 85.5t-23.5 66.5t-40.5 51t-51.5 38t-64 28.5t-72 22t-81.5 18.5l-79 18q-47 10 -74.5 16t-68 17.5t-64.5 22t-55 28
t-49.5 37t-38.5 47.5t-30 61.5t-17 76.5t-7 94q0 191 109 272.5t311 81.5h61q406 0 406 -367q0 -26 -29 -26h-35q-28 0 -28 26q1 149 -77 214t-235 65h-65q-165 0 -245.5 -60t-80.5 -209q0 -36 3.5 -66.5t13 -55t18 -44.5t26 -36.5t30.5 -28.5t37.5 -23t40.5 -17.5t46 -14.5
t47.5 -12t51.5 -11l79 -16q49 -11 80 -18t73 -19.5t69 -24t59.5 -29.5t52.5 -37.5t41 -47.5t32.5 -60t18.5 -73.5t7 -90.5q0 -191 -107.5 -281.5t-302.5 -90.5h-92zM295 1812q-10 12 -6.5 21.5t18.5 9.5h43q27 0 47 -22l176 -201h21l176 201q20 22 45 22h45q15 0 18 -9.5
t-6 -21.5l-217 -247q-20 -25 -57 -25h-37q-17 0 -26 5t-23 20z" />
    <glyph glyph-name="scaron" unicode="&#x161;" horiz-adv-x="966" 
d="M436 -10q-155 0 -243.5 63t-88.5 187q0 26 27 26h39q22 0 25 -26q8 -86 64.5 -127t170.5 -41h88q120 0 188 46t68 158q0 34 -9 61t-21 45.5t-37 33.5t-45 23.5t-58 16t-62.5 10.5t-70.5 9l-27 2q-63 6 -109 16.5t-89.5 31t-71 51t-43.5 77.5t-16 109q0 270 334 270h59
q154 0 243 -69t89 -205q0 -29 -23 -29h-39q-13 0 -18.5 7t-7.5 24q-8 99 -65.5 144.5t-176.5 45.5h-57q-126 0 -188 -43t-62 -147q0 -56 17.5 -94t56 -60.5t84 -34t116.5 -18.5l29 -2q69 -8 116 -17t96 -28.5t78 -47.5t47.5 -74.5t18.5 -109.5q0 -284 -344 -284h-82z
M193 1403q-10 12 -6.5 21.5t18.5 9.5h43q26 0 47 -23l176 -201h21l176 201q21 23 45 23h45q15 0 18 -9.5t-6 -21.5l-217 -248q-20 -25 -57 -25h-37q-17 0 -26 5t-23 20z" />
    <glyph glyph-name="uni0162" unicode="&#x162;" horiz-adv-x="1075" 
d="M551 -408q-96 0 -136 39t-40 119q0 21 18 21h41q8 0 14.5 -5t6.5 -12q0 -49 24 -68.5t88 -19.5h45q65 0 87 12.5t22 55.5q0 40 -23 54.5t-86 14.5h-67q-28 0 -39.5 16.5t-11.5 53.5v1473h-361q-29 0 -29 26v37q0 14 6.5 19.5t22.5 5.5h809q16 0 22.5 -5.5t6.5 -19.5v-37
q0 -26 -29 -26h-356v-1448q0 -25 43 -25q40 0 64.5 -3.5t53 -16t42.5 -42t14 -77.5q0 -73 -40 -107.5t-136 -34.5h-76z" />
    <glyph glyph-name="uni0163" unicode="&#x163;" horiz-adv-x="555" 
d="M428 -10h-20q-110 -105 -9 -105h66q36 0 61.5 -5.5t49 -20t35.5 -44.5t12 -75q0 -72 -39.5 -105.5t-134.5 -33.5h-76q-96 0 -136 37.5t-40 115.5q0 25 22 25h37q8 0 14 -5t6 -12q-2 -48 24 -69t91 -21h41q61 0 85 16.5t24 55.5t-23.5 56.5t-75.5 17.5h-106q-34 0 -56 18
t-22 51q0 48 76 121q-98 43 -98 211v723h-140q-22 0 -22 23v36q0 23 22 23h140v188q0 23 22 23h43q23 0 23 -23v-188h155q12 0 17.5 -5t5.5 -18v-36q0 -13 -5.5 -18t-17.5 -5h-155v-704q0 -95 30.5 -129.5t108.5 -34.5q31 0 31 -25v-33q0 -26 -66 -26z" />
    <glyph glyph-name="Tcaron" unicode="&#x164;" horiz-adv-x="1075" 
d="M518 0q-15 0 -19.5 5.5t-4.5 21.5v1319h-361q-29 0 -29 26v37q0 14 6.5 19.5t22.5 5.5h809q16 0 22.5 -5.5t6.5 -19.5v-37q0 -26 -29 -26h-356v-1319q0 -15 -6 -21t-21 -6h-41zM250 1812q-10 12 -6.5 21.5t18.5 9.5h43q27 0 47 -22l176 -201h21l176 201q20 22 45 22h45
q15 0 18 -9.5t-6 -21.5l-217 -247q-20 -25 -57 -25h-37q-17 0 -26 5t-23 20z" />
    <glyph glyph-name="tcaron" unicode="&#x165;" horiz-adv-x="540" 
d="M428 -10q-97 0 -144.5 54t-47.5 175v723h-140q-22 0 -22 23v36q0 23 22 23h140v188q0 23 22 23h43q23 0 23 -23v-188h155q12 0 17.5 -5t5.5 -18v-36q0 -13 -5.5 -18t-17.5 -5h-155v-704q0 -95 30.5 -129.5t108.5 -34.5q31 0 31 -25v-33q0 -26 -66 -26zM391 1120v27
q0 15 5.5 19.5t21.5 4.5h51v277q0 15 6 20t21 5h30q15 0 21 -5t6 -20v-309q0 -25 -10 -35t-33 -10h-92q-15 0 -21 5.5t-6 20.5z" />
    <glyph glyph-name="Tbar" unicode="&#x166;" horiz-adv-x="1075" 
d="M518 0q-15 0 -19.5 5.5t-4.5 21.5v872h-289q-29 0 -29 29v35q0 28 29 28h289v355h-361q-29 0 -29 26v37q0 14 6.5 19.5t22.5 5.5h809q16 0 22.5 -5.5t6.5 -19.5v-37q0 -26 -29 -26h-356v-355h286q29 0 29 -28v-35q0 -29 -29 -29h-286v-872q0 -15 -6 -21t-21 -6h-41z" />
    <glyph glyph-name="tbar" unicode="&#x167;" horiz-adv-x="598" 
d="M96 690q-22 0 -22 23v39q0 22 22 22h140v168h-140q-22 0 -22 23v36q0 23 22 23h140v188q0 23 22 23h43q23 0 23 -23v-188h155q12 0 17.5 -5t5.5 -18v-36q0 -13 -5.5 -18t-17.5 -5h-155v-168h155q23 0 23 -22v-39q0 -23 -23 -23h-155v-452q0 -95 30.5 -129.5t108.5 -34.5
q31 0 31 -25v-33q0 -26 -66 -26q-97 0 -144.5 54t-47.5 175v471h-140z" />
    <glyph glyph-name="Utilde" unicode="&#x168;" 
d="M578 -10q-433 0 -433 409v1010q0 15 6 20t21 5h41q15 0 20 -5t5 -20v-1008q0 -166 81.5 -244.5t255.5 -78.5h119q173 0 255.5 78.5t82.5 244.5v1008q0 15 5 20t20 5h41q15 0 20.5 -5t5.5 -20v-1010q0 -409 -432 -409h-114zM309 1774q-9 15 15 30q81 49 159 49
q44 0 87 -16t72.5 -35t71 -35t83.5 -16q59 0 116 39q23 14 31 -8l17 -31q10 -17 -13 -31q-81 -49 -160 -49q-44 0 -87 16t-73 35.5t-71.5 35.5t-83.5 16q-54 0 -117 -39q-8 -5 -13 -6t-8.5 2.5t-6.5 11.5z" />
    <glyph glyph-name="utilde" unicode="&#x169;" horiz-adv-x="1073" 
d="M475 -8q-175 0 -257.5 85.5t-82.5 260.5v663q0 23 25 23h41q24 0 24 -23v-659q0 -132 64 -199t203 -67h69q138 0 213.5 70t75.5 194v661q0 23 22 23h43q23 0 23 -23v-978q0 -23 -23 -23h-43q-22 0 -22 23v96h-19q-43 -59 -114.5 -93t-165.5 -34h-76zM182 1364
q-9 16 15 31q81 49 159 49q44 0 87 -16t72.5 -35.5t71 -35.5t83.5 -16q59 0 116 39q23 14 31 -8l17 -31q10 -16 -13 -30q-81 -49 -159 -49q-44 0 -87 16t-73 35t-72 35t-84 16q-54 0 -117 -39q-8 -5 -13 -6t-8.5 2.5t-6.5 11.5z" />
    <glyph glyph-name="Umacron" unicode="&#x16a;" 
d="M578 -10q-433 0 -433 409v1010q0 15 6 20t21 5h41q15 0 20 -5t5 -20v-1008q0 -166 81.5 -244.5t255.5 -78.5h119q173 0 255.5 78.5t82.5 244.5v1008q0 15 5 20t20 5h41q15 0 20.5 -5t5.5 -20v-1010q0 -409 -432 -409h-114zM274 1780v35q0 28 29 28h668q28 0 28 -28v-35
q0 -29 -28 -29h-668q-29 0 -29 29z" />
    <glyph glyph-name="umacron" unicode="&#x16b;" horiz-adv-x="1073" 
d="M475 -8q-175 0 -257.5 85.5t-82.5 260.5v663q0 23 25 23h41q24 0 24 -23v-659q0 -132 64 -199t203 -67h69q138 0 213.5 70t75.5 194v661q0 23 22 23h43q23 0 23 -23v-978q0 -23 -23 -23h-43q-22 0 -22 23v96h-19q-43 -59 -114.5 -93t-165.5 -34h-76zM145 1370v35
q0 29 29 29h668q28 0 28 -29v-35q0 -29 -28 -29h-668q-29 0 -29 29z" />
    <glyph glyph-name="Ubreve" unicode="&#x16c;" 
d="M578 -10q-433 0 -433 409v1010q0 15 6 20t21 5h41q15 0 20 -5t5 -20v-1008q0 -166 81.5 -244.5t255.5 -78.5h119q173 0 255.5 78.5t82.5 244.5v1008q0 15 5 20t20 5h41q15 0 20.5 -5t5.5 -20v-1010q0 -409 -432 -409h-114zM371 1817q0 26 26 26h31q28 0 25 -26
q2 -75 39.5 -118.5t107.5 -43.5h72q71 0 108 43.5t37 118.5q0 26 27 26h30q27 0 27 -26q0 -120 -57 -178t-174 -58h-70q-229 0 -229 236z" />
    <glyph glyph-name="ubreve" unicode="&#x16d;" horiz-adv-x="1073" 
d="M475 -8q-175 0 -257.5 85.5t-82.5 260.5v663q0 23 25 23h41q24 0 24 -23v-659q0 -132 64 -199t203 -67h69q138 0 213.5 70t75.5 194v661q0 23 22 23h43q23 0 23 -23v-978q0 -23 -23 -23h-43q-22 0 -22 23v96h-19q-43 -59 -114.5 -93t-165.5 -34h-76zM242 1407q0 27 26 27
h31q28 0 25 -27q2 -75 39.5 -118.5t107.5 -43.5h72q71 0 108 43.5t37 118.5q0 27 27 27h30q27 0 27 -27q0 -120 -57 -178t-174 -58h-70q-229 0 -229 236z" />
    <glyph glyph-name="Uring" unicode="&#x16e;" 
d="M578 -10q-433 0 -433 409v1010q0 15 6 20t21 5h41q15 0 20 -5t5 -20v-1008q0 -166 81.5 -244.5t255.5 -78.5h119q173 0 255.5 78.5t82.5 244.5v1008q0 15 5 20t20 5h41q15 0 20.5 -5t5.5 -20v-1010q0 -409 -432 -409h-114zM453 1681v25q0 71 49 119.5t123 48.5h24
q74 0 123 -48.5t49 -119.5v-25q0 -71 -49 -119.5t-123 -48.5h-24q-74 0 -123 48.5t-49 119.5zM528 1686q0 -45 27 -72t74 -27h16q47 0 73.5 27t26.5 72v16q0 45 -26.5 71.5t-73.5 26.5h-16q-47 0 -74 -26.5t-27 -71.5v-16z" />
    <glyph glyph-name="uring" unicode="&#x16f;" horiz-adv-x="1073" 
d="M475 -8q-175 0 -257.5 85.5t-82.5 260.5v663q0 23 25 23h41q24 0 24 -23v-659q0 -132 64 -199t203 -67h69q138 0 213.5 70t75.5 194v661q0 23 22 23h43q23 0 23 -23v-978q0 -23 -23 -23h-43q-22 0 -22 23v96h-19q-43 -59 -114.5 -93t-165.5 -34h-76zM324 1272v24
q0 71 49 119.5t123 48.5h24q74 0 123 -48.5t49 -119.5v-24q0 -71 -49 -119.5t-123 -48.5h-24q-74 0 -123 48.5t-49 119.5zM399 1276q0 -45 27 -71.5t74 -26.5h16q47 0 73.5 26.5t26.5 71.5v16q0 45 -26.5 72t-73.5 27h-16q-47 0 -74 -27t-27 -72v-16z" />
    <glyph glyph-name="Uhungarumlaut" unicode="&#x170;" 
d="M578 -10q-433 0 -433 409v1010q0 15 6 20t21 5h41q15 0 20 -5t5 -20v-1008q0 -166 81.5 -244.5t255.5 -78.5h119q173 0 255.5 78.5t82.5 244.5v1008q0 15 5 20t20 5h41q15 0 20.5 -5t5.5 -20v-1010q0 -409 -432 -409h-114zM483 1571l156 235q21 37 45 37h51q18 0 25 -10
t-4 -27l-170 -235q-26 -37 -51 -37h-31q-16 0 -23 10t2 27zM717 1571l155 235q21 37 46 37h51q18 0 24.5 -10t-4.5 -27l-170 -235q-26 -37 -51 -37h-31q-16 0 -22.5 10t2.5 27z" />
    <glyph glyph-name="uhungarumlaut" unicode="&#x171;" horiz-adv-x="1073" 
d="M475 -8q-175 0 -257.5 85.5t-82.5 260.5v663q0 23 25 23h41q24 0 24 -23v-659q0 -132 64 -199t203 -67h69q138 0 213.5 70t75.5 194v661q0 23 22 23h43q23 0 23 -23v-978q0 -23 -23 -23h-43q-22 0 -22 23v96h-19q-43 -59 -114.5 -93t-165.5 -34h-76zM354 1161l156 236
q21 37 45 37h51q18 0 25 -10t-4 -27l-170 -236q-26 -37 -51 -37h-31q-16 0 -23 10t2 27zM590 1161l155 236q21 37 46 37h51q18 0 24.5 -10t-4.5 -27l-170 -236q-26 -37 -51 -37h-31q-16 0 -22.5 10t2.5 27z" />
    <glyph glyph-name="Uogonek" unicode="&#x172;" 
d="M578 -10q-433 0 -433 409v1010q0 15 6 20t21 5h41q15 0 20 -5t5 -20v-1008q0 -166 81.5 -244.5t255.5 -78.5h119q173 0 255.5 78.5t82.5 244.5v1008q0 15 5 20t20 5h41q15 0 20.5 -5t5.5 -20v-1010q0 -383 -376 -407v-41q0 -66 -17 -91.5t-67 -29.5l-191 -25
q-34 -3 -45.5 -14t-11.5 -51q0 -48 20.5 -65t83.5 -17h187q20 0 20 -18v-31q0 -21 -20 -21h-199q-102 0 -139 33t-37 117q0 35 6.5 58t16.5 37t34.5 22.5t47 12.5t67.5 9l92 10q41 4 52 18t11 46v39h-81z" />
    <glyph glyph-name="uogonek" unicode="&#x173;" horiz-adv-x="1073" 
d="M475 -8q-175 0 -257.5 85.5t-82.5 260.5v663q0 23 25 23h41q24 0 24 -23v-659q0 -132 64 -199t203 -67h69q138 0 213.5 70t75.5 194v661q0 23 22 23h43q23 0 23 -23v-1050q0 -66 -17 -91.5t-67 -29.5l-190 -25q-34 -3 -46 -14t-12 -51q0 -48 21 -65t84 -17h186
q21 0 21 -18v-31q0 -21 -21 -21h-199q-102 0 -139 33t-37 117q0 35 6.5 58t16.5 37t34.5 22.5t47 12.5t67.5 9l92 10q41 4 52.5 18.5t11.5 45.5v168h-19q-43 -59 -114.5 -93t-165.5 -34h-76z" />
    <glyph glyph-name="Wcircumflex" unicode="&#x174;" horiz-adv-x="1839" 
d="M455 0q-30 0 -37 33l-330 1370q-11 31 21 31h41q14 0 21 -6.5t13 -24.5l310 -1299h16l348 1299q6 18 12.5 24.5t20.5 6.5h57q15 0 20.5 -6t10.5 -25l350 -1299h17l309 1299q8 31 35 31h41q28 0 20 -31l-330 -1370q-7 -33 -37 -33h-98q-24 0 -37 33l-319 1237h-21
l-321 -1237q-10 -33 -35 -33h-98zM616 1571l218 246q14 16 23 21t26 5h37q14 0 21.5 -1t17 -7t18.5 -18l217 -246q9 -12 6 -21.5t-18 -9.5h-45q-11 0 -16 1t-12.5 6t-16.5 16l-177 200h-20l-176 -200q-12 -16 -21.5 -19.5t-25.5 -3.5h-43q-15 0 -19 9.5t6 21.5z" />
    <glyph glyph-name="wcircumflex" unicode="&#x175;" horiz-adv-x="1474" 
d="M371 0q-30 0 -39 31l-244 964q-7 29 16 29h46q14 0 19 -7t9 -22l228 -903h6l264 903q0 1 1.5 4.5t2 4.5t1.5 4t2 4t2.5 3.5t2.5 3t3 2t4 2t4.5 1t5.5 0.5h65q3 0 6 -0.5t5 -1.5t4 -1.5t3.5 -3t2.5 -3.5t2.5 -4.5t2 -4.5t2 -5t1.5 -5l264 -903h6l225 903q7 29 31 29h45
q23 0 16 -29l-245 -964q-9 -31 -39 -31h-72q-30 0 -39 31l-250 876h-8l-250 -876q-9 -31 -39 -31h-73zM434 1161l217 246q15 16 24 21.5t25 5.5h37q39 0 58 -27l217 -246q9 -12 5.5 -21.5t-18.5 -9.5h-45q-11 0 -16 1t-12.5 6t-16.5 16l-176 201h-20l-176 -201
q-9 -11 -17 -16t-14 -6t-17 -1h-43q-15 0 -18.5 9.5t6.5 21.5z" />
    <glyph glyph-name="Ycircumflex" unicode="&#x176;" horiz-adv-x="1124" 
d="M88 1405q-13 29 12 29h58q14 0 21.5 -6.5t15.5 -22.5l362 -729h10l363 729q14 29 35 29h57q28 0 12 -29l-426 -844v-534q0 -15 -5.5 -21t-20.5 -6h-41q-15 0 -20 6t-5 21v530zM258 1571l217 246q14 16 23 21t26 5h37q14 0 21.5 -1t17 -7t18.5 -18l218 -246
q9 -12 5.5 -21.5t-18.5 -9.5h-45q-11 0 -16 1t-12.5 6t-16.5 16l-176 200h-20l-177 -200q-12 -16 -21.5 -19.5t-25.5 -3.5h-43q-15 0 -18.5 9.5t6.5 21.5z" />
    <glyph glyph-name="ycircumflex" unicode="&#x177;" horiz-adv-x="1044" 
d="M373 -362q-27 0 -19 28l121 309l-389 1020q-4 12 -2 20.5t16 8.5h52q14 0 18.5 -6t11.5 -27l334 -891h10l334 891q5 14 7.5 19.5t8 9.5t15.5 4h53q25 0 14 -29l-509 -1329q-12 -28 -31 -28h-45zM217 1161l217 246q15 16 24 21.5t25 5.5h37q39 0 58 -27l217 -246
q9 -12 5.5 -21.5t-18.5 -9.5h-45q-11 0 -16 1t-12.5 6t-16.5 16l-176 201h-20l-177 -201q-12 -16 -21.5 -19.5t-25.5 -3.5h-43q-15 0 -18.5 9.5t6.5 21.5z" />
    <glyph glyph-name="Ydieresis" unicode="&#x178;" horiz-adv-x="1124" 
d="M88 1405q-13 29 12 29h58q14 0 21.5 -6.5t15.5 -22.5l362 -729h10l363 729q14 29 35 29h57q28 0 12 -29l-426 -844v-534q0 -15 -5.5 -21t-20.5 -6h-41q-15 0 -20 6t-5 21v530zM252 1765v54q0 15 5.5 19.5t21.5 4.5h53q15 0 19.5 -4.5t4.5 -19.5v-54q0 -15 -4.5 -20.5
t-19.5 -5.5h-53q-15 0 -21 5.5t-6 20.5zM768 1765v54q0 15 5.5 19.5t21.5 4.5h53q15 0 19.5 -4.5t4.5 -19.5v-54q0 -15 -4.5 -20.5t-19.5 -5.5h-53q-15 0 -21 5.5t-6 20.5z" />
    <glyph glyph-name="Zacute" unicode="&#x179;" horiz-adv-x="1060" 
d="M133 0q-29 0 -29 27v57q0 20 15 49l737 1198v15h-704q-29 0 -29 26v37q0 14 6.5 19.5t22.5 5.5h776q15 0 20.5 -5t5.5 -20v-59q0 -23 -14 -50l-735 -1198v-14h719q16 0 22 -5t6 -20v-36q0 -27 -28 -27h-791zM489 1571l156 235q21 37 45 37h51q18 0 25 -10t-4 -27
l-170 -235q-26 -37 -51 -37h-31q-16 0 -23 10t2 27z" />
    <glyph glyph-name="zacute" unicode="&#x17a;" horiz-adv-x="868" 
d="M109 0q-25 0 -25 23v53q0 16 10 28l586 826v12h-549q-22 0 -22 23v36q0 23 22 23h621q22 0 22 -23v-61q0 -12 -10 -25l-582 -821v-12h570q22 0 22 -23v-36q0 -23 -24 -23h-641zM401 1161l156 236q21 37 45 37h51q18 0 25 -10t-4 -27l-170 -236q-26 -37 -51 -37h-31
q-16 0 -23 10t2 27z" />
    <glyph glyph-name="Zdotaccent" unicode="&#x17b;" horiz-adv-x="1060" 
d="M133 0q-29 0 -29 27v57q0 20 15 49l737 1198v15h-704q-29 0 -29 26v37q0 14 6.5 19.5t22.5 5.5h776q15 0 20.5 -5t5.5 -20v-59q0 -23 -14 -50l-735 -1198v-14h719q16 0 22 -5t6 -20v-36q0 -27 -28 -27h-791zM479 1765v54q0 15 5.5 19.5t21.5 4.5h53q15 0 20 -4.5t5 -19.5
v-54q0 -15 -5 -20.5t-20 -5.5h-53q-15 0 -21 5.5t-6 20.5z" />
    <glyph glyph-name="zdotaccent" unicode="&#x17c;" horiz-adv-x="868" 
d="M109 0q-25 0 -25 23v53q0 16 10 28l586 826v12h-549q-22 0 -22 23v36q0 23 22 23h621q22 0 22 -23v-61q0 -12 -10 -25l-582 -821v-12h570q22 0 22 -23v-36q0 -23 -24 -23h-641zM391 1356v53q0 15 6 20t21 5h53q15 0 20 -5t5 -20v-53q0 -15 -5 -21t-20 -6h-53q-15 0 -21 6
t-6 21z" />
    <glyph glyph-name="Zcaron" unicode="&#x17d;" horiz-adv-x="1060" 
d="M133 0q-29 0 -29 27v57q0 20 15 49l737 1198v15h-704q-29 0 -29 26v37q0 14 6.5 19.5t22.5 5.5h776q15 0 20.5 -5t5.5 -20v-59q0 -23 -14 -50l-735 -1198v-14h719q16 0 22 -5t6 -20v-36q0 -27 -28 -27h-791zM244 1812q-10 12 -6.5 21.5t18.5 9.5h43q27 0 47 -22l176 -201
h21l176 201q20 22 45 22h45q15 0 18 -9.5t-6 -21.5l-217 -247q-20 -25 -57 -25h-37q-17 0 -26 5t-23 20z" />
    <glyph glyph-name="zcaron" unicode="&#x17e;" horiz-adv-x="868" 
d="M109 0q-25 0 -25 23v53q0 16 10 28l586 826v12h-549q-22 0 -22 23v36q0 23 22 23h621q22 0 22 -23v-61q0 -12 -10 -25l-582 -821v-12h570q22 0 22 -23v-36q0 -23 -24 -23h-641zM156 1403q-10 12 -6.5 21.5t18.5 9.5h43q26 0 47 -23l176 -201h21l176 201q21 23 45 23h45
q15 0 18 -9.5t-6 -21.5l-217 -248q-20 -25 -57 -25h-37q-17 0 -26 5t-23 20z" />
    <glyph glyph-name="uni018F" unicode="&#x18f;" horiz-adv-x="1247" 
d="M578 -10q-433 0 -433 409v336q0 12 8.5 20.5t20.5 8.5h836v270q0 164 -82.5 243t-255.5 79h-105q-169 0 -249 -73.5t-80 -235.5q0 -17 -17 -17h-57q-8 0 -13.5 5t-5.5 12v10q0 198 104.5 292.5t321.5 94.5h99q432 0 432 -410v-635q0 -409 -432 -409h-92zM238 401
q0 -166 82 -244.5t255 -78.5h97q173 0 255.5 78.5t82.5 244.5v279h-772v-279z" />
    <glyph glyph-name="florin" unicode="&#x192;" horiz-adv-x="882" 
d="M115 -410q-31 0 -31 31v23q0 30 31 30h92q105 0 149.5 57.5t44.5 174.5v1036h-110q-23 0 -23 23v36q0 23 23 23h110v98q0 312 283 312h94q31 0 31 -31v-23q0 -30 -31 -30h-92q-105 0 -149.5 -57.5t-44.5 -174.5v-1216q0 -312 -283 -312h-94z" />
    <glyph glyph-name="Ohorn" unicode="&#x1a0;" 
d="M578 -10q-433 0 -433 409v635q0 410 433 410h360q102 0 102 102v49q0 12 7.5 19.5t19.5 7.5h31q26 0 26 -27v-55q0 -74 -39 -118t-108 -50q147 -99 147 -338v-635q0 -409 -432 -409h-114zM238 401q0 -166 81.5 -244.5t255.5 -78.5h119q173 0 255.5 78.5t82.5 244.5v633
q0 164 -82.5 243t-255.5 79h-119q-174 0 -255.5 -78.5t-81.5 -243.5v-633z" />
    <glyph glyph-name="ohorn" unicode="&#x1a1;" horiz-adv-x="1032" 
d="M471 -10q-169 0 -262.5 88t-93.5 254v360q0 164 93.5 252t262.5 88h270q103 0 103 103v49q0 26 26 26h23q27 0 27 -26v-56q0 -67 -31.5 -109t-89.5 -54q119 -86 119 -273v-360q0 -165 -94 -253.5t-261 -88.5h-92zM205 332q0 -124 65 -191t197 -67h98q132 0 198 67t66 191
v358q0 124 -66 191t-198 67h-98q-132 0 -197 -67t-65 -191v-358z" />
    <glyph glyph-name="Uhorn" unicode="&#x1af;" 
d="M578 -10q-433 0 -433 409v1010q0 15 6 20t21 5h41q15 0 20 -5t5 -20v-1008q0 -166 81.5 -244.5t255.5 -78.5h119q173 0 255.5 78.5t82.5 244.5v1008q0 15 5 20t20 5h35q102 0 102 102v59q0 12 7.5 19.5t19.5 7.5h30q12 0 19.5 -7.5t7.5 -19.5v-65q0 -77 -40.5 -120
t-113.5 -48v-963q0 -409 -432 -409h-114z" />
    <glyph glyph-name="uhorn" unicode="&#x1b0;" horiz-adv-x="1073" 
d="M475 -8q-175 0 -257.5 85.5t-82.5 260.5v663q0 23 25 23h41q24 0 24 -23v-659q0 -132 64 -199t203 -67h69q138 0 213.5 70t75.5 194v661q0 23 22 23h35q105 0 105 104v58q0 10 7 17t17 7h25q11 0 17.5 -7t6.5 -17v-66q0 -76 -38 -119t-109 -49v-929q0 -23 -23 -23h-43
q-22 0 -22 23v96h-19q-43 -59 -114.5 -93t-165.5 -34h-76z" />
    <glyph glyph-name="uni01CD" unicode="&#x1cd;" horiz-adv-x="1187" 
d="M643 1434q25 0 35 -33l424 -1370q8 -31 -23 -31h-41q-15 0 -21 6.5t-11 24.5l-88 286h-648l-88 -286q-5 -18 -11 -24.5t-21 -6.5h-41q-31 0 -23 31l424 1370q10 33 37 33h96zM297 401h594l-287 930h-18zM305 1812q-10 12 -6.5 21.5t18.5 9.5h43q28 0 48 -22l176 -201h20
l176 201q20 22 45 22h45q15 0 18.5 -9.5t-5.5 -21.5l-217 -247q-20 -25 -58 -25h-37q-17 0 -26 5t-23 20z" />
    <glyph glyph-name="uni01CE" unicode="&#x1ce;" horiz-adv-x="1044" 
d="M844 0q-25 0 -25 23v143h-16q-61 -80 -154 -128t-211 -48h-8q-326 0 -326 301v45q0 258 314 258h401v98q0 65 -12.5 109t-43.5 78t-89 50.5t-146 16.5q-187 0 -297 -39q-7 -3 -13.5 1t-8.5 12l-8 45q-3 17 10 20q115 47 309 47h35q185 0 269.5 -82.5t84.5 -251.5v-675
q0 -23 -24 -23h-41zM195 297q0 -115 57 -168t174 -53h59q131 0 232.5 87.5t101.5 194.5v156h-395q-115 0 -172 -41.5t-57 -142.5v-33zM256 1403q-10 12 -6.5 21.5t18.5 9.5h43q26 0 47 -23l177 -201h20l176 201q21 23 45 23h45q15 0 18.5 -9.5t-5.5 -21.5l-218 -248
q-20 -25 -57 -25h-37q-17 0 -26 5t-23 20z" />
    <glyph glyph-name="uni01CF" unicode="&#x1cf;" horiz-adv-x="385" 
d="M172 0q-15 0 -21 6t-6 21v1382q0 15 6 20t21 5h41q15 0 20 -5t5 -20v-1382q0 -15 -5 -21t-20 -6h-41zM-96 1812q-10 12 -6.5 21.5t18.5 9.5h43q27 0 47 -22l176 -201h21l176 201q20 22 45 22h45q15 0 18 -9.5t-6 -21.5l-217 -247q-20 -25 -57 -25h-37q-17 0 -26 5t-23 20
z" />
    <glyph glyph-name="uni01D0" unicode="&#x1d0;" horiz-adv-x="313" 
d="M135 0q-22 0 -22 23v978q0 23 22 23h43q23 0 23 -23v-978q0 -23 -23 -23h-43zM-131 1403q-10 12 -6.5 21.5t18.5 9.5h43q26 0 47 -23l176 -201h21l176 201q21 23 45 23h45q15 0 18 -9.5t-6 -21.5l-217 -248q-20 -25 -57 -25h-37q-17 0 -26 5t-23 20z" />
    <glyph glyph-name="uni01D1" unicode="&#x1d1;" 
d="M578 -10q-433 0 -433 409v635q0 410 433 410h114q432 0 432 -410v-635q0 -409 -432 -409h-114zM238 401q0 -166 81.5 -244.5t255.5 -78.5h119q173 0 255.5 78.5t82.5 244.5v633q0 164 -82.5 243t-255.5 79h-119q-174 0 -255.5 -78.5t-81.5 -243.5v-633zM348 1812
q-10 12 -6.5 21.5t18.5 9.5h43q28 0 48 -22l176 -201h20l176 201q20 22 45 22h45q15 0 18.5 -9.5t-5.5 -21.5l-217 -247q-20 -25 -58 -25h-37q-17 0 -26 5t-23 20z" />
    <glyph glyph-name="uni01D2" unicode="&#x1d2;" horiz-adv-x="1032" 
d="M471 -10q-169 0 -262.5 88t-93.5 254v360q0 164 93.5 252t262.5 88h92q168 0 261.5 -88t93.5 -252v-360q0 -165 -94 -253.5t-261 -88.5h-92zM205 332q0 -124 65 -191t197 -67h98q132 0 198 67t66 191v358q0 124 -66 191t-198 67h-98q-132 0 -197 -67t-65 -191v-358z
M227 1403q-10 12 -6 21.5t19 9.5h43q26 0 47 -23l176 -201h20l176 201q21 23 46 23h45q15 0 18 -9.5t-6 -21.5l-217 -248q-20 -25 -58 -25h-36q-28 0 -50 25z" />
    <glyph glyph-name="uni01D3" unicode="&#x1d3;" 
d="M578 -10q-433 0 -433 409v1010q0 15 6 20t21 5h41q15 0 20 -5t5 -20v-1008q0 -166 81.5 -244.5t255.5 -78.5h119q173 0 255.5 78.5t82.5 244.5v1008q0 15 5 20t20 5h41q15 0 20.5 -5t5.5 -20v-1010q0 -409 -432 -409h-114zM348 1812q-10 12 -6.5 21.5t18.5 9.5h43
q28 0 48 -22l176 -201h20l176 201q20 22 45 22h45q15 0 18.5 -9.5t-5.5 -21.5l-217 -247q-20 -25 -58 -25h-37q-17 0 -26 5t-23 20z" />
    <glyph glyph-name="uni01D4" unicode="&#x1d4;" horiz-adv-x="1073" 
d="M475 -8q-175 0 -257.5 85.5t-82.5 260.5v663q0 23 25 23h41q24 0 24 -23v-659q0 -132 64 -199t203 -67h69q138 0 213.5 70t75.5 194v661q0 23 22 23h43q23 0 23 -23v-978q0 -23 -23 -23h-43q-22 0 -22 23v96h-19q-43 -59 -114.5 -93t-165.5 -34h-76zM219 1403
q-10 12 -6.5 21.5t18.5 9.5h43q27 0 48 -23l176 -201h20l176 201q21 23 45 23h45q15 0 18.5 -9.5t-5.5 -21.5l-217 -248q-20 -25 -58 -25h-37q-17 0 -26 5t-23 20z" />
    <glyph glyph-name="uni01D5" unicode="&#x1d5;" 
d="M578 -10q-433 0 -433 409v1010q0 15 6 20t21 5h41q15 0 20 -5t5 -20v-1008q0 -166 81.5 -244.5t255.5 -78.5h119q173 0 255.5 78.5t82.5 244.5v1008q0 15 5 20t20 5h41q15 0 20.5 -5t5.5 -20v-1010q0 -409 -432 -409h-114zM274 2144v35q0 29 29 29h668q28 0 28 -29v-35
q0 -28 -28 -28h-668q-29 0 -29 28zM326 1765v54q0 15 5.5 19.5t20.5 4.5h54q15 0 19.5 -4.5t4.5 -19.5v-54q0 -15 -4.5 -20.5t-19.5 -5.5h-54q-15 0 -20.5 5.5t-5.5 20.5zM842 1765v54q0 15 5.5 19.5t20.5 4.5h54q15 0 19.5 -4.5t4.5 -19.5v-54q0 -15 -4.5 -20.5t-19.5 -5.5
h-54q-15 0 -20.5 5.5t-5.5 20.5z" />
    <glyph glyph-name="uni01D6" unicode="&#x1d6;" horiz-adv-x="1073" 
d="M475 -8q-175 0 -257.5 85.5t-82.5 260.5v663q0 23 25 23h41q24 0 24 -23v-659q0 -132 64 -199t203 -67h69q138 0 213.5 70t75.5 194v661q0 23 22 23h43q23 0 23 -23v-978q0 -23 -23 -23h-43q-22 0 -22 23v96h-19q-43 -59 -114.5 -93t-165.5 -34h-76zM145 1735v34
q0 29 29 29h668q28 0 28 -29v-34q0 -29 -28 -29h-668q-29 0 -29 29zM199 1356v53q0 15 5.5 20t20.5 5h54q15 0 19.5 -5t4.5 -20v-53q0 -16 -4.5 -21.5t-19.5 -5.5h-54q-15 0 -20.5 6t-5.5 21zM715 1356v53q0 15 5.5 20t20.5 5h54q15 0 19.5 -5t4.5 -20v-53q0 -16 -4.5 -21.5
t-19.5 -5.5h-54q-15 0 -20.5 6t-5.5 21z" />
    <glyph glyph-name="uni01D7" unicode="&#x1d7;" 
d="M578 -10q-433 0 -433 409v1010q0 15 6 20t21 5h41q15 0 20 -5t5 -20v-1008q0 -166 81.5 -244.5t255.5 -78.5h119q173 0 255.5 78.5t82.5 244.5v1008q0 15 5 20t20 5h41q15 0 20.5 -5t5.5 -20v-1010q0 -409 -432 -409h-114zM326 1765v54q0 15 5.5 19.5t20.5 4.5h54
q15 0 19.5 -4.5t4.5 -19.5v-54q0 -15 -4.5 -20.5t-19.5 -5.5h-54q-15 0 -20.5 5.5t-5.5 20.5zM594 1935l156 236q21 37 45 37h51q18 0 24.5 -10t-4.5 -27l-170 -236q-26 -37 -51 -37h-31q-16 0 -22.5 10t2.5 27zM842 1765v54q0 15 5.5 19.5t20.5 4.5h54q15 0 19.5 -4.5
t4.5 -19.5v-54q0 -15 -4.5 -20.5t-19.5 -5.5h-54q-15 0 -20.5 5.5t-5.5 20.5z" />
    <glyph glyph-name="uni01D8" unicode="&#x1d8;" horiz-adv-x="1073" 
d="M475 -8q-175 0 -257.5 85.5t-82.5 260.5v663q0 23 25 23h41q24 0 24 -23v-659q0 -132 64 -199t203 -67h69q138 0 213.5 70t75.5 194v661q0 23 22 23h43q23 0 23 -23v-978q0 -23 -23 -23h-43q-22 0 -22 23v96h-19q-43 -59 -114.5 -93t-165.5 -34h-76zM199 1356v53
q0 15 5.5 20t20.5 5h54q15 0 19.5 -5t4.5 -20v-53q0 -16 -4.5 -21.5t-19.5 -5.5h-54q-15 0 -20.5 6t-5.5 21zM465 1526l156 235q21 37 45 37h51q18 0 24.5 -10t-4.5 -27l-170 -235q-26 -37 -51 -37h-31q-16 0 -22.5 10t2.5 27zM715 1356v53q0 15 5.5 20t20.5 5h54
q15 0 19.5 -5t4.5 -20v-53q0 -16 -4.5 -21.5t-19.5 -5.5h-54q-15 0 -20.5 6t-5.5 21z" />
    <glyph glyph-name="uni01D9" unicode="&#x1d9;" 
d="M578 -10q-433 0 -433 409v1010q0 15 6 20t21 5h41q15 0 20 -5t5 -20v-1008q0 -166 81.5 -244.5t255.5 -78.5h119q173 0 255.5 78.5t82.5 244.5v1008q0 15 5 20t20 5h41q15 0 20.5 -5t5.5 -20v-1010q0 -409 -432 -409h-114zM326 1765v54q0 15 5.5 19.5t20.5 4.5h54
q15 0 19.5 -4.5t4.5 -19.5v-54q0 -15 -4.5 -20.5t-19.5 -5.5h-54q-15 0 -20.5 5.5t-5.5 20.5zM348 2177q-10 12 -6.5 21.5t18.5 9.5h43q27 0 48 -23l176 -200h20l176 200q21 23 45 23h45q15 0 18.5 -9.5t-5.5 -21.5l-217 -248q-19 -24 -58 -24h-37q-17 0 -26 4.5t-23 19.5z
M842 1765v54q0 15 5.5 19.5t20.5 4.5h54q15 0 19.5 -4.5t4.5 -19.5v-54q0 -15 -4.5 -20.5t-19.5 -5.5h-54q-15 0 -20.5 5.5t-5.5 20.5z" />
    <glyph glyph-name="uni01DA" unicode="&#x1da;" horiz-adv-x="1073" 
d="M475 -8q-175 0 -257.5 85.5t-82.5 260.5v663q0 23 25 23h41q24 0 24 -23v-659q0 -132 64 -199t203 -67h69q138 0 213.5 70t75.5 194v661q0 23 22 23h43q23 0 23 -23v-978q0 -23 -23 -23h-43q-22 0 -22 23v96h-19q-43 -59 -114.5 -93t-165.5 -34h-76zM199 1356v53
q0 15 5.5 20t20.5 5h54q15 0 19.5 -5t4.5 -20v-53q0 -16 -4.5 -21.5t-19.5 -5.5h-54q-15 0 -20.5 6t-5.5 21zM219 1767q-10 12 -6.5 21.5t18.5 9.5h43q28 0 48 -22l176 -201h20l176 201q20 22 45 22h45q15 0 18.5 -9.5t-5.5 -21.5l-217 -247q-20 -25 -58 -25h-37
q-17 0 -26 5t-23 20zM715 1356v53q0 15 5.5 20t20.5 5h54q15 0 19.5 -5t4.5 -20v-53q0 -16 -4.5 -21.5t-19.5 -5.5h-54q-15 0 -20.5 6t-5.5 21z" />
    <glyph glyph-name="uni01DB" unicode="&#x1db;" 
d="M578 -10q-433 0 -433 409v1010q0 15 6 20t21 5h41q15 0 20 -5t5 -20v-1008q0 -166 81.5 -244.5t255.5 -78.5h119q173 0 255.5 78.5t82.5 244.5v1008q0 15 5 20t20 5h41q15 0 20.5 -5t5.5 -20v-1010q0 -409 -432 -409h-114zM326 1765v54q0 15 5.5 19.5t20.5 4.5h54
q15 0 19.5 -4.5t4.5 -19.5v-54q0 -15 -4.5 -20.5t-19.5 -5.5h-54q-15 0 -20.5 5.5t-5.5 20.5zM406 2171q-11 17 -5.5 27t23.5 10h51q18 0 28 -8.5t21 -28.5l154 -236q10 -17 3 -27t-24 -10h-30q-26 0 -52 37zM842 1765v54q0 15 5.5 19.5t20.5 4.5h54q15 0 19.5 -4.5
t4.5 -19.5v-54q0 -15 -4.5 -20.5t-19.5 -5.5h-54q-15 0 -20.5 5.5t-5.5 20.5z" />
    <glyph glyph-name="uni01DC" unicode="&#x1dc;" horiz-adv-x="1073" 
d="M475 -8q-175 0 -257.5 85.5t-82.5 260.5v663q0 23 25 23h41q24 0 24 -23v-659q0 -132 64 -199t203 -67h69q138 0 213.5 70t75.5 194v661q0 23 22 23h43q23 0 23 -23v-978q0 -23 -23 -23h-43q-22 0 -22 23v96h-19q-43 -59 -114.5 -93t-165.5 -34h-76zM199 1356v53
q0 15 5.5 20t20.5 5h54q15 0 19.5 -5t4.5 -20v-53q0 -16 -4.5 -21.5t-19.5 -5.5h-54q-15 0 -20.5 6t-5.5 21zM276 1761q-11 17 -5 27t24 10h51q18 0 28 -8.5t21 -28.5l154 -235q10 -17 3 -27t-24 -10h-30q-26 0 -52 37zM715 1356v53q0 15 5.5 20t20.5 5h54q15 0 19.5 -5
t4.5 -20v-53q0 -16 -4.5 -21.5t-19.5 -5.5h-54q-15 0 -20.5 6t-5.5 21z" />
    <glyph glyph-name="Gcaron" unicode="&#x1e6;" horiz-adv-x="1247" 
d="M578 -10q-433 0 -433 409v635q0 410 433 410h98q217 0 320.5 -94.5t103.5 -292.5v-10q0 -7 -5.5 -12t-13.5 -5h-57q-16 0 -16 17q0 163 -79.5 236t-248.5 73h-105q-173 0 -255 -78.5t-82 -243.5v-633q0 -166 82 -244.5t255 -78.5h97q173 0 255.5 78.5t82.5 244.5v279
h-324q-15 0 -21 5t-6 20v34q0 15 6 20t21 5h387q12 0 20.5 -8.5t8.5 -20.5v-336q0 -409 -432 -409h-92zM338 1812q-10 12 -6.5 21.5t18.5 9.5h43q27 0 47 -22l176 -201h21l176 201q20 22 45 22h45q15 0 18 -9.5t-6 -21.5l-217 -247q-20 -25 -57 -25h-37q-17 0 -26 5t-23 20z
" />
    <glyph glyph-name="gcaron" unicode="&#x1e7;" horiz-adv-x="1042" 
d="M496 -379q-90 0 -166 6q-39 6 -39 27v37q0 10 7 15t17 3q72 -6 197 -6q78 0 132.5 11t98 38t65 78t21.5 127v164h-16q-36 -62 -103.5 -96.5t-160.5 -34.5h-82q-170 0 -261 87.5t-91 258.5v350q0 171 91 258.5t261 87.5h82q190 0 264 -129h16v96q0 25 23 25h43
q23 0 23 -25v-1042q0 -185 -99.5 -260.5t-322.5 -75.5zM205 342q0 -268 270 -268h88q129 0 197.5 69.5t68.5 192.5v350q0 123 -68.5 192.5t-197.5 69.5h-88q-270 0 -270 -266v-340zM246 1403q-10 12 -6.5 21.5t18.5 9.5h43q26 0 47 -23l176 -201h21l176 201q21 23 45 23h45
q15 0 18 -9.5t-6 -21.5l-217 -248q-20 -25 -57 -25h-37q-17 0 -26 5t-23 20z" />
    <glyph glyph-name="uni0218" unicode="&#x218;" horiz-adv-x="1165" 
d="M549 -10q-212 0 -323 82.5t-111 271.5q0 13 8 21t20 8h37q12 0 20 -8t7 -21q-1 -140 85.5 -203t252.5 -63h98q160 0 237.5 67t77.5 217q0 47 -9 85.5t-23.5 66.5t-40.5 51t-51.5 38t-64 28.5t-72 22t-81.5 18.5l-79 18q-47 10 -74.5 16t-68 17.5t-64.5 22t-55 28
t-49.5 37t-38.5 47.5t-30 61.5t-17 76.5t-7 94q0 191 109 272.5t311 81.5h61q406 0 406 -367q0 -26 -29 -26h-35q-28 0 -28 26q1 149 -77 214t-235 65h-65q-165 0 -245.5 -60t-80.5 -209q0 -36 3.5 -66.5t13 -55t18 -44.5t26 -36.5t30.5 -28.5t37.5 -23t40.5 -17.5t46 -14.5
t47.5 -12t51.5 -11l79 -16q49 -11 80 -18t73 -19.5t69 -24t59.5 -29.5t52.5 -37.5t41 -47.5t32.5 -60t18.5 -73.5t7 -90.5q0 -191 -107.5 -281.5t-302.5 -90.5h-92zM461 -463v27q0 15 5.5 20.5t20.5 5.5h52v260q0 15 5.5 21t20.5 6h31q15 0 21 -6t6 -21v-294q0 -23 -10 -33
t-33 -10h-93q-15 0 -20.5 4.5t-5.5 19.5z" />
    <glyph glyph-name="uni0219" unicode="&#x219;" horiz-adv-x="966" 
d="M436 -10q-155 0 -243.5 63t-88.5 187q0 26 27 26h39q22 0 25 -26q8 -86 64.5 -127t170.5 -41h88q120 0 188 46t68 158q0 34 -9 61t-21 45.5t-37 33.5t-45 23.5t-58 16t-62.5 10.5t-70.5 9l-27 2q-63 6 -109 16.5t-89.5 31t-71 51t-43.5 77.5t-16 109q0 270 334 270h59
q154 0 243 -69t89 -205q0 -29 -23 -29h-39q-13 0 -18.5 7t-7.5 24q-8 99 -65.5 144.5t-176.5 45.5h-57q-126 0 -188 -43t-62 -147q0 -56 17.5 -94t56 -60.5t84 -34t116.5 -18.5l29 -2q69 -8 116 -17t96 -28.5t78 -47.5t47.5 -74.5t18.5 -109.5q0 -284 -344 -284h-82z
M358 -463v27q0 15 6 20.5t21 5.5h51v260q0 15 6 21t21 6h31q15 0 20.5 -6t5.5 -21v-294q0 -23 -10 -33t-33 -10h-92q-16 0 -21.5 4.5t-5.5 19.5z" />
    <glyph glyph-name="uni021A" unicode="&#x21a;" horiz-adv-x="1075" 
d="M518 0q-15 0 -19.5 5.5t-4.5 21.5v1319h-361q-29 0 -29 26v37q0 14 6.5 19.5t22.5 5.5h809q16 0 22.5 -5.5t6.5 -19.5v-37q0 -26 -29 -26h-356v-1319q0 -15 -6 -21t-21 -6h-41zM416 -463v27q0 15 5.5 20.5t20.5 5.5h52v260q0 15 5.5 21t20.5 6h31q15 0 21 -6t6 -21v-294
q0 -23 -10 -33t-33 -10h-93q-15 0 -20.5 4.5t-5.5 19.5z" />
    <glyph glyph-name="uni021B" unicode="&#x21b;" horiz-adv-x="598" 
d="M428 -10q-97 0 -144.5 54t-47.5 175v723h-140q-22 0 -22 23v36q0 23 22 23h140v188q0 23 22 23h43q23 0 23 -23v-188h155q12 0 17.5 -5t5.5 -18v-36q0 -13 -5.5 -18t-17.5 -5h-155v-704q0 -95 30.5 -129.5t108.5 -34.5q31 0 31 -25v-33q0 -26 -66 -26zM238 -463v27
q0 15 5.5 20.5t20.5 5.5h51v260q0 15 6 21t21 6h31q15 0 20.5 -6t5.5 -21v-294q0 -23 -10 -33t-33 -10h-92q-15 0 -20.5 4.5t-5.5 19.5z" />
    <glyph glyph-name="uni0228" unicode="&#x228;" horiz-adv-x="1060" 
d="M174 0q-29 0 -29 27v1382q0 14 6.5 19.5t22.5 5.5h770q16 0 22.5 -5.5t6.5 -19.5v-37q0 -26 -29 -26h-706v-582h647q15 0 21.5 -5t6.5 -20v-34q0 -15 -6.5 -20t-21.5 -5h-647v-592h710q15 0 21 -5t6 -20v-36q0 -15 -6 -21t-21 -6h-344q-129 -121 -26 -123h65
q36 0 61.5 -5.5t49 -20t35.5 -44.5t12 -75q0 -72 -40 -106t-134 -34h-76q-96 0 -136 38t-40 116q0 25 22 25h37q8 0 14.5 -5t6.5 -12q-2 -48 23.5 -69t90.5 -21h41q61 0 85 16.5t24 55.5t-23 56.5t-75 17.5h-107q-34 0 -56 18t-22 51q0 48 76 121h-338z" />
    <glyph glyph-name="uni0229" unicode="&#x229;" horiz-adv-x="1030" 
d="M537 -408q-96 0 -136.5 38t-40.5 116q0 25 23 25h37q8 0 14 -5t6 -12q-2 -48 24 -69t91 -21h41q61 0 85 16.5t24 55.5t-23.5 56.5t-75.5 17.5h-106q-34 0 -56 18t-22 51q0 46 65 111q-184 4 -278 94.5t-94 251.5v350q0 164 94 255t258 91h94q168 0 260 -87.5t92 -252.5
v-155q0 -29 -17 -46.5t-46 -17.5h-645v-135q0 -124 74.5 -196t226.5 -72h20q180 0 295 84q16 13 25 0l24 -31q6 -6 5.5 -13t-5.5 -10q-39 -40 -114 -70.5t-174 -37.5q-123 -115 -19 -115h66q75 0 116 -29.5t41 -115.5q0 -72 -40 -106t-134 -34h-75zM205 549h620v141
q0 258 -264 258h-94q-129 0 -195.5 -70t-66.5 -194v-135z" />
    <glyph glyph-name="uni0237" unicode="&#x237;" horiz-adv-x="352" 
d="M25 -371q-66 0 -66 27v33q0 24 31 24q78 0 108.5 34.5t30.5 129.5v1124q0 23 23 23h43q22 0 22 -23v-1142q0 -121 -47.5 -175.5t-144.5 -54.5z" />
    <glyph glyph-name="uni0259" unicode="&#x259;" horiz-adv-x="1030" 
d="M467 -10q-167 0 -259.5 88t-92.5 254v155q0 28 18 45t47 17h645v135q0 125 -74.5 196.5t-228.5 71.5h-20q-178 0 -293 -84q-16 -13 -25 0l-24 31q-12 13 0 25q45 45 135.5 76.5t212.5 31.5h18q191 0 289 -90.5t98 -255.5v-350q0 -164 -94 -255t-258 -91h-94zM205 334
q0 -260 262 -260h94q131 0 197.5 69.5t66.5 194.5v135h-620v-139z" />
    <glyph glyph-name="circumflex" unicode="&#x2c6;" horiz-adv-x="829" 
d="M123 1130q-15 0 -18.5 9.5t6.5 21.5l217 246q15 16 24 21.5t25 5.5h37q38 0 57 -27l217 -246q9 -12 6 -21.5t-18 -9.5h-45q-11 0 -16 1t-12.5 6t-16.5 16l-176 201h-21l-176 -201q-12 -16 -21.5 -19.5t-25.5 -3.5h-43z" />
    <glyph glyph-name="caron" unicode="&#x2c7;" horiz-adv-x="798" 
d="M377 1130q-17 0 -26 5t-23 20l-217 248q-10 12 -6.5 21.5t18.5 9.5h43q26 0 47 -23l176 -201h21l176 201q21 23 45 23h45q15 0 18 -9.5t-6 -21.5l-217 -248q-20 -25 -57 -25h-37z" />
    <glyph glyph-name="breve" unicode="&#x2d8;" horiz-adv-x="735" 
d="M332 1171q-230 0 -230 236q0 27 27 27h31q27 0 24 -27q2 -75 40 -118.5t108 -43.5h71q71 0 108.5 43.5t37.5 118.5q0 27 26 27h31q27 0 27 -27q0 -120 -57.5 -178t-174.5 -58h-69z" />
    <glyph glyph-name="dotaccent" unicode="&#x2d9;" horiz-adv-x="309" 
d="M129 1329q-15 0 -21 6t-6 21v53q0 15 6 20t21 5h53q15 0 20 -5t5 -20v-53q0 -15 -5 -21t-20 -6h-53z" />
    <glyph glyph-name="ring" unicode="&#x2da;" horiz-adv-x="573" 
d="M274 1104q-74 0 -123 48.5t-49 119.5v24q0 71 49 119.5t123 48.5h25q74 0 123 -48.5t49 -119.5v-24q0 -71 -49 -119.5t-123 -48.5h-25zM178 1276q0 -45 27 -71.5t74 -26.5h16q47 0 73.5 26.5t26.5 71.5v16q0 45 -26.5 72t-73.5 27h-16q-47 0 -74 -27t-27 -72v-16z" />
    <glyph glyph-name="ogonek" unicode="&#x2db;" horiz-adv-x="620" 
d="M279 -412q-102 0 -139.5 33t-37.5 117q0 35 6.5 58t16.5 37t34.5 22.5t47 12.5t67.5 9l93 10q41 4 52 18t11 46v90h88v-90q0 -66 -17 -91.5t-67 -29.5l-190 -25q-34 -3 -46 -14t-12 -51q0 -48 21 -65t84 -17h186q21 0 21 -18v-31q0 -21 -21 -21h-198z" />
    <glyph glyph-name="tilde" unicode="&#x2dc;" horiz-adv-x="860" 
d="M584 1262q-44 0 -87 16t-73 35t-72 35t-84 16q-53 0 -116 -39q-21 -13 -29 8l-19 31q-9 16 15 31q81 49 160 49q44 0 86.5 -16t72 -35.5t71 -35.5t83.5 -16q60 0 117 39q22 14 30 -8l17 -31q10 -16 -13 -30q-81 -49 -159 -49z" />
    <glyph glyph-name="hungarumlaut" unicode="&#x2dd;" horiz-adv-x="737" 
d="M365 1124q-16 0 -23 10t2 27l156 236q21 37 45 37h51q18 0 24.5 -10t-4.5 -27l-170 -236q-26 -37 -51 -37h-30zM109 1161l155 236q21 37 45 37h51q18 0 25 -10t-4 -27l-170 -236q-26 -37 -51 -37h-31q-16 0 -22.5 10t2.5 27z" />
    <glyph glyph-name="gravecomb" unicode="&#x300;" horiz-adv-x="0" 
d="M342 1124q-25 0 -51 37l-170 236q-11 17 -5.5 27t23.5 10h51q18 0 28.5 -8.5t21.5 -28.5l153 -236q10 -17 3.5 -27t-23.5 -10h-31z" />
    <glyph glyph-name="acutecomb" unicode="&#x301;" horiz-adv-x="0" 
d="M129 1124q-16 0 -22.5 10t2.5 27l155 236q21 37 45 37h51q18 0 25 -10t-4 -27l-170 -236q-26 -37 -51 -37h-31z" />
    <glyph glyph-name="uni0302" unicode="&#x302;" horiz-adv-x="0" 
d="M123 1130q-15 0 -18.5 9.5t6.5 21.5l217 246q15 16 24 21.5t25 5.5h37q38 0 57 -27l217 -246q9 -12 6 -21.5t-18 -9.5h-45q-11 0 -16 1t-12.5 6t-16.5 16l-176 201h-21l-176 -201q-12 -16 -21.5 -19.5t-25.5 -3.5h-43z" />
    <glyph glyph-name="tildecomb" unicode="&#x303;" horiz-adv-x="0" 
d="M584 1262q-44 0 -87 16t-73 35t-72 35t-84 16q-53 0 -116 -39q-21 -13 -29 8l-19 31q-9 16 15 31q81 49 160 49q44 0 86.5 -16t72 -35.5t71 -35.5t83.5 -16q60 0 117 39q22 14 30 -8l17 -31q10 -16 -13 -30q-81 -49 -159 -49z" />
    <glyph glyph-name="uni0304" unicode="&#x304;" horiz-adv-x="0" 
d="M131 1341q-29 0 -29 29v35q0 29 29 29h668q28 0 28 -29v-35q0 -29 -28 -29h-668z" />
    <glyph glyph-name="uni0306" unicode="&#x306;" horiz-adv-x="0" 
d="M332 1171q-230 0 -230 236q0 27 27 27h31q27 0 24 -27q2 -75 40 -118.5t108 -43.5h71q71 0 108.5 43.5t37.5 118.5q0 27 26 27h31q27 0 27 -27q0 -120 -57.5 -178t-174.5 -58h-69z" />
    <glyph glyph-name="uni0307" unicode="&#x307;" horiz-adv-x="0" 
d="M129 1329q-15 0 -21 6t-6 21v53q0 15 6 20t21 5h53q15 0 20 -5t5 -20v-53q0 -15 -5 -21t-20 -6h-53z" />
    <glyph glyph-name="uni0308" unicode="&#x308;" horiz-adv-x="0" 
d="M645 1329q-15 0 -21 6t-6 21v53q0 15 6 20t21 5h53q15 0 20 -5t5 -20v-53q0 -15 -5 -21t-20 -6h-53zM102 1356v53q0 15 6 20t21 5h53q15 0 20 -5t5 -20v-53q0 -15 -5 -21t-20 -6h-53q-15 0 -21 6t-6 21z" />
    <glyph glyph-name="hookabovecomb" unicode="&#x309;" horiz-adv-x="0" 
d="M317 1145q-24 0 -24 26v21q0 11 7 18t17 7h27q102 0 102 104v43q0 51 -24.5 74.5t-77.5 23.5h-65q-51 0 -75 -23.5t-24 -74.5v-18q0 -27 -26 -27h-25q-12 0 -19.5 7.5t-7.5 19.5v26q0 81 44.5 123.5t123.5 42.5h84q79 0 123.5 -42.5t44.5 -123.5v-59q0 -81 -44.5 -124.5
t-123.5 -43.5h-37z" />
    <glyph glyph-name="uni030A" unicode="&#x30a;" horiz-adv-x="0" 
d="M274 1104q-74 0 -123 48.5t-49 119.5v24q0 71 49 119.5t123 48.5h25q74 0 123 -48.5t49 -119.5v-24q0 -71 -49 -119.5t-123 -48.5h-25zM178 1276q0 -45 27 -71.5t74 -26.5h16q47 0 73.5 26.5t26.5 71.5v16q0 45 -26.5 72t-73.5 27h-16q-47 0 -74 -27t-27 -72v-16z" />
    <glyph glyph-name="uni030B" unicode="&#x30b;" horiz-adv-x="0" 
d="M365 1124q-16 0 -23 10t2 27l156 236q21 37 45 37h51q18 0 24.5 -10t-4.5 -27l-170 -236q-26 -37 -51 -37h-30zM109 1161l155 236q21 37 45 37h51q18 0 25 -10t-4 -27l-170 -236q-26 -37 -51 -37h-31q-16 0 -22.5 10t2.5 27z" />
    <glyph glyph-name="uni030C" unicode="&#x30c;" horiz-adv-x="0" 
d="M377 1130q-17 0 -26 5t-23 20l-217 248q-10 12 -6.5 21.5t18.5 9.5h43q26 0 47 -23l176 -201h21l176 201q21 23 45 23h45q15 0 18 -9.5t-6 -21.5l-217 -248q-20 -25 -57 -25h-37z" />
    <glyph glyph-name="uni031B" unicode="&#x31b;" horiz-adv-x="0" 
d="M102 1145v72h29q105 0 105 104v57q0 11 7 18t17 7h25q10 0 17 -7t7 -18v-65q0 -81 -44 -124.5t-124 -43.5h-39z" />
    <glyph glyph-name="dotbelowcomb" unicode="&#x323;" horiz-adv-x="0" 
d="M129 -362q-16 0 -21.5 4.5t-5.5 19.5v92q0 15 6 21t21 6h92q15 0 20 -6t5 -21v-92q0 -15 -5 -19.5t-20 -4.5h-92z" />
    <glyph glyph-name="uni0326" unicode="&#x326;" horiz-adv-x="0" 
d="M129 -487q-16 0 -21.5 4.5t-5.5 19.5v27q0 15 6 20.5t21 5.5h51v260q0 15 6 21t21 6h31q15 0 20.5 -6t5.5 -21v-294q0 -23 -10 -33t-33 -10h-92z" />
    <glyph glyph-name="uni0327" unicode="&#x327;" horiz-adv-x="0" 
d="M279 -408q-96 0 -136.5 38t-40.5 116q0 25 23 25h37q8 0 14 -5t6 -12q-2 -48 24 -69t91 -21h41q60 0 84 16.5t24 55.5t-23 56.5t-75 17.5h-106q-34 0 -56 18t-22 51q0 48 76 121h92q-136 -123 -27 -123h66q75 0 116 -29.5t41 -115.5q0 -72 -40 -106t-134 -34h-75z" />
    <glyph glyph-name="uni0328" unicode="&#x328;" horiz-adv-x="0" 
d="M279 -412q-102 0 -139.5 33t-37.5 117q0 35 6.5 58t16.5 37t34.5 22.5t47 12.5t67.5 9l93 10q41 4 52 18t11 46v90h88v-90q0 -66 -17 -91.5t-67 -29.5l-190 -25q-34 -3 -46 -14t-12 -51q0 -48 21 -65t84 -17h186q21 0 21 -18v-31q0 -21 -21 -21h-198z" />
    <glyph glyph-name="uni0394" unicode="&#x394;" horiz-adv-x="1206" 
d="M109 0q-34 0 -23 33l457 1427q10 33 39 33h45q29 0 39 -33l452 -1427q7 -16 -0.5 -24.5t-23.5 -8.5h-985zM205 98h794l-393 1241z" />
    <glyph glyph-name="uni03A9" unicode="&#x3a9;" horiz-adv-x="1255" 
d="M176 0q-31 0 -31 31v30q0 31 31 31h143q-85 44 -129.5 122t-44.5 181v692q0 200 111.5 312t292.5 112h158q181 0 291 -112t110 -312v-692q0 -103 -44.5 -181t-127.5 -122h141q31 0 31 -31v-30q0 -31 -31 -31h-366q-31 0 -31 31v26q0 31 31 31q75 0 143.5 37t115 112
t46.5 171v673q0 165 -84 251.5t-230 86.5h-149q-146 0 -230.5 -86.5t-84.5 -251.5v-673q0 -142 94.5 -231t210.5 -89q30 0 30 -31v-26q0 -31 -30 -31h-367z" />
    <glyph glyph-name="uni03BC" unicode="&#x3bc;" horiz-adv-x="1073" 
d="M166 -410q-31 0 -31 31v1380q0 23 25 23h41q24 0 24 -23v-659q0 -132 64 -199t203 -67h69q138 0 213.5 70t75.5 194v661q0 23 22 23h43q23 0 23 -23v-978q0 -23 -23 -23h-43q-22 0 -22 23v96h-21q-94 -127 -284 -127h-76q-169 0 -248 121v-492q0 -31 -31 -31h-24z" />
    <glyph glyph-name="pi" unicode="&#x3c0;" horiz-adv-x="1163" 
d="M227 0q-30 0 -30 31v901h-84q-31 0 -31 31v30q0 31 29 31h940q30 0 30 -31v-32q0 -29 -30 -29h-86v-901q0 -31 -31 -31h-31q-31 0 -31 31v901h-583v-901q0 -31 -31 -31h-31z" />
    <glyph glyph-name="uni0401" unicode="&#x401;" horiz-adv-x="1060" 
d="M174 0q-29 0 -29 27v1382q0 14 6.5 19.5t22.5 5.5h770q16 0 22.5 -5.5t6.5 -19.5v-37q0 -26 -29 -26h-706v-582h647q15 0 21.5 -5t6.5 -20v-34q0 -15 -6.5 -20t-21.5 -5h-647v-592h710q15 0 21 -5t6 -20v-36q0 -15 -6 -21t-21 -6h-774zM260 1765v54q0 15 5.5 19.5
t21.5 4.5h53q15 0 20 -4.5t5 -19.5v-54q0 -15 -5 -20.5t-20 -5.5h-53q-15 0 -21 5.5t-6 20.5zM776 1765v54q0 15 5.5 19.5t21.5 4.5h53q15 0 20 -4.5t5 -19.5v-54q0 -15 -5 -20.5t-20 -5.5h-53q-15 0 -21 5.5t-6 20.5z" />
    <glyph glyph-name="uni0403" unicode="&#x403;" horiz-adv-x="974" 
d="M172 0q-15 0 -21 6t-6 21v1382q0 15 6 20t21 5h694q15 0 21 -5t6 -20v-37q0 -15 -6 -20.5t-21 -5.5h-628v-1319q0 -15 -5 -21t-20 -6h-41zM477 1571l156 235q21 37 45 37h51q18 0 25 -10t-4 -27l-170 -235q-26 -37 -52 -37h-30q-16 0 -23 10t2 27z" />
    <glyph glyph-name="uni0404" unicode="&#x404;" horiz-adv-x="1226" 
d="M578 -10q-433 0 -433 409v635q0 410 433 410h98q217 0 321.5 -94.5t104.5 -292.5v-10q0 -7 -5.5 -12t-13.5 -5h-57q-16 0 -16 17q0 162 -80.5 235.5t-249.5 73.5h-105q-173 0 -255 -78.5t-82 -243.5v-272h297q28 0 28 -27v-37q0 -14 -6 -19t-22 -5h-297v-273
q0 -166 82 -244.5t255 -78.5h105q168 0 249 69.5t81 219.5q0 16 16 16h57q19 0 19 -16v-11q0 -185 -105 -275.5t-321 -90.5h-98z" />
    <glyph glyph-name="uni0406" unicode="&#x406;" horiz-adv-x="385" 
d="M172 0q-15 0 -21 6t-6 21v1382q0 15 6 20t21 5h41q15 0 20 -5t5 -20v-1382q0 -15 -5 -21t-20 -6h-41z" />
    <glyph glyph-name="uni0407" unicode="&#x407;" horiz-adv-x="385" 
d="M172 0q-15 0 -21 6t-6 21v1382q0 15 6 20t21 5h41q15 0 20 -5t5 -20v-1382q0 -15 -5 -21t-20 -6h-41zM-119 1765v54q0 15 5.5 19.5t21.5 4.5h53q15 0 20 -4.5t5 -19.5v-54q0 -15 -5 -20.5t-20 -5.5h-53q-15 0 -21 5.5t-6 20.5zM397 1765v54q0 15 5.5 19.5t21.5 4.5h53
q15 0 20 -4.5t5 -19.5v-54q0 -15 -5 -20.5t-20 -5.5h-53q-15 0 -21 5.5t-6 20.5z" />
    <glyph glyph-name="uni0408" unicode="&#x408;" horiz-adv-x="727" 
d="M123 -10q-16 0 -22.5 5t-6.5 21v37q0 14 6.5 19.5t22.5 5.5h29q173 0 255 78.5t82 244.5v1008q0 15 5 20t20 5h41q15 0 21 -5t6 -20v-1010q0 -409 -432 -409h-27z" />
    <glyph glyph-name="uni040C" unicode="&#x40c;" horiz-adv-x="1118" 
d="M172 0q-15 0 -21 6t-6 21v1382q0 15 6 20t21 5h41q15 0 20 -5t5 -20v-791l639 789q20 27 36 27h56q19 0 21.5 -11t-11.5 -30l-518 -633l567 -725q11 -12 6.5 -23.5t-22.5 -11.5h-43q-17 0 -27 6.5t-24 22.5l-515 661l-165 -203v-460q0 -15 -5 -21t-20 -6h-41zM498 1571
l155 235q21 37 45 37h52q18 0 24.5 -10t-4.5 -27l-170 -235q-26 -37 -51 -37h-31q-16 0 -22.5 10t2.5 27z" />
    <glyph glyph-name="uni040D" unicode="&#x40d;" horiz-adv-x="1204" 
d="M172 0q-15 0 -21 6t-6 21v1382q0 15 6 20t21 5h41q15 0 20 -5t5 -20v-1311h16l633 1313q14 23 37 23h108q15 0 20 -5t5 -20v-1382q0 -15 -5 -21t-20 -6h-41q-15 0 -20.5 6t-5.5 21v1310h-15l-635 -1314q-11 -23 -36 -23h-107zM381 1806q-11 17 -5.5 27t23.5 10h52
q18 0 28 -8.5t21 -28.5l153 -235q10 -17 3.5 -27t-23.5 -10h-31q-25 0 -51 37z" />
    <glyph glyph-name="uni040E" unicode="&#x40e;" horiz-adv-x="1138" 
d="M330 0q-29 0 -13 29l201 438l-430 938q-13 29 12 29h58q14 0 21.5 -6.5t15.5 -22.5l374 -825l377 825q6 12 9.5 17t9.5 8.5t16 3.5h57q29 0 13 -29l-629 -1376q-14 -29 -35 -29h-57zM311 1817q0 26 27 26h31q27 0 24 -26q2 -75 40 -118.5t108 -43.5h71q71 0 108.5 43.5
t37.5 118.5q0 26 26 26h31q27 0 27 -26q0 -120 -57.5 -178t-174.5 -58h-69q-230 0 -230 236z" />
    <glyph glyph-name="uni0410" unicode="&#x410;" horiz-adv-x="1187" 
d="M643 1434q25 0 35 -33l424 -1370q8 -31 -23 -31h-41q-15 0 -21 6.5t-11 24.5l-88 286h-648l-88 -286q-5 -18 -11 -24.5t-21 -6.5h-41q-31 0 -23 31l424 1370q10 33 37 33h96zM297 401h594l-287 930h-18z" />
    <glyph glyph-name="uni0411" unicode="&#x411;" horiz-adv-x="1163" 
d="M715 1434q15 0 21.5 -5t6.5 -20v-37q0 -15 -6.5 -20.5t-21.5 -5.5h-477v-359h391q219 0 318.5 -93.5t99.5 -303.5v-193q0 -210 -99.5 -303.5t-318.5 -93.5h-457q-15 0 -21 5t-6 20v1382q0 15 6 21t21 6h543zM238 88h393q173 0 248 71.5t75 237.5v193q0 165 -75 237
t-248 72h-393v-811z" />
    <glyph glyph-name="uni0412" unicode="&#x412;" horiz-adv-x="1187" 
d="M172 0q-15 0 -21 6t-6 21v1382q0 15 6 20t21 5h508q180 0 260 -83t80 -274q0 -123 -34.5 -199.5t-117.5 -111.5v-8q104 -35 154.5 -112.5t50.5 -215.5v-51q0 -203 -99.5 -291t-293.5 -88h-508zM238 88h446q158 0 227.5 64t69.5 225v53q0 160 -68.5 219.5t-228.5 59.5
h-446v-621zM238 791h446q132 0 188 63t56 205v28q0 141 -54.5 200t-189.5 59h-446v-555z" />
    <glyph glyph-name="uni0413" unicode="&#x413;" horiz-adv-x="974" 
d="M172 0q-15 0 -21 6t-6 21v1382q0 15 6 20t21 5h694q15 0 21 -5t6 -20v-37q0 -15 -6 -20.5t-21 -5.5h-628v-1319q0 -15 -5 -21t-20 -6h-41z" />
    <glyph glyph-name="uni0414" unicode="&#x414;" horiz-adv-x="1347" 
d="M133 0v-174q0 -15 -4.5 -20t-19.5 -5h-41q-15 0 -21 5t-6 20v231q0 31 31 31h30q31 0 59.5 23t56.5 75.5t44.5 156.5t16.5 247v813q0 31 30 31h844q31 0 31 -31v-1315h92q31 0 31 -31v-231q0 -15 -6 -20t-21 -5h-41q-15 0 -20 5t-5 20v174h-1081zM258 88h834v1258h-721
v-756q0 -395 -113 -502z" />
    <glyph glyph-name="uni0415" unicode="&#x415;" horiz-adv-x="1060" 
d="M174 0q-29 0 -29 27v1382q0 14 6.5 19.5t22.5 5.5h770q16 0 22.5 -5.5t6.5 -19.5v-37q0 -26 -29 -26h-706v-582h647q15 0 21.5 -5t6.5 -20v-34q0 -15 -6.5 -20t-21.5 -5h-647v-592h710q15 0 21 -5t6 -20v-36q0 -15 -6 -21t-21 -6h-774z" />
    <glyph glyph-name="uni0416" unicode="&#x416;" horiz-adv-x="1853" 
d="M141 1393q-15 19 -11.5 30t22.5 11h55q4 0 7.5 -1t6 -2t6 -4.5l5 -5t6.5 -7t6 -7.5l637 -786v788q0 15 5.5 20t20.5 5h41q15 0 20 -5t5 -20v-791l639 789q20 27 37 27h55q19 0 21.5 -11t-11.5 -30l-518 -633l567 -725q11 -12 6.5 -23.5t-22.5 -11.5h-43q-17 0 -27 6.5
t-24 22.5l-514 661l-166 -203v-460q0 -15 -5 -21t-20 -6h-41q-15 0 -20.5 6t-5.5 21v465l-164 200l-514 -663q-10 -11 -15.5 -16t-15 -9t-22.5 -4h-41q-18 0 -23.5 11.5t4.5 23.5l569 725z" />
    <glyph glyph-name="uni0417" unicode="&#x417;" horiz-adv-x="1148" 
d="M522 -10q-189 0 -298 89t-109 277v29q0 23 24 23h41q25 0 25 -23q0 -164 77.5 -235.5t243.5 -71.5h103q162 0 239.5 75.5t77.5 229.5q0 183 -97.5 255.5t-295.5 72.5h-111q-22 0 -22 22v37q0 23 22 23h111q189 0 272.5 61.5t83.5 208.5q0 154 -73.5 224.5t-237.5 70.5
h-55q-166 0 -244 -72t-78 -235q0 -25 -24 -25h-41q-25 0 -25 25v28q0 95 30 166t85 114t128.5 64t164.5 21h61q199 0 298 -92t99 -289q0 -134 -52.5 -201t-172.5 -104v-13q63 -17 107 -40t81 -63.5t55.5 -104.5t18.5 -154q0 -197 -103.5 -295t-299.5 -98h-109z" />
    <glyph glyph-name="uni0418" unicode="&#x418;" horiz-adv-x="1204" 
d="M172 0q-15 0 -21 6t-6 21v1382q0 15 6 20t21 5h41q15 0 20 -5t5 -20v-1311h16l633 1313q14 23 37 23h108q15 0 20 -5t5 -20v-1382q0 -15 -5 -21t-20 -6h-41q-15 0 -20.5 6t-5.5 21v1310h-15l-635 -1314q-11 -23 -36 -23h-107z" />
    <glyph glyph-name="uni0419" unicode="&#x419;" horiz-adv-x="1204" 
d="M172 0q-15 0 -21 6t-6 21v1382q0 15 6 20t21 5h41q15 0 20 -5t5 -20v-1311h16l633 1313q14 23 37 23h108q15 0 20 -5t5 -20v-1382q0 -15 -5 -21t-20 -6h-41q-15 0 -20.5 6t-5.5 21v1310h-15l-635 -1314q-11 -23 -36 -23h-107zM346 1817q0 26 27 26h30q28 0 25 -26
q2 -75 39.5 -118.5t107.5 -43.5h72q71 0 108.5 43.5t37.5 118.5q0 26 26 26h31q27 0 27 -26q0 -120 -57.5 -178t-174.5 -58h-70q-229 0 -229 236z" />
    <glyph glyph-name="uni041A" unicode="&#x41a;" horiz-adv-x="1118" 
d="M172 0q-15 0 -21 6t-6 21v1382q0 15 6 20t21 5h41q15 0 20 -5t5 -20v-791l639 789q20 27 36 27h56q19 0 21.5 -11t-11.5 -30l-518 -633l567 -725q11 -12 6.5 -23.5t-22.5 -11.5h-43q-17 0 -27 6.5t-24 22.5l-515 661l-165 -203v-460q0 -15 -5 -21t-20 -6h-41z" />
    <glyph glyph-name="uni041B" unicode="&#x41b;" horiz-adv-x="1282" 
d="M86 -8q-14 0 -19.5 5.5t-5.5 22.5v39q0 23 25 23q62 0 106 36.5t44 119.5v1165q0 31 30 31h840q31 0 31 -31v-1376q0 -15 -6 -21t-21 -6h-41q-15 0 -20 6t-5 21v1319h-716v-1110q0 -65 -19 -114t-51 -76t-69 -40.5t-78 -13.5h-25z" />
    <glyph glyph-name="uni041C" unicode="&#x41c;" horiz-adv-x="1468" 
d="M172 0q-15 0 -21 6t-6 21v1382q0 15 6 20t21 5h117q28 0 37 -31l401 -1307h14l402 1307q12 31 37 31h116q15 0 21 -5t6 -20v-1382q0 -15 -6 -21t-21 -6h-41q-15 0 -19.5 5.5t-4.5 21.5v1310h-17l-403 -1306q-9 -31 -39 -31h-76q-27 0 -39 31l-403 1306h-16v-1310
q0 -15 -5 -21t-20 -6h-41z" />
    <glyph glyph-name="uni041D" unicode="&#x41d;" horiz-adv-x="1239" 
d="M1028 0q-15 0 -21 6t-6 21v653h-763v-653q0 -15 -5 -21t-20 -6h-41q-15 0 -21 6t-6 21v1382q0 15 6 20t21 5h41q15 0 20 -5t5 -20v-645h763v645q0 15 6 20t21 5h39q15 0 21 -5t6 -20v-1382q0 -15 -6 -21t-21 -6h-39z" />
    <glyph glyph-name="uni041E" unicode="&#x41e;" 
d="M578 -10q-433 0 -433 409v635q0 410 433 410h114q432 0 432 -410v-635q0 -409 -432 -409h-114zM238 401q0 -166 81.5 -244.5t255.5 -78.5h119q173 0 255.5 78.5t82.5 244.5v633q0 164 -82.5 243t-255.5 79h-119q-174 0 -255.5 -78.5t-81.5 -243.5v-633z" />
    <glyph glyph-name="uni041F" unicode="&#x41f;" horiz-adv-x="1193" 
d="M172 0q-15 0 -21 6t-6 21v1376q0 31 31 31h840q31 0 31 -31v-1376q0 -15 -5 -21t-20 -6h-41q-15 0 -21 6t-6 21v1319h-716v-1319q0 -15 -5 -21t-20 -6h-41z" />
    <glyph glyph-name="uni0420" unicode="&#x420;" horiz-adv-x="1173" 
d="M172 0q-15 0 -21 6t-6 21v1382q0 15 6 20t21 5h457q219 0 318.5 -94t99.5 -304v-192q0 -210 -99.5 -304t-318.5 -94h-391v-419q0 -15 -5 -21t-20 -6h-41zM238 535h393q173 0 248 72t75 237v192q0 166 -75 238t-248 72h-393v-811z" />
    <glyph glyph-name="uni0421" unicode="&#x421;" horiz-adv-x="1226" 
d="M578 -10q-433 0 -433 409v635q0 410 433 410h98q217 0 321.5 -94.5t104.5 -292.5v-10q0 -7 -5.5 -12t-13.5 -5h-57q-16 0 -16 17q0 162 -80.5 235.5t-249.5 73.5h-105q-173 0 -255 -78.5t-82 -243.5v-633q0 -166 82 -244.5t255 -78.5h105q168 0 249 69.5t81 219.5
q0 16 16 16h57q19 0 19 -16v-11q0 -185 -105 -275.5t-321 -90.5h-98z" />
    <glyph glyph-name="uni0422" unicode="&#x422;" horiz-adv-x="1075" 
d="M518 0q-15 0 -19.5 5.5t-4.5 21.5v1319h-361q-29 0 -29 26v37q0 14 6.5 19.5t22.5 5.5h809q16 0 22.5 -5.5t6.5 -19.5v-37q0 -26 -29 -26h-356v-1319q0 -15 -6 -21t-21 -6h-41z" />
    <glyph glyph-name="uni0423" unicode="&#x423;" horiz-adv-x="1138" 
d="M330 0q-29 0 -13 29l201 438l-430 938q-13 29 12 29h58q14 0 21.5 -6.5t15.5 -22.5l374 -825l377 825q6 12 9.5 17t9.5 8.5t16 3.5h57q29 0 13 -29l-629 -1376q-14 -29 -35 -29h-57z" />
    <glyph glyph-name="uni0424" unicode="&#x424;" horiz-adv-x="1361" 
d="M578 195q-433 0 -433 409v225q0 410 433 410h57v170q0 15 6 20t21 5h40q15 0 20 -5t5 -20v-170h57q433 0 433 -410v-225q0 -409 -433 -409h-57v-168q0 -15 -5 -21t-20 -6h-40q-15 0 -21 6t-6 21v168h-57zM238 606q0 -166 81.5 -244.5t255.5 -78.5h60v868h-60
q-174 0 -255.5 -78.5t-81.5 -243.5v-223zM727 283h59q173 0 255.5 78.5t82.5 244.5v223q0 164 -82.5 243t-255.5 79h-59v-868z" />
    <glyph glyph-name="uni0425" unicode="&#x425;" horiz-adv-x="1126" 
d="M121 0q-28 0 -10 27l397 690l-395 690q-16 27 10 27h57q14 0 20.5 -6t16.5 -23l340 -604h12l340 604q10 17 16.5 23t20.5 6h58q26 0 10 -27l-396 -690l398 -690q18 -27 -10 -27h-58q-10 0 -16.5 4t-10 8t-12.5 17l-340 604h-12l-340 -604q-10 -17 -17.5 -23t-21.5 -6h-57
z" />
    <glyph glyph-name="uni0426" unicode="&#x426;" horiz-adv-x="1185" 
d="M176 0q-31 0 -31 31v1378q0 15 6 20t21 5h41q15 0 20 -5t5 -20v-1321h716v1321q0 15 6 20t21 5h41q15 0 20 -5t5 -20v-1321h67q31 0 31 -31v-231q0 -15 -6 -20t-21 -5h-41q-15 0 -19.5 5t-4.5 20v174h-877z" />
    <glyph glyph-name="uni0427" unicode="&#x427;" horiz-adv-x="1146" 
d="M934 0q-15 0 -20 6t-5 21v528q-29 -59 -115.5 -104t-185.5 -45h-162q-176 0 -260 82t-84 227v694q0 15 6 20t21 5h41q15 0 20 -5t5 -20v-688q0 -110 59 -169.5t192 -59.5h164q138 0 218.5 62t80.5 167v688q0 15 5 20t20 5h41q15 0 20.5 -5t5.5 -20v-1382q0 -15 -5.5 -21
t-20.5 -6h-41z" />
    <glyph glyph-name="uni0428" unicode="&#x428;" horiz-adv-x="1757" 
d="M176 0q-31 0 -31 31v1378q0 15 6 20t21 5h41q15 0 20 -5t5 -20v-1321h593v1321q0 15 6 20t21 5h41q15 0 20 -5t5 -20v-1321h594v1321q0 15 5.5 20t20.5 5h41q15 0 20 -5t5 -20v-1378q0 -31 -31 -31h-1403z" />
    <glyph glyph-name="uni0429" unicode="&#x429;" horiz-adv-x="1748" 
d="M176 0q-31 0 -31 31v1378q0 15 6 20t21 5h41q15 0 20 -5t5 -20v-1321h593v1321q0 15 6 20t21 5h41q15 0 20 -5t5 -20v-1321h594v1321q0 15 5.5 20t20.5 5h41q15 0 20 -5t5 -20v-1321h67q31 0 31 -31v-231q0 -15 -6 -20t-21 -5h-41q-15 0 -19.5 5t-4.5 20v174h-1440z" />
    <glyph glyph-name="uni042A" unicode="&#x42a;" horiz-adv-x="1335" 
d="M334 0q-15 0 -20 6t-5 21v1319h-176q-29 0 -29 26v37q0 14 6.5 19.5t22.5 5.5h242q15 0 20.5 -5t5.5 -20v-422h390q221 0 320 -92.5t99 -302.5v-195q0 -210 -99.5 -303.5t-319.5 -93.5h-457zM401 88h392q174 0 249.5 72t75.5 237v193q0 166 -75 237.5t-250 71.5h-392
v-811z" />
    <glyph glyph-name="uni042B" unicode="&#x42b;" horiz-adv-x="1556" 
d="M172 0q-15 0 -21 6t-6 21v1382q0 15 6 20t21 5h41q15 0 20 -5t5 -20v-422h391q219 0 318.5 -92.5t99.5 -302.5v-195q0 -210 -99.5 -303.5t-318.5 -93.5h-457zM238 88h393q173 0 248 72t75 237v193q0 166 -75 237.5t-248 71.5h-393v-811zM1319 27v1382q0 15 6 20t21 5h40
q15 0 20 -5t5 -20v-1382q0 -15 -5 -21t-20 -6h-40q-15 0 -21 6t-6 21z" />
    <glyph glyph-name="uni042C" unicode="&#x42c;" horiz-adv-x="1173" 
d="M172 0q-15 0 -21 6t-6 21v1382q0 15 6 20t21 5h41q15 0 20 -5t5 -20v-422h391q219 0 318.5 -92.5t99.5 -302.5v-195q0 -210 -99.5 -303.5t-318.5 -93.5h-457zM238 88h393q173 0 248 72t75 237v193q0 166 -75 237.5t-248 71.5h-393v-811z" />
    <glyph glyph-name="uni042D" unicode="&#x42d;" horiz-adv-x="1226" 
d="M571 -10q-216 0 -321 91.5t-105 276.5v9q0 16 19 16h57q17 0 17 -16q0 -150 80.5 -219.5t248.5 -69.5h105q173 0 255.5 78.5t82.5 244.5v273h-297q-16 0 -22.5 5t-6.5 19v37q0 27 29 27h297v272q0 164 -82.5 243t-255.5 79h-105q-169 0 -249 -73.5t-80 -235.5
q0 -17 -17 -17h-57q-8 0 -13.5 5t-5.5 12v8q0 198 104.5 293.5t321.5 95.5h99q432 0 432 -410v-635q0 -409 -432 -409h-99z" />
    <glyph glyph-name="uni042E" unicode="&#x42e;" horiz-adv-x="1675" 
d="M172 0q-15 0 -21 6t-6 21v1382q0 15 6 20t21 5h41q15 0 20 -5t5 -20v-647h313v272q0 207 107.5 308.5t324.5 101.5h115q432 0 432 -410v-635q0 -409 -432 -409h-115q-432 0 -432 409v275h-313v-647q0 -15 -5 -21t-20 -6h-41zM643 401q0 -166 82 -244.5t256 -78.5h119
q173 0 255.5 78.5t82.5 244.5v633q0 164 -82.5 243t-255.5 79h-119q-174 0 -256 -78.5t-82 -243.5v-633z" />
    <glyph glyph-name="uni042F" unicode="&#x42f;" horiz-adv-x="1159" 
d="M946 0q-15 0 -19.5 5.5t-4.5 21.5v419h-410q-42 0 -92 11l-213 -437q-11 -20 -31 -20h-41q-15 0 -20.5 10t0.5 25l215 436q-112 37 -164.5 128t-52.5 245v192q0 210 99 304t318 94h457q15 0 21 -5t6 -20v-1382q0 -15 -6 -21t-21 -6h-41zM205 844q0 -165 75 -237t248 -72
h394v811h-394q-173 0 -248 -72t-75 -238v-192z" />
    <glyph glyph-name="uni0430" unicode="&#x430;" horiz-adv-x="1044" 
d="M844 0q-25 0 -25 23v143h-16q-61 -80 -154 -128t-211 -48h-8q-326 0 -326 301v45q0 258 314 258h401v98q0 65 -12.5 109t-43.5 78t-89 50.5t-146 16.5q-187 0 -297 -39q-7 -3 -13.5 1t-8.5 12l-8 45q-3 17 10 20q115 47 309 47h35q185 0 269.5 -82.5t84.5 -251.5v-675
q0 -23 -24 -23h-41zM195 297q0 -115 57 -168t174 -53h59q131 0 232.5 87.5t101.5 194.5v156h-395q-115 0 -172 -41.5t-57 -142.5v-33z" />
    <glyph glyph-name="uni0431" unicode="&#x431;" horiz-adv-x="1052" 
d="M504 -10q-93 0 -160.5 34.5t-103.5 96.5h-15v-98q0 -23 -24 -23h-41q-25 0 -25 23v1114q0 254 232 254q57 0 145.5 -10.5t138.5 -10.5q45 0 70.5 9.5t44.5 39.5q10 15 25 15h45q20 0 20 -19q0 -47 -34.5 -76t-77.5 -38t-95 -9q-41 0 -130 10.5t-142 10.5
q-87 0 -119.5 -42t-32.5 -130v-238h15q74 129 264 129h82q170 0 261 -87.5t91 -258.5v-350q0 -171 -91 -258.5t-261 -87.5h-82zM225 336q0 -123 67.5 -192.5t196.5 -69.5h89q272 0 272 268v340q0 266 -272 266h-89q-129 0 -196.5 -69.5t-67.5 -192.5v-350z" />
    <glyph glyph-name="uni0432" unicode="&#x432;" horiz-adv-x="1005" 
d="M166 0q-31 0 -31 31v962q0 31 31 31h418q276 0 276 -281q0 -148 -110 -206v-17q139 -51 139 -237q0 -157 -72 -220t-221 -63h-430zM225 84h377q49 0 81 6t61.5 24.5t44 58t14.5 101.5q0 215 -180 215h-398v-405zM225 563h398q43 0 74 17t47 46t23 59t7 63q0 194 -190 194
h-359v-379z" />
    <glyph glyph-name="uni0433" unicode="&#x433;" horiz-adv-x="856" 
d="M160 0q-25 0 -25 23v978q0 23 23 23h594q12 0 17 -5t5 -18v-36q0 -13 -5 -18t-17 -5h-527v-919q0 -23 -24 -23h-41z" />
    <glyph glyph-name="uni0434" unicode="&#x434;" horiz-adv-x="1179" 
d="M139 0v-127q0 -13 -4.5 -18t-17.5 -5h-43q-23 0 -23 23v178q0 31 31 31h24q80 0 136.5 91.5t56.5 266.5v553q0 31 31 31h671q31 0 31 -31v-911h66q30 0 30 -31v-178q0 -13 -4.5 -18t-17.5 -5h-43q-23 0 -23 23v127h-901zM272 82h672v860h-557v-493q0 -263 -115 -367z" />
    <glyph glyph-name="uni0435" unicode="&#x435;" horiz-adv-x="1030" 
d="M504 -10q-192 0 -290.5 91t-98.5 255v350q0 164 94 255t258 91h94q168 0 260 -87.5t92 -252.5v-155q0 -29 -17 -46.5t-46 -17.5h-645v-135q0 -124 74.5 -196t226.5 -72h20q180 0 295 84q16 13 25 0l24 -31q6 -6 5.5 -13t-5.5 -10q-44 -46 -135 -78t-213 -32h-18zM205 549
h620v141q0 258 -264 258h-94q-129 0 -195.5 -70t-66.5 -194v-135z" />
    <glyph glyph-name="uni0436" unicode="&#x436;" horiz-adv-x="1415" 
d="M57 0q-14 0 -15.5 12.5t11.5 24.5l533 473l-514 479q-12 9 -10.5 22t16.5 13h61q20 0 31 -14l481 -453v444q0 23 23 23h43q22 0 22 -23v-446l482 455q14 14 30 14h64q9 0 12.5 -6t1.5 -14.5t-10 -14.5l-512 -479l530 -473q13 -12 11.5 -24.5t-15.5 -12.5h-63
q-15 0 -31 12l-500 457v-446q0 -23 -22 -23h-43q-23 0 -23 23v444l-499 -455q-12 -12 -29 -12h-66z" />
    <glyph glyph-name="uni0437" unicode="&#x437;" horiz-adv-x="942" 
d="M393 -12q-143 0 -222 67.5t-79 196.5q0 20 23 20h47q22 0 22 -20q0 -78 50 -127t147 -49h160q223 0 223 192q0 46 -7.5 81.5t-26 66t-54 47t-86.5 16.5h-168q-21 0 -21 21v39q0 20 21 20h168q51 0 84 14t49 43t21.5 60.5t5.5 79.5q0 92 -53 142t-156 50h-160
q-94 0 -145.5 -54.5t-51.5 -135.5q0 -21 -22 -21h-47q-23 0 -23 21q0 132 80 205t221 73h135q145 0 228.5 -73.5t83.5 -212.5q0 -42 -3.5 -70t-14.5 -60t-36 -54.5t-65 -37.5v-16q40 -15 67 -40.5t39.5 -59t17.5 -65t5 -71.5q0 -150 -85.5 -219t-236.5 -69h-135z" />
    <glyph glyph-name="uni0438" unicode="&#x438;" horiz-adv-x="1034" 
d="M160 0q-25 0 -25 23v978q0 23 25 23h41q24 0 24 -23v-903h13l510 903q12 23 36 23h93q22 0 22 -23v-978q0 -23 -22 -23h-43q-23 0 -23 23v903h-14l-510 -903q-11 -23 -37 -23h-90z" />
    <glyph glyph-name="uni0439" unicode="&#x439;" horiz-adv-x="1034" 
d="M160 0q-25 0 -25 23v978q0 23 25 23h41q24 0 24 -23v-903h13l510 903q12 23 36 23h93q22 0 22 -23v-978q0 -23 -22 -23h-43q-23 0 -23 23v903h-14l-510 -903q-11 -23 -37 -23h-90zM272 1407q0 27 27 27h31q27 0 24 -27q2 -75 40 -118.5t108 -43.5h71q71 0 108.5 43.5
t37.5 118.5q0 27 26 27h31q27 0 27 -27q0 -120 -57.5 -178t-174.5 -58h-69q-230 0 -230 236z" />
    <glyph glyph-name="uni043A" unicode="&#x43a;" horiz-adv-x="899" 
d="M754 0q-17 0 -29 12l-500 455v-444q0 -23 -24 -23h-41q-25 0 -25 23v978q0 23 25 23h41q24 0 24 -23v-444l480 453q14 14 30 14h64q14 0 16 -13t-10 -22l-514 -479l530 -473q15 -12 13 -24.5t-17 -12.5h-63z" />
    <glyph glyph-name="uni043B" unicode="&#x43b;" horiz-adv-x="1093" 
d="M66 -20q-66 0 -66 26v33q0 24 31 24q78 0 108.5 34.5t30.5 129.5v774q0 23 23 23h743q22 0 22 -23v-978q0 -23 -22 -23h-43q-23 0 -23 23v919h-612v-733q0 -121 -47.5 -175t-144.5 -54z" />
    <glyph glyph-name="uni043C" unicode="&#x43c;" horiz-adv-x="1302" 
d="M160 0q-25 0 -25 23v978q0 23 25 23h78q24 0 36 -27l377 -802l377 802q12 27 37 27h78q22 0 22 -23v-978q0 -23 -22 -23h-43q-23 0 -23 23v888l-370 -792q-13 -25 -37 -25h-37q-23 0 -39 25l-369 792v-888q0 -23 -24 -23h-41z" />
    <glyph glyph-name="uni043D" unicode="&#x43d;" horiz-adv-x="1060" 
d="M858 0q-22 0 -22 23v450h-611v-450q0 -23 -24 -23h-41q-25 0 -25 23v978q0 23 25 23h41q24 0 24 -23v-446h611v446q0 23 22 23h43q23 0 23 -23v-978q0 -23 -23 -23h-43z" />
    <glyph glyph-name="uni043E" unicode="&#x43e;" horiz-adv-x="1032" 
d="M471 -10q-169 0 -262.5 88t-93.5 254v360q0 164 93.5 252t262.5 88h92q168 0 261.5 -88t93.5 -252v-360q0 -165 -94 -253.5t-261 -88.5h-92zM205 332q0 -124 65 -191t197 -67h98q132 0 198 67t66 191v358q0 124 -66 191t-198 67h-98q-132 0 -197 -67t-65 -191v-358z" />
    <glyph glyph-name="uni043F" unicode="&#x43f;" horiz-adv-x="1060" 
d="M160 0q-25 0 -25 23v978q0 23 25 23h741q23 0 23 -23v-978q0 -23 -23 -23h-43q-22 0 -22 23v919h-611v-919q0 -23 -24 -23h-41z" />
    <glyph glyph-name="uni0440" unicode="&#x440;" horiz-adv-x="1052" 
d="M160 -362q-25 0 -25 22v1341q0 23 25 23h41q24 0 24 -23v-98h15q74 129 264 129h82q170 0 261 -87.5t91 -258.5v-350q0 -171 -91 -258.5t-261 -87.5h-82q-93 0 -160.5 34.5t-103.5 96.5h-15v-461q0 -22 -24 -22h-41zM225 336q0 -123 67.5 -192.5t196.5 -69.5h89
q272 0 272 268v340q0 266 -272 266h-89q-129 0 -196.5 -69.5t-67.5 -192.5v-350z" />
    <glyph glyph-name="uni0441" unicode="&#x441;" horiz-adv-x="1007" 
d="M510 -10q-194 0 -294.5 89t-100.5 257v350q0 164 95.5 255t260.5 91h86q160 0 253 -78.5t93 -218.5v-12q0 -23 -24 -23h-41q-25 0 -25 23v10q0 100 -65.5 157.5t-186.5 57.5h-94q-128 0 -195 -69.5t-67 -194.5v-350q0 -124 75 -192t230 -68h14q86 0 141 13t86 36t58 65
q9 14 15.5 17t29.5 -4l18 -8q25 -12 13 -39q-27 -51 -66 -85t-113.5 -56.5t-179.5 -22.5h-16z" />
    <glyph glyph-name="uni0442" unicode="&#x442;" horiz-adv-x="903" 
d="M432 0q-22 0 -22 23v921h-306q-22 0 -22 23v34q0 23 22 23h695q22 0 22 -23v-34q0 -23 -22 -23h-301v-921q0 -23 -23 -23h-43z" />
    <glyph glyph-name="uni0443" unicode="&#x443;" horiz-adv-x="1044" 
d="M373 -362q-27 0 -19 28l121 309l-389 1020q-4 12 -2 20.5t16 8.5h52q14 0 18.5 -6t11.5 -27l334 -891h10l334 891q5 14 7.5 19.5t8 9.5t15.5 4h53q25 0 14 -29l-509 -1329q-12 -28 -31 -28h-45z" />
    <glyph glyph-name="uni0444" unicode="&#x444;" horiz-adv-x="1744" 
d="M467 -10q-170 0 -261 87.5t-91 258.5v350q0 171 91 258.5t261 87.5h82q190 0 264 -129h14v98q0 9 2 13v397q0 23 23 23h43q23 0 23 -23v-508h14q74 129 264 129h82q170 0 261 -87.5t91 -258.5v-350q0 -171 -91 -258.5t-261 -87.5h-82q-93 0 -160.5 34.5t-103.5 96.5h-14
v-461q0 -22 -25 -22h-41q-25 0 -25 22v461h-14q-36 -62 -103.5 -96.5t-160.5 -34.5h-82zM205 342q0 -268 270 -268h88q118 0 185.5 58t78.5 163v432q-11 105 -78.5 163t-185.5 58h-88q-270 0 -270 -266v-340zM918 336q0 -123 67.5 -192.5t196.5 -69.5h88q272 0 272 268v340
q0 266 -272 266h-88q-129 0 -196.5 -69.5t-67.5 -192.5v-350z" />
    <glyph glyph-name="uni0445" unicode="&#x445;" horiz-adv-x="897" 
d="M109 0q-18 0 -23.5 9t2.5 20l303 491l-293 475q-8 12 -3.5 20.5t22.5 8.5h43q23 0 39 -27l243 -403h15l241 403q11 16 18.5 21.5t20.5 5.5h45q35 0 17 -29l-293 -475l305 -491q7 -11 1.5 -20t-24.5 -9h-38q-23 0 -39 27l-254 422h-15l-254 -422q-19 -27 -38 -27h-41z" />
    <glyph glyph-name="uni0446" unicode="&#x446;" horiz-adv-x="1071" 
d="M160 0q-25 0 -25 23v978q0 23 25 23h41q24 0 24 -23v-919h611v919q0 23 22 23h43q23 0 23 -23v-919h65q31 0 31 -31v-178q0 -23 -23 -23h-43q-22 0 -22 23v127h-772z" />
    <glyph glyph-name="uni0447" unicode="&#x447;" horiz-adv-x="1062" 
d="M862 0q-24 0 -24 23v354q-38 -63 -117.5 -103.5t-177.5 -40.5h-58q-194 0 -272 85.5t-78 263.5v419q0 23 25 23h41q24 0 24 -23v-428q0 -127 59 -190.5t187 -63.5h76q136 0 213.5 65t77.5 187v430q0 23 24 23h41q25 0 25 -23v-978q0 -23 -25 -23h-41z" />
    <glyph glyph-name="uni0448" unicode="&#x448;" horiz-adv-x="1476" 
d="M160 0q-25 0 -25 23v978q0 23 25 23h41q24 0 24 -23v-919h469v919q0 23 25 23h41q22 0 22 -23v-919h471v919q0 23 23 23h43q22 0 22 -23v-978q0 -23 -22 -23h-1159z" />
    <glyph glyph-name="uni0449" unicode="&#x449;" horiz-adv-x="1466" 
d="M1350 -150q-23 0 -23 23v127h-1167q-25 0 -25 23v978q0 23 25 23h41q24 0 24 -23v-919h469v919q0 23 25 23h41q22 0 22 -23v-919h471v919q0 23 23 23h43q22 0 22 -23v-919h43q31 0 31 -31v-178q0 -23 -22 -23h-43z" />
    <glyph glyph-name="uni044A" unicode="&#x44a;" horiz-adv-x="1107" 
d="M221 0q-24 0 -24 23v919h-123q-23 0 -23 23v36q0 23 23 23h188q25 0 25 -23v-333h364q185 0 263.5 -75.5t78.5 -258.5t-78.5 -258.5t-263.5 -75.5h-430zM287 82h356q149 0 205.5 54.5t56.5 197.5q0 142 -56.5 196t-205.5 54h-356v-502z" />
    <glyph glyph-name="uni044B" unicode="&#x44b;" horiz-adv-x="1306" 
d="M160 0q-25 0 -25 23v978q0 23 25 23h41q24 0 24 -23v-333h365q185 0 263.5 -75.5t78.5 -258.5t-78.5 -258.5t-263.5 -75.5h-430zM225 82h357q149 0 205.5 54.5t56.5 197.5q0 142 -56.5 196t-205.5 54h-357v-502zM1081 23v978q0 23 23 23h43q22 0 22 -23v-978
q0 -23 -22 -23h-43q-23 0 -23 23z" />
    <glyph glyph-name="uni044C" unicode="&#x44c;" horiz-adv-x="1046" 
d="M160 0q-25 0 -25 23v978q0 23 25 23h41q24 0 24 -23v-333h365q185 0 263.5 -75.5t78.5 -258.5t-78.5 -258.5t-263.5 -75.5h-430zM225 82h357q149 0 205.5 54.5t56.5 197.5q0 142 -56.5 196t-205.5 54h-357v-502z" />
    <glyph glyph-name="uni044D" unicode="&#x44d;" horiz-adv-x="1007" 
d="M584 465q-23 0 -23 22v37q0 23 23 23h219v137q0 125 -67 194.5t-195 69.5h-95q-121 0 -186 -57.5t-65 -157.5v-10q0 -23 -25 -23h-41q-25 0 -25 23v12q0 140 93.5 218.5t253.5 78.5h86q165 0 260.5 -91t95.5 -255v-350q0 -168 -100.5 -257t-294.5 -89h-17
q-105 0 -179 22.5t-113 56.5t-66 85q-12 27 12 39l19 8q23 7 29.5 4t15.5 -17q27 -42 57.5 -65t85.5 -36t141 -13h15q155 0 230 68t75 192v131h-219z" />
    <glyph glyph-name="uni044E" unicode="&#x44e;" horiz-adv-x="1380" 
d="M158 -2q-23 0 -23 22v979q0 23 23 23h43q22 0 22 -23v-444h240v137q0 164 93.5 252t262.5 88h92q168 0 261.5 -88t93.5 -252v-360q0 -165 -94 -253.5t-261 -88.5h-92q-169 0 -262.5 88t-93.5 254v141h-240v-453q0 -22 -22 -22h-43zM553 332q0 -124 65 -191t197 -67h98
q133 0 199 67t66 191v358q0 124 -66 191t-199 67h-98q-132 0 -197 -67t-65 -191v-358z" />
    <glyph glyph-name="uni044F" unicode="&#x44f;" horiz-adv-x="1003" 
d="M141 0q-26 0 -26 31v215q0 192 125 241v9q-117 48 -117 247q0 148 66 214.5t214 66.5h441q22 0 22 -23v-978q0 -23 -22 -23h-43q-23 0 -23 23v421h-399q-92 0 -133 -45t-41 -145v-223q0 -31 -27 -31h-37zM211 754q0 -114 37.5 -172t132.5 -58h397v414h-397
q-88 0 -129 -45.5t-41 -138.5z" />
    <glyph glyph-name="uni0451" unicode="&#x451;" horiz-adv-x="1030" 
d="M504 -10q-192 0 -290.5 91t-98.5 255v350q0 164 94 255t258 91h94q168 0 260 -87.5t92 -252.5v-155q0 -29 -17 -46.5t-46 -17.5h-645v-135q0 -124 74.5 -196t226.5 -72h20q180 0 295 84q16 13 25 0l24 -31q6 -6 5.5 -13t-5.5 -10q-44 -46 -135 -78t-213 -32h-18zM205 549
h620v141q0 258 -264 258h-94q-129 0 -195.5 -70t-66.5 -194v-135zM207 1356v53q0 15 5.5 20t20.5 5h54q15 0 19.5 -5t4.5 -20v-53q0 -16 -4.5 -21.5t-19.5 -5.5h-54q-15 0 -20.5 6t-5.5 21zM723 1356v53q0 15 6 20t21 5h53q15 0 19.5 -5t4.5 -20v-53q0 -16 -4.5 -21.5
t-19.5 -5.5h-53q-15 0 -21 6t-6 21z" />
    <glyph glyph-name="uni0453" unicode="&#x453;" horiz-adv-x="856" 
d="M160 0q-25 0 -25 23v978q0 23 23 23h594q12 0 17 -5t5 -18v-36q0 -13 -5 -18t-17 -5h-527v-919q0 -23 -24 -23h-41zM414 1161l155 236q21 37 45 37h52q18 0 24.5 -10t-4.5 -27l-170 -236q-26 -37 -51 -37h-31q-16 0 -22.5 10t2.5 27z" />
    <glyph glyph-name="uni0454" unicode="&#x454;" horiz-adv-x="1007" 
d="M510 -10q-194 0 -294.5 89t-100.5 257v350q0 164 95.5 255t260.5 91h86q160 0 253 -78.5t93 -218.5v-12q0 -23 -24 -23h-41q-25 0 -25 23v10q0 100 -65.5 157.5t-186.5 57.5h-94q-128 0 -195 -69.5t-67 -194.5v-137h219q22 0 22 -23v-37q0 -22 -22 -22h-219v-131
q0 -124 75 -192t230 -68h14q86 0 141 13t86 36t58 65q9 14 15.5 17t29.5 -4l18 -8q25 -12 13 -39q-27 -51 -66 -85t-113.5 -56.5t-179.5 -22.5h-16z" />
    <glyph glyph-name="uni0456" unicode="&#x456;" horiz-adv-x="364" 
d="M160 1339q-25 0 -25 25v47q0 23 25 23h47q22 0 22 -23v-47q0 -25 -22 -25h-47zM139 23v978q0 23 23 23h43q22 0 22 -23v-978q0 -23 -22 -23h-43q-23 0 -23 23z" />
    <glyph glyph-name="uni0457" unicode="&#x457;" horiz-adv-x="313" 
d="M135 0q-22 0 -22 23v978q0 23 22 23h43q23 0 23 -23v-978q0 -23 -23 -23h-43zM-152 1356v53q0 15 6 20t21 5h53q15 0 20 -5t5 -20v-53q0 -15 -5 -21t-20 -6h-53q-15 0 -21 6t-6 21zM365 1356v53q0 15 5.5 20t20.5 5h53q15 0 20 -5t5 -20v-53q0 -15 -5 -21t-20 -6h-53
q-15 0 -20.5 6t-5.5 21z" />
    <glyph glyph-name="uni0458" unicode="&#x458;" horiz-adv-x="376" 
d="M170 1339q-23 0 -23 25v47q0 23 23 23h47q23 0 23 -23v-47q0 -25 -23 -25h-47zM-18 -344v33q0 24 30 24q78 0 109 34.5t31 129.5v1124q0 23 22 23h43q23 0 23 -23v-1142q0 -121 -48 -175.5t-145 -54.5q-65 0 -65 27z" />
    <glyph glyph-name="uni045C" unicode="&#x45c;" horiz-adv-x="899" 
d="M754 0q-17 0 -29 12l-500 455v-444q0 -23 -24 -23h-41q-25 0 -25 23v978q0 23 25 23h41q24 0 24 -23v-444l480 453q14 14 30 14h64q14 0 16 -13t-10 -22l-514 -479l530 -473q15 -12 13 -24.5t-17 -12.5h-63zM408 1161l155 236q21 37 45 37h51q18 0 25 -10t-4 -27
l-170 -236q-26 -37 -51 -37h-31q-16 0 -22.5 10t2.5 27z" />
    <glyph glyph-name="uni045D" unicode="&#x45d;" horiz-adv-x="1034" 
d="M160 0q-25 0 -25 23v978q0 23 25 23h41q24 0 24 -23v-903h13l510 903q12 23 36 23h93q22 0 22 -23v-978q0 -23 -22 -23h-43q-23 0 -23 23v903h-14l-510 -903q-11 -23 -37 -23h-90zM307 1397q-11 17 -5 27t24 10h51q18 0 28 -8.5t21 -28.5l154 -236q10 -17 3 -27t-24 -10
h-31q-25 0 -51 37z" />
    <glyph glyph-name="uni045E" unicode="&#x45e;" horiz-adv-x="1044" 
d="M373 -362q-27 0 -19 28l121 309l-389 1020q-4 12 -2 20.5t16 8.5h52q14 0 18.5 -6t11.5 -27l334 -891h10l334 891q5 14 7.5 19.5t8 9.5t15.5 4h53q25 0 14 -29l-509 -1329q-12 -28 -31 -28h-45zM256 1407q0 27 27 27h30q28 0 25 -27q2 -75 39.5 -118.5t107.5 -43.5h72
q71 0 108 43.5t37 118.5q0 27 27 27h31q26 0 26 -27q0 -120 -57 -178t-174 -58h-70q-229 0 -229 236z" />
    <glyph glyph-name="uni0490" unicode="&#x490;" horiz-adv-x="974" 
d="M801 1552q0 15 5.5 20t20.5 5h41q15 0 20 -5t5 -20v-180q0 -15 -6 -20.5t-21 -5.5h-628v-1319q0 -15 -5 -21t-20 -6h-41q-15 0 -21 6t-6 21v1382q0 15 6 20t21 5h629v118z" />
    <glyph glyph-name="uni0491" unicode="&#x491;" horiz-adv-x="856" 
d="M686 1112q0 23 23 23h43q22 0 22 -23v-147q0 -13 -5 -18t-17 -5h-527v-919q0 -23 -24 -23h-41q-25 0 -25 23v978q0 23 23 23h528v88z" />
    <glyph glyph-name="uni04C0" unicode="&#x4c0;" horiz-adv-x="385" 
d="M172 0q-15 0 -21 6t-6 21v1382q0 15 6 20t21 5h41q15 0 20 -5t5 -20v-1382q0 -15 -5 -21t-20 -6h-41z" />
    <glyph glyph-name="uni04E2" unicode="&#x4e2;" horiz-adv-x="1204" 
d="M172 0q-15 0 -21 6t-6 21v1382q0 15 6 20t21 5h41q15 0 20 -5t5 -20v-1311h16l633 1313q14 23 37 23h108q15 0 20 -5t5 -20v-1382q0 -15 -5 -21t-20 -6h-41q-15 0 -20.5 6t-5.5 21v1310h-15l-635 -1314q-11 -23 -36 -23h-107zM250 1780v35q0 28 29 28h667q29 0 29 -28
v-35q0 -29 -29 -29h-667q-29 0 -29 29z" />
    <glyph glyph-name="uni04E3" unicode="&#x4e3;" horiz-adv-x="1034" 
d="M160 0q-25 0 -25 23v978q0 23 25 23h41q24 0 24 -23v-903h13l510 903q12 23 36 23h93q22 0 22 -23v-978q0 -23 -22 -23h-43q-23 0 -23 23v903h-14l-510 -903q-11 -23 -37 -23h-90zM176 1370v35q0 29 29 29h667q29 0 29 -29v-35q0 -29 -29 -29h-667q-29 0 -29 29z" />
    <glyph glyph-name="uni04E8" unicode="&#x4e8;" 
d="M578 -10q-433 0 -433 409v635q0 410 433 410h114q432 0 432 -410v-635q0 -409 -432 -409h-114zM238 401q0 -166 81.5 -244.5t255.5 -78.5h119q173 0 255.5 78.5t82.5 244.5v273h-794v-273zM238 760h794v274q0 164 -82.5 243t-255.5 79h-119q-174 0 -255.5 -78.5
t-81.5 -243.5v-274z" />
    <glyph glyph-name="uni04E9" unicode="&#x4e9;" horiz-adv-x="1032" 
d="M563 1032q167 0 261 -88.5t94 -253.5v-360q0 -164 -93.5 -252t-261.5 -88h-92q-169 0 -262.5 88t-93.5 252v360q0 166 93.5 254t262.5 88h92zM205 332q0 -124 65 -191t197 -67h98q132 0 198 67t66 191v139h-624v-139zM205 553h624v137q0 124 -66 191t-198 67h-98
q-132 0 -197 -67t-65 -191v-137z" />
    <glyph glyph-name="uni04EC" unicode="&#x4ec;" horiz-adv-x="1226" 
d="M692 674q-16 0 -22 5t-6 19v37q0 27 28 27h297v272q0 164 -82.5 243t-255.5 79h-104q-169 0 -249.5 -73.5t-80.5 -235.5q0 -17 -16 -17h-58q-18 0 -18 17v10q0 198 104.5 292.5t321.5 94.5h98q432 0 432 -410v-635q0 -409 -432 -409h-98q-216 0 -321 90.5t-105 275.5v11
q0 16 18 16h58q16 0 16 -16q0 -150 81 -219.5t249 -69.5h104q173 0 255.5 78.5t82.5 244.5v273h-297zM291 1765v54q0 15 5.5 19.5t20.5 4.5h54q15 0 19.5 -4.5t4.5 -19.5v-54q0 -15 -4.5 -20.5t-19.5 -5.5h-54q-15 0 -20.5 5.5t-5.5 20.5zM807 1765v54q0 15 5.5 19.5
t21.5 4.5h53q15 0 19.5 -4.5t4.5 -19.5v-54q0 -15 -4.5 -20.5t-19.5 -5.5h-53q-15 0 -21 5.5t-6 20.5z" />
    <glyph glyph-name="uni04ED" unicode="&#x4ed;" horiz-adv-x="1007" 
d="M584 465q-23 0 -23 22v37q0 23 23 23h219v137q0 125 -67 194.5t-195 69.5h-95q-121 0 -186 -57.5t-65 -157.5v-10q0 -23 -25 -23h-41q-25 0 -25 23v12q0 140 93.5 218.5t253.5 78.5h86q165 0 260.5 -91t95.5 -255v-350q0 -168 -100.5 -257t-294.5 -89h-17
q-105 0 -179 22.5t-113 56.5t-66 85q-12 27 12 39l19 8q23 7 29.5 4t15.5 -17q27 -42 57.5 -65t85.5 -36t141 -13h15q155 0 230 68t75 192v131h-219zM182 1356v53q0 15 6 20t21 5h53q15 0 20 -5t5 -20v-53q0 -15 -5 -21t-20 -6h-53q-15 0 -21 6t-6 21zM698 1356v53
q0 15 6 20t21 5h53q15 0 20 -5t5 -20v-53q0 -15 -5 -21t-20 -6h-53q-15 0 -21 6t-6 21z" />
    <glyph glyph-name="uni04EE" unicode="&#x4ee;" horiz-adv-x="1138" 
d="M330 0q-29 0 -13 29l201 438l-430 938q-13 29 12 29h58q14 0 21.5 -6.5t15.5 -22.5l374 -825l377 825q6 12 9.5 17t9.5 8.5t16 3.5h57q29 0 13 -29l-629 -1376q-14 -29 -35 -29h-57zM215 1780v35q0 28 29 28h667q29 0 29 -28v-35q0 -29 -29 -29h-667q-29 0 -29 29z" />
    <glyph glyph-name="uni04EF" unicode="&#x4ef;" horiz-adv-x="1044" 
d="M188 1341q-28 0 -28 29v35q0 29 28 29h668q29 0 29 -29v-35q0 -29 -29 -29h-668zM86 995q-4 12 -2 20.5t16 8.5h52q14 0 18.5 -6t11.5 -27l334 -891h10l334 891q5 14 7.5 19.5t8 9.5t15.5 4h53q25 0 14 -29l-509 -1329q-12 -28 -31 -28h-45q-27 0 -19 28l121 309z" />
    <glyph glyph-name="uni1E20" unicode="&#x1e20;" horiz-adv-x="1247" 
d="M578 -10q-433 0 -433 409v635q0 410 433 410h98q217 0 320.5 -94.5t103.5 -292.5v-10q0 -7 -5.5 -12t-13.5 -5h-57q-16 0 -16 17q0 163 -79.5 236t-248.5 73h-105q-173 0 -255 -78.5t-82 -243.5v-633q0 -166 82 -244.5t255 -78.5h97q173 0 255.5 78.5t82.5 244.5v279
h-324q-15 0 -21 5t-6 20v34q0 15 6 20t21 5h387q12 0 20.5 -8.5t8.5 -20.5v-336q0 -409 -432 -409h-92zM264 1780v35q0 28 29 28h668q28 0 28 -28v-35q0 -29 -28 -29h-668q-29 0 -29 29z" />
    <glyph glyph-name="uni1E21" unicode="&#x1e21;" horiz-adv-x="1042" 
d="M496 -379q-90 0 -166 6q-39 6 -39 27v37q0 10 7 15t17 3q72 -6 197 -6q78 0 132.5 11t98 38t65 78t21.5 127v164h-16q-36 -62 -103.5 -96.5t-160.5 -34.5h-82q-170 0 -261 87.5t-91 258.5v350q0 171 91 258.5t261 87.5h82q190 0 264 -129h16v96q0 25 23 25h43
q23 0 23 -25v-1042q0 -185 -99.5 -260.5t-322.5 -75.5zM172 1370v35q0 29 29 29h667q29 0 29 -29v-35q0 -29 -29 -29h-667q-29 0 -29 29zM205 342q0 -268 270 -268h88q129 0 197.5 69.5t68.5 192.5v350q0 123 -68.5 192.5t-197.5 69.5h-88q-270 0 -270 -266v-340z" />
    <glyph glyph-name="uni1E3E" unicode="&#x1e3e;" horiz-adv-x="1468" 
d="M172 0q-15 0 -21 6t-6 21v1382q0 15 6 20t21 5h117q28 0 37 -31l401 -1307h14l402 1307q12 31 37 31h116q15 0 21 -5t6 -20v-1382q0 -15 -6 -21t-21 -6h-41q-15 0 -19.5 5.5t-4.5 21.5v1310h-17l-403 -1306q-9 -31 -39 -31h-76q-27 0 -39 31l-403 1306h-16v-1310
q0 -15 -5 -21t-20 -6h-41zM709 1546l155 236q21 37 45 37h52q18 0 24.5 -10t-4.5 -27l-170 -236q-26 -37 -51 -37h-31q-16 0 -22.5 10t2.5 27z" />
    <glyph glyph-name="uni1E3F" unicode="&#x1e3f;" horiz-adv-x="1703" 
d="M831 0q-24 0 -24 23v659q0 132 -59.5 199t-188.5 67h-59q-129 0 -202 -70.5t-73 -193.5v-661q0 -23 -24 -23h-41q-25 0 -25 23v978q0 23 25 23h41q24 0 24 -23v-96h19q81 127 282 127h43q222 0 293 -158h12q45 82 125.5 120t204.5 38h41q324 0 324 -346v-663
q0 -23 -25 -23h-41q-24 0 -24 23v659q0 132 -59.5 199t-188.5 67h-60q-129 0 -201.5 -70.5t-72.5 -193.5v-661q0 -23 -25 -23h-41zM831 1161l156 236q21 37 45 37h51q18 0 25 -10t-4 -27l-170 -236q-26 -37 -51 -37h-31q-16 0 -23 10t2 27z" />
    <glyph glyph-name="Wgrave" unicode="&#x1e80;" horiz-adv-x="1839" 
d="M455 0q-30 0 -37 33l-330 1370q-11 31 21 31h41q14 0 21 -6.5t13 -24.5l310 -1299h16l348 1299q6 18 12.5 24.5t20.5 6.5h57q15 0 20.5 -6t10.5 -25l350 -1299h17l309 1299q8 31 35 31h41q28 0 20 -31l-330 -1370q-7 -33 -37 -33h-98q-24 0 -37 33l-319 1237h-21
l-321 -1237q-10 -33 -35 -33h-98zM688 1806q-11 17 -5 27t24 10h51q18 0 28 -8.5t21 -28.5l154 -235q10 -17 3 -27t-24 -10h-31q-25 0 -51 37z" />
    <glyph glyph-name="wgrave" unicode="&#x1e81;" horiz-adv-x="1474" 
d="M371 0q-30 0 -39 31l-244 964q-7 29 16 29h46q14 0 19 -7t9 -22l228 -903h6l264 903q0 1 1.5 4.5t2 4.5t1.5 4t2 4t2.5 3.5t2.5 3t3 2t4 2t4.5 1t5.5 0.5h65q3 0 6 -0.5t5 -1.5t4 -1.5t3.5 -3t2.5 -3.5t2.5 -4.5t2 -4.5t2 -5t1.5 -5l264 -903h6l225 903q7 29 31 29h45
q23 0 16 -29l-245 -964q-9 -31 -39 -31h-72q-30 0 -39 31l-250 876h-8l-250 -876q-9 -31 -39 -31h-73zM506 1397q-11 17 -5.5 27t23.5 10h51q18 0 28.5 -8.5t21.5 -28.5l153 -236q10 -17 3.5 -27t-23.5 -10h-31q-25 0 -51 37z" />
    <glyph glyph-name="Wacute" unicode="&#x1e82;" horiz-adv-x="1839" 
d="M455 0q-30 0 -37 33l-330 1370q-11 31 21 31h41q14 0 21 -6.5t13 -24.5l310 -1299h16l348 1299q6 18 12.5 24.5t20.5 6.5h57q15 0 20.5 -6t10.5 -25l350 -1299h17l309 1299q8 31 35 31h41q28 0 20 -31l-330 -1370q-7 -33 -37 -33h-98q-24 0 -37 33l-319 1237h-21
l-321 -1237q-10 -33 -35 -33h-98zM877 1571l155 235q21 37 45 37h51q18 0 25 -10t-4 -27l-170 -235q-26 -37 -51 -37h-31q-16 0 -22.5 10t2.5 27z" />
    <glyph glyph-name="wacute" unicode="&#x1e83;" horiz-adv-x="1474" 
d="M371 0q-30 0 -39 31l-244 964q-7 29 16 29h46q14 0 19 -7t9 -22l228 -903h6l264 903q0 1 1.5 4.5t2 4.5t1.5 4t2 4t2.5 3.5t2.5 3t3 2t4 2t4.5 1t5.5 0.5h65q3 0 6 -0.5t5 -1.5t4 -1.5t3.5 -3t2.5 -3.5t2.5 -4.5t2 -4.5t2 -5t1.5 -5l264 -903h6l225 903q7 29 31 29h45
q23 0 16 -29l-245 -964q-9 -31 -39 -31h-72q-30 0 -39 31l-250 876h-8l-250 -876q-9 -31 -39 -31h-73zM694 1161l156 236q21 37 45 37h51q18 0 25 -10t-4 -27l-170 -236q-26 -37 -52 -37h-30q-16 0 -23 10t2 27z" />
    <glyph glyph-name="Wdieresis" unicode="&#x1e84;" horiz-adv-x="1839" 
d="M455 0q-30 0 -37 33l-330 1370q-11 31 21 31h41q14 0 21 -6.5t13 -24.5l310 -1299h16l348 1299q6 18 12.5 24.5t20.5 6.5h57q15 0 20.5 -6t10.5 -25l350 -1299h17l309 1299q8 31 35 31h41q28 0 20 -31l-330 -1370q-7 -33 -37 -33h-98q-24 0 -37 33l-319 1237h-21
l-321 -1237q-10 -33 -35 -33h-98zM610 1765v54q0 15 5.5 19.5t21.5 4.5h53q15 0 20 -4.5t5 -19.5v-54q0 -15 -5 -20.5t-20 -5.5h-53q-15 0 -21 5.5t-6 20.5zM1126 1765v54q0 15 5.5 19.5t21.5 4.5h53q15 0 20 -4.5t5 -19.5v-54q0 -15 -5 -20.5t-20 -5.5h-53q-15 0 -21 5.5
t-6 20.5z" />
    <glyph glyph-name="wdieresis" unicode="&#x1e85;" horiz-adv-x="1474" 
d="M371 0q-30 0 -39 31l-244 964q-7 29 16 29h46q14 0 19 -7t9 -22l228 -903h6l264 903q0 1 1.5 4.5t2 4.5t1.5 4t2 4t2.5 3.5t2.5 3t3 2t4 2t4.5 1t5.5 0.5h65q3 0 6 -0.5t5 -1.5t4 -1.5t3.5 -3t2.5 -3.5t2.5 -4.5t2 -4.5t2 -5t1.5 -5l264 -903h6l225 903q7 29 31 29h45
q23 0 16 -29l-245 -964q-9 -31 -39 -31h-72q-30 0 -39 31l-250 876h-8l-250 -876q-9 -31 -39 -31h-73zM428 1356v53q0 15 6 20t21 5h53q15 0 19.5 -5t4.5 -20v-53q0 -16 -4.5 -21.5t-19.5 -5.5h-53q-15 0 -21 6t-6 21zM944 1356v53q0 15 6 20t21 5h53q15 0 20 -5t5 -20v-53
q0 -15 -5 -21t-20 -6h-53q-15 0 -21 6t-6 21z" />
    <glyph glyph-name="uni1E9E" unicode="&#x1e9e;" horiz-adv-x="1193" 
d="M172 0q-15 0 -21 6t-6 21v1382q0 14 6.5 19.5t22.5 5.5h811q34 0 47 -25.5t-8 -54.5l-375 -537h94q162 0 248 -84t86 -227v-156q0 -193 -107.5 -271.5t-318.5 -78.5h-116q-23 0 -23 23v43q0 22 23 22h116q188 0 261 64t73 229v88q0 153 -73 211.5t-261 58.5h-84
q-22 0 -22 23v39q0 21 18 43l355 502h-680v-1319q0 -15 -5 -21t-20 -6h-41z" />
    <glyph glyph-name="uni1EA0" unicode="&#x1ea0;" horiz-adv-x="1187" 
d="M643 1434q25 0 35 -33l424 -1370q8 -31 -23 -31h-41q-15 0 -21 6.5t-11 24.5l-88 286h-648l-88 -286q-5 -18 -11 -24.5t-21 -6.5h-41q-31 0 -23 31l424 1370q10 33 37 33h96zM297 401h594l-287 930h-18zM522 -338v92q0 15 6 21t21 6h92q15 0 20 -6t5 -21v-92
q0 -15 -5 -19.5t-20 -4.5h-92q-16 0 -21.5 4.5t-5.5 19.5z" />
    <glyph glyph-name="uni1EA1" unicode="&#x1ea1;" horiz-adv-x="1044" 
d="M844 0q-25 0 -25 23v143h-16q-61 -80 -154 -128t-211 -48h-8q-326 0 -326 301v45q0 258 314 258h401v98q0 65 -12.5 109t-43.5 78t-89 50.5t-146 16.5q-187 0 -297 -39q-7 -3 -13.5 1t-8.5 12l-8 45q-3 17 10 20q115 47 309 47h35q185 0 269.5 -82.5t84.5 -251.5v-675
q0 -23 -24 -23h-41zM195 297q0 -115 57 -168t174 -53h59q131 0 232.5 87.5t101.5 194.5v156h-395q-115 0 -172 -41.5t-57 -142.5v-33zM442 -338v92q0 15 6 21t21 6h92q15 0 20 -6t5 -21v-92q0 -15 -5 -19.5t-20 -4.5h-92q-16 0 -21.5 4.5t-5.5 19.5z" />
    <glyph glyph-name="uni1EA2" unicode="&#x1ea2;" horiz-adv-x="1187" 
d="M643 1434q25 0 35 -33l424 -1370q8 -31 -23 -31h-41q-15 0 -21 6.5t-11 24.5l-88 286h-648l-88 -286q-5 -18 -11 -24.5t-21 -6.5h-41q-31 0 -23 31l424 1370q10 33 37 33h96zM297 401h594l-287 930h-18zM385 1755v27q0 81 44.5 123.5t123.5 42.5h84q79 0 123.5 -42.5
t44.5 -123.5v-60q0 -81 -44.5 -124.5t-123.5 -43.5h-37q-11 0 -18 7.5t-7 19.5v21q0 10 7 17t18 7h27q102 0 102 105v43q0 51 -24.5 74.5t-77.5 23.5h-66q-51 0 -74.5 -23.5t-23.5 -74.5v-19q0 -26 -27 -26h-24q-27 0 -27 26z" />
    <glyph glyph-name="uni1EA3" unicode="&#x1ea3;" horiz-adv-x="1044" 
d="M844 0q-25 0 -25 23v143h-16q-61 -80 -154 -128t-211 -48h-8q-326 0 -326 301v45q0 258 314 258h401v98q0 65 -12.5 109t-43.5 78t-89 50.5t-146 16.5q-187 0 -297 -39q-7 -3 -13.5 1t-8.5 12l-8 45q-3 17 10 20q115 47 309 47h35q185 0 269.5 -82.5t84.5 -251.5v-675
q0 -23 -24 -23h-41zM195 297q0 -115 57 -168t174 -53h59q131 0 232.5 87.5t101.5 194.5v156h-395q-115 0 -172 -41.5t-57 -142.5v-33zM334 1346v26q0 81 44.5 123.5t123.5 42.5h84q79 0 123.5 -42.5t44.5 -123.5v-59q0 -81 -44.5 -124.5t-123.5 -43.5h-37q-11 0 -18 7t-7 19
v21q0 10 7 17.5t18 7.5h26q103 0 103 104v43q0 51 -25 74.5t-78 23.5h-65q-51 0 -74.5 -23.5t-23.5 -74.5v-18q0 -12 -7.5 -19.5t-19.5 -7.5h-25q-26 0 -26 27z" />
    <glyph glyph-name="uni1EA4" unicode="&#x1ea4;" horiz-adv-x="1187" 
d="M643 1434q25 0 35 -33l424 -1370q8 -31 -23 -31h-41q-15 0 -21 6.5t-11 24.5l-88 286h-648l-88 -286q-5 -18 -11 -24.5t-21 -6.5h-41q-31 0 -23 31l424 1370q10 33 37 33h96zM291 1571l217 246q14 16 23 21t26 5h37q14 0 21.5 -1t17 -7t18.5 -18l217 -246q9 -12 6 -21.5
t-18 -9.5h-45q-11 0 -16 1t-12.5 6t-16.5 16l-176 200h-21l-176 -200q-12 -16 -21.5 -19.5t-25.5 -3.5h-43q-15 0 -18.5 9.5t6.5 21.5zM297 401h594l-287 930h-18zM737 1898l156 236q21 37 45 37h51q18 0 25 -10t-4 -27l-170 -236q-25 -36 -52 -36h-30q-16 0 -23 9.5t2 26.5
z" />
    <glyph glyph-name="uni1EA5" unicode="&#x1ea5;" horiz-adv-x="1044" 
d="M844 0q-25 0 -25 23v143h-16q-61 -80 -154 -128t-211 -48h-8q-326 0 -326 301v45q0 258 314 258h401v98q0 65 -12.5 109t-43.5 78t-89 50.5t-146 16.5q-187 0 -297 -39q-7 -3 -13.5 1t-8.5 12l-8 45q-3 17 10 20q115 47 309 47h35q185 0 269.5 -82.5t84.5 -251.5v-675
q0 -23 -24 -23h-41zM195 297q0 -115 57 -168t174 -53h59q131 0 232.5 87.5t101.5 194.5v156h-395q-115 0 -172 -41.5t-57 -142.5v-33zM240 1161l217 246q15 16 24 21.5t25 5.5h37q38 0 57 -27l217 -246q9 -12 6 -21.5t-18 -9.5h-45q-11 0 -16 1t-12.5 6t-16.5 16l-176 201
h-21l-176 -201q-12 -16 -21.5 -19.5t-25.5 -3.5h-43q-15 0 -18.5 9.5t6.5 21.5zM686 1489l156 235q21 37 45 37h51q18 0 24.5 -10t-4.5 -27l-170 -235q-26 -37 -51 -37h-30q-16 0 -23 10t2 27z" />
    <glyph glyph-name="uni1EA6" unicode="&#x1ea6;" horiz-adv-x="1187" 
d="M643 1434q25 0 35 -33l424 -1370q8 -31 -23 -31h-41q-15 0 -21 6.5t-11 24.5l-88 286h-648l-88 -286q-5 -18 -11 -24.5t-21 -6.5h-41q-31 0 -23 31l424 1370q10 33 37 33h96zM291 1571l217 246q14 16 23 21t26 5h37q14 0 21.5 -1t17 -7t18.5 -18l217 -246q9 -12 6 -21.5
t-18 -9.5h-45q-11 0 -16 1t-12.5 6t-16.5 16l-176 200h-21l-176 -200q-12 -16 -21.5 -19.5t-25.5 -3.5h-43q-15 0 -18.5 9.5t6.5 21.5zM297 401h594l-287 930h-18zM582 2134q-11 17 -5.5 27t23.5 10h51q18 0 28 -8.5t21 -28.5l154 -236q10 -17 3.5 -26.5t-23.5 -9.5h-31
q-26 0 -51 36z" />
    <glyph glyph-name="uni1EA7" unicode="&#x1ea7;" horiz-adv-x="1044" 
d="M844 0q-25 0 -25 23v143h-16q-61 -80 -154 -128t-211 -48h-8q-326 0 -326 301v45q0 258 314 258h401v98q0 65 -12.5 109t-43.5 78t-89 50.5t-146 16.5q-187 0 -297 -39q-7 -3 -13.5 1t-8.5 12l-8 45q-3 17 10 20q115 47 309 47h35q185 0 269.5 -82.5t84.5 -251.5v-675
q0 -23 -24 -23h-41zM195 297q0 -115 57 -168t174 -53h59q131 0 232.5 87.5t101.5 194.5v156h-395q-115 0 -172 -41.5t-57 -142.5v-33zM240 1161l217 246q15 16 24 21.5t25 5.5h37q38 0 57 -27l217 -246q9 -12 6 -21.5t-18 -9.5h-45q-11 0 -16 1t-12.5 6t-16.5 16l-176 201
h-21l-176 -201q-12 -16 -21.5 -19.5t-25.5 -3.5h-43q-15 0 -18.5 9.5t6.5 21.5zM530 1724q-11 17 -5 27t24 10h51q18 0 28 -8.5t21 -28.5l154 -235q10 -17 3 -27t-24 -10h-30q-26 0 -52 37z" />
    <glyph glyph-name="uni1EA8" unicode="&#x1ea8;" horiz-adv-x="1187" 
d="M643 1434q25 0 35 -33l424 -1370q8 -31 -23 -31h-41q-15 0 -21 6.5t-11 24.5l-88 286h-648l-88 -286q-5 -18 -11 -24.5t-21 -6.5h-41q-31 0 -23 31l424 1370q10 33 37 33h96zM291 1571l217 246q14 16 23 21t26 5h37q14 0 21.5 -1t17 -7t18.5 -18l217 -246q9 -12 6 -21.5
t-18 -9.5h-45q-11 0 -16 1t-12.5 6t-16.5 16l-176 200h-21l-176 -200q-12 -16 -21.5 -19.5t-25.5 -3.5h-43q-15 0 -18.5 9.5t6.5 21.5zM297 401h594l-287 930h-18zM524 2077v26q0 81 44.5 123.5t123.5 42.5h84q79 0 123.5 -42.5t44.5 -123.5v-59q0 -81 -44.5 -124.5
t-123.5 -43.5h-37q-11 0 -17.5 7.5t-6.5 19.5v20q0 11 7 18t17 7h27q102 0 102 104v43q0 51 -24.5 74.5t-77.5 23.5h-66q-51 0 -74.5 -23.5t-23.5 -74.5v-18q0 -12 -7.5 -19.5t-19.5 -7.5h-24q-12 0 -19.5 7.5t-7.5 19.5z" />
    <glyph glyph-name="uni1EA9" unicode="&#x1ea9;" horiz-adv-x="1044" 
d="M844 0q-25 0 -25 23v143h-16q-61 -80 -154 -128t-211 -48h-8q-326 0 -326 301v45q0 258 314 258h401v98q0 65 -12.5 109t-43.5 78t-89 50.5t-146 16.5q-187 0 -297 -39q-7 -3 -13.5 1t-8.5 12l-8 45q-3 17 10 20q115 47 309 47h35q185 0 269.5 -82.5t84.5 -251.5v-675
q0 -23 -24 -23h-41zM195 297q0 -115 57 -168t174 -53h59q131 0 232.5 87.5t101.5 194.5v156h-395q-115 0 -172 -41.5t-57 -142.5v-33zM240 1161l217 246q15 16 24 21.5t25 5.5h37q38 0 57 -27l217 -246q9 -12 6 -21.5t-18 -9.5h-45q-11 0 -16 1t-12.5 6t-16.5 16l-176 201
h-21l-176 -201q-12 -16 -21.5 -19.5t-25.5 -3.5h-43q-15 0 -18.5 9.5t6.5 21.5zM473 1667v27q0 81 44.5 123.5t123.5 42.5h84q79 0 123.5 -42.5t44.5 -123.5v-60q0 -81 -44.5 -124.5t-123.5 -43.5h-37q-11 0 -17.5 7.5t-6.5 19.5v20q0 11 7 18t17 7h27q102 0 102 104v44
q0 51 -24.5 74.5t-77.5 23.5h-66q-51 0 -74.5 -23.5t-23.5 -74.5v-19q0 -12 -7.5 -19.5t-19.5 -7.5h-24q-12 0 -19.5 7.5t-7.5 19.5z" />
    </font>
</defs>
</svg>
