<?xml version="1.0" standalone="no"?>
<!DOCTYPE svg PUBLIC "-//W3C//DTD SVG 1.1//EN" "http://www.w3.org/Graphics/SVG/1.1/DTD/svg11.dtd" >
<svg xmlns="http://www.w3.org/2000/svg" xmlns:xlink="http://www.w3.org/1999/xlink" version="1.1">
<metadata>
Created by FontForge 20201107 at Thu Jul 31 20:26:50 2025
 By 
Copyright (c) 2022 by Connary Fagen. All rights reserved.
</metadata>
<defs>
<font id="ManifoldCF-Heavy" horiz-adv-x="1341" >
  <font-face 
    font-family="Manifold CF Heavy"
    font-weight="900"
    font-stretch="normal"
    units-per-em="2048"
    panose-1="0 0 0 0 0 0 0 0 0 0"
    ascent="1638"
    descent="-410"
    x-height="1024"
    cap-height="1434"
    bbox="-358.571 -659 2376 2275"
    underline-thickness="102"
    underline-position="-255"
    unicode-range="U+0020-FB02"
  />
<missing-glyph horiz-adv-x="1024" 
d="M840 1638v-2048h-650v2048h650zM342 -268h340v67h-209l143 97h66v67h-340v-67h143l-143 -97v-67zM342 10h340v232h-340v-232zM342 365h340v231h-205v-115h70v47h67v-96h-204v164h-68v-231zM342 641h340v205h-68v-135h-272v-70zM342 758h205v143h135v68h-340v-68h135v-76
h-135v-67zM342 1024h340v70h-135v143h-205v-213zM342 1290h340v68h-135v76h135v67h-338v-67h133v-76h-135v-68zM410 78v96h204v-96h-204zM410 1094v73h67v-73h-67z" />
    <glyph glyph-name="fi" unicode="fi" horiz-adv-x="1296" 
d="M270 0q-32 0 -32 35v725h-138q-32 0 -32 33v198q0 33 32 33h138v68q0 168 84.5 255t269.5 87h145q31 0 31 -31v-205q0 -31 -31 -31h-86q-54 0 -84 -26.5t-30 -75.5v-41h608q33 0 33 -33v-956q0 -35 -33 -35h-234q-32 0 -32 35v725h-342v-725q0 -35 -33 -35h-234z" />
    <glyph glyph-name="fl" unicode="fl" horiz-adv-x="1320" 
d="M270 0q-32 0 -32 35v725h-138q-32 0 -32 33v198q0 33 32 33h138v68q0 168 84.5 255t269.5 87h577q35 0 35 -33v-1366q0 -35 -35 -35h-231q-35 0 -35 35v1132h-252q-54 0 -84 -26.5t-30 -75.5v-41h190q33 0 33 -33v-198q0 -33 -33 -33h-190v-725q0 -35 -33 -35h-234z" />
    <glyph glyph-name=".notdef" horiz-adv-x="1024" 
d="M840 1638v-2048h-650v2048h650zM342 -268h340v67h-209l143 97h66v67h-340v-67h143l-143 -97v-67zM342 10h340v232h-340v-232zM342 365h340v231h-205v-115h70v47h67v-96h-204v164h-68v-231zM342 641h340v205h-68v-135h-272v-70zM342 758h205v143h135v68h-340v-68h135v-76
h-135v-67zM342 1024h340v70h-135v143h-205v-213zM342 1290h340v68h-135v76h135v67h-338v-67h133v-76h-135v-68zM410 78v96h204v-96h-204zM410 1094v73h67v-73h-67z" />
    <glyph glyph-name=".null" horiz-adv-x="0" 
 />
    <glyph glyph-name="nonmarkingreturn" horiz-adv-x="682" 
 />
    <glyph glyph-name="space" unicode=" " horiz-adv-x="409" 
 />
    <glyph glyph-name="space" unicode="&#xa0;" horiz-adv-x="409" 
 />
    <glyph glyph-name="exclam" unicode="!" horiz-adv-x="561" 
d="M160 473q-15 0 -24 9t-9 24v895q0 15 9 24t24 9h241q15 0 24 -9t9 -24v-895q0 -15 -9 -24t-24 -9h-241zM129 33v239q0 15 9 24t24 9h239q15 0 24 -9t9 -24v-239q0 -15 -9 -24t-24 -9h-239q-15 0 -24 9t-9 24z" />
    <glyph glyph-name="quotedbl" unicode="&#x22;" horiz-adv-x="1034" 
d="M635 815q-15 0 -24 9t-9 24v553q0 15 9 24t24 9h233q15 0 24 -9t9 -24v-553q0 -15 -9 -24t-24 -9h-233zM133 848v553q0 15 9 24t24 9h235q15 0 24 -9t9 -24v-553q0 -15 -9 -24t-24 -9h-235q-15 0 -24 9t-9 24z" />
    <glyph glyph-name="numbersign" unicode="#" horiz-adv-x="1249" 
d="M737 0q-32 0 -32 35v282h-158v-282q0 -35 -33 -35h-233q-33 0 -33 35v282h-78q-37 0 -37 37v193q0 37 37 37h78v268h-78q-37 0 -37 37v190q0 37 37 37h78v285q0 33 33 33h233q33 0 33 -33v-285h158v285q0 33 32 33h234q33 0 33 -33v-285h75q37 0 37 -37v-190
q0 -37 -37 -37h-75v-268h75q37 0 37 -37v-193q0 -37 -37 -37h-75v-282q0 -35 -33 -35h-234zM547 584h158v268h-158v-268z" />
    <glyph glyph-name="dollar" unicode="$" horiz-adv-x="1009" 
d="M455 123q-25 0 -25 24v142q-158 5 -243 64.5t-85 199.5q0 14 9 23.5t24 9.5h164q14 0 24 -9t11 -22q7 -29 30.5 -37t65.5 -8v178q-64 11 -110.5 24.5t-89 36t-68.5 52t-41 72.5t-15 98q0 79 24 135.5t69.5 89t101.5 48t129 18.5v147q0 25 25 25h102q25 0 25 -25v-147
q307 -20 307 -289q0 -33 -33 -33h-160q-34 0 -37 31q-9 37 -25 51.5t-52 17.5v-186q163 -29 244 -90.5t81 -188.5q0 -79 -25 -134.5t-71.5 -86.5t-101.5 -45.5t-127 -17.5v-144q0 -24 -25 -24h-102zM340 956q0 -34 18 -49.5t72 -25.5v159q-51 -3 -70.5 -21t-19.5 -63z
M582 510q48 3 70 19.5t22 56.5q0 36 -22 53t-70 25v-154z" />
    <glyph glyph-name="percent" unicode="%" horiz-adv-x="1720" 
d="M285 807q-92 0 -147.5 55.5t-55.5 157.5v201q0 102 55.5 157.5t147.5 55.5h190q92 0 147.5 -55.5t55.5 -157.5v-201q0 -102 -55.5 -157.5t-147.5 -55.5h-190zM287 35l864 1368q10 17 18.5 24t22.5 7h223q16 0 22.5 -9t-1.5 -24l-865 -1368q-20 -33 -43 -33h-221
q-16 0 -22 10t2 25zM299 1063q0 -21 10 -33t23 -12h90q13 0 23 12t10 33v115q0 21 -10 33t-23 12h-90q-13 0 -23 -12t-10 -33v-115zM1042 215v199q0 102 55.5 158.5t147.5 56.5h191q91 0 146.5 -56.5t55.5 -158.5v-199q0 -102 -55.5 -158.5t-146.5 -56.5h-191
q-92 0 -147.5 56.5t-55.5 158.5zM1266 258q0 -21 10 -33t24 -12h91q11 0 20.5 12.5t9.5 32.5v113q0 20 -9.5 32.5t-20.5 12.5h-91q-14 0 -24 -12t-10 -33v-113z" />
    <glyph glyph-name="ampersand" unicode="&#x26;" horiz-adv-x="1529" 
d="M526 -10q-199 0 -298 93.5t-99 289.5v102q0 77 43.5 149t118.5 103l59 25l-49 41q-55 48 -72.5 96.5t-17.5 130.5v100q0 52 9 95.5t35 87t67.5 73.5t111.5 49t162 19h149q91 0 161 -20t110.5 -51t66 -75.5t34.5 -86t9 -89.5v-123q0 -32 -34 -32h-232q-35 0 -35 32v121
q0 24 -23 41t-63 17h-139q-43 0 -66.5 -18t-23.5 -46v-100q0 -28 0.5 -36.5t6 -26t18.5 -32t38 -36.5l398 -351v250q0 37 37 37h383q36 0 36 -37v-180q0 -37 -36 -37h-148v-192q0 -188 -95.5 -285.5t-281.5 -97.5h-340zM428 403q0 -77 33.5 -111t126.5 -34h233q68 0 94 10
l-387 326l-24 -8q-28 -10 -45 -26t-23 -44t-7 -41.5t-1 -50.5v-21z" />
    <glyph glyph-name="quotesingle" unicode="'" horiz-adv-x="567" 
d="M166 815q-15 0 -24 9t-9 24v553q0 15 9 24t24 9h235q15 0 24 -9t9 -24v-553q0 -15 -9 -24t-24 -9h-235z" />
    <glyph glyph-name="parenleft" unicode="(" horiz-adv-x="749" 
d="M459 -143q-155 0 -250.5 103.5t-95.5 264.5v1039q0 160 95.5 263t250.5 103h147q31 0 31 -31v-245q0 -31 -31 -31h-26q-103 0 -131.5 -37t-28.5 -162v-762q0 -125 28.5 -161.5t131.5 -36.5h26q31 0 31 -31v-246q0 -30 -31 -30h-147z" />
    <glyph glyph-name="parenright" unicode=")" horiz-adv-x="749" 
d="M143 -143q-30 0 -30 30v246q0 31 30 31h27q103 0 131.5 36.5t28.5 161.5v762q0 125 -28.5 162t-131.5 37h-27q-30 0 -30 31v245q0 31 30 31h148q155 0 250.5 -103t95.5 -263v-1039q0 -161 -95.5 -264.5t-250.5 -103.5h-148z" />
    <glyph glyph-name="asterisk" unicode="*" horiz-adv-x="759" 
d="M346 907q-19 0 -31.5 14t-11.5 35l6 123l-100 -71q-43 -27 -64 14l-32 55q-13 20 -9.5 41t23.5 31l109 61l-109 62q-20 10 -23.5 30.5t9.5 38.5l32 56q21 41 64 14l100 -72l-6 123q-1 21 11.5 35t31.5 14h66q23 0 35.5 -12.5t9.5 -36.5l-4 -123l100 76q33 23 61 -18
l35 -56q12 -19 7.5 -38.5t-23.5 -30.5l-111 -62l111 -61q19 -10 23.5 -32.5t-7.5 -39.5l-35 -55q-26 -40 -65 -14l-96 71l4 -123q3 -23 -10 -36t-35 -13h-66z" />
    <glyph glyph-name="plus" unicode="+" horiz-adv-x="1054" 
d="M408 236q-33 0 -33 32v250h-240q-15 0 -24 9t-9 24v225q0 15 9 24t24 9h240v246q0 30 33 30h241q33 0 33 -30v-246h242q28 0 28 -33v-225q0 -33 -30 -33h-240v-250q0 -32 -33 -32h-241z" />
    <glyph glyph-name="comma" unicode="," horiz-adv-x="518" 
d="M84 -352q-15 0 -24 9t-9 24v184q0 15 9 24t24 9h100v374q0 15 9 24t24 9h197q32 0 32 -33v-542q0 -40 -22 -61t-62 -21h-278z" />
    <glyph glyph-name="hyphen" unicode="-" horiz-adv-x="860" 
d="M139 385q-37 0 -37 37v192q0 37 37 37h582q37 0 37 -37v-192q0 -37 -37 -37h-582z" />
    <glyph glyph-name="period" unicode="." horiz-adv-x="448" 
d="M104 0q-32 0 -32 33v239q0 33 32 33h240q15 0 24 -9t9 -24v-239q0 -15 -9 -24t-24 -9h-240z" />
    <glyph glyph-name="slash" unicode="/" horiz-adv-x="1044" 
d="M78 -70q-15 0 -22 10t-1 25l631 1508q12 30 43 30h240q15 0 20.5 -9t-0.5 -24l-631 -1509q-12 -31 -43 -31h-237z" />
    <glyph glyph-name="zero" unicode="0" horiz-adv-x="1288" 
d="M547 -10q-217 0 -317.5 111.5t-100.5 312.5v606q0 201 100.5 312.5t317.5 111.5h196q217 0 317.5 -111.5t100.5 -312.5v-606q0 -201 -100.5 -312.5t-317.5 -111.5h-196zM428 416q0 -89 35.5 -123.5t101.5 -34.5h158q67 0 102 34.5t35 123.5v604q0 87 -35 122.5t-102 35.5
h-158q-65 0 -101 -35.5t-36 -122.5v-604z" />
    <glyph glyph-name="one" unicode="1" horiz-adv-x="737" 
d="M344 0q-35 0 -35 35v1134h-200q-37 0 -37 37v191q0 37 37 37h466q35 0 35 -33v-1366q0 -35 -35 -35h-231z" />
    <glyph glyph-name="two" unicode="2" horiz-adv-x="1253" 
d="M133 0q-31 0 -31 31v202q0 95 11 160.5t42.5 127.5t93 108t157.5 82l311 114q29 10 50 21.5t36 20.5t24.5 24.5t15 23.5t7.5 29t2.5 29t0 36t-0.5 38q0 62 -33 96.5t-94 34.5h-156q-73 0 -110 -36.5t-37 -127.5q0 -33 -33 -33h-233q-33 0 -33 33v43q0 197 105 292t339 95
h174q113 0 195.5 -32t127.5 -89t66 -125t21 -151t-3.5 -136t-15.5 -102.5t-31 -79t-55 -59t-82.5 -51t-117.5 -46.5l-250 -88q-102 -35 -143 -70.5t-41 -95.5v-53h690q37 0 37 -37v-192q0 -37 -37 -37h-969z" />
    <glyph glyph-name="three" unicode="3" horiz-adv-x="1218" 
d="M543 -10q-234 0 -339.5 95.5t-105.5 291.5v43q0 35 33 35h234q32 0 32 -35q0 -90 37.5 -127t110.5 -37h145q61 0 96 35.5t35 97.5q0 55 -5 88t-22 64t-53.5 45t-95.5 14h-102q-37 0 -37 37v190q0 37 37 37h102q33 0 58 5.5t41.5 13t27.5 23t17 27t8.5 33.5t3 34t0.5 38v9
q0 61 -35.5 96t-97.5 35h-107q-73 0 -110 -36.5t-37 -127.5q0 -33 -33 -33h-234q-32 0 -32 33v43q0 197 105 292t339 95h125q113 0 196.5 -32t130.5 -89t69 -125.5t22 -150.5q0 -78 -14 -131.5t-44 -87.5t-68.5 -53t-96.5 -32v-22q62 -13 100.5 -30t73.5 -52.5t51 -96.5
t16 -153q0 -65 -12.5 -122t-42.5 -108.5t-76 -88.5t-118 -58.5t-164 -21.5h-164z" />
    <glyph glyph-name="four" unicode="4" horiz-adv-x="1163" 
d="M190 326q-13 0 -21 6.5t-17 23.5l-80 181q-9 21 -9 27.5t9 29.5l442 807q17 33 51 33h250q21 0 27.5 -14t-4.5 -34l-437 -796h254v207q0 32 35 32h232q34 0 34 -32v-207h78q37 0 37 -37v-191q0 -19 -8.5 -27.5t-28.5 -8.5h-78v-291q0 -35 -34 -35h-232q-35 0 -35 35v291
h-465z" />
    <glyph glyph-name="five" unicode="5" horiz-adv-x="1224" 
d="M549 -10q-235 0 -341 95.5t-106 291.5v43q0 35 35 35h232q34 0 34 -35q0 -89 37 -126.5t109 -37.5h143q67 0 101 34t34 124v118q0 89 -38.5 124.5t-106.5 35.5h-127q-61 0 -92.5 -24.5t-50.5 -65.5h-262q-36 0 -33 37l73 764q3 31 31 31h780q37 0 37 -37v-191
q0 -37 -37 -37h-550l-35 -299h16q24 36 91 62t145 26h65q96 0 168 -24.5t114.5 -64t68.5 -98t35 -116.5t9 -129v-112q0 -99 -21.5 -174t-69.5 -132.5t-130.5 -87.5t-197.5 -30h-160z" />
    <glyph glyph-name="six" unicode="6" horiz-adv-x="1255" 
d="M551 -10q-216 0 -319 112.5t-103 311.5v630q0 65 12.5 121.5t42 108.5t75.5 89t117.5 59t162.5 22h141q236 0 341 -78.5t105 -243.5v-26q0 -33 -32 -33h-234q-33 0 -33 33q0 24 -7 40t-15.5 24.5t-30 12.5t-35.5 4.5t-46 0.5h-17h-123q-60 0 -92.5 -35t-32.5 -96v-201h18
q25 33 91 58.5t131 25.5h96q96 0 168 -25t114 -64t68 -97.5t34.5 -116.5t8.5 -129v-84q0 -199 -103 -311.5t-319 -112.5h-184zM428 414q0 -88 38.5 -122t106.5 -34h140q69 0 107 34t38 122v90q0 89 -38 123.5t-107 34.5h-140q-68 0 -106.5 -35t-38.5 -123v-90z" />
    <glyph glyph-name="seven" unicode="7" horiz-adv-x="1130" 
d="M172 0q-19 0 -27.5 16.5t-5.5 32.5q133 587 609 1102v18h-619q-37 0 -37 37v191q0 37 37 37h897q33 0 33 -33v-232q0 -49 -41 -92q-233 -258 -373 -504.5t-205 -535.5q-3 -14 -17.5 -25.5t-27.5 -11.5h-223z" />
    <glyph glyph-name="eight" unicode="8" horiz-adv-x="1286" 
d="M551 -10q-215 0 -318.5 109.5t-103.5 297.5v74q0 121 38.5 197t121.5 114q-113 68 -113 271q0 197 97 294t309 97h123q212 0 308.5 -97t96.5 -294q0 -203 -113 -271q83 -38 121.5 -113t38.5 -196v-76q0 -188 -103.5 -297.5t-318.5 -109.5h-184zM428 397q0 -77 39 -108
t106 -31h140q69 0 107 30.5t38 108.5v76q0 87 -38 120.5t-107 33.5h-140q-68 0 -106.5 -33.5t-38.5 -120.5v-76zM461 1053q0 -31 4 -52t17.5 -42.5t43.5 -32.5t76 -11h80q47 0 77.5 11t43.5 32.5t17.5 42.5t4.5 52q0 32 -4.5 52.5t-18 42t-43.5 32t-77 10.5h-78
q-47 0 -77 -10.5t-43.5 -32t-18 -42t-4.5 -52.5z" />
    <glyph glyph-name="nine" unicode="9" horiz-adv-x="1255" 
d="M705 1444q216 0 318.5 -112t102.5 -312v-631q0 -82 -20.5 -150.5t-66 -126t-127.5 -90t-195 -32.5h-142q-236 0 -341 78t-105 243v27q0 33 33 33h233q33 0 33 -33q0 -24 7 -40t15.5 -24.5t30.5 -12.5t36 -4.5t46 -0.5h17h122q60 0 92.5 35t32.5 96v201h-18
q-25 -33 -90.5 -58.5t-130.5 -25.5h-96q-81 0 -144.5 16.5t-105.5 47.5t-71 70t-44.5 90t-22 100t-6.5 108v84q0 199 103 311.5t319 112.5h185zM397 930q0 -89 38.5 -123.5t107.5 -34.5h139q68 0 106.5 35t38.5 123v90q0 88 -38.5 122t-106.5 34h-139q-69 0 -107.5 -34
t-38.5 -122v-90z" />
    <glyph glyph-name="colon" unicode=":" horiz-adv-x="448" 
d="M104 0q-32 0 -32 33v239q0 33 32 33h240q15 0 24 -9t9 -24v-239q0 -15 -9 -24t-24 -9h-240zM72 752v239q0 33 32 33h240q15 0 24 -9t9 -24v-239q0 -15 -9 -24t-24 -9h-240q-32 0 -32 33z" />
    <glyph glyph-name="semicolon" unicode=";" horiz-adv-x="563" 
d="M104 -352q-32 0 -32 33v184q0 33 32 33h101v374q0 15 9 24t24 9h196q15 0 24 -9t9 -24v-542q0 -40 -22 -61t-62 -21h-279zM186 752v239q0 15 9 24t24 9h240q15 0 24 -9t9 -24v-239q0 -15 -9 -24t-24 -9h-240q-15 0 -24 9t-9 24z" />
    <glyph glyph-name="less" unicode="&#x3c;" horiz-adv-x="958" 
d="M147 313q-27 12 -36 48t-9 122t9 123t36 49l676 263q13 6 23 0.5t10 -19.5v-240q0 -40 -29 -49l-370 -127l370 -125q29 -12 29 -49v-239q0 -15 -9.5 -20.5t-23.5 -0.5z" />
    <glyph glyph-name="equal" unicode="=" horiz-adv-x="1060" 
d="M135 713q-33 0 -33 32v226q0 15 9 24t24 9h793q30 0 30 -33v-226q0 -32 -32 -32h-791zM102 356v226q0 32 33 32h793q30 0 30 -32v-226q0 -32 -32 -32h-791q-33 0 -33 32z" />
    <glyph glyph-name="greater" unicode="&#x3e;" horiz-adv-x="958" 
d="M135 49q-14 -5 -23.5 0.5t-9.5 20.5v239q0 37 29 49l371 125l-371 127q-29 9 -29 49v240q0 14 10 19.5t23 -0.5l676 -263q27 -12 36 -49t9 -123t-9 -122t-36 -48z" />
    <glyph glyph-name="question" unicode="?" horiz-adv-x="1179" 
d="M465 473q-15 0 -24 9t-9 24v153q0 92 44 131.5t196 108.5q29 14 45 21q30 15 48 30.5t24.5 35t8 30.5t1.5 35q0 59 -33 91t-94 32h-152q-72 0 -105.5 -34.5t-33.5 -125.5q0 -33 -33 -33h-242q-34 0 -34 33v43q0 197 105.5 292t340.5 95h172q114 0 197.5 -32t130.5 -88.5
t68.5 -124t21.5 -148.5q0 -42 -4 -78t-10 -64t-18 -52.5t-22 -41.5t-29 -34.5t-32 -27.5t-37 -23t-39 -20t-43.5 -20t-44.5 -20q-1 -1 -11 -6.5t-14 -8t-14 -9.5t-14.5 -11.5t-12 -13t-11 -16t-6.5 -17.5t-3 -21v-61q0 -33 -32 -33h-246zM434 33v239q0 15 9 24t24 9h240
q32 0 32 -33v-239q0 -33 -32 -33h-240q-15 0 -24 9t-9 24z" />
    <glyph glyph-name="at" unicode="@" horiz-adv-x="1671" 
d="M719 -129q-293 0 -441.5 121t-148.5 354v506q0 230 143.5 351.5t417.5 121.5h301q273 0 413 -120t140 -351v-350q0 -120 -77.5 -186t-213.5 -66q-65 0 -113 17.5t-70 37.5t-46 53q-7 -8 -23.5 -27t-24 -27t-25 -21t-33.5 -19t-42 -11t-57 -5h-61q-126 0 -177 52.5
t-51 164.5v244q0 107 51.5 159t176.5 52h325q28 0 43 -15t15 -41v-350q0 -65 86 -65q50 0 69 15.5t19 49.5v301q0 78 -22.5 135t-54 86.5t-79.5 46.5t-83.5 21t-80.5 4h-309q-46 0 -82.5 -4t-85.5 -21.5t-82 -47t-56.5 -87t-23.5 -135.5v-442q0 -73 26.5 -128t64.5 -84
t90.5 -47t93 -23t84.5 -5h80q159 0 288 35v-191q-123 -59 -288 -59h-76zM754 479q0 -28 43 -28h61q27 0 43.5 17.5t16.5 51.5v213h-123q-41 0 -41 -47v-207z" />
    <glyph glyph-name="A" unicode="A" horiz-adv-x="1302" 
d="M850 1434q31 0 41 -33l344 -1360q4 -17 -5 -29t-24 -12h-241q-30 0 -41 41l-43 174h-457l-43 -174q-11 -41 -41 -41h-242q-17 0 -25 12t-3 29l344 1360q10 33 39 33h397zM487 479h328l-147 604h-33z" />
    <glyph glyph-name="B" unicode="B" horiz-adv-x="1259" 
d="M162 0q-15 0 -24 9t-9 24v1368q0 15 9 24t24 9h561q208 0 301.5 -90.5t93.5 -288.5q0 -113 -35 -178t-125 -111v-18q98 -38 151.5 -110.5t53.5 -166.5v-92q0 -203 -103 -291t-333 -88h-565zM436 274h266q79 0 116.5 26.5t37.5 96.5v80q0 72 -38.5 103.5t-115.5 31.5h-266
v-338zM436 854h238q66 0 101.5 24.5t35.5 100.5v55q0 42 -9.5 68t-30.5 38t-42 15.5t-55 3.5h-238v-305z" />
    <glyph glyph-name="C" unicode="C" horiz-adv-x="1316" 
d="M547 -10q-217 0 -317.5 111.5t-100.5 312.5v606q0 201 100.5 312.5t317.5 111.5h241q223 0 321.5 -109.5t98.5 -320.5v-13q0 -17 -9.5 -26.5t-24.5 -9.5h-236q-37 0 -37 36q0 96 -38 132t-105 36h-185q-67 0 -102 -34.5t-35 -122.5v-590q0 -89 35 -123.5t102 -34.5h185
q67 0 105 35.5t38 130.5q0 37 37 37h236q15 0 24.5 -10t9.5 -27v-12q0 -209 -98.5 -318.5t-321.5 -109.5h-241z" />
    <glyph glyph-name="D" unicode="D" horiz-adv-x="1310" 
d="M162 0q-15 0 -24 9t-9 24v1368q0 15 9 24t24 9h604q217 0 317.5 -111.5t100.5 -312.5v-586q0 -201 -100.5 -312.5t-317.5 -111.5h-604zM436 274h303q68 0 103 34.5t35 123.5v569q0 88 -35.5 123t-102.5 35h-303v-885z" />
    <glyph glyph-name="E" unicode="E" horiz-adv-x="1095" 
d="M160 0q-31 0 -31 33v1368q0 33 31 33h825q31 0 31 -33v-209q0 -33 -31 -33h-549v-309h504q31 0 31 -33v-201q0 -32 -31 -32h-504v-310h561q33 0 33 -32v-209q0 -15 -9 -24t-24 -9h-837z" />
    <glyph glyph-name="F" unicode="F" horiz-adv-x="1083" 
d="M162 0q-15 0 -24 9t-9 24v1368q0 15 9 24t24 9h823q31 0 31 -33v-209q0 -33 -31 -33h-549v-309h508q15 0 24 -9t9 -24v-201q0 -32 -33 -32h-508v-551q0 -15 -9 -24t-24 -9h-241z" />
    <glyph glyph-name="G" unicode="G" horiz-adv-x="1337" 
d="M547 -10q-217 0 -317.5 111.5t-100.5 312.5v606q0 201 100.5 312.5t317.5 111.5h241q223 0 320.5 -109.5t97.5 -320.5v-13q0 -17 -10 -26.5t-25 -9.5h-235q-37 0 -37 36q0 96 -37 132t-104 36h-185q-67 0 -102 -34.5t-35 -122.5v-590q0 -89 35 -123.5t102 -34.5h191
q67 0 102 34.5t35 123.5v162h-246q-32 0 -32 32v201q0 33 32 33h508q45 0 45 -45v-391q0 -201 -100 -312.5t-317 -111.5h-244z" />
    <glyph glyph-name="H" unicode="H" horiz-adv-x="1310" 
d="M905 0q-15 0 -24 9t-9 24v551h-434v-551q0 -33 -32 -33h-244q-15 0 -24 9t-9 24v1368q0 15 9 24t24 9h244q32 0 32 -33v-551h434v551q0 15 9 24t24 9h246q15 0 24 -9t9 -24v-1368q0 -15 -9 -24t-24 -9h-246z" />
    <glyph glyph-name="I" unicode="I" horiz-adv-x="563" 
d="M162 0q-15 0 -24 9t-9 24v1368q0 15 9 24t24 9h241q15 0 24 -9t9 -24v-1368q0 -15 -9 -24t-24 -9h-241z" />
    <glyph glyph-name="J" unicode="J" horiz-adv-x="798" 
d="M109 -10q-31 0 -31 33v208q0 33 31 33h118q68 0 103 34.5t35 123.5v979q0 33 32 33h242q15 0 24 -9t9 -24v-987q0 -201 -100.5 -312.5t-317.5 -111.5h-145z" />
    <glyph glyph-name="K" unicode="K" horiz-adv-x="1316" 
d="M162 0q-15 0 -24 9t-9 24v1368q0 15 9 24t24 9h241q15 0 24 -9t9 -24v-549l432 547q27 35 64 35h270q20 0 25 -17t-13 -39l-464 -573l491 -750q8 -12 8 -33.5t-18 -21.5h-279q-40 0 -57 29l-344 532l-115 -141v-387q0 -15 -9 -24t-24 -9h-241z" />
    <glyph glyph-name="L" unicode="L" horiz-adv-x="1054" 
d="M160 0q-31 0 -31 33v1368q0 15 9 24t24 9h241q15 0 24 -9t9 -24v-1127h510q33 0 33 -32v-209q0 -15 -9 -24t-24 -9h-786z" />
    <glyph glyph-name="M" unicode="M" horiz-adv-x="1640" 
d="M162 0q-15 0 -24 9t-9 24v1368q0 15 9 24t24 9h426q16 0 28 -8.5t15 -22.5l182 -1028h14l185 1028q1 14 14 22.5t29 8.5h426q32 0 32 -33v-1368q0 -33 -32 -33h-242q-15 0 -24 9t-9 24v995h-20l-170 -997q-6 -31 -39 -31h-311q-14 0 -26 8.5t-13 22.5l-172 997h-19v-995
q0 -15 -9 -24t-24 -9h-241z" />
    <glyph glyph-name="N" unicode="N" horiz-adv-x="1382" 
d="M162 0q-15 0 -24 9t-9 24v1368q0 15 9 24t24 9h401q28 0 37 -23l328 -1005h20v995q0 15 9 24t24 9h242q32 0 32 -33v-1368q0 -33 -32 -33h-402q-31 0 -37 23l-329 1005h-19v-995q0 -15 -9 -24t-24 -9h-241z" />
    <glyph glyph-name="O" unicode="O" 
d="M547 -10q-217 0 -317.5 111.5t-100.5 312.5v606q0 201 100.5 312.5t317.5 111.5h250q217 0 317 -111.5t100 -312.5v-606q0 -201 -100 -312.5t-317 -111.5h-250zM436 422q0 -89 35 -123.5t102 -34.5h197q67 0 102 34.5t35 123.5v590q0 88 -35 122.5t-102 34.5h-197
q-67 0 -102 -34.5t-35 -122.5v-590z" />
    <glyph glyph-name="P" unicode="P" horiz-adv-x="1280" 
d="M162 0q-15 0 -24 9t-9 24v1368q0 15 9 24t24 9h588q110 0 192 -31t132.5 -88.5t75 -135t24.5 -173.5v-228q0 -96 -24.5 -173.5t-75 -135t-132.5 -88.5t-192 -31h-314v-317q0 -15 -9 -24t-24 -9h-241zM436 625h287q68 0 105.5 36t37.5 125v211q0 162 -143 162h-287v-534z
" />
    <glyph glyph-name="Q" unicode="Q" 
d="M551 -197q-15 0 -24 9t-9 24v154q-389 14 -389 424v606q0 201 100.5 312.5t317.5 111.5h250q217 0 317 -111.5t100 -312.5v-606q0 -410 -389 -424v-154q0 -33 -32 -33h-242zM436 422q0 -89 35 -123.5t102 -34.5h197q67 0 102 34.5t35 123.5v590q0 88 -35 122.5t-102 34.5
h-197q-67 0 -102 -34.5t-35 -122.5v-590z" />
    <glyph glyph-name="R" unicode="R" horiz-adv-x="1286" 
d="M162 0q-15 0 -24 9t-9 24v1368q0 15 9 24t24 9h588q110 0 192 -31t132.5 -88.5t75 -135t24.5 -173.5v-228q0 -247 -152 -358l143 -367q10 -24 0 -38.5t-37 -14.5h-219q-45 0 -57 35l-127 327q-54 -12 -123 -12h-166v-317q0 -15 -9 -24t-24 -9h-241zM436 625h287
q68 0 105.5 36t37.5 125v211q0 162 -143 162h-287v-534z" />
    <glyph glyph-name="S" unicode="S" horiz-adv-x="1255" 
d="M512 -10q-211 0 -312.5 100.5t-101.5 282.5q0 47 43 47h215q44 0 50 -47q8 -61 46 -85t105 -24h133q34 0 60 6t50 22.5t37 50t13 83.5q0 90 -37.5 126.5t-132.5 45.5l-111 12q-88 11 -152 26.5t-125.5 47.5t-99 78t-60.5 119t-23 170q0 393 421 393h177
q202 0 307.5 -101.5t105.5 -281.5q0 -47 -43 -47h-215q-43 0 -49 47q-9 58 -41 83t-94 25h-123q-139 0 -139 -133q0 -35 4 -58t18 -50t46.5 -43t82.5 -21l113 -12q62 -7 108.5 -15t99 -23t90 -35t73.5 -52t57.5 -73t35 -99t13.5 -129q0 -223 -101 -329.5t-323 -106.5h-221z
" />
    <glyph glyph-name="T" unicode="T" horiz-adv-x="1132" 
d="M446 0q-32 0 -32 33v1126h-295q-31 0 -31 33v209q0 33 31 33h895q15 0 24 -9t9 -24v-209q0 -15 -9 -24t-24 -9h-293v-1126q0 -15 -9 -24t-24 -9h-242z" />
    <glyph glyph-name="U" unicode="U" 
d="M547 -10q-217 0 -317.5 111.5t-100.5 312.5v987q0 15 9 24t24 9h241q15 0 24 -9t9 -24v-979q0 -89 35 -123.5t102 -34.5h197q67 0 102 34.5t35 123.5v979q0 15 9 24t24 9h242q32 0 32 -33v-987q0 -201 -100 -312.5t-317 -111.5h-250z" />
    <glyph glyph-name="V" unicode="V" horiz-adv-x="1302" 
d="M453 0q-29 0 -39 33l-344 1360q-5 17 3 29t25 12h242q30 0 41 -41l254 -1043h33l256 1043q11 41 41 41h241q15 0 24 -12t5 -29l-344 -1360q-10 -33 -41 -33h-397z" />
    <glyph glyph-name="W" unicode="W" horiz-adv-x="1959" 
d="M375 0q-14 0 -25 9t-14 24l-270 1360q-2 18 5.5 29.5t22.5 11.5h242q15 0 27.5 -12t13.5 -29l194 -1041h31l211 1041q1 17 13.5 29t27.5 12h252q14 0 27 -12.5t16 -28.5l209 -1041h31l194 1041q3 17 14.5 29t26.5 12h242q17 0 24 -11.5t4 -29.5l-268 -1360
q-3 -15 -15 -24t-26 -9h-399q-14 0 -26 9.5t-13 23.5l-154 868h-26l-152 -868q-3 -15 -15 -24t-26 -9h-399z" />
    <glyph glyph-name="X" unicode="X" horiz-adv-x="1241" 
d="M121 0q-19 0 -26 10.5t1 30.5l367 676l-365 676q-9 19 0 30t29 11h246q29 0 43 -29l196 -389h21l196 389q15 29 43 29h250q19 0 26 -10.5t-1 -30.5l-365 -676l367 -676q8 -20 1 -30.5t-26 -10.5h-247q-29 0 -41 29l-203 389h-21l-202 -389q-10 -17 -17.5 -23t-23.5 -6
h-248z" />
    <glyph glyph-name="Y" unicode="Y" horiz-adv-x="1259" 
d="M72 1395q-9 20 -1.5 29.5t27.5 9.5h244q32 0 45 -31l234 -537h18l233 537q13 31 48 31h243q44 0 27 -39l-406 -877v-485q0 -33 -32 -33h-242q-15 0 -24 9t-9 24v485z" />
    <glyph glyph-name="Z" unicode="Z" horiz-adv-x="1095" 
d="M119 0q-31 0 -31 33v207q0 49 29 92l565 811v16h-555q-15 0 -24 9t-9 24v209q0 15 9 24t24 9h850q15 0 24 -9t9 -24v-205q0 -52 -29 -92l-569 -809v-21h567q31 0 31 -32v-209q0 -33 -31 -33h-860z" />
    <glyph glyph-name="bracketleft" unicode="[" horiz-adv-x="755" 
d="M160 -143q-31 0 -31 30v1712q0 31 31 31h450q15 0 24 -9t9 -24v-235q0 -15 -9 -24t-24 -9h-174v-1169h174q15 0 24 -9t9 -24v-238q0 -32 -33 -32h-450z" />
    <glyph glyph-name="backslash" unicode="\" horiz-adv-x="1044" 
d="M729 -70q-31 0 -43 31l-631 1509q-6 15 0 24t21 9h239q31 0 43 -30l631 -1508q6 -15 -0.5 -25t-21.5 -10h-238z" />
    <glyph glyph-name="bracketright" unicode="]" horiz-adv-x="755" 
d="M145 -143q-32 0 -32 32v238q0 33 32 33h174v1169h-174q-32 0 -32 33v235q0 33 32 33h451q31 0 31 -31v-1712q0 -30 -31 -30h-451z" />
    <glyph glyph-name="asciicircum" unicode="^" horiz-adv-x="987" 
d="M127 932q-16 0 -22 8t1 23l220 493q14 31 41 31h256q27 0 41 -31l217 -493q8 -15 1.5 -23t-22.5 -8h-256q-28 0 -41 31l-69 180l-68 -180q-16 -31 -41 -31h-258z" />
    <glyph glyph-name="underscore" unicode="_" horiz-adv-x="1249" 
d="M139 -266q-37 0 -37 37v192q0 37 37 37h971q37 0 37 -37v-192q0 -37 -37 -37h-971z" />
    <glyph glyph-name="grave" unicode="`" horiz-adv-x="671" 
d="M342 1124q-22 0 -51 37l-185 236q-12 17 -4 27t27 10h303q23 0 41 -37l90 -236q15 -37 -20 -37h-201z" />
    <glyph glyph-name="a" unicode="a" horiz-adv-x="1091" 
d="M707 0q-33 0 -33 35v86h-25q-54 -64 -110.5 -97.5t-143.5 -33.5h-18q-142 0 -215.5 79.5t-73.5 221.5v71q0 135 77 198t245 63h264v45q0 56 -44 80t-155 24q-123 0 -209 -22q-35 -8 -43 26l-30 164q-7 29 24 43q133 49 324 49h57q375 0 375 -350v-647q0 -35 -33 -35h-233
zM381 303q0 -57 74 -57h100q119 0 119 110v58h-221q-36 0 -54 -14t-18 -56v-41z" />
    <glyph glyph-name="b" unicode="b" horiz-adv-x="1110" 
d="M662 -10q-78 0 -128 24.5t-90 69.5h-26v-49q0 -35 -33 -35h-233q-33 0 -33 35v1366q0 33 33 33h233q33 0 33 -33v-463h26q40 45 90 69.5t128 24.5h14q338 0 338 -346v-350q0 -168 -83.5 -257t-254.5 -89h-14zM418 365q0 -52 28 -79.5t70 -27.5h102q39 0 67 27.5t28 76.5
v297q0 50 -28 78.5t-67 28.5h-102q-42 0 -70 -28t-28 -81v-292z" />
    <glyph glyph-name="c" unicode="c" horiz-adv-x="1054" 
d="M528 -10q-430 0 -430 360v322q0 360 379 360h121q181 0 275 -93.5t94 -256.5v-16q0 -33 -33 -33h-219q-33 0 -33 33v16q0 42 -27.5 63t-72.5 21h-88q-43 0 -70 -23.5t-27 -74.5v-285q0 -68 34 -100.5t106 -32.5h16q76 0 112.5 12.5t61.5 52.5q17 28 47 15l160 -74
q35 -15 22 -45q-28 -65 -73 -110.5t-101.5 -68.5t-112.5 -32.5t-122 -9.5h-19z" />
    <glyph glyph-name="d" unicode="d" horiz-adv-x="1110" 
d="M436 -10q-338 0 -338 346v350q0 346 338 346h13q80 0 129.5 -24t89.5 -70h24v463q0 33 35 33h231q35 0 35 -33v-1366q0 -35 -35 -35h-231q-35 0 -35 35v49h-24q-40 -46 -89.5 -70t-129.5 -24h-13zM397 362q0 -48 29 -76t68 -28h102q42 0 69 27.5t27 79.5v292q0 53 -27 81
t-69 28h-102q-39 0 -68 -28.5t-29 -78.5v-297z" />
    <glyph glyph-name="e" unicode="e" horiz-adv-x="1064" 
d="M537 -10q-235 0 -337 95t-102 265v322q0 360 381 360h109q197 0 289 -95t92 -267v-213q0 -66 -70 -66h-502v-41q0 -49 38 -79.5t112 -30.5h20q96 0 147 10t99 33q30 13 47 -15l68 -104q19 -25 4 -43q-60 -59 -159.5 -95t-203.5 -36h-32zM397 606h271v62q0 52 -27 75
t-68 23h-79q-97 0 -97 -96v-64z" />
    <glyph glyph-name="f" unicode="f" horiz-adv-x="825" 
d="M270 0q-32 0 -32 35v725h-138q-32 0 -32 33v198q0 33 32 33h138v68q0 168 84.5 255t269.5 87h145q31 0 31 -31v-205q0 -31 -31 -31h-86q-54 0 -84 -26.5t-30 -75.5v-41h190q33 0 33 -33v-198q0 -33 -33 -33h-190v-725q0 -35 -33 -35h-234z" />
    <glyph glyph-name="g" unicode="g" horiz-adv-x="1099" 
d="M543 -379q-104 0 -187 17q-51 12 -51 53v139q0 21 13 33.5t38 11.5q63 -4 185 -4q151 0 151 125v88h-24q-40 -46 -89.5 -70t-129.5 -24h-13q-338 0 -338 346v350q0 346 338 346h13q80 0 129.5 -24t89.5 -70h24v53q0 16 10 24.5t21 8.5h235q35 0 35 -33v-995
q0 -206 -107.5 -290.5t-342.5 -84.5zM397 362q0 -48 29 -76t68 -28h102q42 0 69 27.5t27 79.5v292q0 53 -27 81t-69 28h-102q-39 0 -68 -28.5t-29 -78.5v-297z" />
    <glyph glyph-name="h" unicode="h" horiz-adv-x="1130" 
d="M152 0q-33 0 -33 35v1366q0 33 33 33h233q33 0 33 -33v-477h33q30 52 91.5 80t141.5 28h18q166 0 239 -87t73 -259v-651q0 -16 -10 -25.5t-21 -9.5h-235q-35 0 -35 35v622q0 52 -25.5 80.5t-64.5 28.5h-99q-46 0 -76 -28.5t-30 -82.5v-620q0 -35 -33 -35h-233z" />
    <glyph glyph-name="i" unicode="i" horiz-adv-x="534" 
d="M152 1151q-33 0 -33 33v217q0 33 33 33h231q33 0 33 -33v-217q0 -33 -33 -33h-231zM117 35v956q0 33 35 33h231q35 0 35 -33v-956q0 -35 -35 -35h-231q-35 0 -35 35z" />
    <glyph glyph-name="j" unicode="j" horiz-adv-x="555" 
d="M174 1151q-35 0 -35 33v217q0 33 35 33h229q35 0 35 -33v-217q0 -33 -35 -33h-229zM-37 -305v119q0 31 15 45t51 14q57 0 83.5 24t26.5 80v1014q0 33 33 33h234q32 0 32 -33v-1001q0 -52 -2 -88.5t-9.5 -79.5t-21 -71.5t-37 -57t-57.5 -45t-83.5 -27t-112.5 -10.5
q-86 0 -119 19.5t-33 64.5z" />
    <glyph glyph-name="k" unicode="k" horiz-adv-x="1144" 
d="M152 0q-33 0 -33 35v1366q0 33 33 33h233q33 0 33 -33v-737l323 331q29 29 60 29h235q25 0 36 -22t-17 -54l-330 -332l365 -559q15 -22 6 -39.5t-37 -17.5h-213q-50 0 -78 41l-242 377l-108 -109v-274q0 -35 -33 -35h-233z" />
    <glyph glyph-name="l" unicode="l" horiz-adv-x="536" 
d="M152 0q-33 0 -33 35v1366q0 33 33 33h233q33 0 33 -33v-1366q0 -35 -33 -35h-233z" />
    <glyph glyph-name="m" unicode="m" horiz-adv-x="1679" 
d="M723 0q-33 0 -33 35v622q0 52 -30 80.5t-74 28.5h-68q-45 0 -72.5 -28t-27.5 -83v-620q0 -16 -10 -25.5t-21 -9.5h-235q-33 0 -33 35v956q0 33 33 33h235q11 0 21 -8.5t10 -24.5v-67h33q68 108 225 108h29q164 0 233 -110h20q30 49 101 79.5t143 30.5h43
q169 0 242.5 -86.5t73.5 -259.5v-651q0 -16 -10 -25.5t-21 -9.5h-236q-32 0 -32 35v622q0 51 -30.5 80t-74.5 29h-67q-45 0 -73 -28t-28 -83v-620q0 -16 -10 -25.5t-21 -9.5h-235z" />
    <glyph glyph-name="n" unicode="n" horiz-adv-x="1130" 
d="M152 0q-33 0 -33 35v956q0 33 33 33h235q11 0 21 -8.5t10 -24.5v-67h33q30 52 91.5 80t141.5 28h18q166 0 239 -87t73 -259v-651q0 -16 -10 -25.5t-21 -9.5h-235q-35 0 -35 35v622q0 52 -25.5 80.5t-64.5 28.5h-99q-46 0 -76 -28.5t-30 -82.5v-620q0 -16 -10 -25.5
t-21 -9.5h-235z" />
    <glyph glyph-name="o" unicode="o" horiz-adv-x="1089" 
d="M477 -10q-196 0 -287.5 95.5t-91.5 266.5v318q0 362 379 362h135q197 0 289 -95t92 -267v-318q0 -171 -92 -266.5t-289 -95.5h-135zM397 358q0 -52 27.5 -76t69.5 -24h104q42 0 68 24t26 76v308q0 51 -26 75.5t-68 24.5h-104q-42 0 -69.5 -24.5t-27.5 -75.5v-308z" />
    <glyph glyph-name="p" unicode="p" horiz-adv-x="1110" 
d="M152 -362q-33 0 -33 32v1321q0 33 33 33h233q33 0 33 -33v-53h26q40 45 90 69.5t128 24.5h14q338 0 338 -346v-350q0 -168 -83.5 -257t-254.5 -89h-14q-78 0 -128 24.5t-90 69.5h-26v-414q0 -32 -33 -32h-233zM418 365q0 -52 28 -79.5t70 -27.5h102q39 0 67 27.5t28 76.5
v297q0 50 -28 78.5t-67 28.5h-102q-42 0 -70 -28t-28 -81v-292z" />
    <glyph glyph-name="q" unicode="q" horiz-adv-x="1110" 
d="M725 -362q-33 0 -33 32v414h-26q-40 -45 -89.5 -69.5t-127.5 -24.5h-15q-171 0 -254.5 89t-83.5 257v350q0 346 338 346h15q78 0 127.5 -24.5t89.5 -69.5h26v53q0 33 33 33h233q33 0 33 -33v-1321q0 -32 -33 -32h-233zM397 362q0 -49 28 -76.5t67 -27.5h102q42 0 70 27.5
t28 79.5v292q0 53 -28 81t-70 28h-102q-39 0 -67 -28.5t-28 -78.5v-297z" />
    <glyph glyph-name="r" unicode="r" horiz-adv-x="1032" 
d="M152 0q-33 0 -33 35v956q0 33 33 33h235q11 0 21 -8.5t10 -24.5v-67h33q68 108 231 108h8q152 0 214.5 -75t62.5 -236v-76q0 -16 -10 -26.5t-23 -10.5h-203q-35 0 -35 37q0 121 -114 121h-47q-52 0 -84.5 -28t-32.5 -83v-620q0 -16 -10 -25.5t-21 -9.5h-235z" />
    <glyph glyph-name="s" unicode="s" horiz-adv-x="1038" 
d="M465 -10q-185 0 -281 73.5t-96 219.5q0 45 33 45h227q32 0 39 -27q13 -33 37 -45t68 -12h67q92 0 92 61q0 17 -1.5 25t-9.5 21t-29 20t-56 10l-98 10q-110 12 -184.5 39t-114.5 69.5t-56 92t-16 117.5q0 323 360 323h138q158 0 252 -83.5t94 -229.5q0 -35 -37 -35h-203
q-50 0 -55 33q-16 61 -90 61h-88q-70 0 -70 -61q0 -14 2 -23t10 -22t29 -21t53 -12l97 -10q216 -23 295 -89.5t79 -222.5q0 -170 -94 -248.5t-299 -78.5h-94z" />
    <glyph glyph-name="t" unicode="t" horiz-adv-x="790" 
d="M547 -10q-64 0 -113.5 10.5t-83.5 27t-58.5 45t-38 57.5t-21 71.5t-9.5 79t-2 88.5v391h-127q-37 0 -37 37v190q0 37 37 37h127v209q0 35 35 35h231q35 0 35 -35v-209h156q37 0 37 -37v-190q0 -37 -37 -37h-156v-404q0 -56 27 -80t84 -24q33 0 47 -14t14 -45v-119
q0 -45 -32 -64.5t-115 -19.5z" />
    <glyph glyph-name="u" unicode="u" horiz-adv-x="1130" 
d="M430 -8q-166 0 -238.5 87.5t-72.5 258.5v653q0 16 10 24.5t21 8.5h235q33 0 33 -33v-622q0 -52 26 -80.5t66 -28.5h98q45 0 75 28t30 81v622q0 16 9.5 24.5t20.5 8.5h236q35 0 35 -33v-956q0 -35 -35 -35h-236q-10 0 -20 9.5t-10 25.5v67h-33q-31 -52 -91.5 -81
t-139.5 -29h-19z" />
    <glyph glyph-name="v" unicode="v" horiz-adv-x="1128" 
d="M383 0q-41 0 -53 45l-260 942q-4 18 4 27.5t24 9.5h234q30 0 39 -37l184 -706h18l187 706q9 37 39 37h233q16 0 24.5 -9.5t4.5 -27.5l-262 -942q-12 -45 -54 -45h-362z" />
    <glyph glyph-name="w" unicode="w" horiz-adv-x="1652" 
d="M326 0q-45 0 -54 45l-206 942q-6 37 28 37h228q34 0 40 -37l136 -708h14l154 708q9 37 39 37h243q32 0 41 -37l152 -708h14l137 708q6 37 39 37h230q32 0 26 -37l-205 -942q-9 -45 -53 -45h-342q-44 0 -53 45l-100 510h-15l-100 -510q-9 -45 -53 -45h-340z" />
    <glyph glyph-name="x" unicode="x" horiz-adv-x="1024" 
d="M100 0q-20 0 -26.5 13t4.5 30l254 467l-262 471q-9 17 -3 30t25 13h238q32 0 53 -41l121 -231h16l121 231q21 41 53 41h238q19 0 25 -13t-3 -30l-262 -471l254 -467q11 -17 4.5 -30t-26.5 -13h-242q-30 0 -51 41l-111 221h-16l-115 -221q-19 -41 -49 -41h-240z" />
    <glyph glyph-name="y" unicode="y" horiz-adv-x="1173" 
d="M350 -362q-39 0 -26 36l114 312l-368 1001q-7 17 2 27t26 10h232q27 0 39 -35l211 -624h18l209 624q12 35 39 35h231q16 0 25.5 -9.5t3.5 -27.5l-481 -1313q-8 -21 -16.5 -28.5t-26.5 -7.5h-232z" />
    <glyph glyph-name="z" unicode="z" horiz-adv-x="886" 
d="M100 0q-32 0 -32 35v205q0 24 10 36l393 467v17h-356q-35 0 -35 33v194q0 37 35 37h657q37 0 37 -33v-209q0 -21 -10 -34l-396 -467v-15h369q37 0 37 -35v-196q0 -35 -33 -35h-676z" />
    <glyph glyph-name="braceleft" unicode="{" horiz-adv-x="864" 
d="M573 -143q-155 0 -250.5 103.5t-95.5 264.5v346q0 20 -14 37l-92 113q-19 23 0 45l92 113q14 17 14 36v349q0 160 95.5 263t250.5 103h148q31 0 31 -31v-245q0 -31 -31 -31h-27q-103 0 -131 -37t-28 -162v-229q0 -19 -15 -37l-86 -115l88 -114q13 -20 13 -37v-230
q0 -125 28 -161.5t131 -36.5h27q31 0 31 -31v-246q0 -30 -31 -30h-148z" />
    <glyph glyph-name="bar" unicode="|" horiz-adv-x="634" 
d="M195 -410q-31 0 -31 31v1987q0 30 31 30h245q31 0 31 -30v-1987q0 -31 -31 -31h-245z" />
    <glyph glyph-name="braceright" unicode="}" horiz-adv-x="864" 
d="M143 -143q-30 0 -30 30v246q0 31 30 31h27q103 0 131.5 36.5t28.5 161.5v230q0 19 12 37l88 114l-86 115q-14 17 -14 37v229q0 125 -28.5 162t-131.5 37h-27q-30 0 -30 31v245q0 31 30 31h148q155 0 250.5 -103t95.5 -263v-349q0 -19 14 -36l92 -113q19 -22 0 -45
l-92 -113q-14 -17 -14 -37v-346q0 -161 -95.5 -264.5t-250.5 -103.5h-148z" />
    <glyph glyph-name="asciitilde" unicode="~" horiz-adv-x="1171" 
d="M229 514q-16 -11 -32 13q-1 2 -2 3l-91 179q-12 23 21 45q108 72 254.5 88t251.5 -45q48 -32 108.5 -38t111.5 8.5t91 41.5q14 7 22.5 1.5t12.5 -17.5l90 -179q6 -10 0 -23t-20 -22q-108 -71 -249.5 -86t-252.5 43q-52 31 -113 37.5t-112 -7.5t-91 -42z" />
    <glyph glyph-name="exclamdown" unicode="&#xa1;" horiz-adv-x="561" 
d="M160 -410q-15 0 -24 9t-9 24v897q0 15 9 24t24 9h241q15 0 24 -9t9 -24v-897q0 -15 -9 -24t-24 -9h-241zM129 752v239q0 15 9 24t24 9h239q15 0 24 -9t9 -24v-239q0 -15 -9 -24t-24 -9h-239q-15 0 -24 9t-9 24z" />
    <glyph glyph-name="cent" unicode="&#xa2;" horiz-adv-x="1054" 
d="M492 -145q-25 0 -25 24v113q-369 24 -369 358v322q0 354 369 360v109q0 24 25 24h102q24 0 24 -24v-109q171 -6 260 -99t89 -251v-16q0 -33 -33 -33h-219q-33 0 -33 33v16q0 67 -64 80v-510q40 5 64.5 18.5t44.5 44.5q17 28 47 15l160 -74q35 -15 22 -45
q-83 -197 -338 -219v-113q0 -24 -24 -24h-102zM397 383q0 -96 70 -123v504q-70 -14 -70 -96v-285z" />
    <glyph glyph-name="sterling" unicode="&#xa3;" horiz-adv-x="1236" 
d="M834 -16q-71 0 -137 21.5t-127 43t-119 21.5q-98 0 -236 -72q-13 -7 -74.5 92t-50.5 111q90 104 136 184.5t53 153.5h-123q-20 0 -28.5 8.5t-8.5 27.5v191q0 37 37 37h55q-23 52 -34 80.5t-22.5 80.5t-11.5 103q0 75 21.5 139t67.5 119t129 87t196 32h139
q234 0 336.5 -94.5t102.5 -292.5v-43q0 -33 -33 -33h-234q-32 0 -32 33q0 91 -34.5 127.5t-105.5 36.5h-94q-82 0 -119 -36.5t-37 -111.5q0 -28 4 -52.5t13.5 -49.5t16 -40.5t21.5 -44t21 -40.5h201q37 0 37 -37v-191q0 -36 -37 -36h-145q-13 -112 -93 -201q11 4 76 4
q61 0 135 -27.5t131 -27.5q94 0 222 49q16 6 26 -0.5t10 -24.5v-237q0 -29 -34 -43q-120 -47 -217 -47z" />
    <glyph glyph-name="currency" unicode="&#xa4;" horiz-adv-x="1245" 
d="M109 113q-21 21 0 43l124 125q-8 58 -8 92v278v41l-116 115q-21 21 0 43l174 174q21 22 43 0l65 -70q81 19 170 19h121q89 0 172 -17l66 68q22 22 43 0l176 -174q21 -22 0 -43l-117 -115q-1 -5 -1 -12t0.5 -15.5t0.5 -13.5v-278q0 -49 -10 -97l123 -120q21 -22 0 -43
l-174 -176q-21 -21 -43 0l-105 106q-43 4 -131 4h-121q-86 0 -131 -2l-104 -108q-22 -21 -43 0zM496 375q0 -42 23.5 -63t58.5 -21h92q34 0 57 21t23 63v272q0 43 -23 63.5t-57 20.5h-92q-35 0 -58.5 -20.5t-23.5 -63.5v-272z" />
    <glyph glyph-name="yen" unicode="&#xa5;" horiz-adv-x="1259" 
d="M281 340q-37 0 -37 37v100q0 37 37 37h196v4l-405 877q-9 20 -1.5 29.5t27.5 9.5h244q32 0 45 -31l234 -537h18l233 537q13 31 48 31h243q44 0 27 -39l-406 -877v-4h197q37 0 37 -37v-100q0 -37 -37 -37h-197v-59h197q37 0 37 -37v-101q0 -37 -37 -37h-197v-73
q0 -33 -32 -33h-242q-15 0 -24 9t-9 24v73h-196q-37 0 -37 37v101q0 37 37 37h196v59h-196z" />
    <glyph glyph-name="brokenbar" unicode="&#xa6;" horiz-adv-x="634" 
d="M195 772q-31 0 -31 31v661q0 31 31 31h245q31 0 31 -31v-661q0 -31 -31 -31h-245zM164 -236v662q0 31 31 31h245q31 0 31 -31v-662q0 -30 -31 -30h-245q-31 0 -31 30z" />
    <glyph glyph-name="section" unicode="&#xa7;" horiz-adv-x="1038" 
d="M465 23q-377 0 -377 292q0 45 33 45h223q32 0 39 -26q13 -33 35 -45.5t67 -12.5h74q92 0 92 62q0 50 -32.5 72t-133.5 22h-28q-186 0 -279.5 73t-93.5 226q0 80 22.5 126t79.5 79q-100 55 -100 209q0 323 360 323h138q161 0 253.5 -83t92.5 -230q0 -35 -37 -35h-199
q-50 0 -55 35q-16 59 -90 59h-92q-70 0 -70 -61q0 -92 98 -92h82q211 0 298 -73.5t87 -233.5q0 -164 -106 -224q61 -27 83.5 -67t22.5 -113q0 -170 -94 -248.5t-299 -78.5h-94zM383 748q0 -68 88 -68h92q52 0 70 19t18 49q0 73 -88 73h-92q-88 0 -88 -73z" />
    <glyph glyph-name="dieresis" unicode="&#xa8;" horiz-adv-x="1075" 
d="M700 1128q-32 0 -32 33v240q0 33 32 33h240q15 0 24 -9t9 -24v-240q0 -15 -9 -24t-24 -9h-240zM102 1161v240q0 15 9 24t24 9h240q15 0 24 -9t9 -24v-240q0 -15 -9 -24t-24 -9h-240q-15 0 -24 9t-9 24z" />
    <glyph glyph-name="copyright" unicode="&#xa9;" horiz-adv-x="1525" 
d="M610 -10q-240 0 -360.5 117t-120.5 346v528q0 229 120.5 346t360.5 117h308q238 0 359.5 -117.5t121.5 -345.5v-528q0 -228 -121.5 -345.5t-359.5 -117.5h-308zM328 567q0 -82 23.5 -147.5t73.5 -116.5t136 -78.5t203 -27.5h18q66 0 121.5 9.5t111 32.5t100 68t73.5 111
q13 29 -25 49l-157 74q-30 13 -50 -19q-25 -40 -61 -52.5t-111 -12.5h-16q-69 0 -104 37t-35 106v264q0 52 26.5 80.5t67.5 28.5h90q45 0 71.5 -21.5t26.5 -64.5v-17q0 -32 35 -32h217q35 0 35 32v15q0 163 -94.5 258.5t-276.5 95.5h-118q-197 0 -289 -98.5t-92 -272.5v-301
z" />
    <glyph glyph-name="ordfeminine" unicode="&#xaa;" horiz-adv-x="665" 
d="M442 920q-26 0 -26 26v27q-63 -53 -119 -53h-25q-76 0 -123 38.5t-47 120.5q0 164 170 164h144q0 60 -72 60h-33q-53 0 -112 -19q-25 -5 -31 10l-29 68q-5 27 8 35q76 47 187 47h45q85 0 134.5 -56t49.5 -145v-297q0 -26 -31 -26h-90zM254 1083q0 -26 37 -26h37
q50 0 88 20v27h-125q-37 0 -37 -21z" />
    <glyph glyph-name="guillemotleft" unicode="&#xab;" horiz-adv-x="1249" 
d="M713 395q-13 7 -22 24t-9 34v149q0 36 31 57l381 226q17 10 30 7t13 -20v-247q0 -16 -7.5 -23t-29.5 -18l-125 -58l125 -59q29 -15 34 -26q3 -6 3 -15v-244q0 -33 -43 -14zM113 453v149q0 37 30 57l381 226q17 10 30 7t13 -20v-247q0 -16 -7.5 -23t-29.5 -18l-124 -58
l124 -59q29 -15 34 -26q3 -6 3 -15v-244q0 -33 -43 -14l-381 227q-30 17 -30 58z" />
    <glyph glyph-name="logicalnot" unicode="&#xac;" horiz-adv-x="1021" 
d="M135 514q-15 0 -24 9t-9 24v233q0 15 9 24t24 9h756q29 0 29 -33v-512q0 -32 -33 -32h-242q-33 0 -33 32v246h-477z" />
    <glyph glyph-name="uni00AD" unicode="&#xad;" horiz-adv-x="860" 
d="M139 385q-37 0 -37 37v192q0 37 37 37h582q37 0 37 -37v-192q0 -37 -37 -37h-582z" />
    <glyph glyph-name="registered" unicode="&#xae;" horiz-adv-x="1433" 
d="M580 -10q-217 0 -334 113.5t-117 318.5v590q0 205 117 318.5t334 113.5h276q216 0 333.5 -113.5t117.5 -318.5v-590q0 -205 -117.5 -318.5t-333.5 -113.5h-276zM309 260q0 -35 35 -35h225q35 0 35 35v244h180q18 0 32 -4t23 -8t15.5 -15.5t9.5 -17.5t4.5 -23.5t2 -24.5
t0 -29t-0.5 -28v-98q0 -31 31 -31h234q32 0 32 31v137q0 102 -36 160.5t-125 91.5v14q90 42 121.5 97t31.5 151q0 130 -85 215.5t-255 85.5h-475q-35 0 -35 -32v-916zM604 756v188h178q49 0 73 -24t24 -78q0 -42 -24 -64t-67 -22h-184z" />
    <glyph glyph-name="macron" unicode="&#xaf;" horiz-adv-x="929" 
d="M135 1167q-33 0 -33 31v205q0 31 33 31h662q30 0 30 -31v-205q0 -31 -30 -31h-662z" />
    <glyph glyph-name="degree" unicode="&#xb0;" horiz-adv-x="798" 
d="M305 672q-92 0 -147.5 56.5t-55.5 158.5v334q0 102 55.5 157.5t147.5 55.5h205q92 0 147.5 -55.5t55.5 -157.5v-334q0 -102 -55.5 -158.5t-147.5 -56.5h-205zM319 930q0 -20 11.5 -32.5t23.5 -12.5h99q13 0 24.5 12.5t11.5 32.5v248q0 20 -11.5 32.5t-24.5 12.5h-99
q-12 0 -23.5 -12.5t-11.5 -32.5v-248z" />
    <glyph glyph-name="plusminus" unicode="&#xb1;" horiz-adv-x="1054" 
d="M152 0q-15 0 -24 9t-9 24v186q0 31 33 31h755q29 0 29 -31v-186q0 -33 -31 -33h-753zM102 694v226q0 32 33 32h240v246q0 31 33 31h241q33 0 33 -31v-246h242q28 0 28 -32v-226q0 -32 -30 -32h-240v-250q0 -15 -9 -24t-24 -9h-241q-15 0 -24 9t-9 24v250h-240
q-33 0 -33 32z" />
    <glyph glyph-name="uni00B2" unicode="&#xb2;" horiz-adv-x="655" 
d="M158 799q-31 0 -31 30v68q0 20 6 31t23 26l178 168q23 22 35.5 35t24.5 35.5t12 44.5q0 38 -22.5 59t-61.5 21q-35 0 -55.5 -17t-20.5 -49v-14q0 -31 -31 -31h-61q-31 0 -31 31v27q0 75 48.5 122.5t131.5 47.5h51q86 0 131 -53.5t45 -131.5q0 -71 -34.5 -122t-100.5 -107
l-114 -100h221q30 0 30 -31v-60q0 -30 -30 -30h-344z" />
    <glyph glyph-name="uni00B3" unicode="&#xb3;" horiz-adv-x="661" 
d="M307 799q-86 0 -135 47.5t-49 122.5v26q0 31 31 31h61q31 0 31 -31v-16q0 -64 84 -64q41 0 62.5 20.5t21.5 57.5q0 35 -18.5 52.5t-61.5 17.5h-33q-29 0 -29 31v45q0 30 29 30h33q76 0 76 70q0 37 -21 57.5t-59 20.5q-80 0 -80 -64v-16q0 -31 -31 -31h-61q-31 0 -31 31
v27q0 75 48.5 122.5t131.5 47.5h51q83 0 127.5 -52.5t44.5 -124.5q0 -97 -86 -141q99 -46 99 -141q0 -73 -47 -124.5t-138 -51.5h-51z" />
    <glyph glyph-name="acute" unicode="&#xb4;" horiz-adv-x="671" 
d="M129 1124q-35 0 -20 37l90 236q18 37 43 37h303q19 0 25.5 -10t-5.5 -27l-184 -236q-29 -37 -51 -37h-201z" />
    <glyph glyph-name="uni00B5" unicode="&#xb5;" horiz-adv-x="1130" 
d="M150 -410q-31 0 -31 31v1370q0 16 10 24.5t21 8.5h235q33 0 33 -33v-622q0 -52 26 -80.5t66 -28.5h98q45 0 75 28t30 81v622q0 16 9.5 24.5t20.5 8.5h236q35 0 35 -33v-956q0 -35 -35 -35h-236q-10 0 -20 9.5t-10 25.5v67h-21q-19 -57 -55 -83.5t-100 -26.5h-25
q-73 0 -92 53v-424q0 -31 -31 -31h-239z" />
    <glyph glyph-name="paragraph" unicode="&#xb6;" horiz-adv-x="1427" 
d="M551 350q-215 0 -318.5 114.5t-103.5 313.5v228q0 199 103.5 313.5t318.5 114.5h715q32 0 32 -33v-1368q0 -33 -32 -33h-242q-15 0 -24 9t-9 24v317h-94v-317q0 -15 -9 -24t-24 -9h-241q-15 0 -24 9t-9 24v317h-39zM436 786q0 -89 37 -125t105 -36h12v534h-12
q-142 0 -142 -162v-211zM897 625h94v534h-94v-534z" />
    <glyph glyph-name="periodcentered" unicode="&#xb7;" horiz-adv-x="509" 
d="M135 358q-15 0 -24 9t-9 24v240q0 15 9 24t24 9h240q15 0 24 -9t9 -24v-240q0 -15 -9 -24t-24 -9h-240z" />
    <glyph glyph-name="cedilla" unicode="&#xb8;" horiz-adv-x="786" 
d="M285 -426q-96 0 -139.5 45t-43.5 121q0 33 29 33h172q18 0 27 -23q3 -1 9.5 -4t14.5 -5.5t15 -2.5h45q17 0 31 9.5t14 25.5q0 19 -27 28t-100 9h-84q-37 0 -60.5 17t-23.5 52q0 20 13 39.5t26 31.5t57 50h258q-80 -34 -51 -53q14 -10 45 -10h45q70 0 98.5 -38t28.5 -114
q0 -211 -209 -211h-190z" />
    <glyph glyph-name="uni00B9" unicode="&#xb9;" horiz-adv-x="618" 
d="M276 801q-30 0 -30 30v572q0 31 30 31h66q31 0 31 -31v-572q0 -30 -31 -30h-66z" />
    <glyph glyph-name="ordmasculine" unicode="&#xba;" horiz-adv-x="702" 
d="M315 920q-95 0 -154 61.5t-59 161.5v80q0 98 59 159.5t154 61.5h72q94 0 153.5 -61.5t59.5 -159.5v-80q0 -99 -59.5 -161t-153.5 -62h-72zM250 1159q0 -36 20.5 -62t51.5 -26h63q26 0 47 26.5t21 61.5v51q0 35 -20.5 59.5t-47.5 24.5h-63q-32 0 -52 -24t-20 -60v-51z" />
    <glyph glyph-name="guillemotright" unicode="&#xbb;" horiz-adv-x="1249" 
d="M156 168q-43 -19 -43 14v244q0 16 7.5 23t29.5 18l124 59l-124 58q-29 15 -34 26q-3 6 -3 15v247q0 17 13 20t30 -7l381 -226q30 -20 30 -57v-149q0 -41 -30 -58zM682 182v244q0 16 7.5 23t29.5 18l125 59l-125 58q-29 15 -34 26q-3 6 -3 15v247q0 17 13 20t30 -7
l381 -226q31 -21 31 -57v-149q0 -17 -9 -34t-22 -24l-381 -227q-43 -19 -43 14z" />
    <glyph glyph-name="onequarter" unicode="&#xbc;" horiz-adv-x="1564" 
d="M276 801q-30 0 -30 30v572q0 31 30 31h66q31 0 31 -31v-572q0 -30 -31 -30h-66zM264 31l828 1372q10 17 18.5 24t22.5 7h77q16 0 22.5 -8t-1.5 -23l-828 -1372q-10 -17 -18.5 -24t-22.5 -7h-77q-16 0 -22.5 8t1.5 23zM999 135v51q0 15 11 37l204 389q12 23 35 23h103
q30 0 30 -31v-383h29q31 0 31 -31v-55q0 -31 -31 -31h-29v-73q0 -31 -30 -31h-62q-30 0 -30 31v73h-226q-35 0 -35 31zM1141 225h119v240z" />
    <glyph glyph-name="onehalf" unicode="&#xbd;" horiz-adv-x="1531" 
d="M276 801q-30 0 -30 30v572q0 31 30 31h66q31 0 31 -31v-572q0 -30 -31 -30h-66zM264 31l828 1372q10 17 18.5 24t22.5 7h77q16 0 22.5 -8t-1.5 -23l-828 -1372q-10 -17 -18.5 -24t-22.5 -7h-77q-16 0 -22.5 8t1.5 23zM999 438v27q0 75 49 122.5t132 47.5h51q86 0 131 -53
t45 -131q0 -71 -35 -123t-100 -107l-115 -100h221q31 0 31 -31v-59q0 -31 -31 -31h-344q-30 0 -30 31v67q0 21 6 32.5t22 25.5l178 168q24 23 35.5 35t24 34.5t12.5 44.5q0 38 -22.5 59t-61.5 21q-35 0 -55.5 -17t-20.5 -48v-15q0 -30 -30 -30h-62q-31 0 -31 30z" />
    <glyph glyph-name="threequarters" unicode="&#xbe;" horiz-adv-x="1607" 
d="M307 799q-86 0 -135 47.5t-49 122.5v26q0 31 31 31h61q31 0 31 -31v-16q0 -64 84 -64q41 0 62.5 20.5t21.5 57.5q0 35 -18.5 52.5t-61.5 17.5h-33q-29 0 -29 31v45q0 30 29 30h33q76 0 76 70q0 37 -21 57.5t-59 20.5q-80 0 -80 -64v-16q0 -31 -31 -31h-61q-31 0 -31 31
v27q0 75 48.5 122.5t131.5 47.5h51q83 0 127.5 -52.5t44.5 -124.5q0 -97 -86 -141q99 -46 99 -141q0 -73 -47 -124.5t-138 -51.5h-51zM307 31l828 1372q10 17 18.5 24t22.5 7h77q16 0 22.5 -8t-1.5 -23l-828 -1372q-10 -17 -18 -24t-22 -7h-78q-16 0 -22.5 8t1.5 23z
M1042 135v51q0 15 11 37l204 389q11 23 35 23h103q30 0 30 -31v-383h29q31 0 31 -31v-55q0 -31 -31 -31h-29v-73q0 -31 -30 -31h-62q-30 0 -30 31v73h-226q-35 0 -35 31zM1184 225h119v240z" />
    <glyph glyph-name="questiondown" unicode="&#xbf;" horiz-adv-x="1179" 
d="M715 551q15 0 24 -9t9 -24v-153q0 -92 -44 -131.5t-196 -108.5q-29 -14 -45 -21q-30 -15 -48 -30.5t-24.5 -35t-8 -30.5t-1.5 -35q0 -59 33 -91t94 -32h151q72 0 106 34.5t34 125.5q0 33 32 33h242q35 0 35 -33v-43q0 -197 -105.5 -292t-340.5 -95h-173q-114 0 -197.5 32
t-130 88.5t-68 124t-21.5 148.5q0 42 4 78t10 64t18 52.5t22 41.5t28.5 34.5t31.5 27.5t37.5 23t39 20t43 20t44.5 20q1 1 11 6.5t14 8t14 9.5t14.5 11.5t12 13t11 16t6.5 17.5t3 21v61q0 15 9 24t24 9h246zM442 752v239q0 15 9 24t24 9h240q15 0 24 -9t9 -24v-239
q0 -15 -9 -24t-24 -9h-240q-15 0 -24 9t-9 24z" />
    <glyph glyph-name="Agrave" unicode="&#xc0;" horiz-adv-x="1302" 
d="M850 1434q31 0 41 -33l344 -1360q4 -17 -5 -29t-24 -12h-241q-30 0 -41 41l-43 174h-457l-43 -174q-11 -41 -41 -41h-242q-17 0 -25 12t-3 29l344 1360q10 33 39 33h397zM317 1806q-12 17 -4 27t27 10h303q23 0 41 -37l90 -235q15 -37 -20 -37h-201q-22 0 -51 37z
M487 479h328l-147 604h-33z" />
    <glyph glyph-name="Aacute" unicode="&#xc1;" horiz-adv-x="1302" 
d="M850 1434q31 0 41 -33l344 -1360q4 -17 -5 -29t-24 -12h-241q-30 0 -41 41l-43 174h-457l-43 -174q-11 -41 -41 -41h-242q-17 0 -25 12t-3 29l344 1360q10 33 39 33h397zM487 479h328l-147 604h-33zM545 1571l90 235q18 37 43 37h303q19 0 25.5 -10t-5.5 -27l-184 -235
q-29 -37 -51 -37h-201q-35 0 -20 37z" />
    <glyph glyph-name="Acircumflex" unicode="&#xc2;" horiz-adv-x="1302" 
d="M850 1434q31 0 41 -33l344 -1360q4 -17 -5 -29t-24 -12h-241q-30 0 -41 41l-43 174h-457l-43 -174q-11 -41 -41 -41h-242q-17 0 -25 12t-3 29l344 1360q10 33 39 33h397zM266 1575l209 240q22 28 57 28h252q34 0 58 -28l209 -240q12 -15 4.5 -29t-23.5 -14h-219
q-12 0 -21 2.5t-19.5 11.5t-14 12.5t-17.5 18.5l-71 86h-21l-74 -86q-13 -16 -20 -23.5t-20 -14.5t-29 -7h-221q-16 0 -23 14t4 29zM487 479h328l-147 604h-33z" />
    <glyph glyph-name="Atilde" unicode="&#xc3;" horiz-adv-x="1302" 
d="M850 1434q31 0 41 -33l344 -1360q4 -17 -5 -29t-24 -12h-241q-30 0 -41 41l-43 174h-457l-43 -174q-11 -41 -41 -41h-242q-17 0 -25 12t-3 29l344 1360q10 33 39 33h397zM287 1729q-5 17 0 27.5t20 23.5q56 43 106.5 58t110.5 15q49 0 89 -11.5t61.5 -26t52 -26
t61.5 -11.5q9 0 17 0.5t16 2t13 2t13.5 4t12 4.5t13.5 5.5t13 6t15.5 8t16.5 8.5q24 13 38 -11l66 -166q5 -17 -0.5 -27.5t-20.5 -23.5q-56 -43 -106.5 -58t-110.5 -15q-62 0 -107.5 19t-81.5 37.5t-75 18.5t-63.5 -8t-61.5 -31q-29 -15 -43 9zM487 479h328l-147 604h-33z
" />
    <glyph glyph-name="Adieresis" unicode="&#xc4;" horiz-adv-x="1302" 
d="M850 1434q31 0 41 -33l344 -1360q4 -17 -5 -29t-24 -12h-241q-30 0 -41 41l-43 174h-457l-43 -174q-11 -41 -41 -41h-242q-17 0 -25 12t-3 29l344 1360q10 33 39 33h397zM217 1571v239q0 15 9 24t24 9h239q15 0 24 -9t9 -24v-239q0 -15 -9 -24t-24 -9h-239q-15 0 -24 9
t-9 24zM487 479h328l-147 604h-33zM782 1571v239q0 15 9 24t24 9h240q32 0 32 -33v-239q0 -33 -32 -33h-240q-15 0 -24 9t-9 24z" />
    <glyph glyph-name="Aring" unicode="&#xc5;" horiz-adv-x="1302" 
d="M850 1434q31 0 41 -33l344 -1360q4 -17 -5 -29t-24 -12h-241q-30 0 -41 41l-43 174h-457l-43 -174q-11 -41 -41 -41h-242q-17 0 -25 12t-3 29l344 1360q10 33 39 33h397zM467 1679v31q0 71 47.5 117.5t122.5 46.5h31q74 0 121 -46.5t47 -117.5v-31q0 -71 -47 -118.5
t-121 -47.5h-31q-74 0 -122 47.5t-48 118.5zM487 479h328l-147 604h-33zM614 1690q0 -14 8 -22.5t19 -8.5h23q28 0 28 31v12q0 12 -8 19.5t-20 7.5h-23q-11 0 -19 -7.5t-8 -19.5v-12z" />
    <glyph glyph-name="AE" unicode="&#xc6;" horiz-adv-x="1884" 
d="M88 0q-16 0 -21.5 9t3.5 28l761 1366q10 17 18.5 24t22.5 7h902q30 0 30 -33v-209q0 -33 -30 -33h-549v-309h504q30 0 30 -33v-201q0 -32 -30 -32h-504v-310h561q33 0 33 -32v-209q0 -15 -9 -24t-24 -9h-838q-30 0 -30 33v182h-433l-100 -184q-10 -17 -18.5 -24t-22.5 -7
h-256zM629 479h289v529z" />
    <glyph glyph-name="Ccedilla" unicode="&#xc7;" horiz-adv-x="1316" 
d="M547 -10q-217 0 -317.5 111.5t-100.5 312.5v606q0 201 100.5 312.5t317.5 111.5h241q223 0 321.5 -109.5t98.5 -320.5v-13q0 -17 -9.5 -26.5t-24.5 -9.5h-236q-37 0 -37 36q0 96 -38 132t-105 36h-185q-67 0 -102 -34.5t-35 -122.5v-590q0 -89 35 -123.5t102 -34.5h185
q67 0 105 35.5t38 130.5q0 37 37 37h236q15 0 24.5 -10t9.5 -27v-12q0 -197 -85.5 -305t-278.5 -121q-27 -13 -36 -24t-2 -17.5t20.5 -10t29.5 -3.5h45q70 0 98.5 -38t28.5 -114q0 -211 -209 -211h-190q-96 0 -139.5 45t-43.5 121q0 33 29 33h172q18 0 27 -23q3 -1 9.5 -4
t14.5 -5.5t15 -2.5h45q17 0 31 9.5t14 25.5q0 19 -27 28t-100 9h-84q-37 0 -60.5 17t-23.5 52q0 27 17 47.5t67 63.5h-45z" />
    <glyph glyph-name="Egrave" unicode="&#xc8;" horiz-adv-x="1095" 
d="M160 0q-31 0 -31 33v1368q0 33 31 33h825q31 0 31 -33v-209q0 -33 -31 -33h-549v-309h504q31 0 31 -33v-201q0 -32 -31 -32h-504v-310h561q33 0 33 -32v-209q0 -15 -9 -24t-24 -9h-837zM238 1806q-12 17 -4.5 27t26.5 10h303q23 0 41 -37l90 -235q15 -37 -20 -37h-201
q-22 0 -51 37z" />
    <glyph glyph-name="Eacute" unicode="&#xc9;" horiz-adv-x="1095" 
d="M160 0q-31 0 -31 33v1368q0 33 31 33h825q31 0 31 -33v-209q0 -33 -31 -33h-549v-309h504q31 0 31 -33v-201q0 -32 -31 -32h-504v-310h561q33 0 33 -32v-209q0 -15 -9 -24t-24 -9h-837zM467 1571l90 235q18 37 43 37h303q19 0 26 -10t-5 -27l-185 -235q-29 -37 -51 -37
h-201q-35 0 -20 37z" />
    <glyph glyph-name="Ecircumflex" unicode="&#xca;" horiz-adv-x="1095" 
d="M160 0q-31 0 -31 33v1368q0 33 31 33h825q31 0 31 -33v-209q0 -33 -31 -33h-549v-309h504q31 0 31 -33v-201q0 -32 -31 -32h-504v-310h561q33 0 33 -32v-209q0 -15 -9 -24t-24 -9h-837zM186 1575l209 240q22 28 58 28h252q33 0 57 -28l209 -240q12 -15 4.5 -29t-23.5 -14
h-219q-5 0 -10 0.5t-9.5 2.5t-8 3t-8 4.5t-7 5t-7.5 6.5t-6.5 7t-7 8t-7.5 8l-72 86h-21l-73 -86q-12 -16 -20 -23.5t-21 -14.5t-29 -7h-221q-16 0 -23 14t4 29z" />
    <glyph glyph-name="Edieresis" unicode="&#xcb;" horiz-adv-x="1095" 
d="M160 0q-31 0 -31 33v1368q0 33 31 33h825q31 0 31 -33v-209q0 -33 -31 -33h-549v-309h504q31 0 31 -33v-201q0 -32 -31 -32h-504v-310h561q33 0 33 -32v-209q0 -15 -9 -24t-24 -9h-837zM137 1571v239q0 15 9 24t24 9h240q32 0 32 -33v-239q0 -33 -32 -33h-240
q-15 0 -24 9t-9 24zM702 1571v239q0 15 9 24t24 9h240q15 0 24 -9t9 -24v-239q0 -15 -9 -24t-24 -9h-240q-15 0 -24 9t-9 24z" />
    <glyph glyph-name="Igrave" unicode="&#xcc;" horiz-adv-x="563" 
d="M162 0q-15 0 -24 9t-9 24v1368q0 15 9 24t24 9h241q15 0 24 -9t9 -24v-1368q0 -15 -9 -24t-24 -9h-241zM-53 1806q-12 17 -4.5 27t26.5 10h303q23 0 41 -37l90 -235q15 -37 -20 -37h-201q-22 0 -51 37z" />
    <glyph glyph-name="Iacute" unicode="&#xcd;" horiz-adv-x="563" 
d="M162 0q-15 0 -24 9t-9 24v1368q0 15 9 24t24 9h241q15 0 24 -9t9 -24v-1368q0 -15 -9 -24t-24 -9h-241zM176 1571l90 235q18 37 43 37h303q19 0 26 -10t-5 -27l-184 -235q-29 -37 -52 -37h-200q-36 0 -21 37z" />
    <glyph glyph-name="Icircumflex" unicode="&#xce;" horiz-adv-x="563" 
d="M162 0q-15 0 -24 9t-9 24v1368q0 15 9 24t24 9h241q15 0 24 -9t9 -24v-1368q0 -15 -9 -24t-24 -9h-241zM-104 1575l208 240q22 28 58 28h252q32 0 57 -28l209 -240q12 -15 5 -29t-23 -14h-220q-5 0 -10 0.5t-9.5 2.5t-8 3t-8 4.5t-7 5t-7.5 6.5t-6.5 7t-7 8t-7.5 8
l-72 86h-20l-74 -86q-12 -16 -20 -23.5t-21 -14.5t-29 -7h-221q-16 0 -22.5 14t4.5 29z" />
    <glyph glyph-name="Idieresis" unicode="&#xcf;" horiz-adv-x="563" 
d="M162 0q-15 0 -24 9t-9 24v1368q0 15 9 24t24 9h241q15 0 24 -9t9 -24v-1368q0 -15 -9 -24t-24 -9h-241zM-154 1571v239q0 15 9 24t24 9h240q15 0 24 -9t9 -24v-239q0 -15 -9 -24t-24 -9h-240q-15 0 -24 9t-9 24zM412 1571v239q0 33 32 33h240q15 0 24 -9t9 -24v-239
q0 -15 -9 -24t-24 -9h-240q-32 0 -32 33z" />
    <glyph glyph-name="Eth" unicode="&#xd0;" horiz-adv-x="1359" 
d="M211 0q-15 0 -24 9t-9 24v553h-115q-36 0 -36 37v192q0 37 36 37h115v549q0 15 9 24t24 9h604q217 0 317.5 -111.5t100.5 -312.5v-586q0 -201 -100.5 -312.5t-317.5 -111.5h-604zM485 274h303q68 0 103 34.5t35 123.5v569q0 88 -35.5 123t-102.5 35h-303v-307h160
q37 0 37 -37v-192q0 -37 -37 -37h-160v-312z" />
    <glyph glyph-name="Ntilde" unicode="&#xd1;" horiz-adv-x="1382" 
d="M162 0q-15 0 -24 9t-9 24v1368q0 15 9 24t24 9h401q28 0 37 -23l328 -1005h20v995q0 15 9 24t24 9h242q32 0 32 -33v-1368q0 -33 -32 -33h-402q-31 0 -37 23l-329 1005h-19v-995q0 -15 -9 -24t-24 -9h-241zM326 1729q-5 17 0 27.5t20 23.5q56 43 106.5 58t110.5 15
q49 0 89 -11.5t61.5 -26t52 -26t61.5 -11.5q10 0 19.5 1t16 1.5t16 3.5t13.5 4t14.5 6t14 7t17.5 9l18 9q24 13 39 -11l66 -166q5 -17 -0.5 -27.5t-20.5 -23.5q-56 -43 -106.5 -58t-110.5 -15q-62 0 -107.5 19t-81.5 37.5t-75 18.5t-63.5 -8t-61.5 -31q-29 -15 -43 9z" />
    <glyph glyph-name="Ograve" unicode="&#xd2;" 
d="M547 -10q-217 0 -317.5 111.5t-100.5 312.5v606q0 201 100.5 312.5t317.5 111.5h250q217 0 317 -111.5t100 -312.5v-606q0 -201 -100 -312.5t-317 -111.5h-250zM338 1806q-12 17 -4.5 27t26.5 10h304q23 0 41 -37l90 -235q15 -37 -21 -37h-201q-22 0 -51 37zM436 422
q0 -89 35 -123.5t102 -34.5h197q67 0 102 34.5t35 123.5v590q0 88 -35 122.5t-102 34.5h-197q-67 0 -102 -34.5t-35 -122.5v-590z" />
    <glyph glyph-name="Oacute" unicode="&#xd3;" 
d="M547 -10q-217 0 -317.5 111.5t-100.5 312.5v606q0 201 100.5 312.5t317.5 111.5h250q217 0 317 -111.5t100 -312.5v-606q0 -201 -100 -312.5t-317 -111.5h-250zM436 422q0 -89 35 -123.5t102 -34.5h197q67 0 102 34.5t35 123.5v590q0 88 -35 122.5t-102 34.5h-197
q-67 0 -102 -34.5t-35 -122.5v-590zM565 1571l90 235q18 37 43 37h303q19 0 26 -10t-5 -27l-184 -235q-29 -37 -52 -37h-200q-36 0 -21 37z" />
    <glyph glyph-name="Ocircumflex" unicode="&#xd4;" 
d="M547 -10q-217 0 -317.5 111.5t-100.5 312.5v606q0 201 100.5 312.5t317.5 111.5h250q217 0 317 -111.5t100 -312.5v-606q0 -201 -100 -312.5t-317 -111.5h-250zM287 1575l209 240q22 28 57 28h252q33 0 57 -28l209 -240q12 -15 5 -29t-23 -14h-219q-12 0 -21 2.5
t-19.5 11.5t-14 12.5t-17.5 18.5l-72 86h-20l-74 -86q-12 -16 -20 -23.5t-21 -14.5t-29 -7h-221q-16 0 -22.5 14t4.5 29zM436 422q0 -89 35 -123.5t102 -34.5h197q67 0 102 34.5t35 123.5v590q0 88 -35 122.5t-102 34.5h-197q-67 0 -102 -34.5t-35 -122.5v-590z" />
    <glyph glyph-name="Otilde" unicode="&#xd5;" 
d="M547 -10q-217 0 -317.5 111.5t-100.5 312.5v606q0 201 100.5 312.5t317.5 111.5h250q217 0 317 -111.5t100 -312.5v-606q0 -201 -100 -312.5t-317 -111.5h-250zM307 1729q-5 17 0.5 27.5t20.5 23.5q56 43 106.5 58t110.5 15q49 0 89 -11.5t61.5 -26t52 -26t61.5 -11.5
q10 0 19.5 1t16 1.5t16 3.5t13.5 4t14.5 6t14 7t17.5 9l18 9q24 13 39 -11l65 -166q5 -17 0 -27.5t-20 -23.5q-56 -43 -106.5 -58t-110.5 -15q-62 0 -107.5 19t-81.5 37.5t-75 18.5t-63.5 -8t-61.5 -31q-29 -15 -43 9zM436 422q0 -89 35 -123.5t102 -34.5h197q67 0 102 34.5
t35 123.5v590q0 88 -35 122.5t-102 34.5h-197q-67 0 -102 -34.5t-35 -122.5v-590z" />
    <glyph glyph-name="Odieresis" unicode="&#xd6;" 
d="M547 -10q-217 0 -317.5 111.5t-100.5 312.5v606q0 201 100.5 312.5t317.5 111.5h250q217 0 317 -111.5t100 -312.5v-606q0 -201 -100 -312.5t-317 -111.5h-250zM238 1571v239q0 33 32 33h240q15 0 24 -9t9 -24v-239q0 -15 -9 -24t-24 -9h-240q-32 0 -32 33zM436 422
q0 -89 35 -123.5t102 -34.5h197q67 0 102 34.5t35 123.5v590q0 88 -35 122.5t-102 34.5h-197q-67 0 -102 -34.5t-35 -122.5v-590zM803 1571v239q0 15 9 24t24 9h239q15 0 24 -9t9 -24v-239q0 -15 -9 -24t-24 -9h-239q-15 0 -24 9t-9 24z" />
    <glyph glyph-name="multiply" unicode="&#xd7;" horiz-adv-x="974" 
d="M117 457q-25 25 0 45l162 164l-164 159q-21 21 2 45l166 164q23 22 45 0l159 -160l162 160q23 22 45 0l166 -164q22 -22 0 -45l-160 -159l160 -164q24 -21 0 -45l-166 -164q-22 -23 -45 0l-162 160l-159 -160q-22 -23 -45 0z" />
    <glyph glyph-name="Oslash" unicode="&#xd8;" 
d="M227 -70q-15 0 -21.5 10t-0.5 25l47 115q-123 106 -123 334v606q0 201 100.5 312.5t317.5 111.5h250q8 0 26 -6l13 35q12 30 43 30h239q15 0 21 -9t0 -24l-49 -114q124 -104 124 -336v-606q0 -201 -100 -312.5t-317 -111.5h-250q-17 0 -25 8l-14 -37q-12 -31 -43 -31
h-238zM432 502l281 663q-2 4 -17 4h-123q-68 0 -104.5 -34.5t-36.5 -122.5v-510zM631 270q6 -6 18 -6h121q68 0 103.5 34.5t35.5 123.5v504z" />
    <glyph glyph-name="Ugrave" unicode="&#xd9;" 
d="M547 -10q-217 0 -317.5 111.5t-100.5 312.5v987q0 15 9 24t24 9h241q15 0 24 -9t9 -24v-979q0 -89 35 -123.5t102 -34.5h197q67 0 102 34.5t35 123.5v979q0 15 9 24t24 9h242q32 0 32 -33v-987q0 -201 -100 -312.5t-317 -111.5h-250zM338 1806q-12 17 -4.5 27t26.5 10
h304q23 0 41 -37l90 -235q15 -37 -21 -37h-201q-22 0 -51 37z" />
    <glyph glyph-name="Uacute" unicode="&#xda;" 
d="M547 -10q-217 0 -317.5 111.5t-100.5 312.5v987q0 15 9 24t24 9h241q15 0 24 -9t9 -24v-979q0 -89 35 -123.5t102 -34.5h197q67 0 102 34.5t35 123.5v979q0 15 9 24t24 9h242q32 0 32 -33v-987q0 -201 -100 -312.5t-317 -111.5h-250zM565 1571l90 235q18 37 43 37h303
q19 0 26 -10t-5 -27l-184 -235q-29 -37 -52 -37h-200q-36 0 -21 37z" />
    <glyph glyph-name="Ucircumflex" unicode="&#xdb;" 
d="M547 -10q-217 0 -317.5 111.5t-100.5 312.5v987q0 15 9 24t24 9h241q15 0 24 -9t9 -24v-979q0 -89 35 -123.5t102 -34.5h197q67 0 102 34.5t35 123.5v979q0 15 9 24t24 9h242q32 0 32 -33v-987q0 -201 -100 -312.5t-317 -111.5h-250zM287 1575l209 240q22 28 57 28h252
q33 0 57 -28l209 -240q12 -15 5 -29t-23 -14h-219q-12 0 -21 2.5t-19.5 11.5t-14 12.5t-17.5 18.5l-72 86h-20l-74 -86q-12 -16 -20 -23.5t-21 -14.5t-29 -7h-221q-16 0 -22.5 14t4.5 29z" />
    <glyph glyph-name="Udieresis" unicode="&#xdc;" 
d="M547 -10q-217 0 -317.5 111.5t-100.5 312.5v987q0 15 9 24t24 9h241q15 0 24 -9t9 -24v-979q0 -89 35 -123.5t102 -34.5h197q67 0 102 34.5t35 123.5v979q0 15 9 24t24 9h242q32 0 32 -33v-987q0 -201 -100 -312.5t-317 -111.5h-250zM238 1571v239q0 33 32 33h240
q15 0 24 -9t9 -24v-239q0 -15 -9 -24t-24 -9h-240q-32 0 -32 33zM803 1571v239q0 15 9 24t24 9h239q15 0 24 -9t9 -24v-239q0 -15 -9 -24t-24 -9h-239q-15 0 -24 9t-9 24z" />
    <glyph glyph-name="Yacute" unicode="&#xdd;" horiz-adv-x="1259" 
d="M72 1395q-9 20 -1.5 29.5t27.5 9.5h244q32 0 45 -31l234 -537h18l233 537q13 31 48 31h243q44 0 27 -39l-406 -877v-485q0 -33 -32 -33h-242q-15 0 -24 9t-9 24v485zM524 1571l90 235q18 37 43 37h304q19 0 25.5 -10t-5.5 -27l-184 -235q-29 -37 -52 -37h-200
q-36 0 -21 37z" />
    <glyph glyph-name="Thorn" unicode="&#xde;" horiz-adv-x="1300" 
d="M162 0q-15 0 -24 9t-9 24v1368q0 15 9 24t24 9h241q15 0 24 -9t9 -24v-141h314q110 0 192.5 -31.5t132.5 -89.5t74.5 -135.5t24.5 -174.5v-225q0 -200 -103.5 -315t-320.5 -115h-314v-141q0 -15 -9 -24t-24 -9h-241zM436 449h287q68 0 105.5 37t37.5 126v209
q0 164 -143 164h-287v-536z" />
    <glyph glyph-name="germandbls" unicode="&#xdf;" horiz-adv-x="1241" 
d="M152 0q-33 0 -33 35v1046q0 85 19 149t61.5 113.5t117.5 75t181 25.5h207q207 0 293.5 -94t86.5 -269v-98q0 -167 -151 -199v-26q104 -19 157.5 -89.5t53.5 -185.5v-94q0 -83 -11 -143.5t-37 -104t-60.5 -71t-89.5 -43t-116 -21.5t-147 -6h-43q-37 0 -37 37v192
q0 37 37 37h43q51 0 75 2.5t47 14.5t30.5 37t7.5 69v94q0 38 -5 62.5t-20 46.5t-46.5 32.5t-82.5 10.5h-49q-37 0 -37 37v192q0 37 37 37h49q58 0 76 17t18 65v92q0 53 -25.5 78t-68.5 25h-176q-43 0 -69.5 -25t-26.5 -78v-1040q0 -35 -33 -35h-233z" />
    <glyph glyph-name="agrave" unicode="&#xe0;" horiz-adv-x="1091" 
d="M707 0q-33 0 -33 35v86h-25q-54 -64 -110.5 -97.5t-143.5 -33.5h-18q-142 0 -215.5 79.5t-73.5 221.5v71q0 135 77 198t245 63h264v45q0 56 -44 80t-155 24q-123 0 -209 -22q-35 -8 -43 26l-30 164q-7 29 24 43q133 49 324 49h57q375 0 375 -350v-647q0 -35 -33 -35h-233
zM231 1397q-12 17 -4 27t27 10h303q23 0 41 -37l90 -236q15 -37 -20 -37h-201q-22 0 -51 37zM381 303q0 -57 74 -57h100q119 0 119 110v58h-221q-36 0 -54 -14t-18 -56v-41z" />
    <glyph glyph-name="aacute" unicode="&#xe1;" horiz-adv-x="1091" 
d="M707 0q-33 0 -33 35v86h-25q-54 -64 -110.5 -97.5t-143.5 -33.5h-18q-142 0 -215.5 79.5t-73.5 221.5v71q0 135 77 198t245 63h264v45q0 56 -44 80t-155 24q-123 0 -209 -22q-35 -8 -43 26l-30 164q-7 29 24 43q133 49 324 49h57q375 0 375 -350v-647q0 -35 -33 -35h-233
zM381 303q0 -57 74 -57h100q119 0 119 110v58h-221q-36 0 -54 -14t-18 -56v-41zM459 1161l90 236q18 37 43 37h303q19 0 25.5 -10t-5.5 -27l-184 -236q-29 -37 -51 -37h-201q-35 0 -20 37z" />
    <glyph glyph-name="acircumflex" unicode="&#xe2;" horiz-adv-x="1091" 
d="M707 0q-33 0 -33 35v86h-25q-54 -64 -110.5 -97.5t-143.5 -33.5h-18q-142 0 -215.5 79.5t-73.5 221.5v71q0 135 77 198t245 63h264v45q0 56 -44 80t-155 24q-123 0 -209 -22q-35 -8 -43 26l-30 164q-7 29 24 43q133 49 324 49h57q375 0 375 -350v-647q0 -35 -33 -35h-233
zM180 1165l209 240q23 29 57 29h252q33 0 58 -29l209 -240q12 -15 4.5 -29t-23.5 -14h-219q-12 0 -21 2.5t-19.5 11.5t-14 12.5t-17.5 18.5l-71 86h-21l-74 -86q-13 -16 -20 -23.5t-20 -14.5t-29 -7h-221q-16 0 -23 14t4 29zM381 303q0 -57 74 -57h100q119 0 119 110v58
h-221q-36 0 -54 -14t-18 -56v-41z" />
    <glyph glyph-name="atilde" unicode="&#xe3;" horiz-adv-x="1091" 
d="M707 0q-33 0 -33 35v86h-25q-54 -64 -110.5 -97.5t-143.5 -33.5h-18q-142 0 -215.5 79.5t-73.5 221.5v71q0 135 77 198t245 63h264v45q0 56 -44 80t-155 24q-123 0 -209 -22q-35 -8 -43 26l-30 164q-7 29 24 43q133 49 324 49h57q375 0 375 -350v-647q0 -35 -33 -35h-233
zM201 1319q-5 17 0 27.5t20 23.5q56 43 106.5 58.5t110.5 15.5q62 0 107.5 -19t81.5 -38t75 -19q10 0 19.5 1t16 1.5t16 3.5t13.5 4t14.5 6t14 7t17.5 9l18 9q25 14 39 -10l66 -166q5 -17 -0.5 -27.5t-20.5 -23.5q-56 -43 -106.5 -58.5t-110.5 -15.5q-62 0 -107.5 19
t-81.5 38t-75 19t-63.5 -8t-61.5 -31q-29 -15 -43 8zM381 303q0 -57 74 -57h100q119 0 119 110v58h-221q-36 0 -54 -14t-18 -56v-41z" />
    <glyph glyph-name="adieresis" unicode="&#xe4;" horiz-adv-x="1091" 
d="M707 0q-33 0 -33 35v86h-25q-54 -64 -110.5 -97.5t-143.5 -33.5h-18q-142 0 -215.5 79.5t-73.5 221.5v71q0 135 77 198t245 63h264v45q0 56 -44 80t-155 24q-123 0 -209 -22q-35 -8 -43 26l-30 164q-7 29 24 43q133 49 324 49h57q375 0 375 -350v-647q0 -35 -33 -35h-233
zM131 1161v240q0 15 9 24t24 9h239q15 0 24 -9t9 -24v-240q0 -15 -9 -24t-24 -9h-239q-15 0 -24 9t-9 24zM381 303q0 -57 74 -57h100q119 0 119 110v58h-221q-36 0 -54 -14t-18 -56v-41zM696 1161v240q0 15 9 24t24 9h240q32 0 32 -33v-240q0 -33 -32 -33h-240q-15 0 -24 9
t-9 24z" />
    <glyph glyph-name="aring" unicode="&#xe5;" horiz-adv-x="1091" 
d="M707 0q-33 0 -33 35v86h-25q-54 -64 -110.5 -97.5t-143.5 -33.5h-18q-142 0 -215.5 79.5t-73.5 221.5v71q0 135 77 198t245 63h264v45q0 56 -44 80t-155 24q-123 0 -209 -22q-35 -8 -43 26l-30 164q-7 29 24 43q133 49 324 49h57q375 0 375 -350v-647q0 -35 -33 -35h-233
zM381 303q0 -57 74 -57h100q119 0 119 110v58h-221q-36 0 -54 -14t-18 -56v-41zM381 1270v30q0 71 47.5 117.5t122.5 46.5h31q74 0 121 -46.5t47 -117.5v-30q0 -71 -47 -118.5t-121 -47.5h-31q-74 0 -122 47.5t-48 118.5zM528 1280q0 -14 8 -22.5t19 -8.5h23q28 0 28 31v12
q0 12 -8 19.5t-20 7.5h-23q-11 0 -19 -7.5t-8 -19.5v-12z" />
    <glyph glyph-name="ae" unicode="&#xe6;" horiz-adv-x="1640" 
d="M377 -10q-141 0 -215 80t-74 217v65q0 135 76.5 194.5t245.5 59.5h264v37q0 65 -45 97t-154 32q-123 0 -209 -22q-35 -8 -43 26l-30 164q-7 29 24 43q133 49 324 49h57q142 0 227 -49q85 49 230 49h108q197 0 289 -95t92 -267v-213q0 -66 -69 -66h-502v-41
q0 -50 37.5 -80t111.5 -30h21q96 0 147 10t99 33q30 13 47 -15l67 -104q19 -25 4 -43q-60 -59 -159 -95t-203 -36h-33q-280 0 -379 143q-90 -143 -340 -143h-16zM381 295q0 -49 74 -49h100q119 0 119 110v37h-221q-20 0 -29.5 -1t-21.5 -6t-16.5 -18t-4.5 -34v-39zM973 606
h270v62q0 52 -26.5 75t-67.5 23h-80q-96 0 -96 -96v-64z" />
    <glyph glyph-name="ccedilla" unicode="&#xe7;" horiz-adv-x="1054" 
d="M416 -426q-96 0 -139.5 45t-43.5 121q0 33 29 33h172q18 0 27 -23q3 -1 9.5 -4t14.5 -5.5t15 -2.5h45q17 0 31 9.5t14 25.5q0 19 -27 28t-100 9h-84q-37 0 -60.5 17t-23.5 52q0 20 13 39.5t26 31.5t57 50h4q-297 50 -297 350v322q0 360 379 360h121q181 0 275 -93.5
t94 -256.5v-16q0 -33 -33 -33h-219q-33 0 -33 33v16q0 42 -27.5 63t-72.5 21h-88q-43 0 -70 -23.5t-27 -74.5v-285q0 -68 34 -100.5t106 -32.5h16q76 0 112.5 12.5t61.5 52.5q17 28 47 15l160 -74q35 -15 22 -45q-80 -192 -319 -217q-30 -14 -40.5 -25.5t-3.5 -18t20 -10
t30 -3.5h45q70 0 98.5 -38t28.5 -114q0 -211 -209 -211h-190z" />
    <glyph glyph-name="egrave" unicode="&#xe8;" horiz-adv-x="1064" 
d="M537 -10q-235 0 -337 95t-102 265v322q0 360 381 360h109q197 0 289 -95t92 -267v-213q0 -66 -70 -66h-502v-41q0 -49 38 -79.5t112 -30.5h20q96 0 147 10t99 33q30 13 47 -15l68 -104q19 -25 4 -43q-60 -59 -159.5 -95t-203.5 -36h-32zM205 1397q-12 17 -4.5 27t26.5 10
h303q23 0 41 -37l91 -236q15 -37 -21 -37h-201q-22 0 -51 37zM397 606h271v62q0 52 -27 75t-68 23h-79q-97 0 -97 -96v-64z" />
    <glyph glyph-name="eacute" unicode="&#xe9;" horiz-adv-x="1064" 
d="M537 -10q-235 0 -337 95t-102 265v322q0 360 381 360h109q197 0 289 -95t92 -267v-213q0 -66 -70 -66h-502v-41q0 -49 38 -79.5t112 -30.5h20q96 0 147 10t99 33q30 13 47 -15l68 -104q19 -25 4 -43q-60 -59 -159.5 -95t-203.5 -36h-32zM397 606h271v62q0 52 -27 75
t-68 23h-79q-97 0 -97 -96v-64zM432 1161l90 236q18 37 43 37h303q19 0 26 -10t-5 -27l-184 -236q-29 -37 -52 -37h-200q-36 0 -21 37z" />
    <glyph glyph-name="ecircumflex" unicode="&#xea;" horiz-adv-x="1064" 
d="M537 -10q-235 0 -337 95t-102 265v322q0 360 381 360h109q197 0 289 -95t92 -267v-213q0 -66 -70 -66h-502v-41q0 -49 38 -79.5t112 -30.5h20q96 0 147 10t99 33q30 13 47 -15l68 -104q19 -25 4 -43q-60 -59 -159.5 -95t-203.5 -36h-32zM154 1165l208 240q23 29 58 29
h252q32 0 57 -29l209 -240q12 -15 5 -29t-23 -14h-220q-5 0 -10 0.5t-9.5 2.5t-8 3t-8 4.5t-7 5t-7.5 6.5t-6.5 7t-7 8t-7.5 8l-72 86h-20l-74 -86q-12 -16 -20 -23.5t-21 -14.5t-29 -7h-221q-16 0 -22.5 14t4.5 29zM397 606h271v62q0 52 -27 75t-68 23h-79q-97 0 -97 -96
v-64z" />
    <glyph glyph-name="edieresis" unicode="&#xeb;" horiz-adv-x="1064" 
d="M537 -10q-235 0 -337 95t-102 265v322q0 360 381 360h109q197 0 289 -95t92 -267v-213q0 -66 -70 -66h-502v-41q0 -49 38 -79.5t112 -30.5h20q96 0 147 10t99 33q30 13 47 -15l68 -104q19 -25 4 -43q-60 -59 -159.5 -95t-203.5 -36h-32zM104 1161v240q0 15 9 24t24 9h240
q15 0 24 -9t9 -24v-240q0 -15 -9 -24t-24 -9h-240q-15 0 -24 9t-9 24zM397 606h271v62q0 52 -27 75t-68 23h-79q-97 0 -97 -96v-64zM670 1161v240q0 33 32 33h240q15 0 24 -9t9 -24v-240q0 -15 -9 -24t-24 -9h-240q-32 0 -32 33z" />
    <glyph glyph-name="igrave" unicode="&#xec;" horiz-adv-x="526" 
d="M147 0q-34 0 -34 35v956q0 33 34 33h232q35 0 35 -33v-956q0 -35 -35 -35h-232zM-78 1397q-12 17 -4 27t27 10h305q23 0 41 -37l90 -236q15 -37 -21 -37h-200q-22 0 -51 37z" />
    <glyph glyph-name="iacute" unicode="&#xed;" horiz-adv-x="526" 
d="M147 0q-34 0 -34 35v956q0 33 34 33h232q35 0 35 -33v-956q0 -35 -35 -35h-232zM152 1161l90 236q18 37 43 37h303q19 0 25.5 -10t-5.5 -27l-184 -236q-29 -37 -51 -37h-201q-35 0 -20 37z" />
    <glyph glyph-name="icircumflex" unicode="&#xee;" horiz-adv-x="526" 
d="M147 0q-34 0 -34 35v956q0 33 34 33h232q35 0 35 -33v-956q0 -35 -35 -35h-232zM-129 1165l211 240q23 29 57 29h252q33 0 58 -29l208 -240q12 -15 5 -29t-23 -14h-219q-12 0 -21 2.5t-19.5 11.5t-14 12.5t-17.5 18.5l-72 86h-20l-74 -86q-13 -16 -20 -23.5t-20 -14.5
t-29 -7h-224q-16 0 -22.5 14t4.5 29z" />
    <glyph glyph-name="idieresis" unicode="&#xef;" horiz-adv-x="526" 
d="M147 0q-34 0 -34 35v956q0 33 34 33h232q35 0 35 -33v-956q0 -35 -35 -35h-232zM-178 1161v240q0 15 9 24t24 9h239q15 0 24 -9t9 -24v-240q0 -15 -9 -24t-24 -9h-239q-15 0 -24 9t-9 24zM387 1161v240q0 15 9 24t24 9h239q15 0 24 -9t9 -24v-240q0 -15 -9 -24t-24 -9
h-239q-15 0 -24 9t-9 24z" />
    <glyph glyph-name="eth" unicode="&#xf0;" horiz-adv-x="1122" 
d="M553 1087l139 89v225q0 33 35 33h231q35 0 35 -33v-37h273l-273 -180v-1149q0 -35 -35 -35h-231q-35 0 -35 35v49h-24q-40 -46 -89.5 -70t-129.5 -24h-13q-338 0 -338 346v350q0 346 338 346h13q80 0 129.5 -24t89.5 -70h24v149h-139zM397 362q0 -48 29 -76t68 -28h102
q42 0 69 27.5t27 79.5v292q0 53 -27 81t-69 28h-102q-39 0 -68 -28.5t-29 -78.5v-297z" />
    <glyph glyph-name="ntilde" unicode="&#xf1;" horiz-adv-x="1130" 
d="M152 0q-33 0 -33 35v956q0 33 33 33h235q11 0 21 -8.5t10 -24.5v-67h33q30 52 91.5 80t141.5 28h18q166 0 239 -87t73 -259v-651q0 -16 -10 -25.5t-21 -9.5h-235q-35 0 -35 35v622q0 52 -25.5 80.5t-64.5 28.5h-99q-46 0 -76 -28.5t-30 -82.5v-620q0 -16 -10 -25.5
t-21 -9.5h-235zM201 1319q-5 17 0 27.5t20 23.5q56 43 106.5 58.5t110.5 15.5q62 0 107.5 -19t81.5 -38t75 -19q10 0 19.5 1t16 1.5t16 3.5t13.5 4t14.5 6t14 7t17.5 9l18 9q25 14 39 -10l66 -166q5 -17 -0.5 -27.5t-20.5 -23.5q-56 -43 -106.5 -58.5t-110.5 -15.5
q-62 0 -107.5 19t-81.5 38t-75 19t-63.5 -8t-61.5 -31q-29 -15 -43 8z" />
    <glyph glyph-name="ograve" unicode="&#xf2;" horiz-adv-x="1089" 
d="M477 -10q-196 0 -287.5 95.5t-91.5 266.5v318q0 362 379 362h135q197 0 289 -95t92 -267v-318q0 -171 -92 -266.5t-289 -95.5h-135zM211 1397q-12 17 -4.5 27t26.5 10h304q23 0 41 -37l90 -236q15 -37 -21 -37h-201q-22 0 -51 37zM397 358q0 -52 27.5 -76t69.5 -24h104
q42 0 68 24t26 76v308q0 51 -26 75.5t-68 24.5h-104q-42 0 -69.5 -24.5t-27.5 -75.5v-308z" />
    <glyph glyph-name="oacute" unicode="&#xf3;" horiz-adv-x="1089" 
d="M477 -10q-196 0 -287.5 95.5t-91.5 266.5v318q0 362 379 362h135q197 0 289 -95t92 -267v-318q0 -171 -92 -266.5t-289 -95.5h-135zM397 358q0 -52 27.5 -76t69.5 -24h104q42 0 68 24t26 76v308q0 51 -26 75.5t-68 24.5h-104q-42 0 -69.5 -24.5t-27.5 -75.5v-308z
M438 1161l90 236q18 37 43 37h303q19 0 26 -10t-5 -27l-184 -236q-29 -37 -52 -37h-200q-36 0 -21 37z" />
    <glyph glyph-name="ocircumflex" unicode="&#xf4;" horiz-adv-x="1089" 
d="M477 -10q-196 0 -287.5 95.5t-91.5 266.5v318q0 362 379 362h135q197 0 289 -95t92 -267v-318q0 -171 -92 -266.5t-289 -95.5h-135zM160 1165l209 240q23 29 57 29h252q32 0 57 -29l209 -240q12 -15 5 -29t-23 -14h-219q-12 0 -21 2.5t-19.5 11.5t-14 12.5t-17.5 18.5
l-72 86h-20l-74 -86q-12 -16 -20 -23.5t-21 -14.5t-29 -7h-221q-16 0 -22.5 14t4.5 29zM397 358q0 -52 27.5 -76t69.5 -24h104q42 0 68 24t26 76v308q0 51 -26 75.5t-68 24.5h-104q-42 0 -69.5 -24.5t-27.5 -75.5v-308z" />
    <glyph glyph-name="otilde" unicode="&#xf5;" horiz-adv-x="1089" 
d="M477 -10q-196 0 -287.5 95.5t-91.5 266.5v318q0 362 379 362h135q197 0 289 -95t92 -267v-318q0 -171 -92 -266.5t-289 -95.5h-135zM180 1319q-5 17 0.5 27.5t20.5 23.5q56 43 106.5 58.5t110.5 15.5q62 0 107.5 -19t81.5 -38t75 -19q10 0 19.5 1t16 1.5t16 3.5t13.5 4
t14.5 6t14 7t17.5 9l18 9q25 14 39 -10l65 -166q5 -17 0 -27.5t-20 -23.5q-56 -43 -106.5 -58.5t-110.5 -15.5q-62 0 -107.5 19t-81.5 38t-75 19t-63.5 -8t-61.5 -31q-29 -15 -43 8zM397 358q0 -52 27.5 -76t69.5 -24h104q42 0 68 24t26 76v308q0 51 -26 75.5t-68 24.5h-104
q-42 0 -69.5 -24.5t-27.5 -75.5v-308z" />
    <glyph glyph-name="odieresis" unicode="&#xf6;" horiz-adv-x="1089" 
d="M477 -10q-196 0 -287.5 95.5t-91.5 266.5v318q0 362 379 362h135q197 0 289 -95t92 -267v-318q0 -171 -92 -266.5t-289 -95.5h-135zM111 1161v240q0 33 32 33h240q15 0 24 -9t9 -24v-240q0 -15 -9 -24t-24 -9h-240q-32 0 -32 33zM397 358q0 -52 27.5 -76t69.5 -24h104
q42 0 68 24t26 76v308q0 51 -26 75.5t-68 24.5h-104q-42 0 -69.5 -24.5t-27.5 -75.5v-308zM676 1161v240q0 15 9 24t24 9h239q15 0 24 -9t9 -24v-240q0 -15 -9 -24t-24 -9h-239q-15 0 -24 9t-9 24z" />
    <glyph glyph-name="divide" unicode="&#xf7;" horiz-adv-x="1060" 
d="M408 905q-31 0 -31 31v248q0 30 31 30h245q31 0 31 -30v-248q0 -31 -31 -31h-245zM102 551v225q0 15 9 24t24 9h793q30 0 30 -33v-225q0 -33 -32 -33h-791q-15 0 -24 9t-9 24zM377 139v248q0 31 31 31h245q31 0 31 -31v-248q0 -30 -31 -30h-245q-31 0 -31 30z" />
    <glyph glyph-name="oslash" unicode="&#xf8;" horiz-adv-x="1089" 
d="M180 -82q-16 0 -22 8t2 25l53 112q-115 93 -115 289v318q0 362 379 362h103q73 0 98 -10l18 39q18 35 45 35h168q16 0 22.5 -8t-1.5 -27l-49 -105q112 -90 112 -286v-318q0 -171 -92 -266.5t-289 -95.5h-100q-61 0 -98 12l-21 -49q-12 -35 -45 -35h-168zM393 424l178 332
q-22 10 -45 10h-32q-42 0 -71.5 -25t-29.5 -75v-242zM522 266q16 -8 41 -8h35q43 0 71.5 24t28.5 76v240z" />
    <glyph glyph-name="ugrave" unicode="&#xf9;" horiz-adv-x="1130" 
d="M430 -8q-166 0 -238.5 87.5t-72.5 258.5v653q0 16 10 24.5t21 8.5h235q33 0 33 -33v-622q0 -52 26 -80.5t66 -28.5h98q45 0 75 28t30 81v622q0 16 9.5 24.5t20.5 8.5h236q35 0 35 -33v-956q0 -35 -35 -35h-236q-10 0 -20 9.5t-10 25.5v67h-33q-31 -52 -91.5 -81
t-139.5 -29h-19zM219 1397q-12 17 -4 27t27 10h303q23 0 41 -37l90 -236q15 -37 -21 -37h-200q-23 0 -52 37z" />
    <glyph glyph-name="uacute" unicode="&#xfa;" horiz-adv-x="1130" 
d="M430 -8q-166 0 -238.5 87.5t-72.5 258.5v653q0 16 10 24.5t21 8.5h235q33 0 33 -33v-622q0 -52 26 -80.5t66 -28.5h98q45 0 75 28t30 81v622q0 16 9.5 24.5t20.5 8.5h236q35 0 35 -33v-956q0 -35 -35 -35h-236q-10 0 -20 9.5t-10 25.5v67h-33q-31 -52 -91.5 -81
t-139.5 -29h-19zM449 1161l90 236q18 37 43 37h303q19 0 25.5 -10t-5.5 -27l-184 -236q-29 -37 -51 -37h-201q-35 0 -20 37z" />
    <glyph glyph-name="ucircumflex" unicode="&#xfb;" horiz-adv-x="1130" 
d="M430 -8q-166 0 -238.5 87.5t-72.5 258.5v653q0 16 10 24.5t21 8.5h235q33 0 33 -33v-622q0 -52 26 -80.5t66 -28.5h98q45 0 75 28t30 81v622q0 16 9.5 24.5t20.5 8.5h236q35 0 35 -33v-956q0 -35 -35 -35h-236q-10 0 -20 9.5t-10 25.5v67h-33q-31 -52 -91.5 -81
t-139.5 -29h-19zM168 1165l209 240q23 29 57 29h252q32 0 57 -29l209 -240q12 -15 5 -29t-23 -14h-219q-12 0 -21 2.5t-19.5 11.5t-14 12.5t-17.5 18.5l-72 86h-20l-74 -86q-13 -16 -20 -23.5t-20 -14.5t-29 -7h-222q-16 0 -22.5 14t4.5 29z" />
    <glyph glyph-name="udieresis" unicode="&#xfc;" horiz-adv-x="1130" 
d="M430 -8q-166 0 -238.5 87.5t-72.5 258.5v653q0 16 10 24.5t21 8.5h235q33 0 33 -33v-622q0 -52 26 -80.5t66 -28.5h98q45 0 75 28t30 81v622q0 16 9.5 24.5t20.5 8.5h236q35 0 35 -33v-956q0 -35 -35 -35h-236q-10 0 -20 9.5t-10 25.5v67h-33q-31 -52 -91.5 -81
t-139.5 -29h-19zM119 1161v240q0 15 9 24t24 9h239q15 0 24 -9t9 -24v-240q0 -15 -9 -24t-24 -9h-239q-15 0 -24 9t-9 24zM684 1161v240q0 15 9 24t24 9h239q15 0 24 -9t9 -24v-240q0 -15 -9 -24t-24 -9h-239q-15 0 -24 9t-9 24z" />
    <glyph glyph-name="yacute" unicode="&#xfd;" horiz-adv-x="1173" 
d="M350 -362q-39 0 -26 36l114 312l-368 1001q-7 17 2 27t26 10h232q27 0 39 -35l211 -624h18l209 624q12 35 39 35h231q16 0 25.5 -9.5t3.5 -27.5l-481 -1313q-8 -21 -16.5 -28.5t-26.5 -7.5h-232zM483 1161l90 236q18 37 43 37h304q19 0 25.5 -10t-5.5 -27l-184 -236
q-29 -37 -51 -37h-201q-36 0 -21 37z" />
    <glyph glyph-name="thorn" unicode="&#xfe;" horiz-adv-x="1110" 
d="M662 -10q-78 0 -128 24.5t-90 69.5h-26v-414q0 -32 -33 -32h-233q-33 0 -33 32v1731q0 33 33 33h233q33 0 33 -33v-463h26q40 45 90 69.5t128 24.5h14q338 0 338 -346v-350q0 -168 -83.5 -257t-254.5 -89h-14zM418 365q0 -52 28 -79.5t70 -27.5h102q39 0 67 27.5t28 76.5
v297q0 50 -28 78.5t-67 28.5h-102q-42 0 -70 -28t-28 -81v-292z" />
    <glyph glyph-name="ydieresis" unicode="&#xff;" horiz-adv-x="1173" 
d="M350 -362q-39 0 -26 36l114 312l-368 1001q-7 17 2 27t26 10h232q27 0 39 -35l211 -624h18l209 624q12 35 39 35h231q16 0 25.5 -9.5t3.5 -27.5l-481 -1313q-8 -21 -16.5 -28.5t-26.5 -7.5h-232zM154 1161v240q0 33 32 33h240q15 0 24 -9t9 -24v-240q0 -15 -9 -24t-24 -9
h-240q-32 0 -32 33zM719 1161v240q0 15 9 24t24 9h239q15 0 24 -9t9 -24v-240q0 -15 -9 -24t-24 -9h-239q-15 0 -24 9t-9 24z" />
    <glyph glyph-name="Amacron" unicode="&#x100;" horiz-adv-x="1302" 
d="M850 1434q31 0 41 -33l344 -1360q4 -17 -5 -29t-24 -12h-241q-30 0 -41 41l-43 174h-457l-43 -174q-11 -41 -41 -41h-242q-17 0 -25 12t-3 29l344 1360q10 33 39 33h397zM289 1608v204q0 31 33 31h661q31 0 31 -31v-204q0 -31 -31 -31h-661q-33 0 -33 31zM487 479h328
l-147 604h-33z" />
    <glyph glyph-name="amacron" unicode="&#x101;" horiz-adv-x="1091" 
d="M707 0q-33 0 -33 35v86h-25q-54 -64 -110.5 -97.5t-143.5 -33.5h-18q-142 0 -215.5 79.5t-73.5 221.5v71q0 135 77 198t245 63h264v45q0 56 -44 80t-155 24q-123 0 -209 -22q-35 -8 -43 26l-30 164q-7 29 24 43q133 49 324 49h57q375 0 375 -350v-647q0 -35 -33 -35h-233
zM203 1198v205q0 31 33 31h661q31 0 31 -31v-205q0 -31 -31 -31h-661q-33 0 -33 31zM381 303q0 -57 74 -57h100q119 0 119 110v58h-221q-36 0 -54 -14t-18 -56v-41z" />
    <glyph glyph-name="Abreve" unicode="&#x102;" horiz-adv-x="1302" 
d="M850 1434q31 0 41 -33l344 -1360q4 -17 -5 -29t-24 -12h-241q-30 0 -41 41l-43 174h-457l-43 -174q-11 -41 -41 -41h-242q-17 0 -25 12t-3 29l344 1360q10 33 39 33h397zM283 1806q0 37 32 37h168q18 0 26 -8.5t11 -26.5q7 -54 29 -83t78 -29h49q56 0 78.5 29t29.5 83
q3 35 35 35h168q33 0 33 -37q0 -156 -72 -230.5t-225 -74.5h-141q-154 0 -226.5 74.5t-72.5 230.5zM487 479h328l-147 604h-33z" />
    <glyph glyph-name="abreve" unicode="&#x103;" horiz-adv-x="1091" 
d="M707 0q-33 0 -33 35v86h-25q-54 -64 -110.5 -97.5t-143.5 -33.5h-18q-142 0 -215.5 79.5t-73.5 221.5v71q0 135 77 198t245 63h264v45q0 56 -44 80t-155 24q-123 0 -209 -22q-35 -8 -43 26l-30 164q-7 29 24 43q133 49 324 49h57q375 0 375 -350v-647q0 -35 -33 -35h-233
zM197 1397q0 37 32 37h168q18 0 26 -8.5t11 -26.5q7 -55 29 -84t78 -29h49q56 0 78.5 29.5t29.5 83.5q3 35 35 35h168q33 0 33 -37q0 -156 -72 -230.5t-225 -74.5h-141q-154 0 -226.5 74.5t-72.5 230.5zM381 303q0 -57 74 -57h100q119 0 119 110v58h-221q-36 0 -54 -14
t-18 -56v-41z" />
    <glyph glyph-name="Aogonek" unicode="&#x104;" horiz-adv-x="1292" 
d="M866 -426q-68 0 -106.5 6.5t-66 28t-37 58.5t-9.5 100q0 103 28 138t113 44l70 6q12 1 17.5 1.5t17 2.5t15.5 4.5t12.5 6.5t8.5 9t3.5 13t-2.5 18l-49 205h-459l-41 -172q-5 -18 -16 -30.5t-25 -12.5h-242q-17 0 -25 12.5t-3 30.5l344 1358q10 33 39 33h397q31 0 41 -33
l377 -1479q9 -35 2 -57t-37 -34t-51 -16t-72 -10q-10 -1 -16 -2l-162 -16q-17 0 -17 -14q0 -1 2.5 -3.5t4.5 -2.5h256q9 0 14.5 -8t5.5 -19v-146q0 -20 -20 -20h-312zM487 479h328l-147 606h-33z" />
    <glyph glyph-name="aogonek" unicode="&#x105;" horiz-adv-x="1091" 
d="M377 -10q-142 0 -215.5 79.5t-73.5 221.5v71q0 135 77 198t245 63h264v45q0 56 -44 80t-155 24q-123 0 -209 -22q-35 -8 -43 26l-30 164q-7 29 24 43q133 49 324 49h57q375 0 375 -350v-641h2v-119q0 -36 -7.5 -58t-33 -34.5t-42.5 -16.5t-66 -10q-9 -1 -13 -2l-139 -16
q-17 -2 -17 -14q5 -4 7 -4h256q9 0 14.5 -8t5.5 -19v-146q0 -20 -20 -20h-312q-68 0 -106.5 6.5t-66 28t-37 58.5t-9.5 100q0 103 28 138t113 44l72 6q5 1 17 1.5t16.5 1t12.5 2.5t11.5 5t7.5 8.5t5.5 13.5t1.5 19v115h-25q-54 -64 -110.5 -97.5t-143.5 -33.5h-18zM381 303
q0 -57 74 -57h100q119 0 119 110v58h-221q-36 0 -54 -14t-18 -56v-41z" />
    <glyph glyph-name="Cacute" unicode="&#x106;" horiz-adv-x="1316" 
d="M547 -10q-217 0 -317.5 111.5t-100.5 312.5v606q0 201 100.5 312.5t317.5 111.5h241q223 0 321.5 -109.5t98.5 -320.5v-13q0 -17 -9.5 -26.5t-24.5 -9.5h-236q-37 0 -37 36q0 96 -38 132t-105 36h-185q-67 0 -102 -34.5t-35 -122.5v-590q0 -89 35 -123.5t102 -34.5h185
q67 0 105 35.5t38 130.5q0 37 37 37h236q15 0 24.5 -10t9.5 -27v-12q0 -209 -98.5 -318.5t-321.5 -109.5h-241zM555 1571l90 235q18 37 43 37h303q19 0 26 -10t-5 -27l-185 -235q-29 -37 -51 -37h-201q-35 0 -20 37z" />
    <glyph glyph-name="cacute" unicode="&#x107;" horiz-adv-x="1054" 
d="M528 -10q-430 0 -430 360v322q0 360 379 360h121q181 0 275 -93.5t94 -256.5v-16q0 -33 -33 -33h-219q-33 0 -33 33v16q0 42 -27.5 63t-72.5 21h-88q-43 0 -70 -23.5t-27 -74.5v-285q0 -68 34 -100.5t106 -32.5h16q76 0 112.5 12.5t61.5 52.5q17 28 47 15l160 -74
q35 -15 22 -45q-28 -65 -73 -110.5t-101.5 -68.5t-112.5 -32.5t-122 -9.5h-19zM428 1161l90 236q18 37 43 37h303q19 0 26 -10t-5 -27l-185 -236q-29 -37 -51 -37h-200q-36 0 -21 37z" />
    <glyph glyph-name="Ccircumflex" unicode="&#x108;" horiz-adv-x="1316" 
d="M547 -10q-217 0 -317.5 111.5t-100.5 312.5v606q0 201 100.5 312.5t317.5 111.5h241q223 0 321.5 -109.5t98.5 -320.5v-13q0 -17 -9.5 -26.5t-24.5 -9.5h-236q-37 0 -37 36q0 96 -38 132t-105 36h-185q-67 0 -102 -34.5t-35 -122.5v-590q0 -89 35 -123.5t102 -34.5h185
q67 0 105 35.5t38 130.5q0 37 37 37h236q15 0 24.5 -10t9.5 -27v-12q0 -209 -98.5 -318.5t-321.5 -109.5h-241zM276 1575l209 240q22 28 58 28h252q33 0 57 -28l209 -240q12 -15 4.5 -29t-23.5 -14h-219q-5 0 -10 0.5t-9.5 2.5t-8 3t-8 4.5t-7 5t-7.5 6.5t-6.5 7t-7 8
t-7.5 8l-72 86h-21l-73 -86q-12 -16 -20 -23.5t-21 -14.5t-29 -7h-221q-16 0 -23 14t4 29z" />
    <glyph glyph-name="ccircumflex" unicode="&#x109;" horiz-adv-x="1054" 
d="M528 -10q-430 0 -430 360v322q0 360 379 360h121q181 0 275 -93.5t94 -256.5v-16q0 -33 -33 -33h-219q-33 0 -33 33v16q0 42 -27.5 63t-72.5 21h-88q-43 0 -70 -23.5t-27 -74.5v-285q0 -68 34 -100.5t106 -32.5h16q76 0 112.5 12.5t61.5 52.5q17 28 47 15l160 -74
q35 -15 22 -45q-28 -65 -73 -110.5t-101.5 -68.5t-112.5 -32.5t-122 -9.5h-19zM147 1165l209 240q23 29 58 29h252q32 0 57 -29l209 -240q12 -15 4.5 -29t-23.5 -14h-219q-5 0 -10 0.5t-9.5 2.5t-8 3t-8 4.5t-7 5t-7.5 6.5t-6.5 7t-7 8t-7.5 8l-72 86h-21l-73 -86
q-12 -16 -20 -23.5t-21 -14.5t-29 -7h-221q-16 0 -23 14t4 29z" />
    <glyph glyph-name="Cdotaccent" unicode="&#x10a;" horiz-adv-x="1316" 
d="M547 -10q-217 0 -317.5 111.5t-100.5 312.5v606q0 201 100.5 312.5t317.5 111.5h241q223 0 321.5 -109.5t98.5 -320.5v-13q0 -17 -9.5 -26.5t-24.5 -9.5h-236q-37 0 -37 36q0 96 -38 132t-105 36h-185q-67 0 -102 -34.5t-35 -122.5v-590q0 -89 35 -123.5t102 -34.5h185
q67 0 105 35.5t38 130.5q0 37 37 37h236q15 0 24.5 -10t9.5 -27v-12q0 -209 -98.5 -318.5t-321.5 -109.5h-241zM508 1571v239q0 15 9 24t24 9h239q15 0 24 -9t9 -24v-239q0 -15 -9 -24t-24 -9h-239q-15 0 -24 9t-9 24z" />
    <glyph glyph-name="cdotaccent" unicode="&#x10b;" horiz-adv-x="1054" 
d="M528 -10q-430 0 -430 360v322q0 360 379 360h121q181 0 275 -93.5t94 -256.5v-16q0 -33 -33 -33h-219q-33 0 -33 33v16q0 42 -27.5 63t-72.5 21h-88q-43 0 -70 -23.5t-27 -74.5v-285q0 -68 34 -100.5t106 -32.5h16q76 0 112.5 12.5t61.5 52.5q17 28 47 15l160 -74
q35 -15 22 -45q-28 -65 -73 -110.5t-101.5 -68.5t-112.5 -32.5t-122 -9.5h-19zM381 1161v240q0 15 9 24t24 9h239q15 0 24 -9t9 -24v-240q0 -15 -9 -24t-24 -9h-239q-15 0 -24 9t-9 24z" />
    <glyph glyph-name="Ccaron" unicode="&#x10c;" horiz-adv-x="1316" 
d="M547 -10q-217 0 -317.5 111.5t-100.5 312.5v606q0 201 100.5 312.5t317.5 111.5h241q223 0 321.5 -109.5t98.5 -320.5v-13q0 -17 -9.5 -26.5t-24.5 -9.5h-236q-37 0 -37 36q0 96 -38 132t-105 36h-185q-67 0 -102 -34.5t-35 -122.5v-590q0 -89 35 -123.5t102 -34.5h185
q67 0 105 35.5t38 130.5q0 37 37 37h236q15 0 24.5 -10t9.5 -27v-12q0 -209 -98.5 -318.5t-321.5 -109.5h-241zM270 1802q-11 14 -4 27.5t23 13.5h221q23 0 38 -11t32 -34l73 -86h21l71 86q14 17 22 24.5t21 14t29 6.5h219q16 0 23.5 -13.5t-4.5 -27.5l-209 -239
q-27 -31 -58 -31h-251q-33 0 -58 31z" />
    <glyph glyph-name="ccaron" unicode="&#x10d;" horiz-adv-x="1054" 
d="M528 -10q-430 0 -430 360v322q0 360 379 360h121q181 0 275 -93.5t94 -256.5v-16q0 -33 -33 -33h-219q-33 0 -33 33v16q0 42 -27.5 63t-72.5 21h-88q-43 0 -70 -23.5t-27 -74.5v-285q0 -68 34 -100.5t106 -32.5h16q76 0 112.5 12.5t61.5 52.5q17 28 47 15l160 -74
q35 -15 22 -45q-28 -65 -73 -110.5t-101.5 -68.5t-112.5 -32.5t-122 -9.5h-19zM141 1393q-11 13 -4 27t23 14h221q23 0 38 -11t32 -34l73 -86h21l71 86q14 17 22 24.5t21 14t29 6.5h219q16 0 23.5 -14t-4.5 -27l-209 -240q-27 -31 -58 -31h-251q-33 0 -58 31z" />
    <glyph glyph-name="Dcaron" unicode="&#x10e;" horiz-adv-x="1310" 
d="M162 0q-15 0 -24 9t-9 24v1368q0 15 9 24t24 9h604q217 0 317.5 -111.5t100.5 -312.5v-586q0 -201 -100.5 -312.5t-317.5 -111.5h-604zM244 1802q-11 14 -4.5 27.5t22.5 13.5h221q23 0 38 -11t32 -34l74 -86h20l72 86q14 17 22 24.5t21 14t29 6.5h219q16 0 23.5 -13.5
t-5.5 -27.5l-209 -239q-27 -31 -57 -31h-252q-32 0 -57 31zM436 274h303q68 0 103 34.5t35 123.5v569q0 88 -35.5 123t-102.5 35h-303v-885z" />
    <glyph glyph-name="dcaron" unicode="&#x10f;" horiz-adv-x="1378" 
d="M436 -10q-338 0 -338 346v350q0 346 338 346h13q80 0 129.5 -24t89.5 -70h24v463q0 33 35 33h231q35 0 35 -33v-1366q0 -35 -35 -35h-231q-35 0 -35 35v49h-24q-40 -46 -89.5 -70t-129.5 -24h-13zM397 362q0 -48 29 -76t68 -28h102q42 0 69 27.5t27 79.5v292q0 53 -27 81
t-69 28h-102q-39 0 -68 -28.5t-29 -78.5v-297zM1061 809v184q0 15 9 24t24 9h100v375q0 15 9 24t24 9h196q15 0 24 -9t9 -24v-543q0 -40 -22 -61t-62 -21h-278q-15 0 -24 9t-9 24z" />
    <glyph glyph-name="Dcroat" unicode="&#x110;" horiz-adv-x="1359" 
d="M211 0q-15 0 -24 9t-9 24v553h-115q-36 0 -36 37v192q0 37 36 37h115v549q0 15 9 24t24 9h604q217 0 317.5 -111.5t100.5 -312.5v-586q0 -201 -100.5 -312.5t-317.5 -111.5h-604zM485 274h303q68 0 103 34.5t35 123.5v569q0 88 -35.5 123t-102.5 35h-303v-307h160
q37 0 37 -37v-192q0 -37 -37 -37h-160v-312z" />
    <glyph glyph-name="dcroat" unicode="&#x111;" horiz-adv-x="1075" 
d="M391 1102q-31 0 -31 33v178q0 33 31 33h301v55q0 33 35 33h231q35 0 35 -33v-55h60q14 0 23 -9t9 -24v-178q0 -15 -9 -24t-23 -9h-60v-1067q0 -35 -35 -35h-231q-35 0 -35 35v49h-24q-40 -46 -89.5 -70t-129.5 -24h-13q-338 0 -338 346v350q0 346 338 346h13
q80 0 129.5 -24t89.5 -70h24v164h-301zM397 362q0 -48 29 -76t68 -28h102q42 0 69 27.5t27 79.5v292q0 53 -27 81t-69 28h-102q-39 0 -68 -28.5t-29 -78.5v-297z" />
    <glyph glyph-name="Emacron" unicode="&#x112;" horiz-adv-x="1095" 
d="M160 0q-31 0 -31 33v1368q0 33 31 33h825q31 0 31 -33v-209q0 -33 -31 -33h-549v-309h504q31 0 31 -33v-201q0 -32 -31 -32h-504v-310h561q33 0 33 -32v-209q0 -15 -9 -24t-24 -9h-837zM211 1608v204q0 31 33 31h661q31 0 31 -31v-204q0 -31 -31 -31h-661q-33 0 -33 31z
" />
    <glyph glyph-name="emacron" unicode="&#x113;" horiz-adv-x="1064" 
d="M537 -10q-235 0 -337 95t-102 265v322q0 360 381 360h109q197 0 289 -95t92 -267v-213q0 -66 -70 -66h-502v-41q0 -49 38 -79.5t112 -30.5h20q96 0 147 10t99 33q30 13 47 -15l68 -104q19 -25 4 -43q-60 -59 -159.5 -95t-203.5 -36h-32zM176 1198v205q0 31 33 31h661
q31 0 31 -31v-205q0 -31 -31 -31h-661q-33 0 -33 31zM397 606h271v62q0 52 -27 75t-68 23h-79q-97 0 -97 -96v-64z" />
    <glyph glyph-name="Edotaccent" unicode="&#x116;" horiz-adv-x="1095" 
d="M160 0q-31 0 -31 33v1368q0 33 31 33h825q31 0 31 -33v-209q0 -33 -31 -33h-549v-309h504q31 0 31 -33v-201q0 -32 -31 -32h-504v-310h561q33 0 33 -32v-209q0 -15 -9 -24t-24 -9h-837zM420 1571v239q0 15 9 24t24 9h239q15 0 24 -9t9 -24v-239q0 -15 -9 -24t-24 -9h-239
q-15 0 -24 9t-9 24z" />
    <glyph glyph-name="edotaccent" unicode="&#x117;" horiz-adv-x="1064" 
d="M537 -10q-235 0 -337 95t-102 265v322q0 360 381 360h109q197 0 289 -95t92 -267v-213q0 -66 -70 -66h-502v-41q0 -49 38 -79.5t112 -30.5h20q96 0 147 10t99 33q30 13 47 -15l68 -104q19 -25 4 -43q-60 -59 -159.5 -95t-203.5 -36h-32zM385 1161v240q0 15 9 24t24 9h239
q15 0 24 -9t9 -24v-240q0 -15 -9 -24t-24 -9h-239q-15 0 -24 9t-9 24zM397 606h271v62q0 52 -27 75t-68 23h-79q-97 0 -97 -96v-64z" />
    <glyph glyph-name="Eogonek" unicode="&#x118;" horiz-adv-x="1095" 
d="M160 0q-31 0 -31 33v1368q0 33 31 33h825q31 0 31 -33v-209q0 -33 -31 -33h-549v-309h504q31 0 31 -33v-201q0 -32 -31 -32h-504v-310h561q33 0 33 -32v-320q0 -36 -7.5 -58t-33 -34.5t-42.5 -16.5t-66 -10q-9 -1 -13 -2l-139 -16q-16 -2 -16 -14q4 -4 6 -4h256
q9 0 14.5 -8t5.5 -19v-146q0 -20 -20 -20h-311q-68 0 -107 6.5t-66.5 28t-37 58.5t-9.5 100q0 102 28.5 137.5t113.5 44.5l71 6q6 1 19 1.5t17.5 1.5t13.5 3.5t12 7t6.5 12.5t3.5 19h-569z" />
    <glyph glyph-name="eogonek" unicode="&#x119;" horiz-adv-x="1064" 
d="M377 -426q-133 0 -176 35.5t-43 157.5q0 71 12.5 106.5t41 51t85.5 20.5l74 8q49 2 59 10q12 8 12 29q-176 14 -260 108.5t-84 249.5v322q0 360 381 360h109q197 0 289 -95t92 -267v-213q0 -66 -70 -66h-502v-41q0 -49 38 -79.5t112 -30.5h20q96 0 147 10t99 33
q30 13 47 -15l68 -104q19 -25 4 -43q-79 -75 -191 -105v-94q0 -37 -7 -58.5t-32.5 -34t-41.5 -16t-66 -10.5q-8 -1 -12 -2l-140 -16q-18 -2 -18 -14q4 -4 8 -4h254q9 0 15 -8t6 -19v-146q0 -20 -21 -20h-309zM397 606h271v62q0 52 -27 75t-68 23h-79q-97 0 -97 -96v-64z" />
    <glyph glyph-name="Ecaron" unicode="&#x11a;" horiz-adv-x="1095" 
d="M160 0q-31 0 -31 33v1368q0 33 31 33h825q31 0 31 -33v-209q0 -33 -31 -33h-549v-309h504q31 0 31 -33v-201q0 -32 -31 -32h-504v-310h561q33 0 33 -32v-209q0 -15 -9 -24t-24 -9h-837zM180 1802q-11 14 -4 27.5t23 13.5h221q23 0 37 -10.5t32 -34.5l74 -86h21l71 86
q14 17 22 24.5t21 14t29 6.5h219q16 0 23.5 -13.5t-4.5 -27.5l-209 -239q-27 -31 -58 -31h-252q-32 0 -57 31z" />
    <glyph glyph-name="ecaron" unicode="&#x11b;" horiz-adv-x="1064" 
d="M537 -10q-235 0 -337 95t-102 265v322q0 360 381 360h109q197 0 289 -95t92 -267v-213q0 -66 -70 -66h-502v-41q0 -49 38 -79.5t112 -30.5h20q96 0 147 10t99 33q30 13 47 -15l68 -104q19 -25 4 -43q-60 -59 -159.5 -95t-203.5 -36h-32zM147 1393q-11 13 -4 27t23 14h221
q23 0 38 -11t32 -34l73 -86h21l72 86q15 17 22 24.5t20 14t29 6.5h219q16 0 23.5 -14t-4.5 -27l-209 -240q-27 -31 -57 -31h-252q-33 0 -58 31zM397 606h271v62q0 52 -27 75t-68 23h-79q-97 0 -97 -96v-64z" />
    <glyph glyph-name="Gcircumflex" unicode="&#x11c;" horiz-adv-x="1337" 
d="M547 -10q-217 0 -317.5 111.5t-100.5 312.5v606q0 201 100.5 312.5t317.5 111.5h241q223 0 320.5 -109.5t97.5 -320.5v-13q0 -17 -10 -26.5t-25 -9.5h-235q-37 0 -37 36q0 96 -37 132t-104 36h-185q-67 0 -102 -34.5t-35 -122.5v-590q0 -89 35 -123.5t102 -34.5h191
q67 0 102 34.5t35 123.5v162h-246q-32 0 -32 32v201q0 33 32 33h508q45 0 45 -45v-391q0 -201 -100 -312.5t-317 -111.5h-244zM313 1575l209 240q22 28 58 28h251q33 0 58 -28l209 -240q12 -15 4.5 -29t-23.5 -14h-219q-12 0 -21 2.5t-19.5 11.5t-14 12.5t-17.5 18.5l-71 86
h-21l-73 -86q-12 -16 -20 -23.5t-21 -14.5t-29 -7h-221q-16 0 -23 14t4 29z" />
    <glyph glyph-name="gcircumflex" unicode="&#x11d;" horiz-adv-x="1099" 
d="M543 -379q-104 0 -187 17q-51 12 -51 53v139q0 21 13 33.5t38 11.5q63 -4 185 -4q151 0 151 125v88h-24q-40 -46 -89.5 -70t-129.5 -24h-13q-338 0 -338 346v350q0 346 338 346h13q80 0 129.5 -24t89.5 -70h24v53q0 16 10 24.5t21 8.5h235q35 0 35 -33v-995
q0 -206 -107.5 -290.5t-342.5 -84.5zM193 1165l208 240q23 29 58 29h252q32 0 57 -29l209 -240q12 -15 4.5 -29t-23.5 -14h-219q-5 0 -10 0.5t-9.5 2.5t-8 3t-8 4.5t-7 5t-7.5 6.5t-6.5 7t-7 8t-7.5 8l-72 86h-21l-73 -86q-12 -16 -20 -23.5t-21 -14.5t-29 -7h-221
q-16 0 -22.5 14t4.5 29zM397 362q0 -48 29 -76t68 -28h102q42 0 69 27.5t27 79.5v292q0 53 -27 81t-69 28h-102q-39 0 -68 -28.5t-29 -78.5v-297z" />
    <glyph glyph-name="Gbreve" unicode="&#x11e;" horiz-adv-x="1337" 
d="M547 -10q-217 0 -317.5 111.5t-100.5 312.5v606q0 201 100.5 312.5t317.5 111.5h241q223 0 320.5 -109.5t97.5 -320.5v-13q0 -17 -10 -26.5t-25 -9.5h-235q-37 0 -37 36q0 96 -37 132t-104 36h-185q-67 0 -102 -34.5t-35 -122.5v-590q0 -89 35 -123.5t102 -34.5h191
q67 0 102 34.5t35 123.5v162h-246q-32 0 -32 32v201q0 33 32 33h508q45 0 45 -45v-391q0 -201 -100 -312.5t-317 -111.5h-244zM330 1806q0 37 32 37h168q18 0 26 -8.5t11 -26.5q7 -54 29 -83t78 -29h49q56 0 78.5 29t29.5 83q3 35 35 35h168q33 0 33 -37q0 -156 -72 -230.5
t-225 -74.5h-141q-154 0 -226.5 74.5t-72.5 230.5z" />
    <glyph glyph-name="gbreve" unicode="&#x11f;" horiz-adv-x="1099" 
d="M543 -379q-104 0 -187 17q-51 12 -51 53v139q0 21 13 33.5t38 11.5q63 -4 185 -4q151 0 151 125v88h-24q-40 -46 -89.5 -70t-129.5 -24h-13q-338 0 -338 346v350q0 346 338 346h13q80 0 129.5 -24t89.5 -70h24v53q0 16 10 24.5t21 8.5h235q35 0 35 -33v-995
q0 -206 -107.5 -290.5t-342.5 -84.5zM209 1397q0 37 33 37h168q18 0 25.5 -8t10.5 -27q7 -55 29 -84t78 -29h49q56 0 79 29.5t30 83.5q3 35 34 35h168q33 0 33 -37q0 -156 -72 -230.5t-225 -74.5h-141q-154 0 -226.5 74.5t-72.5 230.5zM397 362q0 -48 29 -76t68 -28h102
q42 0 69 27.5t27 79.5v292q0 53 -27 81t-69 28h-102q-39 0 -68 -28.5t-29 -78.5v-297z" />
    <glyph glyph-name="Gdotaccent" unicode="&#x120;" horiz-adv-x="1337" 
d="M547 -10q-217 0 -317.5 111.5t-100.5 312.5v606q0 201 100.5 312.5t317.5 111.5h241q223 0 320.5 -109.5t97.5 -320.5v-13q0 -17 -10 -26.5t-25 -9.5h-235q-37 0 -37 36q0 96 -37 132t-104 36h-185q-67 0 -102 -34.5t-35 -122.5v-590q0 -89 35 -123.5t102 -34.5h191
q67 0 102 34.5t35 123.5v162h-246q-32 0 -32 32v201q0 33 32 33h508q45 0 45 -45v-391q0 -201 -100 -312.5t-317 -111.5h-244zM545 1571v239q0 15 9 24t24 9h239q15 0 24 -9t9 -24v-239q0 -15 -9 -24t-24 -9h-239q-15 0 -24 9t-9 24z" />
    <glyph glyph-name="gdotaccent" unicode="&#x121;" horiz-adv-x="1099" 
d="M543 -379q-104 0 -187 17q-51 12 -51 53v139q0 21 13 33.5t38 11.5q63 -4 185 -4q151 0 151 125v88h-24q-40 -46 -89.5 -70t-129.5 -24h-13q-338 0 -338 346v350q0 346 338 346h13q80 0 129.5 -24t89.5 -70h24v53q0 16 10 24.5t21 8.5h235q35 0 35 -33v-995
q0 -206 -107.5 -290.5t-342.5 -84.5zM397 362q0 -48 29 -76t68 -28h102q42 0 69 27.5t27 79.5v292q0 53 -27 81t-69 28h-102q-39 0 -68 -28.5t-29 -78.5v-297zM424 1161v240q0 15 9 24t24 9h239q15 0 24 -9t9 -24v-240q0 -15 -9 -24t-24 -9h-239q-15 0 -24 9t-9 24z" />
    <glyph glyph-name="uni0122" unicode="&#x122;" horiz-adv-x="1337" 
d="M547 -10q-217 0 -317.5 111.5t-100.5 312.5v606q0 201 100.5 312.5t317.5 111.5h241q223 0 320.5 -109.5t97.5 -320.5v-13q0 -17 -10 -26.5t-25 -9.5h-235q-37 0 -37 36q0 96 -37 132t-104 36h-185q-67 0 -102 -34.5t-35 -122.5v-590q0 -89 35 -123.5t102 -34.5h191
q67 0 102 34.5t35 123.5v162h-246q-32 0 -32 32v201q0 33 32 33h508q45 0 45 -45v-391q0 -201 -100 -312.5t-317 -111.5h-244zM432 -627v185q0 32 33 32h100v254q0 15 9 24t24 9h197q32 0 32 -33v-422q0 -39 -22 -60t-62 -21h-278q-33 0 -33 32z" />
    <glyph glyph-name="uni0123" unicode="&#x123;" horiz-adv-x="1099" 
d="M406 1159q-15 0 -24 9t-9 24v364q0 40 22 61t62 21h278q33 0 33 -32v-185q0 -32 -33 -32h-100v-197q0 -15 -9 -24t-24 -9h-196zM98 336v350q0 346 338 346h13q80 0 129.5 -24t89.5 -70h24v53q0 16 10 24.5t21 8.5h235q35 0 35 -33v-995q0 -206 -107.5 -290.5
t-342.5 -84.5q-104 0 -187 17q-51 12 -51 53v139q0 21 13 33.5t38 11.5q63 -4 185 -4q151 0 151 125v88h-24q-40 -46 -89.5 -70t-129.5 -24h-13q-338 0 -338 346zM397 362q0 -48 29 -76t68 -28h102q42 0 69 27.5t27 79.5v292q0 53 -27 81t-69 28h-102q-39 0 -68 -28.5
t-29 -78.5v-297z" />
    <glyph glyph-name="Hcircumflex" unicode="&#x124;" horiz-adv-x="1310" 
d="M905 0q-15 0 -24 9t-9 24v551h-434v-551q0 -33 -32 -33h-244q-15 0 -24 9t-9 24v1368q0 15 9 24t24 9h244q32 0 32 -33v-551h434v551q0 15 9 24t24 9h246q15 0 24 -9t9 -24v-1368q0 -15 -9 -24t-24 -9h-246zM270 1575l209 240q22 28 58 28h251q34 0 58 -28l209 -240
q12 -15 4.5 -29t-23.5 -14h-219q-12 0 -21 2.5t-19.5 11.5t-14 12.5t-17.5 18.5l-71 86h-21l-73 -86q-12 -16 -20 -23.5t-21 -14.5t-29 -7h-221q-16 0 -23 14t4 29z" />
    <glyph glyph-name="hcircumflex" unicode="&#x125;" horiz-adv-x="1130" 
d="M152 0q-33 0 -33 35v1366q0 33 33 33h233q33 0 33 -33v-477h33q30 52 91.5 80t141.5 28h18q166 0 239 -87t73 -259v-651q0 -16 -10 -25.5t-21 -9.5h-235q-35 0 -35 35v622q0 52 -25.5 80.5t-64.5 28.5h-99q-46 0 -76 -28.5t-30 -82.5v-620q0 -35 -33 -35h-233zM-121 1575
l209 240q22 28 57 28h252q33 0 58 -28l209 -240q12 -15 4.5 -29t-23.5 -14h-219q-12 0 -21 2.5t-19.5 11.5t-14 12.5t-17.5 18.5l-71 86h-21l-74 -86q-13 -16 -20 -23.5t-20 -14.5t-29 -7h-221q-16 0 -23 14t4 29z" />
    <glyph glyph-name="Hbar" unicode="&#x126;" horiz-adv-x="1310" 
d="M905 0q-15 0 -24 9t-9 24v551h-434v-551q0 -33 -32 -33h-244q-15 0 -24 9t-9 24v1368q0 15 9 24t24 9h244q32 0 32 -33v-170h434v170q0 15 9 24t24 9h246q15 0 24 -9t9 -24v-1368q0 -15 -9 -24t-24 -9h-246zM438 850h434v113h-434v-113z" />
    <glyph glyph-name="hbar" unicode="&#x127;" horiz-adv-x="1130" 
d="M152 0q-33 0 -33 35v1044h-86q-33 0 -33 31v205q0 31 33 31h86v55q0 33 33 33h233q33 0 33 -33v-55h276q31 0 31 -31v-205q0 -31 -31 -31h-276v-155h33q30 52 91.5 80t141.5 28h18q166 0 239 -87t73 -259v-651q0 -16 -10 -25.5t-21 -9.5h-235q-35 0 -35 35v622
q0 52 -25.5 80.5t-64.5 28.5h-99q-46 0 -76 -28.5t-30 -82.5v-620q0 -35 -33 -35h-233z" />
    <glyph glyph-name="Itilde" unicode="&#x128;" horiz-adv-x="563" 
d="M162 0q-15 0 -24 9t-9 24v1368q0 15 9 24t24 9h241q15 0 24 -9t9 -24v-1368q0 -15 -9 -24t-24 -9h-241zM-84 1729q-5 17 0.5 27.5t20.5 23.5q56 43 106.5 58t110.5 15q49 0 89 -11.5t61.5 -26t52 -26t61.5 -11.5q10 0 19.5 1t16 1.5t16 3.5t13.5 4t14.5 6t14 7t17.5 9
l18 9q24 13 39 -11l65 -166q5 -17 0 -27.5t-20 -23.5q-56 -43 -106.5 -58t-110.5 -15q-62 0 -107.5 19t-81.5 37.5t-75 18.5t-63.5 -8t-61.5 -31q-29 -15 -43 9z" />
    <glyph glyph-name="itilde" unicode="&#x129;" horiz-adv-x="526" 
d="M147 0q-34 0 -34 35v956q0 33 34 33h232q35 0 35 -33v-956q0 -35 -35 -35h-232zM-109 1319q-5 17 0.5 27.5t20.5 23.5q56 43 106.5 58.5t110.5 15.5q62 0 107.5 -19t81.5 -38t75 -19q10 0 19.5 1t16 1.5t16 3.5t13.5 4t14.5 6t14 7t17.5 9l18 9q25 14 39 -10l66 -166
q5 -17 -0.5 -27.5t-20.5 -23.5q-56 -43 -106.5 -58.5t-110.5 -15.5q-62 0 -107.5 19t-81.5 38t-75 19t-63.5 -8t-61.5 -31q-29 -15 -43 8z" />
    <glyph glyph-name="Imacron" unicode="&#x12a;" horiz-adv-x="563" 
d="M162 0q-15 0 -24 9t-9 24v1368q0 15 9 24t24 9h241q15 0 24 -9t9 -24v-1368q0 -15 -9 -24t-24 -9h-241zM-82 1608v204q0 31 33 31h663q31 0 31 -31v-204q0 -31 -31 -31h-663q-33 0 -33 31z" />
    <glyph glyph-name="imacron" unicode="&#x12b;" horiz-adv-x="526" 
d="M147 0q-34 0 -34 35v956q0 33 34 33h232q35 0 35 -33v-956q0 -35 -35 -35h-232zM-104 1198v205q0 31 32 31h662q31 0 31 -31v-205q0 -31 -31 -31h-662q-32 0 -32 31z" />
    <glyph glyph-name="Iogonek" unicode="&#x12e;" horiz-adv-x="571" 
d="M76 -426q-133 0 -176 35.5t-43 157.5q0 103 28 138t111 44l70 6q6 1 22 2.5t21.5 3t14 6t11 14.5t2.5 25v35h2v1360q0 15 9 24t24 9h242q32 0 32 -33v-1368q0 -11 -2 -13v-98q0 -69 -32 -89t-119 -31q-8 0 -12 -1l-140 -16q-16 -2 -16 -14q4 -4 6 -4h256q9 0 15 -8t6 -19
v-146q0 -20 -21 -20h-311z" />
    <glyph glyph-name="iogonek" unicode="&#x12f;" horiz-adv-x="526" 
d="M135 1128q-15 0 -24 9t-9 24v240q0 15 9 24t24 9h240q15 0 24 -9t9 -24v-240q0 -15 -9 -24t-24 -9h-240zM-172 -233q0 103 28 138t113 44l72 6q5 1 17 1.5t16.5 1t12.5 2.5t11.5 5t7.5 8.5t5.5 13.5t1.5 19v985q0 33 34 33h232q35 0 35 -33v-1069q0 -36 -7.5 -58
t-33 -34.5t-42.5 -16.5t-66 -10q-9 -1 -13 -2l-139 -16q-17 -2 -17 -14q4 -4 6 -4h256q9 0 15 -8t6 -19v-146q0 -20 -21 -20h-311q-68 0 -106.5 6.5t-66 28t-37 58.5t-9.5 100z" />
    <glyph glyph-name="Idotaccent" unicode="&#x130;" horiz-adv-x="563" 
d="M162 0q-15 0 -24 9t-9 24v1368q0 15 9 24t24 9h241q15 0 24 -9t9 -24v-1368q0 -15 -9 -24t-24 -9h-241zM129 1571v239q0 15 9 24t24 9h239q15 0 24 -9t9 -24v-239q0 -15 -9 -24t-24 -9h-239q-15 0 -24 9t-9 24z" />
    <glyph glyph-name="dotlessi" unicode="&#x131;" horiz-adv-x="526" 
d="M147 0q-34 0 -34 35v956q0 33 34 33h232q35 0 35 -33v-956q0 -35 -35 -35h-232z" />
    <glyph glyph-name="IJ" unicode="&#x132;" horiz-adv-x="1361" 
d="M162 0q-15 0 -24 9t-9 24v1368q0 15 9 24t24 9h241q15 0 24 -9t9 -24v-1368q0 -15 -9 -24t-24 -9h-241zM641 23v208q0 33 31 33h119q67 0 102 34.5t35 123.5v979q0 15 9 24t24 9h241q15 0 24 -9t9 -24v-987q0 -201 -100.5 -312.5t-317.5 -111.5h-145q-31 0 -31 33z" />
    <glyph glyph-name="ij" unicode="&#x133;" horiz-adv-x="1089" 
d="M152 1151q-33 0 -33 33v217q0 33 33 33h231q33 0 33 -33v-217q0 -33 -33 -33h-231zM117 35v956q0 33 35 33h231q35 0 35 -33v-956q0 -35 -35 -35h-231q-35 0 -35 35zM498 -305v119q0 31 14 45t49 14q57 0 84 24t27 80v1014q0 33 33 33h233q33 0 33 -33v-1001
q0 -52 -2 -88.5t-9.5 -79t-21 -71.5t-37.5 -57.5t-58 -45t-83.5 -27t-112.5 -10.5q-85 0 -117 19.5t-32 64.5zM674 1184v217q0 33 35 33h229q35 0 35 -33v-217q0 -33 -35 -33h-229q-35 0 -35 33z" />
    <glyph glyph-name="Jcircumflex" unicode="&#x134;" horiz-adv-x="798" 
d="M109 -10q-31 0 -31 33v208q0 33 31 33h118q68 0 103 34.5t35 123.5v979q0 33 32 33h242q15 0 24 -9t9 -24v-987q0 -201 -100.5 -312.5t-317.5 -111.5h-145zM131 1575l209 240q22 28 57 28h252q33 0 58 -28l208 -240q12 -15 5 -29t-23 -14h-219q-12 0 -21 2.5t-19.5 11.5
t-14 12.5t-17.5 18.5l-71 86h-21l-74 -86q-13 -16 -20 -23.5t-20 -14.5t-29 -7h-221q-16 0 -23 14t4 29z" />
    <glyph glyph-name="jcircumflex" unicode="&#x135;" horiz-adv-x="550" 
d="M109 -389q-85 0 -117.5 20t-32.5 64v119q0 31 14.5 45t49.5 14q57 0 83.5 24t26.5 80v1014q0 33 33 33h233q33 0 33 -33v-1001q0 -52 -2 -88.5t-9.5 -79.5t-21 -71.5t-37 -57t-57.5 -45t-83.5 -27t-112.5 -10.5zM-96 1165l211 240q23 29 57 29h252q32 0 57 -29l209 -240
q12 -15 5 -29t-23 -14h-219q-12 0 -21 2.5t-19.5 11.5t-14 12.5t-17.5 18.5l-72 86h-20l-74 -86q-12 -16 -20 -23.5t-21 -14.5t-29 -7h-223q-16 0 -22.5 14t4.5 29z" />
    <glyph glyph-name="uni0136" unicode="&#x136;" horiz-adv-x="1316" 
d="M162 0q-15 0 -24 9t-9 24v1368q0 15 9 24t24 9h241q15 0 24 -9t9 -24v-549l432 547q27 35 64 35h270q20 0 25 -17t-13 -39l-464 -573l491 -750q8 -12 8 -33.5t-18 -21.5h-279q-40 0 -57 29l-344 532l-115 -141v-387q0 -15 -9 -24t-24 -9h-241zM379 -627v185q0 32 33 32
h100v254q0 15 9 24t24 9h196q15 0 24 -9t9 -24v-422q0 -39 -22 -60t-62 -21h-278q-33 0 -33 32z" />
    <glyph glyph-name="uni0137" unicode="&#x137;" horiz-adv-x="1144" 
d="M152 0q-33 0 -33 35v1366q0 33 33 33h233q33 0 33 -33v-737l323 331q29 29 60 29h235q25 0 36 -22t-17 -54l-330 -332l365 -559q15 -22 6 -39.5t-37 -17.5h-213q-50 0 -78 41l-242 377l-108 -109v-274q0 -35 -33 -35h-233zM211 -627v185q0 32 33 32h100v254q0 15 9 24
t24 9h196q15 0 24 -9t9 -24v-422q0 -39 -22 -60t-62 -21h-278q-33 0 -33 32z" />
    <glyph glyph-name="Lacute" unicode="&#x139;" horiz-adv-x="1054" 
d="M160 0q-31 0 -31 33v1368q0 15 9 24t24 9h241q15 0 24 -9t9 -24v-1127h510q33 0 33 -32v-209q0 -15 -9 -24t-24 -9h-786zM176 1571l90 235q18 37 43 37h303q19 0 26 -10t-5 -27l-184 -235q-29 -37 -52 -37h-200q-36 0 -21 37z" />
    <glyph glyph-name="lacute" unicode="&#x13a;" horiz-adv-x="536" 
d="M152 0q-33 0 -33 35v1366q0 33 33 33h233q33 0 33 -33v-1366q0 -35 -33 -35h-233zM164 1571l90 235q18 37 43 37h303q19 0 26 -10t-5 -27l-185 -235q-29 -37 -51 -37h-201q-35 0 -20 37z" />
    <glyph glyph-name="uni013B" unicode="&#x13b;" horiz-adv-x="1054" 
d="M160 0q-31 0 -31 33v1368q0 15 9 24t24 9h241q15 0 24 -9t9 -24v-1127h510q33 0 33 -32v-209q0 -15 -9 -24t-24 -9h-786zM283 -627v185q0 32 32 32h101v254q0 15 9 24t24 9h196q15 0 24 -9t9 -24v-422q0 -39 -22 -60t-62 -21h-279q-32 0 -32 32z" />
    <glyph glyph-name="uni013C" unicode="&#x13c;" horiz-adv-x="536" 
d="M152 0q-33 0 -33 35v1366q0 33 33 33h233q33 0 33 -33v-1366q0 -35 -33 -35h-233zM4 -627v185q0 32 33 32h100v254q0 15 9 24t24 9h197q32 0 32 -33v-422q0 -39 -22 -60t-62 -21h-278q-33 0 -33 32z" />
    <glyph glyph-name="Lcaron" unicode="&#x13d;" horiz-adv-x="1054" 
d="M160 0q-31 0 -31 33v1368q0 15 9 24t24 9h241q15 0 24 -9t9 -24v-1127h510q33 0 33 -32v-209q0 -15 -9 -24t-24 -9h-786zM551 809v184q0 15 9 24t24 9h100v375q0 15 9 24t24 9h196q15 0 24 -9t9 -24v-543q0 -40 -22 -61t-62 -21h-278q-15 0 -24 9t-9 24z" />
    <glyph glyph-name="lcaron" unicode="&#x13e;" horiz-adv-x="860" 
d="M152 0q-33 0 -33 35v1366q0 33 33 33h233q33 0 33 -33v-1366q0 -35 -33 -35h-233zM518 809v184q0 15 9 24t24 9h100v375q0 15 9 24t24 9h197q32 0 32 -33v-543q0 -40 -22 -61t-62 -21h-278q-15 0 -24 9t-9 24z" />
    <glyph glyph-name="Ldot" unicode="&#x13f;" horiz-adv-x="1054" 
d="M160 0q-31 0 -31 33v1368q0 15 9 24t24 9h241q15 0 24 -9t9 -24v-1127h510q33 0 33 -32v-209q0 -15 -9 -24t-24 -9h-786zM664 649v240q0 33 32 33h240q15 0 24 -9t9 -24v-240q0 -15 -9 -24t-24 -9h-240q-32 0 -32 33z" />
    <glyph glyph-name="ldot" unicode="&#x140;" horiz-adv-x="774" 
d="M152 0q-33 0 -33 35v1366q0 33 33 33h233q33 0 33 -33v-1366q0 -35 -33 -35h-233zM530 483v240q0 15 9 24t24 9h240q15 0 24 -9t9 -24v-240q0 -32 -33 -32h-240q-33 0 -33 32z" />
    <glyph glyph-name="Lslash" unicode="&#x141;" horiz-adv-x="1142" 
d="M39 303q-20 0 -27.5 12t6.5 27l199 215v844q0 15 9 24t24 9h242q32 0 32 -33v-510l35 37q5 5 11.5 12t9 9.5t6.5 6t6.5 4.5t6 2t7.5 1h275q19 0 25.5 -12t-7.5 -27l-375 -408v-242h510q33 0 33 -32v-209q0 -15 -9 -24t-24 -9h-786q-31 0 -31 33v270h-178z" />
    <glyph glyph-name="lslash" unicode="&#x142;" horiz-adv-x="675" 
d="M221 0q-33 0 -33 35v547l-18 -9q-38 -24 -68 -24h-86q-24 0 -31 15t9 24l194 133v680q0 33 33 33h234q32 0 32 -33v-463l27 10q35 25 59 25h86q21 0 30 -13.5t-9 -27.5l-193 -129v-768q0 -35 -32 -35h-234z" />
    <glyph glyph-name="Nacute" unicode="&#x143;" horiz-adv-x="1382" 
d="M162 0q-15 0 -24 9t-9 24v1368q0 15 9 24t24 9h401q28 0 37 -23l328 -1005h20v995q0 15 9 24t24 9h242q32 0 32 -33v-1368q0 -33 -32 -33h-402q-31 0 -37 23l-329 1005h-19v-995q0 -15 -9 -24t-24 -9h-241zM586 1571l90 235q18 37 43 37h303q19 0 25.5 -10t-5.5 -27
l-184 -235q-29 -37 -51 -37h-201q-35 0 -20 37z" />
    <glyph glyph-name="nacute" unicode="&#x144;" horiz-adv-x="1130" 
d="M152 0q-33 0 -33 35v956q0 33 33 33h235q11 0 21 -8.5t10 -24.5v-67h33q30 52 91.5 80t141.5 28h18q166 0 239 -87t73 -259v-651q0 -16 -10 -25.5t-21 -9.5h-235q-35 0 -35 35v622q0 52 -25.5 80.5t-64.5 28.5h-99q-46 0 -76 -28.5t-30 -82.5v-620q0 -16 -10 -25.5
t-21 -9.5h-235zM459 1161l90 236q18 37 43 37h303q19 0 25.5 -10t-5.5 -27l-184 -236q-29 -37 -51 -37h-201q-35 0 -20 37z" />
    <glyph glyph-name="uni0145" unicode="&#x145;" horiz-adv-x="1382" 
d="M162 0q-15 0 -24 9t-9 24v1368q0 15 9 24t24 9h401q28 0 37 -23l328 -1005h20v995q0 15 9 24t24 9h242q32 0 32 -33v-1368q0 -33 -32 -33h-402q-31 0 -37 23l-329 1005h-19v-995q0 -15 -9 -24t-24 -9h-241zM426 -627v185q0 32 33 32h100v254q0 15 9 24t24 9h196
q15 0 24 -9t9 -24v-422q0 -39 -22 -60t-62 -21h-278q-33 0 -33 32z" />
    <glyph glyph-name="uni0146" unicode="&#x146;" horiz-adv-x="1130" 
d="M152 0q-33 0 -33 35v956q0 33 33 33h235q11 0 21 -8.5t10 -24.5v-67h33q30 52 91.5 80t141.5 28h18q166 0 239 -87t73 -259v-651q0 -16 -10 -25.5t-21 -9.5h-235q-35 0 -35 35v622q0 52 -25.5 80.5t-64.5 28.5h-99q-46 0 -76 -28.5t-30 -82.5v-620q0 -16 -10 -25.5
t-21 -9.5h-235zM299 -627v185q0 32 33 32h100v254q0 15 9 24t24 9h197q32 0 32 -33v-422q0 -39 -22 -60t-62 -21h-278q-33 0 -33 32z" />
    <glyph glyph-name="Ncaron" unicode="&#x147;" horiz-adv-x="1382" 
d="M162 0q-15 0 -24 9t-9 24v1368q0 15 9 24t24 9h401q28 0 37 -23l328 -1005h20v995q0 15 9 24t24 9h242q32 0 32 -33v-1368q0 -33 -32 -33h-402q-31 0 -37 23l-329 1005h-19v-995q0 -15 -9 -24t-24 -9h-241zM299 1802q-11 14 -4.5 27.5t22.5 13.5h222q23 0 37 -10.5
t32 -34.5l74 -86h20l72 86q14 17 22 24.5t21 14t29 6.5h219q16 0 23.5 -13.5t-5.5 -27.5l-209 -239q-27 -31 -57 -31h-252q-32 0 -57 31z" />
    <glyph glyph-name="ncaron" unicode="&#x148;" horiz-adv-x="1130" 
d="M152 0q-33 0 -33 35v956q0 33 33 33h235q11 0 21 -8.5t10 -24.5v-67h33q30 52 91.5 80t141.5 28h18q166 0 239 -87t73 -259v-651q0 -16 -10 -25.5t-21 -9.5h-235q-35 0 -35 35v622q0 52 -25.5 80.5t-64.5 28.5h-99q-46 0 -76 -28.5t-30 -82.5v-620q0 -16 -10 -25.5
t-21 -9.5h-235zM174 1393q-11 13 -4 27t23 14h221q23 0 37 -10.5t32 -34.5l74 -86h21l71 86q14 17 22 24.5t21 14t29 6.5h219q16 0 23.5 -14t-5.5 -27l-208 -240q-27 -31 -58 -31h-252q-32 0 -57 31z" />
    <glyph glyph-name="Eng" unicode="&#x14a;" horiz-adv-x="1382" 
d="M162 0q-15 0 -24 9t-9 24v1368q0 15 9 24t24 9h401q28 0 37 -23l328 -1005h20v995q0 15 9 24t24 9h242q32 0 32 -33v-1397q0 -201 -100 -312.5t-317 -111.5h-146q-30 0 -30 33v209q0 33 30 33h119q66 0 100 31t37 114h-127q-31 0 -37 23l-329 1005h-19v-995q0 -15 -9 -24
t-24 -9h-241z" />
    <glyph glyph-name="eng" unicode="&#x14b;" horiz-adv-x="1130" 
d="M688 -420q-84 0 -115.5 19t-31.5 65v119q0 30 14 44.5t47 14.5q57 0 84 24.5t27 78.5v712q0 52 -25.5 80.5t-64.5 28.5h-99q-46 0 -76 -28.5t-30 -82.5v-620q0 -16 -10 -25.5t-21 -9.5h-235q-33 0 -33 35v956q0 33 33 33h235q11 0 21 -8.5t10 -24.5v-67h33q30 52 91.5 80
t141.5 28h18q166 0 239 -87t73 -259v-727q0 -52 -2 -88.5t-9.5 -79t-21 -71.5t-38 -57.5t-58.5 -45t-83.5 -27t-113.5 -10.5z" />
    <glyph glyph-name="Omacron" unicode="&#x14c;" 
d="M547 -10q-217 0 -317.5 111.5t-100.5 312.5v606q0 201 100.5 312.5t317.5 111.5h250q217 0 317 -111.5t100 -312.5v-606q0 -201 -100 -312.5t-317 -111.5h-250zM309 1608v204q0 31 33 31h662q30 0 30 -31v-204q0 -31 -30 -31h-662q-33 0 -33 31zM436 422q0 -89 35 -123.5
t102 -34.5h197q67 0 102 34.5t35 123.5v590q0 88 -35 122.5t-102 34.5h-197q-67 0 -102 -34.5t-35 -122.5v-590z" />
    <glyph glyph-name="omacron" unicode="&#x14d;" horiz-adv-x="1089" 
d="M477 -10q-196 0 -287.5 95.5t-91.5 266.5v318q0 362 379 362h135q197 0 289 -95t92 -267v-318q0 -171 -92 -266.5t-289 -95.5h-135zM182 1198v205q0 31 33 31h662q30 0 30 -31v-205q0 -31 -30 -31h-662q-33 0 -33 31zM397 358q0 -52 27.5 -76t69.5 -24h104q42 0 68 24
t26 76v308q0 51 -26 75.5t-68 24.5h-104q-42 0 -69.5 -24.5t-27.5 -75.5v-308z" />
    <glyph glyph-name="Ohungarumlaut" unicode="&#x150;" 
d="M547 -10q-217 0 -317.5 111.5t-100.5 312.5v606q0 201 100.5 312.5t317.5 111.5h250q217 0 317 -111.5t100 -312.5v-606q0 -201 -100 -312.5t-317 -111.5h-250zM330 1571l90 235q18 37 43 37h303q19 0 25.5 -10t-5.5 -27l-184 -235q-29 -37 -51 -37h-201q-35 0 -20 37z
M436 422q0 -89 35 -123.5t102 -34.5h197q67 0 102 34.5t35 123.5v590q0 88 -35 122.5t-102 34.5h-197q-67 0 -102 -34.5t-35 -122.5v-590zM772 1571l90 235q18 37 43 37h303q19 0 26 -10t-5 -27l-185 -235q-29 -37 -51 -37h-200q-36 0 -21 37z" />
    <glyph glyph-name="ohungarumlaut" unicode="&#x151;" horiz-adv-x="1089" 
d="M477 -10q-196 0 -287.5 95.5t-91.5 266.5v318q0 362 379 362h135q197 0 289 -95t92 -267v-318q0 -171 -92 -266.5t-289 -95.5h-135zM203 1161l90 236q18 37 43 37h303q19 0 25.5 -10t-5.5 -27l-184 -236q-29 -37 -51 -37h-201q-35 0 -20 37zM397 358q0 -52 27.5 -76
t69.5 -24h104q42 0 68 24t26 76v308q0 51 -26 75.5t-68 24.5h-104q-42 0 -69.5 -24.5t-27.5 -75.5v-308zM645 1161l90 236q18 37 43 37h303q19 0 26 -10t-5 -27l-184 -236q-29 -37 -52 -37h-200q-36 0 -21 37z" />
    <glyph glyph-name="OE" unicode="&#x152;" horiz-adv-x="1873" 
d="M547 -10q-217 0 -317.5 111.5t-100.5 312.5v606q0 201 100.5 312.5t317.5 111.5h250q71 0 129 -12q4 2 12 2h825q31 0 31 -33v-209q0 -33 -31 -33h-549v-309h504q31 0 31 -33v-201q0 -32 -31 -32h-504v-310h562q32 0 32 -32v-209q0 -33 -32 -33h-838q-8 0 -12 2
q-58 -12 -129 -12h-250zM436 422q0 -89 35 -123.5t102 -34.5h197q67 0 102 34.5t35 123.5v590q0 88 -35 122.5t-102 34.5h-197q-67 0 -102 -34.5t-35 -122.5v-590z" />
    <glyph glyph-name="oe" unicode="&#x153;" horiz-adv-x="1660" 
d="M477 -10q-196 0 -287.5 95.5t-91.5 266.5v318q0 362 379 362h135q153 0 232 -69q74 69 229 69h109q197 0 289 -95t92 -267v-213q0 -66 -68 -66h-502v-41q0 -49 38 -79.5t110 -30.5h20q96 0 148.5 10t99.5 33q30 13 47 -15l68 -104q17 -28 2 -43q-59 -59 -159 -95
t-204 -36h-33q-190 0 -280 76q-79 -76 -238 -76h-135zM397 358q0 -52 27.5 -76t69.5 -24h104q42 0 68 24t26 76v308q0 51 -26 75.5t-68 24.5h-104q-42 0 -69.5 -24.5t-27.5 -75.5v-308zM993 606h271v62q0 52 -27 75t-70 23h-80q-94 0 -94 -96v-64z" />
    <glyph glyph-name="Racute" unicode="&#x154;" horiz-adv-x="1286" 
d="M162 0q-15 0 -24 9t-9 24v1368q0 15 9 24t24 9h588q110 0 192 -31t132.5 -88.5t75 -135t24.5 -173.5v-228q0 -247 -152 -358l143 -367q10 -24 0 -38.5t-37 -14.5h-219q-45 0 -57 35l-127 327q-54 -12 -123 -12h-166v-317q0 -15 -9 -24t-24 -9h-241zM436 625h287
q68 0 105.5 36t37.5 125v211q0 162 -143 162h-287v-534zM512 1571l90 235q18 37 43 37h303q19 0 26 -10t-5 -27l-185 -235q-29 -37 -51 -37h-201q-35 0 -20 37z" />
    <glyph glyph-name="racute" unicode="&#x155;" horiz-adv-x="1032" 
d="M152 0q-33 0 -33 35v956q0 33 33 33h235q11 0 21 -8.5t10 -24.5v-67h33q68 108 231 108h8q152 0 214.5 -75t62.5 -236v-76q0 -16 -10 -26.5t-23 -10.5h-203q-35 0 -35 37q0 121 -114 121h-47q-52 0 -84.5 -28t-32.5 -83v-620q0 -16 -10 -25.5t-21 -9.5h-235zM440 1161
l90 236q18 37 43 37h304q19 0 25.5 -10t-5.5 -27l-184 -236q-29 -37 -51 -37h-201q-36 0 -21 37z" />
    <glyph glyph-name="uni0156" unicode="&#x156;" horiz-adv-x="1286" 
d="M162 0q-15 0 -24 9t-9 24v1368q0 15 9 24t24 9h588q110 0 192 -31t132.5 -88.5t75 -135t24.5 -173.5v-228q0 -247 -152 -358l143 -367q10 -24 0 -38.5t-37 -14.5h-219q-45 0 -57 35l-127 327q-54 -12 -123 -12h-166v-317q0 -15 -9 -24t-24 -9h-241zM352 -627v185
q0 32 33 32h100v254q0 15 9 24t24 9h197q15 0 24 -9t9 -24v-422q0 -39 -22 -60t-62 -21h-279q-33 0 -33 32zM436 625h287q68 0 105.5 36t37.5 125v211q0 162 -143 162h-287v-534z" />
    <glyph glyph-name="uni0157" unicode="&#x157;" horiz-adv-x="1032" 
d="M152 0q-33 0 -33 35v956q0 33 33 33h235q11 0 21 -8.5t10 -24.5v-67h33q68 108 231 108h8q152 0 214.5 -75t62.5 -236v-76q0 -16 -10 -26.5t-23 -10.5h-203q-35 0 -35 37q0 121 -114 121h-47q-52 0 -84.5 -28t-32.5 -83v-620q0 -16 -10 -25.5t-21 -9.5h-235zM4 -627v185
q0 32 33 32h100v254q0 15 9 24t24 9h197q32 0 32 -33v-422q0 -39 -22 -60t-62 -21h-278q-33 0 -33 32z" />
    <glyph glyph-name="Rcaron" unicode="&#x158;" horiz-adv-x="1286" 
d="M162 0q-15 0 -24 9t-9 24v1368q0 15 9 24t24 9h588q110 0 192 -31t132.5 -88.5t75 -135t24.5 -173.5v-228q0 -247 -152 -358l143 -367q10 -24 0 -38.5t-37 -14.5h-219q-45 0 -57 35l-127 327q-54 -12 -123 -12h-166v-317q0 -15 -9 -24t-24 -9h-241zM225 1802
q-11 14 -4 27.5t23 13.5h221q23 0 38 -11t32 -34l73 -86h21l71 86q14 17 22 24.5t21 14t29 6.5h219q16 0 23.5 -13.5t-4.5 -27.5l-209 -239q-27 -31 -58 -31h-251q-33 0 -58 31zM436 625h287q68 0 105.5 36t37.5 125v211q0 162 -143 162h-287v-534z" />
    <glyph glyph-name="rcaron" unicode="&#x159;" horiz-adv-x="1032" 
d="M152 0q-33 0 -33 35v956q0 33 33 33h235q11 0 21 -8.5t10 -24.5v-67h33q68 108 231 108h8q152 0 214.5 -75t62.5 -236v-76q0 -16 -10 -26.5t-23 -10.5h-203q-35 0 -35 37q0 121 -114 121h-47q-52 0 -84.5 -28t-32.5 -83v-620q0 -16 -10 -25.5t-21 -9.5h-235zM154 1393
q-11 13 -4.5 27t22.5 14h221q23 0 38 -11t32 -34l74 -86h20l72 86q15 17 22 24.5t20 14t29 6.5h220q16 0 23.5 -14t-5.5 -27l-209 -240q-27 -31 -57 -31h-252q-33 0 -58 31z" />
    <glyph glyph-name="Sacute" unicode="&#x15a;" horiz-adv-x="1255" 
d="M512 -10q-211 0 -312.5 100.5t-101.5 282.5q0 47 43 47h215q44 0 50 -47q8 -61 46 -85t105 -24h133q34 0 60 6t50 22.5t37 50t13 83.5q0 90 -37.5 126.5t-132.5 45.5l-111 12q-88 11 -152 26.5t-125.5 47.5t-99 78t-60.5 119t-23 170q0 393 421 393h177
q202 0 307.5 -101.5t105.5 -281.5q0 -47 -43 -47h-215q-43 0 -49 47q-9 58 -41 83t-94 25h-123q-139 0 -139 -133q0 -35 4 -58t18 -50t46.5 -43t82.5 -21l113 -12q62 -7 108.5 -15t99 -23t90 -35t73.5 -52t57.5 -73t35 -99t13.5 -129q0 -223 -101 -329.5t-323 -106.5h-221z
M520 1571l90 235q18 37 43 37h303q19 0 26 -10t-5 -27l-184 -235q-29 -37 -52 -37h-200q-36 0 -21 37z" />
    <glyph glyph-name="sacute" unicode="&#x15b;" horiz-adv-x="1038" 
d="M465 -10q-185 0 -281 73.5t-96 219.5q0 45 33 45h227q32 0 39 -27q13 -33 37 -45t68 -12h67q92 0 92 61q0 17 -1.5 25t-9.5 21t-29 20t-56 10l-98 10q-110 12 -184.5 39t-114.5 69.5t-56 92t-16 117.5q0 323 360 323h138q158 0 252 -83.5t94 -229.5q0 -35 -37 -35h-203
q-50 0 -55 33q-16 61 -90 61h-88q-70 0 -70 -61q0 -14 2 -23t10 -22t29 -21t53 -12l97 -10q216 -23 295 -89.5t79 -222.5q0 -170 -94 -248.5t-299 -78.5h-94zM403 1161l91 236q18 37 43 37h303q19 0 25.5 -10t-5.5 -27l-184 -236q-29 -37 -51 -37h-201q-36 0 -21 37z" />
    <glyph glyph-name="Scircumflex" unicode="&#x15c;" horiz-adv-x="1255" 
d="M512 -10q-211 0 -312.5 100.5t-101.5 282.5q0 47 43 47h215q44 0 50 -47q8 -61 46 -85t105 -24h133q34 0 60 6t50 22.5t37 50t13 83.5q0 90 -37.5 126.5t-132.5 45.5l-111 12q-88 11 -152 26.5t-125.5 47.5t-99 78t-60.5 119t-23 170q0 393 421 393h177
q202 0 307.5 -101.5t105.5 -281.5q0 -47 -43 -47h-215q-43 0 -49 47q-9 58 -41 83t-94 25h-123q-139 0 -139 -133q0 -35 4 -58t18 -50t46.5 -43t82.5 -21l113 -12q62 -7 108.5 -15t99 -23t90 -35t73.5 -52t57.5 -73t35 -99t13.5 -129q0 -223 -101 -329.5t-323 -106.5h-221z
M242 1575l209 240q22 28 57 28h252q32 0 57 -28l209 -240q12 -15 5 -29t-23 -14h-220q-5 0 -10 0.5t-9.5 2.5t-8 3t-8 4.5t-7 5t-7.5 6.5t-6.5 7t-7 8t-7.5 8l-72 86h-20l-74 -86q-12 -16 -20 -23.5t-21 -14.5t-29 -7h-221q-16 0 -22.5 14t4.5 29z" />
    <glyph glyph-name="scircumflex" unicode="&#x15d;" horiz-adv-x="1038" 
d="M465 -10q-185 0 -281 73.5t-96 219.5q0 45 33 45h227q32 0 39 -27q13 -33 37 -45t68 -12h67q92 0 92 61q0 17 -1.5 25t-9.5 21t-29 20t-56 10l-98 10q-110 12 -184.5 39t-114.5 69.5t-56 92t-16 117.5q0 323 360 323h138q158 0 252 -83.5t94 -229.5q0 -35 -37 -35h-203
q-50 0 -55 33q-16 61 -90 61h-88q-70 0 -70 -61q0 -14 2 -23t10 -22t29 -21t53 -12l97 -10q216 -23 295 -89.5t79 -222.5q0 -170 -94 -248.5t-299 -78.5h-94zM125 1165l209 240q23 29 57 29h252q32 0 57 -29l209 -240q12 -15 5 -29t-23 -14h-219q-12 0 -21 2.5t-19.5 11.5
t-14 12.5t-17.5 18.5l-72 86h-20l-74 -86q-13 -16 -20 -23.5t-20 -14.5t-29 -7h-222q-16 0 -22.5 14t4.5 29z" />
    <glyph glyph-name="Scedilla" unicode="&#x15e;" horiz-adv-x="1255" 
d="M512 -10q-211 0 -312.5 100.5t-101.5 282.5q0 47 43 47h215q44 0 50 -47q8 -61 46 -85t105 -24h133q34 0 60 6t50 22.5t37 50t13 83.5q0 90 -37.5 126.5t-132.5 45.5l-111 12q-88 11 -152 26.5t-125.5 47.5t-99 78t-60.5 119t-23 170q0 393 421 393h177
q202 0 307.5 -101.5t105.5 -281.5q0 -47 -43 -47h-215q-43 0 -49 47q-9 58 -41 83t-94 25h-123q-139 0 -139 -133q0 -35 4 -58t18 -50t46.5 -43t82.5 -21l113 -12q62 -7 108.5 -15t99 -23t90 -35t73.5 -52t57.5 -73t35 -99t13.5 -129q0 -202 -82.5 -307.5t-261.5 -124.5
q-37 -18 -42 -31.5t11 -19.5t39 -6h45q70 0 98.5 -38t28.5 -114q0 -211 -209 -211h-190q-96 0 -139 45t-43 121q0 33 28 33h172q18 0 27 -23q3 -1 9.5 -4t14.5 -5.5t15 -2.5h45q17 0 31 9.5t14 25.5q0 19 -27 28t-100 9h-84q-37 0 -60.5 17t-23.5 52q0 27 17 47.5t67 63.5
h-45z" />
    <glyph glyph-name="scedilla" unicode="&#x15f;" horiz-adv-x="1038" 
d="M477 -426q-96 0 -139 45t-43 121q0 33 29 33h172q17 0 26 -23q3 -1 9.5 -4t14.5 -5.5t15 -2.5h45q17 0 31 9.5t14 25.5q0 19 -27 28t-100 9h-84q-37 0 -60.5 17t-23.5 52q0 27 17 47.5t67 63.5q-173 5 -262.5 79t-89.5 214q0 45 33 45h227q32 0 39 -27q13 -33 37 -45
t68 -12h67q92 0 92 61q0 17 -1.5 25t-9.5 21t-29 20t-56 10l-98 10q-110 12 -184.5 39t-114.5 69.5t-56 92t-16 117.5q0 323 360 323h138q158 0 252 -83.5t94 -229.5q0 -35 -37 -35h-203q-50 0 -55 33q-16 61 -90 61h-88q-70 0 -70 -61q0 -14 2 -23t10 -22t29 -21t53 -12
l97 -10q216 -23 295 -89.5t79 -222.5q0 -140 -62.5 -217t-195.5 -100h17q-80 -34 -51 -53q14 -10 45 -10h45q70 0 98.5 -38t28.5 -114q0 -211 -209 -211h-191z" />
    <glyph glyph-name="Scaron" unicode="&#x160;" horiz-adv-x="1255" 
d="M512 -10q-211 0 -312.5 100.5t-101.5 282.5q0 47 43 47h215q44 0 50 -47q8 -61 46 -85t105 -24h133q34 0 60 6t50 22.5t37 50t13 83.5q0 90 -37.5 126.5t-132.5 45.5l-111 12q-88 11 -152 26.5t-125.5 47.5t-99 78t-60.5 119t-23 170q0 393 421 393h177
q202 0 307.5 -101.5t105.5 -281.5q0 -47 -43 -47h-215q-43 0 -49 47q-9 58 -41 83t-94 25h-123q-139 0 -139 -133q0 -35 4 -58t18 -50t46.5 -43t82.5 -21l113 -12q62 -7 108.5 -15t99 -23t90 -35t73.5 -52t57.5 -73t35 -99t13.5 -129q0 -223 -101 -329.5t-323 -106.5h-221z
M236 1802q-11 14 -4.5 27.5t22.5 13.5h221q23 0 38 -11t32 -34l73 -86h21l72 86q15 17 22 24.5t20 14t29 6.5h219q16 0 23.5 -13.5t-4.5 -27.5l-209 -239q-27 -31 -57 -31h-252q-33 0 -58 31z" />
    <glyph glyph-name="scaron" unicode="&#x161;" horiz-adv-x="1038" 
d="M465 -10q-185 0 -281 73.5t-96 219.5q0 45 33 45h227q32 0 39 -27q13 -33 37 -45t68 -12h67q92 0 92 61q0 17 -1.5 25t-9.5 21t-29 20t-56 10l-98 10q-110 12 -184.5 39t-114.5 69.5t-56 92t-16 117.5q0 323 360 323h138q158 0 252 -83.5t94 -229.5q0 -35 -37 -35h-203
q-50 0 -55 33q-16 61 -90 61h-88q-70 0 -70 -61q0 -14 2 -23t10 -22t29 -21t53 -12l97 -10q216 -23 295 -89.5t79 -222.5q0 -170 -94 -248.5t-299 -78.5h-94zM119 1393q-11 13 -4.5 27t22.5 14h221q23 0 38 -11t32 -34l74 -86h20l72 86q14 17 22 24.5t21 14t29 6.5h219
q16 0 23.5 -14t-5.5 -27l-209 -240q-27 -31 -57 -31h-252q-32 0 -57 31z" />
    <glyph glyph-name="uni0162" unicode="&#x162;" horiz-adv-x="1132" 
d="M440 -426q-182 0 -182 170q0 29 21 29h182q19 0 22 -23q30 -10 41 -10h45q19 0 31 12t12 25q0 15 -11.5 25t-31.5 10h-92q-63 0 -63 57v1290h-295q-31 0 -31 33v209q0 33 31 33h895q15 0 24 -9t9 -24v-209q0 -15 -9 -24t-24 -9h-293v-1182q0 -36 27 -36q90 0 90 -170
q0 -197 -207 -197h-191z" />
    <glyph glyph-name="uni0163" unicode="&#x163;" horiz-adv-x="761" 
d="M94 760q-37 0 -37 37v190q0 37 37 37h127v209q0 35 35 35h231q35 0 35 -35v-209h156q37 0 37 -37v-190q0 -37 -37 -37h-156v-404q0 -56 27 -80t84 -24q33 0 47 -14t14 -45v-119q0 -56 -49 -72q-37 -18 -42 -31.5t11 -19.5t39 -6h45q70 0 98.5 -38t28.5 -114
q0 -211 -209 -211h-190q-96 0 -139 45t-43 121q0 33 28 33h172q18 0 27 -23q3 -1 9.5 -4t14.5 -5.5t15 -2.5h45q17 0 31 9.5t14 25.5q0 19 -27 28t-100 9h-84q-37 0 -60.5 17t-23.5 52q0 20 13 39.5t26 31.5t57 50q-41 11 -71 30t-49.5 46.5t-31.5 56.5t-18 69t-8 75t-2 84
v391h-127z" />
    <glyph glyph-name="Tcaron" unicode="&#x164;" horiz-adv-x="1132" 
d="M446 0q-32 0 -32 33v1126h-295q-31 0 -31 33v209q0 33 31 33h895q15 0 24 -9t9 -24v-209q0 -15 -9 -24t-24 -9h-293v-1126q0 -15 -9 -24t-24 -9h-242zM176 1802q-11 14 -4 27.5t23 13.5h221q23 0 37 -10.5t32 -34.5l74 -86h21l71 86q14 17 22 24.5t21 14t29 6.5h219
q16 0 23.5 -13.5t-4.5 -27.5l-209 -239q-27 -31 -58 -31h-252q-32 0 -57 31z" />
    <glyph glyph-name="tcaron" unicode="&#x165;" horiz-adv-x="774" 
d="M547 -10q-64 0 -113.5 10.5t-83.5 27t-58.5 45t-38 57.5t-21 71.5t-9.5 79t-2 88.5v391h-127q-37 0 -37 37v190q0 37 37 37h127v209q0 35 35 35h231q35 0 35 -35v-209h156q37 0 37 -37v-190q0 -37 -37 -37h-156v-404q0 -56 27 -80t84 -24q33 0 47 -14t14 -45v-119
q0 -45 -32 -64.5t-115 -19.5zM590 1133v184q0 15 9 24t24 9h100v374q0 15 9 24t24 9h196q15 0 24 -9t9 -24v-542q0 -40 -22 -61t-62 -21h-278q-15 0 -24 9t-9 24z" />
    <glyph glyph-name="Tbar" unicode="&#x166;" horiz-adv-x="1132" 
d="M446 0q-32 0 -32 33v682h-176q-33 0 -33 30v205q0 31 33 31h176v178h-295q-31 0 -31 33v209q0 33 31 33h895q15 0 24 -9t9 -24v-209q0 -15 -9 -24t-24 -9h-293v-178h178q31 0 31 -31v-205q0 -30 -31 -30h-178v-682q0 -15 -9 -24t-24 -9h-242z" />
    <glyph glyph-name="tbar" unicode="&#x167;" horiz-adv-x="790" 
d="M94 401q-37 0 -37 37v191q0 37 37 37h127v94h-127q-37 0 -37 37v190q0 37 37 37h127v209q0 35 35 35h231q35 0 35 -35v-209h156q37 0 37 -37v-190q0 -37 -37 -37h-156v-94h156q37 0 37 -37v-191q0 -37 -37 -37h-156v-45q0 -56 27 -80t84 -24q33 0 47 -14t14 -45v-119
q0 -45 -32 -64.5t-115 -19.5q-64 0 -113.5 10.5t-83.5 27t-58.5 45t-38 57.5t-21 71.5t-9.5 79t-2 88.5v32h-127z" />
    <glyph glyph-name="Utilde" unicode="&#x168;" 
d="M547 -10q-217 0 -317.5 111.5t-100.5 312.5v987q0 15 9 24t24 9h241q15 0 24 -9t9 -24v-979q0 -89 35 -123.5t102 -34.5h197q67 0 102 34.5t35 123.5v979q0 15 9 24t24 9h242q32 0 32 -33v-987q0 -201 -100 -312.5t-317 -111.5h-250zM307 1729q-5 17 0.5 27.5t20.5 23.5
q56 43 106.5 58t110.5 15q49 0 89 -11.5t61.5 -26t52 -26t61.5 -11.5q10 0 19.5 1t16 1.5t16 3.5t13.5 4t14.5 6t14 7t17.5 9l18 9q24 13 39 -11l65 -166q5 -17 0 -27.5t-20 -23.5q-56 -43 -106.5 -58t-110.5 -15q-62 0 -107.5 19t-81.5 37.5t-75 18.5t-63.5 -8t-61.5 -31
q-29 -15 -43 9z" />
    <glyph glyph-name="utilde" unicode="&#x169;" horiz-adv-x="1130" 
d="M430 -8q-166 0 -238.5 87.5t-72.5 258.5v653q0 16 10 24.5t21 8.5h235q33 0 33 -33v-622q0 -52 26 -80.5t66 -28.5h98q45 0 75 28t30 81v622q0 16 9.5 24.5t20.5 8.5h236q35 0 35 -33v-956q0 -35 -35 -35h-236q-10 0 -20 9.5t-10 25.5v67h-33q-31 -52 -91.5 -81
t-139.5 -29h-19zM188 1319q-5 17 0.5 27.5t20.5 23.5q56 43 106.5 58.5t110.5 15.5q62 0 107.5 -19t81.5 -38t75 -19q10 0 19.5 1t16 1.5t16 3.5t13.5 4t14.5 6t14 7t17.5 9l18 9q25 14 39 -10l66 -166q5 -17 -0.5 -27.5t-20.5 -23.5q-56 -43 -106.5 -58.5t-110.5 -15.5
q-62 0 -107.5 19t-81.5 38t-75 19t-63.5 -8t-61.5 -31q-29 -15 -43 8z" />
    <glyph glyph-name="Umacron" unicode="&#x16a;" 
d="M547 -10q-217 0 -317.5 111.5t-100.5 312.5v987q0 15 9 24t24 9h241q15 0 24 -9t9 -24v-979q0 -89 35 -123.5t102 -34.5h197q67 0 102 34.5t35 123.5v979q0 15 9 24t24 9h242q32 0 32 -33v-987q0 -201 -100 -312.5t-317 -111.5h-250zM309 1608v204q0 31 33 31h662
q30 0 30 -31v-204q0 -31 -30 -31h-662q-33 0 -33 31z" />
    <glyph glyph-name="umacron" unicode="&#x16b;" horiz-adv-x="1130" 
d="M430 -8q-166 0 -238.5 87.5t-72.5 258.5v653q0 16 10 24.5t21 8.5h235q33 0 33 -33v-622q0 -52 26 -80.5t66 -28.5h98q45 0 75 28t30 81v622q0 16 9.5 24.5t20.5 8.5h236q35 0 35 -33v-956q0 -35 -35 -35h-236q-10 0 -20 9.5t-10 25.5v67h-33q-31 -52 -91.5 -81
t-139.5 -29h-19zM193 1198v205q0 31 32 31h662q31 0 31 -31v-205q0 -31 -31 -31h-662q-32 0 -32 31z" />
    <glyph glyph-name="Ubreve" unicode="&#x16c;" 
d="M547 -10q-217 0 -317.5 111.5t-100.5 312.5v987q0 15 9 24t24 9h241q15 0 24 -9t9 -24v-979q0 -89 35 -123.5t102 -34.5h197q67 0 102 34.5t35 123.5v979q0 15 9 24t24 9h242q32 0 32 -33v-987q0 -201 -100 -312.5t-317 -111.5h-250zM303 1806q0 37 33 37h168
q18 0 26 -8.5t11 -26.5q7 -55 28.5 -83.5t77.5 -28.5h49q56 0 79 29t30 83q3 35 35 35h168q32 0 32 -37q0 -156 -72 -230.5t-225 -74.5h-141q-154 0 -226.5 74.5t-72.5 230.5z" />
    <glyph glyph-name="ubreve" unicode="&#x16d;" horiz-adv-x="1130" 
d="M430 -8q-166 0 -238.5 87.5t-72.5 258.5v653q0 16 10 24.5t21 8.5h235q33 0 33 -33v-622q0 -52 26 -80.5t66 -28.5h98q45 0 75 28t30 81v622q0 16 9.5 24.5t20.5 8.5h236q35 0 35 -33v-956q0 -35 -35 -35h-236q-10 0 -20 9.5t-10 25.5v67h-33q-31 -52 -91.5 -81
t-139.5 -29h-19zM184 1397q0 37 33 37h168q18 0 26 -8.5t11 -26.5q7 -55 28.5 -84t77.5 -29h50q56 0 78.5 29.5t29.5 83.5q3 35 35 35h168q33 0 33 -37q0 -156 -72 -230.5t-225 -74.5h-142q-154 0 -226.5 74.5t-72.5 230.5z" />
    <glyph glyph-name="Uring" unicode="&#x16e;" 
d="M547 -10q-217 0 -317.5 111.5t-100.5 312.5v987q0 15 9 24t24 9h241q15 0 24 -9t9 -24v-979q0 -89 35 -123.5t102 -34.5h197q67 0 102 34.5t35 123.5v979q0 15 9 24t24 9h242q32 0 32 -33v-987q0 -201 -100 -312.5t-317 -111.5h-250zM487 1679v31q0 71 47.5 117.5
t122.5 46.5h31q74 0 121 -46.5t47 -117.5v-31q0 -71 -47 -118.5t-121 -47.5h-31q-74 0 -122 47.5t-48 118.5zM635 1690q0 -14 8 -22.5t19 -8.5h22q12 0 20.5 8.5t8.5 22.5v12q0 12 -8.5 19.5t-20.5 7.5h-22q-11 0 -19 -7.5t-8 -19.5v-12z" />
    <glyph glyph-name="uring" unicode="&#x16f;" horiz-adv-x="1130" 
d="M430 -8q-166 0 -238.5 87.5t-72.5 258.5v653q0 16 10 24.5t21 8.5h235q33 0 33 -33v-622q0 -52 26 -80.5t66 -28.5h98q45 0 75 28t30 81v622q0 16 9.5 24.5t20.5 8.5h236q35 0 35 -33v-956q0 -35 -35 -35h-236q-10 0 -20 9.5t-10 25.5v67h-33q-31 -52 -91.5 -81
t-139.5 -29h-19zM371 1270v30q0 71 47.5 117.5t122.5 46.5h30q74 0 121 -46.5t47 -117.5v-30q0 -71 -47 -118.5t-121 -47.5h-30q-74 0 -122 47.5t-48 118.5zM518 1280q0 -14 8 -22.5t19 -8.5h22q13 0 21 8.5t8 22.5v12q0 12 -8.5 19.5t-20.5 7.5h-22q-11 0 -19 -7.5
t-8 -19.5v-12z" />
    <glyph glyph-name="Uhungarumlaut" unicode="&#x170;" 
d="M547 -10q-217 0 -317.5 111.5t-100.5 312.5v987q0 15 9 24t24 9h241q15 0 24 -9t9 -24v-979q0 -89 35 -123.5t102 -34.5h197q67 0 102 34.5t35 123.5v979q0 15 9 24t24 9h242q32 0 32 -33v-987q0 -201 -100 -312.5t-317 -111.5h-250zM330 1571l90 235q18 37 43 37h303
q19 0 25.5 -10t-5.5 -27l-184 -235q-29 -37 -51 -37h-201q-35 0 -20 37zM772 1571l90 235q18 37 43 37h303q19 0 26 -10t-5 -27l-185 -235q-29 -37 -51 -37h-200q-36 0 -21 37z" />
    <glyph glyph-name="uhungarumlaut" unicode="&#x171;" horiz-adv-x="1130" 
d="M430 -8q-166 0 -238.5 87.5t-72.5 258.5v653q0 16 10 24.5t21 8.5h235q33 0 33 -33v-622q0 -52 26 -80.5t66 -28.5h98q45 0 75 28t30 81v622q0 16 9.5 24.5t20.5 8.5h236q35 0 35 -33v-956q0 -35 -35 -35h-236q-10 0 -20 9.5t-10 25.5v67h-33q-31 -52 -91.5 -81
t-139.5 -29h-19zM211 1161l90 236q18 37 43 37h303q19 0 26 -10t-5 -27l-185 -236q-29 -37 -51 -37h-201q-35 0 -20 37zM653 1161l90 236q18 37 43 37h304q19 0 25.5 -10t-5.5 -27l-184 -236q-29 -37 -52 -37h-200q-36 0 -21 37z" />
    <glyph glyph-name="Uogonek" unicode="&#x172;" 
d="M547 -10q-217 0 -317.5 111.5t-100.5 312.5v987q0 15 9 24t24 9h241q15 0 24 -9t9 -24v-979q0 -89 35 -123.5t102 -34.5h197q67 0 102 34.5t35 123.5v979q0 15 9 24t24 9h242q32 0 32 -33v-987q0 -372 -325 -418v-74q0 -36 -7.5 -58t-33 -34.5t-42.5 -16.5t-66 -10
q-9 -1 -13 -2l-139 -16q-17 -2 -17 -14q5 -4 7 -4h256q9 0 14.5 -8t5.5 -19v-146q0 -20 -20 -20h-312q-68 0 -106.5 6.5t-66 28t-37 58.5t-9.5 100q0 103 28 138t113 44l72 6q6 1 18 1.5t17 1.5t13 3t11 5.5t6.5 9t4.5 14.5h-39z" />
    <glyph glyph-name="uogonek" unicode="&#x173;" horiz-adv-x="1130" 
d="M430 -8q-166 0 -238.5 87.5t-72.5 258.5v653q0 16 10 24.5t21 8.5h235q33 0 33 -33v-622q0 -52 26 -80.5t66 -28.5h98q45 0 75 28t30 81v622q0 16 9.5 24.5t20.5 8.5h236q35 0 35 -33v-1069q0 -36 -7.5 -58t-33 -34.5t-42.5 -16.5t-66 -10q-9 -1 -13 -2l-139 -16
q-17 -2 -17 -14q4 -4 6 -4h256q9 0 15 -8t6 -19v-146q0 -20 -21 -20h-311q-68 0 -106.5 6.5t-66 28t-37 58.5t-9.5 100q0 103 28 138t113 44l72 6q5 1 17 1.5t16.5 1t12.5 2.5t11.5 5t7.5 8.5t5.5 13.5t1.5 19v96h-33q-31 -52 -91.5 -81t-139.5 -29h-19z" />
    <glyph glyph-name="Wcircumflex" unicode="&#x174;" horiz-adv-x="1959" 
d="M375 0q-14 0 -25 9t-14 24l-270 1360q-2 18 5.5 29.5t22.5 11.5h242q15 0 27.5 -12t13.5 -29l194 -1041h31l211 1041q1 17 13.5 29t27.5 12h252q14 0 27 -12.5t16 -28.5l209 -1041h31l194 1041q3 17 14.5 29t26.5 12h242q17 0 24 -11.5t4 -29.5l-268 -1360
q-3 -15 -15 -24t-26 -9h-399q-14 0 -26 9.5t-13 23.5l-154 868h-26l-152 -868q-3 -15 -15 -24t-26 -9h-399zM594 1575l209 240q22 28 57 28h252q32 0 57 -28l209 -240q12 -15 5 -29t-23 -14h-219q-12 0 -21 2.5t-19.5 11.5t-14 12.5t-17.5 18.5l-72 86h-20l-74 -86
q-13 -16 -20 -23.5t-20 -14.5t-29 -7h-222q-16 0 -22.5 14t4.5 29z" />
    <glyph glyph-name="wcircumflex" unicode="&#x175;" horiz-adv-x="1652" 
d="M326 0q-45 0 -54 45l-206 942q-6 37 28 37h228q34 0 40 -37l136 -708h14l154 708q9 37 39 37h243q32 0 41 -37l152 -708h14l137 708q6 37 39 37h230q32 0 26 -37l-205 -942q-9 -45 -53 -45h-342q-44 0 -53 45l-100 510h-15l-100 -510q-9 -45 -53 -45h-340zM440 1165
l209 240q23 29 58 29h251q33 0 58 -29l209 -240q12 -15 4.5 -29t-23.5 -14h-219q-12 0 -21 2.5t-19.5 11.5t-14 12.5t-17.5 18.5l-71 86h-21l-73 -86q-12 -16 -20 -23.5t-21 -14.5t-29 -7h-221q-16 0 -23 14t4 29z" />
    <glyph glyph-name="Ycircumflex" unicode="&#x176;" horiz-adv-x="1259" 
d="M72 1395q-9 20 -1.5 29.5t27.5 9.5h244q32 0 45 -31l234 -537h18l233 537q13 31 48 31h243q44 0 27 -39l-406 -877v-485q0 -33 -32 -33h-242q-15 0 -24 9t-9 24v485zM244 1575l209 240q22 28 57 28h252q32 0 57 -28l209 -240q12 -15 5 -29t-23 -14h-219q-12 0 -21 2.5
t-19.5 11.5t-14 12.5t-17.5 18.5l-72 86h-20l-74 -86q-12 -16 -20 -23.5t-21 -14.5t-29 -7h-221q-16 0 -22.5 14t4.5 29z" />
    <glyph glyph-name="ycircumflex" unicode="&#x177;" horiz-adv-x="1173" 
d="M350 -362q-39 0 -26 36l114 312l-368 1001q-7 17 2 27t26 10h232q27 0 39 -35l211 -624h18l209 624q12 35 39 35h231q16 0 25.5 -9.5t3.5 -27.5l-481 -1313q-8 -21 -16.5 -28.5t-26.5 -7.5h-232zM203 1165l209 240q23 29 57 29h252q32 0 57 -29l209 -240q12 -15 5 -29
t-23 -14h-219q-12 0 -21 2.5t-19.5 11.5t-14 12.5t-17.5 18.5l-72 86h-20l-74 -86q-12 -16 -20 -23.5t-21 -14.5t-29 -7h-221q-16 0 -22.5 14t4.5 29z" />
    <glyph glyph-name="Ydieresis" unicode="&#x178;" horiz-adv-x="1259" 
d="M72 1395q-9 20 -1.5 29.5t27.5 9.5h244q32 0 45 -31l234 -537h18l233 537q13 31 48 31h243q44 0 27 -39l-406 -877v-485q0 -33 -32 -33h-242q-15 0 -24 9t-9 24v485zM195 1571v239q0 33 32 33h240q15 0 24 -9t9 -24v-239q0 -15 -9 -24t-24 -9h-240q-32 0 -32 33z
M760 1571v239q0 15 9 24t24 9h239q15 0 24 -9t9 -24v-239q0 -15 -9 -24t-24 -9h-239q-15 0 -24 9t-9 24z" />
    <glyph glyph-name="Zacute" unicode="&#x179;" horiz-adv-x="1095" 
d="M119 0q-31 0 -31 33v207q0 49 29 92l565 811v16h-555q-15 0 -24 9t-9 24v209q0 15 9 24t24 9h850q15 0 24 -9t9 -24v-205q0 -52 -29 -92l-569 -809v-21h567q31 0 31 -32v-209q0 -33 -31 -33h-860zM444 1571l91 235q18 37 43 37h303q19 0 25.5 -10t-5.5 -27l-184 -235
q-29 -37 -51 -37h-201q-36 0 -21 37z" />
    <glyph glyph-name="zacute" unicode="&#x17a;" horiz-adv-x="886" 
d="M100 0q-32 0 -32 35v205q0 24 10 36l393 467v17h-356q-35 0 -35 33v194q0 37 35 37h657q37 0 37 -33v-209q0 -21 -10 -34l-396 -467v-15h369q37 0 37 -35v-196q0 -35 -33 -35h-676zM342 1161l90 236q18 37 43 37h303q19 0 26 -10t-5 -27l-185 -236q-29 -37 -51 -37h-201
q-35 0 -20 37z" />
    <glyph glyph-name="Zdotaccent" unicode="&#x17b;" horiz-adv-x="1095" 
d="M119 0q-31 0 -31 33v207q0 49 29 92l565 811v16h-555q-15 0 -24 9t-9 24v209q0 15 9 24t24 9h850q15 0 24 -9t9 -24v-205q0 -52 -29 -92l-569 -809v-21h567q31 0 31 -32v-209q0 -33 -31 -33h-860zM397 1571v239q0 15 9 24t24 9h240q32 0 32 -33v-239q0 -33 -32 -33h-240
q-15 0 -24 9t-9 24z" />
    <glyph glyph-name="zdotaccent" unicode="&#x17c;" horiz-adv-x="886" 
d="M100 0q-32 0 -32 35v205q0 24 10 36l393 467v17h-356q-35 0 -35 33v194q0 37 35 37h657q37 0 37 -33v-209q0 -21 -10 -34l-396 -467v-15h369q37 0 37 -35v-196q0 -35 -33 -35h-676zM295 1161v240q0 15 9 24t24 9h239q15 0 24 -9t9 -24v-240q0 -15 -9 -24t-24 -9h-239
q-15 0 -24 9t-9 24z" />
    <glyph glyph-name="Zcaron" unicode="&#x17d;" horiz-adv-x="1095" 
d="M119 0q-31 0 -31 33v207q0 49 29 92l565 811v16h-555q-15 0 -24 9t-9 24v209q0 15 9 24t24 9h850q15 0 24 -9t9 -24v-205q0 -52 -29 -92l-569 -809v-21h567q31 0 31 -32v-209q0 -33 -31 -33h-860zM158 1802q-11 14 -4.5 27.5t22.5 13.5h221q23 0 38 -11t32 -34l74 -86h20
l72 86q14 17 22 24.5t21 14t29 6.5h219q16 0 23.5 -13.5t-5.5 -27.5l-209 -239q-27 -31 -57 -31h-252q-32 0 -57 31z" />
    <glyph glyph-name="zcaron" unicode="&#x17e;" horiz-adv-x="886" 
d="M100 0q-32 0 -32 35v205q0 24 10 36l393 467v17h-356q-35 0 -35 33v194q0 37 35 37h657q37 0 37 -33v-209q0 -21 -10 -34l-396 -467v-15h369q37 0 37 -35v-196q0 -35 -33 -35h-676zM55 1393q-11 13 -4 27t23 14h221q23 0 38 -11t32 -34l73 -86h21l71 86q14 17 22 24.5
t21 14t29 6.5h219q16 0 23.5 -14t-4.5 -27l-209 -240q-27 -31 -58 -31h-251q-33 0 -58 31z" />
    <glyph glyph-name="uni018F" unicode="&#x18f;" horiz-adv-x="1337" 
d="M547 -10q-217 0 -317.5 111.5t-100.5 312.5v391q0 45 45 45h727v162q0 88 -35 122.5t-102 34.5h-184q-67 0 -105.5 -36t-38.5 -132q0 -36 -37 -36h-235q-15 0 -25 9.5t-10 26.5v13q0 211 98.5 320.5t321.5 109.5h242q217 0 317 -111.5t100 -312.5v-606
q0 -201 -100 -312.5t-317 -111.5h-244zM436 422q0 -89 35 -123.5t102 -34.5h191q67 0 102 34.5t35 123.5v162h-465v-162z" />
    <glyph glyph-name="florin" unicode="&#x192;" horiz-adv-x="886" 
d="M98 -410q-30 0 -30 31v205q0 31 30 31h86q54 0 84.5 26.5t30.5 75.5v801h-137q-33 0 -33 33v198q0 33 33 33h137v68q0 168 84.5 255t269.5 87h146q30 0 30 -31v-205q0 -31 -30 -31h-86q-54 0 -84.5 -26.5t-30.5 -75.5v-1133q0 -168 -84.5 -255t-269.5 -87h-146z" />
    <glyph glyph-name="Ohorn" unicode="&#x1a0;" 
d="M547 -10q-217 0 -317.5 111.5t-100.5 312.5v606q0 201 100.5 312.5t317.5 111.5h424q39 0 39 29v120q0 29 28 29h146q30 0 30 -29v-125q0 -117 -81 -157q81 -105 81 -291v-606q0 -201 -100 -312.5t-317 -111.5h-250zM436 422q0 -89 35 -123.5t102 -34.5h197
q67 0 102 34.5t35 123.5v590q0 88 -35 122.5t-102 34.5h-197q-67 0 -102 -34.5t-35 -122.5v-590z" />
    <glyph glyph-name="ohorn" unicode="&#x1a1;" horiz-adv-x="1089" 
d="M477 -10q-196 0 -287.5 95.5t-91.5 266.5v318q0 362 379 362h340q39 0 39 29v121q0 28 29 28h135q29 0 29 -28v-125q0 -65 -24 -108t-85 -62q53 -82 53 -217v-318q0 -171 -92 -266.5t-289 -95.5h-135zM397 358q0 -52 27.5 -76t69.5 -24h104q42 0 68 24t26 76v308
q0 51 -26 75.5t-68 24.5h-104q-42 0 -69.5 -24.5t-27.5 -75.5v-308z" />
    <glyph glyph-name="Uhorn" unicode="&#x1af;" 
d="M547 -10q-217 0 -317.5 111.5t-100.5 312.5v987q0 15 9 24t24 9h241q15 0 24 -9t9 -24v-979q0 -89 35 -123.5t102 -34.5h197q67 0 102 34.5t35 123.5v979q0 15 9 24t24 9h184q39 0 39 28v131q0 29 29 29h145q31 0 31 -29v-135q0 -75 -34 -121t-120 -57v-866
q0 -201 -100 -312.5t-317 -111.5h-250z" />
    <glyph glyph-name="uhorn" unicode="&#x1b0;" horiz-adv-x="1130" 
d="M430 -8q-166 0 -238.5 87.5t-72.5 258.5v653q0 16 10 24.5t21 8.5h235q33 0 33 -33v-622q0 -52 26 -80.5t66 -28.5h98q45 0 75 28t30 81v622q0 16 9.5 24.5t20.5 8.5h164v2h29q39 0 39 27v129q0 30 31 30h133q30 0 30 -30v-131q0 -76 -34 -122.5t-121 -56.5v-837
q0 -35 -35 -35h-236q-10 0 -20 9.5t-10 25.5v67h-33q-31 -52 -91.5 -81t-139.5 -29h-19z" />
    <glyph glyph-name="uni01CD" unicode="&#x1cd;" horiz-adv-x="1302" 
d="M850 1434q31 0 41 -33l344 -1360q4 -17 -5 -29t-24 -12h-241q-30 0 -41 41l-43 174h-457l-43 -174q-11 -41 -41 -41h-242q-17 0 -25 12t-3 29l344 1360q10 33 39 33h397zM260 1802q-11 14 -4 27.5t23 13.5h221q23 0 37 -10.5t32 -34.5l74 -86h21l71 86q14 17 22 24.5
t21 14t29 6.5h219q16 0 23.5 -13.5t-5.5 -27.5l-208 -239q-27 -31 -58 -31h-252q-32 0 -57 31zM487 479h328l-147 604h-33z" />
    <glyph glyph-name="uni01CE" unicode="&#x1ce;" horiz-adv-x="1091" 
d="M707 0q-33 0 -33 35v86h-25q-54 -64 -110.5 -97.5t-143.5 -33.5h-18q-142 0 -215.5 79.5t-73.5 221.5v71q0 135 77 198t245 63h264v45q0 56 -44 80t-155 24q-123 0 -209 -22q-35 -8 -43 26l-30 164q-7 29 24 43q133 49 324 49h57q375 0 375 -350v-647q0 -35 -33 -35h-233
zM174 1393q-11 13 -4 27t23 14h221q23 0 37 -10.5t32 -34.5l74 -86h21l71 86q14 17 22 24.5t21 14t29 6.5h219q16 0 23.5 -14t-5.5 -27l-208 -240q-27 -31 -58 -31h-252q-32 0 -57 31zM381 303q0 -57 74 -57h100q119 0 119 110v58h-221q-36 0 -54 -14t-18 -56v-41z" />
    <glyph glyph-name="uni01CF" unicode="&#x1cf;" horiz-adv-x="563" 
d="M162 0q-15 0 -24 9t-9 24v1368q0 15 9 24t24 9h241q15 0 24 -9t9 -24v-1368q0 -15 -9 -24t-24 -9h-241zM-111 1802q-11 14 -4 27.5t23 13.5h221q23 0 38 -11t32 -34l73 -86h21l72 86q15 17 22 24.5t20 14t29 6.5h219q16 0 23.5 -13.5t-4.5 -27.5l-209 -239
q-27 -31 -57 -31h-252q-33 0 -58 31z" />
    <glyph glyph-name="uni01D0" unicode="&#x1d0;" horiz-adv-x="526" 
d="M147 0q-34 0 -34 35v956q0 33 34 33h232q35 0 35 -33v-956q0 -35 -35 -35h-232zM-135 1393q-11 13 -4.5 27t22.5 14h223q23 0 38 -11t32 -34l74 -86h20l72 86q14 17 22 24.5t21 14t29 6.5h219q16 0 23.5 -14t-5.5 -27l-209 -240q-27 -31 -57 -31h-252q-32 0 -57 31z" />
    <glyph glyph-name="uni01D1" unicode="&#x1d1;" 
d="M547 -10q-217 0 -317.5 111.5t-100.5 312.5v606q0 201 100.5 312.5t317.5 111.5h250q217 0 317 -111.5t100 -312.5v-606q0 -201 -100 -312.5t-317 -111.5h-250zM281 1802q-11 14 -4.5 27.5t22.5 13.5h221q23 0 38 -11t32 -34l74 -86h20l72 86q15 17 22 24.5t20 14t29 6.5
h220q16 0 23.5 -13.5t-5.5 -27.5l-209 -239q-27 -31 -57 -31h-252q-33 0 -58 31zM436 422q0 -89 35 -123.5t102 -34.5h197q67 0 102 34.5t35 123.5v590q0 88 -35 122.5t-102 34.5h-197q-67 0 -102 -34.5t-35 -122.5v-590z" />
    <glyph glyph-name="uni01D2" unicode="&#x1d2;" horiz-adv-x="1089" 
d="M477 -10q-196 0 -287.5 95.5t-91.5 266.5v318q0 362 379 362h135q197 0 289 -95t92 -267v-318q0 -171 -92 -266.5t-289 -95.5h-135zM154 1393q-11 13 -4.5 27t22.5 14h221q23 0 38 -11t32 -34l74 -86h20l72 86q15 17 22 24.5t20 14t29 6.5h220q16 0 23.5 -14t-5.5 -27
l-209 -240q-27 -31 -57 -31h-252q-33 0 -58 31zM397 358q0 -52 27.5 -76t69.5 -24h104q42 0 68 24t26 76v308q0 51 -26 75.5t-68 24.5h-104q-42 0 -69.5 -24.5t-27.5 -75.5v-308z" />
    <glyph glyph-name="uni01D3" unicode="&#x1d3;" 
d="M547 -10q-217 0 -317.5 111.5t-100.5 312.5v987q0 15 9 24t24 9h241q15 0 24 -9t9 -24v-979q0 -89 35 -123.5t102 -34.5h197q67 0 102 34.5t35 123.5v979q0 15 9 24t24 9h242q32 0 32 -33v-987q0 -201 -100 -312.5t-317 -111.5h-250zM281 1802q-11 14 -4.5 27.5
t22.5 13.5h221q23 0 38 -11t32 -34l74 -86h20l72 86q15 17 22 24.5t20 14t29 6.5h220q16 0 23.5 -13.5t-5.5 -27.5l-209 -239q-27 -31 -57 -31h-252q-33 0 -58 31z" />
    <glyph glyph-name="uni01D4" unicode="&#x1d4;" horiz-adv-x="1130" 
d="M430 -8q-166 0 -238.5 87.5t-72.5 258.5v653q0 16 10 24.5t21 8.5h235q33 0 33 -33v-622q0 -52 26 -80.5t66 -28.5h98q45 0 75 28t30 81v622q0 16 9.5 24.5t20.5 8.5h236q35 0 35 -33v-956q0 -35 -35 -35h-236q-10 0 -20 9.5t-10 25.5v67h-33q-31 -52 -91.5 -81
t-139.5 -29h-19zM162 1393q-11 13 -4.5 27t22.5 14h221q23 0 38 -11t32 -34l74 -86h20l72 86q14 17 22 24.5t21 14t29 6.5h219q16 0 23.5 -14t-5.5 -27l-209 -240q-27 -31 -57 -31h-252q-32 0 -57 31z" />
    <glyph glyph-name="uni01D5" unicode="&#x1d5;" 
d="M547 -10q-217 0 -317.5 111.5t-100.5 312.5v987q0 15 9 24t24 9h241q15 0 24 -9t9 -24v-979q0 -89 35 -123.5t102 -34.5h197q67 0 102 34.5t35 123.5v979q0 15 9 24t24 9h242q32 0 32 -33v-987q0 -201 -100 -312.5t-317 -111.5h-250zM238 1571v239q0 33 32 33h240
q15 0 24 -9t9 -24v-239q0 -15 -9 -24t-24 -9h-240q-32 0 -32 33zM309 2007v205q0 31 33 31h662q30 0 30 -31v-205q0 -31 -30 -31h-662q-33 0 -33 31zM803 1571v239q0 15 9 24t24 9h239q15 0 24 -9t9 -24v-239q0 -15 -9 -24t-24 -9h-239q-15 0 -24 9t-9 24z" />
    <glyph glyph-name="uni01D6" unicode="&#x1d6;" horiz-adv-x="1130" 
d="M430 -8q-166 0 -238.5 87.5t-72.5 258.5v653q0 16 10 24.5t21 8.5h235q33 0 33 -33v-622q0 -52 26 -80.5t66 -28.5h98q45 0 75 28t30 81v622q0 16 9.5 24.5t20.5 8.5h236q35 0 35 -33v-956q0 -35 -35 -35h-236q-10 0 -20 9.5t-10 25.5v67h-33q-31 -52 -91.5 -81
t-139.5 -29h-19zM119 1161v240q0 15 9 24t24 9h239q15 0 24 -9t9 -24v-240q0 -15 -9 -24t-24 -9h-239q-15 0 -24 9t-9 24zM193 1597v205q0 31 32 31h662q31 0 31 -31v-205q0 -30 -31 -30h-662q-32 0 -32 30zM684 1161v240q0 15 9 24t24 9h239q15 0 24 -9t9 -24v-240
q0 -15 -9 -24t-24 -9h-239q-15 0 -24 9t-9 24z" />
    <glyph glyph-name="uni01D7" unicode="&#x1d7;" 
d="M547 -10q-217 0 -317.5 111.5t-100.5 312.5v987q0 15 9 24t24 9h241q15 0 24 -9t9 -24v-979q0 -89 35 -123.5t102 -34.5h197q67 0 102 34.5t35 123.5v979q0 15 9 24t24 9h242q32 0 32 -33v-987q0 -201 -100 -312.5t-317 -111.5h-250zM238 1571v239q0 33 32 33h240
q15 0 24 -9t9 -24v-239q0 -15 -9 -24t-24 -9h-240q-32 0 -32 33zM565 1970l90 236q18 37 43 37h303q19 0 26 -10t-5 -27l-184 -236q-29 -37 -52 -37h-200q-36 0 -21 37zM803 1571v239q0 15 9 24t24 9h239q15 0 24 -9t9 -24v-239q0 -15 -9 -24t-24 -9h-239q-15 0 -24 9t-9 24
z" />
    <glyph glyph-name="uni01D8" unicode="&#x1d8;" horiz-adv-x="1130" 
d="M430 -8q-166 0 -238.5 87.5t-72.5 258.5v653q0 16 10 24.5t21 8.5h235q33 0 33 -33v-622q0 -52 26 -80.5t66 -28.5h98q45 0 75 28t30 81v622q0 16 9.5 24.5t20.5 8.5h236q35 0 35 -33v-956q0 -35 -35 -35h-236q-10 0 -20 9.5t-10 25.5v67h-33q-31 -52 -91.5 -81
t-139.5 -29h-19zM119 1161v240q0 15 9 24t24 9h239q15 0 24 -9t9 -24v-240q0 -15 -9 -24t-24 -9h-239q-15 0 -24 9t-9 24zM449 1561l90 235q18 37 43 37h303q19 0 25.5 -10t-5.5 -27l-184 -235q-29 -37 -51 -37h-201q-35 0 -20 37zM684 1161v240q0 15 9 24t24 9h239
q15 0 24 -9t9 -24v-240q0 -15 -9 -24t-24 -9h-239q-15 0 -24 9t-9 24z" />
    <glyph glyph-name="uni01D9" unicode="&#x1d9;" 
d="M547 -10q-217 0 -317.5 111.5t-100.5 312.5v987q0 15 9 24t24 9h241q15 0 24 -9t9 -24v-979q0 -89 35 -123.5t102 -34.5h197q67 0 102 34.5t35 123.5v979q0 15 9 24t24 9h242q32 0 32 -33v-987q0 -201 -100 -312.5t-317 -111.5h-250zM238 1571v239q0 33 32 33h240
q15 0 24 -9t9 -24v-239q0 -15 -9 -24t-24 -9h-240q-32 0 -32 33zM281 2202q-11 14 -4.5 27.5t22.5 13.5h221q23 0 38 -11t32 -34l74 -87h20l72 87q15 17 22 24.5t20 14t29 6.5h220q16 0 23.5 -13.5t-5.5 -27.5l-209 -240q-27 -31 -57 -31h-252q-33 0 -58 31zM803 1571v239
q0 15 9 24t24 9h239q15 0 24 -9t9 -24v-239q0 -15 -9 -24t-24 -9h-239q-15 0 -24 9t-9 24z" />
    <glyph glyph-name="uni01DA" unicode="&#x1da;" horiz-adv-x="1130" 
d="M430 -8q-166 0 -238.5 87.5t-72.5 258.5v653q0 16 10 24.5t21 8.5h235q33 0 33 -33v-622q0 -52 26 -80.5t66 -28.5h98q45 0 75 28t30 81v622q0 16 9.5 24.5t20.5 8.5h236q35 0 35 -33v-956q0 -35 -35 -35h-236q-10 0 -20 9.5t-10 25.5v67h-33q-31 -52 -91.5 -81
t-139.5 -29h-19zM119 1161v240q0 15 9 24t24 9h239q15 0 24 -9t9 -24v-240q0 -15 -9 -24t-24 -9h-239q-15 0 -24 9t-9 24zM162 1792q-11 14 -4.5 27.5t22.5 13.5h221q23 0 38 -11t32 -34l74 -86h20l72 86q14 17 22 24.5t21 14t29 6.5h219q16 0 23.5 -13.5t-5.5 -27.5
l-209 -240q-26 -30 -57 -30h-252q-33 0 -57 30zM684 1161v240q0 15 9 24t24 9h239q15 0 24 -9t9 -24v-240q0 -15 -9 -24t-24 -9h-239q-15 0 -24 9t-9 24z" />
    <glyph glyph-name="uni01DB" unicode="&#x1db;" 
d="M547 -10q-217 0 -317.5 111.5t-100.5 312.5v987q0 15 9 24t24 9h241q15 0 24 -9t9 -24v-979q0 -89 35 -123.5t102 -34.5h197q67 0 102 34.5t35 123.5v979q0 15 9 24t24 9h242q32 0 32 -33v-987q0 -201 -100 -312.5t-317 -111.5h-250zM238 1571v239q0 33 32 33h240
q15 0 24 -9t9 -24v-239q0 -15 -9 -24t-24 -9h-240q-32 0 -32 33zM338 2206q-12 17 -4.5 27t26.5 10h304q23 0 41 -37l90 -236q15 -37 -21 -37h-201q-22 0 -51 37zM803 1571v239q0 15 9 24t24 9h239q15 0 24 -9t9 -24v-239q0 -15 -9 -24t-24 -9h-239q-15 0 -24 9t-9 24z" />
    <glyph glyph-name="uni01DC" unicode="&#x1dc;" horiz-adv-x="1130" 
d="M430 -8q-166 0 -238.5 87.5t-72.5 258.5v653q0 16 10 24.5t21 8.5h235q33 0 33 -33v-622q0 -52 26 -80.5t66 -28.5h98q45 0 75 28t30 81v622q0 16 9.5 24.5t20.5 8.5h236q35 0 35 -33v-956q0 -35 -35 -35h-236q-10 0 -20 9.5t-10 25.5v67h-33q-31 -52 -91.5 -81
t-139.5 -29h-19zM119 1161v240q0 15 9 24t24 9h239q15 0 24 -9t9 -24v-240q0 -15 -9 -24t-24 -9h-239q-15 0 -24 9t-9 24zM219 1796q-12 17 -4 27t27 10h303q23 0 41 -37l90 -235q15 -37 -21 -37h-200q-23 0 -52 37zM684 1161v240q0 15 9 24t24 9h239q15 0 24 -9t9 -24v-240
q0 -15 -9 -24t-24 -9h-239q-15 0 -24 9t-9 24z" />
    <glyph glyph-name="Gcaron" unicode="&#x1e6;" horiz-adv-x="1337" 
d="M547 -10q-217 0 -317.5 111.5t-100.5 312.5v606q0 201 100.5 312.5t317.5 111.5h241q223 0 320.5 -109.5t97.5 -320.5v-13q0 -17 -10 -26.5t-25 -9.5h-235q-37 0 -37 36q0 96 -37 132t-104 36h-185q-67 0 -102 -34.5t-35 -122.5v-590q0 -89 35 -123.5t102 -34.5h191
q67 0 102 34.5t35 123.5v162h-246q-32 0 -32 32v201q0 33 32 33h508q45 0 45 -45v-391q0 -201 -100 -312.5t-317 -111.5h-244zM307 1802q-11 14 -4 27.5t23 13.5h221q23 0 37 -10.5t32 -34.5l74 -86h21l71 86q14 17 22 24.5t21 14t29 6.5h219q16 0 23.5 -13.5t-4.5 -27.5
l-209 -239q-27 -31 -58 -31h-252q-32 0 -57 31z" />
    <glyph glyph-name="gcaron" unicode="&#x1e7;" horiz-adv-x="1099" 
d="M543 -379q-104 0 -187 17q-51 12 -51 53v139q0 21 13 33.5t38 11.5q63 -4 185 -4q151 0 151 125v88h-24q-40 -46 -89.5 -70t-129.5 -24h-13q-338 0 -338 346v350q0 346 338 346h13q80 0 129.5 -24t89.5 -70h24v53q0 16 10 24.5t21 8.5h235q35 0 35 -33v-995
q0 -206 -107.5 -290.5t-342.5 -84.5zM186 1393q-11 13 -4 27t23 14h221q23 0 38 -11t32 -34l73 -86h21l72 86q15 17 22 24.5t20 14t29 6.5h219q16 0 23.5 -14t-4.5 -27l-209 -240q-27 -31 -57 -31h-252q-33 0 -58 31zM397 362q0 -48 29 -76t68 -28h102q42 0 69 27.5t27 79.5
v292q0 53 -27 81t-69 28h-102q-39 0 -68 -28.5t-29 -78.5v-297z" />
    <glyph glyph-name="uni0218" unicode="&#x218;" horiz-adv-x="1255" 
d="M512 -10q-211 0 -312.5 100.5t-101.5 282.5q0 47 43 47h215q44 0 50 -47q8 -61 46 -85t105 -24h133q34 0 60 6t50 22.5t37 50t13 83.5q0 90 -37.5 126.5t-132.5 45.5l-111 12q-88 11 -152 26.5t-125.5 47.5t-99 78t-60.5 119t-23 170q0 393 421 393h177
q202 0 307.5 -101.5t105.5 -281.5q0 -47 -43 -47h-215q-43 0 -49 47q-9 58 -41 83t-94 25h-123q-139 0 -139 -133q0 -35 4 -58t18 -50t46.5 -43t82.5 -21l113 -12q62 -7 108.5 -15t99 -23t90 -35t73.5 -52t57.5 -73t35 -99t13.5 -129q0 -223 -101 -329.5t-323 -106.5h-221z
M360 -627v185q0 32 33 32h101v254q0 33 32 33h197q15 0 24 -9t9 -24v-422q0 -39 -22 -60t-62 -21h-279q-33 0 -33 32z" />
    <glyph glyph-name="uni0219" unicode="&#x219;" horiz-adv-x="1038" 
d="M465 -10q-185 0 -281 73.5t-96 219.5q0 45 33 45h227q32 0 39 -27q13 -33 37 -45t68 -12h67q92 0 92 61q0 17 -1.5 25t-9.5 21t-29 20t-56 10l-98 10q-110 12 -184.5 39t-114.5 69.5t-56 92t-16 117.5q0 323 360 323h138q158 0 252 -83.5t94 -229.5q0 -35 -37 -35h-203
q-50 0 -55 33q-16 61 -90 61h-88q-70 0 -70 -61q0 -14 2 -23t10 -22t29 -21t53 -12l97 -10q216 -23 295 -89.5t79 -222.5q0 -170 -94 -248.5t-299 -78.5h-94zM244 -627v185q0 32 32 32h101v254q0 15 9 24t24 9h196q15 0 24 -9t9 -24v-422q0 -39 -22 -60t-62 -21h-279
q-32 0 -32 32z" />
    <glyph glyph-name="uni021A" unicode="&#x21a;" horiz-adv-x="1132" 
d="M446 0q-32 0 -32 33v1126h-295q-31 0 -31 33v209q0 33 31 33h895q15 0 24 -9t9 -24v-209q0 -15 -9 -24t-24 -9h-293v-1126q0 -15 -9 -24t-24 -9h-242zM301 -627v185q0 32 33 32h100v254q0 15 9 24t24 9h197q32 0 32 -33v-422q0 -39 -22 -60t-62 -21h-278q-33 0 -33 32z
" />
    <glyph glyph-name="uni021B" unicode="&#x21b;" horiz-adv-x="790" 
d="M547 -10q-64 0 -113.5 10.5t-83.5 27t-58.5 45t-38 57.5t-21 71.5t-9.5 79t-2 88.5v391h-127q-37 0 -37 37v190q0 37 37 37h127v209q0 35 35 35h231q35 0 35 -35v-209h156q37 0 37 -37v-190q0 -37 -37 -37h-156v-404q0 -56 27 -80t84 -24q33 0 47 -14t14 -45v-119
q0 -45 -32 -64.5t-115 -19.5zM170 -627v185q0 32 33 32h100v254q0 15 9 24t24 9h196q15 0 24 -9t9 -24v-422q0 -39 -22 -60t-62 -21h-278q-33 0 -33 32z" />
    <glyph glyph-name="uni0228" unicode="&#x228;" horiz-adv-x="1095" 
d="M160 0q-31 0 -31 33v1368q0 33 31 33h825q31 0 31 -33v-209q0 -33 -31 -33h-549v-309h504q31 0 31 -33v-201q0 -32 -31 -32h-504v-310h561q33 0 33 -32v-209q0 -15 -9 -24t-24 -9h-258q-80 -34 -51 -53q14 -10 45 -10h45q70 0 98.5 -38t28.5 -114q0 -211 -209 -211h-190
q-96 0 -139 45t-43 121q0 33 28 33h172q18 0 27 -23q3 -1 9.5 -4t14.5 -5.5t15 -2.5h45q17 0 31 9.5t14 25.5q0 19 -27 28t-100 9h-84q-37 0 -60.5 17t-23.5 52q0 20 13 39.5t26 31.5t57 50h-321z" />
    <glyph glyph-name="uni0229" unicode="&#x229;" horiz-adv-x="1064" 
d="M428 -426q-96 0 -139 45t-43 121q0 33 28 33h172q18 0 27 -23q3 -1 9.5 -4t14.5 -5.5t15 -2.5h45q17 0 31 9.5t14 25.5q0 19 -27 28t-100 9h-84q-37 0 -60.5 17t-23.5 52q0 20 13 39.5t26 31.5t57 50q-162 26 -233.5 116t-71.5 234v322q0 360 381 360h109q197 0 289 -95
t92 -267v-213q0 -66 -70 -66h-502v-41q0 -49 38 -79.5t112 -30.5h20q96 0 147 10t99 33q30 13 47 -15l68 -104q19 -25 4 -43q-48 -46 -122.5 -79.5t-158.5 -45.5q-30 -14 -41 -26t-4.5 -19t19.5 -10.5t30 -3.5h45q70 0 98.5 -38t28.5 -114q0 -211 -209 -211h-190zM397 606
h271v62q0 52 -27 75t-68 23h-79q-97 0 -97 -96v-64z" />
    <glyph glyph-name="uni0237" unicode="&#x237;" horiz-adv-x="550" 
d="M109 -389q-85 0 -117.5 20t-32.5 64v119q0 31 14.5 45t49.5 14q57 0 83.5 24t26.5 80v1014q0 33 33 33h233q33 0 33 -33v-1001q0 -52 -2 -88.5t-9.5 -79.5t-21 -71.5t-37 -57t-57.5 -45t-83.5 -27t-112.5 -10.5z" />
    <glyph glyph-name="uni0259" unicode="&#x259;" horiz-adv-x="1064" 
d="M479 -10q-196 0 -288.5 95.5t-92.5 266.5v213q0 68 68 68h502v41q0 48 -38 79t-110 31h-20q-95 0 -147 -10.5t-101 -34.5q-30 -13 -47 15l-68 106q-18 28 -2 41q58 60 158 95.5t205 35.5h32q234 0 336.5 -94.5t102.5 -265.5v-322q0 -360 -381 -360h-109zM397 354
q0 -50 27 -73t70 -23h79q95 0 95 94v64h-271v-62z" />
    <glyph glyph-name="circumflex" unicode="&#x2c6;" horiz-adv-x="993" 
d="M129 1122q-16 0 -22.5 14t4.5 29l208 240q23 29 58 29h252q32 0 57 -29l209 -240q12 -15 5 -29t-23 -14h-220q-5 0 -10 0.5t-9.5 2.5t-8 3t-8 4.5t-7 5t-7.5 6.5t-6.5 7t-7 8t-7.5 8l-72 86h-20l-74 -86q-12 -16 -20 -23.5t-21 -14.5t-29 -7h-221z" />
    <glyph glyph-name="caron" unicode="&#x2c7;" horiz-adv-x="1005" 
d="M377 1122q-33 0 -58 31l-208 240q-11 13 -4.5 27t22.5 14h221q23 0 38 -11t32 -34l74 -86h20l72 86q15 17 22 24.5t20 14t29 6.5h220q16 0 23.5 -14t-5.5 -27l-209 -240q-27 -31 -57 -31h-252z" />
    <glyph glyph-name="breve" unicode="&#x2d8;" horiz-adv-x="942" 
d="M401 1092q-154 0 -226.5 74.5t-72.5 230.5q0 37 33 37h168q18 0 26 -8.5t11 -26.5q7 -55 28.5 -84t77.5 -29h50q56 0 78.5 29.5t29.5 83.5q3 35 35 35h168q33 0 33 -37q0 -156 -72 -230.5t-225 -74.5h-142z" />
    <glyph glyph-name="dotaccent" unicode="&#x2d9;" horiz-adv-x="509" 
d="M135 1128q-15 0 -24 9t-9 24v240q0 15 9 24t24 9h240q15 0 24 -9t9 -24v-240q0 -15 -9 -24t-24 -9h-240z" />
    <glyph glyph-name="ring" unicode="&#x2da;" horiz-adv-x="573" 
d="M272 1104q-74 0 -122 47.5t-48 118.5v30q0 71 47.5 117.5t122.5 46.5h31q74 0 121 -46.5t47 -117.5v-30q0 -71 -47 -118.5t-121 -47.5h-31zM250 1280q0 -14 7.5 -22.5t18.5 -8.5h23q13 0 21 8.5t8 22.5v12q0 12 -8.5 19.5t-20.5 7.5h-23q-11 0 -18.5 -7.5t-7.5 -19.5v-12
z" />
    <glyph glyph-name="ogonek" unicode="&#x2db;" horiz-adv-x="790" 
d="M322 -426q-68 0 -107 6.5t-66.5 28t-37 58.5t-9.5 100q0 102 28.5 137.5t113.5 44.5l71 6q5 1 17 1.5t16.5 1t12.5 2.5t11.5 5t7.5 8.5t5.5 13.5t1.5 19v35h301v-119q0 -36 -7.5 -58t-33 -34.5t-42.5 -16.5t-66 -10q-9 -1 -13 -2l-139 -16q-16 -2 -16 -14q4 -4 6 -4h256
q9 0 14.5 -8t5.5 -19v-146q0 -20 -20 -20h-311z" />
    <glyph glyph-name="tilde" unicode="&#x2dc;" horiz-adv-x="944" 
d="M602 1108q-62 0 -107.5 19t-81.5 38t-75 19t-63.5 -8t-61.5 -31q-29 -15 -43 8l-66 166q-5 17 0.5 27.5t20.5 23.5q56 43 106.5 58.5t110.5 15.5q62 0 107.5 -19t81.5 -38t75 -19q10 0 19.5 1t16 1.5t16 3.5t13.5 4t14.5 6t14 7t17.5 9l18 9q25 14 39 -10l66 -166
q5 -17 -0.5 -27.5t-20.5 -23.5q-56 -43 -106.5 -58.5t-110.5 -15.5z" />
    <glyph glyph-name="hungarumlaut" unicode="&#x2dd;" horiz-adv-x="1114" 
d="M571 1124q-35 0 -20 37l90 236q18 37 43 37h303q19 0 26 -10t-5 -27l-185 -236q-29 -37 -51 -37h-201zM109 1161l90 236q18 37 43 37h303q19 0 25.5 -10t-5.5 -27l-184 -236q-29 -37 -51 -37h-201q-35 0 -20 37z" />
    <glyph glyph-name="gravecomb" unicode="&#x300;" horiz-adv-x="0" 
d="M342 1124q-22 0 -51 37l-185 236q-12 17 -4 27t27 10h303q23 0 41 -37l90 -236q15 -37 -20 -37h-201z" />
    <glyph glyph-name="acutecomb" unicode="&#x301;" horiz-adv-x="0" 
d="M129 1124q-35 0 -20 37l90 236q18 37 43 37h303q19 0 25.5 -10t-5.5 -27l-184 -236q-29 -37 -51 -37h-201z" />
    <glyph glyph-name="uni0302" unicode="&#x302;" horiz-adv-x="0" 
d="M129 1122q-16 0 -22.5 14t4.5 29l208 240q23 29 58 29h252q32 0 57 -29l209 -240q12 -15 5 -29t-23 -14h-220q-5 0 -10 0.5t-9.5 2.5t-8 3t-8 4.5t-7 5t-7.5 6.5t-6.5 7t-7 8t-7.5 8l-72 86h-20l-74 -86q-12 -16 -20 -23.5t-21 -14.5t-29 -7h-221z" />
    <glyph glyph-name="tildecomb" unicode="&#x303;" horiz-adv-x="0" 
d="M602 1108q-62 0 -107.5 19t-81.5 38t-75 19t-63.5 -8t-61.5 -31q-29 -15 -43 8l-66 166q-5 17 0.5 27.5t20.5 23.5q56 43 106.5 58.5t110.5 15.5q62 0 107.5 -19t81.5 -38t75 -19q10 0 19.5 1t16 1.5t16 3.5t13.5 4t14.5 6t14 7t17.5 9l18 9q25 14 39 -10l66 -166
q5 -17 -0.5 -27.5t-20.5 -23.5q-56 -43 -106.5 -58.5t-110.5 -15.5z" />
    <glyph glyph-name="uni0304" unicode="&#x304;" horiz-adv-x="0" 
d="M135 1167q-33 0 -33 31v205q0 31 33 31h662q30 0 30 -31v-205q0 -31 -30 -31h-662z" />
    <glyph glyph-name="uni0306" unicode="&#x306;" horiz-adv-x="0" 
d="M401 1092q-154 0 -226.5 74.5t-72.5 230.5q0 37 33 37h168q18 0 26 -8.5t11 -26.5q7 -55 28.5 -84t77.5 -29h50q56 0 78.5 29.5t29.5 83.5q3 35 35 35h168q33 0 33 -37q0 -156 -72 -230.5t-225 -74.5h-142z" />
    <glyph glyph-name="uni0307" unicode="&#x307;" horiz-adv-x="0" 
d="M135 1128q-15 0 -24 9t-9 24v240q0 15 9 24t24 9h240q15 0 24 -9t9 -24v-240q0 -15 -9 -24t-24 -9h-240z" />
    <glyph glyph-name="uni0308" unicode="&#x308;" horiz-adv-x="0" 
d="M700 1128q-32 0 -32 33v240q0 33 32 33h240q15 0 24 -9t9 -24v-240q0 -15 -9 -24t-24 -9h-240zM102 1161v240q0 15 9 24t24 9h240q15 0 24 -9t9 -24v-240q0 -15 -9 -24t-24 -9h-240q-15 0 -24 9t-9 24z" />
    <glyph glyph-name="hookabovecomb" unicode="&#x309;" horiz-adv-x="0" 
d="M344 1128q-31 0 -31 29v98q0 31 31 31h18q39 0 39 27v35q0 26 -39 26h-28q-35 0 -35 -26v-17q0 -28 -31 -28h-135q-31 0 -31 28v19q0 87 46 137.5t165 50.5h70q120 0 165.5 -50t45.5 -138v-39q0 -87 -45 -135t-166 -48h-39z" />
    <glyph glyph-name="uni030A" unicode="&#x30a;" horiz-adv-x="0" 
d="M272 1104q-74 0 -122 47.5t-48 118.5v30q0 71 47.5 117.5t122.5 46.5h31q74 0 121 -46.5t47 -117.5v-30q0 -71 -47 -118.5t-121 -47.5h-31zM250 1280q0 -14 7.5 -22.5t18.5 -8.5h23q13 0 21 8.5t8 22.5v12q0 12 -8.5 19.5t-20.5 7.5h-23q-11 0 -18.5 -7.5t-7.5 -19.5v-12
z" />
    <glyph glyph-name="uni030B" unicode="&#x30b;" horiz-adv-x="0" 
d="M571 1124q-35 0 -20 37l90 236q18 37 43 37h303q19 0 26 -10t-5 -27l-185 -236q-29 -37 -51 -37h-201zM109 1161l90 236q18 37 43 37h303q19 0 25.5 -10t-5.5 -27l-184 -236q-29 -37 -51 -37h-201q-35 0 -20 37z" />
    <glyph glyph-name="uni030C" unicode="&#x30c;" horiz-adv-x="0" 
d="M377 1122q-33 0 -58 31l-208 240q-11 13 -4.5 27t22.5 14h221q23 0 38 -11t32 -34l74 -86h20l72 86q15 17 22 24.5t20 14t29 6.5h220q16 0 23.5 -14t-5.5 -27l-209 -240q-27 -31 -57 -31h-252z" />
    <glyph glyph-name="uni031B" unicode="&#x31b;" horiz-adv-x="0" 
d="M102 1128v158h29q39 0 39 27v129q0 31 31 31h133q31 0 31 -31v-131q0 -86 -45.5 -134.5t-165.5 -48.5h-52z" />
    <glyph glyph-name="dotbelowcomb" unicode="&#x323;" horiz-adv-x="0" 
d="M135 -362q-33 0 -33 32v221q0 15 9 24t24 9h221q15 0 24 -9t9 -24v-221q0 -32 -33 -32h-221z" />
    <glyph glyph-name="uni0326" unicode="&#x326;" horiz-adv-x="0" 
d="M135 -659q-33 0 -33 32v185q0 32 33 32h101v254q0 33 32 33h197q15 0 24 -9t9 -24v-422q0 -39 -22 -60t-62 -21h-279z" />
    <glyph glyph-name="uni0327" unicode="&#x327;" horiz-adv-x="0" 
d="M285 -426q-96 0 -139.5 45t-43.5 121q0 33 29 33h172q18 0 27 -23q3 -1 9.5 -4t14.5 -5.5t15 -2.5h45q17 0 31 9.5t14 25.5q0 19 -27 28t-100 9h-84q-37 0 -60.5 17t-23.5 52q0 20 13 39.5t26 31.5t57 50h258q-80 -34 -51 -53q14 -10 45 -10h45q70 0 98.5 -38t28.5 -114
q0 -211 -209 -211h-190z" />
    <glyph glyph-name="uni0328" unicode="&#x328;" horiz-adv-x="0" 
d="M322 -426q-68 0 -107 6.5t-66.5 28t-37 58.5t-9.5 100q0 102 28.5 137.5t113.5 44.5l71 6q5 1 17 1.5t16.5 1t12.5 2.5t11.5 5t7.5 8.5t5.5 13.5t1.5 19v35h301v-119q0 -36 -7.5 -58t-33 -34.5t-42.5 -16.5t-66 -10q-9 -1 -13 -2l-139 -16q-16 -2 -16 -14q4 -4 6 -4h256
q9 0 14.5 -8t5.5 -19v-146q0 -20 -20 -20h-311z" />
    <glyph glyph-name="uni0394" unicode="&#x394;" horiz-adv-x="1241" 
d="M92 0q-31 0 -22 33l419 1427q10 33 39 33h189q29 0 39 -33l418 -1427q6 -33 -25 -33h-1057zM434 289h371l-180 764z" />
    <glyph glyph-name="uni03A9" unicode="&#x3a9;" horiz-adv-x="1218" 
d="M160 0q-31 0 -31 31v245q0 31 31 31h123q-154 49 -154 307v478q0 195 118.5 307t301.5 112h121q183 0 302.5 -112t119.5 -307v-478q0 -259 -156 -307h125q31 0 31 -31v-245q0 -31 -31 -31h-367q-30 0 -30 31v284q0 31 30 31q23 0 39.5 8t26 26t15.5 34t8 46t2.5 47.5
t-0.5 52.5t-1 48v473q0 43 -7 68.5t-25.5 37t-37.5 14.5t-55 3h-100q-36 0 -54.5 -3t-36.5 -14.5t-25 -37t-7 -68.5v-473q0 -13 -1 -48t-0.5 -52.5t2.5 -47.5t8 -46t15.5 -34t26 -26t39.5 -8q31 0 31 -31v-284q0 -31 -31 -31h-366z" />
    <glyph glyph-name="uni03BC" unicode="&#x3bc;" horiz-adv-x="1130" 
d="M150 -410q-31 0 -31 31v1370q0 16 10 24.5t21 8.5h235q33 0 33 -33v-622q0 -52 26 -80.5t66 -28.5h98q45 0 75 28t30 81v622q0 16 9.5 24.5t20.5 8.5h236q35 0 35 -33v-956q0 -35 -35 -35h-236q-10 0 -20 9.5t-10 25.5v67h-21q-19 -57 -55 -83.5t-100 -26.5h-25
q-73 0 -92 53v-424q0 -31 -31 -31h-239z" />
    <glyph glyph-name="pi" unicode="&#x3c0;" horiz-adv-x="1269" 
d="M262 0q-31 0 -31 31v686h-118q-31 0 -31 31v245q0 31 29 31h1046q31 0 31 -31v-248q0 -28 -31 -28h-121v-686q0 -31 -30 -31h-246q-31 0 -31 31v686h-190v-686q0 -31 -31 -31h-246z" />
    <glyph glyph-name="uni0401" unicode="&#x401;" horiz-adv-x="1095" 
d="M160 0q-31 0 -31 33v1368q0 33 31 33h825q31 0 31 -33v-209q0 -33 -31 -33h-549v-309h504q31 0 31 -33v-201q0 -32 -31 -32h-504v-310h561q33 0 33 -32v-209q0 -15 -9 -24t-24 -9h-837zM137 1571v239q0 15 9 24t24 9h240q32 0 32 -33v-239q0 -33 -32 -33h-240
q-15 0 -24 9t-9 24zM702 1571v239q0 15 9 24t24 9h240q15 0 24 -9t9 -24v-239q0 -15 -9 -24t-24 -9h-240q-15 0 -24 9t-9 24z" />
    <glyph glyph-name="uni0403" unicode="&#x403;" horiz-adv-x="1030" 
d="M162 0q-15 0 -24 9t-9 24v1368q0 15 9 24t24 9h753q15 0 24 -9t9 -24v-209q0 -15 -9 -24t-24 -9h-479v-1126q0 -15 -9 -24t-24 -9h-241zM412 1571l90 235q18 37 43 37h303q19 0 25.5 -10t-5.5 -27l-184 -235q-29 -37 -51 -37h-201q-35 0 -20 37z" />
    <glyph glyph-name="uni0404" unicode="&#x404;" horiz-adv-x="1316" 
d="M547 -10q-217 0 -317.5 111.5t-100.5 312.5v606q0 201 100.5 312.5t317.5 111.5h241q223 0 321.5 -109.5t98.5 -320.5v-13q0 -17 -9.5 -26.5t-24.5 -9.5h-236q-37 0 -37 36q0 96 -38 132t-105 36h-185q-67 0 -102 -34.5t-35 -122.5v-158h256q15 0 24 -9t9 -24v-209
q0 -32 -33 -32h-256v-158q0 -89 35 -123.5t102 -34.5h185q67 0 105 35.5t38 130.5q0 37 37 37h236q15 0 24.5 -10t9.5 -27v-12q0 -209 -98.5 -318.5t-321.5 -109.5h-241z" />
    <glyph glyph-name="uni0406" unicode="&#x406;" horiz-adv-x="563" 
d="M162 0q-15 0 -24 9t-9 24v1368q0 15 9 24t24 9h241q15 0 24 -9t9 -24v-1368q0 -15 -9 -24t-24 -9h-241z" />
    <glyph glyph-name="uni0407" unicode="&#x407;" horiz-adv-x="563" 
d="M162 0q-15 0 -24 9t-9 24v1368q0 15 9 24t24 9h241q15 0 24 -9t9 -24v-1368q0 -15 -9 -24t-24 -9h-241zM-154 1571v239q0 15 9 24t24 9h240q15 0 24 -9t9 -24v-239q0 -15 -9 -24t-24 -9h-240q-15 0 -24 9t-9 24zM412 1571v239q0 33 32 33h240q15 0 24 -9t9 -24v-239
q0 -15 -9 -24t-24 -9h-240q-32 0 -32 33z" />
    <glyph glyph-name="uni0408" unicode="&#x408;" horiz-adv-x="798" 
d="M109 -10q-31 0 -31 33v208q0 33 31 33h118q68 0 103 34.5t35 123.5v979q0 33 32 33h242q15 0 24 -9t9 -24v-987q0 -201 -100.5 -312.5t-317.5 -111.5h-145z" />
    <glyph glyph-name="uni040C" unicode="&#x40c;" horiz-adv-x="1316" 
d="M162 0q-15 0 -24 9t-9 24v1368q0 15 9 24t24 9h241q15 0 24 -9t9 -24v-549l432 547q27 35 64 35h270q20 0 25 -17t-13 -39l-464 -573l491 -750q8 -12 8 -33.5t-18 -21.5h-279q-40 0 -57 29l-344 532l-115 -141v-387q0 -15 -9 -24t-24 -9h-241zM545 1571l90 235
q18 37 43 37h303q19 0 25.5 -10t-5.5 -27l-184 -235q-29 -37 -51 -37h-201q-35 0 -20 37z" />
    <glyph glyph-name="uni040D" unicode="&#x40d;" horiz-adv-x="1382" 
d="M162 0q-15 0 -24 9t-9 24v1368q0 15 9 24t24 9h241q15 0 24 -9t9 -24v-995h19l329 1005q6 23 37 23h402q32 0 32 -33v-1368q0 -33 -32 -33h-242q-15 0 -24 9t-9 24v995h-20l-328 -1005q-9 -23 -37 -23h-401zM328 1806q-12 17 -4.5 27t26.5 10h303q23 0 41 -37l90 -235
q15 -37 -20 -37h-201q-22 0 -51 37z" />
    <glyph glyph-name="uni040E" unicode="&#x40e;" horiz-adv-x="1265" 
d="M264 0q-20 0 -27 10.5t1 30.5l235 500l-401 854q-9 20 -1.5 29.5t27.5 9.5h244q32 0 45 -31l244 -526l248 526q13 31 45 31h243q20 0 28 -9.5t-1 -29.5l-639 -1362q-13 -33 -47 -33h-244zM287 1806q0 37 32 37h168q18 0 26 -8.5t11 -26.5q7 -54 29 -83t78 -29h49
q56 0 78.5 29t29.5 83q3 35 35 35h168q33 0 33 -37q0 -156 -72 -230.5t-225 -74.5h-141q-154 0 -226.5 74.5t-72.5 230.5z" />
    <glyph glyph-name="uni0410" unicode="&#x410;" horiz-adv-x="1302" 
d="M850 1434q31 0 41 -33l344 -1360q4 -17 -5 -29t-24 -12h-241q-30 0 -41 41l-43 174h-457l-43 -174q-11 -41 -41 -41h-242q-17 0 -25 12t-3 29l344 1360q10 33 39 33h397zM487 479h328l-147 604h-33z" />
    <glyph glyph-name="uni0411" unicode="&#x411;" horiz-adv-x="1269" 
d="M891 1434q31 0 31 -33v-209q0 -33 -31 -33h-455v-76h314q110 0 192 -31t132.5 -88.5t75 -135t24.5 -173.5v-227q0 -96 -24.5 -173.5t-75 -135t-132.5 -88.5t-192 -31h-588q-15 0 -24 9t-9 24v1368q0 15 9 24t24 9h729zM436 274h287q143 0 143 162v211q0 89 -37.5 125.5
t-105.5 36.5h-287v-535z" />
    <glyph glyph-name="uni0412" unicode="&#x412;" horiz-adv-x="1259" 
d="M162 0q-15 0 -24 9t-9 24v1368q0 15 9 24t24 9h561q208 0 301.5 -90.5t93.5 -288.5q0 -113 -35 -178t-125 -111v-18q98 -38 151.5 -110.5t53.5 -166.5v-92q0 -203 -103 -291t-333 -88h-565zM436 274h266q79 0 116.5 26.5t37.5 96.5v80q0 72 -38.5 103.5t-115.5 31.5h-266
v-338zM436 854h238q66 0 101.5 24.5t35.5 100.5v55q0 42 -9.5 68t-30.5 38t-42 15.5t-55 3.5h-238v-305z" />
    <glyph glyph-name="uni0413" unicode="&#x413;" horiz-adv-x="1030" 
d="M162 0q-15 0 -24 9t-9 24v1368q0 15 9 24t24 9h753q15 0 24 -9t9 -24v-209q0 -15 -9 -24t-24 -9h-479v-1126q0 -15 -9 -24t-24 -9h-241z" />
    <glyph glyph-name="uni0414" unicode="&#x414;" horiz-adv-x="1454" 
d="M348 0v-166q0 -15 -9 -24t-24 -9h-241q-15 0 -24 9t-9 24v410q0 30 31 30h51q68 0 112 94t44 257v778q0 31 30 31h948q31 0 31 -31v-1129h94q31 0 31 -30v-410q0 -15 -9 -24t-24 -9h-241q-15 0 -24 9t-9 24v166h-758zM506 274h475v885h-395v-534q0 -242 -80 -351z" />
    <glyph glyph-name="uni0415" unicode="&#x415;" horiz-adv-x="1095" 
d="M160 0q-31 0 -31 33v1368q0 33 31 33h825q31 0 31 -33v-209q0 -33 -31 -33h-549v-309h504q31 0 31 -33v-201q0 -32 -31 -32h-504v-310h561q33 0 33 -32v-209q0 -15 -9 -24t-24 -9h-837z" />
    <glyph glyph-name="uni0416" unicode="&#x416;" horiz-adv-x="2068" 
d="M102 1378q-18 22 -12.5 39t25.5 17h270q37 0 64 -35l434 -549v551q0 33 32 33h242q15 0 24 -9t9 -24v-549l432 547q27 35 64 35h270q20 0 25 -17t-13 -39l-465 -573l492 -750q8 -12 8 -33.5t-18 -21.5h-279q-40 0 -57 29l-344 532l-115 -141v-387q0 -15 -9 -24t-24 -9
h-242q-32 0 -32 33v383l-117 145l-344 -532q-17 -29 -57 -29h-279q-18 0 -18 21.5t8 33.5l491 750z" />
    <glyph glyph-name="uni0417" unicode="&#x417;" horiz-adv-x="1218" 
d="M543 -10q-234 0 -339.5 95.5t-105.5 291.5v43q0 35 33 35h234q32 0 32 -35q0 -90 37.5 -127t110.5 -37h145q61 0 96 35.5t35 97.5q0 55 -5 88t-22 64t-53.5 45t-95.5 14h-102q-37 0 -37 37v190q0 37 37 37h102q33 0 58 5.5t41.5 13t27.5 23t17 27t8.5 33.5t3 34t0.5 38v9
q0 61 -35.5 96t-97.5 35h-107q-73 0 -110 -36.5t-37 -127.5q0 -33 -33 -33h-234q-32 0 -32 33v43q0 197 105 292t339 95h125q113 0 196.5 -32t130.5 -89t69 -125.5t22 -150.5q0 -78 -14 -131.5t-44 -87.5t-68.5 -53t-96.5 -32v-22q62 -13 100.5 -30t73.5 -52.5t51 -96.5
t16 -153q0 -65 -12.5 -122t-42.5 -108.5t-76 -88.5t-118 -58.5t-164 -21.5h-164z" />
    <glyph glyph-name="uni0418" unicode="&#x418;" horiz-adv-x="1382" 
d="M162 0q-15 0 -24 9t-9 24v1368q0 15 9 24t24 9h241q15 0 24 -9t9 -24v-995h19l329 1005q6 23 37 23h402q32 0 32 -33v-1368q0 -33 -32 -33h-242q-15 0 -24 9t-9 24v995h-20l-328 -1005q-9 -23 -37 -23h-401z" />
    <glyph glyph-name="uni0419" unicode="&#x419;" horiz-adv-x="1382" 
d="M162 0q-15 0 -24 9t-9 24v1368q0 15 9 24t24 9h241q15 0 24 -9t9 -24v-995h19l329 1005q6 23 37 23h402q32 0 32 -33v-1368q0 -33 -32 -33h-242q-15 0 -24 9t-9 24v995h-20l-328 -1005q-9 -23 -37 -23h-401zM293 1806q0 37 33 37h168q18 0 25.5 -8t10.5 -27q7 -54 29 -83
t78 -29h49q56 0 79 29t30 83q3 35 34 35h168q33 0 33 -37q0 -156 -72 -230.5t-225 -74.5h-141q-154 0 -226.5 74.5t-72.5 230.5z" />
    <glyph glyph-name="uni041A" unicode="&#x41a;" horiz-adv-x="1316" 
d="M162 0q-15 0 -24 9t-9 24v1368q0 15 9 24t24 9h241q15 0 24 -9t9 -24v-549l432 547q27 35 64 35h270q20 0 25 -17t-13 -39l-464 -573l491 -750q8 -12 8 -33.5t-18 -21.5h-279q-40 0 -57 29l-344 532l-115 -141v-387q0 -15 -9 -24t-24 -9h-241z" />
    <glyph glyph-name="uni041B" unicode="&#x41b;" horiz-adv-x="1411" 
d="M98 -8q-37 0 -37 35v252q0 32 39 32q67 0 103.5 31.5t36.5 124.5v936q0 31 30 31h983q31 0 31 -31v-1370q0 -15 -9 -24t-24 -9h-241q-15 0 -24 9t-9 24v1126h-430v-817q0 -178 -91.5 -264t-252.5 -86h-105z" />
    <glyph glyph-name="uni041C" unicode="&#x41c;" horiz-adv-x="1640" 
d="M162 0q-15 0 -24 9t-9 24v1368q0 15 9 24t24 9h426q16 0 28 -8.5t15 -22.5l182 -1028h14l185 1028q1 14 14 22.5t29 8.5h426q32 0 32 -33v-1368q0 -33 -32 -33h-242q-15 0 -24 9t-9 24v995h-20l-170 -997q-6 -31 -39 -31h-311q-14 0 -26 8.5t-13 22.5l-172 997h-19v-995
q0 -15 -9 -24t-24 -9h-241z" />
    <glyph glyph-name="uni041D" unicode="&#x41d;" horiz-adv-x="1310" 
d="M905 0q-15 0 -24 9t-9 24v551h-434v-551q0 -33 -32 -33h-244q-15 0 -24 9t-9 24v1368q0 15 9 24t24 9h244q32 0 32 -33v-551h434v551q0 15 9 24t24 9h246q15 0 24 -9t9 -24v-1368q0 -15 -9 -24t-24 -9h-246z" />
    <glyph glyph-name="uni041E" unicode="&#x41e;" 
d="M547 -10q-217 0 -317.5 111.5t-100.5 312.5v606q0 201 100.5 312.5t317.5 111.5h250q217 0 317 -111.5t100 -312.5v-606q0 -201 -100 -312.5t-317 -111.5h-250zM436 422q0 -89 35 -123.5t102 -34.5h197q67 0 102 34.5t35 123.5v590q0 88 -35 122.5t-102 34.5h-197
q-67 0 -102 -34.5t-35 -122.5v-590z" />
    <glyph glyph-name="uni041F" unicode="&#x41f;" horiz-adv-x="1300" 
d="M162 0q-15 0 -24 9t-9 24v1370q0 31 31 31h983q31 0 31 -31v-1370q0 -15 -9 -24t-24 -9h-242q-15 0 -24 9t-9 24v1126h-430v-1126q0 -15 -9 -24t-24 -9h-241z" />
    <glyph glyph-name="uni0420" unicode="&#x420;" horiz-adv-x="1280" 
d="M162 0q-15 0 -24 9t-9 24v1368q0 15 9 24t24 9h588q110 0 192 -31t132.5 -88.5t75 -135t24.5 -173.5v-228q0 -96 -24.5 -173.5t-75 -135t-132.5 -88.5t-192 -31h-314v-317q0 -15 -9 -24t-24 -9h-241zM436 625h287q68 0 105.5 36t37.5 125v211q0 162 -143 162h-287v-534z
" />
    <glyph glyph-name="uni0421" unicode="&#x421;" horiz-adv-x="1316" 
d="M547 -10q-217 0 -317.5 111.5t-100.5 312.5v606q0 201 100.5 312.5t317.5 111.5h241q223 0 321.5 -109.5t98.5 -320.5v-13q0 -17 -9.5 -26.5t-24.5 -9.5h-236q-37 0 -37 36q0 96 -38 132t-105 36h-185q-67 0 -102 -34.5t-35 -122.5v-590q0 -89 35 -123.5t102 -34.5h185
q67 0 105 35.5t38 130.5q0 37 37 37h236q15 0 24.5 -10t9.5 -27v-12q0 -209 -98.5 -318.5t-321.5 -109.5h-241z" />
    <glyph glyph-name="uni0422" unicode="&#x422;" horiz-adv-x="1132" 
d="M446 0q-32 0 -32 33v1126h-295q-31 0 -31 33v209q0 33 31 33h895q15 0 24 -9t9 -24v-209q0 -15 -9 -24t-24 -9h-293v-1126q0 -15 -9 -24t-24 -9h-242z" />
    <glyph glyph-name="uni0423" unicode="&#x423;" horiz-adv-x="1265" 
d="M264 0q-20 0 -27 10.5t1 30.5l235 500l-401 854q-9 20 -1.5 29.5t27.5 9.5h244q32 0 45 -31l244 -526l248 526q13 31 45 31h243q20 0 28 -9.5t-1 -29.5l-639 -1362q-13 -33 -47 -33h-244z" />
    <glyph glyph-name="uni0424" unicode="&#x424;" horiz-adv-x="1505" 
d="M547 195q-217 0 -317.5 111.5t-100.5 311.5v197q0 201 100.5 312.5t317.5 111.5h55v162q0 15 9 24t24 9h242q32 0 32 -33v-162h52q217 0 317 -111.5t100 -312.5v-197q0 -423 -417 -423h-52v-162q0 -33 -32 -33h-242q-15 0 -24 9t-9 24v162h-55zM436 627q0 -89 35 -123.5
t102 -34.5h29v496h-29q-67 0 -102 -35t-35 -123v-180zM909 469h25q67 0 102 34.5t35 123.5v180q0 88 -35 123t-102 35h-25v-496z" />
    <glyph glyph-name="uni0425" unicode="&#x425;" horiz-adv-x="1241" 
d="M121 0q-19 0 -26 10.5t1 30.5l367 676l-365 676q-9 19 0 30t29 11h246q29 0 43 -29l196 -389h21l196 389q15 29 43 29h250q19 0 26 -10.5t-1 -30.5l-365 -676l367 -676q8 -20 1 -30.5t-26 -10.5h-247q-29 0 -41 29l-203 389h-21l-202 -389q-10 -17 -17.5 -23t-23.5 -6
h-248z" />
    <glyph glyph-name="uni0426" unicode="&#x426;" horiz-adv-x="1349" 
d="M160 0q-31 0 -31 31v1370q0 15 9 24t24 9h241q15 0 24 -9t9 -24v-1127h430v1127q0 15 9 24t24 9h242q15 0 24 -9t9 -24v-1127h104q31 0 31 -30v-410q0 -15 -9 -24t-24 -9h-242q-15 0 -24 9t-9 24v166h-841z" />
    <glyph glyph-name="uni0427" unicode="&#x427;" horiz-adv-x="1290" 
d="M889 0q-15 0 -24 9t-9 24v428q-16 -23 -43.5 -39.5t-48.5 -23.5t-63.5 -11t-56 -4h-58.5h-97q-201 0 -294 92t-93 287v639q0 15 9 24t24 9h242q15 0 24 -9t9 -24v-633q0 -119 94 -119h278q44 0 59 27.5t15 91.5v633q0 15 9 24t24 9h241q15 0 24 -9t9 -24v-1368
q0 -15 -9 -24t-24 -9h-241z" />
    <glyph glyph-name="uni0428" unicode="&#x428;" horiz-adv-x="1935" 
d="M160 0q-31 0 -31 31v1370q0 15 9 24t24 9h241q15 0 24 -9t9 -24v-1127h379v1127q0 15 9 24t24 9h242q32 0 32 -33v-1127h379v1127q0 15 9 24t24 9h242q32 0 32 -33v-1370q0 -31 -30 -31h-1618z" />
    <glyph glyph-name="uni0429" unicode="&#x429;" horiz-adv-x="1984" 
d="M160 0q-31 0 -31 31v1370q0 15 9 24t24 9h241q15 0 24 -9t9 -24v-1127h379v1127q0 15 9 24t24 9h242q32 0 32 -33v-1127h379v1127q0 15 9 24t24 9h242q32 0 32 -33v-1127h105q31 0 31 -30v-410q0 -15 -9 -24t-24 -9h-242q-15 0 -24 9t-9 24v166h-1476z" />
    <glyph glyph-name="uni042A" unicode="&#x42a;" horiz-adv-x="1449" 
d="M332 0q-15 0 -24 9t-9 24v1126h-180q-31 0 -31 33v209q0 33 31 33h454q15 0 24 -9t9 -24v-316h314q215 0 319 -115.5t104 -314.5v-225q0 -199 -104 -314.5t-319 -115.5h-588zM606 274h287q143 0 143 164v209q0 89 -38 126.5t-105 37.5h-287v-537z" />
    <glyph glyph-name="uni042B" unicode="&#x42b;" horiz-adv-x="1843" 
d="M162 0q-15 0 -24 9t-9 24v1368q0 15 9 24t24 9h241q15 0 24 -9t9 -24v-316h314q215 0 319.5 -115.5t104.5 -314.5v-225q0 -199 -104.5 -314.5t-319.5 -115.5h-588zM436 274h287q143 0 143 164v209q0 89 -38 126.5t-105 37.5h-287v-537zM1409 33v1368q0 15 9 24t24 9h241
q15 0 24 -9t9 -24v-1368q0 -15 -9 -24t-24 -9h-241q-15 0 -24 9t-9 24z" />
    <glyph glyph-name="uni042C" unicode="&#x42c;" horiz-adv-x="1280" 
d="M162 0q-15 0 -24 9t-9 24v1368q0 15 9 24t24 9h241q15 0 24 -9t9 -24v-316h314q215 0 319.5 -115.5t104.5 -314.5v-225q0 -199 -104.5 -314.5t-319.5 -115.5h-588zM436 274h287q143 0 143 164v209q0 89 -38 126.5t-105 37.5h-287v-537z" />
    <glyph glyph-name="uni042D" unicode="&#x42d;" horiz-adv-x="1316" 
d="M549 -10q-223 0 -321.5 110.5t-98.5 319.5v10q0 17 10 27t25 10h235q37 0 37 -37q0 -95 38.5 -130.5t105.5 -35.5h184q67 0 102 34.5t35 123.5v158h-256q-33 0 -33 32v209q0 15 9 24t24 9h256v158q0 88 -35 122.5t-102 34.5h-184q-67 0 -105.5 -36t-38.5 -132
q0 -36 -37 -36h-235q-15 0 -25 9.5t-10 26.5v11q0 211 98.5 321.5t321.5 110.5h242q217 0 317 -111.5t100 -312.5v-606q0 -201 -100 -312.5t-317 -111.5h-242z" />
    <glyph glyph-name="uni042E" unicode="&#x42e;" horiz-adv-x="1925" 
d="M162 0q-15 0 -24 9t-9 24v1368q0 15 9 24t24 9h241q15 0 24 -9t9 -24v-549h277v168q0 201 100 312.5t317 111.5h250q217 0 317.5 -111.5t100.5 -312.5v-606q0 -201 -100.5 -312.5t-317.5 -111.5h-250q-217 0 -317 111.5t-100 312.5v172h-277v-553q0 -15 -9 -24t-24 -9
h-241zM1020 422q0 -89 35 -123.5t102 -34.5h197q67 0 102 34.5t35 123.5v590q0 88 -35 122.5t-102 34.5h-197q-67 0 -102 -34.5t-35 -122.5v-590z" />
    <glyph glyph-name="uni042F" unicode="&#x42f;" horiz-adv-x="1286" 
d="M883 0q-15 0 -24 9t-9 24v317h-166q-69 0 -123 12l-127 -327q-12 -35 -57 -35h-219q-27 0 -37 14.5t0 38.5l143 367q-151 110 -151 358v228q0 96 24.5 173.5t75 135t132.5 88.5t192 31h587q15 0 24 -9t9 -24v-1368q0 -15 -9 -24t-24 -9h-241zM420 786q0 -89 37.5 -125
t105.5 -36h287v534h-287q-143 0 -143 -162v-211z" />
    <glyph glyph-name="uni0430" unicode="&#x430;" horiz-adv-x="1091" 
d="M707 0q-33 0 -33 35v86h-25q-54 -64 -110.5 -97.5t-143.5 -33.5h-18q-142 0 -215.5 79.5t-73.5 221.5v71q0 135 77 198t245 63h264v45q0 56 -44 80t-155 24q-123 0 -209 -22q-35 -8 -43 26l-30 164q-7 29 24 43q133 49 324 49h57q375 0 375 -350v-647q0 -35 -33 -35h-233
zM381 303q0 -57 74 -57h100q119 0 119 110v58h-221q-36 0 -54 -14t-18 -56v-41z" />
    <glyph glyph-name="uni0431" unicode="&#x431;" horiz-adv-x="1110" 
d="M662 -10q-78 0 -128 24.5t-90 69.5h-26v-49q0 -35 -33 -35h-233q-33 0 -33 35v1030q0 185 57.5 257.5t196.5 72.5q23 0 82.5 -5.5t85.5 -5.5q111 0 137 39q7 11 41 11h235q22 0 28.5 -11t6.5 -37q0 -53 -4 -88.5t-18.5 -73.5t-41 -60.5t-72.5 -37t-112 -14.5
q-14 0 -90.5 3t-140.5 3q-92 0 -92 -88v-92h26q40 45 90 69.5t128 24.5h14q338 0 338 -346v-350q0 -168 -83.5 -257t-254.5 -89h-14zM418 365q0 -52 28 -79.5t70 -27.5h102q39 0 67 27.5t28 76.5v297q0 50 -28 78.5t-67 28.5h-102q-42 0 -70 -28t-28 -81v-292z" />
    <glyph glyph-name="uni0432" unicode="&#x432;" horiz-adv-x="1026" 
d="M150 0q-31 0 -31 31v962q0 31 31 31h446q161 0 236 -65.5t75 -223.5q0 -36 -4 -61t-17 -56t-44 -54t-78 -38v-16q94 -31 130 -85.5t36 -143.5q0 -281 -334 -281h-446zM418 262h147q29 0 47.5 20t18.5 56q0 44 -19.5 58t-54.5 14h-139v-148zM418 639h133h7h8.5t8 0.5
t8.5 2.5l7.5 5t7 8t5.5 12t4 16.5t1 21.5q0 57 -41 57h-149v-123z" />
    <glyph glyph-name="uni0433" unicode="&#x433;" horiz-adv-x="911" 
d="M152 0q-33 0 -33 35v956q0 33 33 33h641q36 0 36 -37v-190q0 -37 -36 -37h-375v-725q0 -35 -33 -35h-233z" />
    <glyph glyph-name="uni0434" unicode="&#x434;" horiz-adv-x="1378" 
d="M352 0v-127q0 -35 -35 -35h-231q-35 0 -35 35v363q0 30 31 30h31q30 0 51.5 4.5t49 25t44.5 57.5t29 108.5t12 171.5v360q0 31 31 31h798q31 0 31 -31v-727h137q31 0 31 -30v-363q0 -35 -35 -35h-231q-35 0 -35 35v127h-674zM528 266h330v494h-258v-193q0 -183 -72 -301z
" />
    <glyph glyph-name="uni0435" unicode="&#x435;" horiz-adv-x="1064" 
d="M537 -10q-235 0 -337 95t-102 265v322q0 360 381 360h109q197 0 289 -95t92 -267v-213q0 -66 -70 -66h-502v-41q0 -49 38 -79.5t112 -30.5h20q96 0 147 10t99 33q30 13 47 -15l68 -104q19 -25 4 -43q-60 -59 -159.5 -95t-203.5 -36h-32zM397 606h271v62q0 52 -27 75
t-68 23h-79q-97 0 -97 -96v-64z" />
    <glyph glyph-name="uni0436" unicode="&#x436;" horiz-adv-x="1722" 
d="M70 0q-22 0 -27 19t8 32l426 459l-405 457q-22 25 -16.5 41t28.5 16h283q28 0 59 -31l283 -334v332q0 33 34 33h232q35 0 35 -33v-332l282 334q31 31 60 31h282q23 0 29 -16t-16 -41l-406 -457l426 -459q13 -13 8.5 -32t-26.5 -19h-287q-20 0 -33.5 7.5t-34.5 31.5
l-284 326v-330q0 -35 -35 -35h-232q-34 0 -34 35v330l-285 -326q-21 -24 -34.5 -31.5t-33.5 -7.5h-286z" />
    <glyph glyph-name="uni0437" unicode="&#x437;" horiz-adv-x="1013" 
d="M393 -12q-147 0 -224 71t-77 228q0 26 23 26h262q22 0 22 -26q0 -19 16.5 -26t55.5 -7h59q18 0 26.5 1t19.5 6.5t15.5 18.5t4.5 35q0 39 -11 57.5t-40 18.5h-137q-23 0 -23 23v186q0 23 23 23h137q34 0 47.5 13t13.5 60q0 10 -1.5 18.5t-3 15t-6 11.5t-6.5 8t-8.5 5
t-9 3.5t-10.5 2t-10 0.5h-11h-10h-59q-42 0 -57 -11t-15 -36q0 -27 -22 -27h-262q-23 0 -23 27q0 313 301 313h207q140 0 227.5 -82t87.5 -205q0 -45 -4.5 -75t-18 -60t-41.5 -50.5t-73 -33.5v-22q44 -13 74 -36.5t44.5 -56t20 -65t5.5 -74.5q0 -123 -90 -200.5t-232 -77.5
h-207z" />
    <glyph glyph-name="uni0438" unicode="&#x438;" horiz-adv-x="1249" 
d="M152 0q-33 0 -33 35v956q0 33 33 33h233q33 0 33 -33v-651h20l264 661q12 23 37 23h359q35 0 35 -33v-956q0 -35 -35 -35h-232q-35 0 -35 35v651h-20l-262 -663q-11 -23 -37 -23h-360z" />
    <glyph glyph-name="uni0439" unicode="&#x439;" horiz-adv-x="1249" 
d="M152 0q-33 0 -33 35v956q0 33 33 33h233q33 0 33 -33v-651h20l264 661q12 23 37 23h359q35 0 35 -33v-956q0 -35 -35 -35h-232q-35 0 -35 35v651h-20l-262 -663q-11 -23 -37 -23h-360zM276 1397q0 37 33 37h168q18 0 26 -8.5t11 -26.5q7 -55 29 -84t78 -29h49
q56 0 78.5 29.5t29.5 83.5q3 35 35 35h168q33 0 33 -37q0 -156 -72 -230.5t-225 -74.5h-142q-154 0 -226.5 74.5t-72.5 230.5z" />
    <glyph glyph-name="uni043A" unicode="&#x43a;" horiz-adv-x="1132" 
d="M772 0q-21 0 -35 7.5t-35 31.5l-284 328v-332q0 -35 -33 -35h-233q-33 0 -33 35v956q0 33 33 33h233q33 0 33 -33v-334l284 336q31 31 60 31h280q25 0 30 -16t-17 -41l-406 -457l428 -459q12 -13 7 -32t-25 -19h-287z" />
    <glyph glyph-name="uni043B" unicode="&#x43b;" horiz-adv-x="1222" 
d="M150 -20q-84 0 -117 19.5t-33 63.5v119q0 31 15 45.5t48 14.5q57 0 84 24t27 80v645q0 33 33 33h864q35 0 35 -33v-956q0 -35 -35 -35h-231q-35 0 -35 35v725h-332v-402q0 -52 -2 -88.5t-9.5 -79t-21 -71t-37 -57t-57.5 -45t-83.5 -27t-112.5 -10.5z" />
    <glyph glyph-name="uni043C" unicode="&#x43c;" horiz-adv-x="1366" 
d="M152 0q-33 0 -33 35v956q0 33 33 33h292q27 0 37 -20l203 -488l201 488q10 20 37 20h292q35 0 35 -33v-956q0 -35 -35 -35h-231q-35 0 -35 35v508l-157 -434q-5 -13 -12 -18t-23 -5h-146q-26 0 -32 23l-160 434v-508q0 -35 -33 -35h-233z" />
    <glyph glyph-name="uni043D" unicode="&#x43d;" horiz-adv-x="1167" 
d="M784 0q-34 0 -34 35v344h-332v-344q0 -35 -33 -35h-233q-33 0 -33 35v956q0 33 33 33h233q33 0 33 -33v-346h332v346q0 33 34 33h232q35 0 35 -33v-956q0 -35 -35 -35h-232z" />
    <glyph glyph-name="uni043E" unicode="&#x43e;" horiz-adv-x="1089" 
d="M477 -10q-196 0 -287.5 95.5t-91.5 266.5v318q0 362 379 362h135q197 0 289 -95t92 -267v-318q0 -171 -92 -266.5t-289 -95.5h-135zM397 358q0 -52 27.5 -76t69.5 -24h104q42 0 68 24t26 76v308q0 51 -26 75.5t-68 24.5h-104q-42 0 -69.5 -24.5t-27.5 -75.5v-308z" />
    <glyph glyph-name="uni043F" unicode="&#x43f;" horiz-adv-x="1167" 
d="M145 0q-26 0 -26 35v956q0 33 33 33h864q35 0 35 -33v-956q0 -35 -35 -35h-232q-34 0 -34 35v725h-332v-725q0 -35 -33 -35h-240z" />
    <glyph glyph-name="uni0440" unicode="&#x440;" horiz-adv-x="1110" 
d="M152 -362q-33 0 -33 32v1321q0 33 33 33h233q33 0 33 -33v-53h26q40 45 90 69.5t128 24.5h14q338 0 338 -346v-350q0 -168 -83.5 -257t-254.5 -89h-14q-78 0 -128 24.5t-90 69.5h-26v-414q0 -32 -33 -32h-233zM418 365q0 -52 28 -79.5t70 -27.5h102q39 0 67 27.5t28 76.5
v297q0 50 -28 78.5t-67 28.5h-102q-42 0 -70 -28t-28 -81v-292z" />
    <glyph glyph-name="uni0441" unicode="&#x441;" horiz-adv-x="1054" 
d="M528 -10q-430 0 -430 360v322q0 360 379 360h121q181 0 275 -93.5t94 -256.5v-16q0 -33 -33 -33h-219q-33 0 -33 33v16q0 42 -27.5 63t-72.5 21h-88q-43 0 -70 -23.5t-27 -74.5v-285q0 -68 34 -100.5t106 -32.5h16q76 0 112.5 12.5t61.5 52.5q17 28 47 15l160 -74
q35 -15 22 -45q-28 -65 -73 -110.5t-101.5 -68.5t-112.5 -32.5t-122 -9.5h-19z" />
    <glyph glyph-name="uni0442" unicode="&#x442;" horiz-adv-x="960" 
d="M365 0q-35 0 -35 35v708h-213q-35 0 -35 35v213q0 33 35 33h729q33 0 33 -33v-213q0 -35 -33 -35h-215v-708q0 -35 -35 -35h-231z" />
    <glyph glyph-name="uni0443" unicode="&#x443;" horiz-adv-x="1173" 
d="M350 -362q-39 0 -26 36l114 312l-368 1001q-7 17 2 27t26 10h232q27 0 39 -35l211 -624h18l209 624q12 35 39 35h231q16 0 25.5 -9.5t3.5 -27.5l-481 -1313q-8 -21 -16.5 -28.5t-26.5 -7.5h-232z" />
    <glyph glyph-name="uni0444" unicode="&#x444;" horiz-adv-x="1687" 
d="M436 -10q-338 0 -338 346v350q0 346 338 346h13q80 0 129.5 -24t89.5 -70h24v463q0 33 35 33h231q35 0 35 -33v-395q2 -4 2 -15v-53h27q40 45 89.5 69.5t127.5 24.5h14q338 0 338 -346v-350q0 -168 -83.5 -257t-254.5 -89h-14q-78 0 -127.5 24.5t-89.5 69.5h-27v-414
q0 -32 -32 -32h-234q-33 0 -33 32v346q-4 8 -4 19v49h-24q-40 -46 -89.5 -70t-129.5 -24h-13zM397 362q0 -48 29 -76t68 -28h102q42 0 69 27.5t27 79.5v292q0 53 -27 81t-69 28h-102q-39 0 -68 -28.5t-29 -78.5v-297zM995 365q0 -51 28.5 -79t70.5 -28h102q39 0 66.5 27.5
t27.5 76.5v297q0 50 -27.5 78.5t-66.5 28.5h-102q-42 0 -70.5 -28t-28.5 -81v-292z" />
    <glyph glyph-name="uni0445" unicode="&#x445;" horiz-adv-x="1024" 
d="M100 0q-20 0 -26.5 13t4.5 30l254 467l-262 471q-9 17 -3 30t25 13h238q32 0 53 -41l121 -231h16l121 231q21 41 53 41h238q19 0 25 -13t-3 -30l-262 -471l254 -467q11 -17 4.5 -30t-26.5 -13h-242q-30 0 -51 41l-111 221h-16l-115 -221q-19 -41 -49 -41h-240z" />
    <glyph glyph-name="uni0446" unicode="&#x446;" horiz-adv-x="1269" 
d="M152 0q-33 0 -33 35v956q0 18 5.5 25.5t20.5 7.5h240q33 0 33 -33v-725h332v725q0 33 34 33h232q35 0 35 -33v-725h137q31 0 31 -30v-363q0 -35 -35 -35h-232q-34 0 -34 35v127h-766z" />
    <glyph glyph-name="uni0447" unicode="&#x447;" horiz-adv-x="1153" 
d="M768 0q-33 0 -33 35v268q-54 -86 -157 -86h-175q-138 0 -211 90.5t-73 243.5v440q0 33 33 33h233q33 0 33 -33v-377q0 -122 86 -122h143q48 0 68 31t20 91v377q0 33 33 33h233q33 0 33 -33v-956q0 -35 -33 -35h-233z" />
    <glyph glyph-name="uni0448" unicode="&#x448;" horiz-adv-x="1603" 
d="M152 0q-33 0 -33 35v956q0 18 5.5 25.5t20.5 7.5h240q33 0 33 -33v-725h233v725q0 18 6 25.5t23 7.5h238q34 0 34 -33v-725h234v725q0 33 33 33h233q33 0 33 -33v-956q0 -35 -33 -35h-1300z" />
    <glyph glyph-name="uni0449" unicode="&#x449;" horiz-adv-x="1699" 
d="M1382 -162q-34 0 -34 35v127h-1196q-33 0 -33 35v956q0 18 5.5 25.5t20.5 7.5h240q33 0 33 -33v-725h233v725q0 18 6 25.5t23 7.5h238q34 0 34 -33v-725h234v725q0 33 33 33h233q33 0 33 -33v-725h133q31 0 31 -30v-363q0 -35 -35 -35h-232z" />
    <glyph glyph-name="uni044A" unicode="&#x44a;" horiz-adv-x="1163" 
d="M213 0q-33 0 -33 35v725h-92q-37 0 -37 37v190q0 37 37 37h358q33 0 33 -33v-260h242q185 0 264.5 -82t79.5 -282q0 -202 -79.5 -284.5t-264.5 -82.5h-508zM479 266h185q19 0 33.5 3t32 12t27 31t9.5 55q0 100 -102 100h-185v-201z" />
    <glyph glyph-name="uni044B" unicode="&#x44b;" horiz-adv-x="1484" 
d="M152 0q-33 0 -33 35v956q0 33 33 33h233q33 0 33 -33v-260h241q185 0 265 -82t80 -282q0 -202 -80 -284.5t-265 -82.5h-507zM418 266h184q19 0 34 3t32.5 12t27 31t9.5 55q0 100 -103 100h-184v-201zM1067 35v956q0 33 35 33h231q35 0 35 -33v-956q0 -35 -35 -35h-231
q-35 0 -35 35z" />
    <glyph glyph-name="uni044C" unicode="&#x44c;" horiz-adv-x="1101" 
d="M152 0q-33 0 -33 35v956q0 33 33 33h233q33 0 33 -33v-260h241q185 0 265 -82t80 -282q0 -202 -80 -284.5t-265 -82.5h-507zM418 266h184q19 0 34 3t32.5 12t27 31t9.5 55q0 100 -103 100h-184v-201z" />
    <glyph glyph-name="uni044D" unicode="&#x44d;" horiz-adv-x="1054" 
d="M487 369q-36 0 -36 37v190q0 37 36 37h170v35q0 51 -26.5 74.5t-69.5 23.5h-88q-45 0 -72.5 -21t-27.5 -63v-16q0 -33 -33 -33h-219q-33 0 -33 33v16q0 163 94 256.5t275 93.5h121q378 0 378 -360v-322q0 -360 -430 -360h-18q-315 0 -410 221q-13 29 23 45l160 74
q30 13 47 -15q25 -40 61.5 -52.5t112.5 -12.5h16q133 0 139 119h-170z" />
    <glyph glyph-name="uni044E" unicode="&#x44e;" horiz-adv-x="1613" 
d="M154 2q-35 0 -35 35v956q0 33 35 33h231q35 0 35 -33v-368h203v45q0 362 378 362h136q197 0 289 -95t92 -267v-318q0 -171 -92 -266.5t-289 -95.5h-136q-196 0 -287 95.5t-91 266.5v6h-203v-321q0 -35 -35 -35h-231zM922 358q0 -52 27 -76t69 -24h104q42 0 68.5 24
t26.5 76v308q0 51 -26.5 75.5t-68.5 24.5h-104q-42 0 -69 -24.5t-27 -75.5v-308z" />
    <glyph glyph-name="uni044F" unicode="&#x44f;" horiz-adv-x="1110" 
d="M131 0q-33 0 -33 31v162q0 103 38 163t130 95v14q-92 41 -126 97t-34 153q0 134 81 221.5t235 87.5h536q35 0 35 -33v-956q0 -35 -35 -35h-231q-35 0 -35 35v266h-200q-28 0 -46.5 -8t-28 -17.5t-14.5 -31t-5.5 -35.5t-0.5 -44v-11v-123q0 -31 -32 -31h-234zM397 651
q0 -86 90 -86h205v185h-205q-47 0 -68.5 -23t-21.5 -76z" />
    <glyph glyph-name="uni0451" unicode="&#x451;" horiz-adv-x="1064" 
d="M537 -10q-235 0 -337 95t-102 265v322q0 360 381 360h109q197 0 289 -95t92 -267v-213q0 -66 -70 -66h-502v-41q0 -49 38 -79.5t112 -30.5h20q96 0 147 10t99 33q30 13 47 -15l68 -104q19 -25 4 -43q-60 -59 -159.5 -95t-203.5 -36h-32zM104 1161v240q0 15 9 24t24 9h240
q15 0 24 -9t9 -24v-240q0 -15 -9 -24t-24 -9h-240q-15 0 -24 9t-9 24zM397 606h271v62q0 52 -27 75t-68 23h-79q-97 0 -97 -96v-64zM670 1161v240q0 33 32 33h240q15 0 24 -9t9 -24v-240q0 -15 -9 -24t-24 -9h-240q-32 0 -32 33z" />
    <glyph glyph-name="uni0453" unicode="&#x453;" horiz-adv-x="911" 
d="M152 0q-33 0 -33 35v956q0 33 33 33h641q36 0 36 -37v-190q0 -37 -36 -37h-375v-725q0 -35 -33 -35h-233zM369 1161l90 236q18 37 43 37h303q19 0 25.5 -10t-5.5 -27l-184 -236q-29 -37 -51 -37h-201q-35 0 -20 37z" />
    <glyph glyph-name="uni0454" unicode="&#x454;" horiz-adv-x="1054" 
d="M528 -10q-430 0 -430 360v322q0 360 379 360h121q181 0 275 -93.5t94 -256.5v-16q0 -33 -33 -33h-219q-33 0 -33 33v16q0 42 -27.5 63t-72.5 21h-88q-43 0 -70 -23.5t-27 -74.5v-35h170q37 0 37 -37v-190q0 -37 -37 -37h-170q6 -119 140 -119h16q76 0 112.5 12.5
t61.5 52.5q17 28 47 15l160 -74q35 -15 22 -45q-28 -65 -73 -110.5t-101.5 -68.5t-112.5 -32.5t-122 -9.5h-19z" />
    <glyph glyph-name="uni0456" unicode="&#x456;" horiz-adv-x="534" 
d="M152 1151q-33 0 -33 33v217q0 33 33 33h231q33 0 33 -33v-217q0 -33 -33 -33h-231zM117 35v956q0 33 35 33h231q35 0 35 -33v-956q0 -35 -35 -35h-231q-35 0 -35 35z" />
    <glyph glyph-name="uni0457" unicode="&#x457;" horiz-adv-x="526" 
d="M147 0q-34 0 -34 35v956q0 33 34 33h232q35 0 35 -33v-956q0 -35 -35 -35h-232zM-178 1161v240q0 15 9 24t24 9h239q15 0 24 -9t9 -24v-240q0 -15 -9 -24t-24 -9h-239q-15 0 -24 9t-9 24zM387 1161v240q0 15 9 24t24 9h239q15 0 24 -9t9 -24v-240q0 -15 -9 -24t-24 -9
h-239q-15 0 -24 9t-9 24z" />
    <glyph glyph-name="uni0458" unicode="&#x458;" horiz-adv-x="555" 
d="M174 1151q-35 0 -35 33v217q0 33 35 33h229q35 0 35 -33v-217q0 -33 -35 -33h-229zM-37 -305v119q0 31 15 45t51 14q57 0 83.5 24t26.5 80v1014q0 33 33 33h234q32 0 32 -33v-1001q0 -52 -2 -88.5t-9.5 -79.5t-21 -71.5t-37 -57t-57.5 -45t-83.5 -27t-112.5 -10.5
q-86 0 -119 19.5t-33 64.5z" />
    <glyph glyph-name="uni045C" unicode="&#x45c;" horiz-adv-x="1132" 
d="M772 0q-21 0 -35 7.5t-35 31.5l-284 328v-332q0 -35 -33 -35h-233q-33 0 -33 35v956q0 33 33 33h233q33 0 33 -33v-334l284 336q31 31 60 31h280q25 0 30 -16t-17 -41l-406 -457l428 -459q12 -13 7 -32t-25 -19h-287zM483 1161l90 236q18 37 43 37h304q19 0 25.5 -10
t-5.5 -27l-184 -236q-29 -37 -51 -37h-201q-36 0 -21 37z" />
    <glyph glyph-name="uni045D" unicode="&#x45d;" horiz-adv-x="1249" 
d="M152 0q-33 0 -33 35v956q0 33 33 33h233q33 0 33 -33v-651h20l264 661q12 23 37 23h359q35 0 35 -33v-956q0 -35 -35 -35h-232q-35 0 -35 35v651h-20l-262 -663q-11 -23 -37 -23h-360zM311 1397q-12 17 -4 27t27 10h303q23 0 41 -37l90 -236q15 -37 -20 -37h-201
q-22 0 -51 37z" />
    <glyph glyph-name="uni045E" unicode="&#x45e;" horiz-adv-x="1173" 
d="M350 -362q-39 0 -26 36l114 312l-368 1001q-7 17 2 27t26 10h232q27 0 39 -35l211 -624h18l209 624q12 35 39 35h231q16 0 25.5 -9.5t3.5 -27.5l-481 -1313q-8 -21 -16.5 -28.5t-26.5 -7.5h-232zM219 1397q0 37 33 37h168q18 0 26 -8.5t11 -26.5q7 -55 28.5 -84t77.5 -29
h49q56 0 79 29.5t30 83.5q3 35 35 35h168q32 0 32 -37q0 -156 -72 -230.5t-225 -74.5h-141q-154 0 -226.5 74.5t-72.5 230.5z" />
    <glyph glyph-name="uni0490" unicode="&#x490;" horiz-adv-x="1030" 
d="M641 1544q0 15 9 24t24 9h241q15 0 24 -9t9 -24v-352q0 -15 -9 -24t-24 -9h-479v-1126q0 -15 -9 -24t-24 -9h-241q-15 0 -24 9t-9 24v1368q0 15 9 24t24 9h479v110z" />
    <glyph glyph-name="uni0491" unicode="&#x491;" horiz-adv-x="911" 
d="M528 1102q0 33 35 33h232q34 0 34 -33v-305q0 -37 -36 -37h-375v-725q0 -35 -33 -35h-233q-33 0 -33 35v956q0 33 33 33h376v78z" />
    <glyph glyph-name="uni04C0" unicode="&#x4c0;" horiz-adv-x="563" 
d="M162 0q-15 0 -24 9t-9 24v1368q0 15 9 24t24 9h241q15 0 24 -9t9 -24v-1368q0 -15 -9 -24t-24 -9h-241z" />
    <glyph glyph-name="uni04E2" unicode="&#x4e2;" horiz-adv-x="1382" 
d="M162 0q-15 0 -24 9t-9 24v1368q0 15 9 24t24 9h241q15 0 24 -9t9 -24v-995h19l329 1005q6 23 37 23h402q32 0 32 -33v-1368q0 -33 -32 -33h-242q-15 0 -24 9t-9 24v995h-20l-328 -1005q-9 -23 -37 -23h-401zM299 1608v204q0 31 33 31h661q31 0 31 -31v-204q0 -31 -31 -31
h-661q-33 0 -33 31z" />
    <glyph glyph-name="uni04E3" unicode="&#x4e3;" horiz-adv-x="1249" 
d="M152 0q-33 0 -33 35v956q0 33 33 33h233q33 0 33 -33v-651h20l264 661q12 23 37 23h359q35 0 35 -33v-956q0 -35 -35 -35h-232q-35 0 -35 35v651h-20l-262 -663q-11 -23 -37 -23h-360zM283 1198v205q0 31 32 31h662q31 0 31 -31v-205q0 -31 -31 -31h-662q-32 0 -32 31z
" />
    <glyph glyph-name="uni04E8" unicode="&#x4e8;" 
d="M547 -10q-217 0 -317.5 111.5t-100.5 312.5v606q0 201 100.5 312.5t317.5 111.5h250q217 0 317 -111.5t100 -312.5v-606q0 -201 -100 -312.5t-317 -111.5h-250zM436 422q0 -89 35 -123.5t102 -34.5h197q67 0 102 34.5t35 123.5v164h-471v-164zM436 852h471v160
q0 88 -35 122.5t-102 34.5h-197q-67 0 -102 -34.5t-35 -122.5v-160z" />
    <glyph glyph-name="uni04E9" unicode="&#x4e9;" horiz-adv-x="1089" 
d="M612 1032q197 0 289 -95.5t92 -266.5v-318q0 -172 -92 -267t-289 -95h-135q-379 0 -379 362v318q0 171 91.5 266.5t287.5 95.5h135zM397 356q0 -51 27.5 -75.5t69.5 -24.5h104q42 0 68 24.5t26 75.5v21h-295v-21zM397 643h295v21q0 52 -26 76t-68 24h-104
q-42 0 -69.5 -24t-27.5 -76v-21z" />
    <glyph glyph-name="uni04EC" unicode="&#x4ec;" horiz-adv-x="1316" 
d="M625 580q-33 0 -33 32v209q0 15 9 24t24 9h256v158q0 88 -35.5 122.5t-102.5 34.5h-184q-67 0 -105 -36t-38 -132q0 -36 -37 -36h-236q-15 0 -24.5 9.5t-9.5 26.5v13q0 211 98 320.5t321 109.5h242q217 0 317.5 -111.5t100.5 -312.5v-606q0 -201 -100.5 -312.5
t-317.5 -111.5h-242q-223 0 -321 109.5t-98 318.5v12q0 17 9.5 27t24.5 10h236q37 0 37 -37q0 -95 38 -130.5t105 -35.5h184q68 0 103 34.5t35 123.5v158h-256zM219 1571v239q0 15 9 24t24 9h240q32 0 32 -33v-239q0 -33 -32 -33h-240q-15 0 -24 9t-9 24zM784 1571v239
q0 15 9 24t24 9h240q15 0 24 -9t9 -24v-239q0 -15 -9 -24t-24 -9h-240q-15 0 -24 9t-9 24z" />
    <glyph glyph-name="uni04ED" unicode="&#x4ed;" horiz-adv-x="1054" 
d="M487 369q-36 0 -36 37v190q0 37 36 37h170v35q0 51 -26.5 74.5t-69.5 23.5h-88q-45 0 -72.5 -21t-27.5 -63v-16q0 -33 -33 -33h-219q-33 0 -33 33v16q0 163 94 256.5t275 93.5h121q378 0 378 -360v-322q0 -360 -430 -360h-18q-315 0 -410 221q-13 29 23 45l160 74
q30 13 47 -15q25 -40 61.5 -52.5t112.5 -12.5h16q133 0 139 119h-170zM84 1161v240q0 15 9 24t24 9h239q15 0 24 -9t9 -24v-240q0 -15 -9 -24t-24 -9h-239q-15 0 -24 9t-9 24zM649 1161v240q0 15 9 24t24 9h240q32 0 32 -33v-240q0 -33 -32 -33h-240q-15 0 -24 9t-9 24z" />
    <glyph glyph-name="uni04EE" unicode="&#x4ee;" horiz-adv-x="1265" 
d="M264 0q-20 0 -27 10.5t1 30.5l235 500l-401 854q-9 20 -1.5 29.5t27.5 9.5h244q32 0 45 -31l244 -526l248 526q13 31 45 31h243q20 0 28 -9.5t-1 -29.5l-639 -1362q-13 -33 -47 -33h-244zM293 1608v204q0 31 33 31h661q31 0 31 -31v-204q0 -31 -31 -31h-661q-33 0 -33 31
z" />
    <glyph glyph-name="uni04EF" unicode="&#x4ef;" horiz-adv-x="1173" 
d="M283 1167q-33 0 -33 31v205q0 31 33 31h661q31 0 31 -31v-205q0 -31 -31 -31h-661zM70 987q-7 17 2 27t26 10h232q27 0 39 -35l211 -624h18l209 624q12 35 39 35h231q16 0 25.5 -9.5t3.5 -27.5l-481 -1313q-8 -21 -16.5 -28.5t-26.5 -7.5h-232q-39 0 -26 36l114 312z" />
    <glyph glyph-name="uni1E20" unicode="&#x1e20;" horiz-adv-x="1337" 
d="M547 -10q-217 0 -317.5 111.5t-100.5 312.5v606q0 201 100.5 312.5t317.5 111.5h241q223 0 320.5 -109.5t97.5 -320.5v-13q0 -17 -10 -26.5t-25 -9.5h-235q-37 0 -37 36q0 96 -37 132t-104 36h-185q-67 0 -102 -34.5t-35 -122.5v-590q0 -89 35 -123.5t102 -34.5h191
q67 0 102 34.5t35 123.5v162h-246q-32 0 -32 32v201q0 33 32 33h508q45 0 45 -45v-391q0 -201 -100 -312.5t-317 -111.5h-244zM336 1608v204q0 31 33 31h661q31 0 31 -31v-204q0 -31 -31 -31h-661q-33 0 -33 31z" />
    <glyph glyph-name="uni1E21" unicode="&#x1e21;" horiz-adv-x="1099" 
d="M543 -379q-104 0 -187 17q-51 12 -51 53v139q0 21 13 33.5t38 11.5q63 -4 185 -4q151 0 151 125v88h-24q-40 -46 -89.5 -70t-129.5 -24h-13q-338 0 -338 346v350q0 346 338 346h13q80 0 129.5 -24t89.5 -70h24v53q0 16 10 24.5t21 8.5h235q35 0 35 -33v-995
q0 -206 -107.5 -290.5t-342.5 -84.5zM215 1198v205q0 31 33 31h661q31 0 31 -31v-205q0 -31 -31 -31h-661q-33 0 -33 31zM397 362q0 -48 29 -76t68 -28h102q42 0 69 27.5t27 79.5v292q0 53 -27 81t-69 28h-102q-39 0 -68 -28.5t-29 -78.5v-297z" />
    <glyph glyph-name="uni1E3E" unicode="&#x1e3e;" horiz-adv-x="1640" 
d="M162 0q-15 0 -24 9t-9 24v1368q0 15 9 24t24 9h426q16 0 28 -8.5t15 -22.5l182 -1028h14l185 1028q1 14 14 22.5t29 8.5h426q32 0 32 -33v-1368q0 -33 -32 -33h-242q-15 0 -24 9t-9 24v995h-20l-170 -997q-6 -31 -39 -31h-311q-14 0 -26 8.5t-13 22.5l-172 997h-19v-995
q0 -15 -9 -24t-24 -9h-241zM709 1581l90 236q17 36 43 36h303q19 0 25.5 -9.5t-5.5 -26.5l-184 -236q-29 -37 -51 -37h-201q-35 0 -20 37z" />
    <glyph glyph-name="uni1E3F" unicode="&#x1e3f;" horiz-adv-x="1679" 
d="M723 0q-33 0 -33 35v622q0 52 -30 80.5t-74 28.5h-68q-45 0 -72.5 -28t-27.5 -83v-620q0 -16 -10 -25.5t-21 -9.5h-235q-33 0 -33 35v956q0 33 33 33h235q11 0 21 -8.5t10 -24.5v-67h33q68 108 225 108h29q164 0 233 -110h20q30 49 101 79.5t143 30.5h43
q169 0 242.5 -86.5t73.5 -259.5v-651q0 -16 -10 -25.5t-21 -9.5h-236q-32 0 -32 35v622q0 51 -30.5 80t-74.5 29h-67q-45 0 -73 -28t-28 -83v-620q0 -16 -10 -25.5t-21 -9.5h-235zM737 1161l90 236q18 37 43 37h304q19 0 25.5 -10t-5.5 -27l-184 -236q-29 -37 -52 -37h-200
q-36 0 -21 37z" />
    <glyph glyph-name="Wgrave" unicode="&#x1e80;" horiz-adv-x="1959" 
d="M375 0q-14 0 -25 9t-14 24l-270 1360q-2 18 5.5 29.5t22.5 11.5h242q15 0 27.5 -12t13.5 -29l194 -1041h31l211 1041q1 17 13.5 29t27.5 12h252q14 0 27 -12.5t16 -28.5l209 -1041h31l194 1041q3 17 14.5 29t26.5 12h242q17 0 24 -11.5t4 -29.5l-268 -1360
q-3 -15 -15 -24t-26 -9h-399q-14 0 -26 9.5t-13 23.5l-154 868h-26l-152 -868q-3 -15 -15 -24t-26 -9h-399zM645 1806q-12 17 -4 27t27 10h303q23 0 41 -37l90 -235q15 -37 -21 -37h-200q-23 0 -52 37z" />
    <glyph glyph-name="wgrave" unicode="&#x1e81;" horiz-adv-x="1652" 
d="M326 0q-45 0 -54 45l-206 942q-6 37 28 37h228q34 0 40 -37l136 -708h14l154 708q9 37 39 37h243q32 0 41 -37l152 -708h14l137 708q6 37 39 37h230q32 0 26 -37l-205 -942q-9 -45 -53 -45h-342q-44 0 -53 45l-100 510h-15l-100 -510q-9 -45 -53 -45h-340zM492 1397
q-12 17 -4.5 27t26.5 10h303q23 0 41 -37l90 -236q15 -37 -20 -37h-201q-22 0 -51 37z" />
    <glyph glyph-name="Wacute" unicode="&#x1e82;" horiz-adv-x="1959" 
d="M375 0q-14 0 -25 9t-14 24l-270 1360q-2 18 5.5 29.5t22.5 11.5h242q15 0 27.5 -12t13.5 -29l194 -1041h31l211 1041q1 17 13.5 29t27.5 12h252q14 0 27 -12.5t16 -28.5l209 -1041h31l194 1041q3 17 14.5 29t26.5 12h242q17 0 24 -11.5t4 -29.5l-268 -1360
q-3 -15 -15 -24t-26 -9h-399q-14 0 -26 9.5t-13 23.5l-154 868h-26l-152 -868q-3 -15 -15 -24t-26 -9h-399zM874 1571l91 235q18 37 43 37h303q19 0 25.5 -10t-5.5 -27l-184 -235q-29 -37 -51 -37h-201q-36 0 -21 37z" />
    <glyph glyph-name="wacute" unicode="&#x1e83;" horiz-adv-x="1652" 
d="M326 0q-45 0 -54 45l-206 942q-6 37 28 37h228q34 0 40 -37l136 -708h14l154 708q9 37 39 37h243q32 0 41 -37l152 -708h14l137 708q6 37 39 37h230q32 0 26 -37l-205 -942q-9 -45 -53 -45h-342q-44 0 -53 45l-100 510h-15l-100 -510q-9 -45 -53 -45h-340zM721 1161
l90 236q18 37 43 37h303q19 0 26 -10t-5 -27l-185 -236q-29 -37 -51 -37h-201q-35 0 -20 37z" />
    <glyph glyph-name="Wdieresis" unicode="&#x1e84;" horiz-adv-x="1959" 
d="M375 0q-14 0 -25 9t-14 24l-270 1360q-2 18 5.5 29.5t22.5 11.5h242q15 0 27.5 -12t13.5 -29l194 -1041h31l211 1041q1 17 13.5 29t27.5 12h252q14 0 27 -12.5t16 -28.5l209 -1041h31l194 1041q3 17 14.5 29t26.5 12h242q17 0 24 -11.5t4 -29.5l-268 -1360
q-3 -15 -15 -24t-26 -9h-399q-14 0 -26 9.5t-13 23.5l-154 868h-26l-152 -868q-3 -15 -15 -24t-26 -9h-399zM545 1571v239q0 15 9 24t24 9h239q15 0 24 -9t9 -24v-239q0 -15 -9 -24t-24 -9h-239q-15 0 -24 9t-9 24zM1110 1571v239q0 15 9 24t24 9h239q15 0 24 -9t9 -24v-239
q0 -15 -9 -24t-24 -9h-239q-15 0 -24 9t-9 24z" />
    <glyph glyph-name="wdieresis" unicode="&#x1e85;" horiz-adv-x="1652" 
d="M326 0q-45 0 -54 45l-206 942q-6 37 28 37h228q34 0 40 -37l136 -708h14l154 708q9 37 39 37h243q32 0 41 -37l152 -708h14l137 708q6 37 39 37h230q32 0 26 -37l-205 -942q-9 -45 -53 -45h-342q-44 0 -53 45l-100 510h-15l-100 -510q-9 -45 -53 -45h-340zM391 1161v240
q0 15 9 24t24 9h240q32 0 32 -33v-240q0 -33 -32 -33h-240q-15 0 -24 9t-9 24zM956 1161v240q0 15 9 24t24 9h240q15 0 24 -9t9 -24v-240q0 -15 -9 -24t-24 -9h-240q-15 0 -24 9t-9 24z" />
    <glyph glyph-name="uni1E9E" unicode="&#x1e9e;" horiz-adv-x="1300" 
d="M162 0q-15 0 -24 9t-9 24v1368q0 33 31 33h960q44 0 65 -32.5t-3 -70.5l-318 -471h72q106 0 187 -108.5t81 -253.5v-105q0 -96 -21.5 -165.5t-59 -113t-97.5 -69.5t-129 -35.5t-162 -9.5h-139q-37 0 -37 37v201q0 19 8.5 27.5t28.5 8.5h139q38 0 64.5 5t50.5 19.5
t35.5 43t11.5 72.5v67q0 71 -45 107.5t-117 36.5h-133q-37 0 -37 37v186q0 33 19 67l166 244h-314v-1126q0 -15 -9 -24t-24 -9h-241z" />
    <glyph glyph-name="uni1EA0" unicode="&#x1ea0;" horiz-adv-x="1302" 
d="M850 1434q31 0 41 -33l344 -1360q4 -17 -5 -29t-24 -12h-241q-30 0 -41 41l-43 174h-457l-43 -174q-11 -41 -41 -41h-242q-17 0 -25 12t-3 29l344 1360q10 33 39 33h397zM487 479h328l-147 604h-33zM508 -330v221q0 15 9 24t24 9h221q15 0 24 -9t9 -24v-221
q0 -32 -33 -32h-221q-33 0 -33 32z" />
    <glyph glyph-name="uni1EA1" unicode="&#x1ea1;" horiz-adv-x="1091" 
d="M707 0q-33 0 -33 35v86h-25q-54 -64 -110.5 -97.5t-143.5 -33.5h-18q-142 0 -215.5 79.5t-73.5 221.5v71q0 135 77 198t245 63h264v45q0 56 -44 80t-155 24q-123 0 -209 -22q-35 -8 -43 26l-30 164q-7 29 24 43q133 49 324 49h57q375 0 375 -350v-647q0 -35 -33 -35h-233
zM381 303q0 -57 74 -57h100q119 0 119 110v58h-221q-36 0 -54 -14t-18 -56v-41zM391 -330v221q0 15 9 24t24 9h221q15 0 24 -9t9 -24v-221q0 -32 -33 -32h-221q-33 0 -33 32z" />
    <glyph glyph-name="uni1EA2" unicode="&#x1ea2;" horiz-adv-x="1302" 
d="M850 1434q31 0 41 -33l344 -1360q4 -17 -5 -29t-24 -12h-241q-30 0 -41 41l-43 174h-457l-43 -174q-11 -41 -41 -41h-242q-17 0 -25 12t-3 29l344 1360q10 33 39 33h397zM406 1741v18q0 88 45.5 138.5t164.5 50.5h70q120 0 165.5 -50.5t45.5 -138.5v-39q0 -87 -45 -134.5
t-166 -47.5h-39q-31 0 -31 29v98q0 31 31 31h19q39 0 39 26v35q0 27 -39 27h-29q-35 0 -35 -27v-16q0 -29 -31 -29h-135q-30 0 -30 29zM487 479h328l-147 604h-33z" />
    <glyph glyph-name="uni1EA3" unicode="&#x1ea3;" horiz-adv-x="1091" 
d="M707 0q-33 0 -33 35v86h-25q-54 -64 -110.5 -97.5t-143.5 -33.5h-18q-142 0 -215.5 79.5t-73.5 221.5v71q0 135 77 198t245 63h264v45q0 56 -44 80t-155 24q-123 0 -209 -22q-35 -8 -43 26l-30 164q-7 29 24 43q133 49 324 49h57q375 0 375 -350v-647q0 -35 -33 -35h-233
zM319 1331v19q0 87 46 137.5t165 50.5h70q120 0 165.5 -50t45.5 -138v-39q0 -87 -45 -135t-166 -48h-39q-31 0 -31 29v98q0 31 31 31h19q38 0 38 27v35q0 26 -38 26h-29q-35 0 -35 -26v-17q0 -28 -31 -28h-135q-31 0 -31 28zM381 303q0 -57 74 -57h100q119 0 119 110v58
h-221q-36 0 -54 -14t-18 -56v-41z" />
    <glyph glyph-name="uni1EA4" unicode="&#x1ea4;" horiz-adv-x="1302" 
d="M850 1434q31 0 41 -33l344 -1360q4 -17 -5 -29t-24 -12h-241q-30 0 -41 41l-43 174h-457l-43 -174q-11 -41 -41 -41h-242q-17 0 -25 12t-3 29l344 1360q10 33 39 33h397zM266 1575l209 240q22 28 57 28h252q34 0 58 -28l209 -240q12 -15 4.5 -29t-23.5 -14h-219
q-12 0 -21 2.5t-19.5 11.5t-14 12.5t-17.5 18.5l-71 86h-21l-74 -86q-13 -16 -20 -23.5t-20 -14.5t-29 -7h-221q-16 0 -23 14t4 29zM487 479h328l-147 604h-33zM854 1898l90 236q18 37 43 37h303q19 0 26 -10t-5 -27l-185 -236q-28 -36 -51 -36h-201q-34 0 -20 36z" />
    <glyph glyph-name="uni1EA5" unicode="&#x1ea5;" horiz-adv-x="1091" 
d="M707 0q-33 0 -33 35v86h-25q-54 -64 -110.5 -97.5t-143.5 -33.5h-18q-142 0 -215.5 79.5t-73.5 221.5v71q0 135 77 198t245 63h264v45q0 56 -44 80t-155 24q-123 0 -209 -22q-35 -8 -43 26l-30 164q-7 29 24 43q133 49 324 49h57q375 0 375 -350v-647q0 -35 -33 -35h-233
zM180 1165l209 240q23 29 57 29h252q33 0 58 -29l209 -240q12 -15 4.5 -29t-23.5 -14h-219q-12 0 -21 2.5t-19.5 11.5t-14 12.5t-17.5 18.5l-71 86h-21l-74 -86q-13 -16 -20 -23.5t-20 -14.5t-29 -7h-221q-16 0 -23 14t4 29zM381 303q0 -57 74 -57h100q119 0 119 110v58
h-221q-36 0 -54 -14t-18 -56v-41zM768 1489l90 235q18 37 43 37h303q19 0 26 -10t-5 -27l-185 -235q-29 -37 -51 -37h-201q-35 0 -20 37z" />
    <glyph glyph-name="uni1EA6" unicode="&#x1ea6;" horiz-adv-x="1302" 
d="M850 1434q31 0 41 -33l344 -1360q4 -17 -5 -29t-24 -12h-241q-30 0 -41 41l-43 174h-457l-43 -174q-11 -41 -41 -41h-242q-17 0 -25 12t-3 29l344 1360q10 33 39 33h397zM266 1575l209 240q22 28 57 28h252q34 0 58 -28l209 -240q12 -15 4.5 -29t-23.5 -14h-219
q-12 0 -21 2.5t-19.5 11.5t-14 12.5t-17.5 18.5l-71 86h-21l-74 -86q-13 -16 -20 -23.5t-20 -14.5t-29 -7h-221q-16 0 -23 14t4 29zM487 479h328l-147 604h-33zM676 2134q-12 17 -4.5 27t26.5 10h303q23 0 41 -37l91 -236q14 -36 -21 -36h-201q-23 0 -51 36z" />
    <glyph glyph-name="uni1EA7" unicode="&#x1ea7;" horiz-adv-x="1091" 
d="M707 0q-33 0 -33 35v86h-25q-54 -64 -110.5 -97.5t-143.5 -33.5h-18q-142 0 -215.5 79.5t-73.5 221.5v71q0 135 77 198t245 63h264v45q0 56 -44 80t-155 24q-123 0 -209 -22q-35 -8 -43 26l-30 164q-7 29 24 43q133 49 324 49h57q375 0 375 -350v-647q0 -35 -33 -35h-233
zM180 1165l209 240q23 29 57 29h252q33 0 58 -29l209 -240q12 -15 4.5 -29t-23.5 -14h-219q-12 0 -21 2.5t-19.5 11.5t-14 12.5t-17.5 18.5l-71 86h-21l-74 -86q-13 -16 -20 -23.5t-20 -14.5t-29 -7h-221q-16 0 -23 14t4 29zM381 303q0 -57 74 -57h100q119 0 119 110v58
h-221q-36 0 -54 -14t-18 -56v-41zM590 1724q-12 17 -4.5 27t26.5 10h303q23 0 41 -37l91 -235q15 -37 -21 -37h-201q-22 0 -51 37z" />
    <glyph glyph-name="uni1EA8" unicode="&#x1ea8;" horiz-adv-x="1302" 
d="M850 1434q31 0 41 -33l344 -1360q4 -17 -5 -29t-24 -12h-241q-30 0 -41 41l-43 174h-457l-43 -174q-11 -41 -41 -41h-242q-17 0 -25 12t-3 29l344 1360q10 33 39 33h397zM266 1575l209 240q22 28 57 28h252q34 0 58 -28l209 -240q12 -15 4.5 -29t-23.5 -14h-219
q-12 0 -21 2.5t-19.5 11.5t-14 12.5t-17.5 18.5l-71 86h-21l-74 -86q-13 -16 -20 -23.5t-20 -14.5t-29 -7h-221q-16 0 -23 14t4 29zM487 479h328l-147 604h-33zM612 2068v19q0 87 46 137.5t165 50.5h70q120 0 165.5 -50t45.5 -138v-39q0 -87 -45 -134.5t-166 -47.5h-39
q-31 0 -31 28v99q0 30 31 30h18q39 0 39 27v35q0 26 -39 26h-28q-35 0 -35 -26v-17q0 -28 -31 -28h-135q-31 0 -31 28z" />
    <glyph glyph-name="uni1EA9" unicode="&#x1ea9;" horiz-adv-x="1091" 
d="M707 0q-33 0 -33 35v86h-25q-54 -64 -110.5 -97.5t-143.5 -33.5h-18q-142 0 -215.5 79.5t-73.5 221.5v71q0 135 77 198t245 63h264v45q0 56 -44 80t-155 24q-123 0 -209 -22q-35 -8 -43 26l-30 164q-7 29 24 43q133 49 324 49h57q375 0 375 -350v-647q0 -35 -33 -35h-233
zM180 1165l209 240q23 29 57 29h252q33 0 58 -29l209 -240q12 -15 4.5 -29t-23.5 -14h-219q-12 0 -21 2.5t-19.5 11.5t-14 12.5t-17.5 18.5l-71 86h-21l-74 -86q-13 -16 -20 -23.5t-20 -14.5t-29 -7h-221q-16 0 -23 14t4 29zM381 303q0 -57 74 -57h100q119 0 119 110v58
h-221q-36 0 -54 -14t-18 -56v-41zM526 1659v18q0 87 46 138t165 51h70q120 0 165.5 -50.5t45.5 -138.5v-39q0 -87 -45 -134.5t-166 -47.5h-39q-31 0 -31 29v98q0 31 31 31h18q39 0 39 26v35q0 27 -39 27h-28q-35 0 -35 -27v-16q0 -29 -31 -29h-135q-31 0 -31 29z" />
    <glyph glyph-name="uni1EAA" unicode="&#x1eaa;" horiz-adv-x="1302" 
d="M850 1434q31 0 41 -33l344 -1360q4 -17 -5 -29t-24 -12h-241q-30 0 -41 41l-43 174h-457l-43 -174q-11 -41 -41 -41h-242q-17 0 -25 12t-3 29l344 1360q10 33 39 33h397zM266 1575l209 240q22 28 57 28h252q34 0 58 -28l209 -240q12 -15 4.5 -29t-23.5 -14h-219
q-12 0 -21 2.5t-19.5 11.5t-14 12.5t-17.5 18.5l-71 86h-21l-74 -86q-13 -16 -20 -23.5t-20 -14.5t-29 -7h-221q-16 0 -23 14t4 29zM289 2114q-5 17 0 27.5t20 23.5q56 43 106.5 58t110.5 15q62 0 108 -19t82 -37.5t75 -18.5q10 0 19.5 1t16 1.5t16 3.5t13.5 4t14.5 6t14 7
t17.5 9l18 9q24 13 38 -11l66 -165q9 -27 -20 -52q-56 -43 -107 -58t-111 -15q-49 0 -89 11.5t-61.5 26t-52 26t-61.5 11.5q-39 0 -63.5 -8t-61.5 -31q-29 -15 -43 9zM487 479h328l-147 604h-33z" />
    <glyph glyph-name="uni1EAB" unicode="&#x1eab;" horiz-adv-x="1091" 
d="M707 0q-33 0 -33 35v86h-25q-54 -64 -110.5 -97.5t-143.5 -33.5h-18q-142 0 -215.5 79.5t-73.5 221.5v71q0 135 77 198t245 63h264v45q0 56 -44 80t-155 24q-123 0 -209 -22q-35 -8 -43 26l-30 164q-7 29 24 43q133 49 324 49h57q375 0 375 -350v-647q0 -35 -33 -35h-233
zM180 1165l209 240q23 29 57 29h252q33 0 58 -29l209 -240q12 -15 4.5 -29t-23.5 -14h-219q-12 0 -21 2.5t-19.5 11.5t-14 12.5t-17.5 18.5l-71 86h-21l-74 -86q-13 -16 -20 -23.5t-20 -14.5t-29 -7h-221q-16 0 -23 14t4 29zM203 1704q-5 17 0 27.5t20 23.5
q56 43 106.5 58.5t110.5 15.5q49 0 89 -12t62 -26t52.5 -26t61.5 -12q10 0 19.5 1t16 1.5t16 3.5t13.5 4t14.5 6t14 7t17.5 9l18 9q24 13 38 -10l66 -166q5 -17 0 -27.5t-20 -23.5q-97 -74 -218 -74q-62 0 -107.5 19t-81.5 38t-75 19t-63.5 -8t-61.5 -31q-29 -15 -43 8z
M381 303q0 -57 74 -57h100q119 0 119 110v58h-221q-36 0 -54 -14t-18 -56v-41z" />
    <glyph glyph-name="uni1EAC" unicode="&#x1eac;" horiz-adv-x="1302" 
d="M850 1434q31 0 41 -33l344 -1360q4 -17 -5 -29t-24 -12h-241q-30 0 -41 41l-43 174h-457l-43 -174q-11 -41 -41 -41h-242q-17 0 -25 12t-3 29l344 1360q10 33 39 33h397zM266 1575l209 240q22 28 57 28h252q34 0 58 -28l209 -240q12 -15 4.5 -29t-23.5 -14h-219
q-12 0 -21 2.5t-19.5 11.5t-14 12.5t-17.5 18.5l-71 86h-21l-74 -86q-13 -16 -20 -23.5t-20 -14.5t-29 -7h-221q-16 0 -23 14t4 29zM487 479h328l-147 604h-33zM508 -330v221q0 15 9 24t24 9h221q15 0 24 -9t9 -24v-221q0 -32 -33 -32h-221q-33 0 -33 32z" />
    </font>
</defs>
</svg>
