<?xml version="1.0" standalone="no"?>
<!DOCTYPE svg PUBLIC "-//W3C//DTD SVG 1.1//EN" "http://www.w3.org/Graphics/SVG/1.1/DTD/svg11.dtd" >
<svg xmlns="http://www.w3.org/2000/svg" xmlns:xlink="http://www.w3.org/1999/xlink" version="1.1">
<metadata>
Created by FontForge 20201107 at Thu Jul 31 20:26:50 2025
 By 
Copyright (c) 2022 by Connary Fagen. All rights reserved.
</metadata>
<defs>
<font id="ManifoldCF-Regular" horiz-adv-x="1280" >
  <font-face 
    font-family="Manifold CF"
    font-weight="400"
    font-stretch="normal"
    units-per-em="2048"
    panose-1="0 0 0 0 0 0 0 0 0 0"
    ascent="1638"
    descent="-410"
    x-height="1024"
    cap-height="1434"
    bbox="-358.571 -512 1997 2269"
    underline-thickness="102"
    underline-position="-255"
    unicode-range="U+0020-FB02"
  />
<missing-glyph horiz-adv-x="1024" 
d="M840 1638v-2048h-650v2048h650zM342 -268h340v67h-209l143 97h66v67h-340v-67h143l-143 -97v-67zM342 10h340v232h-340v-232zM342 365h340v231h-205v-115h70v47h67v-96h-204v164h-68v-231zM342 641h340v205h-68v-135h-272v-70zM342 758h205v143h135v68h-340v-68h135v-76
h-135v-67zM342 1024h340v70h-135v143h-205v-213zM342 1290h340v68h-135v76h135v67h-338v-67h133v-76h-135v-68zM410 78v96h204v-96h-204zM410 1094v73h67v-73h-67z" />
    <glyph glyph-name="fi" unicode="fi" horiz-adv-x="972" 
d="M246 0q-25 0 -25 25v890h-115q-24 0 -24 25v59q0 25 24 25h115v94q0 316 293 316h100q31 0 31 -31v-49q0 -31 -31 -31h-90q-98 0 -141 -53t-43 -160v-86h475q25 0 25 -25v-974q0 -25 -25 -25h-70q-24 0 -24 25v890h-381v-890q0 -25 -25 -25h-69z" />
    <glyph glyph-name="fl" unicode="fl" horiz-adv-x="1044" 
d="M246 0q-25 0 -25 25v890h-115q-24 0 -24 25v59q0 25 24 25h115v94q0 316 293 316h373q24 0 24 -25v-1384q0 -25 -24 -25h-70q-24 0 -24 25v1298h-269q-98 0 -141 -53t-43 -160v-86h272q25 0 25 -25v-59q0 -25 -25 -25h-272v-890q0 -25 -25 -25h-69z" />
    <glyph glyph-name=".notdef" horiz-adv-x="1024" 
d="M840 1638v-2048h-650v2048h650zM342 -268h340v67h-209l143 97h66v67h-340v-67h143l-143 -97v-67zM342 10h340v232h-340v-232zM342 365h340v231h-205v-115h70v47h67v-96h-204v164h-68v-231zM342 641h340v205h-68v-135h-272v-70zM342 758h205v143h135v68h-340v-68h135v-76
h-135v-67zM342 1024h340v70h-135v143h-205v-213zM342 1290h340v68h-135v76h135v67h-338v-67h133v-76h-135v-68zM410 78v96h204v-96h-204zM410 1094v73h67v-73h-67z" />
    <glyph glyph-name=".null" horiz-adv-x="0" 
 />
    <glyph glyph-name="nonmarkingreturn" horiz-adv-x="682" 
 />
    <glyph glyph-name="space" unicode=" " horiz-adv-x="409" 
 />
    <glyph glyph-name="space" unicode="&#xa0;" horiz-adv-x="409" 
 />
    <glyph glyph-name="exclam" unicode="!" horiz-adv-x="419" 
d="M172 334q-15 0 -21 5.5t-6 20.5v1047q0 15 6 21t21 6h76q15 0 20.5 -6t5.5 -21v-1047q0 -15 -5.5 -20.5t-20.5 -5.5h-76zM143 27v79q0 15 6 21t21 6h80q15 0 20.5 -6t5.5 -21v-79q0 -15 -5.5 -21t-20.5 -6h-80q-15 0 -21 6t-6 21z" />
    <glyph glyph-name="quotedbl" unicode="&#x22;" horiz-adv-x="696" 
d="M471 846q-15 0 -21 5.5t-6 20.5v535q0 15 6 21t21 6h66q15 0 20.5 -6t5.5 -21v-535q0 -15 -5.5 -20.5t-20.5 -5.5h-66zM133 872v535q0 15 6 21t21 6h65q15 0 21 -6t6 -21v-535q0 -15 -6 -20.5t-21 -5.5h-65q-15 0 -21 5.5t-6 20.5z" />
    <glyph glyph-name="numbersign" unicode="#" horiz-adv-x="1126" 
d="M756 0q-25 0 -25 25v323h-338v-323q0 -25 -24 -25h-70q-25 0 -25 25v323h-147q-25 0 -25 25v59q0 25 25 25h147v520h-147q-25 0 -25 24v60q0 24 25 24h147v324q0 25 25 25h70q24 0 24 -25v-324h338v324q0 25 25 25h69q25 0 25 -25v-324h149q25 0 25 -24v-60
q0 -24 -25 -24h-149v-520h149q25 0 25 -25v-59q0 -25 -25 -25h-149v-323q0 -25 -25 -25h-69zM393 457h338v520h-338v-520z" />
    <glyph glyph-name="dollar" unicode="$" horiz-adv-x="972" 
d="M469 123q-25 0 -25 24v142q-342 4 -342 272q0 27 27 27h53q29 0 29 -27q0 -91 61 -128.5t172 -39.5v340q-67 8 -114 18.5t-91.5 30.5t-71 48.5t-42.5 73t-16 104.5q0 137 85.5 198.5t249.5 63.5v139q0 25 25 25h35q24 0 24 -25v-139q326 -11 326 -297q0 -25 -27 -25h-51
q-28 0 -28 25q0 104 -56.5 146.5t-163.5 45.5v-346q66 -9 112 -19.5t92.5 -30t74.5 -47t45.5 -70.5t17.5 -101q0 -76 -26 -128.5t-75.5 -80.5t-107 -40t-133.5 -13v-142q0 -24 -24 -24h-35zM217 1008q0 -95 50 -130t177 -49v336q-120 -2 -173.5 -34t-53.5 -123zM528 393
q37 0 62.5 1.5t55 6.5t48.5 16t35.5 28t24.5 43.5t8 62.5q0 89 -54.5 123t-179.5 49v-330z" />
    <glyph glyph-name="percent" unicode="%" horiz-adv-x="1413" 
d="M260 895q-87 0 -132.5 48t-45.5 132v178q0 84 45.5 132.5t132.5 48.5h111q87 0 132.5 -48.5t45.5 -132.5v-178q0 -84 -45.5 -132t-132.5 -48h-111zM182 1075q0 -82 90 -82h84q93 0 93 82v178q0 82 -93 82h-84q-90 0 -90 -82v-178zM209 31l870 1374q10 17 17.5 23t21.5 6
h66q16 0 22 -8t-2 -23l-870 -1374q-10 -17 -17.5 -23t-21.5 -6h-66q-16 0 -22 8t2 23zM864 180v178q0 84 45.5 132.5t132.5 48.5h111q87 0 132.5 -48.5t45.5 -132.5v-178q0 -84 -45.5 -132t-132.5 -48h-111q-87 0 -132.5 48t-45.5 132zM965 180q0 -82 92 -82h84q90 0 90 82
v178q0 82 -90 82h-84q-92 0 -92 -82v-178z" />
    <glyph glyph-name="ampersand" unicode="&#x26;" horiz-adv-x="1431" 
d="M547 -10q-206 0 -305 82.5t-99 271.5v137q0 107 37.5 175t147.5 102l65 20l-31 27q-73 64 -98.5 118.5t-25.5 133.5v119q0 135 82.5 201.5t250.5 66.5h121q344 0 344 -291v-123q0 -24 -24 -24h-70q-24 0 -24 24v117q0 103 -52 144.5t-174 41.5h-121q-119 0 -167 -38.5
t-48 -131.5v-106q0 -67 24 -109t85 -94l606 -510v420q0 24 25 24h209q24 0 24 -24v-57q0 -25 -24 -25h-123v-338q0 -190 -95.5 -272t-300.5 -82h-239zM262 344q0 -135 67.5 -189.5t221.5 -54.5h233q117 0 181.5 29t87.5 96l-578 486l-82 -27q-73 -25 -102 -70t-29 -133v-137
z" />
    <glyph glyph-name="quotesingle" unicode="'" horiz-adv-x="385" 
d="M160 846q-15 0 -21 5.5t-6 20.5v535q0 15 6 21t21 6h65q15 0 21 -6t6 -21v-535q0 -15 -6 -20.5t-21 -5.5h-65z" />
    <glyph glyph-name="parenleft" unicode="(" horiz-adv-x="614" 
d="M422 -143q-160 0 -234.5 82t-74.5 276v1057q0 194 74.5 276t234.5 82h51q29 0 29 -31v-61q0 -31 -29 -31h-45q-103 0 -147.5 -55.5t-44.5 -179.5v-1057q0 -124 44.5 -179.5t147.5 -55.5h45q29 0 29 -31v-62q0 -30 -29 -30h-51z" />
    <glyph glyph-name="parenright" unicode=")" horiz-adv-x="614" 
d="M141 -143q-28 0 -28 30v62q0 31 28 31h45q103 0 148 55.5t45 179.5v1057q0 124 -45 179.5t-148 55.5h-45q-28 0 -28 31v61q0 31 28 31h52q160 0 234.5 -82t74.5 -276v-1057q0 -194 -74.5 -276t-234.5 -82h-52z" />
    <glyph glyph-name="asterisk" unicode="*" horiz-adv-x="722" 
d="M328 932q-25 0 -25 24l8 166l-133 -96q-9 -7 -20 -5t-17 13l-32 56q-14 22 8 36l149 84l-149 82q-24 12 -8 37l32 55q6 11 17 13.5t20 -4.5l133 -97l-8 166q0 25 25 25h65q27 0 27 -25l-8 -166l131 97q23 16 37 -9l34 -55q15 -24 -10 -37l-147 -82l147 -84q23 -15 10 -36
l-34 -56q-14 -24 -37 -8l-131 96l8 -166q0 -24 -27 -24h-65z" />
    <glyph glyph-name="plus" unicode="+" horiz-adv-x="1024" 
d="M477 236q-15 0 -20.5 6.5t-5.5 21.5v336h-320q-29 0 -29 27v69q0 27 29 27h320v334q0 15 5.5 21.5t20.5 6.5h70q15 0 20.5 -6.5t5.5 -21.5v-334h322q15 0 21 -6t6 -21v-69q0 -15 -6 -21t-23 -6h-320v-336q0 -15 -5.5 -21.5t-20.5 -6.5h-70z" />
    <glyph glyph-name="comma" unicode="," horiz-adv-x="317" 
d="M78 -285q-15 0 -21 6t-6 21v49q0 15 6 21t21 6h59v288q0 15 6 21t21 6h55q15 0 21 -6t6 -21v-342q0 -26 -11.5 -37.5t-37.5 -11.5h-119z" />
    <glyph glyph-name="hyphen" unicode="-" horiz-adv-x="737" 
d="M127 465q-25 0 -25 24v60q0 24 25 24h483q25 0 25 -24v-60q0 -24 -25 -24h-483z" />
    <glyph glyph-name="period" unicode="." horiz-adv-x="276" 
d="M98 0q-15 0 -20.5 6t-5.5 21v79q0 15 5.5 21t20.5 6h80q15 0 21 -6t6 -21v-79q0 -15 -6 -21t-21 -6h-80z" />
    <glyph glyph-name="slash" unicode="/" horiz-adv-x="884" 
d="M74 -72q-31 0 -19 31l650 1514q12 30 36 30h70q30 0 18 -30l-649 -1514q-12 -31 -37 -31h-69z" />
    <glyph glyph-name="zero" unicode="0" horiz-adv-x="1232" 
d="M573 -10q-430 0 -430 411v631q0 412 430 412h86q431 0 431 -412v-631q0 -411 -431 -411h-86zM262 399q0 -155 74.5 -227t234.5 -72h91q159 0 234 72t75 227v635q0 155 -75 227t-234 72h-91q-160 0 -234.5 -72t-74.5 -227v-635z" />
    <glyph glyph-name="one" unicode="1" horiz-adv-x="522" 
d="M285 0q-25 0 -25 25v1300h-164q-24 0 -24 25v59q0 25 24 25h258q25 0 25 -25v-1384q0 -25 -25 -25h-69z" />
    <glyph glyph-name="two" unicode="2" horiz-adv-x="1136" 
d="M133 0q-31 0 -31 31v135q0 124 25.5 199t85 130t176.5 113l266 133q77 38 120.5 65.5t78 64.5t48 81.5t13.5 108.5q0 141 -66 205.5t-214 64.5h-100q-153 0 -225 -66.5t-72 -220.5q0 -24 -25 -24h-70q-24 0 -24 24v31q0 188 108.5 278.5t302.5 90.5h109q201 0 298 -94.5
t97 -288.5q0 -69 -13 -122.5t-36.5 -94t-67 -77t-93 -65.5t-126.5 -67l-262 -129q-122 -60 -167.5 -126.5t-45.5 -176.5v-94h776q25 0 25 -25v-59q0 -25 -25 -25h-866z" />
    <glyph glyph-name="three" unicode="3" horiz-adv-x="1159" 
d="M524 -10q-194 0 -302.5 90t-108.5 278v31q0 25 24 25h70q24 0 24 -25q0 -154 72 -220.5t225 -66.5h109q148 0 219.5 70t71.5 211q0 172 -89 241.5t-274 69.5h-108q-25 0 -25 25v59q0 25 25 25h108q177 0 252.5 60t75.5 198q0 140 -68 205t-217 65h-63q-153 0 -225 -66.5
t-72 -220.5q0 -24 -25 -24h-69q-25 0 -25 24v31q0 188 109 278.5t303 90.5h71q201 0 300.5 -95t99.5 -288q0 -136 -53 -203t-173 -102v-15q50 -13 86.5 -28.5t71 -43t56 -64.5t34.5 -93t13 -129q0 -193 -103 -293t-303 -100h-117z" />
    <glyph glyph-name="four" unicode="4" horiz-adv-x="1095" 
d="M119 346q-17 0 -29 23l-22 41q-12 21 0 45l497 958q12 21 31 21h80q14 0 18.5 -9t-2.5 -20l-497 -950h522v319q0 25 24 25h70q25 0 25 -25v-319h143q25 0 25 -25v-59q0 -25 -25 -25h-143v-321q0 -25 -25 -25h-70q-24 0 -24 25v321h-598z" />
    <glyph glyph-name="five" unicode="5" horiz-adv-x="1157" 
d="M514 -10q-194 0 -303 90t-109 278v31q0 25 25 25h70q24 0 24 -25q0 -154 72 -220.5t225 -66.5h115q150 0 221.5 73t71.5 228v99q0 156 -70.5 226.5t-228.5 70.5h-109q-187 0 -270 -133h-96q-32 0 -29 36l61 701q3 31 31 31h725q25 0 25 -25v-59q0 -25 -25 -25h-649
l-47 -534h12q34 48 112 83t179 35h119q103 0 178 -30.5t117.5 -86t62.5 -124.5t20 -154v-111q0 -205 -103.5 -309t-303.5 -104h-123z" />
    <glyph glyph-name="six" unicode="6" horiz-adv-x="1208" 
d="M563 -10q-216 0 -318 102.5t-102 308.5v662q0 195 99.5 288t302.5 93h112q197 0 299.5 -69.5t102.5 -225.5v-35q0 -24 -25 -24h-69q-25 0 -25 24q0 121 -66 170t-221 49h-104q-151 0 -219 -64.5t-68 -209.5v-275h12q33 54 110.5 91.5t178.5 37.5h154q103 0 178 -30.5
t118 -86t63 -124.5t20 -154v-115q0 -208 -102 -310.5t-318 -102.5h-113zM262 403q0 -157 70.5 -230t228.5 -73h117q157 0 228 73t71 230v103q0 156 -70.5 226.5t-228.5 70.5h-117q-159 0 -229 -70.5t-70 -226.5v-103z" />
    <glyph glyph-name="seven" unicode="7" horiz-adv-x="1075" 
d="M205 0q-30 0 -23 33q79 352 251.5 665.5t436.5 612.5v14h-753q-25 0 -25 25v59q0 25 25 25h862q25 0 25 -25v-84q0 -5 -1.5 -10t-6.5 -11.5t-8.5 -11t-12 -14t-12.5 -14.5q-248 -283 -413.5 -581t-244.5 -650q-7 -33 -37 -33h-63z" />
    <glyph glyph-name="eight" unicode="8" horiz-adv-x="1239" 
d="M563 -10q-215 0 -317.5 100.5t-102.5 300.5v49q0 142 51.5 228.5t159.5 124.5q-159 71 -159 297q0 173 90 263.5t266 90.5h137q176 0 266 -90.5t90 -263.5q0 -225 -157 -299q209 -72 209 -353v-45q0 -201 -102.5 -302t-317.5 -101h-113zM262 393q0 -150 71 -221.5
t228 -71.5h117q156 0 227.5 71.5t71.5 221.5v45q0 150 -71.5 221.5t-227.5 71.5h-117q-157 0 -228 -71.5t-71 -221.5v-45zM309 1090q0 -128 61 -188t189 -60h125q126 0 186 60t60 188t-60.5 187.5t-187.5 59.5h-125q-127 0 -187.5 -59.5t-60.5 -187.5z" />
    <glyph glyph-name="nine" unicode="9" horiz-adv-x="1208" 
d="M645 1444q216 0 318 -102.5t102 -309.5v-661q0 -195 -99.5 -288t-301.5 -93h-113q-197 0 -299 69.5t-102 225.5v34q0 25 24 25h70q24 0 24 -25q0 -121 66 -170t221 -49h104q151 0 219 65t68 210v274h-12q-33 -54 -110.5 -91.5t-178.5 -37.5h-153q-103 0 -178 30.5
t-118 86t-63 124.5t-20 154v115q0 208 101.5 311t317.5 103h113zM231 928q0 -156 70.5 -226.5t228.5 -70.5h117q159 0 229 70.5t70 226.5v102q0 157 -70.5 230t-228.5 73h-117q-157 0 -228 -73t-71 -230v-102z" />
    <glyph glyph-name="colon" unicode=":" horiz-adv-x="276" 
d="M98 0q-15 0 -20.5 6t-5.5 21v79q0 15 5.5 21t20.5 6h80q15 0 21 -6t6 -21v-79q0 -15 -6 -21t-21 -6h-80zM72 918v79q0 15 5.5 21t20.5 6h80q15 0 21 -6t6 -21v-79q0 -15 -6 -21t-21 -6h-80q-15 0 -20.5 6t-5.5 21z" />
    <glyph glyph-name="semicolon" unicode=";" horiz-adv-x="350" 
d="M98 -285q-15 0 -20.5 6t-5.5 21v49q0 15 5.5 21t20.5 6h60v288q0 15 5.5 21t20.5 6h56q15 0 20.5 -6t5.5 -21v-342q0 -26 -11.5 -37.5t-37.5 -11.5h-119zM145 918v79q0 15 6 21t21 6h80q15 0 21 -6t6 -21v-79q0 -15 -6 -21t-21 -6h-80q-15 0 -21 6t-6 21z" />
    <glyph glyph-name="less" unicode="&#x3c;" horiz-adv-x="942" 
d="M129 414q-27 15 -27 69q0 55 27 70l678 371q13 7 23 1.5t10 -18.5v-73q0 -30 -23 -43l-561 -308l561 -307q23 -13 23 -43v-74q0 -12 -10 -17.5t-23 1.5z" />
    <glyph glyph-name="equal" unicode="=" horiz-adv-x="1013" 
d="M131 764q-29 0 -29 27v69q0 27 29 27h754q15 0 20.5 -6t5.5 -21v-69q0 -15 -5.5 -21t-22.5 -6h-752zM102 463v69q0 27 29 27h754q15 0 20.5 -6t5.5 -21v-69q0 -15 -5.5 -21t-22.5 -6h-752q-29 0 -29 27z" />
    <glyph glyph-name="greater" unicode="&#x3e;" horiz-adv-x="942" 
d="M135 43q-13 -7 -23 -1.5t-10 17.5v74q0 30 23 43l561 307l-561 308q-23 13 -23 43v73q0 13 10 18.5t23 -1.5l678 -371q27 -15 27 -70q0 -54 -27 -69z" />
    <glyph glyph-name="question" unicode="?" horiz-adv-x="1062" 
d="M446 334q-15 0 -20.5 5.5t-5.5 20.5v134q0 57 11.5 94t44 67t74 50.5t118.5 50.5q96 37 127 59q61 46 73 151q4 34 4 78q0 152 -65 217.5t-215 65.5h-107q-154 0 -224.5 -64.5t-70.5 -218.5q0 -24 -24 -24h-70q-24 0 -24 24v31q0 188 108.5 278.5t302.5 90.5h109
q202 0 300.5 -98t98.5 -302q0 -59 -6 -105t-15 -80t-28.5 -61.5t-37 -45.5t-49.5 -36t-57.5 -29t-70.5 -28q-111 -41 -147.5 -77t-36.5 -111v-111q0 -15 -6 -20.5t-21 -5.5h-70zM418 27v79q0 15 5.5 21t20.5 6h80q15 0 21 -6t6 -21v-79q0 -15 -6 -21t-21 -6h-80
q-15 0 -20.5 6t-5.5 21z" />
    <glyph glyph-name="at" unicode="@" horiz-adv-x="1517" 
d="M633 -129q-490 0 -490 434v586q0 434 488 434h258q241 0 363 -103t122 -323v-553q0 -73 -60 -113t-147 -40q-76 0 -119.5 30.5t-64.5 89.5q-38 -55 -103 -86.5t-139 -31.5h-61q-236 0 -236 223v336q0 110 57 160.5t179 50.5h336q41 0 41 -41v-553q0 -80 98 -80
q117 0 117 80v532q0 162 -94 243t-291 81h-254q-387 0 -387 -332v-594q0 -332 389 -332h106q149 0 314 47v-88q-129 -57 -314 -57h-108zM547 436q0 -82 38.5 -112.5t121.5 -30.5h43q82 0 143 45t61 108v424h-245q-86 0 -124 -25t-38 -91v-318z" />
    <glyph glyph-name="A" unicode="A" horiz-adv-x="1204" 
d="M672 1434q27 0 37 -33l411 -1368q9 -33 -22 -33h-70q-26 0 -35 33l-82 270h-618l-82 -270q-9 -33 -35 -33h-70q-31 0 -22 33l412 1368q10 33 36 33h140zM326 412h553l-267 884h-20z" />
    <glyph glyph-name="B" unicode="B" horiz-adv-x="1198" 
d="M170 0q-15 0 -21 6t-6 21v1380q0 15 6 21t21 6h516q184 0 266 -84t82 -277q0 -122 -34.5 -196t-118.5 -111v-10q103 -34 153.5 -111.5t50.5 -208.5v-57q0 -203 -100 -291t-299 -88h-516zM266 115h420q147 0 212 58.5t65 205.5v57q0 148 -64 203t-213 55h-420v-579z
M266 799h416q123 0 176 58t53 190v32q0 132 -51.5 186t-177.5 54h-416v-520z" />
    <glyph glyph-name="C" unicode="C" horiz-adv-x="1239" 
d="M573 -10q-430 0 -430 411v631q0 412 430 412h119q217 0 320.5 -97t103.5 -296v-11q0 -20 -20 -20h-82q-21 0 -21 20q0 153 -74 221t-229 68h-115q-159 0 -234 -72t-75 -227v-627q0 -155 75 -227t234 -72h115q154 0 228.5 65t74.5 206q0 20 21 20h82q20 0 20 -20v-10
q0 -188 -104 -281.5t-320 -93.5h-119z" />
    <glyph glyph-name="D" unicode="D" horiz-adv-x="1249" 
d="M170 0q-15 0 -21 6t-6 21v1380q0 15 6 21t21 6h506q430 0 430 -412v-610q0 -412 -430 -412h-506zM266 115h408q159 0 234 72t75 227v606q0 155 -75 227t-234 72h-408v-1204z" />
    <glyph glyph-name="E" unicode="E" horiz-adv-x="1064" 
d="M172 0q-29 0 -29 27v1380q0 27 29 27h778q29 0 29 -27v-61q0 -27 -29 -27h-684v-543h627q29 0 29 -26v-58q0 -26 -29 -26h-627v-551h688q29 0 29 -27v-61q0 -27 -29 -27h-782z" />
    <glyph glyph-name="F" unicode="F" horiz-adv-x="1060" 
d="M170 0q-15 0 -21 6t-6 21v1380q0 15 6 21t21 6h780q29 0 29 -27v-61q0 -27 -29 -27h-684v-543h629q29 0 29 -26v-58q0 -26 -29 -26h-629v-639q0 -15 -5.5 -21t-20.5 -6h-70z" />
    <glyph glyph-name="G" unicode="G" horiz-adv-x="1259" 
d="M573 -10q-430 0 -430 411v631q0 412 430 412h119q217 0 319.5 -97t102.5 -296v-11q0 -20 -20 -20h-82q-21 0 -21 20q0 153 -73 221t-228 68h-115q-159 0 -234 -72t-75 -227v-627q0 -155 75 -227t234 -72h109q159 0 234 72t75 227v263h-311q-29 0 -29 26v58q0 26 29 26
h403q13 0 22 -9t9 -22v-344q0 -411 -430 -411h-113z" />
    <glyph glyph-name="H" unicode="H" horiz-adv-x="1249" 
d="M1010 0q-15 0 -21 6t-6 21v639h-717v-639q0 -15 -5.5 -21t-20.5 -6h-70q-15 0 -21 6t-6 21v1380q0 15 6 21t21 6h70q15 0 20.5 -6t5.5 -21v-631h717v631q0 15 6 21t21 6h69q15 0 21 -6t6 -21v-1380q0 -15 -6 -21t-21 -6h-69z" />
    <glyph glyph-name="I" unicode="I" horiz-adv-x="409" 
d="M170 0q-15 0 -21 6t-6 21v1380q0 15 6 21t21 6h70q15 0 20.5 -6t5.5 -21v-1380q0 -15 -5.5 -21t-20.5 -6h-70z" />
    <glyph glyph-name="J" unicode="J" horiz-adv-x="737" 
d="M121 -10q-29 0 -29 26v62q0 26 29 26h41q159 0 234 72t75 227v1004q0 15 6 21t21 6h69q15 0 21 -6t6 -21v-1006q0 -411 -430 -411h-43z" />
    <glyph glyph-name="K" unicode="K" horiz-adv-x="1146" 
d="M170 0q-15 0 -21 6t-6 21v1380q0 15 6 21t21 6h70q15 0 20.5 -6t5.5 -21v-756l608 754q12 16 20.5 22.5t20.5 6.5h86q19 0 22.5 -12t-11.5 -31l-510 -623l557 -731q10 -12 5.5 -24.5t-22.5 -12.5h-75q-31 0 -54 29l-489 643l-158 -193v-452q0 -15 -5.5 -21t-20.5 -6h-70z
" />
    <glyph glyph-name="L" unicode="L" horiz-adv-x="1024" 
d="M172 0q-29 0 -29 27v1380q0 15 6 21t21 6h70q15 0 20.5 -6t5.5 -21v-1292h637q29 0 29 -27v-61q0 -27 -29 -27h-731z" />
    <glyph glyph-name="M" unicode="M" horiz-adv-x="1492" 
d="M170 0q-15 0 -21 6t-6 21v1380q0 15 6 21t21 6h162q28 0 37 -31l370 -1268h15l370 1268q9 31 37 31h162q15 0 21 -6t6 -21v-1380q0 -15 -6 -21t-21 -6h-70q-15 0 -20.5 6t-5.5 21v1265h-17l-370 -1261q-9 -31 -39 -31h-109q-30 0 -39 31l-370 1261h-17v-1265
q0 -15 -5.5 -21t-20.5 -6h-70z" />
    <glyph glyph-name="N" unicode="N" horiz-adv-x="1228" 
d="M170 0q-15 0 -21 6t-6 21v1380q0 15 6 21t21 6h149q25 0 37 -23l590 -1270h17v1266q0 15 5.5 21t20.5 6h70q15 0 20.5 -6t5.5 -21v-1380q0 -15 -5.5 -21t-20.5 -6h-150q-25 0 -37 23l-589 1269h-17v-1265q0 -15 -5.5 -21t-20.5 -6h-70z" />
    <glyph glyph-name="O" unicode="O" 
d="M573 -10q-430 0 -430 411v631q0 412 430 412h134q430 0 430 -412v-631q0 -411 -430 -411h-134zM266 403q0 -155 74.5 -227t234.5 -72h130q159 0 234 72t75 227v627q0 155 -75 227t-234 72h-130q-160 0 -234.5 -72t-74.5 -227v-627z" />
    <glyph glyph-name="P" unicode="P" horiz-adv-x="1187" 
d="M170 0q-15 0 -21 6t-6 21v1380q0 15 6 21t21 6h475q219 0 319.5 -97t100.5 -305v-198q0 -208 -100.5 -305t-319.5 -97h-379v-405q0 -15 -5.5 -21t-20.5 -6h-70zM266 547h377q159 0 229 67t70 222v194q0 155 -70 222t-229 67h-377v-772z" />
    <glyph glyph-name="Q" unicode="Q" 
d="M606 -186q-15 0 -20.5 5.5t-5.5 20.5v150h-7q-430 0 -430 411v631q0 412 430 412h134q430 0 430 -412v-631q0 -411 -430 -411h-5v-150q0 -15 -5.5 -20.5t-20.5 -5.5h-70zM266 403q0 -155 74.5 -227t234.5 -72h130q159 0 234 72t75 227v627q0 155 -75 227t-234 72h-130
q-160 0 -234.5 -72t-74.5 -227v-627z" />
    <glyph glyph-name="R" unicode="R" horiz-adv-x="1177" 
d="M170 0q-15 0 -21 6t-6 21v1380q0 15 6 21t21 6h475q219 0 319.5 -97t100.5 -305v-198q0 -294 -209 -371l205 -426q7 -17 0.5 -27t-23.5 -10h-65q-23 0 -35 23l-201 419q-45 -10 -96 -10h-375v-405q0 -15 -5.5 -21t-20.5 -6h-70zM266 547h377q159 0 229 67t70 222v194
q0 155 -70 222t-229 67h-377v-772z" />
    <glyph glyph-name="S" unicode="S" horiz-adv-x="1177" 
d="M543 -10q-210 0 -320 85.5t-110 272.5q0 31 30 31h62q31 0 31 -31q0 -129 79 -186.5t232 -57.5h102q147 0 220 63t73 204q0 61 -16 107t-41 75t-69 51t-85.5 33.5t-105.5 24.5l-84 16q-60 11 -98 20t-86 25t-78 34.5t-61.5 48.5t-49 67.5t-28.5 90.5t-11 119
q0 191 108.5 276t311.5 85h78q407 0 407 -369q0 -31 -30 -31h-62q-31 0 -31 31q0 135 -71.5 194.5t-214.5 59.5h-74q-151 0 -225 -56t-74 -194q0 -63 15 -110t37.5 -75.5t63.5 -49.5t78 -31t97 -22l84 -17q55 -11 90.5 -19t81.5 -21.5t76 -28.5t63.5 -37t54 -49.5
t38.5 -63.5t26 -82t8 -102q0 -381 -412 -381h-110z" />
    <glyph glyph-name="T" unicode="T" horiz-adv-x="1083" 
d="M508 0q-15 0 -21 6t-6 21v1292h-350q-29 0 -29 27v61q0 27 29 27h821q29 0 29 -27v-61q0 -27 -29 -27h-348v-1292q0 -15 -5.5 -21t-20.5 -6h-70z" />
    <glyph glyph-name="U" unicode="U" 
d="M573 -10q-430 0 -430 411v1006q0 15 6 21t21 6h70q15 0 20.5 -6t5.5 -21v-1004q0 -155 74.5 -227t234.5 -72h130q159 0 234 72t75 227v1004q0 15 5.5 21t20.5 6h70q15 0 21 -6t6 -21v-1006q0 -411 -430 -411h-134z" />
    <glyph glyph-name="V" unicode="V" horiz-adv-x="1204" 
d="M532 0q-26 0 -36 33l-412 1368q-9 33 22 33h70q26 0 35 -33l381 -1264h20l381 1264q9 33 35 33h70q31 0 22 -33l-411 -1368q-10 -33 -37 -33h-140z" />
    <glyph glyph-name="W" unicode="W" horiz-adv-x="1855" 
d="M442 0q-29 0 -36 33l-322 1368q-9 33 22 33h70q26 0 35 -33l293 -1262h18l330 1262q5 18 12 25.5t21 7.5h86q15 0 21.5 -7t11.5 -26l329 -1262h19l293 1262q5 18 12 25.5t22 7.5h70q32 0 23 -33l-322 -1368q-7 -33 -37 -33h-141q-27 0 -37 33l-297 1184h-20l-297 -1184
q-10 -33 -37 -33h-142z" />
    <glyph glyph-name="X" unicode="X" horiz-adv-x="1142" 
d="M121 0q-29 0 -12 29l393 688l-391 688q-17 29 12 29h84q14 0 21.5 -6t17.5 -23l319 -574h13l319 574q10 17 17.5 23t21.5 6h84q29 0 12 -29l-391 -688l393 -688q17 -29 -12 -29h-84q-14 0 -21.5 6t-17.5 23l-321 573h-13l-321 -573q-10 -17 -17.5 -23t-21.5 -6h-84z" />
    <glyph glyph-name="Y" unicode="Y" horiz-adv-x="1142" 
d="M86 1403q-16 31 14 31h84q14 0 21.5 -6.5t15.5 -22.5l344 -703h13l344 703q8 17 15 23t21 6h84q30 0 15 -31l-424 -854v-522q0 -15 -6 -21t-21 -6h-69q-15 0 -21 6t-6 21v522z" />
    <glyph glyph-name="Z" unicode="Z" horiz-adv-x="1064" 
d="M131 0q-29 0 -29 27v79q0 26 17 56l712 1143v14h-684q-28 0 -28 27v61q0 27 28 27h787q29 0 29 -27v-80q0 -25 -17 -55l-713 -1143v-14h699q29 0 29 -27v-61q0 -27 -29 -27h-801z" />
    <glyph glyph-name="bracketleft" unicode="[" horiz-adv-x="585" 
d="M174 -143q-31 0 -31 30v1712q0 31 31 31h272q15 0 21 -5.5t6 -20.5v-68q0 -15 -6 -21t-21 -6h-180v-1532h180q15 0 21 -5.5t6 -20.5v-68q0 -15 -6 -20.5t-21 -5.5h-272z" />
    <glyph glyph-name="backslash" unicode="\" horiz-adv-x="884" 
d="M741 -72q-24 0 -36 31l-650 1514q-12 30 19 30h69q25 0 37 -30l649 -1514q12 -31 -18 -31h-70z" />
    <glyph glyph-name="bracketright" unicode="]" horiz-adv-x="585" 
d="M139 -143q-15 0 -20.5 5.5t-5.5 20.5v68q0 15 5.5 20.5t20.5 5.5h180v1532h-180q-15 0 -20.5 6t-5.5 21v68q0 15 5.5 20.5t20.5 5.5h273q30 0 30 -31v-1712q0 -30 -30 -30h-273z" />
    <glyph glyph-name="asciicircum" unicode="^" horiz-adv-x="802" 
d="M127 932q-33 0 -21 31l216 493q14 31 40 31h78q27 0 41 -31l215 -493q12 -31 -20 -31h-76q-29 0 -41 31l-158 370l-157 -370q-12 -31 -41 -31h-76z" />
    <glyph glyph-name="underscore" unicode="_" horiz-adv-x="1187" 
d="M127 -109q-25 0 -25 25v59q0 25 25 25h934q24 0 24 -25v-59q0 -25 -24 -25h-934z" />
    <glyph glyph-name="grave" unicode="`" horiz-adv-x="526" 
d="M342 1124q-25 0 -51 37l-172 236q-11 17 -5.5 27t23.5 10h88q16 0 26 -8.5t21 -28.5l146 -236q9 -17 2 -27t-23 -10h-55z" />
    <glyph glyph-name="a" unicode="a" horiz-adv-x="1050" 
d="M823 0q-24 0 -24 25v135h-19q-131 -170 -348 -170h-10q-320 0 -320 301v49q0 258 314 258h383v90q0 59 -12 100t-42.5 72.5t-86 46.5t-138.5 15q-177 0 -284 -37q-21 -7 -25 14l-12 62q-3 18 12 24q118 47 311 47h39q185 0 271 -84t86 -252v-671q0 -25 -25 -25h-70z
M221 297q0 -102 52 -149.5t157 -47.5h66q121 0 212 79.5t91 178.5v142h-371q-104 0 -155.5 -37.5t-51.5 -130.5v-35z" />
    <glyph glyph-name="b" unicode="b" horiz-adv-x="1060" 
d="M526 -10q-183 0 -258 125h-16v-90q0 -25 -25 -25h-69q-25 0 -25 25v1384q0 25 25 25h69q25 0 25 -25v-502h16q75 125 258 125h72q170 0 260 -87.5t90 -258.5v-350q0 -171 -90 -258.5t-260 -87.5h-72zM252 340q0 -114 62.5 -177t179.5 -63h90q245 0 245 244v334
q0 244 -245 244h-90q-117 0 -179.5 -63t-62.5 -177v-342z" />
    <glyph glyph-name="c" unicode="c" horiz-adv-x="1013" 
d="M512 -10q-198 0 -298.5 90t-100.5 258v346q0 165 94.5 256.5t263.5 91.5h92q162 0 255 -80.5t93 -224.5v-12q0 -25 -24 -25h-68q-24 0 -24 25v10q0 92 -60.5 144.5t-171.5 52.5h-92q-117 0 -178.5 -63t-61.5 -177v-342q0 -116 69.5 -179t213.5 -63h14q118 0 174 24.5
t95 84.5q9 14 16.5 16.5t28.5 -4.5l39 -18q26 -13 14 -39q-42 -84 -129 -128t-238 -44h-16z" />
    <glyph glyph-name="d" unicode="d" horiz-adv-x="1060" 
d="M463 -10q-170 0 -260 87.5t-90 258.5v350q0 171 90 258.5t260 87.5h72q183 0 258 -125h16v502q0 25 25 25h69q25 0 25 -25v-1384q0 -25 -25 -25h-69q-25 0 -25 25v90h-16q-75 -125 -258 -125h-72zM231 344q0 -244 246 -244h90q117 0 179.5 63t62.5 177v342
q0 114 -62.5 177t-179.5 63h-90q-246 0 -246 -244v-334z" />
    <glyph glyph-name="e" unicode="e" horiz-adv-x="1034" 
d="M508 -10q-198 0 -296.5 91t-98.5 257v346q0 166 93.5 257t262.5 91h96q172 0 264.5 -89t92.5 -255v-164q0 -29 -17.5 -46t-48.5 -17h-625v-121q0 -114 69.5 -180t211.5 -66h20q175 0 287 78q18 12 29 -2l31 -41q12 -15 0 -27q-47 -47 -139.5 -79.5t-211.5 -32.5h-20z
M231 557h572v129q0 236 -240 236h-92q-118 0 -179 -63t-61 -177v-125z" />
    <glyph glyph-name="f" unicode="f" horiz-adv-x="716" 
d="M246 0q-25 0 -25 25v890h-115q-24 0 -24 25v59q0 25 24 25h115v94q0 316 293 316h100q31 0 31 -31v-49q0 -31 -31 -31h-90q-98 0 -141 -53t-43 -160v-86h272q25 0 25 -25v-59q0 -25 -25 -25h-272v-890q0 -25 -25 -25h-69z" />
    <glyph glyph-name="g" unicode="g" horiz-adv-x="1050" 
d="M502 -379q-97 0 -168 8q-41 6 -41 31v51q0 12 8.5 18.5t20.5 4.5q70 -6 194 -6q147 0 220 50.5t73 184.5v152h-16q-75 -125 -258 -125h-72q-170 0 -260 87.5t-90 258.5v350q0 171 90 258.5t260 87.5h72q183 0 258 -125h16v90q0 27 25 27h69q25 0 25 -27v-1034
q0 -188 -100.5 -265t-325.5 -77zM231 344q0 -244 246 -244h90q117 0 179.5 63t62.5 177v342q0 114 -62.5 177t-179.5 63h-90q-246 0 -246 -244v-334z" />
    <glyph glyph-name="h" unicode="h" horiz-adv-x="1081" 
d="M158 0q-25 0 -25 25v1384q0 25 25 25h69q25 0 25 -25v-502h20q41 59 111 92t162 33h67q174 0 255 -86t81 -260v-661q0 -25 -24 -25h-70q-25 0 -25 25v653q0 121 -58 182.5t-183 61.5h-74q-125 0 -193.5 -63.5t-68.5 -178.5v-655q0 -25 -25 -25h-69z" />
    <glyph glyph-name="i" unicode="i" horiz-adv-x="389" 
d="M158 1313q-25 0 -25 24v72q0 25 25 25h73q25 0 25 -25v-72q0 -24 -25 -24h-73zM135 25v974q0 25 25 25h69q25 0 25 -25v-974q0 -25 -25 -25h-69q-25 0 -25 25z" />
    <glyph glyph-name="j" unicode="j" horiz-adv-x="401" 
d="M170 1313q-25 0 -25 24v72q0 25 25 25h74q24 0 24 -25v-72q0 -24 -24 -24h-74zM-20 -338v45q0 29 34 29q75 0 105.5 33t30.5 122v1108q0 25 24 25h70q24 0 24 -25v-1122q0 -129 -49.5 -189.5t-161.5 -60.5q-43 0 -60 8t-17 27z" />
    <glyph glyph-name="k" unicode="k" horiz-adv-x="993" 
d="M158 0q-25 0 -25 25v1384q0 25 25 25h69q25 0 25 -25v-901l491 496q20 20 41 20h82q19 0 23 -13t-10 -26l-412 -407l457 -543q12 -13 6 -24t-25 -11h-71q-26 0 -48 25l-395 477l-139 -137v-340q0 -25 -25 -25h-69z" />
    <glyph glyph-name="l" unicode="l" horiz-adv-x="385" 
d="M158 0q-25 0 -25 25v1384q0 25 25 25h69q25 0 25 -25v-1384q0 -25 -25 -25h-69z" />
    <glyph glyph-name="m" unicode="m" horiz-adv-x="1699" 
d="M815 0q-24 0 -24 25v653q0 244 -228 244h-61q-117 0 -183.5 -64t-66.5 -178v-655q0 -25 -25 -25h-69q-25 0 -25 25v974q0 25 25 25h69q25 0 25 -25v-92h20q82 125 275 125h41q213 0 284 -151h15q83 151 317 151h41q322 0 322 -346v-661q0 -25 -25 -25h-69q-25 0 -25 25
v653q0 244 -227 244h-62q-117 0 -183.5 -64t-66.5 -178v-655q0 -25 -24 -25h-70z" />
    <glyph glyph-name="n" unicode="n" horiz-adv-x="1081" 
d="M158 0q-25 0 -25 25v974q0 25 25 25h69q25 0 25 -25v-92h20q41 59 111 92t162 33h67q174 0 255 -86t81 -260v-661q0 -25 -24 -25h-70q-25 0 -25 25v653q0 121 -58 182.5t-183 61.5h-74q-125 0 -193.5 -63.5t-68.5 -178.5v-655q0 -25 -25 -25h-69z" />
    <glyph glyph-name="o" unicode="o" horiz-adv-x="1040" 
d="M471 -10q-172 0 -265 89t-93 255v354q0 166 93 255t265 89h98q172 0 265.5 -89.5t93.5 -254.5v-354q0 -165 -94 -254.5t-265 -89.5h-98zM231 336q0 -114 60 -175t180 -61h98q120 0 180 61t60 175v350q0 114 -60 175t-180 61h-98q-120 0 -180 -61t-60 -175v-350z" />
    <glyph glyph-name="p" unicode="p" horiz-adv-x="1060" 
d="M158 -362q-25 0 -25 24v1337q0 25 25 25h69q25 0 25 -25v-92h16q75 125 258 125h72q170 0 260 -87.5t90 -258.5v-350q0 -171 -90 -258.5t-260 -87.5h-72q-183 0 -258 125h-16v-453q0 -24 -25 -24h-69zM252 340q0 -114 62.5 -177t179.5 -63h90q245 0 245 244v334
q0 244 -245 244h-90q-117 0 -179.5 -63t-62.5 -177v-342z" />
    <glyph glyph-name="q" unicode="q" horiz-adv-x="1060" 
d="M834 -362q-25 0 -25 24v453h-16q-75 -125 -258 -125h-72q-170 0 -260 87.5t-90 258.5v350q0 171 90 258.5t260 87.5h72q183 0 258 -125h16v92q0 25 25 25h69q25 0 25 -25v-1337q0 -24 -25 -24h-69zM231 344q0 -244 246 -244h90q117 0 179.5 63t62.5 177v342
q0 114 -62.5 177t-179.5 63h-90q-246 0 -246 -244v-334z" />
    <glyph glyph-name="r" unicode="r" horiz-adv-x="921" 
d="M158 0q-25 0 -25 25v974q0 25 25 25h69q25 0 25 -25v-92h20q39 59 107 92t158 33h45q258 0 258 -272v-23q0 -22 -23 -22h-65q-23 0 -23 22q0 185 -184 185h-47q-118 0 -182 -63.5t-64 -178.5v-655q0 -25 -25 -25h-69z" />
    <glyph glyph-name="s" unicode="s" horiz-adv-x="976" 
d="M440 -10q-160 0 -249 64.5t-89 191.5q0 28 27 28h66q23 0 26 -26q9 -77 61.5 -114.5t155.5 -37.5h86q232 0 232 185q0 35 -8.5 61.5t-28 45t-40 30.5t-56.5 20.5t-64.5 13t-75.5 9.5l-37 4q-84 9 -141.5 26t-103.5 49t-68 85t-22 129q0 278 338 278h69q155 0 244.5 -71
t89.5 -209q0 -29 -25 -29h-61q-15 0 -22.5 7t-8.5 24q-8 89 -60.5 130.5t-160.5 41.5h-61q-112 0 -168 -39.5t-56 -132.5q0 -96 59.5 -136t188.5 -53l39 -4q71 -8 120.5 -17.5t97.5 -29.5t76.5 -49t46 -75t17.5 -109q0 -291 -350 -291h-84z" />
    <glyph glyph-name="t" unicode="t" horiz-adv-x="624" 
d="M444 -10q-112 0 -161.5 60.5t-49.5 189.5v675h-137q-24 0 -24 25v59q0 25 24 25h137v190q0 25 25 25h70q24 0 24 -25v-190h156q24 0 24 -25v-59q0 -25 -24 -25h-156v-661q0 -89 30 -122.5t105 -33.5q35 0 35 -28v-45q0 -19 -17 -27t-61 -8z" />
    <glyph glyph-name="u" unicode="u" horiz-adv-x="1081" 
d="M469 -8q-174 0 -255 86t-81 260v661q0 25 25 25h69q25 0 25 -25v-653q0 -121 58.5 -182.5t183.5 -61.5h73q125 0 193.5 63.5t68.5 178.5v655q0 25 25 25h70q24 0 24 -25v-974q0 -25 -24 -25h-70q-25 0 -25 25v92h-20q-41 -59 -111 -92t-161 -33h-68z" />
    <glyph glyph-name="v" unicode="v" horiz-adv-x="1011" 
d="M451 0q-30 0 -41 33l-326 960q-10 31 16 31h74q16 0 22 -6.5t11 -22.5l293 -878h12l293 878q5 16 11 22.5t22 6.5h73q27 0 17 -31l-326 -960q-11 -33 -41 -33h-110z" />
    <glyph glyph-name="w" unicode="w" horiz-adv-x="1499" 
d="M365 0q-32 0 -41 33l-240 960q-7 31 18 31h72q24 0 31 -31l213 -874h8l248 874q5 16 11 23.5t20 7.5h90q9 0 15.5 -4.5t8.5 -9.5t6 -17l248 -874h8l213 874q7 31 31 31h72q25 0 18 -31l-239 -960q-9 -33 -41 -33h-111q-32 0 -41 33l-229 823h-9l-229 -823q-9 -33 -41 -33
h-110z" />
    <glyph glyph-name="x" unicode="x" horiz-adv-x="915" 
d="M106 0q-18 0 -23 9.5t3 21.5l297 487l-289 475q-8 12 -3.5 21.5t22.5 9.5h71q14 0 22.5 -6t18.5 -23l226 -379h14l225 379q10 17 18.5 23t22.5 6h72q18 0 22 -9.5t-4 -21.5l-289 -475l297 -487q8 -12 2.5 -21.5t-24.5 -9.5h-68q-23 0 -41 29l-233 393h-14l-234 -393
q-18 -29 -41 -29h-70z" />
    <glyph glyph-name="y" unicode="y" horiz-adv-x="1062" 
d="M369 -362q-14 0 -19 9t0 21l119 309l-385 1016q-10 31 16 31h76q14 0 20 -7t13 -26l315 -854h13l315 854q7 19 13 26t20 7h78q26 0 16 -31l-506 -1325q-11 -30 -33 -30h-71z" />
    <glyph glyph-name="z" unicode="z" horiz-adv-x="870" 
d="M106 0q-24 0 -24 25v73q0 18 10 31l557 774v12h-520q-25 0 -25 25v59q0 25 25 25h625q24 0 24 -25v-81q0 -14 -10 -27l-555 -770v-12h541q24 0 24 -25v-59q0 -25 -24 -25h-648z" />
    <glyph glyph-name="braceleft" unicode="{" horiz-adv-x="729" 
d="M537 -143q-161 0 -235.5 82t-74.5 276v356q0 20 -14 37l-92 113q-19 23 0 45l92 113q14 17 14 36v357q0 194 74.5 276t235.5 82h51q28 0 28 -31v-61q0 -31 -28 -31h-45q-103 0 -148 -55.5t-45 -179.5v-377q0 -20 -14 -37l-90 -115l92 -114q12 -14 12 -37v-377
q0 -124 45 -179.5t148 -55.5h45q28 0 28 -31v-62q0 -30 -28 -30h-51z" />
    <glyph glyph-name="bar" unicode="|" horiz-adv-x="450" 
d="M195 -410q-31 0 -31 31v1987q0 30 31 30h61q31 0 31 -30v-1987q0 -31 -31 -31h-61z" />
    <glyph glyph-name="braceright" unicode="}" horiz-adv-x="729" 
d="M141 -143q-28 0 -28 30v62q0 31 28 31h45q103 0 148 55.5t45 179.5v377q0 23 12 37l92 114l-90 115q-14 17 -14 37v377q0 124 -45 179.5t-148 55.5h-45q-28 0 -28 31v61q0 31 28 31h52q160 0 234.5 -82t74.5 -276v-357q0 -19 14 -36l92 -113q19 -22 0 -45l-92 -113
q-14 -17 -14 -37v-356q0 -194 -74.5 -276t-234.5 -82h-52z" />
    <glyph glyph-name="asciitilde" unicode="~" horiz-adv-x="1075" 
d="M170 588q-20 -14 -35 16l-29 55q-13 23 21 46q102 74 215.5 76.5t216.5 -64.5q99 -61 171.5 -58.5t174.5 70.5q20 13 35 -16l29 -56q13 -23 -21 -45q-102 -74 -215.5 -76.5t-216.5 64.5q-99 61 -171.5 58.5t-174.5 -70.5z" />
    <glyph glyph-name="exclamdown" unicode="&#xa1;" horiz-adv-x="419" 
d="M172 -410q-15 0 -21 6t-6 21v1047q0 15 6 20.5t21 5.5h76q15 0 20.5 -5.5t5.5 -20.5v-1047q0 -15 -5.5 -21t-20.5 -6h-76zM143 918v79q0 15 6 21t21 6h80q15 0 20.5 -6t5.5 -21v-79q0 -15 -5.5 -21t-20.5 -6h-80q-15 0 -21 6t-6 21z" />
    <glyph glyph-name="cent" unicode="&#xa2;" horiz-adv-x="1013" 
d="M500 -145q-25 0 -25 24v111q-181 9 -271.5 98.5t-90.5 249.5v346q0 165 94.5 256.5t263.5 91.5h4v109q0 24 25 24h35q24 0 24 -24v-109h4q162 0 255 -80.5t93 -224.5v-12q0 -25 -24 -25h-68q-24 0 -24 25v10q0 92 -60.5 144.5t-171.5 52.5h-4v-824q102 3 152.5 27.5
t85.5 81.5q9 14 16.5 16.5t28.5 -4.5l39 -18q26 -13 14 -39q-41 -80 -120.5 -124t-215.5 -48v-111q0 -24 -24 -24h-35zM231 340q0 -108 60 -170.5t184 -69.5v822h-4q-117 0 -178.5 -63t-61.5 -177v-342z" />
    <glyph glyph-name="sterling" unicode="&#xa3;" horiz-adv-x="1150" 
d="M815 -12q-80 0 -192.5 42t-176.5 42q-97 0 -229 -74q-9 -5 -32 19t-40 53.5t-10 38.5q79 108 119.5 197t40.5 208q0 64 -12 119h-156q-25 0 -25 24v60q0 24 25 24h125q-6 18 -29 80t-32 91t-19 81.5t-10 100.5q0 170 101 260t300 90h78q194 0 301 -90t107 -279v-31
q0 -24 -25 -24h-70q-24 0 -24 24q0 154 -70.5 220.5t-222.5 66.5h-64q-150 0 -221 -61t-71 -183q0 -43 9.5 -91t21 -81t31.5 -89t30 -85h284q25 0 25 -24v-60q0 -24 -25 -24h-256q13 -63 13 -121q0 -103 -34.5 -194t-100.5 -187q95 53 192 53q72 0 167.5 -37.5t164.5 -37.5
q92 0 205 49q30 12 30 -17v-80q0 -11 -7 -17t-23 -13q-101 -43 -193 -43z" />
    <glyph glyph-name="currency" unicode="&#xa4;" horiz-adv-x="1294" 
d="M123 45q-21 21 0 43l141 139q-14 46 -14 111v344q0 68 14 117l-141 139q-21 22 0 43l43 43q22 22 43 0l115 -113q91 105 274 105h96q187 0 277 -107l114 115q21 22 43 0l43 -43q21 -21 0 -43l-143 -141q14 -49 14 -115v-344q0 -58 -12 -111l141 -139q21 -22 0 -43
l-43 -43q-22 -22 -43 0l-112 111q-89 -109 -279 -109h-96q-190 0 -279 109l-110 -111q-21 -22 -43 0zM367 340q0 -110 58 -168.5t173 -58.5h96q117 0 175.5 58.5t58.5 168.5v340q0 111 -58.5 170t-175.5 59h-96q-115 0 -173 -59t-58 -170v-340z" />
    <glyph glyph-name="yen" unicode="&#xa5;" horiz-adv-x="1142" 
d="M287 440q-25 0 -25 25v43q0 24 25 24h223v17l-424 854q-16 31 14 31h84q14 0 21.5 -6.5t15.5 -22.5l344 -703h13l344 703q8 17 15 23t21 6h84q30 0 15 -31l-424 -854v-17h225q25 0 25 -24v-43q0 -25 -25 -25h-225v-80h225q25 0 25 -24v-43q0 -25 -25 -25h-225v-241
q0 -15 -6 -21t-21 -6h-69q-15 0 -21 6t-6 21v241h-223q-25 0 -25 25v43q0 24 25 24h223v80h-223z" />
    <glyph glyph-name="brokenbar" unicode="&#xa6;" horiz-adv-x="450" 
d="M195 772q-31 0 -31 31v661q0 31 31 31h61q31 0 31 -31v-661q0 -31 -31 -31h-61zM164 -236v662q0 31 31 31h61q31 0 31 -31v-662q0 -30 -31 -30h-61q-31 0 -31 30z" />
    <glyph glyph-name="section" unicode="&#xa7;" horiz-adv-x="976" 
d="M442 -45q-158 0 -249 64.5t-91 191.5q0 29 27 29h68q23 0 26 -27q18 -152 219 -152h82q232 0 232 185q0 101 -51 141.5t-189 40.5h-70q-335 0 -335 291q0 166 145 219q-145 72 -145 252q0 278 338 278h67q153 0 244.5 -71.5t91.5 -208.5q0 -29 -25 -29h-63q-28 0 -31 29
q-9 89 -62 131.5t-159 42.5h-59q-112 0 -168 -39.5t-56 -132.5q0 -101 58.5 -148t179.5 -47h70q170 0 253.5 -62.5t83.5 -215.5q0 -180 -137 -234q137 -58 137 -237q0 -291 -350 -291h-82zM229 717q0 -101 54.5 -143t175.5 -42h67q121 0 175.5 42t54.5 143q0 99 -53.5 136.5
t-176.5 37.5h-67q-123 0 -176.5 -37.5t-53.5 -136.5z" />
    <glyph glyph-name="dieresis" unicode="&#xa8;" horiz-adv-x="860" 
d="M651 1300q-15 0 -20.5 6t-5.5 21v80q0 15 5.5 21t20.5 6h80q15 0 21 -6t6 -21v-80q0 -15 -6 -21t-21 -6h-80zM102 1327v80q0 15 6 21t21 6h80q15 0 21 -6t6 -21v-80q0 -15 -6 -21t-21 -6h-80q-15 0 -21 6t-6 21z" />
    <glyph glyph-name="copyright" unicode="&#xa9;" horiz-adv-x="1464" 
d="M594 -10q-217 0 -334 113.5t-117 318.5v590q0 205 117 318.5t334 113.5h276q216 0 333.5 -113.5t117.5 -318.5v-590q0 -205 -117.5 -318.5t-333.5 -113.5h-276zM334 524q0 -165 99.5 -246t301.5 -81h17q153 0 239.5 43.5t124.5 128.5q12 27 -14 39l-39 18q-29 13 -45 -12
q-37 -60 -91.5 -84.5t-172.5 -24.5h-15q-148 0 -217 54t-69 167v383q0 219 239 219h92q112 0 172 -49.5t60 -140.5v-12q0 -27 24 -27h68q25 0 25 27v16q0 143 -93 220t-256 77h-92q-172 0 -265 -82.5t-93 -245.5v-387z" />
    <glyph glyph-name="ordfeminine" unicode="&#xaa;" horiz-adv-x="649" 
d="M479 920q-14 0 -14 20v43q-63 -63 -150 -63h-28q-185 0 -185 159q0 160 185 160h178q0 65 -26 92t-81 27h-32q-73 0 -140 -31q-22 -10 -30 6l-17 37q-9 19 11 29q85 45 180 45h32q88 0 136.5 -53t48.5 -154v-297q0 -20 -15 -20h-53zM188 1079q0 -41 25.5 -56t79.5 -15h29
q90 0 143 43v104h-172q-105 0 -105 -76z" />
    <glyph glyph-name="guillemotleft" unicode="&#xab;" horiz-adv-x="1126" 
d="M596 446q-10 8 -13 10.5t-8.5 8.5t-7.5 12.5t-2 14.5v69q0 11 5 19.5t9 12t17 13.5l381 279q13 10 25 4t12 -21v-77q0 -14 -8 -23t-29 -23l-301 -219l301 -219q15 -10 20.5 -14.5t11 -12.5t5.5 -18v-78q0 -15 -12 -20.5t-25 4.5zM113 492v69q0 11 4.5 19.5t9 12
t16.5 13.5l381 279q14 10 25.5 4t11.5 -21v-77q0 -14 -8 -23t-29 -23l-301 -219l301 -219q15 -10 20.5 -14.5t11 -12.5t5.5 -18v-78q0 -15 -11.5 -20.5t-25.5 4.5l-381 278q-12 9 -16.5 13.5t-9 13t-4.5 19.5z" />
    <glyph glyph-name="logicalnot" unicode="&#xac;" horiz-adv-x="1003" 
d="M131 600q-29 0 -29 27v69q0 27 29 27h743q15 0 21 -6t6 -21v-432q0 -28 -27 -28h-69q-27 0 -27 28v336h-647z" />
    <glyph glyph-name="uni00AD" unicode="&#xad;" horiz-adv-x="737" 
d="M127 465q-25 0 -25 24v60q0 24 25 24h483q25 0 25 -24v-60q0 -24 -25 -24h-483z" />
    <glyph glyph-name="registered" unicode="&#xae;" horiz-adv-x="1464" 
d="M594 -10q-217 0 -334 113.5t-117 318.5v590q0 205 117 318.5t334 113.5h276q216 0 333.5 -113.5t117.5 -318.5v-590q0 -205 -117.5 -318.5t-333.5 -113.5h-276zM379 250q0 -25 22 -25h70q25 0 25 25v383h344q89 0 130.5 -44.5t41.5 -135.5v-197q0 -31 30 -31h56
q28 0 28 31v195q0 187 -137 237v10q129 55 129 242q0 143 -66.5 212t-211.5 69h-439q-22 0 -22 -25v-946zM496 737v373h354q81 0 117.5 -42t36.5 -128q0 -100 -38.5 -151.5t-125.5 -51.5h-344z" />
    <glyph glyph-name="macron" unicode="&#xaf;" horiz-adv-x="929" 
d="M131 1317q-29 0 -29 29v59q0 29 29 29h668q28 0 28 -29v-59q0 -29 -28 -29h-668z" />
    <glyph glyph-name="degree" unicode="&#xb0;" horiz-adv-x="645" 
d="M281 819q-87 0 -133 48t-46 132v254q0 84 46 132.5t133 48.5h84q87 0 132.5 -48.5t45.5 -132.5v-254q0 -84 -45.5 -132t-132.5 -48h-84zM203 999q0 -81 90 -81h57q92 0 92 81v254q0 82 -92 82h-57q-90 0 -90 -82v-254z" />
    <glyph glyph-name="plusminus" unicode="&#xb1;" horiz-adv-x="1024" 
d="M141 0q-28 0 -28 29v57q0 29 28 29h744q26 0 26 -29v-57q0 -16 -5.5 -22.5t-22.5 -6.5h-742zM102 709v69q0 27 29 27h320v334q0 15 5.5 21.5t20.5 6.5h70q15 0 20.5 -6.5t5.5 -21.5v-334h322q15 0 21 -6t6 -21v-69q0 -15 -6 -21t-23 -6h-320v-336q0 -29 -26 -29h-70
q-26 0 -26 29v336h-320q-29 0 -29 27z" />
    <glyph glyph-name="uni00B2" unicode="&#xb2;" horiz-adv-x="655" 
d="M158 799q-31 0 -31 30v68q0 20 6 31t23 26l178 168q23 22 35.5 35t24.5 35.5t12 44.5q0 38 -22.5 59t-61.5 21q-35 0 -55.5 -17t-20.5 -49v-14q0 -31 -31 -31h-61q-31 0 -31 31v27q0 75 48.5 122.5t131.5 47.5h51q86 0 131 -53.5t45 -131.5q0 -71 -34.5 -122t-100.5 -107
l-114 -100h221q30 0 30 -31v-60q0 -30 -30 -30h-344z" />
    <glyph glyph-name="uni00B3" unicode="&#xb3;" horiz-adv-x="661" 
d="M307 799q-86 0 -135 47.5t-49 122.5v26q0 31 31 31h61q31 0 31 -31v-16q0 -64 84 -64q41 0 62.5 20.5t21.5 57.5q0 35 -18.5 52.5t-61.5 17.5h-33q-29 0 -29 31v45q0 30 29 30h33q76 0 76 70q0 37 -21 57.5t-59 20.5q-80 0 -80 -64v-16q0 -31 -31 -31h-61q-31 0 -31 31
v27q0 75 48.5 122.5t131.5 47.5h51q83 0 127.5 -52.5t44.5 -124.5q0 -97 -86 -141q99 -46 99 -141q0 -73 -47 -124.5t-138 -51.5h-51z" />
    <glyph glyph-name="acute" unicode="&#xb4;" horiz-adv-x="526" 
d="M129 1124q-16 0 -22.5 10t2.5 27l145 236q21 37 45 37h88q18 0 25 -10t-4 -27l-172 -236q-26 -37 -52 -37h-55z" />
    <glyph glyph-name="uni00B5" unicode="&#xb5;" horiz-adv-x="1081" 
d="M164 -410q-31 0 -31 31v1378q0 25 25 25h69q25 0 25 -25v-653q0 -121 58.5 -182.5t183.5 -61.5h73q125 0 193.5 63.5t68.5 178.5v655q0 25 25 25h70q24 0 24 -25v-974q0 -25 -24 -25h-70q-25 0 -25 25v92h-20q-83 -125 -266 -125h-68q-156 0 -225 110v-481q0 -31 -31 -31
h-55z" />
    <glyph glyph-name="paragraph" unicode="&#xb6;" horiz-adv-x="1208" 
d="M563 432q-219 0 -319.5 97t-100.5 305v198q0 208 100.5 305t319.5 97h475q15 0 21 -6t6 -21v-1380q0 -15 -6 -21t-21 -6h-69q-15 0 -21 6t-6 21v405h-149v-405q0 -15 -6 -21t-21 -6h-70q-15 0 -20.5 6t-5.5 21v405h-107zM266 836q0 -155 70 -222t229 -67h105v772h-105
q-159 0 -229 -67t-70 -222v-194zM793 547h149v772h-149v-772z" />
    <glyph glyph-name="periodcentered" unicode="&#xb7;" horiz-adv-x="337" 
d="M129 444q-15 0 -21 6t-6 21v80q0 15 6 21t21 6h80q15 0 21 -6t6 -21v-80q0 -15 -6 -21t-21 -6h-80z" />
    <glyph glyph-name="cedilla" unicode="&#xb8;" horiz-adv-x="653" 
d="M279 -410q-96 0 -136.5 39t-40.5 117q0 25 23 25h57q8 0 14.5 -5t6.5 -12q0 -42 23.5 -61t80.5 -19h41q55 0 78 16t23 52t-24 52t-79 16h-104q-34 0 -56 18t-22 51q0 25 17 52t61 69h116q-111 -92 -54 -111q12 -4 30 -4h63q75 0 114.5 -30.5t39.5 -114.5
q0 -78 -41.5 -114t-138.5 -36h-92z" />
    <glyph glyph-name="uni00B9" unicode="&#xb9;" horiz-adv-x="618" 
d="M276 801q-30 0 -30 30v572q0 31 30 31h66q31 0 31 -31v-572q0 -30 -31 -30h-66z" />
    <glyph glyph-name="ordmasculine" unicode="&#xba;" horiz-adv-x="686" 
d="M309 920q-90 0 -148.5 60t-58.5 150v105q0 88 58.5 148.5t148.5 60.5h68q88 0 147.5 -61t59.5 -148v-105q0 -90 -59 -150t-148 -60h-68zM190 1130q0 -56 33 -90t88 -34h64q53 0 88 34.5t35 89.5v105q0 55 -35 89t-88 34h-64q-55 0 -88 -33.5t-33 -89.5v-105z" />
    <glyph glyph-name="guillemotright" unicode="&#xbb;" horiz-adv-x="1126" 
d="M150 168q-14 -10 -25.5 -4.5t-11.5 20.5v78q0 10 5.5 18t11 12.5t20.5 14.5l301 219l-301 219q-21 14 -29 23t-8 23v77q0 15 11.5 21t25.5 -4l380 -279q1 -1 5 -4t5 -4t4.5 -3.5t4.5 -3.5t3.5 -4t3 -4.5t2 -4t2 -5t1 -6t0.5 -6.5v-69q0 -11 -5 -19.5t-9.5 -12.5
t-16.5 -14zM565 184v78q0 10 5.5 18t11 12.5t20.5 14.5l301 219l-301 219q-21 14 -29 23t-8 23v77q0 15 11.5 21t25.5 -4l381 -279q1 -1 5 -4t5 -4t4.5 -3.5t4.5 -3.5t3.5 -4t3 -4.5t2 -4t2 -5t1 -6t0.5 -6.5v-69q0 -11 -5 -19.5t-9.5 -12.5t-16.5 -14l-381 -278
q-14 -10 -25.5 -4.5t-11.5 20.5z" />
    <glyph glyph-name="onequarter" unicode="&#xbc;" horiz-adv-x="1564" 
d="M276 801q-30 0 -30 30v572q0 31 30 31h66q31 0 31 -31v-572q0 -30 -31 -30h-66zM264 31l828 1372q10 17 18.5 24t22.5 7h77q16 0 22.5 -8t-1.5 -23l-828 -1372q-10 -17 -18.5 -24t-22.5 -7h-77q-16 0 -22.5 8t1.5 23zM999 135v51q0 15 11 37l204 389q12 23 35 23h103
q30 0 30 -31v-383h29q31 0 31 -31v-55q0 -31 -31 -31h-29v-73q0 -31 -30 -31h-62q-30 0 -30 31v73h-226q-35 0 -35 31zM1141 225h119v240z" />
    <glyph glyph-name="onehalf" unicode="&#xbd;" horiz-adv-x="1531" 
d="M276 801q-30 0 -30 30v572q0 31 30 31h66q31 0 31 -31v-572q0 -30 -31 -30h-66zM264 31l828 1372q10 17 18.5 24t22.5 7h77q16 0 22.5 -8t-1.5 -23l-828 -1372q-10 -17 -18.5 -24t-22.5 -7h-77q-16 0 -22.5 8t1.5 23zM999 438v27q0 75 49 122.5t132 47.5h51q86 0 131 -53
t45 -131q0 -71 -35 -123t-100 -107l-115 -100h221q31 0 31 -31v-59q0 -31 -31 -31h-344q-30 0 -30 31v67q0 21 6 32.5t22 25.5l178 168q24 23 35.5 35t24 34.5t12.5 44.5q0 38 -22.5 59t-61.5 21q-35 0 -55.5 -17t-20.5 -48v-15q0 -30 -30 -30h-62q-31 0 -31 30z" />
    <glyph glyph-name="threequarters" unicode="&#xbe;" horiz-adv-x="1607" 
d="M307 799q-86 0 -135 47.5t-49 122.5v26q0 31 31 31h61q31 0 31 -31v-16q0 -64 84 -64q41 0 62.5 20.5t21.5 57.5q0 35 -18.5 52.5t-61.5 17.5h-33q-29 0 -29 31v45q0 30 29 30h33q76 0 76 70q0 37 -21 57.5t-59 20.5q-80 0 -80 -64v-16q0 -31 -31 -31h-61q-31 0 -31 31
v27q0 75 48.5 122.5t131.5 47.5h51q83 0 127.5 -52.5t44.5 -124.5q0 -97 -86 -141q99 -46 99 -141q0 -73 -47 -124.5t-138 -51.5h-51zM307 31l828 1372q10 17 18.5 24t22.5 7h77q16 0 22.5 -8t-1.5 -23l-828 -1372q-10 -17 -18 -24t-22 -7h-78q-16 0 -22.5 8t1.5 23z
M1042 135v51q0 15 11 37l204 389q11 23 35 23h103q30 0 30 -31v-383h29q31 0 31 -31v-55q0 -31 -31 -31h-29v-73q0 -31 -30 -31h-62q-30 0 -30 31v73h-226q-35 0 -35 31zM1184 225h119v240z" />
    <glyph glyph-name="questiondown" unicode="&#xbf;" horiz-adv-x="1062" 
d="M616 690q15 0 21 -5.5t6 -20.5v-134q0 -57 -11.5 -94t-44 -67t-74 -50.5t-118.5 -50.5q-97 -37 -127 -59q-62 -46 -74 -151q-4 -34 -4 -78q0 -152 65.5 -217.5t215.5 -65.5h107q154 0 224 64.5t70 218.5q0 24 25 24h70q24 0 24 -24v-31q0 -188 -108.5 -278.5
t-302.5 -90.5h-109q-202 0 -300.5 98t-98.5 302q0 59 6 105t15 80t28.5 61.5t37 45.5t49.5 36t57.5 29t70.5 28q111 41 147.5 77t36.5 111v111q0 15 6 20.5t21 5.5h69zM512 918v79q0 15 6 21t21 6h79q15 0 21 -6t6 -21v-79q0 -15 -6 -21t-21 -6h-79q-15 0 -21 6t-6 21z" />
    <glyph glyph-name="Agrave" unicode="&#xc0;" horiz-adv-x="1204" 
d="M672 1434q27 0 37 -33l411 -1368q9 -33 -22 -33h-70q-26 0 -35 33l-82 270h-618l-82 -270q-9 -33 -35 -33h-70q-31 0 -22 33l412 1368q10 33 36 33h140zM326 412h553l-267 884h-20zM356 1806q-11 17 -5 27t24 10h88q16 0 26 -8.5t21 -28.5l145 -235q9 -17 2.5 -27
t-22.5 -10h-55q-26 0 -52 37z" />
    <glyph glyph-name="Aacute" unicode="&#xc1;" horiz-adv-x="1204" 
d="M672 1434q27 0 37 -33l411 -1368q9 -33 -22 -33h-70q-26 0 -35 33l-82 270h-618l-82 -270q-9 -33 -35 -33h-70q-31 0 -22 33l412 1368q10 33 36 33h140zM326 412h553l-267 884h-20zM551 1571l145 235q21 37 45 37h88q18 0 25 -10t-4 -27l-172 -235q-26 -37 -51 -37h-56
q-16 0 -22.5 10t2.5 27z" />
    <glyph glyph-name="Acircumflex" unicode="&#xc2;" horiz-adv-x="1204" 
d="M672 1434q27 0 37 -33l411 -1368q9 -33 -22 -33h-70q-26 0 -35 33l-82 270h-618l-82 -270q-9 -33 -35 -33h-70q-31 0 -22 33l412 1368q10 33 36 33h140zM287 1571l215 246q23 26 51 26h68q37 0 57 -26l215 -246q11 -12 7 -22.5t-19 -10.5h-70q-28 0 -49 27l-162 184h-20
l-162 -184q-21 -27 -49 -27h-70q-15 0 -19 10.5t7 22.5zM326 412h553l-267 884h-20z" />
    <glyph glyph-name="Atilde" unicode="&#xc3;" horiz-adv-x="1204" 
d="M672 1434q27 0 37 -33l411 -1368q9 -33 -22 -33h-70q-26 0 -35 33l-82 270h-618l-82 -270q-9 -33 -35 -33h-70q-31 0 -22 33l412 1368q10 33 36 33h140zM270 1767q-9 18 15 33q83 53 168 53q44 0 87 -15.5t71.5 -33.5t68.5 -33.5t80 -15.5q60 0 119 39q21 13 30 -8
l25 -51q9 -18 -14 -33q-83 -53 -168 -53q-56 0 -107.5 24.5t-101 49t-99.5 24.5q-55 0 -118 -39q-22 -14 -31 8zM326 412h553l-267 884h-20z" />
    <glyph glyph-name="Adieresis" unicode="&#xc4;" horiz-adv-x="1204" 
d="M672 1434q27 0 37 -33l411 -1368q9 -33 -22 -33h-70q-26 0 -35 33l-82 270h-618l-82 -270q-9 -33 -35 -33h-70q-31 0 -22 33l412 1368q10 33 36 33h140zM274 1737v80q0 15 6 20.5t21 5.5h80q15 0 21 -5.5t6 -20.5v-80q0 -15 -6 -21t-21 -6h-80q-15 0 -21 6t-6 21z
M326 412h553l-267 884h-20zM797 1737v80q0 15 5.5 20.5t20.5 5.5h80q15 0 21 -5.5t6 -20.5v-80q0 -15 -6 -21t-21 -6h-80q-15 0 -20.5 6t-5.5 21z" />
    <glyph glyph-name="Aring" unicode="&#xc5;" horiz-adv-x="1204" 
d="M672 1434q27 0 37 -33l411 -1368q9 -33 -22 -33h-70q-26 0 -35 33l-82 270h-618l-82 -270q-9 -33 -35 -33h-70q-31 0 -22 33l412 1368q10 33 36 33h140zM326 412h553l-267 884h-20zM418 1681v25q0 71 49 119.5t123 48.5h24q74 0 123 -48.5t49 -119.5v-25
q0 -71 -49 -119.5t-123 -48.5h-24q-74 0 -123 48.5t-49 119.5zM504 1686q0 -40 24 -64.5t66 -24.5h16q42 0 66 24.5t24 64.5v16q0 40 -24 64t-66 24h-16q-42 0 -66 -24t-24 -64v-16z" />
    <glyph glyph-name="AE" unicode="&#xc6;" horiz-adv-x="1822" 
d="M82 0q-15 0 -19.5 9t3.5 22l765 1372q10 17 18.5 24t22.5 7h836q29 0 29 -27v-61q0 -27 -29 -27h-684v-543h627q15 0 21.5 -5.5t6.5 -20.5v-58q0 -15 -6.5 -20.5t-21.5 -5.5h-627v-551h688q29 0 29 -27v-61q0 -27 -29 -27h-782q-29 0 -29 27v276h-549l-151 -272
q-10 -17 -18.5 -24t-22.5 -7h-78zM412 412h489v880z" />
    <glyph glyph-name="Ccedilla" unicode="&#xc7;" horiz-adv-x="1239" 
d="M573 -10q-430 0 -430 411v631q0 412 430 412h119q217 0 320.5 -97t103.5 -296v-11q0 -20 -20 -20h-82q-21 0 -21 20q0 153 -74 221t-229 68h-115q-159 0 -234 -72t-75 -227v-627q0 -155 75 -227t234 -72h115q154 0 228.5 65t74.5 206q0 20 21 20h82q20 0 20 -20v-10
q0 -188 -104 -281.5t-322 -93.5q-98 -85 -40 -102q11 -3 28 -3h63q75 0 114.5 -30.5t39.5 -114.5q0 -78 -41.5 -114t-138.5 -36h-92q-96 0 -136.5 39t-40.5 117q0 25 23 25h57q8 0 14.5 -5t6.5 -12q0 -42 23.5 -61t80.5 -19h41q55 0 78 16t23 52t-24 52t-79 16h-104
q-34 0 -56 18t-22 51q0 44 67 111h-2z" />
    <glyph glyph-name="Egrave" unicode="&#xc8;" horiz-adv-x="1064" 
d="M172 0q-29 0 -29 27v1380q0 27 29 27h778q29 0 29 -27v-61q0 -27 -29 -27h-684v-543h627q29 0 29 -26v-58q0 -26 -29 -26h-627v-551h688q29 0 29 -27v-61q0 -27 -29 -27h-782zM324 1806q-11 17 -5.5 27t23.5 10h88q16 0 26 -8.5t21 -28.5l146 -235q9 -17 2 -27t-23 -10
h-55q-25 0 -51 37z" />
    <glyph glyph-name="Eacute" unicode="&#xc9;" horiz-adv-x="1064" 
d="M172 0q-29 0 -29 27v1380q0 27 29 27h778q29 0 29 -27v-61q0 -27 -29 -27h-684v-543h627q29 0 29 -26v-58q0 -26 -29 -26h-627v-551h688q29 0 29 -27v-61q0 -27 -29 -27h-782zM518 1571l146 235q21 37 45 37h88q18 0 24.5 -10t-4.5 -27l-172 -235q-26 -37 -51 -37h-55
q-16 0 -23 10t2 27z" />
    <glyph glyph-name="Ecircumflex" unicode="&#xca;" horiz-adv-x="1064" 
d="M172 0q-29 0 -29 27v1380q0 27 29 27h778q29 0 29 -27v-61q0 -27 -29 -27h-684v-543h627q29 0 29 -26v-58q0 -26 -29 -26h-627v-551h688q29 0 29 -27v-61q0 -27 -29 -27h-782zM254 1571l215 246q23 26 51 26h68q37 0 57 -26l215 -246q11 -12 7 -22.5t-19 -10.5h-70
q-28 0 -49 27l-162 184h-20l-162 -184q-21 -27 -49 -27h-70q-15 0 -19 10.5t7 22.5z" />
    <glyph glyph-name="Edieresis" unicode="&#xcb;" horiz-adv-x="1064" 
d="M172 0q-29 0 -29 27v1380q0 27 29 27h778q29 0 29 -27v-61q0 -27 -29 -27h-684v-543h627q29 0 29 -26v-58q0 -26 -29 -26h-627v-551h688q29 0 29 -27v-61q0 -27 -29 -27h-782zM242 1737v80q0 15 5.5 20.5t20.5 5.5h80q15 0 21 -5.5t6 -20.5v-80q0 -15 -6 -21t-21 -6h-80
q-15 0 -20.5 6t-5.5 21zM764 1737v80q0 15 6 20.5t21 5.5h79q15 0 21 -5.5t6 -20.5v-80q0 -15 -6 -21t-21 -6h-79q-15 0 -21 6t-6 21z" />
    <glyph glyph-name="Igrave" unicode="&#xcc;" horiz-adv-x="409" 
d="M170 0q-15 0 -21 6t-6 21v1380q0 15 6 21t21 6h70q15 0 20.5 -6t5.5 -21v-1380q0 -15 -5.5 -21t-20.5 -6h-70zM-41 1806q-11 17 -5.5 27t23.5 10h89q16 0 26 -8.5t21 -28.5l145 -235q9 -17 2.5 -27t-22.5 -10h-56q-25 0 -51 37z" />
    <glyph glyph-name="Iacute" unicode="&#xcd;" horiz-adv-x="409" 
d="M170 0q-15 0 -21 6t-6 21v1380q0 15 6 21t21 6h70q15 0 20.5 -6t5.5 -21v-1380q0 -15 -5.5 -21t-20.5 -6h-70zM154 1571l145 235q21 37 45 37h88q18 0 25 -10t-4 -27l-172 -235q-26 -37 -52 -37h-55q-16 0 -22.5 10t2.5 27z" />
    <glyph glyph-name="Icircumflex" unicode="&#xce;" horiz-adv-x="409" 
d="M170 0q-15 0 -21 6t-6 21v1380q0 15 6 21t21 6h70q15 0 20.5 -6t5.5 -21v-1380q0 -15 -5.5 -21t-20.5 -6h-70zM-111 1571l215 246q23 26 52 26h67q38 0 58 -26l215 -246q10 -12 6 -22.5t-19 -10.5h-69q-28 0 -49 27l-162 184h-21l-162 -184q-21 -27 -49 -27h-69
q-15 0 -19 10.5t6 22.5z" />
    <glyph glyph-name="Idieresis" unicode="&#xcf;" horiz-adv-x="409" 
d="M170 0q-15 0 -21 6t-6 21v1380q0 15 6 21t21 6h70q15 0 20.5 -6t5.5 -21v-1380q0 -15 -5.5 -21t-20.5 -6h-70zM-123 1737v80q0 15 6 20.5t21 5.5h80q15 0 20.5 -5.5t5.5 -20.5v-80q0 -15 -5.5 -21t-20.5 -6h-80q-15 0 -21 6t-6 21zM399 1737v80q0 15 6 20.5t21 5.5h80
q15 0 20.5 -5.5t5.5 -20.5v-80q0 -15 -5.5 -21t-20.5 -6h-80q-15 0 -21 6t-6 21z" />
    <glyph glyph-name="Eth" unicode="&#xd0;" horiz-adv-x="1269" 
d="M190 0q-15 0 -20.5 6t-5.5 21v639h-129q-25 0 -25 24v60q0 24 25 24h129v633q0 15 5.5 21t20.5 6h506q430 0 430 -412v-610q0 -412 -430 -412h-506zM287 115h407q159 0 234.5 72t75.5 227v606q0 155 -75.5 227t-234.5 72h-407v-545h231q25 0 25 -24v-60q0 -24 -25 -24
h-231v-551z" />
    <glyph glyph-name="Ntilde" unicode="&#xd1;" horiz-adv-x="1228" 
d="M170 0q-15 0 -21 6t-6 21v1380q0 15 6 21t21 6h149q25 0 37 -23l590 -1270h17v1266q0 15 5.5 21t20.5 6h70q15 0 20.5 -6t5.5 -21v-1380q0 -15 -5.5 -21t-20.5 -6h-150q-25 0 -37 23l-589 1269h-17v-1265q0 -15 -5.5 -21t-20.5 -6h-70zM283 1767q-9 18 14 33
q83 53 168 53q44 0 87 -15.5t71 -33.5t68.5 -33.5t80.5 -15.5q60 0 119 39q22 14 31 -8l24 -51q9 -18 -14 -33q-83 -53 -168 -53q-44 0 -87 15.5t-71 33.5t-68.5 33.5t-80.5 15.5q-56 0 -119 -39q-22 -14 -31 8z" />
    <glyph glyph-name="Ograve" unicode="&#xd2;" 
d="M573 -10q-430 0 -430 411v631q0 412 430 412h134q430 0 430 -412v-631q0 -411 -430 -411h-134zM266 403q0 -155 74.5 -227t234.5 -72h130q159 0 234 72t75 227v627q0 155 -75 227t-234 72h-130q-160 0 -234.5 -72t-74.5 -227v-627zM395 1806q-11 17 -5 27t24 10h88
q16 0 26 -8.5t21 -28.5l145 -235q9 -17 2.5 -27t-22.5 -10h-56q-25 0 -51 37z" />
    <glyph glyph-name="Oacute" unicode="&#xd3;" 
d="M573 -10q-430 0 -430 411v631q0 412 430 412h134q430 0 430 -412v-631q0 -411 -430 -411h-134zM266 403q0 -155 74.5 -227t234.5 -72h130q159 0 234 72t75 227v627q0 155 -75 227t-234 72h-130q-160 0 -234.5 -72t-74.5 -227v-627zM590 1571l145 235q21 37 45 37h88
q18 0 25 -10t-4 -27l-172 -235q-26 -37 -51 -37h-56q-16 0 -22.5 10t2.5 27z" />
    <glyph glyph-name="Ocircumflex" unicode="&#xd4;" 
d="M573 -10q-430 0 -430 411v631q0 412 430 412h134q430 0 430 -412v-631q0 -411 -430 -411h-134zM266 403q0 -155 74.5 -227t234.5 -72h130q159 0 234 72t75 227v627q0 155 -75 227t-234 72h-130q-160 0 -234.5 -72t-74.5 -227v-627zM326 1571l215 246q23 26 51 26h67
q38 0 58 -26l215 -246q11 -12 7 -22.5t-19 -10.5h-70q-28 0 -49 27l-162 184h-21l-161 -184q-21 -27 -49 -27h-70q-15 0 -19 10.5t7 22.5z" />
    <glyph glyph-name="Otilde" unicode="&#xd5;" 
d="M573 -10q-430 0 -430 411v631q0 412 430 412h134q430 0 430 -412v-631q0 -411 -430 -411h-134zM266 403q0 -155 74.5 -227t234.5 -72h130q159 0 234 72t75 227v627q0 155 -75 227t-234 72h-130q-160 0 -234.5 -72t-74.5 -227v-627zM309 1767q-9 18 15 33q83 53 168 53
q44 0 87 -15.5t71 -33.5t68.5 -33.5t80.5 -15.5q60 0 119 39q21 13 30 -8l25 -51q9 -18 -15 -33q-83 -53 -167 -53q-56 0 -107.5 24.5t-101 49t-99.5 24.5q-55 0 -118 -39q-22 -14 -31 8z" />
    <glyph glyph-name="Odieresis" unicode="&#xd6;" 
d="M573 -10q-430 0 -430 411v631q0 412 430 412h134q430 0 430 -412v-631q0 -411 -430 -411h-134zM266 403q0 -155 74.5 -227t234.5 -72h130q159 0 234 72t75 227v627q0 155 -75 227t-234 72h-130q-160 0 -234.5 -72t-74.5 -227v-627zM313 1737v80q0 15 6 20.5t21 5.5h80
q15 0 20.5 -5.5t5.5 -20.5v-80q0 -15 -5.5 -21t-20.5 -6h-80q-15 0 -21 6t-6 21zM836 1737v80q0 15 5.5 20.5t20.5 5.5h80q15 0 21 -5.5t6 -20.5v-80q0 -15 -6 -21t-21 -6h-80q-15 0 -20.5 6t-5.5 21z" />
    <glyph glyph-name="multiply" unicode="&#xd7;" horiz-adv-x="839" 
d="M113 403q-11 11 -11 19t11 20l221 220l-219 219q-21 21 -2 39l49 49q18 19 39 -2l219 -219l219 219q21 21 39 2l49 -49q19 -18 -2 -39l-219 -219l221 -220q11 -12 11 -20t-11 -19l-49 -49q-10 -11 -18.5 -10.5t-20.5 12.5l-219 219l-219 -219q-12 -12 -20.5 -12.5
t-18.5 10.5z" />
    <glyph glyph-name="Oslash" unicode="&#xd8;" 
d="M272 -72q-30 0 -18 31l41 98q-152 98 -152 344v631q0 412 430 412h134q93 0 174 -23l22 52q12 30 37 30h70q30 0 18 -30l-41 -99q150 -99 150 -342v-631q0 -411 -430 -411h-134q-102 0 -172 20l-22 -51q-12 -31 -37 -31h-70zM266 403q0 -168 86 -217l484 1123
q-49 20 -131 20h-130q-160 0 -234.5 -72t-74.5 -227v-627zM449 123q48 -19 126 -19h130q159 0 234 72t75 227v627q0 165 -82 215z" />
    <glyph glyph-name="Ugrave" unicode="&#xd9;" 
d="M573 -10q-430 0 -430 411v1006q0 15 6 21t21 6h70q15 0 20.5 -6t5.5 -21v-1004q0 -155 74.5 -227t234.5 -72h130q159 0 234 72t75 227v1004q0 15 5.5 21t20.5 6h70q15 0 21 -6t6 -21v-1006q0 -411 -430 -411h-134zM395 1806q-11 17 -5 27t24 10h88q16 0 26 -8.5t21 -28.5
l145 -235q9 -17 2.5 -27t-22.5 -10h-56q-25 0 -51 37z" />
    <glyph glyph-name="Uacute" unicode="&#xda;" 
d="M573 -10q-430 0 -430 411v1006q0 15 6 21t21 6h70q15 0 20.5 -6t5.5 -21v-1004q0 -155 74.5 -227t234.5 -72h130q159 0 234 72t75 227v1004q0 15 5.5 21t20.5 6h70q15 0 21 -6t6 -21v-1006q0 -411 -430 -411h-134zM590 1571l145 235q21 37 45 37h88q18 0 25 -10t-4 -27
l-172 -235q-26 -37 -51 -37h-56q-16 0 -22.5 10t2.5 27z" />
    <glyph glyph-name="Ucircumflex" unicode="&#xdb;" 
d="M573 -10q-430 0 -430 411v1006q0 15 6 21t21 6h70q15 0 20.5 -6t5.5 -21v-1004q0 -155 74.5 -227t234.5 -72h130q159 0 234 72t75 227v1004q0 15 5.5 21t20.5 6h70q15 0 21 -6t6 -21v-1006q0 -411 -430 -411h-134zM326 1571l215 246q23 26 51 26h67q38 0 58 -26l215 -246
q11 -12 7 -22.5t-19 -10.5h-70q-28 0 -49 27l-162 184h-21l-161 -184q-21 -27 -49 -27h-70q-15 0 -19 10.5t7 22.5z" />
    <glyph glyph-name="Udieresis" unicode="&#xdc;" 
d="M573 -10q-430 0 -430 411v1006q0 15 6 21t21 6h70q15 0 20.5 -6t5.5 -21v-1004q0 -155 74.5 -227t234.5 -72h130q159 0 234 72t75 227v1004q0 15 5.5 21t20.5 6h70q15 0 21 -6t6 -21v-1006q0 -411 -430 -411h-134zM313 1737v80q0 15 6 20.5t21 5.5h80q15 0 20.5 -5.5
t5.5 -20.5v-80q0 -15 -5.5 -21t-20.5 -6h-80q-15 0 -21 6t-6 21zM836 1737v80q0 15 5.5 20.5t20.5 5.5h80q15 0 21 -5.5t6 -20.5v-80q0 -15 -6 -21t-21 -6h-80q-15 0 -20.5 6t-5.5 21z" />
    <glyph glyph-name="Yacute" unicode="&#xdd;" horiz-adv-x="1142" 
d="M86 1403q-16 31 14 31h84q14 0 21.5 -6.5t15.5 -22.5l344 -703h13l344 703q8 17 15 23t21 6h84q30 0 15 -31l-424 -854v-522q0 -15 -6 -21t-21 -6h-69q-15 0 -21 6t-6 21v522zM520 1571l146 235q21 37 45 37h88q18 0 24.5 -10t-4.5 -27l-172 -235q-26 -37 -51 -37h-55
q-16 0 -23 10t2 27z" />
    <glyph glyph-name="Thorn" unicode="&#xde;" horiz-adv-x="1208" 
d="M170 0q-15 0 -21 6t-6 21v1380q0 15 6 21t21 6h70q15 0 20.5 -6t5.5 -21v-188h379q216 0 318 -98.5t102 -303.5v-199q0 -205 -102 -303t-318 -98h-379v-190q0 -15 -5.5 -21t-20.5 -6h-70zM266 332h377q159 0 229 67t70 222v194q0 155 -70 222t-229 67h-377v-772z" />
    <glyph glyph-name="germandbls" unicode="&#xdf;" horiz-adv-x="1136" 
d="M158 0q-25 0 -25 25v1071q0 165 95 256.5t264 91.5h114q169 0 264 -91.5t95 -256.5v-68q0 -98 -39.5 -160t-130.5 -96v-12q52 -15 89.5 -34.5t71 -51.5t51 -82.5t17.5 -118.5v-106q0 -198 -96.5 -282.5t-309.5 -84.5h-69q-25 0 -25 25v59q0 25 25 25h69q157 0 222 60
t65 198v106q0 229 -299 229h-57q-25 0 -25 25v59q0 25 25 25h57q108 0 174 53.5t66 163.5v66q0 114 -61.5 176.5t-178.5 62.5h-114q-117 0 -178.5 -62.5t-61.5 -176.5v-1069q0 -25 -25 -25h-69z" />
    <glyph glyph-name="agrave" unicode="&#xe0;" horiz-adv-x="1050" 
d="M823 0q-24 0 -24 25v135h-19q-131 -170 -348 -170h-10q-320 0 -320 301v49q0 258 314 258h383v90q0 59 -12 100t-42.5 72.5t-86 46.5t-138.5 15q-177 0 -284 -37q-21 -7 -25 14l-12 62q-3 18 12 24q118 47 311 47h39q185 0 271 -84t86 -252v-671q0 -25 -25 -25h-70z
M221 297q0 -102 52 -149.5t157 -47.5h66q121 0 212 79.5t91 178.5v142h-371q-104 0 -155.5 -37.5t-51.5 -130.5v-35zM301 1397q-11 17 -5.5 27t23.5 10h89q16 0 26 -8.5t21 -28.5l145 -236q9 -17 2.5 -27t-22.5 -10h-56q-25 0 -51 37z" />
    <glyph glyph-name="aacute" unicode="&#xe1;" horiz-adv-x="1050" 
d="M823 0q-24 0 -24 25v135h-19q-131 -170 -348 -170h-10q-320 0 -320 301v49q0 258 314 258h383v90q0 59 -12 100t-42.5 72.5t-86 46.5t-138.5 15q-177 0 -284 -37q-21 -7 -25 14l-12 62q-3 18 12 24q118 47 311 47h39q185 0 271 -84t86 -252v-671q0 -25 -25 -25h-70z
M221 297q0 -102 52 -149.5t157 -47.5h66q121 0 212 79.5t91 178.5v142h-371q-104 0 -155.5 -37.5t-51.5 -130.5v-35zM496 1161l145 236q21 37 45 37h88q18 0 25 -10t-4 -27l-172 -236q-26 -37 -52 -37h-55q-16 0 -22.5 10t2.5 27z" />
    <glyph glyph-name="acircumflex" unicode="&#xe2;" horiz-adv-x="1050" 
d="M823 0q-24 0 -24 25v135h-19q-131 -170 -348 -170h-10q-320 0 -320 301v49q0 258 314 258h383v90q0 59 -12 100t-42.5 72.5t-86 46.5t-138.5 15q-177 0 -284 -37q-21 -7 -25 14l-12 62q-3 18 12 24q118 47 311 47h39q185 0 271 -84t86 -252v-671q0 -25 -25 -25h-70z
M221 297q0 -102 52 -149.5t157 -47.5h66q121 0 212 79.5t91 178.5v142h-371q-104 0 -155.5 -37.5t-51.5 -130.5v-35zM231 1161l215 246q24 27 52 27h67q37 0 58 -27l215 -246q10 -12 6 -22.5t-19 -10.5h-69q-28 0 -49 27l-162 184h-21l-162 -184q-21 -27 -49 -27h-69
q-15 0 -19 10.5t6 22.5z" />
    <glyph glyph-name="atilde" unicode="&#xe3;" horiz-adv-x="1050" 
d="M823 0q-24 0 -24 25v135h-19q-131 -170 -348 -170h-10q-320 0 -320 301v49q0 258 314 258h383v90q0 59 -12 100t-42.5 72.5t-86 46.5t-138.5 15q-177 0 -284 -37q-21 -7 -25 14l-12 62q-3 18 12 24q118 47 311 47h39q185 0 271 -84t86 -252v-671q0 -25 -25 -25h-70z
M215 1358q-9 18 14 33q83 53 168 53q56 0 107.5 -24.5t101 -49t99.5 -24.5q60 0 118 38q22 14 31 -8l25 -51q9 -18 -15 -33q-83 -53 -168 -53q-44 0 -87 15.5t-71 33.5t-68.5 33.5t-80.5 15.5q-56 0 -119 -39q-21 -13 -30 9zM221 297q0 -102 52 -149.5t157 -47.5h66
q121 0 212 79.5t91 178.5v142h-371q-104 0 -155.5 -37.5t-51.5 -130.5v-35z" />
    <glyph glyph-name="adieresis" unicode="&#xe4;" horiz-adv-x="1050" 
d="M823 0q-24 0 -24 25v135h-19q-131 -170 -348 -170h-10q-320 0 -320 301v49q0 258 314 258h383v90q0 59 -12 100t-42.5 72.5t-86 46.5t-138.5 15q-177 0 -284 -37q-21 -7 -25 14l-12 62q-3 18 12 24q118 47 311 47h39q185 0 271 -84t86 -252v-671q0 -25 -25 -25h-70z
M219 1327v80q0 15 6 21t21 6h80q15 0 20.5 -6t5.5 -21v-80q0 -15 -5.5 -21t-20.5 -6h-80q-15 0 -21 6t-6 21zM221 297q0 -102 52 -149.5t157 -47.5h66q121 0 212 79.5t91 178.5v142h-371q-104 0 -155.5 -37.5t-51.5 -130.5v-35zM741 1327v80q0 15 6 21t21 6h80q15 0 20.5 -6
t5.5 -21v-80q0 -15 -5.5 -21t-20.5 -6h-80q-15 0 -21 6t-6 21z" />
    <glyph glyph-name="aring" unicode="&#xe5;" horiz-adv-x="1050" 
d="M823 0q-24 0 -24 25v135h-19q-131 -170 -348 -170h-10q-320 0 -320 301v49q0 258 314 258h383v90q0 59 -12 100t-42.5 72.5t-86 46.5t-138.5 15q-177 0 -284 -37q-21 -7 -25 14l-12 62q-3 18 12 24q118 47 311 47h39q185 0 271 -84t86 -252v-671q0 -25 -25 -25h-70z
M221 297q0 -102 52 -149.5t157 -47.5h66q121 0 212 79.5t91 178.5v142h-371q-104 0 -155.5 -37.5t-51.5 -130.5v-35zM362 1272v24q0 71 49.5 119.5t123.5 48.5h24q74 0 123 -48.5t49 -119.5v-24q0 -71 -49 -119.5t-123 -48.5h-24q-74 0 -123.5 48.5t-49.5 119.5zM449 1276
q0 -40 24 -64t66 -24h16q42 0 66 24t24 64v16q0 40 -24 64t-66 24h-16q-42 0 -66 -24t-24 -64v-16z" />
    <glyph glyph-name="ae" unicode="&#xe6;" horiz-adv-x="1720" 
d="M422 -10q-167 0 -243.5 68t-76.5 212v47q0 122 82 182t232 60h383v129q0 59 -12 100t-42.5 72.5t-86 46.5t-138.5 15q-177 0 -284 -37q-21 -7 -25 14l-12 62q-3 18 12 24q118 47 311 47h39q223 0 303 -123q91 123 291 123h96q172 0 264.5 -89t92.5 -255v-164
q0 -29 -17.5 -46t-48.5 -17h-624v-121q0 -114 69 -180t211 -66h21q174 0 286 78q18 12 29 -2l31 -41q12 -15 0 -27q-47 -47 -139.5 -79.5t-211.5 -32.5h-20q-293 0 -371 198q-52 -93 -156 -145.5t-231 -52.5h-14zM221 276q0 -100 50 -138t159 -38h66q121 0 212 79.5
t91 178.5v105h-371q-207 0 -207 -152v-35zM918 557h571v129q0 236 -240 236h-92q-118 0 -178.5 -62.5t-60.5 -177.5v-125z" />
    <glyph glyph-name="ccedilla" unicode="&#xe7;" horiz-adv-x="1013" 
d="M532 -410q-96 0 -136 38.5t-40 117.5q0 25 23 25h57q8 0 14.5 -5t6.5 -12q0 -42 23.5 -61t80.5 -19h41q55 0 77.5 16t22.5 52t-23.5 52t-78.5 16h-104q-34 0 -56 18t-22 51q0 44 67 111q-185 6 -278.5 96t-93.5 252v346q0 165 94.5 256.5t263.5 91.5h92q162 0 255 -80.5
t93 -224.5v-12q0 -25 -24 -25h-68q-24 0 -24 25v10q0 92 -60.5 144.5t-171.5 52.5h-92q-117 0 -178.5 -63t-61.5 -177v-342q0 -116 69.5 -179t213.5 -63h14q118 0 174 24.5t95 84.5q9 14 16.5 16.5t28.5 -4.5l39 -18q26 -13 14 -39q-78 -152 -291 -168q-104 -91 -41 -107
q11 -2 25 -2h63q75 0 114.5 -30.5t39.5 -114.5q0 -78 -41.5 -114t-138.5 -36h-93z" />
    <glyph glyph-name="egrave" unicode="&#xe8;" horiz-adv-x="1034" 
d="M508 -10q-198 0 -296.5 91t-98.5 257v346q0 166 93.5 257t262.5 91h96q172 0 264.5 -89t92.5 -255v-164q0 -29 -17.5 -46t-48.5 -17h-625v-121q0 -114 69.5 -180t211.5 -66h20q175 0 287 78q18 12 29 -2l31 -41q12 -15 0 -27q-47 -47 -139.5 -79.5t-211.5 -32.5h-20z
M231 557h572v129q0 236 -240 236h-92q-118 0 -179 -63t-61 -177v-125zM274 1397q-11 17 -5 27t24 10h88q16 0 26 -8.5t21 -28.5l145 -236q9 -17 2.5 -27t-22.5 -10h-55q-26 0 -52 37z" />
    <glyph glyph-name="eacute" unicode="&#xe9;" horiz-adv-x="1034" 
d="M508 -10q-198 0 -296.5 91t-98.5 257v346q0 166 93.5 257t262.5 91h96q172 0 264.5 -89t92.5 -255v-164q0 -29 -17.5 -46t-48.5 -17h-625v-121q0 -114 69.5 -180t211.5 -66h20q175 0 287 78q18 12 29 -2l31 -41q12 -15 0 -27q-47 -47 -139.5 -79.5t-211.5 -32.5h-20z
M231 557h572v129q0 236 -240 236h-92q-118 0 -179 -63t-61 -177v-125zM469 1161l145 236q21 37 45 37h89q18 0 24.5 -10t-4.5 -27l-172 -236q-26 -37 -51 -37h-56q-16 0 -22.5 10t2.5 27z" />
    <glyph glyph-name="ecircumflex" unicode="&#xea;" horiz-adv-x="1034" 
d="M508 -10q-198 0 -296.5 91t-98.5 257v346q0 166 93.5 257t262.5 91h96q172 0 264.5 -89t92.5 -255v-164q0 -29 -17.5 -46t-48.5 -17h-625v-121q0 -114 69.5 -180t211.5 -66h20q175 0 287 78q18 12 29 -2l31 -41q12 -15 0 -27q-47 -47 -139.5 -79.5t-211.5 -32.5h-20z
M205 1161l215 246q24 27 51 27h68q36 0 57 -27l215 -246q11 -12 7 -22.5t-19 -10.5h-70q-28 0 -49 27l-162 184h-20l-162 -184q-21 -27 -49 -27h-70q-15 0 -19 10.5t7 22.5zM231 557h572v129q0 236 -240 236h-92q-118 0 -179 -63t-61 -177v-125z" />
    <glyph glyph-name="edieresis" unicode="&#xeb;" horiz-adv-x="1034" 
d="M508 -10q-198 0 -296.5 91t-98.5 257v346q0 166 93.5 257t262.5 91h96q172 0 264.5 -89t92.5 -255v-164q0 -29 -17.5 -46t-48.5 -17h-625v-121q0 -114 69.5 -180t211.5 -66h20q175 0 287 78q18 12 29 -2l31 -41q12 -15 0 -27q-47 -47 -139.5 -79.5t-211.5 -32.5h-20z
M193 1327v80q0 15 5.5 21t20.5 6h80q15 0 21 -6t6 -21v-80q0 -15 -6 -21t-21 -6h-80q-15 0 -20.5 6t-5.5 21zM231 557h572v129q0 236 -240 236h-92q-118 0 -179 -63t-61 -177v-125zM715 1327v80q0 15 5.5 21t20.5 6h80q15 0 21 -6t6 -21v-80q0 -15 -6 -21t-21 -6h-80
q-15 0 -20.5 6t-5.5 21z" />
    <glyph glyph-name="igrave" unicode="&#xec;" horiz-adv-x="344" 
d="M137 0q-24 0 -24 25v974q0 25 24 25h70q24 0 24 -25v-974q0 -25 -24 -25h-70zM-74 1397q-11 17 -5 27t24 10h88q16 0 26 -8.5t21 -28.5l145 -236q9 -17 2.5 -27t-22.5 -10h-55q-26 0 -52 37z" />
    <glyph glyph-name="iacute" unicode="&#xed;" horiz-adv-x="344" 
d="M137 0q-24 0 -24 25v974q0 25 24 25h70q24 0 24 -25v-974q0 -25 -24 -25h-70zM121 1161l145 236q21 37 45 37h88q18 0 25 -10t-4 -27l-172 -236q-26 -37 -51 -37h-56q-16 0 -22.5 10t2.5 27z" />
    <glyph glyph-name="icircumflex" unicode="&#xee;" horiz-adv-x="344" 
d="M137 0q-24 0 -24 25v974q0 25 24 25h70q24 0 24 -25v-974q0 -25 -24 -25h-70zM-143 1161l215 246q24 27 51 27h67q37 0 58 -27l215 -246q11 -12 7 -22.5t-19 -10.5h-70q-28 0 -49 27l-162 184h-20l-162 -184q-21 -27 -49 -27h-70q-15 0 -19 10.5t7 22.5z" />
    <glyph glyph-name="idieresis" unicode="&#xef;" horiz-adv-x="344" 
d="M137 0q-24 0 -24 25v974q0 25 24 25h70q24 0 24 -25v-974q0 -25 -24 -25h-70zM-156 1327v80q0 15 6 21t21 6h80q15 0 20.5 -6t5.5 -21v-80q0 -15 -5.5 -21t-20.5 -6h-80q-15 0 -21 6t-6 21zM367 1327v80q0 15 5.5 21t20.5 6h80q15 0 21 -6t6 -21v-80q0 -15 -6 -21t-21 -6
h-80q-15 0 -20.5 6t-5.5 21z" />
    <glyph glyph-name="eth" unicode="&#xf0;" horiz-adv-x="1044" 
d="M596 1124l213 158v127q0 25 25 25h69q25 0 25 -25v-39h137l-137 -102v-1243q0 -25 -25 -25h-69q-25 0 -25 25v90h-16q-75 -125 -258 -125h-72q-170 0 -260 87.5t-90 258.5v350q0 171 90 258.5t260 87.5h72q183 0 258 -125h16v273l-76 -56h-137zM231 344q0 -244 246 -244
h90q117 0 179.5 63t62.5 177v342q0 114 -62.5 177t-179.5 63h-90q-246 0 -246 -244v-334z" />
    <glyph glyph-name="ntilde" unicode="&#xf1;" horiz-adv-x="1081" 
d="M158 0q-25 0 -25 25v974q0 25 25 25h69q25 0 25 -25v-92h20q41 59 111 92t162 33h67q174 0 255 -86t81 -260v-661q0 -25 -24 -25h-70q-25 0 -25 25v653q0 121 -58 182.5t-183 61.5h-74q-125 0 -193.5 -63.5t-68.5 -178.5v-655q0 -25 -25 -25h-69zM209 1358q-9 18 14 33
q83 53 168 53q44 0 87 -15.5t71.5 -33.5t68.5 -33.5t80 -15.5q61 0 119 38q22 14 31 -8l24 -51q9 -18 -14 -33q-83 -53 -168 -53q-44 0 -87 15.5t-71 33.5t-68.5 33.5t-80.5 15.5q-56 0 -119 -39q-21 -13 -31 9z" />
    <glyph glyph-name="ograve" unicode="&#xf2;" horiz-adv-x="1040" 
d="M471 -10q-172 0 -265 89t-93 255v354q0 166 93 255t265 89h98q172 0 265.5 -89.5t93.5 -254.5v-354q0 -165 -94 -254.5t-265 -89.5h-98zM231 336q0 -114 60 -175t180 -61h98q120 0 180 61t60 175v350q0 114 -60 175t-180 61h-98q-120 0 -180 -61t-60 -175v-350zM274 1397
q-11 17 -5 27t24 10h88q16 0 26 -8.5t21 -28.5l145 -236q9 -17 2.5 -27t-22.5 -10h-55q-26 0 -52 37z" />
    <glyph glyph-name="oacute" unicode="&#xf3;" horiz-adv-x="1040" 
d="M471 -10q-172 0 -265 89t-93 255v354q0 166 93 255t265 89h98q172 0 265.5 -89.5t93.5 -254.5v-354q0 -165 -94 -254.5t-265 -89.5h-98zM231 336q0 -114 60 -175t180 -61h98q120 0 180 61t60 175v350q0 114 -60 175t-180 61h-98q-120 0 -180 -61t-60 -175v-350zM469 1161
l145 236q21 37 45 37h89q18 0 24.5 -10t-4.5 -27l-172 -236q-26 -37 -51 -37h-56q-16 0 -22.5 10t2.5 27z" />
    <glyph glyph-name="ocircumflex" unicode="&#xf4;" horiz-adv-x="1040" 
d="M471 -10q-172 0 -265 89t-93 255v354q0 166 93 255t265 89h98q172 0 265.5 -89.5t93.5 -254.5v-354q0 -165 -94 -254.5t-265 -89.5h-98zM205 1161l215 246q24 27 51 27h68q36 0 57 -27l215 -246q11 -12 7 -22.5t-19 -10.5h-70q-28 0 -49 27l-162 184h-20l-162 -184
q-21 -27 -49 -27h-70q-15 0 -19 10.5t7 22.5zM231 336q0 -114 60 -175t180 -61h98q120 0 180 61t60 175v350q0 114 -60 175t-180 61h-98q-120 0 -180 -61t-60 -175v-350z" />
    <glyph glyph-name="otilde" unicode="&#xf5;" horiz-adv-x="1040" 
d="M471 -10q-172 0 -265 89t-93 255v354q0 166 93 255t265 89h98q172 0 265.5 -89.5t93.5 -254.5v-354q0 -165 -94 -254.5t-265 -89.5h-98zM188 1358q-9 18 15 33q83 53 168 53q44 0 87 -15.5t71.5 -33.5t68.5 -33.5t80 -15.5q61 0 119 38q21 13 30 -8l25 -51q9 -18 -14 -33
q-83 -53 -168 -53q-56 0 -107.5 24.5t-101 49t-99.5 24.5q-55 0 -118 -39q-21 -13 -31 9zM231 336q0 -114 60 -175t180 -61h98q120 0 180 61t60 175v350q0 114 -60 175t-180 61h-98q-120 0 -180 -61t-60 -175v-350z" />
    <glyph glyph-name="odieresis" unicode="&#xf6;" horiz-adv-x="1040" 
d="M471 -10q-172 0 -265 89t-93 255v354q0 166 93 255t265 89h98q172 0 265.5 -89.5t93.5 -254.5v-354q0 -165 -94 -254.5t-265 -89.5h-98zM193 1327v80q0 15 5.5 21t20.5 6h80q15 0 21 -6t6 -21v-80q0 -15 -6 -21t-21 -6h-80q-15 0 -20.5 6t-5.5 21zM231 336
q0 -114 60 -175t180 -61h98q120 0 180 61t60 175v350q0 114 -60 175t-180 61h-98q-120 0 -180 -61t-60 -175v-350zM715 1327v80q0 15 5.5 21t20.5 6h80q15 0 21 -6t6 -21v-80q0 -15 -6 -21t-21 -6h-80q-15 0 -20.5 6t-5.5 21z" />
    <glyph glyph-name="divide" unicode="&#xf7;" horiz-adv-x="1013" 
d="M459 911q-31 0 -31 31v100q0 31 31 31h98q31 0 31 -31v-100q0 -31 -31 -31h-98zM102 627v69q0 27 29 27h754q15 0 20.5 -6t5.5 -21v-69q0 -15 -5.5 -21t-22.5 -6h-752q-29 0 -29 27zM428 281v100q0 31 31 31h98q31 0 31 -31v-100q0 -31 -31 -31h-98q-31 0 -31 31z" />
    <glyph glyph-name="oslash" unicode="&#xf8;" horiz-adv-x="1040" 
d="M248 -51q-31 0 -19 24l29 66q-145 85 -145 295v354q0 166 93 255t265 89h104q70 0 123 -16l13 28q9 21 32 21h52q28 0 18 -23l-29 -61q144 -84 144 -293v-354q0 -165 -94 -254.5t-265 -89.5h-104q-74 0 -117 14l-16 -35q-9 -20 -33 -20h-51zM229 336q0 -121 82 -180
l340 753q-41 13 -82 13h-98q-120 0 -181 -61t-61 -175v-350zM393 113q41 -13 78 -13h98q120 0 181 61t61 175v350q0 116 -78 178z" />
    <glyph glyph-name="ugrave" unicode="&#xf9;" horiz-adv-x="1081" 
d="M469 -8q-174 0 -255 86t-81 260v661q0 25 25 25h69q25 0 25 -25v-653q0 -121 58.5 -182.5t183.5 -61.5h73q125 0 193.5 63.5t68.5 178.5v655q0 25 25 25h70q24 0 24 -25v-974q0 -25 -24 -25h-70q-25 0 -25 25v92h-20q-41 -59 -111 -92t-161 -33h-68zM268 1397
q-11 17 -5 27t24 10h88q16 0 26 -8.5t21 -28.5l145 -236q9 -17 2.5 -27t-22.5 -10h-55q-26 0 -52 37z" />
    <glyph glyph-name="uacute" unicode="&#xfa;" horiz-adv-x="1081" 
d="M469 -8q-174 0 -255 86t-81 260v661q0 25 25 25h69q25 0 25 -25v-653q0 -121 58.5 -182.5t183.5 -61.5h73q125 0 193.5 63.5t68.5 178.5v655q0 25 25 25h70q24 0 24 -25v-974q0 -25 -24 -25h-70q-25 0 -25 25v92h-20q-41 -59 -111 -92t-161 -33h-68zM463 1161l145 236
q21 37 45 37h88q18 0 25 -10t-4 -27l-172 -236q-26 -37 -51 -37h-56q-16 0 -22.5 10t2.5 27z" />
    <glyph glyph-name="ucircumflex" unicode="&#xfb;" horiz-adv-x="1081" 
d="M469 -8q-174 0 -255 86t-81 260v661q0 25 25 25h69q25 0 25 -25v-653q0 -121 58.5 -182.5t183.5 -61.5h73q125 0 193.5 63.5t68.5 178.5v655q0 25 25 25h70q24 0 24 -25v-974q0 -25 -24 -25h-70q-25 0 -25 25v92h-20q-41 -59 -111 -92t-161 -33h-68zM199 1161l215 246
q24 27 51 27h67q37 0 58 -27l215 -246q11 -12 7 -22.5t-19 -10.5h-70q-28 0 -49 27l-162 184h-20l-162 -184q-21 -27 -49 -27h-70q-15 0 -19 10.5t7 22.5z" />
    <glyph glyph-name="udieresis" unicode="&#xfc;" horiz-adv-x="1081" 
d="M469 -8q-174 0 -255 86t-81 260v661q0 25 25 25h69q25 0 25 -25v-653q0 -121 58.5 -182.5t183.5 -61.5h73q125 0 193.5 63.5t68.5 178.5v655q0 25 25 25h70q24 0 24 -25v-974q0 -25 -24 -25h-70q-25 0 -25 25v92h-20q-41 -59 -111 -92t-161 -33h-68zM186 1327v80
q0 15 6 21t21 6h80q15 0 20.5 -6t5.5 -21v-80q0 -15 -5.5 -21t-20.5 -6h-80q-15 0 -21 6t-6 21zM709 1327v80q0 15 5.5 21t20.5 6h80q15 0 21 -6t6 -21v-80q0 -15 -6 -21t-21 -6h-80q-15 0 -20.5 6t-5.5 21z" />
    <glyph glyph-name="yacute" unicode="&#xfd;" horiz-adv-x="1062" 
d="M369 -362q-14 0 -19 9t0 21l119 309l-385 1016q-10 31 16 31h76q14 0 20 -7t13 -26l315 -854h13l315 854q7 19 13 26t20 7h78q26 0 16 -31l-506 -1325q-11 -30 -33 -30h-71zM479 1161l146 236q21 37 45 37h88q18 0 24.5 -10t-4.5 -27l-172 -236q-26 -37 -51 -37h-55
q-16 0 -23 10t2 27z" />
    <glyph glyph-name="thorn" unicode="&#xfe;" horiz-adv-x="1060" 
d="M526 -10q-183 0 -258 125h-16v-453q0 -24 -25 -24h-69q-25 0 -25 24v1747q0 25 25 25h69q25 0 25 -25v-502h16q75 125 258 125h72q170 0 260 -87.5t90 -258.5v-350q0 -171 -90 -258.5t-260 -87.5h-72zM252 340q0 -114 62.5 -177t179.5 -63h90q245 0 245 244v334
q0 244 -245 244h-90q-117 0 -179.5 -63t-62.5 -177v-342z" />
    <glyph glyph-name="ydieresis" unicode="&#xff;" horiz-adv-x="1062" 
d="M369 -362q-14 0 -19 9t0 21l119 309l-385 1016q-10 31 16 31h76q14 0 20 -7t13 -26l315 -854h13l315 854q7 19 13 26t20 7h78q26 0 16 -31l-506 -1325q-11 -30 -33 -30h-71zM203 1327v80q0 15 5.5 21t20.5 6h80q15 0 21 -6t6 -21v-80q0 -15 -6 -21t-21 -6h-80
q-15 0 -20.5 6t-5.5 21zM725 1327v80q0 15 6 21t21 6h79q15 0 21 -6t6 -21v-80q0 -15 -6 -21t-21 -6h-79q-15 0 -21 6t-6 21z" />
    <glyph glyph-name="Amacron" unicode="&#x100;" horiz-adv-x="1204" 
d="M672 1434q27 0 37 -33l411 -1368q9 -33 -22 -33h-70q-26 0 -35 33l-82 270h-618l-82 -270q-9 -33 -35 -33h-70q-31 0 -22 33l412 1368q10 33 36 33h140zM240 1755v60q0 28 28 28h668q29 0 29 -28v-60q0 -29 -29 -29h-668q-28 0 -28 29zM326 412h553l-267 884h-20z" />
    <glyph glyph-name="amacron" unicode="&#x101;" horiz-adv-x="1050" 
d="M823 0q-24 0 -24 25v135h-19q-131 -170 -348 -170h-10q-320 0 -320 301v49q0 258 314 258h383v90q0 59 -12 100t-42.5 72.5t-86 46.5t-138.5 15q-177 0 -284 -37q-21 -7 -25 14l-12 62q-3 18 12 24q118 47 311 47h39q185 0 271 -84t86 -252v-671q0 -25 -25 -25h-70z
M184 1346v59q0 29 29 29h668q28 0 28 -29v-59q0 -29 -28 -29h-668q-29 0 -29 29zM221 297q0 -102 52 -149.5t157 -47.5h66q121 0 212 79.5t91 178.5v142h-371q-104 0 -155.5 -37.5t-51.5 -130.5v-35z" />
    <glyph glyph-name="Abreve" unicode="&#x102;" horiz-adv-x="1204" 
d="M672 1434q27 0 37 -33l411 -1368q9 -33 -22 -33h-70q-26 0 -35 33l-82 270h-618l-82 -270q-9 -33 -35 -33h-70q-31 0 -22 33l412 1368q10 33 36 33h140zM322 1815q0 28 26 28h51q27 0 27 -28q2 -71 37.5 -112.5t103.5 -41.5h68q68 0 103.5 41.5t37.5 112.5q0 28 27 28h51
q27 0 27 -28q0 -125 -59.5 -185.5t-180.5 -60.5h-80q-239 0 -239 246zM326 412h553l-267 884h-20z" />
    <glyph glyph-name="abreve" unicode="&#x103;" horiz-adv-x="1050" 
d="M823 0q-24 0 -24 25v135h-19q-131 -170 -348 -170h-10q-320 0 -320 301v49q0 258 314 258h383v90q0 59 -12 100t-42.5 72.5t-86 46.5t-138.5 15q-177 0 -284 -37q-21 -7 -25 14l-12 62q-3 18 12 24q118 47 311 47h39q185 0 271 -84t86 -252v-671q0 -25 -25 -25h-70z
M221 297q0 -102 52 -149.5t157 -47.5h66q121 0 212 79.5t91 178.5v142h-371q-104 0 -155.5 -37.5t-51.5 -130.5v-35zM266 1405q0 29 27 29h51q27 0 27 -29q2 -71 37.5 -112.5t103.5 -41.5h68q68 0 103.5 41.5t37.5 112.5q0 29 27 29h51q26 0 26 -29q0 -125 -59 -185.5
t-180 -60.5h-80q-240 0 -240 246z" />
    <glyph glyph-name="Aogonek" unicode="&#x104;" horiz-adv-x="1163" 
d="M885 -414q-106 0 -144.5 33.5t-38.5 122.5q0 45 7.5 71.5t31 41.5t49.5 20.5t80 11.5l88 11q42 4 54 16.5t4 40.5l-105 348h-618l-82 -270q-9 -33 -35 -33h-70q-31 0 -22 33l412 1368q10 33 36 33h140q27 0 37 -33l438 -1454q35 -112 -100 -127l-183 -23
q-30 -3 -40.5 -13t-10.5 -42q0 -40 17.5 -54t72.5 -14h197q20 0 20 -20v-47q0 -21 -20 -21h-215zM326 412h553l-267 884h-20z" />
    <glyph glyph-name="aogonek" unicode="&#x105;" horiz-adv-x="1050" 
d="M422 -10q-320 0 -320 301v49q0 258 314 258h383v90q0 59 -12 100t-42.5 72.5t-86 46.5t-138.5 15q-177 0 -284 -37q-21 -7 -25 14l-12 62q-3 18 12 24q118 47 311 47h39q185 0 271 -84t86 -252v-749q0 -65 -20.5 -90t-76.5 -31l-182 -23q-31 -3 -41 -13t-10 -46
q0 -41 18 -55.5t72 -14.5h196q21 0 21 -20v-47q0 -21 -21 -21h-215q-106 0 -144 33.5t-38 122.5q0 45 7.5 71.5t31 41.5t49.5 20.5t80 11.5l88 11q41 4 53.5 17t12.5 44v201h-19q-131 -170 -348 -170h-10zM221 297q0 -102 52 -149.5t157 -47.5h66q121 0 212 79.5t91 178.5
v142h-371q-104 0 -155.5 -37.5t-51.5 -130.5v-35z" />
    <glyph glyph-name="Cacute" unicode="&#x106;" horiz-adv-x="1239" 
d="M573 -10q-430 0 -430 411v631q0 412 430 412h119q217 0 320.5 -97t103.5 -296v-11q0 -20 -20 -20h-82q-21 0 -21 20q0 153 -74 221t-229 68h-115q-159 0 -234 -72t-75 -227v-627q0 -155 75 -227t234 -72h115q154 0 228.5 65t74.5 206q0 20 21 20h82q20 0 20 -20v-10
q0 -188 -104 -281.5t-320 -93.5h-119zM580 1571l145 235q21 37 45 37h88q18 0 25 -10t-4 -27l-172 -235q-26 -37 -52 -37h-55q-16 0 -22.5 10t2.5 27z" />
    <glyph glyph-name="cacute" unicode="&#x107;" horiz-adv-x="1013" 
d="M512 -10q-198 0 -298.5 90t-100.5 258v346q0 165 94.5 256.5t263.5 91.5h92q162 0 255 -80.5t93 -224.5v-12q0 -25 -24 -25h-68q-24 0 -24 25v10q0 92 -60.5 144.5t-171.5 52.5h-92q-117 0 -178.5 -63t-61.5 -177v-342q0 -116 69.5 -179t213.5 -63h14q118 0 174 24.5
t95 84.5q9 14 16.5 16.5t28.5 -4.5l39 -18q26 -13 14 -39q-42 -84 -129 -128t-238 -44h-16zM467 1161l145 236q21 37 45 37h88q18 0 25 -10t-4 -27l-172 -236q-26 -37 -51 -37h-56q-16 0 -22.5 10t2.5 27z" />
    <glyph glyph-name="Ccircumflex" unicode="&#x108;" horiz-adv-x="1239" 
d="M573 -10q-430 0 -430 411v631q0 412 430 412h119q217 0 320.5 -97t103.5 -296v-11q0 -20 -20 -20h-82q-21 0 -21 20q0 153 -74 221t-229 68h-115q-159 0 -234 -72t-75 -227v-627q0 -155 75 -227t234 -72h115q154 0 228.5 65t74.5 206q0 20 21 20h82q20 0 20 -20v-10
q0 -188 -104 -281.5t-320 -93.5h-119zM315 1571l215 246q23 26 52 26h67q38 0 58 -26l215 -246q10 -12 6 -22.5t-19 -10.5h-69q-28 0 -49 27l-162 184h-21l-162 -184q-21 -27 -49 -27h-69q-15 0 -19 10.5t6 22.5z" />
    <glyph glyph-name="ccircumflex" unicode="&#x109;" horiz-adv-x="1013" 
d="M512 -10q-198 0 -298.5 90t-100.5 258v346q0 165 94.5 256.5t263.5 91.5h92q162 0 255 -80.5t93 -224.5v-12q0 -25 -24 -25h-68q-24 0 -24 25v10q0 92 -60.5 144.5t-171.5 52.5h-92q-117 0 -178.5 -63t-61.5 -177v-342q0 -116 69.5 -179t213.5 -63h14q118 0 174 24.5
t95 84.5q9 14 16.5 16.5t28.5 -4.5l39 -18q26 -13 14 -39q-42 -84 -129 -128t-238 -44h-16zM203 1161l215 246q24 27 51 27h68q36 0 57 -27l215 -246q11 -12 7 -22.5t-19 -10.5h-70q-28 0 -49 27l-162 184h-20l-162 -184q-21 -27 -49 -27h-70q-15 0 -19 10.5t7 22.5z" />
    <glyph glyph-name="Cdotaccent" unicode="&#x10a;" horiz-adv-x="1239" 
d="M573 -10q-430 0 -430 411v631q0 412 430 412h119q217 0 320.5 -97t103.5 -296v-11q0 -20 -20 -20h-82q-21 0 -21 20q0 153 -74 221t-229 68h-115q-159 0 -234 -72t-75 -227v-627q0 -155 75 -227t234 -72h115q154 0 228.5 65t74.5 206q0 20 21 20h82q20 0 20 -20v-10
q0 -188 -104 -281.5t-320 -93.5h-119zM563 1737v80q0 15 6 20.5t21 5.5h80q15 0 20.5 -5.5t5.5 -20.5v-80q0 -15 -5.5 -21t-20.5 -6h-80q-15 0 -21 6t-6 21z" />
    <glyph glyph-name="cdotaccent" unicode="&#x10b;" horiz-adv-x="1013" 
d="M512 -10q-198 0 -298.5 90t-100.5 258v346q0 165 94.5 256.5t263.5 91.5h92q162 0 255 -80.5t93 -224.5v-12q0 -25 -24 -25h-68q-24 0 -24 25v10q0 92 -60.5 144.5t-171.5 52.5h-92q-117 0 -178.5 -63t-61.5 -177v-342q0 -116 69.5 -179t213.5 -63h14q118 0 174 24.5
t95 84.5q9 14 16.5 16.5t28.5 -4.5l39 -18q26 -13 14 -39q-42 -84 -129 -128t-238 -44h-16zM451 1327v80q0 15 5.5 21t20.5 6h80q15 0 21 -6t6 -21v-80q0 -15 -6 -21t-21 -6h-80q-15 0 -20.5 6t-5.5 21z" />
    <glyph glyph-name="Ccaron" unicode="&#x10c;" horiz-adv-x="1239" 
d="M573 -10q-430 0 -430 411v631q0 412 430 412h119q217 0 320.5 -97t103.5 -296v-11q0 -20 -20 -20h-82q-21 0 -21 20q0 153 -74 221t-229 68h-115q-159 0 -234 -72t-75 -227v-627q0 -155 75 -227t234 -72h115q154 0 228.5 65t74.5 206q0 20 21 20h82q20 0 20 -20v-10
q0 -188 -104 -281.5t-320 -93.5h-119zM328 1810q-11 12 -7 22.5t19 10.5h70q29 0 49 -26l162 -185h20l162 185q20 26 49 26h70q15 0 19 -10.5t-7 -22.5l-215 -245q-21 -27 -57 -27h-68q-27 0 -51 27z" />
    <glyph glyph-name="ccaron" unicode="&#x10d;" horiz-adv-x="1013" 
d="M512 -10q-198 0 -298.5 90t-100.5 258v346q0 165 94.5 256.5t263.5 91.5h92q162 0 255 -80.5t93 -224.5v-12q0 -25 -24 -25h-68q-24 0 -24 25v10q0 92 -60.5 144.5t-171.5 52.5h-92q-117 0 -178.5 -63t-61.5 -177v-342q0 -116 69.5 -179t213.5 -63h14q118 0 174 24.5
t95 84.5q9 14 16.5 16.5t28.5 -4.5l39 -18q26 -13 14 -39q-42 -84 -129 -128t-238 -44h-16zM215 1401q-11 12 -7 22.5t19 10.5h70q28 0 49 -27l162 -184h20l162 184q21 27 49 27h70q15 0 19 -10.5t-7 -22.5l-215 -246q-21 -27 -57 -27h-68q-27 0 -51 27z" />
    <glyph glyph-name="Dcaron" unicode="&#x10e;" horiz-adv-x="1249" 
d="M170 0q-15 0 -21 6t-6 21v1380q0 15 6 21t21 6h506q430 0 430 -412v-610q0 -412 -430 -412h-506zM266 115h408q159 0 234 72t75 227v606q0 155 -75 227t-234 72h-408v-1204zM301 1810q-11 12 -7 22.5t19 10.5h70q29 0 49 -26l162 -185h20l162 185q20 26 49 26h70
q15 0 19 -10.5t-7 -22.5l-215 -245q-21 -27 -57 -27h-68q-27 0 -51 27z" />
    <glyph glyph-name="dcaron" unicode="&#x10f;" horiz-adv-x="1085" 
d="M463 -10q-170 0 -260 87.5t-90 258.5v350q0 171 90 258.5t260 87.5h72q183 0 258 -125h16v502q0 25 25 25h69q25 0 25 -25v-1384q0 -25 -25 -25h-69q-25 0 -25 25v90h-16q-75 -125 -258 -125h-72zM231 344q0 -244 246 -244h90q117 0 179.5 63t62.5 177v342
q0 114 -62.5 177t-179.5 63h-90q-246 0 -246 -244v-334zM983 1042v50q0 15 6 20.5t21 5.5h59v289q0 15 6 21t21 6h55q15 0 21 -6t6 -21v-342q0 -26 -12 -37.5t-38 -11.5h-118q-15 0 -21 5.5t-6 20.5z" />
    <glyph glyph-name="Dcroat" unicode="&#x110;" horiz-adv-x="1269" 
d="M190 0q-15 0 -20.5 6t-5.5 21v639h-129q-25 0 -25 24v60q0 24 25 24h129v633q0 15 5.5 21t20.5 6h506q430 0 430 -412v-610q0 -412 -430 -412h-506zM287 115h407q159 0 234.5 72t75.5 227v606q0 155 -75.5 227t-234.5 72h-407v-545h231q25 0 25 -24v-60q0 -24 -25 -24
h-231v-551z" />
    <glyph glyph-name="dcroat" unicode="&#x111;" horiz-adv-x="1034" 
d="M317 1157q-28 0 -28 29v47q0 29 28 29h492v147q0 25 25 25h69q25 0 25 -25v-147h57q29 0 29 -29v-47q0 -29 -29 -29h-57v-1132q0 -25 -25 -25h-69q-25 0 -25 25v90h-16q-75 -125 -258 -125h-72q-170 0 -260 87.5t-90 258.5v350q0 171 90 258.5t260 87.5h72
q183 0 258 -125h16v250h-492zM231 344q0 -244 246 -244h90q117 0 179.5 63t62.5 177v342q0 114 -62.5 177t-179.5 63h-90q-246 0 -246 -244v-334z" />
    <glyph glyph-name="Emacron" unicode="&#x112;" horiz-adv-x="1064" 
d="M172 0q-29 0 -29 27v1380q0 27 29 27h778q29 0 29 -27v-61q0 -27 -29 -27h-684v-543h627q29 0 29 -26v-58q0 -26 -29 -26h-627v-551h688q29 0 29 -27v-61q0 -27 -29 -27h-782zM207 1755v60q0 28 29 28h667q29 0 29 -28v-60q0 -29 -29 -29h-667q-29 0 -29 29z" />
    <glyph glyph-name="emacron" unicode="&#x113;" horiz-adv-x="1034" 
d="M508 -10q-198 0 -296.5 91t-98.5 257v346q0 166 93.5 257t262.5 91h96q172 0 264.5 -89t92.5 -255v-164q0 -29 -17.5 -46t-48.5 -17h-625v-121q0 -114 69.5 -180t211.5 -66h20q175 0 287 78q18 12 29 -2l31 -41q12 -15 0 -27q-47 -47 -139.5 -79.5t-211.5 -32.5h-20z
M158 1346v59q0 29 28 29h668q29 0 29 -29v-59q0 -29 -29 -29h-668q-28 0 -28 29zM231 557h572v129q0 236 -240 236h-92q-118 0 -179 -63t-61 -177v-125z" />
    <glyph glyph-name="Edotaccent" unicode="&#x116;" horiz-adv-x="1064" 
d="M172 0q-29 0 -29 27v1380q0 27 29 27h778q29 0 29 -27v-61q0 -27 -29 -27h-684v-543h627q29 0 29 -26v-58q0 -26 -29 -26h-627v-551h688q29 0 29 -27v-61q0 -27 -29 -27h-782zM502 1737v80q0 15 5.5 20.5t20.5 5.5h80q15 0 21 -5.5t6 -20.5v-80q0 -15 -6 -21t-21 -6h-80
q-15 0 -20.5 6t-5.5 21z" />
    <glyph glyph-name="edotaccent" unicode="&#x117;" horiz-adv-x="1034" 
d="M508 -10q-198 0 -296.5 91t-98.5 257v346q0 166 93.5 257t262.5 91h96q172 0 264.5 -89t92.5 -255v-164q0 -29 -17.5 -46t-48.5 -17h-625v-121q0 -114 69.5 -180t211.5 -66h20q175 0 287 78q18 12 29 -2l31 -41q12 -15 0 -27q-47 -47 -139.5 -79.5t-211.5 -32.5h-20z
M231 557h572v129q0 236 -240 236h-92q-118 0 -179 -63t-61 -177v-125zM453 1327v80q0 15 5.5 21t20.5 6h80q15 0 21 -6t6 -21v-80q0 -15 -6 -21t-21 -6h-80q-15 0 -20.5 6t-5.5 21z" />
    <glyph glyph-name="Eogonek" unicode="&#x118;" horiz-adv-x="1064" 
d="M172 0q-29 0 -29 27v1380q0 27 29 27h778q29 0 29 -27v-61q0 -27 -29 -27h-684v-543h627q29 0 29 -26v-58q0 -26 -29 -26h-627v-551h688q29 0 29 -27v-141q0 -65 -20 -90t-76 -31l-182 -23q-31 -3 -41.5 -13t-10.5 -46q0 -41 18 -55.5t72 -14.5h197q21 0 21 -20v-47
q0 -21 -21 -21h-215q-106 0 -144 33.5t-38 122.5q0 45 7.5 71.5t31 41.5t49.5 20.5t80 11.5l88 11q41 4 53 17t12 44v41h-692z" />
    <glyph glyph-name="eogonek" unicode="&#x119;" horiz-adv-x="1034" 
d="M416 -414q-106 0 -144.5 33.5t-38.5 122.5q0 45 7.5 71.5t31 41.5t49.5 20.5t80 11.5l88 11q42 4 54 21.5t12 70.5q-124 0 -210.5 23.5t-137 70.5t-72.5 108.5t-22 145.5v346q0 166 93.5 257t262.5 91h96q172 0 264.5 -89t92.5 -255v-164q0 -29 -17.5 -46t-48.5 -17h-625
v-121q0 -114 69.5 -180t211.5 -66h20q175 0 287 78q18 12 29 -2l31 -41q12 -15 0 -27q-69 -69 -205 -98v-57q0 -65 -20 -90t-76 -31l-183 -23q-31 -3 -41 -13t-10 -46q0 -41 18 -55.5t72 -14.5h197q20 0 20 -20v-47q0 -21 -20 -21h-215zM231 557h572v129q0 236 -240 236h-92
q-118 0 -179 -63t-61 -177v-125z" />
    <glyph glyph-name="Ecaron" unicode="&#x11a;" horiz-adv-x="1064" 
d="M172 0q-29 0 -29 27v1380q0 27 29 27h778q29 0 29 -27v-61q0 -27 -29 -27h-684v-543h627q29 0 29 -26v-58q0 -26 -29 -26h-627v-551h688q29 0 29 -27v-61q0 -27 -29 -27h-782zM266 1810q-10 12 -6 22.5t19 10.5h69q29 0 49 -26l162 -185h21l161 185q20 26 50 26h69
q15 0 19 -10.5t-7 -22.5l-215 -245q-21 -27 -57 -27h-68q-27 0 -51 27z" />
    <glyph glyph-name="ecaron" unicode="&#x11b;" horiz-adv-x="1034" 
d="M508 -10q-198 0 -296.5 91t-98.5 257v346q0 166 93.5 257t262.5 91h96q172 0 264.5 -89t92.5 -255v-164q0 -29 -17.5 -46t-48.5 -17h-625v-121q0 -114 69.5 -180t211.5 -66h20q175 0 287 78q18 12 29 -2l31 -41q12 -15 0 -27q-47 -47 -139.5 -79.5t-211.5 -32.5h-20z
M217 1401q-11 12 -7 22.5t19 10.5h70q28 0 49 -27l162 -184h20l162 184q21 27 49 27h70q15 0 19 -10.5t-7 -22.5l-215 -246q-21 -27 -57 -27h-68q-27 0 -51 27zM231 557h572v129q0 236 -240 236h-92q-118 0 -179 -63t-61 -177v-125z" />
    <glyph glyph-name="Gcircumflex" unicode="&#x11c;" horiz-adv-x="1259" 
d="M573 -10q-430 0 -430 411v631q0 412 430 412h119q217 0 319.5 -97t102.5 -296v-11q0 -20 -20 -20h-82q-21 0 -21 20q0 153 -73 221t-228 68h-115q-159 0 -234 -72t-75 -227v-627q0 -155 75 -227t234 -72h109q159 0 234 72t75 227v263h-311q-29 0 -29 26v58q0 26 29 26
h403q13 0 22 -9t9 -22v-344q0 -411 -430 -411h-113zM322 1571l215 246q23 26 51 26h67q38 0 58 -26l215 -246q10 -12 6 -22.5t-19 -10.5h-69q-28 0 -49 27l-162 184h-21l-161 -184q-21 -27 -50 -27h-69q-15 0 -19 10.5t7 22.5z" />
    <glyph glyph-name="gcircumflex" unicode="&#x11d;" horiz-adv-x="1050" 
d="M502 -379q-97 0 -168 8q-41 6 -41 31v51q0 12 8.5 18.5t20.5 4.5q70 -6 194 -6q147 0 220 50.5t73 184.5v152h-16q-75 -125 -258 -125h-72q-170 0 -260 87.5t-90 258.5v350q0 171 90 258.5t260 87.5h72q183 0 258 -125h16v90q0 27 25 27h69q25 0 25 -27v-1034
q0 -188 -100.5 -265t-325.5 -77zM225 1161l215 246q24 27 52 27h67q36 0 57 -27l215 -246q11 -12 7 -22.5t-19 -10.5h-69q-29 0 -50 27l-161 184h-21l-162 -184q-21 -27 -49 -27h-69q-15 0 -19 10.5t6 22.5zM231 344q0 -244 246 -244h90q117 0 179.5 63t62.5 177v342
q0 114 -62.5 177t-179.5 63h-90q-246 0 -246 -244v-334z" />
    <glyph glyph-name="Gbreve" unicode="&#x11e;" horiz-adv-x="1259" 
d="M573 -10q-430 0 -430 411v631q0 412 430 412h119q217 0 319.5 -97t102.5 -296v-11q0 -20 -20 -20h-82q-21 0 -21 20q0 153 -73 221t-228 68h-115q-159 0 -234 -72t-75 -227v-627q0 -155 75 -227t234 -72h109q159 0 234 72t75 227v263h-311q-29 0 -29 26v58q0 26 29 26
h403q13 0 22 -9t9 -22v-344q0 -411 -430 -411h-113zM356 1815q0 28 27 28h51q27 0 27 -28q2 -71 37.5 -112.5t103.5 -41.5h68q68 0 103.5 41.5t37.5 112.5q0 28 27 28h51q26 0 26 -28q0 -125 -59 -185.5t-180 -60.5h-80q-240 0 -240 246z" />
    <glyph glyph-name="gbreve" unicode="&#x11f;" horiz-adv-x="1050" 
d="M502 -379q-97 0 -168 8q-41 6 -41 31v51q0 12 8.5 18.5t20.5 4.5q70 -6 194 -6q147 0 220 50.5t73 184.5v152h-16q-75 -125 -258 -125h-72q-170 0 -260 87.5t-90 258.5v350q0 171 90 258.5t260 87.5h72q183 0 258 -125h16v90q0 27 25 27h69q25 0 25 -27v-1034
q0 -188 -100.5 -265t-325.5 -77zM231 344q0 -244 246 -244h90q117 0 179.5 63t62.5 177v342q0 114 -62.5 177t-179.5 63h-90q-246 0 -246 -244v-334zM260 1405q0 29 27 29h51q27 0 27 -29q2 -71 37.5 -112.5t103.5 -41.5h67q69 0 104.5 41.5t37.5 112.5q0 29 26 29h52
q26 0 26 -29q0 -125 -59 -185.5t-180 -60.5h-80q-240 0 -240 246z" />
    <glyph glyph-name="Gdotaccent" unicode="&#x120;" horiz-adv-x="1259" 
d="M573 -10q-430 0 -430 411v631q0 412 430 412h119q217 0 319.5 -97t102.5 -296v-11q0 -20 -20 -20h-82q-21 0 -21 20q0 153 -73 221t-228 68h-115q-159 0 -234 -72t-75 -227v-627q0 -155 75 -227t234 -72h109q159 0 234 72t75 227v263h-311q-29 0 -29 26v58q0 26 29 26
h403q13 0 22 -9t9 -22v-344q0 -411 -430 -411h-113zM569 1737v80q0 15 6 20.5t21 5.5h80q15 0 20.5 -5.5t5.5 -20.5v-80q0 -15 -5.5 -21t-20.5 -6h-80q-15 0 -21 6t-6 21z" />
    <glyph glyph-name="gdotaccent" unicode="&#x121;" horiz-adv-x="1050" 
d="M502 -379q-97 0 -168 8q-41 6 -41 31v51q0 12 8.5 18.5t20.5 4.5q70 -6 194 -6q147 0 220 50.5t73 184.5v152h-16q-75 -125 -258 -125h-72q-170 0 -260 87.5t-90 258.5v350q0 171 90 258.5t260 87.5h72q183 0 258 -125h16v90q0 27 25 27h69q25 0 25 -27v-1034
q0 -188 -100.5 -265t-325.5 -77zM231 344q0 -244 246 -244h90q117 0 179.5 63t62.5 177v342q0 114 -62.5 177t-179.5 63h-90q-246 0 -246 -244v-334zM473 1327v80q0 15 6 21t21 6h80q15 0 20.5 -6t5.5 -21v-80q0 -15 -5.5 -21t-20.5 -6h-80q-15 0 -21 6t-6 21z" />
    <glyph glyph-name="uni0122" unicode="&#x122;" horiz-adv-x="1259" 
d="M573 -10q-430 0 -430 411v631q0 412 430 412h119q217 0 319.5 -97t102.5 -296v-11q0 -20 -20 -20h-82q-21 0 -21 20q0 153 -73 221t-228 68h-115q-159 0 -234 -72t-75 -227v-627q0 -155 75 -227t234 -72h109q159 0 234 72t75 227v263h-311q-29 0 -29 26v58q0 26 29 26
h403q13 0 22 -9t9 -22v-344q0 -411 -430 -411h-113zM494 -485v49q0 15 5.5 20.5t20.5 5.5h60v260q0 15 5.5 21t20.5 6h56q15 0 20.5 -6t5.5 -21v-313q0 -26 -11.5 -37.5t-37.5 -11.5h-119q-15 0 -20.5 6t-5.5 21z" />
    <glyph glyph-name="uni0123" unicode="&#x123;" horiz-adv-x="1050" 
d="M455 1221q-15 0 -21 5.5t-6 20.5v342q0 26 11.5 37.5t37.5 11.5h119q15 0 21 -5.5t6 -20.5v-49q0 -15 -6 -21t-21 -6h-59v-289q0 -15 -6 -20.5t-21 -5.5h-55zM113 336v350q0 171 90 258.5t260 87.5h72q183 0 258 -125h16v90q0 27 25 27h69q25 0 25 -27v-1034
q0 -188 -100.5 -265t-325.5 -77q-97 0 -168 8q-41 6 -41 31v51q0 12 8.5 18.5t20.5 4.5q70 -6 194 -6q147 0 220 50.5t73 184.5v152h-16q-75 -125 -258 -125h-72q-170 0 -260 87.5t-90 258.5zM231 344q0 -244 246 -244h90q117 0 179.5 63t62.5 177v342q0 114 -62.5 177
t-179.5 63h-90q-246 0 -246 -244v-334z" />
    <glyph glyph-name="Hcircumflex" unicode="&#x124;" horiz-adv-x="1249" 
d="M1010 0q-15 0 -21 6t-6 21v639h-717v-639q0 -15 -5.5 -21t-20.5 -6h-70q-15 0 -21 6t-6 21v1380q0 15 6 21t21 6h70q15 0 20.5 -6t5.5 -21v-631h717v631q0 15 6 21t21 6h69q15 0 21 -6t6 -21v-1380q0 -15 -6 -21t-21 -6h-69zM309 1571l215 246q23 26 51 26h68
q37 0 57 -26l215 -246q11 -12 7 -22.5t-19 -10.5h-69q-29 0 -50 27l-161 184h-21l-162 -184q-21 -27 -49 -27h-69q-15 0 -19 10.5t6 22.5z" />
    <glyph glyph-name="hcircumflex" unicode="&#x125;" horiz-adv-x="1081" 
d="M158 0q-25 0 -25 25v1384q0 25 25 25h69q25 0 25 -25v-502h20q41 59 111 92t162 33h67q174 0 255 -86t81 -260v-661q0 -25 -24 -25h-70q-25 0 -25 25v653q0 121 -58 182.5t-183 61.5h-74q-125 0 -193.5 -63.5t-68.5 -178.5v-655q0 -25 -25 -25h-69zM-121 1571l215 246
q23 26 51 26h68q37 0 57 -26l215 -246q11 -12 7 -22.5t-19 -10.5h-70q-28 0 -49 27l-161 184h-21l-162 -184q-21 -27 -49 -27h-70q-15 0 -19 10.5t7 22.5z" />
    <glyph glyph-name="Hbar" unicode="&#x126;" horiz-adv-x="1249" 
d="M1010 0q-15 0 -21 6t-6 21v639h-717v-639q0 -15 -5.5 -21t-20.5 -6h-70q-15 0 -21 6t-6 21v1380q0 15 6 21t21 6h70q15 0 20.5 -6t5.5 -21v-334h717v334q0 15 6 21t21 6h69q15 0 21 -6t6 -21v-1380q0 -15 -6 -21t-21 -6h-69zM266 776h717v187h-717v-187z" />
    <glyph glyph-name="hbar" unicode="&#x127;" horiz-adv-x="1081" 
d="M158 0q-25 0 -25 25v1120h-104q-29 0 -29 29v59q0 29 29 29h104v147q0 25 25 25h69q25 0 25 -25v-147h444q29 0 29 -29v-59q0 -29 -29 -29h-444v-238h20q41 59 111 92t162 33h67q174 0 255 -86t81 -260v-661q0 -25 -24 -25h-70q-25 0 -25 25v653q0 121 -58 182.5
t-183 61.5h-74q-125 0 -193.5 -63.5t-68.5 -178.5v-655q0 -25 -25 -25h-69z" />
    <glyph glyph-name="Itilde" unicode="&#x128;" horiz-adv-x="409" 
d="M170 0q-15 0 -21 6t-6 21v1380q0 15 6 21t21 6h70q15 0 20.5 -6t5.5 -21v-1380q0 -15 -5.5 -21t-20.5 -6h-70zM-127 1767q-9 18 14 33q83 53 168 53q44 0 87 -15.5t71.5 -33.5t68.5 -33.5t80 -15.5q60 0 119 39q22 14 31 -8l25 -51q9 -18 -15 -33q-83 -53 -168 -53
q-44 0 -87 15.5t-71 33.5t-68.5 33.5t-80.5 15.5q-56 0 -119 -39q-21 -13 -30 8z" />
    <glyph glyph-name="itilde" unicode="&#x129;" horiz-adv-x="344" 
d="M137 0q-24 0 -24 25v974q0 25 24 25h70q24 0 24 -25v-974q0 -25 -24 -25h-70zM-160 1358q-9 18 15 33q83 53 168 53q44 0 87 -15.5t71.5 -33.5t68.5 -33.5t80 -15.5q61 0 119 38q21 13 30 -8l25 -51q9 -18 -15 -33q-83 -53 -167 -53q-56 0 -107.5 24.5t-101 49
t-99.5 24.5q-55 0 -118 -39q-21 -13 -31 9z" />
    <glyph glyph-name="Imacron" unicode="&#x12a;" horiz-adv-x="409" 
d="M170 0q-15 0 -21 6t-6 21v1380q0 15 6 21t21 6h70q15 0 20.5 -6t5.5 -21v-1380q0 -15 -5.5 -21t-20.5 -6h-70zM-158 1755v60q0 28 29 28h668q28 0 28 -28v-60q0 -29 -28 -29h-668q-29 0 -29 29z" />
    <glyph glyph-name="imacron" unicode="&#x12b;" horiz-adv-x="344" 
d="M137 0q-24 0 -24 25v974q0 25 24 25h70q24 0 24 -25v-974q0 -25 -24 -25h-70zM-190 1346v59q0 29 28 29h668q29 0 29 -29v-59q0 -29 -29 -29h-668q-28 0 -28 29z" />
    <glyph glyph-name="Iogonek" unicode="&#x12e;" horiz-adv-x="411" 
d="M8 -414q-106 0 -144 33.5t-38 122.5q0 45 7.5 71.5t31 41.5t49.5 20.5t80 11.5l86 11q41 4 53 17t12 44v1448q0 15 6 21t21 6h70q15 0 20.5 -6t5.5 -21v-1460q0 -65 -21 -90t-77 -31l-182 -23q-31 -3 -41 -13t-10 -46q0 -41 18 -55.5t72 -14.5h196q21 0 21 -20v-47
q0 -21 -21 -21h-215z" />
    <glyph glyph-name="iogonek" unicode="&#x12f;" horiz-adv-x="344" 
d="M131 1300q-15 0 -21 6t-6 21v80q0 15 6 21t21 6h80q15 0 21 -6t6 -21v-80q0 -15 -6 -21t-21 -6h-80zM-209 -258q0 45 7.5 71.5t31 41.5t49.5 20.5t80 11.5l88 11q41 4 53.5 17t12.5 44v1040q0 25 24 25h70q24 0 24 -25v-1052q0 -65 -20 -90t-76 -31l-182 -23
q-31 -3 -41 -13t-10 -46q0 -41 18 -55.5t72 -14.5h196q21 0 21 -20v-47q0 -21 -21 -21h-215q-106 0 -144 33.5t-38 122.5z" />
    <glyph glyph-name="Idotaccent" unicode="&#x130;" horiz-adv-x="409" 
d="M170 0q-15 0 -21 6t-6 21v1380q0 15 6 21t21 6h70q15 0 20.5 -6t5.5 -21v-1380q0 -15 -5.5 -21t-20.5 -6h-70zM137 1737v80q0 15 6 20.5t21 5.5h80q15 0 20.5 -5.5t5.5 -20.5v-80q0 -15 -5.5 -21t-20.5 -6h-80q-15 0 -21 6t-6 21z" />
    <glyph glyph-name="dotlessi" unicode="&#x131;" horiz-adv-x="344" 
d="M137 0q-24 0 -24 25v974q0 25 24 25h70q24 0 24 -25v-974q0 -25 -24 -25h-70z" />
    <glyph glyph-name="IJ" unicode="&#x132;" horiz-adv-x="1146" 
d="M170 0q-15 0 -21 6t-6 21v1380q0 15 6 21t21 6h70q15 0 20.5 -6t5.5 -21v-1380q0 -15 -5.5 -21t-20.5 -6h-70zM502 16v62q0 15 6.5 20.5t21.5 5.5h41q159 0 234.5 72t75.5 227v1004q0 15 5.5 21t20.5 6h70q15 0 21 -6t6 -21v-1006q0 -411 -431 -411h-43q-15 0 -21.5 5.5
t-6.5 20.5z" />
    <glyph glyph-name="ij" unicode="&#x133;" horiz-adv-x="790" 
d="M158 1313q-25 0 -25 24v72q0 25 25 25h73q25 0 25 -25v-72q0 -24 -25 -24h-73zM135 25v974q0 25 25 25h69q25 0 25 -25v-974q0 -25 -25 -25h-69q-25 0 -25 25zM369 -338v45q0 29 34 29q75 0 105.5 33t30.5 122v1108q0 25 24 25h70q24 0 24 -25v-1122q0 -129 -49.5 -189.5
t-161.5 -60.5q-43 0 -60 8t-17 27zM535 1337v72q0 25 24 25h74q24 0 24 -25v-72q0 -24 -24 -24h-74q-24 0 -24 24z" />
    <glyph glyph-name="Jcircumflex" unicode="&#x134;" horiz-adv-x="737" 
d="M121 -10q-29 0 -29 26v62q0 26 29 26h41q159 0 234 72t75 227v1004q0 15 6 21t21 6h69q15 0 21 -6t6 -21v-1006q0 -411 -430 -411h-43zM217 1571l215 246q23 26 51 26h68q37 0 57 -26l215 -246q11 -12 7 -22.5t-19 -10.5h-70q-28 0 -49 27l-162 184h-20l-162 -184
q-21 -27 -49 -27h-70q-15 0 -19 10.5t7 22.5z" />
    <glyph glyph-name="jcircumflex" unicode="&#x135;" horiz-adv-x="380" 
d="M37 -373q-44 0 -61 8t-17 27v45q0 29 35 29q75 0 105 33t30 122v1108q0 25 25 25h69q25 0 25 -25v-1122q0 -129 -49.5 -189.5t-161.5 -60.5zM-129 1161l215 246q24 27 51 27h68q36 0 57 -27l215 -246q11 -12 7 -22.5t-19 -10.5h-70q-28 0 -49 27l-162 184h-20l-162 -184
q-21 -27 -49 -27h-70q-15 0 -19 10.5t7 22.5z" />
    <glyph glyph-name="uni0136" unicode="&#x136;" horiz-adv-x="1146" 
d="M170 0q-15 0 -21 6t-6 21v1380q0 15 6 21t21 6h70q15 0 20.5 -6t5.5 -21v-756l608 754q12 16 20.5 22.5t20.5 6.5h86q19 0 22.5 -12t-11.5 -31l-510 -623l557 -731q10 -12 5.5 -24.5t-22.5 -12.5h-75q-31 0 -54 29l-489 643l-158 -193v-452q0 -15 -5.5 -21t-20.5 -6h-70z
M422 -485v49q0 15 6 20.5t21 5.5h59v260q0 15 6 21t21 6h55q15 0 20.5 -6t5.5 -21v-313q0 -26 -11.5 -37.5t-37.5 -11.5h-118q-15 0 -21 6t-6 21z" />
    <glyph glyph-name="uni0137" unicode="&#x137;" horiz-adv-x="993" 
d="M158 0q-25 0 -25 25v1384q0 25 25 25h69q25 0 25 -25v-901l491 496q20 20 41 20h82q19 0 23 -13t-10 -26l-412 -407l457 -543q12 -13 6 -24t-25 -11h-71q-26 0 -48 25l-395 477l-139 -137v-340q0 -25 -25 -25h-69zM330 -485v49q0 15 5.5 20.5t20.5 5.5h60v260
q0 15 5.5 21t20.5 6h56q15 0 20.5 -6t5.5 -21v-313q0 -26 -11.5 -37.5t-37.5 -11.5h-119q-15 0 -20.5 6t-5.5 21z" />
    <glyph glyph-name="Lacute" unicode="&#x139;" horiz-adv-x="1024" 
d="M172 0q-29 0 -29 27v1380q0 15 6 21t21 6h70q15 0 20.5 -6t5.5 -21v-1292h637q29 0 29 -27v-61q0 -27 -29 -27h-731zM154 1571l145 235q21 37 45 37h88q18 0 25 -10t-4 -27l-172 -235q-26 -37 -52 -37h-55q-16 0 -22.5 10t2.5 27z" />
    <glyph glyph-name="lacute" unicode="&#x13a;" horiz-adv-x="385" 
d="M158 0q-25 0 -25 25v1384q0 25 25 25h69q25 0 25 -25v-1384q0 -25 -25 -25h-69zM141 1571l146 235q21 37 45 37h88q18 0 24.5 -10t-4.5 -27l-172 -235q-26 -37 -51 -37h-55q-16 0 -23 10t2 27z" />
    <glyph glyph-name="uni013B" unicode="&#x13b;" horiz-adv-x="1024" 
d="M172 0q-29 0 -29 27v1380q0 15 6 21t21 6h70q15 0 20.5 -6t5.5 -21v-1292h637q29 0 29 -27v-61q0 -27 -29 -27h-731zM406 -485v49q0 15 5.5 20.5t20.5 5.5h60v260q0 15 5.5 21t20.5 6h55q15 0 21 -6t6 -21v-313q0 -26 -11.5 -37.5t-37.5 -11.5h-119q-15 0 -20.5 6
t-5.5 21z" />
    <glyph glyph-name="uni013C" unicode="&#x13c;" horiz-adv-x="385" 
d="M158 0q-25 0 -25 25v1384q0 25 25 25h69q25 0 25 -25v-1384q0 -25 -25 -25h-69zM49 -485v49q0 15 6 20.5t21 5.5h59v260q0 15 6 21t21 6h55q15 0 21 -6t6 -21v-313q0 -26 -11.5 -37.5t-37.5 -11.5h-119q-15 0 -21 6t-6 21z" />
    <glyph glyph-name="Lcaron" unicode="&#x13d;" horiz-adv-x="1024" 
d="M172 0q-29 0 -29 27v1380q0 15 6 21t21 6h70q15 0 20.5 -6t5.5 -21v-1292h637q29 0 29 -27v-61q0 -27 -29 -27h-731zM489 1042v50q0 15 6 20.5t21 5.5h59v289q0 15 6 21t21 6h55q15 0 21 -6t6 -21v-342q0 -26 -11.5 -37.5t-37.5 -11.5h-119q-15 0 -21 5.5t-6 20.5z" />
    <glyph glyph-name="lcaron" unicode="&#x13e;" horiz-adv-x="460" 
d="M158 0q-25 0 -25 25v1384q0 25 25 25h69q25 0 25 -25v-1384q0 -25 -25 -25h-69zM317 1042v50q0 15 6 20.5t21 5.5h59v289q0 15 6 21t21 6h55q15 0 21 -6t6 -21v-342q0 -26 -11.5 -37.5t-37.5 -11.5h-119q-15 0 -21 5.5t-6 20.5z" />
    <glyph glyph-name="Ldot" unicode="&#x13f;" horiz-adv-x="1024" 
d="M172 0q-29 0 -29 27v1380q0 15 6 21t21 6h70q15 0 20.5 -6t5.5 -21v-1292h637q29 0 29 -27v-61q0 -27 -29 -27h-731zM537 705v79q0 15 5.5 21t20.5 6h80q15 0 21 -6t6 -21v-79q0 -15 -6 -21t-21 -6h-80q-15 0 -20.5 6t-5.5 21z" />
    <glyph glyph-name="ldot" unicode="&#x140;" horiz-adv-x="419" 
d="M158 0q-25 0 -25 25v1384q0 25 25 25h69q25 0 25 -25v-1384q0 -25 -25 -25h-69zM317 569v80q0 15 6 21t21 6h80q15 0 21 -6t6 -21v-80q0 -15 -6 -20.5t-21 -5.5h-80q-15 0 -21 5.5t-6 20.5z" />
    <glyph glyph-name="Lslash" unicode="&#x141;" horiz-adv-x="1095" 
d="M39 303q-19 0 -25.5 9t4.5 24l197 237v834q0 15 6 21t21 6h69q15 0 21 -6t6 -21v-686l174 209q24 33 47 33h76q19 0 24.5 -9t-6.5 -24l-315 -381v-434h637q29 0 29 -27v-61q0 -27 -29 -27h-731q-29 0 -29 27v372l-53 -63q-24 -33 -47 -33h-76z" />
    <glyph glyph-name="lslash" unicode="&#x142;" horiz-adv-x="413" 
d="M172 0q-25 0 -25 25v618l-61 -61q-25 -25 -45 -25h-53q-11 0 -17 9.5t4 21.5l172 172v649q0 25 25 25h70q24 0 24 -25v-530l60 59q25 25 47 25h53q14 0 17 -11t-7 -20l-170 -170v-737q0 -25 -24 -25h-70z" />
    <glyph glyph-name="Nacute" unicode="&#x143;" horiz-adv-x="1228" 
d="M170 0q-15 0 -21 6t-6 21v1380q0 15 6 21t21 6h149q25 0 37 -23l590 -1270h17v1266q0 15 5.5 21t20.5 6h70q15 0 20.5 -6t5.5 -21v-1380q0 -15 -5.5 -21t-20.5 -6h-150q-25 0 -37 23l-589 1269h-17v-1265q0 -15 -5.5 -21t-20.5 -6h-70zM563 1571l146 235q21 37 45 37h88
q18 0 24.5 -10t-4.5 -27l-172 -235q-26 -37 -51 -37h-55q-16 0 -23 10t2 27z" />
    <glyph glyph-name="nacute" unicode="&#x144;" horiz-adv-x="1081" 
d="M158 0q-25 0 -25 25v974q0 25 25 25h69q25 0 25 -25v-92h20q41 59 111 92t162 33h67q174 0 255 -86t81 -260v-661q0 -25 -24 -25h-70q-25 0 -25 25v653q0 121 -58 182.5t-183 61.5h-74q-125 0 -193.5 -63.5t-68.5 -178.5v-655q0 -25 -25 -25h-69zM489 1161l146 236
q21 37 45 37h88q18 0 24.5 -10t-4.5 -27l-172 -236q-26 -37 -51 -37h-55q-16 0 -23 10t2 27z" />
    <glyph glyph-name="uni0145" unicode="&#x145;" horiz-adv-x="1228" 
d="M170 0q-15 0 -21 6t-6 21v1380q0 15 6 21t21 6h149q25 0 37 -23l590 -1270h17v1266q0 15 5.5 21t20.5 6h70q15 0 20.5 -6t5.5 -21v-1380q0 -15 -5.5 -21t-20.5 -6h-150q-25 0 -37 23l-589 1269h-17v-1265q0 -15 -5.5 -21t-20.5 -6h-70zM471 -485v49q0 15 6 20.5t21 5.5
h59v260q0 15 6 21t21 6h55q15 0 21 -6t6 -21v-313q0 -26 -12 -37.5t-38 -11.5h-118q-15 0 -21 6t-6 21z" />
    <glyph glyph-name="uni0146" unicode="&#x146;" horiz-adv-x="1081" 
d="M158 0q-25 0 -25 25v974q0 25 25 25h69q25 0 25 -25v-92h20q41 59 111 92t162 33h67q174 0 255 -86t81 -260v-661q0 -25 -24 -25h-70q-25 0 -25 25v653q0 121 -58 182.5t-183 61.5h-74q-125 0 -193.5 -63.5t-68.5 -178.5v-655q0 -25 -25 -25h-69zM397 -485v49
q0 15 6 20.5t21 5.5h59v260q0 15 6 21t21 6h55q15 0 21 -6t6 -21v-313q0 -26 -11.5 -37.5t-37.5 -11.5h-119q-15 0 -21 6t-6 21z" />
    <glyph glyph-name="Ncaron" unicode="&#x147;" horiz-adv-x="1228" 
d="M170 0q-15 0 -21 6t-6 21v1380q0 15 6 21t21 6h149q25 0 37 -23l590 -1270h17v1266q0 15 5.5 21t20.5 6h70q15 0 20.5 -6t5.5 -21v-1380q0 -15 -5.5 -21t-20.5 -6h-150q-25 0 -37 23l-589 1269h-17v-1265q0 -15 -5.5 -21t-20.5 -6h-70zM311 1810q-10 12 -6 22.5t19 10.5
h69q29 0 49 -26l162 -185h21l161 185q20 26 50 26h69q15 0 19 -10.5t-6 -22.5l-216 -245q-21 -27 -57 -27h-67q-28 0 -52 27z" />
    <glyph glyph-name="ncaron" unicode="&#x148;" horiz-adv-x="1081" 
d="M158 0q-25 0 -25 25v974q0 25 25 25h69q25 0 25 -25v-92h20q41 59 111 92t162 33h67q174 0 255 -86t81 -260v-661q0 -25 -24 -25h-70q-25 0 -25 25v653q0 121 -58 182.5t-183 61.5h-74q-125 0 -193.5 -63.5t-68.5 -178.5v-655q0 -25 -25 -25h-69zM238 1401
q-11 12 -7 22.5t19 10.5h69q29 0 50 -27l161 -184h21l162 184q21 27 49 27h69q15 0 19 -10.5t-6 -22.5l-215 -246q-21 -27 -58 -27h-67q-27 0 -51 27z" />
    <glyph glyph-name="Eng" unicode="&#x14a;" horiz-adv-x="1228" 
d="M170 0q-15 0 -21 6t-6 21v1380q0 15 6 21t21 6h149q25 0 37 -23l590 -1270h17v1266q0 15 5.5 21t20.5 6h70q15 0 20.5 -6t5.5 -21v-1415q0 -412 -430 -412h-43q-28 0 -28 27v61q0 27 28 27h41q159 0 234.5 72t75.5 227v6h-54q-25 0 -37 23l-589 1269h-17v-1265
q0 -15 -5.5 -21t-20.5 -6h-70z" />
    <glyph glyph-name="eng" unicode="&#x14b;" horiz-adv-x="1081" 
d="M737 -420q-44 0 -61 8t-17 27v45q0 29 35 29q75 0 105 33t30 122v834q0 121 -58 182.5t-183 61.5h-74q-125 0 -193.5 -63.5t-68.5 -178.5v-655q0 -25 -25 -25h-69q-25 0 -25 25v974q0 25 25 25h69q25 0 25 -25v-92h20q41 59 111 92t162 33h67q174 0 255 -86t81 -260v-856
q0 -129 -49.5 -189.5t-161.5 -60.5z" />
    <glyph glyph-name="Omacron" unicode="&#x14c;" 
d="M573 -10q-430 0 -430 411v631q0 412 430 412h134q430 0 430 -412v-631q0 -411 -430 -411h-134zM266 403q0 -155 74.5 -227t234.5 -72h130q159 0 234 72t75 227v627q0 155 -75 227t-234 72h-130q-160 0 -234.5 -72t-74.5 -227v-627zM279 1755v60q0 28 28 28h668
q29 0 29 -28v-60q0 -29 -29 -29h-668q-28 0 -28 29z" />
    <glyph glyph-name="omacron" unicode="&#x14d;" horiz-adv-x="1040" 
d="M471 -10q-172 0 -265 89t-93 255v354q0 166 93 255t265 89h98q172 0 265.5 -89.5t93.5 -254.5v-354q0 -165 -94 -254.5t-265 -89.5h-98zM158 1346v59q0 29 28 29h668q29 0 29 -29v-59q0 -29 -29 -29h-668q-28 0 -28 29zM231 336q0 -114 60 -175t180 -61h98q120 0 180 61
t60 175v350q0 114 -60 175t-180 61h-98q-120 0 -180 -61t-60 -175v-350z" />
    <glyph glyph-name="Ohungarumlaut" unicode="&#x150;" 
d="M573 -10q-430 0 -430 411v631q0 412 430 412h134q430 0 430 -412v-631q0 -411 -430 -411h-134zM266 403q0 -155 74.5 -227t234.5 -72h130q159 0 234 72t75 227v627q0 155 -75 227t-234 72h-130q-160 0 -234.5 -72t-74.5 -227v-627zM461 1571l145 235q21 37 45 37h88
q18 0 25 -10t-4 -27l-172 -235q-26 -37 -51 -37h-56q-16 0 -22.5 10t2.5 27zM725 1571l145 235q21 37 45 37h89q18 0 24.5 -10t-4.5 -27l-172 -235q-26 -37 -51 -37h-56q-16 0 -22.5 10t2.5 27z" />
    <glyph glyph-name="ohungarumlaut" unicode="&#x151;" horiz-adv-x="1040" 
d="M471 -10q-172 0 -265 89t-93 255v354q0 166 93 255t265 89h98q172 0 265.5 -89.5t93.5 -254.5v-354q0 -165 -94 -254.5t-265 -89.5h-98zM231 336q0 -114 60 -175t180 -61h98q120 0 180 61t60 175v350q0 114 -60 175t-180 61h-98q-120 0 -180 -61t-60 -175v-350zM340 1161
l145 236q21 37 45 37h88q18 0 25 -10t-4 -27l-172 -236q-26 -37 -51 -37h-56q-16 0 -22.5 10t2.5 27zM604 1161l146 236q21 37 45 37h88q18 0 24.5 -10t-4.5 -27l-172 -236q-26 -37 -51 -37h-55q-16 0 -23 10t2 27z" />
    <glyph glyph-name="OE" unicode="&#x152;" horiz-adv-x="1935" 
d="M573 -10q-430 0 -430 411v631q0 412 430 412h134q197 0 307 -90v53q0 27 28 27h779q28 0 28 -27v-61q0 -27 -28 -27h-684v-543h626q29 0 29 -26v-58q0 -26 -29 -26h-626v-551h688q28 0 28 -27v-61q0 -27 -28 -27h-783q-28 0 -28 27v53q-110 -90 -307 -90h-134zM266 403
q0 -155 74.5 -227t234.5 -72h130q159 0 234 72t75 227v627q0 155 -75 227t-234 72h-130q-160 0 -234.5 -72t-74.5 -227v-627z" />
    <glyph glyph-name="oe" unicode="&#x153;" horiz-adv-x="1730" 
d="M471 -10q-172 0 -265 89t-93 255v354q0 166 93 255t265 89h98q218 0 301 -153q83 153 295 153h97q172 0 264 -89t92 -255v-164q0 -29 -17.5 -46t-48.5 -17h-624v-121q0 -114 69 -180t211 -66h21q175 0 287 78q18 12 28 -2l31 -41q12 -15 0 -27q-47 -47 -139 -79.5
t-211 -32.5h-21q-247 0 -334 155q-82 -155 -301 -155h-98zM231 336q0 -114 60 -175t180 -61h98q120 0 180 61t60 175v350q0 114 -60 175t-180 61h-98q-120 0 -180 -61t-60 -175v-350zM928 557h571v129q0 236 -239 236h-93q-118 0 -178.5 -62.5t-60.5 -177.5v-125z" />
    <glyph glyph-name="Racute" unicode="&#x154;" horiz-adv-x="1177" 
d="M170 0q-15 0 -21 6t-6 21v1380q0 15 6 21t21 6h475q219 0 319.5 -97t100.5 -305v-198q0 -294 -209 -371l205 -426q7 -17 0.5 -27t-23.5 -10h-65q-23 0 -35 23l-201 419q-45 -10 -96 -10h-375v-405q0 -15 -5.5 -21t-20.5 -6h-70zM266 547h377q159 0 229 67t70 222v194
q0 155 -70 222t-229 67h-377v-772zM508 1571l145 235q21 37 45 37h88q18 0 25 -10t-4 -27l-172 -235q-26 -37 -51 -37h-56q-16 0 -22.5 10t2.5 27z" />
    <glyph glyph-name="racute" unicode="&#x155;" horiz-adv-x="921" 
d="M158 0q-25 0 -25 25v974q0 25 25 25h69q25 0 25 -25v-92h20q39 59 107 92t158 33h45q258 0 258 -272v-23q0 -22 -23 -22h-65q-23 0 -23 22q0 185 -184 185h-47q-118 0 -182 -63.5t-64 -178.5v-655q0 -25 -25 -25h-69zM442 1161l146 236q21 37 45 37h88q18 0 24.5 -10
t-4.5 -27l-172 -236q-26 -37 -51 -37h-55q-16 0 -23 10t2 27z" />
    <glyph glyph-name="uni0156" unicode="&#x156;" horiz-adv-x="1177" 
d="M170 0q-15 0 -21 6t-6 21v1380q0 15 6 21t21 6h475q219 0 319.5 -97t100.5 -305v-198q0 -294 -209 -371l205 -426q7 -17 0.5 -27t-23.5 -10h-65q-23 0 -35 23l-201 419q-45 -10 -96 -10h-375v-405q0 -15 -5.5 -21t-20.5 -6h-70zM266 547h377q159 0 229 67t70 222v194
q0 155 -70 222t-229 67h-377v-772zM416 -485v49q0 15 5.5 20.5t20.5 5.5h60v260q0 15 5.5 21t20.5 6h56q15 0 20.5 -6t5.5 -21v-313q0 -26 -11.5 -37.5t-37.5 -11.5h-119q-15 0 -20.5 6t-5.5 21z" />
    <glyph glyph-name="uni0157" unicode="&#x157;" horiz-adv-x="921" 
d="M158 0q-25 0 -25 25v974q0 25 25 25h69q25 0 25 -25v-92h20q39 59 107 92t158 33h45q258 0 258 -272v-23q0 -22 -23 -22h-65q-23 0 -23 22q0 185 -184 185h-47q-118 0 -182 -63.5t-64 -178.5v-655q0 -25 -25 -25h-69zM49 -485v49q0 15 6 20.5t21 5.5h59v260q0 15 6 21
t21 6h55q15 0 21 -6t6 -21v-313q0 -26 -11.5 -37.5t-37.5 -11.5h-119q-15 0 -21 6t-6 21z" />
    <glyph glyph-name="Rcaron" unicode="&#x158;" horiz-adv-x="1177" 
d="M170 0q-15 0 -21 6t-6 21v1380q0 15 6 21t21 6h475q219 0 319.5 -97t100.5 -305v-198q0 -294 -209 -371l205 -426q7 -17 0.5 -27t-23.5 -10h-65q-23 0 -35 23l-201 419q-45 -10 -96 -10h-375v-405q0 -15 -5.5 -21t-20.5 -6h-70zM256 1810q-11 12 -7 22.5t19 10.5h70
q29 0 49 -26l162 -185h20l162 185q20 26 49 26h70q15 0 19 -10.5t-7 -22.5l-215 -245q-21 -27 -57 -27h-68q-27 0 -51 27zM266 547h377q159 0 229 67t70 222v194q0 155 -70 222t-229 67h-377v-772z" />
    <glyph glyph-name="rcaron" unicode="&#x159;" horiz-adv-x="921" 
d="M158 0q-25 0 -25 25v974q0 25 25 25h69q25 0 25 -25v-92h20q39 59 107 92t158 33h45q258 0 258 -272v-23q0 -22 -23 -22h-65q-23 0 -23 22q0 185 -184 185h-47q-118 0 -182 -63.5t-64 -178.5v-655q0 -25 -25 -25h-69zM190 1401q-10 12 -6 22.5t19 10.5h69q29 0 50 -27
l161 -184h21l162 184q21 27 49 27h69q15 0 19 -10.5t-6 -22.5l-215 -246q-21 -27 -58 -27h-67q-27 0 -51 27z" />
    <glyph glyph-name="Sacute" unicode="&#x15a;" horiz-adv-x="1177" 
d="M543 -10q-210 0 -320 85.5t-110 272.5q0 31 30 31h62q31 0 31 -31q0 -129 79 -186.5t232 -57.5h102q147 0 220 63t73 204q0 61 -16 107t-41 75t-69 51t-85.5 33.5t-105.5 24.5l-84 16q-60 11 -98 20t-86 25t-78 34.5t-61.5 48.5t-49 67.5t-28.5 90.5t-11 119
q0 191 108.5 276t311.5 85h78q407 0 407 -369q0 -31 -30 -31h-62q-31 0 -31 31q0 135 -71.5 194.5t-214.5 59.5h-74q-151 0 -225 -56t-74 -194q0 -63 15 -110t37.5 -75.5t63.5 -49.5t78 -31t97 -22l84 -17q55 -11 90.5 -19t81.5 -21.5t76 -28.5t63.5 -37t54 -49.5
t38.5 -63.5t26 -82t8 -102q0 -381 -412 -381h-110zM539 1571l145 235q21 37 45 37h88q18 0 25 -10t-4 -27l-172 -235q-26 -37 -52 -37h-55q-16 0 -22.5 10t2.5 27z" />
    <glyph glyph-name="sacute" unicode="&#x15b;" horiz-adv-x="976" 
d="M440 -10q-160 0 -249 64.5t-89 191.5q0 28 27 28h66q23 0 26 -26q9 -77 61.5 -114.5t155.5 -37.5h86q232 0 232 185q0 35 -8.5 61.5t-28 45t-40 30.5t-56.5 20.5t-64.5 13t-75.5 9.5l-37 4q-84 9 -141.5 26t-103.5 49t-68 85t-22 129q0 278 338 278h69q155 0 244.5 -71
t89.5 -209q0 -29 -25 -29h-61q-15 0 -22.5 7t-8.5 24q-8 89 -60.5 130.5t-160.5 41.5h-61q-112 0 -168 -39.5t-56 -132.5q0 -96 59.5 -136t188.5 -53l39 -4q71 -8 120.5 -17.5t97.5 -29.5t76.5 -49t46 -75t17.5 -109q0 -291 -350 -291h-84zM434 1161l146 236q21 37 45 37h88
q18 0 24.5 -10t-4.5 -27l-172 -236q-26 -37 -51 -37h-55q-16 0 -23 10t2 27z" />
    <glyph glyph-name="Scircumflex" unicode="&#x15c;" horiz-adv-x="1177" 
d="M543 -10q-210 0 -320 85.5t-110 272.5q0 31 30 31h62q31 0 31 -31q0 -129 79 -186.5t232 -57.5h102q147 0 220 63t73 204q0 61 -16 107t-41 75t-69 51t-85.5 33.5t-105.5 24.5l-84 16q-60 11 -98 20t-86 25t-78 34.5t-61.5 48.5t-49 67.5t-28.5 90.5t-11 119
q0 191 108.5 276t311.5 85h78q407 0 407 -369q0 -31 -30 -31h-62q-31 0 -31 31q0 135 -71.5 194.5t-214.5 59.5h-74q-151 0 -225 -56t-74 -194q0 -63 15 -110t37.5 -75.5t63.5 -49.5t78 -31t97 -22l84 -17q55 -11 90.5 -19t81.5 -21.5t76 -28.5t63.5 -37t54 -49.5
t38.5 -63.5t26 -82t8 -102q0 -381 -412 -381h-110zM274 1571l215 246q23 26 52 26h67q38 0 58 -26l215 -246q10 -12 6 -22.5t-19 -10.5h-69q-28 0 -49 27l-162 184h-21l-161 -184q-21 -27 -50 -27h-69q-15 0 -19 10.5t6 22.5z" />
    <glyph glyph-name="scircumflex" unicode="&#x15d;" horiz-adv-x="976" 
d="M440 -10q-160 0 -249 64.5t-89 191.5q0 28 27 28h66q23 0 26 -26q9 -77 61.5 -114.5t155.5 -37.5h86q232 0 232 185q0 35 -8.5 61.5t-28 45t-40 30.5t-56.5 20.5t-64.5 13t-75.5 9.5l-37 4q-84 9 -141.5 26t-103.5 49t-68 85t-22 129q0 278 338 278h69q155 0 244.5 -71
t89.5 -209q0 -29 -25 -29h-61q-15 0 -22.5 7t-8.5 24q-8 89 -60.5 130.5t-160.5 41.5h-61q-112 0 -168 -39.5t-56 -132.5q0 -96 59.5 -136t188.5 -53l39 -4q71 -8 120.5 -17.5t97.5 -29.5t76.5 -49t46 -75t17.5 -109q0 -291 -350 -291h-84zM170 1161l215 246q24 27 51 27h68
q36 0 57 -27l215 -246q11 -12 7 -22.5t-19 -10.5h-70q-28 0 -49 27l-162 184h-20l-162 -184q-21 -27 -49 -27h-70q-15 0 -19 10.5t7 22.5z" />
    <glyph glyph-name="Scedilla" unicode="&#x15e;" horiz-adv-x="1177" 
d="M582 -410q-96 0 -136 38.5t-40 117.5q0 25 22 25h57q8 0 14.5 -5t6.5 -12q0 -42 23.5 -61t80.5 -19h41q55 0 78 16t23 52t-24 52t-79 16h-104q-34 0 -56 18t-22 51q0 43 68 111q-207 2 -314.5 87t-107.5 271q0 31 30 31h62q31 0 31 -31q0 -129 79 -186.5t232 -57.5h102
q147 0 220 63t73 204q0 61 -16 107t-41 75t-69 51t-85.5 33.5t-105.5 24.5l-84 16q-60 11 -98 20t-86 25t-78 34.5t-61.5 48.5t-49 67.5t-28.5 90.5t-11 119q0 191 108.5 276t311.5 85h78q407 0 407 -369q0 -31 -30 -31h-62q-31 0 -31 31q0 135 -71.5 194.5t-214.5 59.5h-74
q-151 0 -225 -56t-74 -194q0 -63 15 -110t37.5 -75.5t63.5 -49.5t78 -31t97 -22l84 -17q55 -11 90.5 -19t81.5 -21.5t76 -28.5t63.5 -37t54 -49.5t38.5 -63.5t26 -82t8 -102q0 -381 -412 -381h-4q-98 -85 -40 -102q11 -3 28 -3h63q75 0 114.5 -30.5t39.5 -114.5
q0 -78 -41.5 -114t-138.5 -36h-92z" />
    <glyph glyph-name="scedilla" unicode="&#x15f;" horiz-adv-x="976" 
d="M477 -410q-96 0 -136 38.5t-40 117.5q0 25 23 25h57q8 0 14 -5t6 -12q0 -42 24 -61t81 -19h41q55 0 77.5 16t22.5 52t-23.5 52t-78.5 16h-105q-34 0 -56 18t-22 51q0 43 68 111q-155 2 -241.5 66t-86.5 190q0 28 27 28h66q23 0 26 -26q9 -77 61.5 -114.5t155.5 -37.5h86
q232 0 232 185q0 35 -8.5 61.5t-28 45t-40 30.5t-56.5 20.5t-64.5 13t-75.5 9.5l-37 4q-84 9 -141.5 26t-103.5 49t-68 85t-22 129q0 278 338 278h69q155 0 244.5 -71t89.5 -209q0 -29 -25 -29h-61q-15 0 -22.5 7t-8.5 24q-8 89 -60.5 130.5t-160.5 41.5h-61
q-112 0 -168 -39.5t-56 -132.5q0 -96 59.5 -136t188.5 -53l39 -4q71 -8 120.5 -17.5t97.5 -29.5t76.5 -49t46 -75t17.5 -109q0 -280 -329 -291q-99 -86 -40 -102q11 -3 27 -3h64q75 0 114.5 -30.5t39.5 -114.5q0 -78 -42 -114t-139 -36h-92z" />
    <glyph glyph-name="Scaron" unicode="&#x160;" horiz-adv-x="1177" 
d="M543 -10q-210 0 -320 85.5t-110 272.5q0 31 30 31h62q31 0 31 -31q0 -129 79 -186.5t232 -57.5h102q147 0 220 63t73 204q0 61 -16 107t-41 75t-69 51t-85.5 33.5t-105.5 24.5l-84 16q-60 11 -98 20t-86 25t-78 34.5t-61.5 48.5t-49 67.5t-28.5 90.5t-11 119
q0 191 108.5 276t311.5 85h78q407 0 407 -369q0 -31 -30 -31h-62q-31 0 -31 31q0 135 -71.5 194.5t-214.5 59.5h-74q-151 0 -225 -56t-74 -194q0 -63 15 -110t37.5 -75.5t63.5 -49.5t78 -31t97 -22l84 -17q55 -11 90.5 -19t81.5 -21.5t76 -28.5t63.5 -37t54 -49.5
t38.5 -63.5t26 -82t8 -102q0 -381 -412 -381h-110zM287 1810q-11 12 -7 22.5t19 10.5h70q29 0 49 -26l162 -185h20l162 185q20 26 49 26h70q15 0 19 -10.5t-7 -22.5l-215 -245q-21 -27 -57 -27h-68q-27 0 -51 27z" />
    <glyph glyph-name="scaron" unicode="&#x161;" horiz-adv-x="976" 
d="M440 -10q-160 0 -249 64.5t-89 191.5q0 28 27 28h66q23 0 26 -26q9 -77 61.5 -114.5t155.5 -37.5h86q232 0 232 185q0 35 -8.5 61.5t-28 45t-40 30.5t-56.5 20.5t-64.5 13t-75.5 9.5l-37 4q-84 9 -141.5 26t-103.5 49t-68 85t-22 129q0 278 338 278h69q155 0 244.5 -71
t89.5 -209q0 -29 -25 -29h-61q-15 0 -22.5 7t-8.5 24q-8 89 -60.5 130.5t-160.5 41.5h-61q-112 0 -168 -39.5t-56 -132.5q0 -96 59.5 -136t188.5 -53l39 -4q71 -8 120.5 -17.5t97.5 -29.5t76.5 -49t46 -75t17.5 -109q0 -291 -350 -291h-84zM182 1401q-10 12 -6 22.5t19 10.5
h69q28 0 49 -27l162 -184h21l161 184q21 27 50 27h69q15 0 19 -10.5t-7 -22.5l-215 -246q-21 -27 -57 -27h-67q-28 0 -52 27z" />
    <glyph glyph-name="uni0162" unicode="&#x162;" horiz-adv-x="1083" 
d="M535 -410q-96 0 -136.5 40t-40.5 120q0 21 19 21h61q8 0 14.5 -5t6.5 -12q0 -42 22.5 -60t79.5 -18h45q58 0 78.5 12.5t20.5 51.5q0 37 -21 51t-78 14h-71q-54 0 -54 68v1446h-350q-29 0 -29 27v61q0 27 29 27h821q29 0 29 -27v-61q0 -27 -29 -27h-348v-1409
q0 -27 41 -27q36 0 61.5 -5t50 -19t37.5 -44t13 -75q0 -77 -42 -113.5t-138 -36.5h-92z" />
    <glyph glyph-name="uni0163" unicode="&#x163;" horiz-adv-x="583" 
d="M444 -10h-6q-39 -35 -48 -57.5t3.5 -30.5t40.5 -8h64q74 0 113.5 -31t39.5 -115q0 -78 -41.5 -113.5t-138.5 -35.5h-92q-96 0 -136 38.5t-40 116.5q0 25 22 25h58q8 0 14 -5t6 -12q0 -42 23.5 -60.5t81.5 -18.5h41q55 0 77.5 15.5t22.5 51.5t-24 52t-79 16h-104
q-34 0 -56 18t-22 51q0 25 17 52t61 69q-109 43 -109 232v675h-137q-24 0 -24 25v59q0 25 24 25h137v190q0 25 25 25h70q24 0 24 -25v-190h156q24 0 24 -25v-59q0 -25 -24 -25h-156v-661q0 -89 30 -122.5t105 -33.5q35 0 35 -28v-45q0 -19 -17 -27t-61 -8z" />
    <glyph glyph-name="Tcaron" unicode="&#x164;" horiz-adv-x="1083" 
d="M508 0q-15 0 -21 6t-6 21v1292h-350q-29 0 -29 27v61q0 27 29 27h821q29 0 29 -27v-61q0 -27 -29 -27h-348v-1292q0 -15 -5.5 -21t-20.5 -6h-70zM240 1810q-11 12 -7 22.5t19 10.5h70q29 0 49 -26l161 -185h21l162 185q20 26 49 26h70q15 0 19 -10.5t-7 -22.5l-215 -245
q-21 -27 -58 -27h-67q-27 0 -51 27z" />
    <glyph glyph-name="tcaron" unicode="&#x165;" horiz-adv-x="573" 
d="M444 -10q-112 0 -161.5 60.5t-49.5 189.5v675h-137q-24 0 -24 25v59q0 25 24 25h137v190q0 25 25 25h70q24 0 24 -25v-190h156q24 0 24 -25v-59q0 -25 -24 -25h-156v-661q0 -89 30 -122.5t105 -33.5q35 0 35 -28v-45q0 -19 -17 -27t-61 -8zM420 1122v49q0 15 5.5 21
t20.5 6h60v289q0 15 5.5 20.5t20.5 5.5h56q15 0 20.5 -5.5t5.5 -20.5v-342q0 -26 -11.5 -37.5t-37.5 -11.5h-119q-15 0 -20.5 5.5t-5.5 20.5z" />
    <glyph glyph-name="Tbar" unicode="&#x166;" horiz-adv-x="1083" 
d="M508 0q-15 0 -21 6t-6 21v845h-272q-29 0 -29 29v60q0 28 29 28h272v330h-350q-29 0 -29 27v61q0 27 29 27h821q29 0 29 -27v-61q0 -27 -29 -27h-348v-330h273q28 0 28 -28v-60q0 -29 -28 -29h-273v-845q0 -15 -5.5 -21t-20.5 -6h-70z" />
    <glyph glyph-name="tbar" unicode="&#x167;" horiz-adv-x="624" 
d="M96 649q-24 0 -24 25v59q0 25 24 25h137v157h-137q-24 0 -24 25v59q0 25 24 25h137v190q0 25 25 25h70q24 0 24 -25v-190h156q24 0 24 -25v-59q0 -25 -24 -25h-156v-157h156q24 0 24 -25v-59q0 -25 -24 -25h-156v-395q0 -89 30 -122.5t105 -33.5q35 0 35 -28v-45
q0 -19 -17 -27t-61 -8q-112 0 -161.5 60.5t-49.5 189.5v409h-137z" />
    <glyph glyph-name="Utilde" unicode="&#x168;" 
d="M573 -10q-430 0 -430 411v1006q0 15 6 21t21 6h70q15 0 20.5 -6t5.5 -21v-1004q0 -155 74.5 -227t234.5 -72h130q159 0 234 72t75 227v1004q0 15 5.5 21t20.5 6h70q15 0 21 -6t6 -21v-1006q0 -411 -430 -411h-134zM309 1767q-9 18 15 33q83 53 168 53q44 0 87 -15.5
t71 -33.5t68.5 -33.5t80.5 -15.5q60 0 119 39q21 13 30 -8l25 -51q9 -18 -15 -33q-83 -53 -167 -53q-56 0 -107.5 24.5t-101 49t-99.5 24.5q-55 0 -118 -39q-22 -14 -31 8z" />
    <glyph glyph-name="utilde" unicode="&#x169;" horiz-adv-x="1081" 
d="M469 -8q-174 0 -255 86t-81 260v661q0 25 25 25h69q25 0 25 -25v-653q0 -121 58.5 -182.5t183.5 -61.5h73q125 0 193.5 63.5t68.5 178.5v655q0 25 25 25h70q24 0 24 -25v-974q0 -25 -24 -25h-70q-25 0 -25 25v92h-20q-41 -59 -111 -92t-161 -33h-68zM182 1358
q-9 18 15 33q83 53 168 53q44 0 87 -15.5t71.5 -33.5t68.5 -33.5t80 -15.5q61 0 119 38q21 13 30 -8l25 -51q9 -18 -15 -33q-83 -53 -167 -53q-56 0 -107.5 24.5t-101 49t-99.5 24.5q-55 0 -118 -39q-21 -13 -31 9z" />
    <glyph glyph-name="Umacron" unicode="&#x16a;" 
d="M573 -10q-430 0 -430 411v1006q0 15 6 21t21 6h70q15 0 20.5 -6t5.5 -21v-1004q0 -155 74.5 -227t234.5 -72h130q159 0 234 72t75 227v1004q0 15 5.5 21t20.5 6h70q15 0 21 -6t6 -21v-1006q0 -411 -430 -411h-134zM279 1755v60q0 28 28 28h668q29 0 29 -28v-60
q0 -29 -29 -29h-668q-28 0 -28 29z" />
    <glyph glyph-name="umacron" unicode="&#x16b;" horiz-adv-x="1081" 
d="M469 -8q-174 0 -255 86t-81 260v661q0 25 25 25h69q25 0 25 -25v-653q0 -121 58.5 -182.5t183.5 -61.5h73q125 0 193.5 63.5t68.5 178.5v655q0 25 25 25h70q24 0 24 -25v-974q0 -25 -24 -25h-70q-25 0 -25 25v92h-20q-41 -59 -111 -92t-161 -33h-68zM152 1346v59
q0 29 28 29h668q29 0 29 -29v-59q0 -29 -29 -29h-668q-28 0 -28 29z" />
    <glyph glyph-name="Ubreve" unicode="&#x16c;" 
d="M573 -10q-430 0 -430 411v1006q0 15 6 21t21 6h70q15 0 20.5 -6t5.5 -21v-1004q0 -155 74.5 -227t234.5 -72h130q159 0 234 72t75 227v1004q0 15 5.5 21t20.5 6h70q15 0 21 -6t6 -21v-1006q0 -411 -430 -411h-134zM360 1815q0 28 27 28h51q27 0 27 -28q2 -71 37.5 -112.5
t103.5 -41.5h68q68 0 103.5 41.5t37.5 112.5q0 28 27 28h51q27 0 27 -28q0 -125 -59.5 -185.5t-180.5 -60.5h-80q-240 0 -240 246z" />
    <glyph glyph-name="ubreve" unicode="&#x16d;" horiz-adv-x="1081" 
d="M469 -8q-174 0 -255 86t-81 260v661q0 25 25 25h69q25 0 25 -25v-653q0 -121 58.5 -182.5t183.5 -61.5h73q125 0 193.5 63.5t68.5 178.5v655q0 25 25 25h70q24 0 24 -25v-974q0 -25 -24 -25h-70q-25 0 -25 25v92h-20q-41 -59 -111 -92t-161 -33h-68zM233 1405q0 29 27 29
h51q27 0 27 -29q2 -71 37.5 -112.5t103.5 -41.5h68q68 0 103.5 41.5t37.5 112.5q0 29 27 29h51q27 0 27 -29q0 -125 -59.5 -185.5t-180.5 -60.5h-80q-240 0 -240 246z" />
    <glyph glyph-name="Uring" unicode="&#x16e;" 
d="M573 -10q-430 0 -430 411v1006q0 15 6 21t21 6h70q15 0 20.5 -6t5.5 -21v-1004q0 -155 74.5 -227t234.5 -72h130q159 0 234 72t75 227v1004q0 15 5.5 21t20.5 6h70q15 0 21 -6t6 -21v-1006q0 -411 -430 -411h-134zM457 1681v25q0 71 49 119.5t123 48.5h24q74 0 123 -48.5
t49 -119.5v-25q0 -71 -49 -119.5t-123 -48.5h-24q-74 0 -123 48.5t-49 119.5zM543 1686q0 -40 24 -64.5t66 -24.5h16q42 0 66 24.5t24 64.5v16q0 40 -24 64t-66 24h-16q-42 0 -66 -24t-24 -64v-16z" />
    <glyph glyph-name="uring" unicode="&#x16f;" horiz-adv-x="1081" 
d="M469 -8q-174 0 -255 86t-81 260v661q0 25 25 25h69q25 0 25 -25v-653q0 -121 58.5 -182.5t183.5 -61.5h73q125 0 193.5 63.5t68.5 178.5v655q0 25 25 25h70q24 0 24 -25v-974q0 -25 -24 -25h-70q-25 0 -25 25v92h-20q-41 -59 -111 -92t-161 -33h-68zM330 1272v24
q0 71 49 119.5t123 48.5h24q74 0 123 -48.5t49 -119.5v-24q0 -71 -49 -119.5t-123 -48.5h-24q-74 0 -123 48.5t-49 119.5zM416 1276q0 -40 24 -64t66 -24h16q42 0 66 24t24 64v16q0 40 -24 64t-66 24h-16q-42 0 -66 -24t-24 -64v-16z" />
    <glyph glyph-name="Uhungarumlaut" unicode="&#x170;" 
d="M573 -10q-430 0 -430 411v1006q0 15 6 21t21 6h70q15 0 20.5 -6t5.5 -21v-1004q0 -155 74.5 -227t234.5 -72h130q159 0 234 72t75 227v1004q0 15 5.5 21t20.5 6h70q15 0 21 -6t6 -21v-1006q0 -411 -430 -411h-134zM461 1571l145 235q21 37 45 37h88q18 0 25 -10t-4 -27
l-172 -235q-26 -37 -51 -37h-56q-16 0 -22.5 10t2.5 27zM725 1571l145 235q21 37 45 37h89q18 0 24.5 -10t-4.5 -27l-172 -235q-26 -37 -51 -37h-56q-16 0 -22.5 10t2.5 27z" />
    <glyph glyph-name="uhungarumlaut" unicode="&#x171;" horiz-adv-x="1081" 
d="M469 -8q-174 0 -255 86t-81 260v661q0 25 25 25h69q25 0 25 -25v-653q0 -121 58.5 -182.5t183.5 -61.5h73q125 0 193.5 63.5t68.5 178.5v655q0 25 25 25h70q24 0 24 -25v-974q0 -25 -24 -25h-70q-25 0 -25 25v92h-20q-41 -59 -111 -92t-161 -33h-68zM334 1161l145 236
q21 37 45 37h88q18 0 25 -10t-4 -27l-172 -236q-26 -37 -51 -37h-56q-16 0 -22.5 10t2.5 27zM598 1161l145 236q21 37 45 37h89q18 0 24.5 -10t-4.5 -27l-172 -236q-26 -37 -51 -37h-56q-16 0 -22.5 10t2.5 27z" />
    <glyph glyph-name="Uogonek" unicode="&#x172;" 
d="M573 -10q-430 0 -430 411v1006q0 15 6 21t21 6h70q15 0 20.5 -6t5.5 -21v-1004q0 -155 74.5 -227t234.5 -72h130q159 0 234 72t75 227v1004q0 15 5.5 21t20.5 6h70q15 0 21 -6t6 -21v-1006q0 -382 -369 -409v-45q0 -65 -20 -90t-76 -31l-183 -23q-31 -3 -41 -13t-10 -46
q0 -41 18 -55.5t72 -14.5h197q20 0 20 -20v-47q0 -21 -20 -21h-215q-106 0 -144 33.5t-38 122.5q0 45 7.5 71.5t31 41.5t49.5 20.5t80 11.5l88 11q41 4 53 17t12 44v31h-76z" />
    <glyph glyph-name="uogonek" unicode="&#x173;" horiz-adv-x="1081" 
d="M469 -8q-174 0 -255 86t-81 260v661q0 25 25 25h69q25 0 25 -25v-653q0 -121 58.5 -182.5t183.5 -61.5h73q125 0 193.5 63.5t68.5 178.5v655q0 25 25 25h70q24 0 24 -25v-1052q0 -65 -20 -90t-76 -31l-182 -23q-31 -3 -41.5 -13t-10.5 -46q0 -41 18.5 -55.5t72.5 -14.5
h196q21 0 21 -20v-47q0 -21 -21 -21h-215q-106 0 -144 33.5t-38 122.5q0 45 7.5 71.5t31 41.5t49.5 20.5t80 11.5l88 11q41 4 53 17t12 44v158h-20q-41 -59 -111 -92t-161 -33h-68z" />
    <glyph glyph-name="Wcircumflex" unicode="&#x174;" horiz-adv-x="1855" 
d="M442 0q-29 0 -36 33l-322 1368q-9 33 22 33h70q26 0 35 -33l293 -1262h18l330 1262q5 18 12 25.5t21 7.5h86q15 0 21.5 -7t11.5 -26l329 -1262h19l293 1262q5 18 12 25.5t22 7.5h70q32 0 23 -33l-322 -1368q-7 -33 -37 -33h-141q-27 0 -37 33l-297 1184h-20l-297 -1184
q-10 -33 -37 -33h-142zM612 1571l215 246q23 26 52 26h67q38 0 58 -26l215 -246q10 -12 6 -22.5t-19 -10.5h-69q-29 0 -50 27l-161 184h-21l-162 -184q-21 -27 -49 -27h-69q-15 0 -19 10.5t6 22.5z" />
    <glyph glyph-name="wcircumflex" unicode="&#x175;" horiz-adv-x="1499" 
d="M365 0q-32 0 -41 33l-240 960q-7 31 18 31h72q24 0 31 -31l213 -874h8l248 874q5 16 11 23.5t20 7.5h90q9 0 15.5 -4.5t8.5 -9.5t6 -17l248 -874h8l213 874q7 31 31 31h72q25 0 18 -31l-239 -960q-9 -33 -41 -33h-111q-32 0 -41 33l-229 823h-9l-229 -823q-9 -33 -41 -33
h-110zM434 1161l215 246q24 27 51 27h68q36 0 57 -27l215 -246q11 -12 7 -22.5t-19 -10.5h-70q-28 0 -49 27l-161 184h-21l-162 -184q-21 -27 -49 -27h-70q-15 0 -19 10.5t7 22.5z" />
    <glyph glyph-name="Ycircumflex" unicode="&#x176;" horiz-adv-x="1142" 
d="M86 1403q-16 31 14 31h84q14 0 21.5 -6.5t15.5 -22.5l344 -703h13l344 703q8 17 15 23t21 6h84q30 0 15 -31l-424 -854v-522q0 -15 -6 -21t-21 -6h-69q-15 0 -21 6t-6 21v522zM256 1571l215 246q23 26 51 26h68q37 0 57 -26l215 -246q11 -12 7 -22.5t-19 -10.5h-70
q-28 0 -49 27l-162 184h-20l-162 -184q-21 -27 -49 -27h-70q-15 0 -19 10.5t7 22.5z" />
    <glyph glyph-name="ycircumflex" unicode="&#x177;" horiz-adv-x="1062" 
d="M369 -362q-14 0 -19 9t0 21l119 309l-385 1016q-10 31 16 31h76q14 0 20 -7t13 -26l315 -854h13l315 854q7 19 13 26t20 7h78q26 0 16 -31l-506 -1325q-11 -30 -33 -30h-71zM215 1161l215 246q24 27 51 27h68q36 0 57 -27l215 -246q11 -12 7 -22.5t-19 -10.5h-70
q-28 0 -49 27l-162 184h-20l-162 -184q-21 -27 -49 -27h-70q-15 0 -19 10.5t7 22.5z" />
    <glyph glyph-name="Ydieresis" unicode="&#x178;" horiz-adv-x="1142" 
d="M86 1403q-16 31 14 31h84q14 0 21.5 -6.5t15.5 -22.5l344 -703h13l344 703q8 17 15 23t21 6h84q30 0 15 -31l-424 -854v-522q0 -15 -6 -21t-21 -6h-69q-15 0 -21 6t-6 21v522zM244 1737v80q0 15 5.5 20.5t20.5 5.5h80q15 0 21 -5.5t6 -20.5v-80q0 -15 -6 -21t-21 -6h-80
q-15 0 -20.5 6t-5.5 21zM766 1737v80q0 15 6 20.5t21 5.5h79q15 0 21 -5.5t6 -20.5v-80q0 -15 -6 -21t-21 -6h-79q-15 0 -21 6t-6 21z" />
    <glyph glyph-name="Zacute" unicode="&#x179;" horiz-adv-x="1064" 
d="M131 0q-29 0 -29 27v79q0 26 17 56l712 1143v14h-684q-28 0 -28 27v61q0 27 28 27h787q29 0 29 -27v-80q0 -25 -17 -55l-713 -1143v-14h699q29 0 29 -27v-61q0 -27 -29 -27h-801zM483 1571l146 235q21 37 45 37h88q18 0 24.5 -10t-4.5 -27l-172 -235q-26 -37 -51 -37h-55
q-16 0 -23 10t2 27z" />
    <glyph glyph-name="zacute" unicode="&#x17a;" horiz-adv-x="870" 
d="M106 0q-24 0 -24 25v73q0 18 10 31l557 774v12h-520q-25 0 -25 25v59q0 25 25 25h625q24 0 24 -25v-81q0 -14 -10 -27l-555 -770v-12h541q24 0 24 -25v-59q0 -25 -24 -25h-648zM393 1161l146 236q21 37 45 37h88q18 0 24.5 -10t-4.5 -27l-172 -236q-26 -37 -51 -37h-55
q-16 0 -23 10t2 27z" />
    <glyph glyph-name="Zdotaccent" unicode="&#x17b;" horiz-adv-x="1064" 
d="M131 0q-29 0 -29 27v79q0 26 17 56l712 1143v14h-684q-28 0 -28 27v61q0 27 28 27h787q29 0 29 -27v-80q0 -25 -17 -55l-713 -1143v-14h699q29 0 29 -27v-61q0 -27 -29 -27h-801zM467 1737v80q0 15 6 20.5t21 5.5h79q15 0 21 -5.5t6 -20.5v-80q0 -15 -6 -21t-21 -6h-79
q-15 0 -21 6t-6 21z" />
    <glyph glyph-name="zdotaccent" unicode="&#x17c;" horiz-adv-x="870" 
d="M106 0q-24 0 -24 25v73q0 18 10 31l557 774v12h-520q-25 0 -25 25v59q0 25 25 25h625q24 0 24 -25v-81q0 -14 -10 -27l-555 -770v-12h541q24 0 24 -25v-59q0 -25 -24 -25h-648zM377 1327v80q0 15 5.5 21t20.5 6h80q15 0 21 -6t6 -21v-80q0 -15 -6 -21t-21 -6h-80
q-15 0 -20.5 6t-5.5 21z" />
    <glyph glyph-name="Zcaron" unicode="&#x17d;" horiz-adv-x="1064" 
d="M131 0q-29 0 -29 27v79q0 26 17 56l712 1143v14h-684q-28 0 -28 27v61q0 27 28 27h787q29 0 29 -27v-80q0 -25 -17 -55l-713 -1143v-14h699q29 0 29 -27v-61q0 -27 -29 -27h-801zM231 1810q-10 12 -6 22.5t19 10.5h69q29 0 49 -26l162 -185h21l162 185q20 26 49 26h69
q15 0 19 -10.5t-6 -22.5l-215 -245q-21 -27 -58 -27h-67q-28 0 -52 27z" />
    <glyph glyph-name="zcaron" unicode="&#x17e;" horiz-adv-x="870" 
d="M106 0q-24 0 -24 25v73q0 18 10 31l557 774v12h-520q-25 0 -25 25v59q0 25 25 25h625q24 0 24 -25v-81q0 -14 -10 -27l-555 -770v-12h541q24 0 24 -25v-59q0 -25 -24 -25h-648zM141 1401q-10 12 -6 22.5t19 10.5h69q28 0 49 -27l162 -184h21l161 184q21 27 50 27h69
q15 0 19 -10.5t-6 -22.5l-216 -246q-21 -27 -57 -27h-67q-28 0 -52 27z" />
    <glyph glyph-name="uni018F" unicode="&#x18f;" horiz-adv-x="1259" 
d="M573 -10q-430 0 -430 411v344q0 13 8.5 22t22.5 9h819v254q0 155 -75 227t-234 72h-115q-155 0 -229 -68t-74 -221q0 -20 -20 -20h-82q-21 0 -21 20v11q0 199 103.5 296t320.5 97h119q430 0 430 -412v-631q0 -411 -430 -411h-113zM266 403q0 -155 75 -227t234 -72h109
q159 0 234 72t75 227v263h-727v-263z" />
    <glyph glyph-name="florin" unicode="&#x192;" horiz-adv-x="882" 
d="M113 -410q-31 0 -31 31v49q0 31 31 31h90q98 0 141 53t43 160v1001h-115q-24 0 -24 25v59q0 25 24 25h115v94q0 316 293 316h100q31 0 31 -31v-49q0 -31 -31 -31h-90q-98 0 -141 -53t-43 -160v-1204q0 -316 -293 -316h-100z" />
    <glyph glyph-name="Ohorn" unicode="&#x1a0;" 
d="M573 -10q-430 0 -430 411v631q0 412 430 412h369q94 0 94 92v59q0 12 7.5 19.5t19.5 7.5h47q12 0 19.5 -7.5t7.5 -19.5v-65q0 -71 -34 -114.5t-99 -53.5q133 -100 133 -330v-631q0 -411 -430 -411h-134zM266 403q0 -155 74.5 -227t234.5 -72h130q159 0 234 72t75 227v627
q0 155 -75 227t-234 72h-130q-160 0 -234.5 -72t-74.5 -227v-627z" />
    <glyph glyph-name="ohorn" unicode="&#x1a1;" horiz-adv-x="1040" 
d="M471 -10q-172 0 -265 89t-93 255v354q0 166 93 255t265 89h281q94 0 94 92v60q0 26 26 26h39q27 0 27 -26v-66q0 -137 -117 -164q107 -87 107 -266v-354q0 -165 -94 -254.5t-265 -89.5h-98zM231 336q0 -114 60 -175t180 -61h98q120 0 180 61t60 175v350q0 114 -60 175
t-180 61h-98q-120 0 -180 -61t-60 -175v-350z" />
    <glyph glyph-name="Uhorn" unicode="&#x1af;" 
d="M573 -10q-430 0 -430 411v1006q0 15 6 21t21 6h70q15 0 20.5 -6t5.5 -21v-1004q0 -155 74.5 -227t234.5 -72h130q159 0 234 72t75 227v1004q0 15 5.5 21t20.5 6h56q94 0 94 92v69q0 12 7.5 19.5t19.5 7.5h47q26 0 26 -27v-75q0 -77 -39 -120.5t-114 -49.5v-949
q0 -411 -430 -411h-134z" />
    <glyph glyph-name="uhorn" unicode="&#x1b0;" horiz-adv-x="1081" 
d="M469 -8q-174 0 -255 86t-81 260v661q0 25 25 25h69q25 0 25 -25v-653q0 -121 58.5 -182.5t183.5 -61.5h73q125 0 193.5 63.5t68.5 178.5v655q0 25 25 25h57q95 0 95 92v68q0 26 26 26h39q27 0 27 -26v-74q0 -75 -38.5 -119t-111.5 -51v-915q0 -25 -24 -25h-70
q-25 0 -25 25v92h-20q-41 -59 -111 -92t-161 -33h-68z" />
    <glyph glyph-name="uni01CD" unicode="&#x1cd;" horiz-adv-x="1204" 
d="M672 1434q27 0 37 -33l411 -1368q9 -33 -22 -33h-70q-26 0 -35 33l-82 270h-618l-82 -270q-9 -33 -35 -33h-70q-31 0 -22 33l412 1368q10 33 36 33h140zM299 1810q-11 12 -7 22.5t19 10.5h70q29 0 49 -26l162 -185h20l162 185q20 26 49 26h70q15 0 19 -10.5t-7 -22.5
l-215 -245q-21 -27 -57 -27h-68q-27 0 -51 27zM326 412h553l-267 884h-20z" />
    <glyph glyph-name="uni01CE" unicode="&#x1ce;" horiz-adv-x="1050" 
d="M823 0q-24 0 -24 25v135h-19q-131 -170 -348 -170h-10q-320 0 -320 301v49q0 258 314 258h383v90q0 59 -12 100t-42.5 72.5t-86 46.5t-138.5 15q-177 0 -284 -37q-21 -7 -25 14l-12 62q-3 18 12 24q118 47 311 47h39q185 0 271 -84t86 -252v-671q0 -25 -25 -25h-70z
M221 297q0 -102 52 -149.5t157 -47.5h66q121 0 212 79.5t91 178.5v142h-371q-104 0 -155.5 -37.5t-51.5 -130.5v-35zM244 1401q-11 12 -7 22.5t19 10.5h70q28 0 49 -27l162 -184h20l162 184q21 27 49 27h70q15 0 19 -10.5t-7 -22.5l-215 -246q-21 -27 -57 -27h-68
q-27 0 -51 27z" />
    <glyph glyph-name="uni01CF" unicode="&#x1cf;" horiz-adv-x="409" 
d="M170 0q-15 0 -21 6t-6 21v1380q0 15 6 21t21 6h70q15 0 20.5 -6t5.5 -21v-1380q0 -15 -5.5 -21t-20.5 -6h-70zM-98 1810q-11 12 -7 22.5t19 10.5h70q29 0 49 -26l162 -185h20l162 185q20 26 49 26h70q15 0 19 -10.5t-7 -22.5l-215 -245q-21 -27 -57 -27h-68q-27 0 -51 27
z" />
    <glyph glyph-name="uni01D0" unicode="&#x1d0;" horiz-adv-x="344" 
d="M137 0q-24 0 -24 25v974q0 25 24 25h70q24 0 24 -25v-974q0 -25 -24 -25h-70zM-131 1401q-11 12 -7 22.5t19 10.5h70q28 0 49 -27l162 -184h20l162 184q21 27 49 27h70q15 0 19 -10.5t-7 -22.5l-215 -246q-21 -27 -57 -27h-68q-27 0 -51 27z" />
    <glyph glyph-name="uni01D1" unicode="&#x1d1;" 
d="M573 -10q-430 0 -430 411v631q0 412 430 412h134q430 0 430 -412v-631q0 -411 -430 -411h-134zM266 403q0 -155 74.5 -227t234.5 -72h130q159 0 234 72t75 227v627q0 155 -75 227t-234 72h-130q-160 0 -234.5 -72t-74.5 -227v-627zM338 1810q-11 12 -7 22.5t19 10.5h70
q29 0 49 -26l162 -185h20l162 185q20 26 49 26h70q15 0 19 -10.5t-7 -22.5l-215 -245q-21 -27 -57 -27h-68q-27 0 -51 27z" />
    <glyph glyph-name="uni01D2" unicode="&#x1d2;" horiz-adv-x="1040" 
d="M471 -10q-172 0 -265 89t-93 255v354q0 166 93 255t265 89h98q172 0 265.5 -89.5t93.5 -254.5v-354q0 -165 -94 -254.5t-265 -89.5h-98zM217 1401q-11 12 -7 22.5t19 10.5h70q28 0 49 -27l162 -184h20l162 184q21 27 49 27h70q15 0 19 -10.5t-7 -22.5l-215 -246
q-21 -27 -57 -27h-68q-27 0 -51 27zM231 336q0 -114 60 -175t180 -61h98q120 0 180 61t60 175v350q0 114 -60 175t-180 61h-98q-120 0 -180 -61t-60 -175v-350z" />
    <glyph glyph-name="uni01D3" unicode="&#x1d3;" 
d="M573 -10q-430 0 -430 411v1006q0 15 6 21t21 6h70q15 0 20.5 -6t5.5 -21v-1004q0 -155 74.5 -227t234.5 -72h130q159 0 234 72t75 227v1004q0 15 5.5 21t20.5 6h70q15 0 21 -6t6 -21v-1006q0 -411 -430 -411h-134zM338 1810q-11 12 -7 22.5t19 10.5h70q29 0 49 -26
l162 -185h20l162 185q20 26 49 26h70q15 0 19 -10.5t-7 -22.5l-215 -245q-21 -27 -57 -27h-68q-27 0 -51 27z" />
    <glyph glyph-name="uni01D4" unicode="&#x1d4;" horiz-adv-x="1081" 
d="M469 -8q-174 0 -255 86t-81 260v661q0 25 25 25h69q25 0 25 -25v-653q0 -121 58.5 -182.5t183.5 -61.5h73q125 0 193.5 63.5t68.5 178.5v655q0 25 25 25h70q24 0 24 -25v-974q0 -25 -24 -25h-70q-25 0 -25 25v92h-20q-41 -59 -111 -92t-161 -33h-68zM211 1401
q-11 12 -7 22.5t19 10.5h70q28 0 49 -27l162 -184h20l162 184q21 27 49 27h70q15 0 19 -10.5t-7 -22.5l-215 -246q-21 -27 -57 -27h-68q-27 0 -51 27z" />
    <glyph glyph-name="uni01D5" unicode="&#x1d5;" 
d="M573 -10q-430 0 -430 411v1006q0 15 6 21t21 6h70q15 0 20.5 -6t5.5 -21v-1004q0 -155 74.5 -227t234.5 -72h130q159 0 234 72t75 227v1004q0 15 5.5 21t20.5 6h70q15 0 21 -6t6 -21v-1006q0 -411 -430 -411h-134zM279 2124v59q0 29 28 29h668q29 0 29 -29v-59
q0 -29 -29 -29h-668q-28 0 -28 29zM313 1737v80q0 15 6 20.5t21 5.5h80q15 0 20.5 -5.5t5.5 -20.5v-80q0 -15 -5.5 -21t-20.5 -6h-80q-15 0 -21 6t-6 21zM836 1737v80q0 15 5.5 20.5t20.5 5.5h80q15 0 21 -5.5t6 -20.5v-80q0 -15 -6 -21t-21 -6h-80q-15 0 -20.5 6t-5.5 21z
" />
    <glyph glyph-name="uni01D6" unicode="&#x1d6;" horiz-adv-x="1081" 
d="M469 -8q-174 0 -255 86t-81 260v661q0 25 25 25h69q25 0 25 -25v-653q0 -121 58.5 -182.5t183.5 -61.5h73q125 0 193.5 63.5t68.5 178.5v655q0 25 25 25h70q24 0 24 -25v-974q0 -25 -24 -25h-70q-25 0 -25 25v92h-20q-41 -59 -111 -92t-161 -33h-68zM152 1714v60
q0 28 28 28h668q29 0 29 -28v-60q0 -28 -29 -28h-668q-28 0 -28 28zM186 1327v80q0 15 6 21t21 6h80q15 0 20.5 -6t5.5 -21v-80q0 -15 -5.5 -21t-20.5 -6h-80q-15 0 -21 6t-6 21zM709 1327v80q0 15 5.5 21t20.5 6h80q15 0 21 -6t6 -21v-80q0 -15 -6 -21t-21 -6h-80
q-15 0 -20.5 6t-5.5 21z" />
    <glyph glyph-name="uni01D7" unicode="&#x1d7;" 
d="M573 -10q-430 0 -430 411v1006q0 15 6 21t21 6h70q15 0 20.5 -6t5.5 -21v-1004q0 -155 74.5 -227t234.5 -72h130q159 0 234 72t75 227v1004q0 15 5.5 21t20.5 6h70q15 0 21 -6t6 -21v-1006q0 -411 -430 -411h-134zM313 1737v80q0 15 6 20.5t21 5.5h80q15 0 20.5 -5.5
t5.5 -20.5v-80q0 -15 -5.5 -21t-20.5 -6h-80q-15 0 -21 6t-6 21zM590 1939l145 236q21 37 45 37h88q18 0 25 -10t-4 -27l-172 -236q-25 -36 -51 -36h-56q-16 0 -22.5 9.5t2.5 26.5zM836 1737v80q0 15 5.5 20.5t20.5 5.5h80q15 0 21 -5.5t6 -20.5v-80q0 -15 -6 -21t-21 -6
h-80q-15 0 -20.5 6t-5.5 21z" />
    <glyph glyph-name="uni01D8" unicode="&#x1d8;" horiz-adv-x="1081" 
d="M469 -8q-174 0 -255 86t-81 260v661q0 25 25 25h69q25 0 25 -25v-653q0 -121 58.5 -182.5t183.5 -61.5h73q125 0 193.5 63.5t68.5 178.5v655q0 25 25 25h70q24 0 24 -25v-974q0 -25 -24 -25h-70q-25 0 -25 25v92h-20q-41 -59 -111 -92t-161 -33h-68zM186 1327v80
q0 15 6 21t21 6h80q15 0 20.5 -6t5.5 -21v-80q0 -15 -5.5 -21t-20.5 -6h-80q-15 0 -21 6t-6 21zM463 1530l145 235q21 37 45 37h88q18 0 25 -10t-4 -27l-172 -235q-26 -37 -51 -37h-56q-16 0 -22.5 10t2.5 27zM709 1327v80q0 15 5.5 21t20.5 6h80q15 0 21 -6t6 -21v-80
q0 -15 -6 -21t-21 -6h-80q-15 0 -20.5 6t-5.5 21z" />
    <glyph glyph-name="uni01D9" unicode="&#x1d9;" 
d="M573 -10q-430 0 -430 411v1006q0 15 6 21t21 6h70q15 0 20.5 -6t5.5 -21v-1004q0 -155 74.5 -227t234.5 -72h130q159 0 234 72t75 227v1004q0 15 5.5 21t20.5 6h70q15 0 21 -6t6 -21v-1006q0 -411 -430 -411h-134zM313 1737v80q0 15 6 20.5t21 5.5h80q15 0 20.5 -5.5
t5.5 -20.5v-80q0 -15 -5.5 -21t-20.5 -6h-80q-15 0 -21 6t-6 21zM338 2179q-11 12 -7 22.5t19 10.5h70q28 0 49 -27l162 -184h20l162 184q21 27 49 27h70q15 0 19 -10.5t-7 -22.5l-215 -246q-20 -26 -57 -26h-68q-28 0 -51 26zM836 1737v80q0 15 5.5 20.5t20.5 5.5h80
q15 0 21 -5.5t6 -20.5v-80q0 -15 -6 -21t-21 -6h-80q-15 0 -20.5 6t-5.5 21z" />
    <glyph glyph-name="uni01DA" unicode="&#x1da;" horiz-adv-x="1081" 
d="M469 -8q-174 0 -255 86t-81 260v661q0 25 25 25h69q25 0 25 -25v-653q0 -121 58.5 -182.5t183.5 -61.5h73q125 0 193.5 63.5t68.5 178.5v655q0 25 25 25h70q24 0 24 -25v-974q0 -25 -24 -25h-70q-25 0 -25 25v92h-20q-41 -59 -111 -92t-161 -33h-68zM186 1327v80
q0 15 6 21t21 6h80q15 0 20.5 -6t5.5 -21v-80q0 -15 -5.5 -21t-20.5 -6h-80q-15 0 -21 6t-6 21zM211 1769q-11 12 -7 22.5t19 10.5h70q29 0 49 -26l162 -185h20l162 185q20 26 49 26h70q15 0 19 -10.5t-7 -22.5l-215 -245q-21 -27 -57 -27h-68q-27 0 -51 27zM709 1327v80
q0 15 5.5 21t20.5 6h80q15 0 21 -6t6 -21v-80q0 -15 -6 -21t-21 -6h-80q-15 0 -20.5 6t-5.5 21z" />
    <glyph glyph-name="uni01DB" unicode="&#x1db;" 
d="M573 -10q-430 0 -430 411v1006q0 15 6 21t21 6h70q15 0 20.5 -6t5.5 -21v-1004q0 -155 74.5 -227t234.5 -72h130q159 0 234 72t75 227v1004q0 15 5.5 21t20.5 6h70q15 0 21 -6t6 -21v-1006q0 -411 -430 -411h-134zM313 1737v80q0 15 6 20.5t21 5.5h80q15 0 20.5 -5.5
t5.5 -20.5v-80q0 -15 -5.5 -21t-20.5 -6h-80q-15 0 -21 6t-6 21zM395 2175q-11 17 -5 27t24 10h88q16 0 26 -8.5t21 -28.5l145 -236q9 -17 2.5 -26.5t-22.5 -9.5h-56q-26 0 -51 36zM836 1737v80q0 15 5.5 20.5t20.5 5.5h80q15 0 21 -5.5t6 -20.5v-80q0 -15 -6 -21t-21 -6
h-80q-15 0 -20.5 6t-5.5 21z" />
    <glyph glyph-name="uni01DC" unicode="&#x1dc;" horiz-adv-x="1081" 
d="M469 -8q-174 0 -255 86t-81 260v661q0 25 25 25h69q25 0 25 -25v-653q0 -121 58.5 -182.5t183.5 -61.5h73q125 0 193.5 63.5t68.5 178.5v655q0 25 25 25h70q24 0 24 -25v-974q0 -25 -24 -25h-70q-25 0 -25 25v92h-20q-41 -59 -111 -92t-161 -33h-68zM186 1327v80
q0 15 6 21t21 6h80q15 0 20.5 -6t5.5 -21v-80q0 -15 -5.5 -21t-20.5 -6h-80q-15 0 -21 6t-6 21zM268 1765q-11 17 -5 27t24 10h88q16 0 26 -8.5t21 -28.5l145 -235q9 -17 2.5 -27t-22.5 -10h-55q-26 0 -52 37zM709 1327v80q0 15 5.5 21t20.5 6h80q15 0 21 -6t6 -21v-80
q0 -15 -6 -21t-21 -6h-80q-15 0 -20.5 6t-5.5 21z" />
    <glyph glyph-name="Gcaron" unicode="&#x1e6;" horiz-adv-x="1259" 
d="M573 -10q-430 0 -430 411v631q0 412 430 412h119q217 0 319.5 -97t102.5 -296v-11q0 -20 -20 -20h-82q-21 0 -21 20q0 153 -73 221t-228 68h-115q-159 0 -234 -72t-75 -227v-627q0 -155 75 -227t234 -72h109q159 0 234 72t75 227v263h-311q-29 0 -29 26v58q0 26 29 26
h403q13 0 22 -9t9 -22v-344q0 -411 -430 -411h-113zM334 1810q-11 12 -7 22.5t19 10.5h70q29 0 49 -26l162 -185h20l162 185q20 26 49 26h70q15 0 19 -10.5t-7 -22.5l-215 -245q-21 -27 -57 -27h-68q-27 0 -51 27z" />
    <glyph glyph-name="gcaron" unicode="&#x1e7;" horiz-adv-x="1050" 
d="M502 -379q-97 0 -168 8q-41 6 -41 31v51q0 12 8.5 18.5t20.5 4.5q70 -6 194 -6q147 0 220 50.5t73 184.5v152h-16q-75 -125 -258 -125h-72q-170 0 -260 87.5t-90 258.5v350q0 171 90 258.5t260 87.5h72q183 0 258 -125h16v90q0 27 25 27h69q25 0 25 -27v-1034
q0 -188 -100.5 -265t-325.5 -77zM231 344q0 -244 246 -244h90q117 0 179.5 63t62.5 177v342q0 114 -62.5 177t-179.5 63h-90q-246 0 -246 -244v-334zM238 1401q-11 12 -7 22.5t19 10.5h69q29 0 50 -27l161 -184h21l162 184q21 27 49 27h69q15 0 19 -10.5t-6 -22.5l-215 -246
q-21 -27 -58 -27h-67q-27 0 -51 27z" />
    <glyph glyph-name="uni0218" unicode="&#x218;" horiz-adv-x="1177" 
d="M543 -10q-210 0 -320 85.5t-110 272.5q0 31 30 31h62q31 0 31 -31q0 -129 79 -186.5t232 -57.5h102q147 0 220 63t73 204q0 61 -16 107t-41 75t-69 51t-85.5 33.5t-105.5 24.5l-84 16q-60 11 -98 20t-86 25t-78 34.5t-61.5 48.5t-49 67.5t-28.5 90.5t-11 119
q0 191 108.5 276t311.5 85h78q407 0 407 -369q0 -31 -30 -31h-62q-31 0 -31 31q0 135 -71.5 194.5t-214.5 59.5h-74q-151 0 -225 -56t-74 -194q0 -63 15 -110t37.5 -75.5t63.5 -49.5t78 -31t97 -22l84 -17q55 -11 90.5 -19t81.5 -21.5t76 -28.5t63.5 -37t54 -49.5
t38.5 -63.5t26 -82t8 -102q0 -381 -412 -381h-110zM446 -485v49q0 15 6 20.5t21 5.5h59v260q0 15 6 21t21 6h55q15 0 21 -6t6 -21v-313q0 -26 -11.5 -37.5t-37.5 -11.5h-119q-15 0 -21 6t-6 21z" />
    <glyph glyph-name="uni0219" unicode="&#x219;" horiz-adv-x="976" 
d="M440 -10q-160 0 -249 64.5t-89 191.5q0 28 27 28h66q23 0 26 -26q9 -77 61.5 -114.5t155.5 -37.5h86q232 0 232 185q0 35 -8.5 61.5t-28 45t-40 30.5t-56.5 20.5t-64.5 13t-75.5 9.5l-37 4q-84 9 -141.5 26t-103.5 49t-68 85t-22 129q0 278 338 278h69q155 0 244.5 -71
t89.5 -209q0 -29 -25 -29h-61q-15 0 -22.5 7t-8.5 24q-8 89 -60.5 130.5t-160.5 41.5h-61q-112 0 -168 -39.5t-56 -132.5q0 -96 59.5 -136t188.5 -53l39 -4q71 -8 120.5 -17.5t97.5 -29.5t76.5 -49t46 -75t17.5 -109q0 -291 -350 -291h-84zM342 -485v49q0 15 6 20.5t21 5.5
h59v260q0 15 6 21t21 6h55q15 0 21 -6t6 -21v-313q0 -26 -12 -37.5t-38 -11.5h-118q-15 0 -21 6t-6 21z" />
    <glyph glyph-name="uni021A" unicode="&#x21a;" horiz-adv-x="1083" 
d="M508 0q-15 0 -21 6t-6 21v1292h-350q-29 0 -29 27v61q0 27 29 27h821q29 0 29 -27v-61q0 -27 -29 -27h-348v-1292q0 -15 -5.5 -21t-20.5 -6h-70zM399 -485v49q0 15 6 20.5t21 5.5h59v260q0 15 6 21t21 6h55q15 0 21 -6t6 -21v-313q0 -26 -11.5 -37.5t-37.5 -11.5h-119
q-15 0 -21 6t-6 21z" />
    <glyph glyph-name="uni021B" unicode="&#x21b;" horiz-adv-x="624" 
d="M444 -10q-112 0 -161.5 60.5t-49.5 189.5v675h-137q-24 0 -24 25v59q0 25 24 25h137v190q0 25 25 25h70q24 0 24 -25v-190h156q24 0 24 -25v-59q0 -25 -24 -25h-156v-661q0 -89 30 -122.5t105 -33.5q35 0 35 -28v-45q0 -19 -17 -27t-61 -8zM227 -485v49q0 15 6 20.5
t21 5.5h59v260q0 15 6 21t21 6h55q15 0 21 -6t6 -21v-313q0 -26 -11.5 -37.5t-37.5 -11.5h-119q-15 0 -21 6t-6 21z" />
    <glyph glyph-name="uni0228" unicode="&#x228;" horiz-adv-x="1064" 
d="M172 0q-29 0 -29 27v1380q0 27 29 27h778q29 0 29 -27v-61q0 -27 -29 -27h-684v-543h627q29 0 29 -26v-58q0 -26 -29 -26h-627v-551h688q29 0 29 -27v-61q0 -27 -29 -27h-331q-112 -93 -54 -111q12 -4 29 -4h64q75 0 114 -30.5t39 -114.5q0 -78 -41.5 -114t-138.5 -36
h-92q-96 0 -136 38.5t-40 117.5q0 25 22 25h57q8 0 14.5 -5t6.5 -12q0 -42 23.5 -61t80.5 -19h41q55 0 78 16t23 52t-24 52t-79 16h-104q-34 0 -56 18t-22 51q0 25 17 52t61 69h-334z" />
    <glyph glyph-name="uni0229" unicode="&#x229;" horiz-adv-x="1034" 
d="M520 -410q-96 0 -136 38.5t-40 117.5q0 25 23 25h57q8 0 14 -5t6 -12q0 -42 24 -61t81 -19h41q55 0 77.5 16t22.5 52t-23.5 52t-78.5 16h-105q-34 0 -55.5 18t-21.5 51q0 44 67 111q-180 9 -270 99.5t-90 248.5v346q0 166 93.5 257t262.5 91h96q172 0 264.5 -89
t92.5 -255v-164q0 -29 -17.5 -46t-48.5 -17h-625v-121q0 -114 69.5 -180t211.5 -66h20q175 0 287 78q18 12 29 -2l31 -41q12 -15 0 -27q-40 -40 -115 -71t-172 -39q-104 -89 -42 -104q10 -3 25 -3h64q75 0 114.5 -30.5t39.5 -114.5q0 -78 -42 -114t-139 -36h-92zM231 557
h572v129q0 236 -240 236h-92q-118 0 -179 -63t-61 -177v-125z" />
    <glyph glyph-name="uni0237" unicode="&#x237;" horiz-adv-x="380" 
d="M37 -373q-44 0 -61 8t-17 27v45q0 29 35 29q75 0 105 33t30 122v1108q0 25 25 25h69q25 0 25 -25v-1122q0 -129 -49.5 -189.5t-161.5 -60.5z" />
    <glyph glyph-name="uni0259" unicode="&#x259;" horiz-adv-x="1034" 
d="M469 -10q-172 0 -264 89t-92 255v164q0 29 17 46t48 17h625v121q0 114 -69.5 180t-211.5 66h-20q-175 0 -287 -78q-18 -12 -29 2l-30 41q-12 15 0 27q47 47 139 79.5t211 32.5h20q198 0 297 -91.5t99 -256.5v-346q0 -165 -94 -256.5t-263 -91.5h-96zM231 336
q0 -236 240 -236h92q118 0 179 63t61 177v125h-572v-129z" />
    <glyph glyph-name="circumflex" unicode="&#x2c6;" horiz-adv-x="851" 
d="M123 1128q-15 0 -19 10.5t7 22.5l215 246q24 27 51 27h67q37 0 58 -27l215 -246q11 -12 7 -22.5t-19 -10.5h-70q-28 0 -49 27l-162 184h-21l-161 -184q-21 -27 -49 -27h-70z" />
    <glyph glyph-name="caron" unicode="&#x2c7;" horiz-adv-x="827" 
d="M377 1128q-27 0 -51 27l-215 246q-11 12 -7 22.5t19 10.5h70q28 0 49 -27l161 -184h21l162 184q21 27 49 27h70q15 0 19 -10.5t-7 -22.5l-215 -246q-21 -27 -58 -27h-67z" />
    <glyph glyph-name="breve" unicode="&#x2d8;" horiz-adv-x="763" 
d="M342 1159q-240 0 -240 246q0 29 27 29h51q27 0 27 -29q2 -71 37.5 -112.5t103.5 -41.5h68q68 0 103.5 41.5t37.5 112.5q0 29 27 29h51q27 0 27 -29q0 -125 -59.5 -185.5t-180.5 -60.5h-80z" />
    <glyph glyph-name="dotaccent" unicode="&#x2d9;" horiz-adv-x="337" 
d="M129 1300q-15 0 -21 6t-6 21v80q0 15 6 21t21 6h80q15 0 21 -6t6 -21v-80q0 -15 -6 -21t-21 -6h-80z" />
    <glyph glyph-name="ring" unicode="&#x2da;" horiz-adv-x="573" 
d="M274 1104q-74 0 -123 48.5t-49 119.5v24q0 71 49 119.5t123 48.5h25q74 0 123 -48.5t49 -119.5v-24q0 -71 -49 -119.5t-123 -48.5h-25zM188 1276q0 -40 24.5 -64t66.5 -24h16q42 0 66 24t24 64v16q0 40 -24 64t-66 24h-16q-42 0 -66.5 -24t-24.5 -64v-16z" />
    <glyph glyph-name="ogonek" unicode="&#x2db;" horiz-adv-x="645" 
d="M285 -414q-106 0 -144.5 33.5t-38.5 122.5q0 45 7.5 71.5t31 41.5t49.5 20.5t80 11.5l88 11q41 4 53.5 17t12.5 44v82h119v-94q0 -65 -20.5 -90t-76.5 -31l-182 -23q-31 -3 -41 -13t-10 -46q0 -41 18 -55.5t72 -14.5h197q20 0 20 -20v-47q0 -21 -20 -21h-215z" />
    <glyph glyph-name="tilde" unicode="&#x2dc;" horiz-adv-x="872" 
d="M586 1239q-44 0 -87 15.5t-71 33.5t-68.5 33.5t-80.5 15.5q-56 0 -119 -39q-21 -13 -31 9l-25 51q-9 18 15 33q83 53 168 53q44 0 87 -15.5t71 -33.5t68.5 -33.5t80.5 -15.5q61 0 119 38q21 13 30 -8l25 -51q9 -18 -14 -33q-83 -53 -168 -53z" />
    <glyph glyph-name="hungarumlaut" unicode="&#x2dd;" horiz-adv-x="790" 
d="M393 1124q-16 0 -22.5 10t2.5 27l145 236q21 37 45 37h88q18 0 25 -10t-4 -27l-172 -236q-26 -37 -51 -37h-56zM109 1161l145 236q21 37 45 37h88q18 0 25 -10t-4 -27l-172 -236q-26 -37 -52 -37h-55q-16 0 -22.5 10t2.5 27z" />
    <glyph glyph-name="gravecomb" unicode="&#x300;" horiz-adv-x="0" 
d="M342 1124q-25 0 -51 37l-172 236q-11 17 -5.5 27t23.5 10h88q16 0 26 -8.5t21 -28.5l146 -236q9 -17 2 -27t-23 -10h-55z" />
    <glyph glyph-name="acutecomb" unicode="&#x301;" horiz-adv-x="0" 
d="M129 1124q-16 0 -22.5 10t2.5 27l145 236q21 37 45 37h88q18 0 25 -10t-4 -27l-172 -236q-26 -37 -52 -37h-55z" />
    <glyph glyph-name="uni0302" unicode="&#x302;" horiz-adv-x="0" 
d="M123 1128q-15 0 -19 10.5t7 22.5l215 246q24 27 51 27h67q37 0 58 -27l215 -246q11 -12 7 -22.5t-19 -10.5h-70q-28 0 -49 27l-162 184h-21l-161 -184q-21 -27 -49 -27h-70z" />
    <glyph glyph-name="tildecomb" unicode="&#x303;" horiz-adv-x="0" 
d="M586 1239q-44 0 -87 15.5t-71 33.5t-68.5 33.5t-80.5 15.5q-56 0 -119 -39q-21 -13 -31 9l-25 51q-9 18 15 33q83 53 168 53q44 0 87 -15.5t71 -33.5t68.5 -33.5t80.5 -15.5q61 0 119 38q21 13 30 -8l25 -51q9 -18 -14 -33q-83 -53 -168 -53z" />
    <glyph glyph-name="uni0304" unicode="&#x304;" horiz-adv-x="0" 
d="M131 1317q-29 0 -29 29v59q0 29 29 29h668q28 0 28 -29v-59q0 -29 -28 -29h-668z" />
    <glyph glyph-name="uni0306" unicode="&#x306;" horiz-adv-x="0" 
d="M342 1159q-240 0 -240 246q0 29 27 29h51q27 0 27 -29q2 -71 37.5 -112.5t103.5 -41.5h68q68 0 103.5 41.5t37.5 112.5q0 29 27 29h51q27 0 27 -29q0 -125 -59.5 -185.5t-180.5 -60.5h-80z" />
    <glyph glyph-name="uni0307" unicode="&#x307;" horiz-adv-x="0" 
d="M129 1300q-15 0 -21 6t-6 21v80q0 15 6 21t21 6h80q15 0 21 -6t6 -21v-80q0 -15 -6 -21t-21 -6h-80z" />
    <glyph glyph-name="uni0308" unicode="&#x308;" horiz-adv-x="0" 
d="M651 1300q-15 0 -20.5 6t-5.5 21v80q0 15 5.5 21t20.5 6h80q15 0 21 -6t6 -21v-80q0 -15 -6 -21t-21 -6h-80zM102 1327v80q0 15 6 21t21 6h80q15 0 21 -6t6 -21v-80q0 -15 -6 -21t-21 -6h-80q-15 0 -21 6t-6 21z" />
    <glyph glyph-name="hookabovecomb" unicode="&#x309;" horiz-adv-x="0" 
d="M322 1143q-27 0 -27 26v31q0 12 7.5 19.5t19.5 7.5h24q94 0 94 92v43q0 88 -94 88h-59q-90 0 -90 -88v-19q0 -26 -27 -26h-41q-27 0 -27 26v25q0 82 44 126t130 44h82q86 0 130 -44t44 -126v-55q0 -82 -44 -126t-130 -44h-36z" />
    <glyph glyph-name="uni030A" unicode="&#x30a;" horiz-adv-x="0" 
d="M274 1104q-74 0 -123 48.5t-49 119.5v24q0 71 49 119.5t123 48.5h25q74 0 123 -48.5t49 -119.5v-24q0 -71 -49 -119.5t-123 -48.5h-25zM188 1276q0 -40 24.5 -64t66.5 -24h16q42 0 66 24t24 64v16q0 40 -24 64t-66 24h-16q-42 0 -66.5 -24t-24.5 -64v-16z" />
    <glyph glyph-name="uni030B" unicode="&#x30b;" horiz-adv-x="0" 
d="M393 1124q-16 0 -22.5 10t2.5 27l145 236q21 37 45 37h88q18 0 25 -10t-4 -27l-172 -236q-26 -37 -51 -37h-56zM109 1161l145 236q21 37 45 37h88q18 0 25 -10t-4 -27l-172 -236q-26 -37 -52 -37h-55q-16 0 -22.5 10t2.5 27z" />
    <glyph glyph-name="uni030C" unicode="&#x30c;" horiz-adv-x="0" 
d="M377 1128q-27 0 -51 27l-215 246q-11 12 -7 22.5t19 10.5h70q28 0 49 -27l161 -184h21l162 184q21 27 49 27h70q15 0 19 -10.5t-7 -22.5l-215 -246q-21 -27 -58 -27h-67z" />
    <glyph glyph-name="uni031B" unicode="&#x31b;" horiz-adv-x="0" 
d="M102 1143v84h29q94 0 94 92v67q0 12 7.5 19.5t19.5 7.5h39q26 0 26 -27v-73q0 -82 -44 -126t-130 -44h-41z" />
    <glyph glyph-name="dotbelowcomb" unicode="&#x323;" horiz-adv-x="0" 
d="M129 -362q-15 0 -21 5.5t-6 20.5v111q0 15 6 20.5t21 5.5h111q15 0 20.5 -5.5t5.5 -20.5v-111q0 -15 -5.5 -20.5t-20.5 -5.5h-111z" />
    <glyph glyph-name="uni0326" unicode="&#x326;" horiz-adv-x="0" 
d="M129 -512q-15 0 -21 6t-6 21v49q0 15 6 20.5t21 5.5h59v260q0 15 6 21t21 6h55q15 0 21 -6t6 -21v-313q0 -26 -11.5 -37.5t-37.5 -11.5h-119z" />
    <glyph glyph-name="uni0327" unicode="&#x327;" horiz-adv-x="0" 
d="M279 -410q-96 0 -136.5 39t-40.5 117q0 25 23 25h57q8 0 14.5 -5t6.5 -12q0 -42 23.5 -61t80.5 -19h41q55 0 78 16t23 52t-24 52t-79 16h-104q-34 0 -56 18t-22 51q0 25 17 52t61 69h116q-111 -92 -54 -111q12 -4 30 -4h63q75 0 114.5 -30.5t39.5 -114.5
q0 -78 -41.5 -114t-138.5 -36h-92z" />
    <glyph glyph-name="uni0328" unicode="&#x328;" horiz-adv-x="0" 
d="M285 -414q-106 0 -144.5 33.5t-38.5 122.5q0 45 7.5 71.5t31 41.5t49.5 20.5t80 11.5l88 11q41 4 53.5 17t12.5 44v82h119v-94q0 -65 -20.5 -90t-76.5 -31l-182 -23q-31 -3 -41 -13t-10 -46q0 -41 18 -55.5t72 -14.5h197q20 0 20 -20v-47q0 -21 -20 -21h-215z" />
    <glyph glyph-name="uni0394" unicode="&#x394;" horiz-adv-x="1210" 
d="M106 0q-33 0 -22 33l451 1427q10 33 38 33h66q29 0 39 -33l448 -1427q11 -33 -24 -33h-996zM238 125h733l-363 1173z" />
    <glyph glyph-name="uni03A9" unicode="&#x3a9;" horiz-adv-x="1249" 
d="M174 0q-31 0 -31 31v61q0 31 31 31h139q-82 42 -126 119t-44 184v661q0 199 112.5 311.5t293.5 112.5h151q182 0 294 -112.5t112 -311.5v-661q0 -107 -44 -184t-126 -119h139q31 0 31 -31v-61q0 -31 -31 -31h-366q-31 0 -31 31v63q0 31 31 31q109 0 191.5 87.5
t82.5 223.5v645q0 153 -76.5 230.5t-210.5 77.5h-143q-134 0 -210.5 -77.5t-76.5 -230.5v-645q0 -136 83 -223.5t192 -87.5q30 0 30 -31v-63q0 -31 -30 -31h-367z" />
    <glyph glyph-name="uni03BC" unicode="&#x3bc;" horiz-adv-x="1081" 
d="M164 -410q-31 0 -31 31v1378q0 25 25 25h69q25 0 25 -25v-653q0 -121 58.5 -182.5t183.5 -61.5h73q125 0 193.5 63.5t68.5 178.5v655q0 25 25 25h70q24 0 24 -25v-974q0 -25 -24 -25h-70q-25 0 -25 25v92h-20q-83 -125 -266 -125h-68q-156 0 -225 110v-481q0 -31 -31 -31
h-55z" />
    <glyph glyph-name="pi" unicode="&#x3c0;" horiz-adv-x="1177" 
d="M231 0q-30 0 -30 31v870h-88q-31 0 -31 31v61q0 31 29 31h954q31 0 31 -31v-63q0 -29 -31 -29h-90v-870q0 -31 -31 -31h-61q-31 0 -31 31v870h-528v-870q0 -31 -31 -31h-62z" />
    <glyph glyph-name="uni0401" unicode="&#x401;" horiz-adv-x="1064" 
d="M172 0q-29 0 -29 27v1380q0 27 29 27h778q29 0 29 -27v-61q0 -27 -29 -27h-684v-543h627q29 0 29 -26v-58q0 -26 -29 -26h-627v-551h688q29 0 29 -27v-61q0 -27 -29 -27h-782zM242 1737v80q0 15 5.5 20.5t20.5 5.5h80q15 0 21 -5.5t6 -20.5v-80q0 -15 -6 -21t-21 -6h-80
q-15 0 -20.5 6t-5.5 21zM764 1737v80q0 15 6 20.5t21 5.5h79q15 0 21 -5.5t6 -20.5v-80q0 -15 -6 -21t-21 -6h-79q-15 0 -21 6t-6 21z" />
    <glyph glyph-name="uni0403" unicode="&#x403;" horiz-adv-x="983" 
d="M170 0q-15 0 -21 6t-6 21v1380q0 15 6 21t21 6h702q29 0 29 -27v-61q0 -27 -29 -27h-606v-1292q0 -15 -5.5 -21t-20.5 -6h-70zM467 1571l145 235q21 37 45 37h88q18 0 25 -10t-4 -27l-172 -235q-26 -37 -51 -37h-56q-16 0 -22.5 10t2.5 27z" />
    <glyph glyph-name="uni0404" unicode="&#x404;" horiz-adv-x="1239" 
d="M573 -10q-430 0 -430 411v631q0 412 430 412h119q217 0 320.5 -97t103.5 -296v-11q0 -20 -20 -20h-82q-21 0 -21 20q0 153 -74 221t-229 68h-115q-159 0 -234 -72t-75 -227v-256h291q29 0 29 -26v-62q0 -27 -29 -27h-291v-256q0 -155 75 -227t234 -72h115q154 0 228.5 65
t74.5 206q0 20 21 20h82q20 0 20 -20v-10q0 -188 -104 -281.5t-320 -93.5h-119z" />
    <glyph glyph-name="uni0406" unicode="&#x406;" horiz-adv-x="409" 
d="M170 0q-15 0 -21 6t-6 21v1380q0 15 6 21t21 6h70q15 0 20.5 -6t5.5 -21v-1380q0 -15 -5.5 -21t-20.5 -6h-70z" />
    <glyph glyph-name="uni0407" unicode="&#x407;" horiz-adv-x="409" 
d="M170 0q-15 0 -21 6t-6 21v1380q0 15 6 21t21 6h70q15 0 20.5 -6t5.5 -21v-1380q0 -15 -5.5 -21t-20.5 -6h-70zM-123 1737v80q0 15 6 20.5t21 5.5h80q15 0 20.5 -5.5t5.5 -20.5v-80q0 -15 -5.5 -21t-20.5 -6h-80q-15 0 -21 6t-6 21zM399 1737v80q0 15 6 20.5t21 5.5h80
q15 0 20.5 -5.5t5.5 -20.5v-80q0 -15 -5.5 -21t-20.5 -6h-80q-15 0 -21 6t-6 21z" />
    <glyph glyph-name="uni0408" unicode="&#x408;" horiz-adv-x="737" 
d="M121 -10q-29 0 -29 26v62q0 26 29 26h41q159 0 234 72t75 227v1004q0 15 6 21t21 6h69q15 0 21 -6t6 -21v-1006q0 -411 -430 -411h-43z" />
    <glyph glyph-name="uni040C" unicode="&#x40c;" horiz-adv-x="1146" 
d="M170 0q-15 0 -21 6t-6 21v1380q0 15 6 21t21 6h70q15 0 20.5 -6t5.5 -21v-756l608 754q12 16 20.5 22.5t20.5 6.5h86q19 0 22.5 -12t-11.5 -31l-510 -623l557 -731q10 -12 5.5 -24.5t-22.5 -12.5h-75q-31 0 -54 29l-489 643l-158 -193v-452q0 -15 -5.5 -21t-20.5 -6h-70z
M504 1571l145 235q21 37 45 37h88q18 0 25 -10t-4 -27l-172 -235q-26 -37 -51 -37h-56q-16 0 -22.5 10t2.5 27z" />
    <glyph glyph-name="uni040D" unicode="&#x40d;" horiz-adv-x="1228" 
d="M170 0q-15 0 -21 6t-6 21v1380q0 15 6 21t21 6h70q15 0 20.5 -6t5.5 -21v-1266h17l589 1270q12 23 37 23h150q15 0 20.5 -6t5.5 -21v-1380q0 -15 -5.5 -21t-20.5 -6h-70q-15 0 -20.5 6t-5.5 21v1265h-17l-590 -1269q-12 -23 -37 -23h-149zM373 1806q-11 17 -5.5 27
t23.5 10h88q16 0 26 -8.5t21 -28.5l146 -235q9 -17 2 -27t-23 -10h-55q-25 0 -51 37z" />
    <glyph glyph-name="uni040E" unicode="&#x40e;" horiz-adv-x="1157" 
d="M319 0q-29 0 -14 31l205 446l-424 926q-16 31 14 31h84q14 0 21.5 -6.5t15.5 -22.5l357 -780l358 780q14 29 37 29h84q29 0 14 -31l-631 -1374q-14 -29 -37 -29h-84zM307 1815q0 28 27 28h51q27 0 27 -28q2 -71 37.5 -112.5t103.5 -41.5h68q68 0 103.5 41.5t37.5 112.5
q0 28 26 28h52q26 0 26 -28q0 -125 -59 -185.5t-180 -60.5h-80q-240 0 -240 246z" />
    <glyph glyph-name="uni0410" unicode="&#x410;" horiz-adv-x="1204" 
d="M672 1434q27 0 37 -33l411 -1368q9 -33 -22 -33h-70q-26 0 -35 33l-82 270h-618l-82 -270q-9 -33 -35 -33h-70q-31 0 -22 33l412 1368q10 33 36 33h140zM326 412h553l-267 884h-20z" />
    <glyph glyph-name="uni0411" unicode="&#x411;" horiz-adv-x="1177" 
d="M739 1434q29 0 29 -27v-61q0 -27 -29 -27h-473v-318h379q219 0 319.5 -96.5t100.5 -304.5v-199q0 -208 -100.5 -304.5t-319.5 -96.5h-475q-15 0 -21 6t-6 21v1380q0 15 6 21t21 6h569zM266 115h377q159 0 229 66.5t70 221.5v195q0 155 -70 222t-229 67h-377v-772z" />
    <glyph glyph-name="uni0412" unicode="&#x412;" horiz-adv-x="1198" 
d="M170 0q-15 0 -21 6t-6 21v1380q0 15 6 21t21 6h516q184 0 266 -84t82 -277q0 -122 -34.5 -196t-118.5 -111v-10q103 -34 153.5 -111.5t50.5 -208.5v-57q0 -203 -100 -291t-299 -88h-516zM266 115h420q147 0 212 58.5t65 205.5v57q0 148 -64 203t-213 55h-420v-579z
M266 799h416q123 0 176 58t53 190v32q0 132 -51.5 186t-177.5 54h-416v-520z" />
    <glyph glyph-name="uni0413" unicode="&#x413;" horiz-adv-x="983" 
d="M170 0q-15 0 -21 6t-6 21v1380q0 15 6 21t21 6h702q29 0 29 -27v-61q0 -27 -29 -27h-606v-1292q0 -15 -5.5 -21t-20.5 -6h-70z" />
    <glyph glyph-name="uni0414" unicode="&#x414;" horiz-adv-x="1361" 
d="M164 0v-172q0 -15 -6 -21t-21 -6h-69q-15 0 -21 6t-6 21v256q0 31 31 31h32q31 0 60 23t56 74t43 149.5t16 232.5v809q0 31 30 31h858q31 0 31 -31v-1288h92q31 0 31 -31v-256q0 -15 -6 -21t-21 -6h-69q-15 0 -21 6t-6 21v172h-1034zM295 115h780v1204h-674v-725
q0 -370 -106 -479z" />
    <glyph glyph-name="uni0415" unicode="&#x415;" horiz-adv-x="1064" 
d="M172 0q-29 0 -29 27v1380q0 27 29 27h778q29 0 29 -27v-61q0 -27 -29 -27h-684v-543h627q29 0 29 -26v-58q0 -26 -29 -26h-627v-551h688q29 0 29 -27v-61q0 -27 -29 -27h-782z" />
    <glyph glyph-name="uni0416" unicode="&#x416;" horiz-adv-x="1884" 
d="M135 1391q-15 19 -12 31t22 12h86q12 0 20.5 -6.5t20.5 -22.5l609 -754v756q0 15 5.5 21t20.5 6h70q15 0 21 -6t6 -21v-756l608 754q12 16 20.5 22.5t20.5 6.5h86q19 0 22 -12t-12 -31l-510 -623l557 -731q10 -12 6 -24.5t-22 -12.5h-76q-30 0 -53 29l-490 643l-157 -193
v-452q0 -15 -6 -21t-21 -6h-70q-15 0 -20.5 6t-5.5 21v452l-158 193l-490 -643q-23 -29 -53 -29h-76q-18 0 -22 12.5t6 24.5l557 731z" />
    <glyph glyph-name="uni0417" unicode="&#x417;" horiz-adv-x="1159" 
d="M524 -10q-194 0 -302.5 90t-108.5 278v31q0 25 24 25h70q24 0 24 -25q0 -154 72 -220.5t225 -66.5h109q148 0 219.5 70t71.5 211q0 172 -89 241.5t-274 69.5h-108q-25 0 -25 25v59q0 25 25 25h108q177 0 252.5 60t75.5 198q0 140 -68 205t-217 65h-63q-153 0 -225 -66.5
t-72 -220.5q0 -24 -25 -24h-69q-25 0 -25 24v31q0 188 109 278.5t303 90.5h71q201 0 300.5 -95t99.5 -288q0 -136 -53 -203t-173 -102v-15q50 -13 86.5 -28.5t71 -43t56 -64.5t34.5 -93t13 -129q0 -193 -103 -293t-303 -100h-117z" />
    <glyph glyph-name="uni0418" unicode="&#x418;" horiz-adv-x="1228" 
d="M170 0q-15 0 -21 6t-6 21v1380q0 15 6 21t21 6h70q15 0 20.5 -6t5.5 -21v-1266h17l589 1270q12 23 37 23h150q15 0 20.5 -6t5.5 -21v-1380q0 -15 -5.5 -21t-20.5 -6h-70q-15 0 -20.5 6t-5.5 21v1265h-17l-590 -1269q-12 -23 -37 -23h-149z" />
    <glyph glyph-name="uni0419" unicode="&#x419;" horiz-adv-x="1228" 
d="M170 0q-15 0 -21 6t-6 21v1380q0 15 6 21t21 6h70q15 0 20.5 -6t5.5 -21v-1266h17l589 1270q12 23 37 23h150q15 0 20.5 -6t5.5 -21v-1380q0 -15 -5.5 -21t-20.5 -6h-70q-15 0 -20.5 6t-5.5 21v1265h-17l-590 -1269q-12 -23 -37 -23h-149zM338 1815q0 28 27 28h51
q26 0 26 -28q2 -71 37.5 -112.5t104.5 -41.5h67q69 0 104.5 41.5t37.5 112.5q0 28 26 28h51q27 0 27 -28q0 -125 -59.5 -185.5t-180.5 -60.5h-79q-240 0 -240 246z" />
    <glyph glyph-name="uni041A" unicode="&#x41a;" horiz-adv-x="1146" 
d="M170 0q-15 0 -21 6t-6 21v1380q0 15 6 21t21 6h70q15 0 20.5 -6t5.5 -21v-756l608 754q12 16 20.5 22.5t20.5 6.5h86q19 0 22.5 -12t-11.5 -31l-510 -623l557 -731q10 -12 5.5 -24.5t-22.5 -12.5h-75q-31 0 -54 29l-489 643l-158 -193v-452q0 -15 -5.5 -21t-20.5 -6h-70z
" />
    <glyph glyph-name="uni041B" unicode="&#x41b;" horiz-adv-x="1300" 
d="M88 -8q-27 0 -27 28v70q0 25 27 25q62 0 105 35.5t43 119.5v1133q0 31 30 31h860q31 0 31 -31v-1376q0 -15 -6 -21t-21 -6h-69q-15 0 -21 6t-6 21v1292h-676v-1069q0 -131 -67.5 -194.5t-167.5 -63.5h-35z" />
    <glyph glyph-name="uni041C" unicode="&#x41c;" horiz-adv-x="1492" 
d="M170 0q-15 0 -21 6t-6 21v1380q0 15 6 21t21 6h162q28 0 37 -31l370 -1268h15l370 1268q9 31 37 31h162q15 0 21 -6t6 -21v-1380q0 -15 -6 -21t-21 -6h-70q-15 0 -20.5 6t-5.5 21v1265h-17l-370 -1261q-9 -31 -39 -31h-109q-30 0 -39 31l-370 1261h-17v-1265
q0 -15 -5.5 -21t-20.5 -6h-70z" />
    <glyph glyph-name="uni041D" unicode="&#x41d;" horiz-adv-x="1249" 
d="M1010 0q-15 0 -21 6t-6 21v639h-717v-639q0 -15 -5.5 -21t-20.5 -6h-70q-15 0 -21 6t-6 21v1380q0 15 6 21t21 6h70q15 0 20.5 -6t5.5 -21v-631h717v631q0 15 6 21t21 6h69q15 0 21 -6t6 -21v-1380q0 -15 -6 -21t-21 -6h-69z" />
    <glyph glyph-name="uni041E" unicode="&#x41e;" 
d="M573 -10q-430 0 -430 411v631q0 412 430 412h134q430 0 430 -412v-631q0 -411 -430 -411h-134zM266 403q0 -155 74.5 -227t234.5 -72h130q159 0 234 72t75 227v627q0 155 -75 227t-234 72h-130q-160 0 -234.5 -72t-74.5 -227v-627z" />
    <glyph glyph-name="uni041F" unicode="&#x41f;" horiz-adv-x="1208" 
d="M170 0q-15 0 -21 6t-6 21v1376q0 31 31 31h860q31 0 31 -31v-1376q0 -15 -6 -21t-21 -6h-69q-15 0 -21 6t-6 21v1292h-676v-1292q0 -15 -5.5 -21t-20.5 -6h-70z" />
    <glyph glyph-name="uni0420" unicode="&#x420;" horiz-adv-x="1187" 
d="M170 0q-15 0 -21 6t-6 21v1380q0 15 6 21t21 6h475q219 0 319.5 -97t100.5 -305v-198q0 -208 -100.5 -305t-319.5 -97h-379v-405q0 -15 -5.5 -21t-20.5 -6h-70zM266 547h377q159 0 229 67t70 222v194q0 155 -70 222t-229 67h-377v-772z" />
    <glyph glyph-name="uni0421" unicode="&#x421;" horiz-adv-x="1239" 
d="M573 -10q-430 0 -430 411v631q0 412 430 412h119q217 0 320.5 -97t103.5 -296v-11q0 -20 -20 -20h-82q-21 0 -21 20q0 153 -74 221t-229 68h-115q-159 0 -234 -72t-75 -227v-627q0 -155 75 -227t234 -72h115q154 0 228.5 65t74.5 206q0 20 21 20h82q20 0 20 -20v-10
q0 -188 -104 -281.5t-320 -93.5h-119z" />
    <glyph glyph-name="uni0422" unicode="&#x422;" horiz-adv-x="1083" 
d="M508 0q-15 0 -21 6t-6 21v1292h-350q-29 0 -29 27v61q0 27 29 27h821q29 0 29 -27v-61q0 -27 -29 -27h-348v-1292q0 -15 -5.5 -21t-20.5 -6h-70z" />
    <glyph glyph-name="uni0423" unicode="&#x423;" horiz-adv-x="1157" 
d="M319 0q-29 0 -14 31l205 446l-424 926q-16 31 14 31h84q14 0 21.5 -6.5t15.5 -22.5l357 -780l358 780q14 29 37 29h84q29 0 14 -31l-631 -1374q-14 -29 -37 -29h-84z" />
    <glyph glyph-name="uni0424" unicode="&#x424;" horiz-adv-x="1382" 
d="M573 195q-430 0 -430 411v221q0 412 430 412h58v168q0 15 5.5 21t20.5 6h70q15 0 21 -6t6 -21v-168h55q430 0 430 -412v-221q0 -411 -430 -411h-55v-168q0 -15 -6 -21t-21 -6h-70q-15 0 -20.5 6t-5.5 21v168h-58zM266 608q0 -155 74.5 -227t234.5 -72h56v815h-56
q-160 0 -234.5 -72t-74.5 -227v-217zM754 309h53q159 0 234 72t75 227v217q0 155 -75 227t-234 72h-53v-815z" />
    <glyph glyph-name="uni0425" unicode="&#x425;" horiz-adv-x="1142" 
d="M121 0q-29 0 -12 29l393 688l-391 688q-17 29 12 29h84q14 0 21.5 -6t17.5 -23l319 -574h13l319 574q10 17 17.5 23t21.5 6h84q29 0 12 -29l-391 -688l393 -688q17 -29 -12 -29h-84q-14 0 -21.5 6t-17.5 23l-321 573h-13l-321 -573q-10 -17 -17.5 -23t-21.5 -6h-84z" />
    <glyph glyph-name="uni0426" unicode="&#x426;" horiz-adv-x="1208" 
d="M174 0q-31 0 -31 31v1376q0 15 6 21t21 6h70q15 0 20.5 -6t5.5 -21v-1292h676v1292q0 15 6 21t21 6h69q15 0 21 -6t6 -21v-1292h72q30 0 30 -31v-256q0 -15 -5.5 -21t-20.5 -6h-70q-15 0 -21 6t-6 21v172h-870z" />
    <glyph glyph-name="uni0427" unicode="&#x427;" horiz-adv-x="1167" 
d="M928 0q-15 0 -21 6t-6 21v514q-30 -58 -115 -99t-182 -41h-151q-180 0 -265.5 84t-85.5 236v686q0 15 6 21t21 6h70q15 0 20.5 -6t5.5 -21v-680q0 -213 230 -213h180q124 0 195 57t71 156v680q0 15 6 21t21 6h69q15 0 21 -6t6 -21v-1380q0 -15 -6 -21t-21 -6h-69z" />
    <glyph glyph-name="uni0428" unicode="&#x428;" horiz-adv-x="1781" 
d="M174 0q-31 0 -31 31v1376q0 15 6 21t21 6h70q15 0 20.5 -6t5.5 -21v-1292h563v1292q0 15 6 21t21 6h70q15 0 20.5 -6t5.5 -21v-1292h564v1292q0 15 5.5 21t20.5 6h70q15 0 20.5 -6t5.5 -21v-1376q0 -31 -30 -31h-1434z" />
    <glyph glyph-name="uni0429" unicode="&#x429;" horiz-adv-x="1781" 
d="M174 0q-31 0 -31 31v1376q0 15 6 21t21 6h70q15 0 20.5 -6t5.5 -21v-1292h563v1292q0 15 6 21t21 6h70q15 0 20.5 -6t5.5 -21v-1292h564v1292q0 15 5.5 21t20.5 6h70q15 0 20.5 -6t5.5 -21v-1292h72q31 0 31 -31v-256q0 -15 -6 -21t-21 -6h-69q-15 0 -21 6t-6 21v172
h-1444z" />
    <glyph glyph-name="uni042A" unicode="&#x42a;" horiz-adv-x="1351" 
d="M334 0q-15 0 -21 6t-6 21v1292h-176q-29 0 -29 27v61q0 27 29 27h272q15 0 21 -6t6 -21v-406h379q219 0 319.5 -96.5t100.5 -304.5v-199q0 -208 -100.5 -304.5t-319.5 -96.5h-475zM430 115h377q159 0 229 66.5t70 221.5v195q0 155 -70 222t-229 67h-377v-772z" />
    <glyph glyph-name="uni042B" unicode="&#x42b;" horiz-adv-x="1597" 
d="M170 0q-15 0 -21 6t-6 21v1380q0 15 6 21t21 6h70q15 0 20.5 -6t5.5 -21v-406h379q219 0 319.5 -96.5t100.5 -304.5v-199q0 -208 -100.5 -304.5t-319.5 -96.5h-475zM266 115h377q159 0 229 66.5t70 221.5v195q0 155 -70 222t-229 67h-377v-772zM1331 27v1380q0 15 6 21
t21 6h69q15 0 21 -6t6 -21v-1380q0 -15 -6 -21t-21 -6h-69q-15 0 -21 6t-6 21z" />
    <glyph glyph-name="uni042C" unicode="&#x42c;" horiz-adv-x="1187" 
d="M170 0q-15 0 -21 6t-6 21v1380q0 15 6 21t21 6h70q15 0 20.5 -6t5.5 -21v-406h379q219 0 319.5 -96.5t100.5 -304.5v-199q0 -208 -100.5 -304.5t-319.5 -96.5h-475zM266 115h377q159 0 229 66.5t70 221.5v195q0 155 -70 222t-229 67h-377v-772z" />
    <glyph glyph-name="uni042D" unicode="&#x42d;" horiz-adv-x="1239" 
d="M567 -10q-216 0 -320 94.5t-104 282.5v8q0 20 21 20h82q20 0 20 -20q0 -141 74.5 -206t228.5 -65h115q159 0 234 72t75 227v256h-291q-28 0 -28 27v62q0 15 6.5 20.5t21.5 5.5h291v256q0 155 -75 227t-234 72h-115q-155 0 -229 -68t-74 -221q0 -20 -20 -20h-82
q-21 0 -21 20v9q0 199 103.5 297t320.5 98h119q430 0 430 -412v-631q0 -411 -430 -411h-119z" />
    <glyph glyph-name="uni042E" unicode="&#x42e;" horiz-adv-x="1710" 
d="M170 0q-15 0 -21 6t-6 21v1380q0 15 6 21t21 6h70q15 0 20.5 -6t5.5 -21v-633h307v258q0 412 431 412h133q430 0 430 -412v-631q0 -411 -430 -411h-133q-431 0 -431 411v261h-307v-635q0 -15 -5.5 -21t-20.5 -6h-70zM696 403q0 -155 75 -227t235 -72h129q159 0 234 72
t75 227v627q0 155 -75 227t-234 72h-129q-160 0 -235 -72t-75 -227v-627z" />
    <glyph glyph-name="uni042F" unicode="&#x42f;" horiz-adv-x="1177" 
d="M938 0q-15 0 -21 6t-6 21v405h-374q-52 0 -97 10l-200 -419q-12 -23 -35 -23h-66q-17 0 -23 10t1 27l205 426q-209 77 -209 371v198q0 208 100 305t319 97h476q15 0 20.5 -6t5.5 -21v-1380q0 -15 -5.5 -21t-20.5 -6h-70zM236 836q0 -155 70 -222t229 -67h376v772h-376
q-159 0 -229 -67t-70 -222v-194z" />
    <glyph glyph-name="uni0430" unicode="&#x430;" horiz-adv-x="1050" 
d="M823 0q-24 0 -24 25v135h-19q-131 -170 -348 -170h-10q-320 0 -320 301v49q0 258 314 258h383v90q0 59 -12 100t-42.5 72.5t-86 46.5t-138.5 15q-177 0 -284 -37q-21 -7 -25 14l-12 62q-3 18 12 24q118 47 311 47h39q185 0 271 -84t86 -252v-671q0 -25 -25 -25h-70z
M221 297q0 -102 52 -149.5t157 -47.5h66q121 0 212 79.5t91 178.5v142h-371q-104 0 -155.5 -37.5t-51.5 -130.5v-35z" />
    <glyph glyph-name="uni0431" unicode="&#x431;" horiz-adv-x="1060" 
d="M526 -10q-183 0 -258 125h-16v-90q0 -25 -25 -25h-69q-25 0 -25 25v1101q0 126 53 195.5t181 69.5q52 0 137 -9.5t131 -9.5q47 0 73.5 9t45.5 38q10 15 26 15h72q22 0 22 -23q0 -76 -59.5 -110.5t-152.5 -34.5q-37 0 -124.5 9t-142.5 9q-82 0 -112.5 -39.5t-30.5 -120.5
v-217h16q75 125 258 125h72q170 0 260 -87.5t90 -258.5v-350q0 -171 -90 -258.5t-260 -87.5h-72zM252 340q0 -114 62.5 -177t179.5 -63h90q245 0 245 244v334q0 244 -245 244h-90q-117 0 -179.5 -63t-62.5 -177v-342z" />
    <glyph glyph-name="uni0432" unicode="&#x432;" horiz-adv-x="1007" 
d="M164 0q-31 0 -31 31v962q0 31 31 31h422q280 0 280 -283q0 -150 -114 -206v-17q143 -52 143 -235q0 -156 -73.5 -219.5t-225.5 -63.5h-432zM252 109h344q44 0 73.5 6t56 23.5t39.5 53.5t13 91q0 194 -166 194h-360v-368zM252 573h360q73 0 105.5 49t32.5 119
q0 174 -168 174h-330v-342z" />
    <glyph glyph-name="uni0433" unicode="&#x433;" horiz-adv-x="864" 
d="M158 0q-25 0 -25 25v974q0 13 6 19t19 6h600q24 0 24 -25v-59q0 -25 -24 -25h-506v-890q0 -25 -25 -25h-69z" />
    <glyph glyph-name="uni0434" unicode="&#x434;" horiz-adv-x="1208" 
d="M170 0v-127q0 -25 -25 -25h-69q-25 0 -25 25v205q0 31 31 31h24q81 0 137 87.5t56 270.5v526q0 31 31 31h690q31 0 31 -31v-884h75q31 0 31 -31v-205q0 -25 -24 -25h-70q-25 0 -25 25v127h-868zM307 109h625v806h-514v-450q0 -242 -111 -356z" />
    <glyph glyph-name="uni0435" unicode="&#x435;" horiz-adv-x="1034" 
d="M508 -10q-198 0 -296.5 91t-98.5 257v346q0 166 93.5 257t262.5 91h96q172 0 264.5 -89t92.5 -255v-164q0 -29 -17.5 -46t-48.5 -17h-625v-121q0 -114 69.5 -180t211.5 -66h20q175 0 287 78q18 12 29 -2l31 -41q12 -15 0 -27q-47 -47 -139.5 -79.5t-211.5 -32.5h-20z
M231 557h572v129q0 236 -240 236h-92q-118 0 -179 -63t-61 -177v-125z" />
    <glyph glyph-name="uni0436" unicode="&#x436;" horiz-adv-x="1458" 
d="M59 0q-10 0 -14.5 6.5t-2.5 15.5t11 17l516 471l-497 475q-9 8 -11 17t2.5 15.5t14.5 6.5h94q19 0 35 -16l452 -441v432q0 25 25 25h70q24 0 24 -25v-432l453 441q16 16 35 16h94q10 0 14.5 -6.5t2.5 -15.5t-11 -17l-498 -475l516 -471q9 -8 11 -17t-2.5 -15.5
t-14.5 -6.5h-96q-19 0 -35 16l-469 439v-430q0 -25 -24 -25h-70q-25 0 -25 25v430l-469 -439q-16 -16 -34 -16h-97z" />
    <glyph glyph-name="uni0437" unicode="&#x437;" horiz-adv-x="952" 
d="M393 -12q-144 0 -222.5 67.5t-78.5 200.5q0 23 23 23h78q22 0 22 -23q0 -70 45 -113t133 -43h146q200 0 200 174q0 89 -33.5 141t-121.5 52h-164q-21 0 -21 20v60q0 20 21 20h164q88 0 116.5 45t28.5 136q0 85 -48.5 129.5t-141.5 44.5h-146q-87 0 -132.5 -48.5
t-45.5 -121.5q0 -23 -22 -23h-78q-23 0 -23 23q0 135 79.5 208.5t221.5 73.5h146q144 0 227.5 -75t83.5 -211q0 -43 -3.5 -70.5t-14.5 -59.5t-36.5 -54.5t-66.5 -37.5v-16q41 -15 68 -40.5t40 -58.5t18 -65t5 -72q0 -146 -85.5 -216t-235.5 -70h-146z" />
    <glyph glyph-name="uni0438" unicode="&#x438;" horiz-adv-x="1064" 
d="M158 0q-25 0 -25 25v974q0 25 25 25h69q25 0 25 -25v-866h14l475 868q11 23 37 23h129q25 0 25 -25v-974q0 -25 -25 -25h-69q-25 0 -25 25v866h-14l-475 -868q-12 -23 -37 -23h-129z" />
    <glyph glyph-name="uni0439" unicode="&#x439;" horiz-adv-x="1064" 
d="M158 0q-25 0 -25 25v974q0 25 25 25h69q25 0 25 -25v-866h14l475 868q11 23 37 23h129q25 0 25 -25v-974q0 -25 -25 -25h-69q-25 0 -25 25v866h-14l-475 -868q-12 -23 -37 -23h-129zM272 1405q0 29 27 29h51q27 0 27 -29q2 -71 37.5 -112.5t103.5 -41.5h68
q68 0 103.5 41.5t37.5 112.5q0 29 27 29h51q26 0 26 -29q0 -125 -59 -185.5t-180 -60.5h-80q-240 0 -240 246z" />
    <glyph glyph-name="uni043A" unicode="&#x43a;" horiz-adv-x="931" 
d="M756 0q-19 0 -35 16l-469 439v-430q0 -25 -25 -25h-69q-25 0 -25 25v974q0 25 25 25h69q25 0 25 -25v-432l453 441q16 16 34 16h95q10 0 14.5 -6.5t2.5 -15.5t-11 -17l-498 -475l516 -471q9 -8 11 -17t-2.5 -15.5t-14.5 -6.5h-96z" />
    <glyph glyph-name="uni043B" unicode="&#x43b;" horiz-adv-x="1112" 
d="M78 -20q-44 0 -61 7.5t-17 26.5v45q0 29 35 29q75 0 105 33.5t30 122.5v755q0 25 25 25h759q25 0 25 -25v-974q0 -25 -25 -25h-69q-25 0 -25 25v890h-571v-686q0 -129 -49.5 -189t-161.5 -60z" />
    <glyph glyph-name="uni043C" unicode="&#x43c;" horiz-adv-x="1310" 
d="M158 0q-25 0 -25 25v974q0 25 25 25h108q25 0 37 -27l352 -757l353 757q12 27 36 27h109q25 0 25 -25v-974q0 -25 -25 -25h-70q-24 0 -24 25v833l-340 -741q-13 -25 -37 -25h-53q-25 0 -37 25l-340 741v-833q0 -25 -25 -25h-69z" />
    <glyph glyph-name="uni043D" unicode="&#x43d;" horiz-adv-x="1075" 
d="M848 0q-25 0 -25 25v434h-571v-434q0 -25 -25 -25h-69q-25 0 -25 25v974q0 25 25 25h69q25 0 25 -25v-432h571v432q0 25 25 25h70q24 0 24 -25v-974q0 -25 -24 -25h-70z" />
    <glyph glyph-name="uni043E" unicode="&#x43e;" horiz-adv-x="1040" 
d="M471 -10q-172 0 -265 89t-93 255v354q0 166 93 255t265 89h98q172 0 265.5 -89.5t93.5 -254.5v-354q0 -165 -94 -254.5t-265 -89.5h-98zM231 336q0 -114 60 -175t180 -61h98q120 0 180 61t60 175v350q0 114 -60 175t-180 61h-98q-120 0 -180 -61t-60 -175v-350z" />
    <glyph glyph-name="uni043F" unicode="&#x43f;" horiz-adv-x="1075" 
d="M158 0q-25 0 -25 25v974q0 25 25 25h760q24 0 24 -25v-974q0 -25 -24 -25h-70q-25 0 -25 25v890h-571v-890q0 -25 -25 -25h-69z" />
    <glyph glyph-name="uni0440" unicode="&#x440;" horiz-adv-x="1060" 
d="M158 -362q-25 0 -25 24v1337q0 25 25 25h69q25 0 25 -25v-92h16q75 125 258 125h72q170 0 260 -87.5t90 -258.5v-350q0 -171 -90 -258.5t-260 -87.5h-72q-183 0 -258 125h-16v-453q0 -24 -25 -24h-69zM252 340q0 -114 62.5 -177t179.5 -63h90q245 0 245 244v334
q0 244 -245 244h-90q-117 0 -179.5 -63t-62.5 -177v-342z" />
    <glyph glyph-name="uni0441" unicode="&#x441;" horiz-adv-x="1013" 
d="M512 -10q-198 0 -298.5 90t-100.5 258v346q0 165 94.5 256.5t263.5 91.5h92q162 0 255 -80.5t93 -224.5v-12q0 -25 -24 -25h-68q-24 0 -24 25v10q0 92 -60.5 144.5t-171.5 52.5h-92q-117 0 -178.5 -63t-61.5 -177v-342q0 -116 69.5 -179t213.5 -63h14q118 0 174 24.5
t95 84.5q9 14 16.5 16.5t28.5 -4.5l39 -18q26 -13 14 -39q-42 -84 -129 -128t-238 -44h-16z" />
    <glyph glyph-name="uni0442" unicode="&#x442;" horiz-adv-x="911" 
d="M422 0q-25 0 -25 25v890h-291q-24 0 -24 25v59q0 25 24 25h699q24 0 24 -25v-59q0 -25 -24 -25h-289v-890q0 -25 -24 -25h-70z" />
    <glyph glyph-name="uni0443" unicode="&#x443;" horiz-adv-x="1062" 
d="M369 -362q-14 0 -19 9t0 21l119 309l-385 1016q-10 31 16 31h76q14 0 20 -7t13 -26l315 -854h13l315 854q7 19 13 26t20 7h78q26 0 16 -31l-506 -1325q-11 -30 -33 -30h-71z" />
    <glyph glyph-name="uni0444" unicode="&#x444;" horiz-adv-x="1736" 
d="M463 -10q-170 0 -260 87.5t-90 258.5v350q0 171 90 258.5t260 87.5h72q183 0 258 -125h16v502q0 25 25 25h69q25 0 25 -25v-502h16q75 125 258 125h72q170 0 260 -87.5t90 -258.5v-350q0 -171 -90 -258.5t-260 -87.5h-72q-183 0 -258 125h-16v-453q0 -24 -25 -24h-69
q-25 0 -25 24v453h-16q-75 -125 -258 -125h-72zM231 344q0 -244 246 -244h90q117 0 179.5 63t62.5 177v342q0 114 -62.5 177t-179.5 63h-90q-246 0 -246 -244v-334zM928 340q0 -114 62 -177t179 -63h91q245 0 245 244v334q0 244 -245 244h-91q-117 0 -179 -63t-62 -177v-342
z" />
    <glyph glyph-name="uni0445" unicode="&#x445;" horiz-adv-x="915" 
d="M106 0q-18 0 -23 9.5t3 21.5l297 487l-289 475q-8 12 -3.5 21.5t22.5 9.5h71q14 0 22.5 -6t18.5 -23l226 -379h14l225 379q10 17 18.5 23t22.5 6h72q18 0 22 -9.5t-4 -21.5l-289 -475l297 -487q8 -12 2.5 -21.5t-24.5 -9.5h-68q-23 0 -41 29l-233 393h-14l-234 -393
q-18 -29 -41 -29h-70z" />
    <glyph glyph-name="uni0446" unicode="&#x446;" horiz-adv-x="1099" 
d="M158 0q-25 0 -25 25v974q0 25 25 25h69q25 0 25 -25v-890h571v890q0 25 25 25h70q24 0 24 -25v-890h76q31 0 31 -31v-205q0 -25 -25 -25h-70q-24 0 -24 25v127h-772z" />
    <glyph glyph-name="uni0447" unicode="&#x447;" horiz-adv-x="1075" 
d="M848 0q-25 0 -25 25v342q-37 -60 -110 -98t-166 -38h-74q-185 0 -262.5 86t-77.5 261v421q0 25 25 25h69q25 0 25 -25v-419q0 -118 53.5 -177t169.5 -59h86q123 0 192.5 60t69.5 174v421q0 25 25 25h70q24 0 24 -25v-974q0 -25 -24 -25h-70z" />
    <glyph glyph-name="uni0448" unicode="&#x448;" horiz-adv-x="1495" 
d="M158 0q-25 0 -25 25v974q0 25 25 25h69q25 0 25 -25v-890h436v890q0 25 25 25h69q25 0 25 -25v-890h436v890q0 25 25 25h69q25 0 25 -25v-974q0 -25 -25 -25h-1179z" />
    <glyph glyph-name="uni0449" unicode="&#x449;" horiz-adv-x="1499" 
d="M1354 -152q-25 0 -25 25v127h-1171q-25 0 -25 25v974q0 25 25 25h69q25 0 25 -25v-890h436v890q0 25 25 25h69q25 0 25 -25v-890h436v890q0 25 25 25h69q25 0 25 -25v-890h55q31 0 31 -31v-205q0 -25 -25 -25h-69z" />
    <glyph glyph-name="uni044A" unicode="&#x44a;" horiz-adv-x="1116" 
d="M219 0q-24 0 -24 25v890h-119q-25 0 -25 25v59q0 25 25 25h213q24 0 24 -25v-323h349q185 0 263.5 -76t78.5 -262t-78.5 -262t-263.5 -76h-443zM313 109h332q134 0 187 49.5t53 179.5t-53 179.5t-187 49.5h-332v-458z" />
    <glyph glyph-name="uni044B" unicode="&#x44b;" horiz-adv-x="1331" 
d="M158 0q-25 0 -25 25v974q0 25 25 25h69q25 0 25 -25v-323h348q185 0 263.5 -76t78.5 -262t-78.5 -262t-263.5 -76h-442zM252 109h332q134 0 186.5 49t52.5 180t-52.5 180t-186.5 49h-332v-458zM1079 25v974q0 25 25 25h70q24 0 24 -25v-974q0 -25 -24 -25h-70
q-25 0 -25 25z" />
    <glyph glyph-name="uni044C" unicode="&#x44c;" horiz-adv-x="1054" 
d="M158 0q-25 0 -25 25v974q0 25 25 25h69q25 0 25 -25v-323h348q185 0 263.5 -76t78.5 -262t-78.5 -262t-263.5 -76h-442zM252 109h332q134 0 186.5 49t52.5 180t-52.5 180t-186.5 49h-332v-458z" />
    <glyph glyph-name="uni044D" unicode="&#x44d;" horiz-adv-x="1013" 
d="M569 451q-24 0 -24 24v60q0 24 24 24h213v123q0 114 -61 177t-178 63h-92q-111 0 -171.5 -52.5t-60.5 -144.5v-10q0 -25 -24 -25h-68q-25 0 -25 25v12q0 144 93.5 224.5t255.5 80.5h92q169 0 263.5 -91.5t94.5 -256.5v-346q0 -168 -100.5 -258t-298.5 -90h-17
q-151 0 -237.5 44t-128.5 128q-12 26 14 39l39 18q21 7 28.5 4.5t16.5 -16.5q39 -60 94.5 -84.5t173.5 -24.5h15q144 0 213 63t69 179v111h-213z" />
    <glyph glyph-name="uni044E" unicode="&#x44e;" horiz-adv-x="1413" 
d="M158 -2q-25 0 -25 25v974q0 25 25 25h69q25 0 25 -25v-432h233v123q0 165 93.5 254.5t265.5 89.5h98q172 0 265 -89t93 -255v-354q0 -165 -93.5 -254.5t-264.5 -89.5h-98q-172 0 -265.5 89.5t-93.5 254.5v123h-233v-434q0 -25 -25 -25h-69zM604 336q0 -114 60 -175
t180 -61h98q120 0 180 61t60 175v350q0 114 -60 175t-180 61h-98q-120 0 -180 -61t-60 -175v-350z" />
    <glyph glyph-name="uni044F" unicode="&#x44f;" horiz-adv-x="1017" 
d="M139 0q-26 0 -26 31v207q0 57 9.5 100t39.5 83.5t82 59.5v11q-123 51 -123 247q0 146 68.5 215.5t216.5 69.5h454q25 0 25 -25v-974q0 -25 -25 -25h-69q-25 0 -25 25v399h-371q-89 0 -126.5 -44t-37.5 -140v-209q0 -31 -26 -31h-66zM238 739q0 -104 35 -156.5t122 -52.5
h371v381h-371q-82 0 -119.5 -42t-37.5 -130z" />
    <glyph glyph-name="uni0451" unicode="&#x451;" horiz-adv-x="1034" 
d="M508 -10q-198 0 -296.5 91t-98.5 257v346q0 166 93.5 257t262.5 91h96q172 0 264.5 -89t92.5 -255v-164q0 -29 -17.5 -46t-48.5 -17h-625v-121q0 -114 69.5 -180t211.5 -66h20q175 0 287 78q18 12 29 -2l31 -41q12 -15 0 -27q-47 -47 -139.5 -79.5t-211.5 -32.5h-20z
M193 1327v80q0 15 5.5 21t20.5 6h80q15 0 21 -6t6 -21v-80q0 -15 -6 -21t-21 -6h-80q-15 0 -20.5 6t-5.5 21zM231 557h572v129q0 236 -240 236h-92q-118 0 -179 -63t-61 -177v-125zM715 1327v80q0 15 5.5 21t20.5 6h80q15 0 21 -6t6 -21v-80q0 -15 -6 -21t-21 -6h-80
q-15 0 -20.5 6t-5.5 21z" />
    <glyph glyph-name="uni0453" unicode="&#x453;" horiz-adv-x="864" 
d="M158 0q-25 0 -25 25v974q0 13 6 19t19 6h600q24 0 24 -25v-59q0 -25 -24 -25h-506v-890q0 -25 -25 -25h-69zM408 1161l145 236q21 37 45 37h88q18 0 25 -10t-4 -27l-172 -236q-26 -37 -52 -37h-55q-16 0 -22.5 10t2.5 27z" />
    <glyph glyph-name="uni0454" unicode="&#x454;" horiz-adv-x="1013" 
d="M512 -10q-198 0 -298.5 90t-100.5 258v346q0 165 94.5 256.5t263.5 91.5h92q162 0 255 -80.5t93 -224.5v-12q0 -25 -24 -25h-68q-24 0 -24 25v10q0 92 -60.5 144.5t-171.5 52.5h-92q-117 0 -178.5 -63t-61.5 -177v-123h213q25 0 25 -24v-60q0 -24 -25 -24h-213v-111
q0 -116 69.5 -179t213.5 -63h14q118 0 174 24.5t95 84.5q9 14 16.5 16.5t28.5 -4.5l39 -18q26 -13 14 -39q-42 -84 -129 -128t-238 -44h-16z" />
    <glyph glyph-name="uni0456" unicode="&#x456;" horiz-adv-x="389" 
d="M158 1313q-25 0 -25 24v72q0 25 25 25h73q25 0 25 -25v-72q0 -24 -25 -24h-73zM135 25v974q0 25 25 25h69q25 0 25 -25v-974q0 -25 -25 -25h-69q-25 0 -25 25z" />
    <glyph glyph-name="uni0457" unicode="&#x457;" horiz-adv-x="344" 
d="M137 0q-24 0 -24 25v974q0 25 24 25h70q24 0 24 -25v-974q0 -25 -24 -25h-70zM-156 1327v80q0 15 6 21t21 6h80q15 0 20.5 -6t5.5 -21v-80q0 -15 -5.5 -21t-20.5 -6h-80q-15 0 -21 6t-6 21zM367 1327v80q0 15 5.5 21t20.5 6h80q15 0 21 -6t6 -21v-80q0 -15 -6 -21t-21 -6
h-80q-15 0 -20.5 6t-5.5 21z" />
    <glyph glyph-name="uni0458" unicode="&#x458;" horiz-adv-x="401" 
d="M170 1313q-25 0 -25 24v72q0 25 25 25h74q24 0 24 -25v-72q0 -24 -24 -24h-74zM-20 -338v45q0 29 34 29q75 0 105.5 33t30.5 122v1108q0 25 24 25h70q24 0 24 -25v-1122q0 -129 -49.5 -189.5t-161.5 -60.5q-43 0 -60 8t-17 27z" />
    <glyph glyph-name="uni045C" unicode="&#x45c;" horiz-adv-x="931" 
d="M756 0q-19 0 -35 16l-469 439v-430q0 -25 -25 -25h-69q-25 0 -25 25v974q0 25 25 25h69q25 0 25 -25v-432l453 441q16 16 34 16h95q10 0 14.5 -6.5t2.5 -15.5t-11 -17l-498 -475l516 -471q9 -8 11 -17t-2.5 -15.5t-14.5 -6.5h-96zM418 1161l145 236q21 37 45 37h88
q18 0 25 -10t-4 -27l-172 -236q-26 -37 -51 -37h-56q-16 0 -22.5 10t2.5 27z" />
    <glyph glyph-name="uni045D" unicode="&#x45d;" horiz-adv-x="1064" 
d="M158 0q-25 0 -25 25v974q0 25 25 25h69q25 0 25 -25v-866h14l475 868q11 23 37 23h129q25 0 25 -25v-974q0 -25 -25 -25h-69q-25 0 -25 25v866h-14l-475 -868q-12 -23 -37 -23h-129zM307 1397q-11 17 -5 27t24 10h88q16 0 26 -8.5t21 -28.5l145 -236q9 -17 2.5 -27
t-22.5 -10h-56q-25 0 -51 37z" />
    <glyph glyph-name="uni045E" unicode="&#x45e;" horiz-adv-x="1062" 
d="M369 -362q-14 0 -19 9t0 21l119 309l-385 1016q-10 31 16 31h76q14 0 20 -7t13 -26l315 -854h13l315 854q7 19 13 26t20 7h78q26 0 16 -31l-506 -1325q-11 -30 -33 -30h-71zM250 1405q0 29 26 29h52q26 0 26 -29q2 -71 37.5 -112.5t104.5 -41.5h67q69 0 104.5 41.5
t37.5 112.5q0 29 26 29h51q27 0 27 -29q0 -125 -59.5 -185.5t-180.5 -60.5h-80q-239 0 -239 246z" />
    <glyph glyph-name="uni0490" unicode="&#x490;" horiz-adv-x="983" 
d="M778 1550q0 15 6 21t21 6h69q15 0 21 -6t6 -21v-204q0 -27 -29 -27h-606v-1292q0 -15 -5.5 -21t-20.5 -6h-70q-15 0 -21 6t-6 21v1380q0 15 6 21t21 6h608v116z" />
    <glyph glyph-name="uni0491" unicode="&#x491;" horiz-adv-x="864" 
d="M664 1110q0 25 24 25h70q24 0 24 -25v-170q0 -25 -24 -25h-506v-890q0 -25 -25 -25h-69q-25 0 -25 25v974q0 13 6 19t19 6h506v86z" />
    <glyph glyph-name="uni04C0" unicode="&#x4c0;" horiz-adv-x="409" 
d="M170 0q-15 0 -21 6t-6 21v1380q0 15 6 21t21 6h70q15 0 20.5 -6t5.5 -21v-1380q0 -15 -5.5 -21t-20.5 -6h-70z" />
    <glyph glyph-name="uni04E2" unicode="&#x4e2;" horiz-adv-x="1228" 
d="M170 0q-15 0 -21 6t-6 21v1380q0 15 6 21t21 6h70q15 0 20.5 -6t5.5 -21v-1266h17l589 1270q12 23 37 23h150q15 0 20.5 -6t5.5 -21v-1380q0 -15 -5.5 -21t-20.5 -6h-70q-15 0 -20.5 6t-5.5 21v1265h-17l-590 -1269q-12 -23 -37 -23h-149zM256 1755v60q0 28 29 28h667
q29 0 29 -28v-60q0 -29 -29 -29h-667q-29 0 -29 29z" />
    <glyph glyph-name="uni04E3" unicode="&#x4e3;" horiz-adv-x="1064" 
d="M158 0q-25 0 -25 25v974q0 25 25 25h69q25 0 25 -25v-866h14l475 868q11 23 37 23h129q25 0 25 -25v-974q0 -25 -25 -25h-69q-25 0 -25 25v866h-14l-475 -868q-12 -23 -37 -23h-129zM190 1346v59q0 29 29 29h668q28 0 28 -29v-59q0 -29 -28 -29h-668q-29 0 -29 29z" />
    <glyph glyph-name="uni04E8" unicode="&#x4e8;" 
d="M573 -10q-430 0 -430 411v631q0 412 430 412h134q430 0 430 -412v-631q0 -411 -430 -411h-134zM266 403q0 -155 74.5 -227t234.5 -72h130q159 0 234 72t75 227v259h-748v-259zM266 772h748v258q0 155 -75 227t-234 72h-130q-160 0 -234.5 -72t-74.5 -227v-258z" />
    <glyph glyph-name="uni04E9" unicode="&#x4e9;" horiz-adv-x="1040" 
d="M569 1032q171 0 265 -89.5t94 -254.5v-354q0 -165 -93.5 -254.5t-265.5 -89.5h-98q-172 0 -265 89t-93 255v354q0 166 93 255t265 89h98zM231 336q0 -114 60 -175t180 -61h98q120 0 180 61t60 175v121h-578v-121zM231 565h578v121q0 114 -60 175t-180 61h-98
q-120 0 -180 -61t-60 -175v-121z" />
    <glyph glyph-name="uni04EC" unicode="&#x4ec;" horiz-adv-x="1239" 
d="M682 659q-29 0 -29 27v62q0 26 29 26h291v256q0 155 -75 227t-234 72h-115q-155 0 -229 -68t-74 -221q0 -20 -21 -20h-82q-20 0 -20 20v11q0 199 103.5 296t320.5 97h119q430 0 430 -412v-631q0 -411 -430 -411h-119q-216 0 -320 93.5t-104 281.5v10q0 20 20 20h82
q21 0 21 -20q0 -141 74.5 -206t228.5 -65h115q159 0 234 72t75 227v256h-291zM281 1737v80q0 15 5.5 20.5t20.5 5.5h80q15 0 21 -5.5t6 -20.5v-80q0 -15 -6 -21t-21 -6h-80q-15 0 -20.5 6t-5.5 21zM803 1737v80q0 15 5.5 20.5t20.5 5.5h80q15 0 21 -5.5t6 -20.5v-80
q0 -15 -6 -21t-21 -6h-80q-15 0 -20.5 6t-5.5 21z" />
    <glyph glyph-name="uni04ED" unicode="&#x4ed;" horiz-adv-x="1013" 
d="M569 451q-24 0 -24 24v60q0 24 24 24h213v123q0 114 -61 177t-178 63h-92q-111 0 -171.5 -52.5t-60.5 -144.5v-10q0 -25 -24 -25h-68q-25 0 -25 25v12q0 144 93.5 224.5t255.5 80.5h92q169 0 263.5 -91.5t94.5 -256.5v-346q0 -168 -100.5 -258t-298.5 -90h-17
q-151 0 -237.5 44t-128.5 128q-12 26 14 39l39 18q21 7 28.5 4.5t16.5 -16.5q39 -60 94.5 -84.5t173.5 -24.5h15q144 0 213 63t69 179v111h-213zM168 1327v80q0 15 6 21t21 6h79q15 0 21 -6t6 -21v-80q0 -15 -6 -21t-21 -6h-79q-15 0 -21 6t-6 21zM690 1327v80q0 15 6 21
t21 6h80q15 0 20.5 -6t5.5 -21v-80q0 -15 -5.5 -21t-20.5 -6h-80q-15 0 -21 6t-6 21z" />
    <glyph glyph-name="uni04EE" unicode="&#x4ee;" horiz-adv-x="1157" 
d="M319 0q-29 0 -14 31l205 446l-424 926q-16 31 14 31h84q14 0 21.5 -6.5t15.5 -22.5l357 -780l358 780q14 29 37 29h84q29 0 14 -31l-631 -1374q-14 -29 -37 -29h-84zM225 1755v60q0 28 29 28h668q28 0 28 -28v-60q0 -29 -28 -29h-668q-29 0 -29 29z" />
    <glyph glyph-name="uni04EF" unicode="&#x4ef;" horiz-adv-x="1062" 
d="M201 1317q-29 0 -29 29v59q0 29 29 29h667q29 0 29 -29v-59q0 -29 -29 -29h-667zM84 993q-10 31 16 31h76q14 0 20 -7t13 -26l315 -854h13l315 854q7 19 13 26t20 7h78q26 0 16 -31l-506 -1325q-11 -30 -33 -30h-71q-14 0 -19 9t0 21l119 309z" />
    <glyph glyph-name="uni1E20" unicode="&#x1e20;" horiz-adv-x="1259" 
d="M573 -10q-430 0 -430 411v631q0 412 430 412h119q217 0 319.5 -97t102.5 -296v-11q0 -20 -20 -20h-82q-21 0 -21 20q0 153 -73 221t-228 68h-115q-159 0 -234 -72t-75 -227v-627q0 -155 75 -227t234 -72h109q159 0 234 72t75 227v263h-311q-29 0 -29 26v58q0 26 29 26
h403q13 0 22 -9t9 -22v-344q0 -411 -430 -411h-113zM274 1755v60q0 28 29 28h668q28 0 28 -28v-60q0 -29 -28 -29h-668q-29 0 -29 29z" />
    <glyph glyph-name="uni1E21" unicode="&#x1e21;" horiz-adv-x="1050" 
d="M502 -379q-97 0 -168 8q-41 6 -41 31v51q0 12 8.5 18.5t20.5 4.5q70 -6 194 -6q147 0 220 50.5t73 184.5v152h-16q-75 -125 -258 -125h-72q-170 0 -260 87.5t-90 258.5v350q0 171 90 258.5t260 87.5h72q183 0 258 -125h16v90q0 27 25 27h69q25 0 25 -27v-1034
q0 -188 -100.5 -265t-325.5 -77zM178 1346v59q0 29 29 29h667q29 0 29 -29v-59q0 -29 -29 -29h-667q-29 0 -29 29zM231 344q0 -244 246 -244h90q117 0 179.5 63t62.5 177v342q0 114 -62.5 177t-179.5 63h-90q-246 0 -246 -244v-334z" />
    <glyph glyph-name="uni1E3E" unicode="&#x1e3e;" horiz-adv-x="1492" 
d="M170 0q-15 0 -21 6t-6 21v1380q0 15 6 21t21 6h162q28 0 37 -31l370 -1268h15l370 1268q9 31 37 31h162q15 0 21 -6t6 -21v-1380q0 -15 -6 -21t-21 -6h-70q-15 0 -20.5 6t-5.5 21v1265h-17l-370 -1261q-9 -31 -39 -31h-109q-30 0 -39 31l-370 1261h-17v-1265
q0 -15 -5.5 -21t-20.5 -6h-70zM709 1550l145 236q21 37 45 37h88q18 0 25 -10t-4 -27l-172 -236q-26 -37 -52 -37h-55q-16 0 -22.5 10t2.5 27z" />
    <glyph glyph-name="uni1E3F" unicode="&#x1e3f;" horiz-adv-x="1699" 
d="M815 0q-24 0 -24 25v653q0 244 -228 244h-61q-117 0 -183.5 -64t-66.5 -178v-655q0 -25 -25 -25h-69q-25 0 -25 25v974q0 25 25 25h69q25 0 25 -25v-92h20q82 125 275 125h41q213 0 284 -151h15q83 151 317 151h41q322 0 322 -346v-661q0 -25 -25 -25h-69q-25 0 -25 25
v653q0 244 -227 244h-62q-117 0 -183.5 -64t-66.5 -178v-655q0 -25 -24 -25h-70zM817 1161l146 236q21 37 45 37h88q18 0 24.5 -10t-4.5 -27l-172 -236q-26 -37 -51 -37h-55q-16 0 -23 10t2 27z" />
    <glyph glyph-name="Wgrave" unicode="&#x1e80;" horiz-adv-x="1855" 
d="M442 0q-29 0 -36 33l-322 1368q-9 33 22 33h70q26 0 35 -33l293 -1262h18l330 1262q5 18 12 25.5t21 7.5h86q15 0 21.5 -7t11.5 -26l329 -1262h19l293 1262q5 18 12 25.5t22 7.5h70q32 0 23 -33l-322 -1368q-7 -33 -37 -33h-141q-27 0 -37 33l-297 1184h-20l-297 -1184
q-10 -33 -37 -33h-142zM682 1806q-11 17 -5.5 27t23.5 10h88q16 0 26.5 -8.5t21.5 -28.5l145 -235q9 -17 2.5 -27t-22.5 -10h-56q-25 0 -51 37z" />
    <glyph glyph-name="wgrave" unicode="&#x1e81;" horiz-adv-x="1499" 
d="M365 0q-32 0 -41 33l-240 960q-7 31 18 31h72q24 0 31 -31l213 -874h8l248 874q5 16 11 23.5t20 7.5h90q9 0 15.5 -4.5t8.5 -9.5t6 -17l248 -874h8l213 874q7 31 31 31h72q25 0 18 -31l-239 -960q-9 -33 -41 -33h-111q-32 0 -41 33l-229 823h-9l-229 -823q-9 -33 -41 -33
h-110zM504 1397q-11 17 -5.5 27t23.5 10h88q16 0 26 -8.5t21 -28.5l146 -236q9 -17 2 -27t-23 -10h-55q-25 0 -51 37z" />
    <glyph glyph-name="Wacute" unicode="&#x1e82;" horiz-adv-x="1855" 
d="M442 0q-29 0 -36 33l-322 1368q-9 33 22 33h70q26 0 35 -33l293 -1262h18l330 1262q5 18 12 25.5t21 7.5h86q15 0 21.5 -7t11.5 -26l329 -1262h19l293 1262q5 18 12 25.5t22 7.5h70q32 0 23 -33l-322 -1368q-7 -33 -37 -33h-141q-27 0 -37 33l-297 1184h-20l-297 -1184
q-10 -33 -37 -33h-142zM877 1571l145 235q21 37 45 37h88q18 0 25 -10t-4 -27l-172 -235q-26 -37 -52 -37h-55q-16 0 -22.5 10t2.5 27z" />
    <glyph glyph-name="wacute" unicode="&#x1e83;" horiz-adv-x="1499" 
d="M365 0q-32 0 -41 33l-240 960q-7 31 18 31h72q24 0 31 -31l213 -874h8l248 874q5 16 11 23.5t20 7.5h90q9 0 15.5 -4.5t8.5 -9.5t6 -17l248 -874h8l213 874q7 31 31 31h72q25 0 18 -31l-239 -960q-9 -33 -41 -33h-111q-32 0 -41 33l-229 823h-9l-229 -823q-9 -33 -41 -33
h-110zM698 1161l146 236q21 37 45 37h88q18 0 24.5 -10t-4.5 -27l-172 -236q-26 -37 -51 -37h-55q-16 0 -23 10t2 27z" />
    <glyph glyph-name="Wdieresis" unicode="&#x1e84;" horiz-adv-x="1855" 
d="M442 0q-29 0 -36 33l-322 1368q-9 33 22 33h70q26 0 35 -33l293 -1262h18l330 1262q5 18 12 25.5t21 7.5h86q15 0 21.5 -7t11.5 -26l329 -1262h19l293 1262q5 18 12 25.5t22 7.5h70q32 0 23 -33l-322 -1368q-7 -33 -37 -33h-141q-27 0 -37 33l-297 1184h-20l-297 -1184
q-10 -33 -37 -33h-142zM600 1737v80q0 15 6 20.5t21 5.5h80q15 0 20.5 -5.5t5.5 -20.5v-80q0 -15 -5.5 -21t-20.5 -6h-80q-15 0 -21 6t-6 21zM1122 1737v80q0 15 6 20.5t21 5.5h80q15 0 20.5 -5.5t5.5 -20.5v-80q0 -15 -5.5 -21t-20.5 -6h-80q-15 0 -21 6t-6 21z" />
    <glyph glyph-name="wdieresis" unicode="&#x1e85;" horiz-adv-x="1499" 
d="M365 0q-32 0 -41 33l-240 960q-7 31 18 31h72q24 0 31 -31l213 -874h8l248 874q5 16 11 23.5t20 7.5h90q9 0 15.5 -4.5t8.5 -9.5t6 -17l248 -874h8l213 874q7 31 31 31h72q25 0 18 -31l-239 -960q-9 -33 -41 -33h-111q-32 0 -41 33l-229 823h-9l-229 -823q-9 -33 -41 -33
h-110zM422 1327v80q0 15 6 21t21 6h79q15 0 21 -6t6 -21v-80q0 -15 -6 -21t-21 -6h-79q-15 0 -21 6t-6 21zM944 1327v80q0 15 6 21t21 6h80q15 0 20.5 -6t5.5 -21v-80q0 -15 -5.5 -21t-20.5 -6h-80q-15 0 -21 6t-6 21z" />
    <glyph glyph-name="uni1E9E" unicode="&#x1e9e;" horiz-adv-x="1208" 
d="M170 0q-15 0 -21 6t-6 21v1380q0 27 29 27h832q36 0 50 -26.5t-7 -57.5l-367 -527h90q155 0 240.5 -87.5t85.5 -231.5v-148q0 -103 -29 -173t-87.5 -110t-134.5 -56.5t-181 -16.5h-121q-25 0 -25 25v65q0 25 25 25h121q172 0 240.5 58t68.5 212v86q0 140 -69 196t-240 56
h-93q-24 0 -24 25v59q0 20 18 47l328 465h-627v-1292q0 -15 -5.5 -21t-20.5 -6h-70z" />
    <glyph glyph-name="uni1EA0" unicode="&#x1ea0;" horiz-adv-x="1204" 
d="M672 1434q27 0 37 -33l411 -1368q9 -33 -22 -33h-70q-26 0 -35 33l-82 270h-618l-82 -270q-9 -33 -35 -33h-70q-31 0 -22 33l412 1368q10 33 36 33h140zM326 412h553l-267 884h-20zM520 -336v111q0 15 6 20.5t21 5.5h110q15 0 21 -5.5t6 -20.5v-111q0 -15 -6 -20.5
t-21 -5.5h-110q-15 0 -21 5.5t-6 20.5z" />
    <glyph glyph-name="uni1EA1" unicode="&#x1ea1;" horiz-adv-x="1050" 
d="M823 0q-24 0 -24 25v135h-19q-131 -170 -348 -170h-10q-320 0 -320 301v49q0 258 314 258h383v90q0 59 -12 100t-42.5 72.5t-86 46.5t-138.5 15q-177 0 -284 -37q-21 -7 -25 14l-12 62q-3 18 12 24q118 47 311 47h39q185 0 271 -84t86 -252v-671q0 -25 -25 -25h-70z
M221 297q0 -102 52 -149.5t157 -47.5h66q121 0 212 79.5t91 178.5v142h-371q-104 0 -155.5 -37.5t-51.5 -130.5v-35zM434 -336v111q0 15 6 20.5t21 5.5h110q15 0 21 -5.5t6 -20.5v-111q0 -15 -6 -20.5t-21 -5.5h-110q-15 0 -21 5.5t-6 20.5z" />
    <glyph glyph-name="uni1EA2" unicode="&#x1ea2;" horiz-adv-x="1204" 
d="M672 1434q27 0 37 -33l411 -1368q9 -33 -22 -33h-70q-26 0 -35 33l-82 270h-618l-82 -270q-9 -33 -35 -33h-70q-31 0 -22 33l412 1368q10 33 36 33h140zM326 412h553l-267 884h-20zM387 1753v25q0 82 44 126t130 44h82q86 0 130 -44t44 -126v-56q0 -82 -44 -126t-130 -44
h-37q-26 0 -26 27v31q0 26 26 26h25q94 0 94 93v43q0 88 -94 88h-60q-90 0 -90 -88v-19q0 -27 -26 -27h-41q-12 0 -19.5 7.5t-7.5 19.5z" />
    <glyph glyph-name="uni1EA3" unicode="&#x1ea3;" horiz-adv-x="1050" 
d="M823 0q-24 0 -24 25v135h-19q-131 -170 -348 -170h-10q-320 0 -320 301v49q0 258 314 258h383v90q0 59 -12 100t-42.5 72.5t-86 46.5t-138.5 15q-177 0 -284 -37q-21 -7 -25 14l-12 62q-3 18 12 24q118 47 311 47h39q185 0 271 -84t86 -252v-671q0 -25 -25 -25h-70z
M221 297q0 -102 52 -149.5t157 -47.5h66q121 0 212 79.5t91 178.5v142h-371q-104 0 -155.5 -37.5t-51.5 -130.5v-35zM332 1343v25q0 82 44 126t130 44h82q86 0 130 -44t44 -126v-55q0 -82 -44 -126t-130 -44h-37q-27 0 -27 26v31q0 12 7.5 19.5t19.5 7.5h24q95 0 95 92v43
q0 88 -95 88h-59q-90 0 -90 -88v-19q0 -26 -27 -26h-41q-26 0 -26 26z" />
    <glyph glyph-name="uni1EA4" unicode="&#x1ea4;" horiz-adv-x="1204" 
d="M672 1434q27 0 37 -33l411 -1368q9 -33 -22 -33h-70q-26 0 -35 33l-82 270h-618l-82 -270q-9 -33 -35 -33h-70q-31 0 -22 33l412 1368q10 33 36 33h140zM287 1571l215 246q23 26 51 26h68q37 0 57 -26l215 -246q11 -12 7 -22.5t-19 -10.5h-70q-28 0 -49 27l-162 184h-20
l-162 -184q-21 -27 -49 -27h-70q-15 0 -19 10.5t7 22.5zM326 412h553l-267 884h-20zM754 1898l145 236q21 37 45 37h88q18 0 25 -10t-4 -27l-172 -236q-25 -36 -52 -36h-55q-16 0 -22.5 9.5t2.5 26.5z" />
    <glyph glyph-name="uni1EA5" unicode="&#x1ea5;" horiz-adv-x="1050" 
d="M823 0q-24 0 -24 25v135h-19q-131 -170 -348 -170h-10q-320 0 -320 301v49q0 258 314 258h383v90q0 59 -12 100t-42.5 72.5t-86 46.5t-138.5 15q-177 0 -284 -37q-21 -7 -25 14l-12 62q-3 18 12 24q118 47 311 47h39q185 0 271 -84t86 -252v-671q0 -25 -25 -25h-70z
M221 297q0 -102 52 -149.5t157 -47.5h66q121 0 212 79.5t91 178.5v142h-371q-104 0 -155.5 -37.5t-51.5 -130.5v-35zM231 1161l215 246q24 27 52 27h67q37 0 58 -27l215 -246q10 -12 6 -22.5t-19 -10.5h-69q-28 0 -49 27l-162 184h-21l-162 -184q-21 -27 -49 -27h-69
q-15 0 -19 10.5t6 22.5zM698 1489l146 235q21 37 45 37h88q18 0 24.5 -10t-4.5 -27l-172 -235q-26 -37 -51 -37h-55q-16 0 -23 10t2 27z" />
    <glyph glyph-name="uni1EA6" unicode="&#x1ea6;" horiz-adv-x="1204" 
d="M672 1434q27 0 37 -33l411 -1368q9 -33 -22 -33h-70q-26 0 -35 33l-82 270h-618l-82 -270q-9 -33 -35 -33h-70q-31 0 -22 33l412 1368q10 33 36 33h140zM287 1571l215 246q23 26 51 26h68q37 0 57 -26l215 -246q11 -12 7 -22.5t-19 -10.5h-70q-28 0 -49 27l-162 184h-20
l-162 -184q-21 -27 -49 -27h-70q-15 0 -19 10.5t7 22.5zM326 412h553l-267 884h-20zM594 2134q-11 17 -5.5 27t23.5 10h88q16 0 26.5 -8.5t21.5 -28.5l145 -236q9 -17 2 -26.5t-23 -9.5h-55q-26 0 -51 36z" />
    <glyph glyph-name="uni1EA7" unicode="&#x1ea7;" horiz-adv-x="1050" 
d="M823 0q-24 0 -24 25v135h-19q-131 -170 -348 -170h-10q-320 0 -320 301v49q0 258 314 258h383v90q0 59 -12 100t-42.5 72.5t-86 46.5t-138.5 15q-177 0 -284 -37q-21 -7 -25 14l-12 62q-3 18 12 24q118 47 311 47h39q185 0 271 -84t86 -252v-671q0 -25 -25 -25h-70z
M221 297q0 -102 52 -149.5t157 -47.5h66q121 0 212 79.5t91 178.5v142h-371q-104 0 -155.5 -37.5t-51.5 -130.5v-35zM231 1161l215 246q24 27 52 27h67q37 0 58 -27l215 -246q10 -12 6 -22.5t-19 -10.5h-69q-28 0 -49 27l-162 184h-21l-162 -184q-21 -27 -49 -27h-69
q-15 0 -19 10.5t6 22.5zM539 1724q-11 17 -5.5 27t23.5 10h88q16 0 26 -8.5t21 -28.5l146 -235q9 -17 2 -27t-23 -10h-55q-25 0 -51 37z" />
    <glyph glyph-name="uni1EA8" unicode="&#x1ea8;" horiz-adv-x="1204" 
d="M672 1434q27 0 37 -33l411 -1368q9 -33 -22 -33h-70q-26 0 -35 33l-82 270h-618l-82 -270q-9 -33 -35 -33h-70q-31 0 -22 33l412 1368q10 33 36 33h140zM287 1571l215 246q23 26 51 26h68q37 0 57 -26l215 -246q11 -12 7 -22.5t-19 -10.5h-70q-28 0 -49 27l-162 184h-20
l-162 -184q-21 -27 -49 -27h-70q-15 0 -19 10.5t7 22.5zM326 412h553l-267 884h-20zM537 2075v24q0 82 44 126t130 44h82q86 0 130 -44t44 -126v-55q0 -82 -44 -126t-130 -44h-37q-12 0 -19.5 7.5t-7.5 19.5v30q0 12 7.5 19.5t19.5 7.5h24q94 0 94 92v43q0 88 -94 88h-59
q-90 0 -90 -88v-18q0 -12 -7.5 -19.5t-19.5 -7.5h-41q-26 0 -26 27z" />
    <glyph glyph-name="uni1EA9" unicode="&#x1ea9;" horiz-adv-x="1050" 
d="M823 0q-24 0 -24 25v135h-19q-131 -170 -348 -170h-10q-320 0 -320 301v49q0 258 314 258h383v90q0 59 -12 100t-42.5 72.5t-86 46.5t-138.5 15q-177 0 -284 -37q-21 -7 -25 14l-12 62q-3 18 12 24q118 47 311 47h39q185 0 271 -84t86 -252v-671q0 -25 -25 -25h-70z
M221 297q0 -102 52 -149.5t157 -47.5h66q121 0 212 79.5t91 178.5v142h-371q-104 0 -155.5 -37.5t-51.5 -130.5v-35zM231 1161l215 246q24 27 52 27h67q37 0 58 -27l215 -246q10 -12 6 -22.5t-19 -10.5h-69q-28 0 -49 27l-162 184h-21l-162 -184q-21 -27 -49 -27h-69
q-15 0 -19 10.5t6 22.5zM481 1665v25q0 82 44 126t130 44h82q86 0 130 -44t44 -126v-56q0 -82 -44 -126t-130 -44h-37q-26 0 -26 27v31q0 26 26 26h25q94 0 94 92v43q0 89 -94 89h-59q-91 0 -91 -89v-18q0 -27 -26 -27h-41q-12 0 -19.5 7.5t-7.5 19.5z" />
    <glyph glyph-name="uni1EAA" unicode="&#x1eaa;" horiz-adv-x="1204" 
d="M672 1434q27 0 37 -33l411 -1368q9 -33 -22 -33h-70q-26 0 -35 33l-82 270h-618l-82 -270q-9 -33 -35 -33h-70q-31 0 -22 33l412 1368q10 33 36 33h140zM258 2044q-9 18 14 33q83 53 168 53q56 0 107.5 -24.5t101 -49t99.5 -24.5q59 0 118 39q21 13 31 -9l25 -51
q9 -18 -15 -33q-83 -53 -168 -53q-44 0 -87 15.5t-71.5 33.5t-68.5 33.5t-80 15.5q-57 0 -119 -38q-21 -13 -30 8zM287 1571l215 246q23 26 51 26h68q37 0 57 -26l215 -246q11 -12 7 -22.5t-19 -10.5h-70q-28 0 -49 27l-162 184h-20l-162 -184q-21 -27 -49 -27h-70
q-15 0 -19 10.5t7 22.5zM326 412h553l-267 884h-20z" />
    <glyph glyph-name="uni1EAB" unicode="&#x1eab;" horiz-adv-x="1050" 
d="M823 0q-24 0 -24 25v135h-19q-131 -170 -348 -170h-10q-320 0 -320 301v49q0 258 314 258h383v90q0 59 -12 100t-42.5 72.5t-86 46.5t-138.5 15q-177 0 -284 -37q-21 -7 -25 14l-12 62q-3 18 12 24q118 47 311 47h39q185 0 271 -84t86 -252v-671q0 -25 -25 -25h-70z
M203 1634q-9 18 14 33q83 53 168 53q44 0 87 -15.5t71.5 -33.5t68.5 -33.5t80 -15.5q60 0 119 39q22 14 31 -8l24 -51q9 -18 -14 -33q-83 -53 -168 -53q-44 0 -87 15.5t-71 33.5t-68.5 33.5t-80.5 15.5q-56 0 -119 -39q-22 -14 -31 8zM221 297q0 -102 52 -149.5t157 -47.5
h66q121 0 212 79.5t91 178.5v142h-371q-104 0 -155.5 -37.5t-51.5 -130.5v-35zM231 1161l215 246q24 27 52 27h67q37 0 58 -27l215 -246q10 -12 6 -22.5t-19 -10.5h-69q-28 0 -49 27l-162 184h-21l-162 -184q-21 -27 -49 -27h-69q-15 0 -19 10.5t6 22.5z" />
    <glyph glyph-name="uni1EAC" unicode="&#x1eac;" horiz-adv-x="1204" 
d="M672 1434q27 0 37 -33l411 -1368q9 -33 -22 -33h-70q-26 0 -35 33l-82 270h-618l-82 -270q-9 -33 -35 -33h-70q-31 0 -22 33l412 1368q10 33 36 33h140zM287 1571l215 246q23 26 51 26h68q37 0 57 -26l215 -246q11 -12 7 -22.5t-19 -10.5h-70q-28 0 -49 27l-162 184h-20
l-162 -184q-21 -27 -49 -27h-70q-15 0 -19 10.5t7 22.5zM326 412h553l-267 884h-20zM520 -336v111q0 15 6 20.5t21 5.5h110q15 0 21 -5.5t6 -20.5v-111q0 -15 -6 -20.5t-21 -5.5h-110q-15 0 -21 5.5t-6 20.5z" />
    <glyph glyph-name="uni1EAD" unicode="&#x1ead;" horiz-adv-x="1050" 
d="M823 0q-24 0 -24 25v135h-19q-131 -170 -348 -170h-10q-320 0 -320 301v49q0 258 314 258h383v90q0 59 -12 100t-42.5 72.5t-86 46.5t-138.5 15q-177 0 -284 -37q-21 -7 -25 14l-12 62q-3 18 12 24q118 47 311 47h39q185 0 271 -84t86 -252v-671q0 -25 -25 -25h-70z
M221 297q0 -102 52 -149.5t157 -47.5h66q121 0 212 79.5t91 178.5v142h-371q-104 0 -155.5 -37.5t-51.5 -130.5v-35zM231 1161l215 246q24 27 52 27h67q37 0 58 -27l215 -246q10 -12 6 -22.5t-19 -10.5h-69q-28 0 -49 27l-162 184h-21l-162 -184q-21 -27 -49 -27h-69
q-15 0 -19 10.5t6 22.5zM434 -336v111q0 15 6 20.5t21 5.5h110q15 0 21 -5.5t6 -20.5v-111q0 -15 -6 -20.5t-21 -5.5h-110q-15 0 -21 5.5t-6 20.5z" />
    <glyph glyph-name="uni1EAE" unicode="&#x1eae;" horiz-adv-x="1204" 
d="M672 1434q27 0 37 -33l411 -1368q9 -33 -22 -33h-70q-26 0 -35 33l-82 270h-618l-82 -270q-9 -33 -35 -33h-70q-31 0 -22 33l412 1368q10 33 36 33h140zM322 1815q0 28 26 28h51q27 0 27 -28q2 -71 37.5 -112.5t103.5 -41.5h68q68 0 103.5 41.5t37.5 112.5q0 28 27 28h51
q27 0 27 -28q0 -125 -59.5 -185.5t-180.5 -60.5h-80q-239 0 -239 246zM326 412h553l-267 884h-20zM520 1898l146 236q21 37 45 37h88q18 0 24.5 -10t-4.5 -27l-172 -236q-25 -36 -51 -36h-55q-16 0 -23 9.5t2 26.5z" />
    <glyph glyph-name="uni1EAF" unicode="&#x1eaf;" horiz-adv-x="1050" 
d="M823 0q-24 0 -24 25v135h-19q-131 -170 -348 -170h-10q-320 0 -320 301v49q0 258 314 258h383v90q0 59 -12 100t-42.5 72.5t-86 46.5t-138.5 15q-177 0 -284 -37q-21 -7 -25 14l-12 62q-3 18 12 24q118 47 311 47h39q185 0 271 -84t86 -252v-671q0 -25 -25 -25h-70z
M221 297q0 -102 52 -149.5t157 -47.5h66q121 0 212 79.5t91 178.5v142h-371q-104 0 -155.5 -37.5t-51.5 -130.5v-35zM266 1405q0 29 27 29h51q27 0 27 -29q2 -71 37.5 -112.5t103.5 -41.5h68q68 0 103.5 41.5t37.5 112.5q0 29 27 29h51q26 0 26 -29q0 -125 -59 -185.5
t-180 -60.5h-80q-240 0 -240 246zM465 1489l145 235q21 37 45 37h88q18 0 25 -10t-4 -27l-172 -235q-26 -37 -51 -37h-56q-16 0 -22.5 10t2.5 27z" />
    <glyph glyph-name="uni1EB0" unicode="&#x1eb0;" horiz-adv-x="1204" 
d="M672 1434q27 0 37 -33l411 -1368q9 -33 -22 -33h-70q-26 0 -35 33l-82 270h-618l-82 -270q-9 -33 -35 -33h-70q-31 0 -22 33l412 1368q10 33 36 33h140zM322 1815q0 28 26 28h51q27 0 27 -28q2 -71 37.5 -112.5t103.5 -41.5h68q68 0 103.5 41.5t37.5 112.5q0 28 27 28h51
q27 0 27 -28q0 -125 -59.5 -185.5t-180.5 -60.5h-80q-239 0 -239 246zM326 412h553l-267 884h-20zM377 2134q-11 17 -5.5 27t23.5 10h88q16 0 26 -8.5t21 -28.5l146 -236q9 -17 2 -26.5t-23 -9.5h-55q-26 0 -51 36z" />
    <glyph glyph-name="uni1EB1" unicode="&#x1eb1;" horiz-adv-x="1050" 
d="M823 0q-24 0 -24 25v135h-19q-131 -170 -348 -170h-10q-320 0 -320 301v49q0 258 314 258h383v90q0 59 -12 100t-42.5 72.5t-86 46.5t-138.5 15q-177 0 -284 -37q-21 -7 -25 14l-12 62q-3 18 12 24q118 47 311 47h39q185 0 271 -84t86 -252v-671q0 -25 -25 -25h-70z
M221 297q0 -102 52 -149.5t157 -47.5h66q121 0 212 79.5t91 178.5v142h-371q-104 0 -155.5 -37.5t-51.5 -130.5v-35zM266 1405q0 29 27 29h51q27 0 27 -29q2 -71 37.5 -112.5t103.5 -41.5h68q68 0 103.5 41.5t37.5 112.5q0 29 27 29h51q26 0 26 -29q0 -125 -59 -185.5
t-180 -60.5h-80q-240 0 -240 246zM322 1724q-11 17 -5.5 27t23.5 10h88q16 0 26 -8.5t21 -28.5l146 -235q9 -17 2 -27t-23 -10h-55q-25 0 -51 37z" />
    <glyph glyph-name="uni1EB2" unicode="&#x1eb2;" horiz-adv-x="1204" 
d="M672 1434q27 0 37 -33l411 -1368q9 -33 -22 -33h-70q-26 0 -35 33l-82 270h-618l-82 -270q-9 -33 -35 -33h-70q-31 0 -22 33l412 1368q10 33 36 33h140zM322 1815q0 28 26 28h51q27 0 27 -28q2 -71 37.5 -112.5t103.5 -41.5h68q68 0 103.5 41.5t37.5 112.5q0 28 27 28h51
q27 0 27 -28q0 -125 -59.5 -185.5t-180.5 -60.5h-80q-239 0 -239 246zM326 412h553l-267 884h-20zM369 2075v24q0 82 44 126t130 44h82q86 0 130 -44t44 -126v-55q0 -82 -44 -126t-130 -44h-37q-12 0 -19.5 7.5t-7.5 19.5v30q0 12 7.5 19.5t19.5 7.5h24q95 0 95 92v43
q0 88 -95 88h-59q-90 0 -90 -88v-18q0 -12 -7.5 -19.5t-19.5 -7.5h-41q-26 0 -26 27z" />
    <glyph glyph-name="uni1EB3" unicode="&#x1eb3;" horiz-adv-x="1050" 
d="M823 0q-24 0 -24 25v135h-19q-131 -170 -348 -170h-10q-320 0 -320 301v49q0 258 314 258h383v90q0 59 -12 100t-42.5 72.5t-86 46.5t-138.5 15q-177 0 -284 -37q-21 -7 -25 14l-12 62q-3 18 12 24q118 47 311 47h39q185 0 271 -84t86 -252v-671q0 -25 -25 -25h-70z
M221 297q0 -102 52 -149.5t157 -47.5h66q121 0 212 79.5t91 178.5v142h-371q-104 0 -155.5 -37.5t-51.5 -130.5v-35zM266 1405q0 29 27 29h51q27 0 27 -29q2 -71 37.5 -112.5t103.5 -41.5h68q68 0 103.5 41.5t37.5 112.5q0 29 27 29h51q26 0 26 -29q0 -125 -59 -185.5
t-180 -60.5h-80q-240 0 -240 246zM313 1665v25q0 82 44 126t130 44h82q86 0 130 -44t44 -126v-56q0 -82 -44 -126t-130 -44h-37q-26 0 -26 27v31q0 26 26 26h25q94 0 94 92v43q0 89 -94 89h-59q-90 0 -90 -89v-18q0 -12 -7.5 -19.5t-19.5 -7.5h-41q-12 0 -19.5 7.5
t-7.5 19.5z" />
    <glyph glyph-name="uni1EB4" unicode="&#x1eb4;" horiz-adv-x="1204" 
d="M672 1434q27 0 37 -33l411 -1368q9 -33 -22 -33h-70q-26 0 -35 33l-82 270h-618l-82 -270q-9 -33 -35 -33h-70q-31 0 -22 33l412 1368q10 33 36 33h140zM270 2044q-9 18 15 33q83 53 168 53q44 0 87 -15.5t71.5 -33.5t68.5 -33.5t80 -15.5q60 0 119 39q21 13 30 -9
l25 -51q9 -18 -14 -33q-83 -53 -168 -53q-56 0 -107.5 24.5t-101 49t-99.5 24.5q-56 0 -118 -38q-22 -14 -31 8zM322 1815q0 28 26 28h51q27 0 27 -28q2 -71 37.5 -112.5t103.5 -41.5h68q68 0 103.5 41.5t37.5 112.5q0 28 27 28h51q27 0 27 -28q0 -125 -59.5 -185.5
t-180.5 -60.5h-80q-239 0 -239 246zM326 412h553l-267 884h-20z" />
    <glyph glyph-name="uni1EB5" unicode="&#x1eb5;" horiz-adv-x="1050" 
d="M823 0q-24 0 -24 25v135h-19q-131 -170 -348 -170h-10q-320 0 -320 301v49q0 258 314 258h383v90q0 59 -12 100t-42.5 72.5t-86 46.5t-138.5 15q-177 0 -284 -37q-21 -7 -25 14l-12 62q-3 18 12 24q118 47 311 47h39q185 0 271 -84t86 -252v-671q0 -25 -25 -25h-70z
M215 1634q-9 18 14 33q83 53 168 53q56 0 107.5 -24.5t101 -49t99.5 -24.5q59 0 118 39q22 14 31 -8l25 -51q9 -18 -15 -33q-83 -53 -168 -53q-44 0 -87 15.5t-71 33.5t-68.5 33.5t-80.5 15.5q-56 0 -119 -39q-21 -13 -30 8zM221 297q0 -102 52 -149.5t157 -47.5h66
q121 0 212 79.5t91 178.5v142h-371q-104 0 -155.5 -37.5t-51.5 -130.5v-35zM266 1405q0 29 27 29h51q27 0 27 -29q2 -71 37.5 -112.5t103.5 -41.5h68q68 0 103.5 41.5t37.5 112.5q0 29 27 29h51q26 0 26 -29q0 -125 -59 -185.5t-180 -60.5h-80q-240 0 -240 246z" />
    <glyph glyph-name="uni1EB6" unicode="&#x1eb6;" horiz-adv-x="1204" 
d="M672 1434q27 0 37 -33l411 -1368q9 -33 -22 -33h-70q-26 0 -35 33l-82 270h-618l-82 -270q-9 -33 -35 -33h-70q-31 0 -22 33l412 1368q10 33 36 33h140zM322 1815q0 28 26 28h51q27 0 27 -28q2 -71 37.5 -112.5t103.5 -41.5h68q68 0 103.5 41.5t37.5 112.5q0 28 27 28h51
q27 0 27 -28q0 -125 -59.5 -185.5t-180.5 -60.5h-80q-239 0 -239 246zM326 412h553l-267 884h-20zM520 -336v111q0 15 6 20.5t21 5.5h110q15 0 21 -5.5t6 -20.5v-111q0 -15 -6 -20.5t-21 -5.5h-110q-15 0 -21 5.5t-6 20.5z" />
    </font>
</defs>
</svg>
