<?xml version="1.0" standalone="no"?>
<!DOCTYPE svg PUBLIC "-//W3C//DTD SVG 1.1//EN" "http://www.w3.org/Graphics/SVG/1.1/DTD/svg11.dtd" >
<svg xmlns="http://www.w3.org/2000/svg" xmlns:xlink="http://www.w3.org/1999/xlink" version="1.1">
<metadata>
Created by FontForge 20201107 at Thu Jul 31 20:26:52 2025
 By 
Copyright (c) 2022 by Connary Fagen. All rights reserved.
</metadata>
<defs>
<font id="ManifoldCF-Thin" horiz-adv-x="1261" >
  <font-face 
    font-family="Manifold CF Thin"
    font-weight="100"
    font-stretch="normal"
    units-per-em="2048"
    panose-1="0 0 0 0 0 0 0 0 0 0"
    ascent="1638"
    descent="-410"
    x-height="1024"
    cap-height="1434"
    bbox="-358.571 -467 1948 2267"
    underline-thickness="102"
    underline-position="-255"
    unicode-range="U+0020-FB02"
  />
<missing-glyph horiz-adv-x="1024" 
d="M840 1638v-2048h-650v2048h650zM342 -268h340v67h-209l143 97h66v67h-340v-67h143l-143 -97v-67zM342 10h340v232h-340v-232zM342 365h340v231h-205v-115h70v47h67v-96h-204v164h-68v-231zM342 641h340v205h-68v-135h-272v-70zM342 758h205v143h135v68h-340v-68h135v-76
h-135v-67zM342 1024h340v70h-135v143h-205v-213zM342 1290h340v68h-135v76h135v67h-338v-67h133v-76h-135v-68zM410 78v96h204v-96h-204zM410 1094v73h67v-73h-67z" />
    <glyph glyph-name="fi" unicode="fi" horiz-adv-x="876" 
d="M238 0q-21 0 -21 23v940h-108q-23 0 -23 22v16q0 23 23 23h108v102q0 308 275 308h86q30 0 30 -31v-2q0 -31 -30 -31h-91q-113 0 -159.5 -61t-46.5 -185v-100h436q22 0 22 -23v-978q0 -23 -22 -23h-21q-22 0 -22 23v940h-393v-940q0 -23 -21 -23h-22z" />
    <glyph glyph-name="fl" unicode="fl" horiz-adv-x="962" 
d="M238 0q-21 0 -21 23v940h-108q-23 0 -23 22v16q0 23 23 23h108v102q0 308 275 308h311q20 0 20 -23v-1388q0 -23 -20 -23h-23q-20 0 -20 23v1347h-273q-113 0 -159.5 -61t-46.5 -185v-100h297q22 0 22 -23v-16q0 -22 -22 -22h-297v-940q0 -23 -21 -23h-22z" />
    <glyph glyph-name=".notdef" horiz-adv-x="1024" 
d="M840 1638v-2048h-650v2048h650zM342 -268h340v67h-209l143 97h66v67h-340v-67h143l-143 -97v-67zM342 10h340v232h-340v-232zM342 365h340v231h-205v-115h70v47h67v-96h-204v164h-68v-231zM342 641h340v205h-68v-135h-272v-70zM342 758h205v143h135v68h-340v-68h135v-76
h-135v-67zM342 1024h340v70h-135v143h-205v-213zM342 1290h340v68h-135v76h135v67h-338v-67h133v-76h-135v-68zM410 78v96h204v-96h-204zM410 1094v73h67v-73h-67z" />
    <glyph glyph-name=".null" horiz-adv-x="0" 
 />
    <glyph glyph-name="nonmarkingreturn" horiz-adv-x="682" 
 />
    <glyph glyph-name="space" unicode=" " horiz-adv-x="409" 
 />
    <glyph glyph-name="space" unicode="&#xa0;" horiz-adv-x="409" 
 />
    <glyph glyph-name="exclam" unicode="!" horiz-adv-x="376" 
d="M176 293q-15 0 -19.5 4.5t-4.5 19.5v1092q0 15 4.5 20t19.5 5h25q15 0 20.5 -5t5.5 -20v-1092q0 -15 -5.5 -19.5t-20.5 -4.5h-25zM147 25v32q0 15 5 20t20 5h33q15 0 19.5 -5t4.5 -20v-32q0 -15 -4.5 -20t-19.5 -5h-33q-15 0 -20 5t-5 20z" />
    <glyph glyph-name="quotedbl" unicode="&#x22;" horiz-adv-x="595" 
d="M422 856q-15 0 -20 5t-5 20v528q0 15 5 20t20 5h14q15 0 21 -5t6 -20v-528q0 -15 -6 -20t-21 -5h-14zM133 881v528q0 15 5 20t20 5h14q15 0 20 -5t5 -20v-528q0 -15 -5 -20t-20 -5h-14q-15 0 -20 5t-5 20z" />
    <glyph glyph-name="numbersign" unicode="#" horiz-adv-x="1089" 
d="M762 0q-23 0 -23 23v335h-393v-335q0 -23 -20 -23h-21q-22 0 -22 23v335h-168q-21 0 -21 21v18q0 23 21 23h168v594h-168q-21 0 -21 22v19q0 22 21 22h168v334q0 23 22 23h21q20 0 20 -23v-334h393v334q0 23 23 23h20q23 0 23 -23v-334h170q22 0 22 -22v-19
q0 -22 -22 -22h-170v-594h170q22 0 22 -23v-18q0 -21 -22 -21h-170v-335q0 -23 -23 -23h-20zM346 420h393v594h-393v-594z" />
    <glyph glyph-name="dollar" unicode="$" horiz-adv-x="962" 
d="M473 123q-24 0 -24 24v142q-72 0 -131 13t-109.5 43t-78.5 85t-28 133q0 14 5 19.5t20 5.5h20q27 0 27 -25q-3 -111 69 -158t206 -47v390q-85 8 -141 22t-104.5 42.5t-71.5 79.5t-23 126q0 133 86 193.5t254 60.5v137q0 25 24 25h14q25 0 25 -25v-137q69 -1 126 -16.5
t104.5 -48.5t74.5 -92.5t27 -141.5q0 -13 -5.5 -18t-19.5 -5h-18q-27 0 -27 23q1 65 -17.5 111t-55.5 70.5t-82.5 35.5t-106.5 12v-395q67 -8 112.5 -17t94 -27.5t77 -45.5t46.5 -71t18 -103q0 -75 -26.5 -126.5t-76.5 -78.5t-108.5 -38t-136.5 -11v-142q0 -24 -25 -24h-14z
M180 1024q0 -48 11.5 -82t31 -56t55 -36.5t74 -21.5t97.5 -13v387q-67 0 -113.5 -7.5t-83.5 -26.5t-54.5 -54.5t-17.5 -89.5zM512 358q39 0 62.5 0.5t56 4.5t52.5 11t42 20.5t34.5 32.5t20.5 48t8 66q0 44 -12.5 76.5t-33.5 53t-57.5 34.5t-75.5 21t-97 13v-381z" />
    <glyph glyph-name="percent" unicode="%" horiz-adv-x="1320" 
d="M252 922q-86 0 -128 46t-42 124v172q0 78 42 124t128 46h88q86 0 128 -46t42 -124v-172q0 -78 -42 -124t-128 -46h-88zM147 1079q0 -94 107 -94h84q108 0 108 94v197q0 94 -108 94h-84q-107 0 -107 -94v-197zM186 31l873 1374q10 17 16.5 23t20.5 6h18q16 0 22.5 -8
t-1.5 -23l-873 -1374q-10 -17 -16.5 -23t-20.5 -6h-18q-16 0 -22.5 8t1.5 23zM811 170v172q0 78 42 124t128 46h88q86 0 128 -46t42 -124v-172q0 -78 -42 -124t-128 -46h-88q-86 0 -128 46t-42 124zM874 158q0 -95 109 -95h84q107 0 107 95v196q0 95 -107 95h-84
q-109 0 -109 -95v-196z" />
    <glyph glyph-name="ampersand" unicode="&#x26;" horiz-adv-x="1402" 
d="M553 -10q-209 0 -307.5 79.5t-98.5 266.5v147q0 45 3 75.5t14 66t31 59.5t56 46.5t87 37.5l68 18l-25 23q-78 69 -106.5 124.5t-28.5 133.5v125q0 134 81 193t236 59h113q161 0 247.5 -63.5t86.5 -217.5v-123q0 -12 -5 -17t-18 -5h-20q-21 0 -21 22v115q0 127 -60.5 176
t-207.5 49h-115q-142 0 -197 -44.5t-55 -157.5v-109q0 -73 28 -121t93 -102l670 -557v469q0 22 20 22h156q22 0 22 -22v-21q0 -20 -22 -20h-115v-381q0 -191 -95 -268.5t-306 -77.5h-209zM213 326q0 -152 77.5 -212.5t250.5 -60.5h233q142 0 219.5 37t100.5 123l-635 532
l-99 -32q-80 -26 -113.5 -71.5t-33.5 -141.5v-174z" />
    <glyph glyph-name="quotesingle" unicode="'" horiz-adv-x="329" 
d="M158 856q-15 0 -20 5t-5 20v528q0 15 5 20t20 5h14q15 0 20 -5t5 -20v-528q0 -15 -5 -20t-20 -5h-14z" />
    <glyph glyph-name="parenleft" unicode="(" horiz-adv-x="573" 
d="M412 -143q-82 0 -135.5 16t-91.5 56.5t-55 109.5t-17 174v1061q0 105 17 174t55 109.5t91.5 56.5t135.5 16h22q27 0 27 -31v-6q0 -30 -27 -30h-51q-104 0 -153.5 -61t-49.5 -185v-1147q0 -124 49.5 -185t153.5 -61h51q27 0 27 -30v-7q0 -30 -27 -30h-22z" />
    <glyph glyph-name="parenright" unicode=")" horiz-adv-x="573" 
d="M139 -143q-26 0 -26 30v7q0 30 26 30h51q104 0 153.5 61t49.5 185v1147q0 124 -49.5 185t-153.5 61h-51q-26 0 -26 30v6q0 31 26 31h23q82 0 135.5 -16t91.5 -56.5t55 -109.5t17 -174v-1061q0 -105 -17 -174t-55 -109.5t-91.5 -56.5t-135.5 -16h-23z" />
    <glyph glyph-name="asterisk" unicode="*" horiz-adv-x="712" 
d="M322 940q-19 0 -19 16l8 179l-141 -103q-8 -6 -16 -4t-13 10l-32 56q-7 9 -6 13.5t12 12.5l161 90l-161 88q-21 9 -6 27l32 55q5 8 13 10t16 -4l141 -102l-8 178q0 17 19 17h65q20 0 23 -17l-11 -178l142 102q16 13 28 -6l35 -55q12 -18 -8 -27l-158 -88l158 -90
q11 -8 12.5 -11.5t-4.5 -14.5l-35 -56q-12 -19 -28 -6l-142 103l11 -179q-3 -16 -23 -16h-65z" />
    <glyph glyph-name="plus" unicode="+" horiz-adv-x="1015" 
d="M498 236q-15 0 -20 6t-5 22v361h-342q-16 0 -22.5 5t-6.5 19v23q0 14 6.5 19t22.5 5h342v361q0 15 5 21.5t20 6.5h18q15 0 20 -6.5t5 -21.5v-361h346q15 0 20.5 -4.5t5.5 -19.5v-23q0 -15 -5.5 -19.5t-22.5 -4.5h-344v-361q0 -16 -5 -22t-20 -6h-18z" />
    <glyph glyph-name="comma" unicode="," horiz-adv-x="258" 
d="M76 -264q-15 0 -20 4.5t-5 19.5v9q0 15 5 19.5t20 4.5h47v264q0 15 4.5 20t19.5 5h15q15 0 19.5 -5t4.5 -20v-282q0 -22 -8.5 -30.5t-30.5 -8.5h-71z" />
    <glyph glyph-name="hyphen" unicode="-" horiz-adv-x="700" 
d="M123 489q-21 0 -21 21v20q0 21 21 21h455q20 0 20 -21v-20q0 -21 -20 -21h-455z" />
    <glyph glyph-name="period" unicode="." horiz-adv-x="225" 
d="M96 0q-15 0 -19.5 5t-4.5 20v32q0 15 4.5 20t19.5 5h33q15 0 20 -5t5 -20v-32q0 -15 -5 -20t-20 -5h-33z" />
    <glyph glyph-name="slash" unicode="/" horiz-adv-x="837" 
d="M74 -72q-31 0 -19 29l656 1516q7 17 13.5 23.5t20.5 6.5h19q30 0 18 -30l-655 -1514q-12 -31 -35 -31h-18z" />
    <glyph glyph-name="zero" unicode="0" horiz-adv-x="1216" 
d="M582 -10q-218 0 -326.5 99.5t-108.5 307.5v639q0 208 108.5 308t326.5 100h53q434 0 434 -408v-639q0 -207 -109 -307t-325 -100h-53zM213 395q0 -175 86.5 -258.5t273.5 -83.5h70q186 0 273.5 84t87.5 258v643q0 174 -87.5 258t-273.5 84h-70q-187 0 -273.5 -83.5
t-86.5 -258.5v-643z" />
    <glyph glyph-name="one" unicode="1" horiz-adv-x="458" 
d="M266 0q-20 0 -20 23v1349h-154q-20 0 -20 21v20q0 21 20 21h211v-4q6 -6 6 -19v-1388q0 -23 -20 -23h-23z" />
    <glyph glyph-name="two" unicode="2" horiz-adv-x="1101" 
d="M133 0q-31 0 -31 31v114q0 93 12.5 154t48.5 110.5t85 85.5t137 83l252 139q50 26 79 42t65.5 38.5t56 40.5t41 43t31.5 51t17 59.5t7 73.5q0 165 -76 239t-250 74h-84q-176 0 -259 -75.5t-83 -247.5q0 -13 -4.5 -18t-17.5 -5h-21q-20 0 -20 23v26q0 185 109.5 274
t291.5 89h88q196 0 293.5 -90t97.5 -289q0 -61 -15.5 -111t-40.5 -88t-72 -76t-94.5 -67t-123.5 -70l-264 -141q-128 -67 -174.5 -142.5t-46.5 -201.5v-107h801q11 0 15.5 -4t4.5 -16v-21q0 -12 -4.5 -16t-15.5 -4h-836z" />
    <glyph glyph-name="three" unicode="3" horiz-adv-x="1140" 
d="M518 -10q-87 0 -158 20.5t-126.5 62.5t-86 113t-30.5 166v29q0 11 4.5 15.5t17.5 4.5h21q13 0 17.5 -4.5t4.5 -15.5q0 -174 82.5 -249t259.5 -75h97q174 0 257 80t83 244q0 99 -28.5 167t-85.5 105.5t-130.5 53.5t-175.5 16h-111q-20 0 -20 20v21q0 20 20 20h111
q199 0 289 62.5t90 218.5q0 165 -77 239t-253 74h-49q-176 0 -259 -75.5t-83 -247.5q0 -23 -23 -23h-20q-23 0 -23 23v26q0 95 31 166t86.5 113.5t126.5 63t158 20.5h57q196 0 294.5 -90t98.5 -289q0 -133 -52.5 -200t-174.5 -105v-12q64 -17 109 -40.5t82.5 -64.5
t56 -106.5t18.5 -155.5q0 -199 -104 -295t-297 -96h-105z" />
    <glyph glyph-name="four" unicode="4" horiz-adv-x="1075" 
d="M98 352q-14 0 -26 21h-4q-12 20 0 41l514 1003q10 17 24 17h29q11 0 15 -8t-1 -15l-516 -997h602v354q0 23 23 23h20q21 0 21 -23v-354h164q20 0 20 -21v-20q0 -21 -20 -21h-164v-329q0 -23 -21 -23h-20q-23 0 -23 23v329h-637z" />
    <glyph glyph-name="five" unicode="5" horiz-adv-x="1136" 
d="M504 -10q-182 0 -292 88.5t-110 273.5v29q0 20 23 20h20q21 0 21 -20q0 -173 83 -248.5t259 -75.5h106q176 0 258 84.5t82 259.5v93q0 175 -80 256t-264 81h-102q-218 0 -309 -147h-47q-30 0 -27 37l57 682q3 31 31 31h709q20 0 20 -21v-20q0 -21 -20 -21h-678l-51 -606
h10q38 53 119 91t188 38h135q191 0 283 -105.5t92 -279.5v-109q0 -207 -105.5 -309t-298.5 -102h-112z" />
    <glyph glyph-name="six" unicode="6" horiz-adv-x="1193" 
d="M567 -10q-217 0 -318.5 99t-101.5 308v672q0 202 100.5 288.5t299.5 86.5h104q185 0 286 -67t101 -220v-37q0 -22 -22 -22h-21q-20 0 -20 22q0 140 -75.5 200t-252.5 60h-98q-179 0 -257.5 -74t-78.5 -243v-297h10q35 61 116 102t193 41h170q191 0 283 -105.5t92 -279.5
v-123q0 -212 -101.5 -311.5t-318.5 -99.5h-90zM213 401q0 -178 79.5 -263t264.5 -85h111q184 0 265 85.5t81 262.5v105q0 176 -80.5 258t-265.5 82h-111q-186 0 -265 -81.5t-79 -258.5v-105z" />
    <glyph glyph-name="seven" unicode="7" horiz-adv-x="1058" 
d="M215 0q-16 0 -20 8t0 21q83 369 261.5 693t450.5 636v14h-794q-21 0 -21 21v20q0 21 21 21h852q22 0 22 -23v-39q0 -6 -5.5 -13t-17 -19t-18.5 -21q-165 -190 -290.5 -377t-230.5 -422t-161 -487q-7 -33 -33 -33h-16z" />
    <glyph glyph-name="eight" unicode="8" horiz-adv-x="1224" 
d="M567 -10q-216 0 -318 98t-102 301v43q0 291 226 363q-172 72 -172 305q0 166 88 255t254 89h141q164 0 253 -89t89 -255q0 -235 -174 -307q115 -35 170 -125t55 -240v-35q0 -206 -102 -304.5t-318 -98.5h-90zM213 393q0 -172 80 -256t264 -84h111q183 0 264.5 84
t81.5 256v35q0 168 -81.5 251t-264.5 83h-111q-184 0 -264 -83t-80 -251v-35zM264 1100q0 -147 71.5 -214t211.5 -67h137q139 0 208 67t69 214q0 148 -70.5 215t-208.5 67h-139q-138 0 -208.5 -67t-70.5 -215z" />
    <glyph glyph-name="nine" unicode="9" horiz-adv-x="1193" 
d="M627 1444q216 0 318 -99t102 -309v-671q0 -202 -100.5 -288.5t-299.5 -86.5h-104q-185 0 -286 66.5t-101 219.5v37q0 23 22 23h21q20 0 20 -23q0 -140 75.5 -200t252.5 -60h98q178 0 257 74.5t79 243.5v297h-10q-35 -62 -116 -103t-193 -41h-170q-191 0 -283 105.5
t-92 279.5v123q0 212 101.5 312t318.5 100h90zM180 928q0 -176 80.5 -258t265.5 -82h111q186 0 265 81.5t79 258.5v104q0 178 -79.5 263t-264.5 85h-111q-184 0 -265 -85.5t-81 -262.5v-104z" />
    <glyph glyph-name="colon" unicode=":" horiz-adv-x="225" 
d="M96 0q-15 0 -19.5 5t-4.5 20v32q0 15 4.5 20t19.5 5h33q15 0 20 -5t5 -20v-32q0 -15 -5 -20t-20 -5h-33zM72 967v32q0 15 4.5 20t19.5 5h33q15 0 20 -5t5 -20v-32q0 -15 -5 -20t-20 -5h-33q-15 0 -19.5 5t-4.5 20z" />
    <glyph glyph-name="semicolon" unicode=";" horiz-adv-x="286" 
d="M96 -264q-15 0 -19.5 4.5t-4.5 19.5v9q0 15 4.5 19.5t19.5 4.5h47v264q0 15 5 20t20 5h14q15 0 20 -5t5 -20v-282q0 -22 -8.5 -30.5t-30.5 -8.5h-72zM133 967v32q0 15 5 20t20 5h32q15 0 20 -5t5 -20v-32q0 -15 -5 -20t-20 -5h-32q-15 0 -20 5t-5 20z" />
    <glyph glyph-name="less" unicode="&#x3c;" horiz-adv-x="937" 
d="M125 444q-23 13 -23 39t23 39l678 404q13 7 23 1.5t10 -18.5v-22q0 -28 -21 -41l-618 -363l618 -362q21 -13 21 -41v-23q0 -12 -10 -17.5t-23 1.5z" />
    <glyph glyph-name="equal" unicode="=" horiz-adv-x="999" 
d="M131 780q-16 0 -22.5 5.5t-6.5 19.5v22q0 14 6.5 19.5t22.5 5.5h741q15 0 20 -5t5 -20v-22q0 -15 -5 -20t-22 -5h-739zM102 496v22q0 14 6.5 19.5t22.5 5.5h741q15 0 20 -5t5 -20v-22q0 -15 -5 -20t-22 -5h-739q-16 0 -22.5 5.5t-6.5 19.5z" />
    <glyph glyph-name="greater" unicode="&#x3e;" horiz-adv-x="937" 
d="M135 41q-13 -7 -23 -1.5t-10 17.5v23q0 28 21 41l618 362l-618 363q-21 13 -21 41v22q0 13 10 18.5t23 -1.5l678 -404q23 -13 23 -39t-23 -39z" />
    <glyph glyph-name="question" unicode="?" horiz-adv-x="1028" 
d="M440 293q-15 0 -19.5 4.5t-4.5 19.5v127q0 111 49 162.5t188 100.5q103 37 128 51q74 42 98 131q16 60 16 153q0 180 -76 256t-252 76h-92q-178 0 -260 -73.5t-82 -245.5q0 -13 -4.5 -18t-17.5 -5h-17q-13 0 -17.5 5t-4.5 18v26q0 185 109.5 274t291.5 89h90
q197 0 295 -93.5t98 -308.5q0 -82 -10.5 -139.5t-28 -95.5t-53 -66.5t-71 -45t-97.5 -38.5q-135 -49 -174 -89t-39 -126v-125q0 -15 -4.5 -19.5t-19.5 -4.5h-19zM414 25v32q0 15 4.5 20t19.5 5h33q15 0 20 -5t5 -20v-32q0 -15 -5 -20t-20 -5h-33q-15 0 -19.5 5t-4.5 20z" />
    <glyph glyph-name="at" unicode="@" horiz-adv-x="1472" 
d="M606 -129q-228 0 -343.5 102t-115.5 320v610q0 219 116.5 320.5t348.5 101.5h246q232 0 348.5 -98t116.5 -314v-614q0 -59 -55 -92t-127 -33q-134 0 -170 125q-36 -56 -109 -88.5t-143 -32.5h-62q-239 0 -239 225v363q0 112 59 161.5t180 49.5h338q37 0 37 -35v-614
q0 -84 103 -84q62 0 93.5 22.5t31.5 61.5v602q0 76 -20.5 134.5t-66 104t-126 69.5t-193.5 24h-238q-113 0 -193 -25.5t-125 -73t-65 -107t-20 -136.5v-639q0 -79 19 -139.5t63 -108.5t123 -73.5t192 -25.5h115q66 0 130 9t97.5 17.5t94.5 25.5v-58q-126 -57 -322 -57h-119z
M485 424q0 -103 47 -140.5t148 -37.5h37q98 0 173 53.5t75 124.5v487h-283q-105 0 -151 -29t-46 -108v-350z" />
    <glyph glyph-name="A" unicode="A" horiz-adv-x="1175" 
d="M618 1434q25 0 35 -33l432 -1370q8 -31 -20 -31h-18q-15 0 -21.5 6.5t-11.5 24.5l-94 299h-666l-94 -299q-5 -18 -11.5 -24.5t-21.5 -6.5h-18q-29 0 -21 31l432 1370q10 33 37 33h61zM274 391h627l-305 969h-16z" />
    <glyph glyph-name="B" unicode="B" horiz-adv-x="1179" 
d="M172 0q-15 0 -20 5t-5 20v1384q0 15 5 20t20 5h504q176 0 255 -82.5t79 -272.5q0 -124 -34.5 -201.5t-117.5 -111.5v-8q104 -33 154.5 -111t50.5 -221v-47q0 -203 -99.5 -291t-289.5 -88h-502zM215 68h467q167 0 240 67.5t73 237.5v51q0 88 -18 145.5t-58 90.5t-96 46
t-141 13h-467v-651zM215 782h469q140 0 199 67.5t59 217.5v27q0 148 -57 210t-201 62h-469v-584z" />
    <glyph glyph-name="C" unicode="C" horiz-adv-x="1216" 
d="M582 -10q-435 0 -435 407v639q0 408 435 408h82q215 0 320.5 -93t105.5 -290v-8q0 -7 -5.5 -12t-11.5 -5h-37q-6 0 -10 5.5t-4 11.5q0 169 -84.5 246t-267.5 77h-95q-185 0 -272.5 -83t-87.5 -257v-639q0 -173 87.5 -256.5t272.5 -83.5h95q182 0 267 73t85 228
q0 6 4 11.5t10 5.5h37q6 0 11.5 -5t5.5 -12v-10q0 -181 -106 -269.5t-320 -88.5h-82z" />
    <glyph glyph-name="D" unicode="D" horiz-adv-x="1230" 
d="M172 0q-15 0 -20 5t-5 20v1384q0 15 5 20t20 5h477q434 0 434 -408v-618q0 -408 -434 -408h-477zM215 68h440q185 0 273 83.5t88 256.5v618q0 174 -88 257t-273 83h-440v-1298z" />
    <glyph glyph-name="E" unicode="E" horiz-adv-x="1056" 
d="M176 0q-16 0 -22.5 5.5t-6.5 19.5v1384q0 14 6.5 19.5t22.5 5.5h764q16 0 22.5 -5.5t6.5 -19.5v-16q0 -27 -29 -27h-725v-612h664q15 0 21.5 -5t6.5 -20v-14q0 -15 -6.5 -20t-21.5 -5h-664v-622h727q27 0 27 -25v-18q0 -15 -6 -20t-21 -5h-766z" />
    <glyph glyph-name="F" unicode="F" horiz-adv-x="1054" 
d="M172 0q-15 0 -20 5t-5 20v1384q0 15 5 20t20 5h768q16 0 22.5 -5.5t6.5 -19.5v-16q0 -27 -29 -27h-725v-612h666q15 0 20.5 -5t5.5 -20v-14q0 -15 -5.5 -20t-20.5 -5h-666v-665q0 -15 -5 -20t-20 -5h-18z" />
    <glyph glyph-name="G" unicode="G" horiz-adv-x="1236" 
d="M582 -10q-435 0 -435 407v639q0 408 435 408h82q215 0 319 -93t104 -290v-8q0 -7 -5 -12t-11 -5h-37q-6 0 -11 5.5t-5 11.5q0 170 -83 246.5t-265 76.5h-95q-185 0 -272.5 -83t-87.5 -257v-639q0 -173 87.5 -256.5t272.5 -83.5h84q186 0 274.5 83.5t88.5 256.5v293h-332
q-15 0 -20.5 5t-5.5 20v14q0 15 5.5 20t20.5 5h373q11 0 19 -7.5t8 -19.5v-330q0 -407 -435 -407h-73z" />
    <glyph glyph-name="H" unicode="H" horiz-adv-x="1230" 
d="M1040 0q-15 0 -19.5 5t-4.5 20v665h-801v-665q0 -15 -5 -20t-20 -5h-18q-15 0 -20 5t-5 20v1384q0 15 5 20t20 5h18q15 0 20 -5t5 -20v-655h801v655q0 15 4.5 20t19.5 5h19q15 0 19.5 -5t4.5 -20v-1384q0 -15 -4.5 -20t-19.5 -5h-19z" />
    <glyph glyph-name="I" unicode="I" horiz-adv-x="364" 
d="M172 0q-15 0 -20 5t-5 20v1384q0 15 5 20t20 5h18q15 0 20 -5t5 -20v-1384q0 -15 -5 -20t-20 -5h-18z" />
    <glyph glyph-name="J" unicode="J" horiz-adv-x="718" 
d="M125 -10q-16 0 -22.5 5t-6.5 19v19q0 24 29 24h18q185 0 273 83.5t88 256.5v1012q0 15 4.5 20t19.5 5h19q15 0 19.5 -5t4.5 -20v-1012q0 -207 -109 -307t-325 -100h-12z" />
    <glyph glyph-name="K" unicode="K" horiz-adv-x="1095" 
d="M172 0q-15 0 -20 5t-5 20v1384q0 15 5 20t20 5h18q15 0 20 -5t5 -20v-817l662 815q1 2 4.5 6.5t4.5 6t4 5t4.5 4.5t4.5 2.5t6 2t6 0.5h31q19 0 21 -11t-13 -28l-522 -639l576 -725q11 -12 5.5 -21.5t-22.5 -9.5h-16q-13 0 -22.5 4.5t-13.5 8.5t-15 16l-533 676l-172 -209
v-471q0 -15 -5 -20t-20 -5h-18z" />
    <glyph glyph-name="L" unicode="L" horiz-adv-x="1015" 
d="M176 0q-16 0 -22.5 5.5t-6.5 19.5v1384q0 15 5 20t20 5h18q15 0 20 -5t5 -20v-1341h676q27 0 27 -25v-18q0 -15 -6 -20t-21 -5h-715z" />
    <glyph glyph-name="M" unicode="M" horiz-adv-x="1447" 
d="M172 0q-15 0 -20 5t-5 20v1384q0 15 5 20t20 5h84q23 0 35 -31l426 -1340h14l428 1340q9 31 35 31h82q15 0 19.5 -5t4.5 -20v-1384q0 -15 -4.5 -20t-19.5 -5h-19q-15 0 -19.5 5t-4.5 20v1347h-14l-433 -1341q-9 -31 -38 -31h-48q-26 0 -38 31l-431 1341h-16v-1347
q0 -15 -5 -20t-20 -5h-18z" />
    <glyph glyph-name="N" unicode="N" horiz-adv-x="1183" 
d="M172 0q-15 0 -20 5t-5 20v1384q0 15 5 20t20 5h74q26 0 37 -23l669 -1350h15v1348q0 15 4.5 20t19.5 5h19q15 0 19.5 -5t4.5 -20v-1384q0 -15 -4.5 -20t-19.5 -5h-74q-23 0 -37 23l-668 1349h-16v-1347q0 -15 -5 -20t-20 -5h-18z" />
    <glyph glyph-name="O" unicode="O" 
d="M582 -10q-218 0 -326.5 99.5t-108.5 307.5v639q0 208 108.5 308t326.5 100h98q434 0 434 -408v-639q0 -207 -109 -307t-325 -100h-98zM215 397q0 -173 86.5 -256.5t273.5 -83.5h111q185 0 273 83.5t88 256.5v639q0 174 -88 257t-273 83h-111q-188 0 -274 -82.5
t-86 -257.5v-639z" />
    <glyph glyph-name="P" unicode="P" horiz-adv-x="1161" 
d="M172 0q-15 0 -20 5t-5 20v1384q0 15 5 20t20 5h442q220 0 319 -91t99 -303v-190q0 -210 -99 -301.5t-319 -91.5h-399v-432q0 -15 -5 -20t-20 -5h-18zM215 524h403q186 0 266.5 76.5t80.5 249.5v190q0 174 -80 250t-267 76h-403v-842z" />
    <glyph glyph-name="Q" unicode="Q" 
d="M623 -184q-15 0 -20 4.5t-5 19.5v150h-16q-218 0 -326.5 99.5t-108.5 307.5v639q0 208 108.5 308t326.5 100h98q434 0 434 -408v-639q0 -207 -109 -307t-325 -100h-14v-150q0 -15 -5 -19.5t-20 -4.5h-18zM215 397q0 -173 86.5 -256.5t273.5 -83.5h111q185 0 273 83.5
t88 256.5v639q0 174 -88 257t-273 83h-111q-188 0 -274 -82.5t-86 -257.5v-639z" />
    <glyph glyph-name="R" unicode="R" horiz-adv-x="1144" 
d="M172 0q-15 0 -20 5t-5 20v1384q0 15 5 20t20 5h442q220 0 319 -91t99 -303v-190q0 -158 -54.5 -249t-170.5 -126l223 -442q6 -15 1 -24t-19 -9h-21q-16 0 -26 18l-224 449q-45 -10 -88 -10h-438v-432q0 -15 -5 -20t-20 -5h-18zM215 524h403q186 0 266.5 76.5t80.5 249.5
v190q0 174 -80 250t-267 76h-403v-842z" />
    <glyph glyph-name="S" unicode="S" horiz-adv-x="1155" 
d="M553 -10q-103 0 -180 18t-136 57.5t-89.5 108.5t-30.5 166q0 27 26 27h17q27 0 24 -27q-3 -149 89.5 -216t271.5 -67h92q170 0 252 71t82 226q0 49 -10 89t-25.5 69.5t-43 54t-55 40.5t-68.5 30.5t-76 23t-85 19.5l-76 18q-62 13 -94 21t-82 25t-76 34t-58.5 46.5
t-48 65.5t-27 87.5t-11.5 116.5q0 79 20 139.5t56 100t89.5 64.5t115.5 35.5t139 10.5h47q197 0 301.5 -87t104.5 -278q0 -24 -27 -24h-14q-27 0 -27 24q3 159 -80.5 228t-251.5 69h-57q-177 0 -262.5 -62.5t-85.5 -221.5q0 -73 19 -126.5t41.5 -84t74 -54.5t82.5 -32.5
t102 -23.5q9 -2 13 -3l75 -16q49 -11 80 -18.5t73 -20t68 -24t58 -29.5t52 -37.5t40.5 -47t31.5 -59.5t18 -73t7 -89q0 -188 -108 -276t-301 -88h-76z" />
    <glyph glyph-name="T" unicode="T" horiz-adv-x="1069" 
d="M526 0q-15 0 -19.5 5t-4.5 20v1341h-367q-29 0 -29 27v16q0 14 6.5 19.5t22.5 5.5h799q16 0 22.5 -5.5t6.5 -19.5v-16q0 -27 -29 -27h-365v-1341q0 -15 -4.5 -20t-19.5 -5h-19z" />
    <glyph glyph-name="U" unicode="U" 
d="M582 -10q-218 0 -326.5 99.5t-108.5 307.5v1012q0 15 5 20t20 5h18q15 0 20 -5t5 -20v-1012q0 -173 86.5 -256.5t273.5 -83.5h111q185 0 273 83.5t88 256.5v1012q0 15 4.5 20t19.5 5h19q15 0 19.5 -5t4.5 -20v-1012q0 -207 -109 -307t-325 -100h-98z" />
    <glyph glyph-name="V" unicode="V" horiz-adv-x="1175" 
d="M557 0q-27 0 -37 33l-432 1370q-8 31 21 31h18q15 0 21.5 -6.5t11.5 -24.5l420 -1329h16l418 1329q5 18 11.5 24.5t21.5 6.5h18q28 0 20 -31l-432 -1370q-10 -33 -35 -33h-61z" />
    <glyph glyph-name="W" unicode="W" horiz-adv-x="1824" 
d="M463 0q-30 0 -37 33l-336 1370q-11 31 21 31h18q14 0 20.5 -6.5t12.5 -24.5l321 -1327h15l366 1327q5 18 11 24.5t20 6.5h35q15 0 20 -5t11 -26l364 -1327h16l322 1327q5 18 11.5 24.5t21.5 6.5h18q29 0 21 -31l-338 -1370q-7 -33 -35 -33h-64q-23 0 -36 33l-340 1278
h-19l-340 -1278q-13 -33 -37 -33h-63z" />
    <glyph glyph-name="X" unicode="X" horiz-adv-x="1114" 
d="M121 0q-25 0 -8 25l401 692l-399 692q-17 25 8 25h35q14 0 20.5 -6t16.5 -23l356 -629h10l357 629q8 13 10.5 17t9 8t16.5 4h35q25 0 8 -25l-399 -692l401 -692q17 -25 -8 -25h-35q-10 0 -16.5 4.5t-9 7t-12.5 17.5l-357 628h-10l-356 -628q-10 -17 -17.5 -23t-21.5 -6
h-35z" />
    <glyph glyph-name="Y" unicode="Y" horiz-adv-x="1107" 
d="M90 1405q-13 29 10 29h37q14 0 20 -6t15 -23l377 -752h10l377 752q6 12 9.5 17t9.5 8.5t16 3.5h35q25 0 12 -29l-430 -840v-540q0 -15 -5 -20t-20 -5h-18q-15 0 -20 5t-5 20v536z" />
    <glyph glyph-name="Z" unicode="Z" horiz-adv-x="1056" 
d="M135 0q-16 0 -22.5 5.5t-6.5 19.5v43q0 17 13 43l758 1243v12h-723q-15 0 -21 6t-6 21v16q0 15 6 20t21 5h768q15 0 20.5 -5t5.5 -20v-43q0 -19 -12 -43l-756 -1243v-12h738q28 0 28 -25v-18q0 -15 -6 -20t-22 -5h-783z" />
    <glyph glyph-name="bracketleft" unicode="[" horiz-adv-x="534" 
d="M178 -143q-31 0 -31 30v1712q0 31 31 31h219q15 0 20 -4.5t5 -19.5v-17q0 -15 -5 -19.5t-20 -4.5h-182v-1643h182q15 0 20 -4.5t5 -19.5v-17q0 -15 -5 -19.5t-20 -4.5h-219z" />
    <glyph glyph-name="backslash" unicode="\" horiz-adv-x="837" 
d="M745 -72q-14 0 -20.5 7t-13.5 24l-656 1514q-12 30 19 30h18q14 0 21 -7t14 -23l655 -1516q12 -29 -18 -29h-19z" />
    <glyph glyph-name="bracketright" unicode="]" horiz-adv-x="534" 
d="M137 -143q-15 0 -19.5 4.5t-4.5 19.5v17q0 15 4.5 19.5t19.5 4.5h182v1643h-182q-15 0 -19.5 4.5t-4.5 19.5v17q0 15 4.5 19.5t19.5 4.5h219q31 0 31 -31v-1712q0 -30 -31 -30h-219z" />
    <glyph glyph-name="asciicircum" unicode="^" horiz-adv-x="747" 
d="M127 932q-33 0 -21 31l216 493q14 31 40 31h23q27 0 41 -31l215 -493q12 -31 -20 -31h-21q-32 0 -41 31l-184 428l-187 -428q-9 -31 -41 -31h-20z" />
    <glyph glyph-name="underscore" unicode="_" horiz-adv-x="1169" 
d="M123 -61q-21 0 -21 20v21q0 20 21 20h924q20 0 20 -20v-21q0 -20 -20 -20h-924z" />
    <glyph glyph-name="grave" unicode="`" horiz-adv-x="483" 
d="M342 1124q-25 0 -51 37l-168 236q-11 17 -6.5 27t22.5 10h25q16 0 26 -8t23 -29l162 -236q9 -17 1.5 -27t-22.5 -10h-12z" />
    <glyph glyph-name="a" unicode="a" horiz-adv-x="1038" 
d="M858 0q-22 0 -22 23v149h-17q-60 -82 -157.5 -132t-219.5 -50h-6q-172 0 -251 77t-79 224v43q0 256 312 256h418v104q0 69 -12.5 116t-44.5 84.5t-92.5 55t-151.5 17.5q-198 0 -308 -41q-16 -6 -20 10l-6 31q-3 15 8 18q118 47 307 47h35q182 0 266 -82t84 -250v-677
q0 -23 -22 -23h-21zM174 295q0 -123 61 -180.5t187 -57.5h55q138 0 248.5 93.5t110.5 207.5v168h-416q-124 0 -185 -45t-61 -153v-33z" />
    <glyph glyph-name="b" unicode="b" horiz-adv-x="1046" 
d="M485 -10q-94 0 -164.5 35.5t-105.5 99.5h-12v-102q0 -23 -23 -23h-20q-23 0 -23 23v1388q0 23 23 23h20q23 0 23 -23v-512h12q35 63 106 98t164 35h90q169 0 262 -88t93 -258v-350q0 -170 -93 -258t-262 -88h-90zM203 332q0 -131 72.5 -205t211.5 -74h86q291 0 291 285
v346q0 285 -291 285h-86q-139 0 -211.5 -74t-72.5 -205v-358z" />
    <glyph glyph-name="c" unicode="c" horiz-adv-x="1001" 
d="M508 -10q-190 0 -290.5 88.5t-100.5 255.5v354q0 163 95.5 253.5t256.5 90.5h84q156 0 249 -77t93 -214v-12q0 -20 -23 -20h-22q-21 0 -21 20v8q0 107 -70.5 169.5t-201.5 62.5h-92q-138 0 -210.5 -75.5t-72.5 -207.5v-358q0 -131 80.5 -203t245.5 -72h12
q131 0 192.5 27.5t104.5 93.5q9 14 15.5 16.5t29.5 -4.5l2 -2q14 -7 17 -15.5t-4 -21.5q-18 -34 -43.5 -60t-66 -49.5t-102.5 -35.5t-143 -12h-14z" />
    <glyph glyph-name="d" unicode="d" horiz-adv-x="1046" 
d="M471 -10q-170 0 -262 87.5t-92 258.5v350q0 171 92 258.5t262 87.5h90q93 0 163 -35t105 -98h15v512q0 23 22 23h21q22 0 22 -23v-1388q0 -23 -22 -23h-21q-22 0 -22 23v102h-15q-35 -65 -104.5 -100t-163.5 -35h-90zM182 338q0 -285 291 -285h86q139 0 212 74t73 205
v358q0 131 -73 205t-212 74h-86q-291 0 -291 -285v-346z" />
    <glyph glyph-name="e" unicode="e" horiz-adv-x="1026" 
d="M500 -10q-188 0 -285.5 90t-97.5 254v354q0 163 94.5 253.5t255.5 90.5h92q165 0 256.5 -87t91.5 -251v-149q0 -29 -17 -46.5t-46 -17.5h-662v-143q0 -134 79 -210.5t241 -76.5h20q184 0 299 88q14 11 23 2l20 -22q9 -12 -2 -23q-44 -44 -133 -75t-213 -31h-16zM182 543
h662v149q0 133 -69.5 205t-213.5 72h-96q-141 0 -212 -75t-71 -208v-143z" />
    <glyph glyph-name="f" unicode="f" horiz-adv-x="684" 
d="M238 0q-21 0 -21 23v940h-108q-23 0 -23 22v16q0 23 23 23h108v102q0 308 275 308h86q30 0 30 -31v-2q0 -31 -30 -31h-91q-113 0 -159.5 -61t-46.5 -185v-100h297q22 0 22 -23v-16q0 -22 -22 -22h-297v-940q0 -23 -21 -23h-22z" />
    <glyph glyph-name="g" unicode="g" horiz-adv-x="1036" 
d="M489 -379q-88 0 -161 6q-39 3 -39 23v24q0 10 7 14.5t15 2.5q72 -6 197 -6q83 0 140.5 11t104 39.5t69 82.5t22.5 135v172h-15q-35 -65 -104.5 -100t-163.5 -35h-90q-170 0 -262 87.5t-92 258.5v350q0 171 92 258.5t262 87.5h90q93 0 163 -35t105 -98h15v100q0 14 4 19.5
t18 5.5h21q22 0 22 -25v-1046q0 -182 -99 -257t-321 -75zM182 338q0 -285 291 -285h86q139 0 212 74t73 205v358q0 131 -73 205t-212 74h-86q-291 0 -291 -285v-346z" />
    <glyph glyph-name="h" unicode="h" horiz-adv-x="1067" 
d="M160 0q-23 0 -23 23v1388q0 23 23 23h20q23 0 23 -23v-508h16q94 129 285 129h82q177 0 260.5 -85.5t83.5 -260.5v-663q0 -23 -25 -23h-18q-23 0 -23 23v661q0 142 -67.5 213.5t-218.5 71.5h-66q-150 0 -229.5 -74.5t-79.5 -206.5v-665q0 -23 -23 -23h-20z" />
    <glyph glyph-name="i" unicode="i" horiz-adv-x="346" 
d="M160 1362q-13 0 -18 5t-5 17v27q0 23 23 23h26q23 0 23 -23v-27q0 -12 -5 -17t-18 -5h-26zM141 23v978q0 23 23 23h20q21 0 21 -23v-978q0 -23 -21 -23h-20q-23 0 -23 23z" />
    <glyph glyph-name="j" unicode="j" horiz-adv-x="356" 
d="M170 1362q-13 0 -18 5t-5 17v27q0 23 23 23h27q20 0 20 -23v-27q0 -12 -4 -17t-16 -5h-27zM-16 -348v22q0 21 26 21q81 0 112.5 36t31.5 134v1136q0 23 20 23h21q22 0 22 -23v-1159q0 -211 -176 -211q-57 0 -57 21z" />
    <glyph glyph-name="k" unicode="k" horiz-adv-x="948" 
d="M160 0q-23 0 -23 23v1388q0 23 23 23h20q23 0 23 -23v-950l540 545q22 18 37 18h35q12 0 16.5 -5t2 -11.5t-8.5 -12.5l-436 -430l485 -536q10 -12 5.5 -20.5t-19.5 -8.5h-31q-13 0 -19 3.5t-17 16.5l-445 504l-145 -143v-358q0 -23 -23 -23h-20z" />
    <glyph glyph-name="l" unicode="l" horiz-adv-x="339" 
d="M160 0q-23 0 -23 23v1388q0 23 23 23h20q23 0 23 -23v-1388q0 -23 -23 -23h-20z" />
    <glyph glyph-name="m" unicode="m" horiz-adv-x="1705" 
d="M844 0q-23 0 -23 23v661q0 142 -63 213.5t-201 71.5h-59q-139 0 -217 -75t-78 -206v-665q0 -12 -4.5 -17.5t-18.5 -5.5h-20q-23 0 -23 23v978q0 23 23 23h20q14 0 18.5 -5.5t4.5 -17.5v-98h16q40 61 114.5 95t174.5 34h45q228 0 299 -164h14q45 87 126 125.5t212 38.5h41
q324 0 324 -346v-663q0 -12 -4.5 -17.5t-18.5 -5.5h-20q-23 0 -23 23v661q0 142 -63 213.5t-201 71.5h-59q-138 0 -216.5 -75t-78.5 -206v-665q0 -12 -4.5 -17.5t-18.5 -5.5h-18z" />
    <glyph glyph-name="n" unicode="n" horiz-adv-x="1067" 
d="M160 0q-23 0 -23 23v978q0 23 23 23h20q14 0 18.5 -5.5t4.5 -17.5v-98h16q94 129 285 129h82q177 0 260.5 -85.5t83.5 -260.5v-663q0 -23 -25 -23h-18q-23 0 -23 23v661q0 142 -67.5 213.5t-218.5 71.5h-66q-150 0 -229.5 -74.5t-79.5 -206.5v-665q0 -12 -4.5 -17.5
t-18.5 -5.5h-20z" />
    <glyph glyph-name="o" unicode="o" horiz-adv-x="1026" 
d="M469 -10q-165 0 -258.5 87.5t-93.5 250.5v366q0 163 93.5 250.5t258.5 87.5h88q164 0 258 -87.5t94 -250.5v-366q0 -163 -94.5 -250.5t-257.5 -87.5h-88zM182 330q0 -133 70 -205t213 -72h96q143 0 213 72t70 205v362q0 133 -70 205t-213 72h-96q-143 0 -213 -72
t-70 -205v-362z" />
    <glyph glyph-name="p" unicode="p" horiz-adv-x="1046" 
d="M160 -362q-23 0 -23 22v1341q0 23 23 23h20q23 0 23 -23v-102h12q35 63 106 98t164 35h90q169 0 262 -88t93 -258v-350q0 -170 -93 -258t-262 -88h-90q-94 0 -164.5 35.5t-105.5 99.5h-12v-465q0 -22 -23 -22h-20zM203 332q0 -131 72.5 -205t211.5 -74h86q291 0 291 285
v346q0 285 -291 285h-86q-139 0 -211.5 -74t-72.5 -205v-358z" />
    <glyph glyph-name="q" unicode="q" horiz-adv-x="1046" 
d="M866 -362q-22 0 -22 22v465h-13q-35 -65 -105.5 -100t-164.5 -35h-90q-169 0 -261.5 87.5t-92.5 258.5v350q0 171 92.5 258.5t261.5 87.5h90q93 0 164 -35t106 -98h13v102q0 23 22 23h21q22 0 22 -23v-1341q0 -22 -22 -22h-21zM182 338q0 -285 291 -285h86q139 0 212 74
t73 205v358q0 131 -73 205t-212 74h-86q-291 0 -291 -285v-346z" />
    <glyph glyph-name="r" unicode="r" horiz-adv-x="888" 
d="M160 0q-23 0 -23 23v978q0 23 23 23h20q14 0 18.5 -5.5t4.5 -17.5v-98h16q40 61 111.5 95t163.5 34h55q126 0 190 -67.5t64 -192.5v-6q0 -12 -4 -15t-17 -3h-24q-11 0 -15 3.5t-4 14.5q0 95 -46.5 149t-157.5 54h-48q-138 0 -211 -74.5t-73 -206.5v-665q0 -12 -4.5 -17.5
t-18.5 -5.5h-20z" />
    <glyph glyph-name="s" unicode="s" horiz-adv-x="958" 
d="M432 -10q-151 0 -238.5 62t-87.5 184q0 11 4.5 16.5t20.5 5.5h19q19 0 22 -27q8 -91 68.5 -135.5t181.5 -44.5h92q61 0 107.5 10t85 34t59 68.5t20.5 108.5q0 50 -18 86t-38 55.5t-71 35t-78 20t-97 13.5l-21 3l-19 2q-77 8 -129 21.5t-100 43t-72 83.5t-24 133
q0 135 86.5 199.5t243.5 64.5h51q153 0 241 -67.5t88 -202.5q0 -27 -20 -27h-21q-13 0 -17.5 6.5t-4.5 22.5q-8 107 -70 157t-190 50h-53q-136 0 -203.5 -46.5t-67.5 -160.5q0 -49 14 -85t37.5 -59t62.5 -39t80.5 -24t100.5 -14l21 -2q67 -7 112 -15t95 -27t79 -46.5
t48.5 -73.5t19.5 -109q0 -280 -338 -280h-82z" />
    <glyph glyph-name="t" unicode="t" horiz-adv-x="575" 
d="M414 -10q-85 0 -130.5 49t-45.5 162v762h-142q-20 0 -20 20v21q0 20 20 20h142v184q0 23 20 23h23q20 0 20 -23v-184h156q11 0 15.5 -4t4.5 -16v-21q0 -12 -4.5 -16t-15.5 -4h-156v-740q0 -100 31 -136t112 -36q27 0 27 -18v-23q0 -20 -57 -20z" />
    <glyph glyph-name="u" unicode="u" horiz-adv-x="1067" 
d="M481 -8q-177 0 -260.5 85.5t-83.5 260.5v663q0 12 4.5 17.5t18.5 5.5h20q23 0 23 -23v-661q0 -142 67.5 -213.5t218.5 -71.5h66q149 0 229 74.5t80 206.5v665q0 12 4.5 17.5t18.5 5.5h20q23 0 23 -23v-978q0 -23 -23 -23h-20q-14 0 -18.5 5.5t-4.5 17.5v98h-16
q-94 -129 -285 -129h-82z" />
    <glyph glyph-name="v" unicode="v" horiz-adv-x="976" 
d="M471 0q-16 0 -23 6.5t-14 22.5l-346 966q-11 29 12 29h27q8 0 13 -1t9 -7t4.5 -7.5t4.5 -11.5l325 -929h11l325 929q1 2 2.5 6.5l2 6t2 4.5t3.5 4.5t5 3t7 2t9 0.5h24q26 0 15 -29l-346 -966q-7 -16 -14 -22.5t-23 -6.5h-35z" />
    <glyph glyph-name="w" unicode="w" horiz-adv-x="1454" 
d="M377 0q-27 0 -37 29l-250 966q-4 12 -2 20.5t16 8.5h25q22 0 29 -29l235 -923h6l277 923q0 1 1.5 4.5t2 4.5t1.5 4t2 4t2.5 3.5t2.5 3t3 2t4 2t4.5 1t5.5 0.5h45q6 0 10 -1t6.5 -4.5t3.5 -6t3 -8.5l3 -9l277 -923h6l235 923q7 29 29 29h25q23 0 16 -29l-250 -966
q-10 -29 -37 -29h-43q-27 0 -37 29l-268 917h-6l-268 -917q-10 -29 -37 -29h-41z" />
    <glyph glyph-name="x" unicode="x" horiz-adv-x="882" 
d="M109 0q-18 0 -23 8t2 19l311 493l-297 477q-9 11 -5 19t22 8h22q12 0 18.5 -5t18.5 -20l256 -424h15l256 424q9 12 12 15t9 6.5t15 3.5h23q33 0 18 -27l-297 -477l310 -493q15 -27 -23 -27h-14q-22 0 -39 25l-270 444h-15l-268 -444q-19 -25 -39 -25h-18z" />
    <glyph glyph-name="y" unicode="y" horiz-adv-x="1030" 
d="M375 -362q-25 0 -17 28l121 309l-391 1020q-5 12 -3 20.5t15 8.5h31q13 0 18.5 -7t12.5 -26l346 -921h10l348 921q5 14 7.5 19.5t8 9.5t15.5 4h31q14 0 16 -8.5t-2 -20.5l-514 -1329q-4 -10 -6.5 -14t-9 -9t-15.5 -5h-22z" />
    <glyph glyph-name="z" unicode="z" horiz-adv-x="866" 
d="M109 0q-23 0 -23 23v32q0 17 10 29l606 866v13h-569q-11 0 -15.5 4.5t-4.5 17.5v19q0 12 4.5 16t15.5 4h615q22 0 22 -23v-43q0 -11 -10 -24l-604 -860v-13h592q22 0 22 -22v-16q0 -23 -22 -23h-639z" />
    <glyph glyph-name="braceleft" unicode="{" horiz-adv-x="688" 
d="M526 -143q-82 0 -135.5 16t-91.5 56.5t-55 109.5t-17 174v358q0 20 -14 37l-92 113q-19 23 0 45l92 113q14 17 14 36v359q0 105 17 174t55 109.5t91.5 56.5t135.5 16h23q26 0 26 -31v-6q0 -30 -26 -30h-51q-104 0 -153.5 -61t-49.5 -185v-422q0 -20 -14 -37l-91 -115
l93 -114q12 -14 12 -37v-422q0 -124 49.5 -185t153.5 -61h51q26 0 26 -30v-7q0 -30 -26 -30h-23z" />
    <glyph glyph-name="bar" unicode="|" horiz-adv-x="395" 
d="M195 -410q-31 0 -31 31v1987q0 30 31 30h6q30 0 30 -30v-1987q0 -31 -30 -31h-6z" />
    <glyph glyph-name="braceright" unicode="}" horiz-adv-x="688" 
d="M139 -143q-26 0 -26 30v7q0 30 26 30h51q104 0 153.5 61t49.5 185v422q0 21 13 37l92 114l-90 115q-15 18 -15 37v422q0 124 -49.5 185t-153.5 61h-51q-26 0 -26 30v6q0 31 26 31h23q82 0 135.5 -16t91.5 -56.5t55 -109.5t17 -174v-359q0 -19 14 -36l92 -113
q19 -22 0 -45l-92 -113q-14 -17 -14 -37v-358q0 -105 -17 -174t-55 -109.5t-91.5 -56.5t-135.5 -16h-23z" />
    <glyph glyph-name="asciitilde" unicode="~" horiz-adv-x="1046" 
d="M152 610q-21 -14 -35 17l-11 18q-13 23 21 45q192 143 412 2q102 -64 172.5 -63.5t183.5 76.5q15 6 20.5 2.5t14.5 -19.5l10 -18q13 -23 -20 -45q-193 -144 -412 -2q-103 65 -172.5 64t-183.5 -77z" />
    <glyph glyph-name="exclamdown" unicode="&#xa1;" horiz-adv-x="376" 
d="M176 -410q-15 0 -19.5 5t-4.5 20v1092q0 15 4.5 19.5t19.5 4.5h25q15 0 20.5 -4.5t5.5 -19.5v-1092q0 -15 -5.5 -20t-20.5 -5h-25zM147 967v32q0 15 5 20t20 5h33q15 0 19.5 -5t4.5 -20v-32q0 -15 -4.5 -20t-19.5 -5h-33q-15 0 -20 5t-5 20z" />
    <glyph glyph-name="cent" unicode="&#xa2;" horiz-adv-x="1001" 
d="M502 -145q-25 0 -25 24v111q-175 8 -267.5 95.5t-92.5 248.5v354q0 163 95.5 253.5t256.5 90.5h8v109q0 24 25 24h14q25 0 25 -24v-109h12q156 0 249 -77t93 -214v-12q0 -20 -23 -20h-22q-21 0 -21 20v8q0 107 -70.5 169.5t-201.5 62.5h-16v-916q119 1 177 29.5t99 91.5
q9 14 15.5 16.5t29.5 -4.5l2 -2q14 -7 17 -15.5t-4 -21.5q-37 -71 -113.5 -112.5t-222.5 -44.5v-111q0 -24 -25 -24h-14zM182 328q0 -124 73 -196t222 -79v916h-12q-138 0 -210.5 -75.5t-72.5 -207.5v-358z" />
    <glyph glyph-name="sterling" unicode="&#xa3;" horiz-adv-x="1124" 
d="M809 -12q-76 0 -188.5 42t-174.5 42q-97 0 -229 -74q-14 -8 -45.5 29.5t-21.5 52.5q37 57 54.5 86t44.5 85.5t38.5 116.5t11.5 130q0 79 -20 164h-160q-21 0 -21 20v20q0 21 21 21h143q-10 32 -30.5 91t-32 95t-21.5 89.5t-10 103.5q0 342 397 342h60q181 0 289 -88.5
t108 -274.5v-26q0 -23 -21 -23h-20q-23 0 -23 23q0 172 -82 247.5t-258 75.5h-53q-171 0 -252.5 -68.5t-81.5 -203.5q0 -46 10.5 -98.5t22 -89.5t33 -99.5t31.5 -95.5h311q20 0 20 -21v-20q0 -20 -20 -20h-295q21 -93 21 -168q0 -116 -37.5 -214.5t-110.5 -209.5
q119 67 227 67q76 0 177.5 -41t173.5 -41q93 0 200 49q29 12 29 -14v-33q0 -10 -6 -14.5t-23 -11.5q-98 -43 -186 -43z" />
    <glyph glyph-name="currency" unicode="&#xa4;" horiz-adv-x="1308" 
d="M127 25q-21 21 0 43l145 143q-14 49 -14 117v364q0 86 18 139l-149 146q-21 21 0 43l4 4q21 22 43 0l129 -125q94 129 305 129h90q216 0 308 -133l129 129q21 22 43 0l4 -4q22 -22 0 -43l-152 -150q19 -56 19 -135v-364q0 -55 -13 -115l146 -145q22 -22 0 -43l-2 -5
q-22 -22 -43 0l-117 113q-94 -141 -322 -141h-90q-227 0 -321 141l-113 -113q-22 -22 -43 0zM328 330q0 -131 68.5 -201t207.5 -70h98q279 0 279 271v360q0 131 -69 202t-210 71h-98q-138 0 -207 -71t-69 -202v-360z" />
    <glyph glyph-name="yen" unicode="&#xa5;" horiz-adv-x="1107" 
d="M289 471q-21 0 -21 21v24q0 23 21 23h231v22l-430 844q-13 29 10 29h37q14 0 20 -6t15 -23l377 -752h10l377 752q6 12 9.5 17t9.5 8.5t16 3.5h35q25 0 12 -29l-430 -840v-26h233q21 0 21 -23v-24q0 -21 -21 -21h-233v-86h233q21 0 21 -23v-24q0 -21 -21 -21h-233v-292
q0 -15 -5 -20t-20 -5h-18q-15 0 -20 5t-5 20v292h-231q-21 0 -21 21v24q0 23 21 23h231v86h-231z" />
    <glyph glyph-name="brokenbar" unicode="&#xa6;" horiz-adv-x="395" 
d="M195 772q-31 0 -31 31v661q0 31 31 31h6q30 0 30 -31v-661q0 -31 -30 -31h-6zM164 -236v662q0 31 31 31h6q30 0 30 -31v-662q0 -30 -30 -30h-6q-31 0 -31 30z" />
    <glyph glyph-name="section" unicode="&#xa7;" horiz-adv-x="958" 
d="M436 -66q-148 0 -239 62.5t-91 183.5q0 11 4.5 17t20.5 6h21q21 0 24 -27q7 -89 72.5 -134.5t181.5 -45.5h84q61 0 107.5 10t85 34t59 69t20.5 110q0 116 -56 162.5t-204 46.5h-82q-325 0 -325 287q0 87 42.5 143.5t114.5 79.5q-75 37 -116 99.5t-41 166.5
q0 135 86.5 199.5t243.5 64.5h47q152 0 242.5 -68t90.5 -202q0 -15 -3.5 -21t-16.5 -6h-25q-22 0 -22 27q-9 107 -71.5 158t-188.5 51h-49q-136 0 -203.5 -46.5t-67.5 -160.5q0 -120 69 -171.5t210 -51.5h67q158 0 241 -60t83 -210q0 -188 -147 -238q147 -60 147 -254
q0 -79 -27.5 -136t-76.5 -87.5t-106.5 -44t-127.5 -13.5h-78zM184 709q0 -124 64.5 -173t206.5 -49h61q142 0 206 49t64 173q0 120 -62 161t-208 41h-61q-146 0 -208.5 -41t-62.5 -161z" />
    <glyph glyph-name="dieresis" unicode="&#xa8;" horiz-adv-x="796" 
d="M637 1352q-15 0 -20 4.5t-5 19.5v33q0 15 5 20t20 5h33q15 0 19.5 -5t4.5 -20v-33q0 -15 -4.5 -19.5t-19.5 -4.5h-33zM102 1376v33q0 15 5 20t20 5h33q15 0 19.5 -5t4.5 -20v-33q0 -15 -4.5 -19.5t-19.5 -4.5h-33q-15 0 -20 4.5t-5 19.5z" />
    <glyph glyph-name="copyright" unicode="&#xa9;" horiz-adv-x="1445" 
d="M590 -10q-211 0 -327 112.5t-116 311.5v606q0 199 116 311.5t327 112.5h266q210 0 326 -112.5t116 -311.5v-606q0 -199 -116 -311.5t-326 -112.5h-266zM336 512q0 -165 98.5 -240t292.5 -75h16q107 0 182 22.5t112 55t59 79.5q12 27 -13 35l-2 2q-30 13 -45 -10
q-41 -66 -101 -93.5t-190 -27.5h-14q-171 0 -251.5 59.5t-80.5 184.5v420q0 128 71 190t214 62h92q131 0 201 -58.5t70 -163.5v-12q0 -24 22 -24h23q22 0 22 24v19q0 136 -92 207t-250 71h-84q-166 0 -259 -77t-93 -238v-412z" />
    <glyph glyph-name="ordfeminine" unicode="&#xaa;" horiz-adv-x="645" 
d="M489 920q-10 0 -10 18v49q-60 -67 -157 -67h-31q-189 0 -189 159q0 78 48 119t141 41h188q0 73 -28.5 104t-88.5 31h-32q-85 0 -148 -35q-22 -9 -30 7l-13 26q-9 17 11 27q46 24 84 34.5t96 10.5h28q88 0 136.5 -52t48.5 -157v-297v-9.5t-2.5 -5.5t-8.5 -3h-43zM170 1079
q0 -51 29 -68.5t94 -17.5h26q62 0 95 13t65 43v122h-186q-123 0 -123 -92z" />
    <glyph glyph-name="guillemotleft" unicode="&#xab;" horiz-adv-x="1089" 
d="M561 463q-3 3 -9.5 7.5t-9 6.5t-6.5 6.5t-5 9t-1 11.5v45q0 8 3 14.5t5 8.5t11.5 9t11.5 9l381 295q14 10 24.5 3.5t10.5 -20.5v-28q0 -12 -8.5 -21.5t-28.5 -23.5l-354 -269l354 -266q2 -1 6.5 -5t6 -5t5.5 -4t5 -4.5t4 -4t4 -4.5t2.5 -4.5t2 -4.5t1 -5t0.5 -6v-29
q0 -14 -10.5 -20t-24.5 4zM113 504v45q0 7 1 11.5t4.5 9t5.5 6.5t9 7t10 7l381 295q14 10 24.5 3.5t10.5 -20.5v-28q0 -12 -8.5 -21.5t-28.5 -23.5l-354 -269l354 -266q2 -1 6.5 -5t6 -5t5.5 -4t5 -4.5t4 -4t4 -4.5t2.5 -4.5t2 -4.5t1 -5t0.5 -6v-29q0 -14 -10.5 -20
t-24.5 4l-381 295q-3 2 -10 7t-9 7t-5.5 6.5t-4.5 9t-1 11.5z" />
    <glyph glyph-name="logicalnot" unicode="&#xac;" horiz-adv-x="997" 
d="M131 627q-16 0 -22.5 5t-6.5 19v21q0 14 6.5 19t22.5 5h739q23 0 25 -12v-420q0 -16 -5 -22t-20 -6h-18q-15 0 -20 6t-5 22v363h-696z" />
    <glyph glyph-name="uni00AD" unicode="&#xad;" horiz-adv-x="700" 
d="M123 489q-21 0 -21 21v20q0 21 21 21h455q20 0 20 -21v-20q0 -21 -20 -21h-455z" />
    <glyph glyph-name="registered" unicode="&#xae;" horiz-adv-x="1474" 
d="M598 -10q-217 0 -334 113.5t-117 318.5v590q0 205 117 318.5t334 113.5h276q216 0 333.5 -113.5t117.5 -318.5v-590q0 -205 -117.5 -318.5t-333.5 -113.5h-276zM399 248q0 -23 21 -23h22q21 0 21 23v424h393q199 0 199 -191v-225q0 -31 30 -31h2q27 0 27 31v213
q0 184 -129 231v11q35 15 60.5 43.5t38 64.5t17.5 67.5t5 63.5q0 146 -62 210.5t-198 64.5h-426q-21 0 -21 -23v-954zM463 731v428h407q90 0 130 -47t40 -143q0 -118 -42.5 -178t-141.5 -60h-393z" />
    <glyph glyph-name="macron" unicode="&#xaf;" horiz-adv-x="929" 
d="M131 1362q-29 0 -29 29v14q0 29 29 29h668q28 0 28 -29v-14q0 -29 -28 -29h-668z" />
    <glyph glyph-name="degree" unicode="&#xb0;" horiz-adv-x="600" 
d="M272 864q-86 0 -128 45.5t-42 124.5v230q0 78 42 124t128 46h50q86 0 128 -46t42 -124v-230q0 -79 -42 -124.5t-128 -45.5h-50zM168 1020q0 -92 106 -92h45q109 0 109 92v256q0 94 -109 94h-45q-106 0 -106 -94v-256z" />
    <glyph glyph-name="plusminus" unicode="&#xb1;" horiz-adv-x="1015" 
d="M139 0q-28 0 -28 29v18q0 27 28 27h740q15 0 19.5 -5.5t4.5 -21.5v-18q0 -16 -5 -22.5t-21 -6.5h-738zM102 713v22q0 14 6.5 19.5t22.5 5.5h342v360q0 16 5.5 22.5t19.5 6.5h18q14 0 19.5 -6.5t5.5 -22.5v-360h346q15 0 20.5 -5t5.5 -20v-22q0 -15 -5.5 -20t-22.5 -5
h-344v-360q0 -16 -5.5 -22.5t-19.5 -6.5h-18q-14 0 -19.5 6.5t-5.5 22.5v360h-342q-16 0 -22.5 5.5t-6.5 19.5z" />
    <glyph glyph-name="uni00B2" unicode="&#xb2;" horiz-adv-x="655" 
d="M158 799q-31 0 -31 30v68q0 20 6 31t23 26l178 168q23 22 35.5 35t24.5 35.5t12 44.5q0 38 -22.5 59t-61.5 21q-35 0 -55.5 -17t-20.5 -49v-14q0 -31 -31 -31h-61q-31 0 -31 31v27q0 75 48.5 122.5t131.5 47.5h51q86 0 131 -53.5t45 -131.5q0 -71 -34.5 -122t-100.5 -107
l-114 -100h221q30 0 30 -31v-60q0 -30 -30 -30h-344z" />
    <glyph glyph-name="uni00B3" unicode="&#xb3;" horiz-adv-x="661" 
d="M307 799q-86 0 -135 47.5t-49 122.5v26q0 31 31 31h61q31 0 31 -31v-16q0 -64 84 -64q41 0 62.5 20.5t21.5 57.5q0 35 -18.5 52.5t-61.5 17.5h-33q-29 0 -29 31v45q0 30 29 30h33q76 0 76 70q0 37 -21 57.5t-59 20.5q-80 0 -80 -64v-16q0 -31 -31 -31h-61q-31 0 -31 31
v27q0 75 48.5 122.5t131.5 47.5h51q83 0 127.5 -52.5t44.5 -124.5q0 -97 -86 -141q99 -46 99 -141q0 -73 -47 -124.5t-138 -51.5h-51z" />
    <glyph glyph-name="acute" unicode="&#xb4;" horiz-adv-x="483" 
d="M129 1124q-16 0 -22.5 10t2.5 27l161 236q13 20 23 28.5t24 8.5h23q18 0 24.5 -10t-4.5 -27l-167 -236q-29 -37 -52 -37h-12z" />
    <glyph glyph-name="uni00B5" unicode="&#xb5;" horiz-adv-x="1067" 
d="M168 -410q-31 0 -31 31v1380q0 12 4.5 17.5t18.5 5.5h20q23 0 23 -23v-661q0 -142 67.5 -213.5t218.5 -71.5h66q149 0 229 74.5t80 206.5v665q0 12 4.5 17.5t18.5 5.5h20q23 0 23 -23v-978q0 -23 -23 -23h-20q-14 0 -18.5 5.5t-4.5 17.5v98h-20q-96 -129 -299 -129h-80
q-181 0 -266 129v-500q0 -31 -31 -31z" />
    <glyph glyph-name="paragraph" unicode="&#xb6;" horiz-adv-x="1142" 
d="M567 457q-220 0 -320 91.5t-100 301.5v190q0 211 99.5 302.5t320.5 91.5h404q15 0 19.5 -5t4.5 -20v-1384q0 -15 -4.5 -20t-19.5 -5h-19q-15 0 -19.5 5t-4.5 20v432h-166v-432q0 -15 -5 -20t-20 -5h-18q-15 0 -20 5t-5 20v432h-127zM215 850q0 -173 80 -249.5t266 -76.5
h133v842h-133q-187 0 -266.5 -76t-79.5 -250v-190zM762 524h166v842h-166v-842z" />
    <glyph glyph-name="periodcentered" unicode="&#xb7;" horiz-adv-x="286" 
d="M127 471q-15 0 -20 5t-5 20v32q0 15 5 20t20 5h33q15 0 19.5 -5t4.5 -20v-32q0 -15 -4.5 -20t-19.5 -5h-33z" />
    <glyph glyph-name="cedilla" unicode="&#xb8;" horiz-adv-x="614" 
d="M276 -406q-95 0 -134.5 37.5t-39.5 116.5q0 23 21 23h22q8 0 14.5 -5t6.5 -12q-3 -53 24.5 -75.5t98.5 -22.5h41q65 0 90.5 17.5t25.5 58.5t-23 59.5t-73 18.5h-110q-32 0 -54 18.5t-22 50.5q0 49 72 121h75q-140 -131 -30 -131h69q29 0 49.5 -2.5t43.5 -11t37 -23.5
t23 -42t9 -64q0 -68 -39 -100t-133 -32h-64z" />
    <glyph glyph-name="uni00B9" unicode="&#xb9;" horiz-adv-x="618" 
d="M276 801q-30 0 -30 30v572q0 31 30 31h66q31 0 31 -31v-572q0 -30 -31 -30h-66z" />
    <glyph glyph-name="ordmasculine" unicode="&#xba;" horiz-adv-x="681" 
d="M307 920q-88 0 -146.5 59.5t-58.5 146.5v113q0 85 58.5 145t146.5 60h68q87 0 146 -60.5t59 -144.5v-113q0 -87 -59 -146.5t-146 -59.5h-68zM172 1122q0 -62 37 -98.5t100 -36.5h64q61 0 100 37t39 98v121q0 61 -39 97t-100 36h-64q-63 0 -100 -36t-37 -97v-121z" />
    <glyph glyph-name="guillemotright" unicode="&#xbb;" horiz-adv-x="1089" 
d="M147 168q-13 -10 -23.5 -4t-10.5 20v29q0 9 6 18t10 12.5t21 16.5l354 266l-354 269q-20 14 -28.5 23.5t-8.5 21.5v28q0 14 10.5 20.5t23.5 -3.5l381 -295q3 -3 9.5 -7.5t9 -6.5t6.5 -6.5t5 -9t1 -11.5v-45q0 -8 -3 -14.5t-5 -8.5t-11.5 -9t-11.5 -9zM530 184v29
q0 9 6 18t10 12.5t21 16.5l355 266l-355 269q-20 14 -28.5 23.5t-8.5 21.5v28q0 14 11 20.5t24 -3.5l381 -295q3 -3 9.5 -7.5t9 -6.5t6.5 -6.5t5 -9t1 -11.5v-45q0 -8 -3 -14.5t-5 -8.5t-11.5 -9t-11.5 -9l-381 -295q-13 -10 -24 -4t-11 20z" />
    <glyph glyph-name="onequarter" unicode="&#xbc;" horiz-adv-x="1564" 
d="M276 801q-30 0 -30 30v572q0 31 30 31h66q31 0 31 -31v-572q0 -30 -31 -30h-66zM264 31l828 1372q10 17 18.5 24t22.5 7h77q16 0 22.5 -8t-1.5 -23l-828 -1372q-10 -17 -18.5 -24t-22.5 -7h-77q-16 0 -22.5 8t1.5 23zM999 135v51q0 15 11 37l204 389q12 23 35 23h103
q30 0 30 -31v-383h29q31 0 31 -31v-55q0 -31 -31 -31h-29v-73q0 -31 -30 -31h-62q-30 0 -30 31v73h-226q-35 0 -35 31zM1141 225h119v240z" />
    <glyph glyph-name="onehalf" unicode="&#xbd;" horiz-adv-x="1531" 
d="M276 801q-30 0 -30 30v572q0 31 30 31h66q31 0 31 -31v-572q0 -30 -31 -30h-66zM264 31l828 1372q10 17 18.5 24t22.5 7h77q16 0 22.5 -8t-1.5 -23l-828 -1372q-10 -17 -18.5 -24t-22.5 -7h-77q-16 0 -22.5 8t1.5 23zM999 438v27q0 75 49 122.5t132 47.5h51q86 0 131 -53
t45 -131q0 -71 -35 -123t-100 -107l-115 -100h221q31 0 31 -31v-59q0 -31 -31 -31h-344q-30 0 -30 31v67q0 21 6 32.5t22 25.5l178 168q24 23 35.5 35t24 34.5t12.5 44.5q0 38 -22.5 59t-61.5 21q-35 0 -55.5 -17t-20.5 -48v-15q0 -30 -30 -30h-62q-31 0 -31 30z" />
    <glyph glyph-name="threequarters" unicode="&#xbe;" horiz-adv-x="1607" 
d="M307 799q-86 0 -135 47.5t-49 122.5v26q0 31 31 31h61q31 0 31 -31v-16q0 -64 84 -64q41 0 62.5 20.5t21.5 57.5q0 35 -18.5 52.5t-61.5 17.5h-33q-29 0 -29 31v45q0 30 29 30h33q76 0 76 70q0 37 -21 57.5t-59 20.5q-80 0 -80 -64v-16q0 -31 -31 -31h-61q-31 0 -31 31
v27q0 75 48.5 122.5t131.5 47.5h51q83 0 127.5 -52.5t44.5 -124.5q0 -97 -86 -141q99 -46 99 -141q0 -73 -47 -124.5t-138 -51.5h-51zM307 31l828 1372q10 17 18.5 24t22.5 7h77q16 0 22.5 -8t-1.5 -23l-828 -1372q-10 -17 -18 -24t-22 -7h-78q-16 0 -22.5 8t1.5 23z
M1042 135v51q0 15 11 37l204 389q11 23 35 23h103q30 0 30 -31v-383h29q31 0 31 -31v-55q0 -31 -31 -31h-29v-73q0 -31 -30 -31h-62q-30 0 -30 31v73h-226q-35 0 -35 31zM1184 225h119v240z" />
    <glyph glyph-name="questiondown" unicode="&#xbf;" horiz-adv-x="1028" 
d="M588 731q15 0 19.5 -4.5t4.5 -19.5v-127q0 -111 -49 -162.5t-188 -100.5q-103 -37 -128 -51q-74 -42 -98 -131q-16 -60 -16 -153q0 -180 76 -256t252 -76h92q178 0 260 73.5t82 245.5q0 23 23 23h16q13 0 17.5 -5t4.5 -18v-26q0 -185 -109.5 -274t-291.5 -89h-90
q-197 0 -295 93.5t-98 308.5q0 82 10.5 139.5t28 95.5t53 66.5t71 45t97.5 38.5q135 49 174 89t39 126v125q0 15 4.5 19.5t19.5 4.5h19zM532 967v32q0 15 5 20t20 5h33q15 0 19.5 -5t4.5 -20v-32q0 -15 -4.5 -20t-19.5 -5h-33q-15 0 -20 5t-5 20z" />
    <glyph glyph-name="Agrave" unicode="&#xc0;" horiz-adv-x="1175" 
d="M618 1434q25 0 35 -33l432 -1370q8 -31 -20 -31h-18q-15 0 -21.5 6.5t-11.5 24.5l-94 299h-666l-94 -299q-5 -18 -11.5 -24.5t-21.5 -6.5h-18q-29 0 -21 31l432 1370q10 33 37 33h61zM274 391h627l-305 969h-16zM369 1806q-11 17 -6.5 27t22.5 10h25q16 0 26 -8t23 -29
l162 -235q9 -17 1.5 -27t-22.5 -10h-12q-25 0 -51 37z" />
    <glyph glyph-name="Aacute" unicode="&#xc1;" horiz-adv-x="1175" 
d="M618 1434q25 0 35 -33l432 -1370q8 -31 -20 -31h-18q-15 0 -21.5 6.5t-11.5 24.5l-94 299h-666l-94 -299q-5 -18 -11.5 -24.5t-21.5 -6.5h-18q-29 0 -21 31l432 1370q10 33 37 33h61zM274 391h627l-305 969h-16zM553 1571l162 235q13 20 23 28.5t24 8.5h22q18 0 25 -10
t-4 -27l-168 -235q-29 -37 -51 -37h-13q-16 0 -22.5 10t2.5 27z" />
    <glyph glyph-name="Acircumflex" unicode="&#xc2;" horiz-adv-x="1175" 
d="M618 1434q25 0 35 -33l432 -1370q8 -31 -20 -31h-18q-15 0 -21.5 6.5t-11.5 24.5l-94 299h-666l-94 -299q-5 -18 -11.5 -24.5t-21.5 -6.5h-18q-29 0 -21 31l432 1370q10 33 37 33h61zM274 391h627l-305 969h-16zM293 1571l217 246q14 16 23 21t26 5h12q14 0 22 -1
t17.5 -7t18.5 -18l217 -246q9 -12 7 -21.5t-17 -9.5h-25q-24 0 -43 21l-188 215h-21l-188 -215q-19 -21 -43 -21h-25q-15 0 -18 9.5t8 21.5z" />
    <glyph glyph-name="Atilde" unicode="&#xc3;" horiz-adv-x="1175" 
d="M618 1434q25 0 35 -33l432 -1370q8 -31 -20 -31h-18q-15 0 -21.5 6.5t-11.5 24.5l-94 299h-666l-94 -299q-5 -18 -11.5 -24.5t-21.5 -6.5h-18q-29 0 -21 31l432 1370q10 33 37 33h61zM266 1780q-11 14 13 26q85 47 153 47q54 0 107.5 -26t106.5 -52t106 -26q62 0 116 37
q20 14 29 -6l12 -17q7 -16 -12 -28q-85 -47 -154 -47q-43 0 -86.5 16.5t-74 36.5t-74 36.5t-86.5 16.5q-54 0 -117 -39q-18 -13 -26 8zM274 391h627l-305 969h-16z" />
    <glyph glyph-name="Adieresis" unicode="&#xc4;" horiz-adv-x="1175" 
d="M618 1434q25 0 35 -33l432 -1370q8 -31 -20 -31h-18q-15 0 -21.5 6.5t-11.5 24.5l-94 299h-666l-94 -299q-5 -18 -11.5 -24.5t-21.5 -6.5h-18q-29 0 -21 31l432 1370q10 33 37 33h61zM274 391h627l-305 969h-16zM293 1786v33q0 15 4.5 19.5t19.5 4.5h33q15 0 20 -4.5
t5 -19.5v-33q0 -15 -5 -20t-20 -5h-33q-15 0 -19.5 5t-4.5 20zM803 1786v33q0 15 4.5 19.5t19.5 4.5h33q15 0 20 -4.5t5 -19.5v-33q0 -15 -5 -20t-20 -5h-33q-15 0 -19.5 5t-4.5 20z" />
    <glyph glyph-name="Aring" unicode="&#xc5;" horiz-adv-x="1175" 
d="M618 1434q25 0 35 -33l432 -1370q8 -31 -20 -31h-18q-15 0 -21.5 6.5t-11.5 24.5l-94 299h-666l-94 -299q-5 -18 -11.5 -24.5t-21.5 -6.5h-18q-29 0 -21 31l432 1370q10 33 37 33h61zM274 391h627l-305 969h-16zM403 1681v25q0 71 49 119.5t123 48.5h25q74 0 123 -48.5
t49 -119.5v-25q0 -71 -49 -119.5t-123 -48.5h-25q-74 0 -123 48.5t-49 119.5zM471 1686q0 -48 29 -77.5t80 -29.5h16q50 0 79.5 29.5t29.5 77.5v16q0 48 -29.5 77t-79.5 29h-16q-52 0 -80.5 -29t-28.5 -77v-16z" />
    <glyph glyph-name="AE" unicode="&#xc6;" horiz-adv-x="1804" 
d="M80 0q-15 0 -18.5 8.5t4.5 20.5l765 1374q10 17 18.5 24t22.5 7h818q15 0 20.5 -5t5.5 -20v-16q0 -15 -5.5 -21t-20.5 -6h-725v-612h663q15 0 21 -5t6 -20v-14q0 -15 -6 -20t-21 -5h-663v-622h725q28 0 28 -25v-18q0 -15 -6 -20t-22 -5h-766q-15 0 -21 5t-6 20v305h-586
l-166 -299q-10 -17 -18.5 -24t-22.5 -7h-24zM346 391h551v987z" />
    <glyph glyph-name="Ccedilla" unicode="&#xc7;" horiz-adv-x="1216" 
d="M621 -406q-95 0 -135 37.5t-40 116.5q0 23 21 23h22q8 0 14.5 -5t6.5 -12q-3 -53 24.5 -75.5t98.5 -22.5h41q65 0 91 17.5t26 58.5t-23.5 59.5t-73.5 18.5h-110q-32 0 -54 18.5t-22 50.5q0 48 61 111q-422 6 -422 407v639q0 408 435 408h82q215 0 320.5 -93t105.5 -290
v-8q0 -7 -5.5 -12t-11.5 -5h-37q-6 0 -10 5.5t-4 11.5q0 169 -84.5 246t-267.5 77h-95q-185 0 -272.5 -83t-87.5 -257v-639q0 -173 87.5 -256.5t272.5 -83.5h95q182 0 267 73t85 228q0 6 4 11.5t10 5.5h37q6 0 11.5 -5t5.5 -12v-10q0 -181 -106 -269.5t-320 -88.5h-19
q-124 -121 -20 -121h69q29 0 49.5 -2.5t43.5 -11t37 -23.5t23 -42t9 -64q0 -68 -39 -100t-133 -32h-63z" />
    <glyph glyph-name="Egrave" unicode="&#xc8;" horiz-adv-x="1056" 
d="M176 0q-16 0 -22.5 5.5t-6.5 19.5v1384q0 14 6.5 19.5t22.5 5.5h764q16 0 22.5 -5.5t6.5 -19.5v-16q0 -27 -29 -27h-725v-612h664q15 0 21.5 -5t6.5 -20v-14q0 -15 -6.5 -20t-21.5 -5h-664v-622h727q27 0 27 -25v-18q0 -15 -6 -20t-21 -5h-766zM350 1806q-11 17 -6 27
t23 10h24q16 0 26 -8t23 -29l162 -235q9 -17 2 -27t-22 -10h-13q-25 0 -51 37z" />
    <glyph glyph-name="Eacute" unicode="&#xc9;" horiz-adv-x="1056" 
d="M176 0q-16 0 -22.5 5.5t-6.5 19.5v1384q0 14 6.5 19.5t22.5 5.5h764q16 0 22.5 -5.5t6.5 -19.5v-16q0 -27 -29 -27h-725v-612h664q15 0 21.5 -5t6.5 -20v-14q0 -15 -6.5 -20t-21.5 -5h-664v-622h727q27 0 27 -25v-18q0 -15 -6 -20t-21 -5h-766zM535 1571l161 235
q13 20 23 28.5t24 8.5h23q18 0 24.5 -10t-4.5 -27l-168 -235q-29 -37 -51 -37h-12q-16 0 -22.5 10t2.5 27z" />
    <glyph glyph-name="Ecircumflex" unicode="&#xca;" horiz-adv-x="1056" 
d="M176 0q-16 0 -22.5 5.5t-6.5 19.5v1384q0 14 6.5 19.5t22.5 5.5h764q16 0 22.5 -5.5t6.5 -19.5v-16q0 -27 -29 -27h-725v-612h664q15 0 21.5 -5t6.5 -20v-14q0 -15 -6.5 -20t-21.5 -5h-664v-622h727q27 0 27 -25v-18q0 -15 -6 -20t-21 -5h-766zM274 1571l218 246
q14 16 23 21t26 5h12q14 0 21.5 -1t17 -7t18.5 -18l217 -246q9 -12 7 -21.5t-17 -9.5h-24q-24 0 -43 21l-189 215h-20l-189 -215q-19 -21 -43 -21h-24q-15 0 -18.5 9.5t7.5 21.5z" />
    <glyph glyph-name="Edieresis" unicode="&#xcb;" horiz-adv-x="1056" 
d="M176 0q-16 0 -22.5 5.5t-6.5 19.5v1384q0 14 6.5 19.5t22.5 5.5h764q16 0 22.5 -5.5t6.5 -19.5v-16q0 -27 -29 -27h-725v-612h664q15 0 21.5 -5t6.5 -20v-14q0 -15 -6.5 -20t-21.5 -5h-664v-622h727q27 0 27 -25v-18q0 -15 -6 -20t-21 -5h-766zM272 1786v33q0 15 5 19.5
t20 4.5h33q15 0 19.5 -4.5t4.5 -19.5v-33q0 -15 -4.5 -20t-19.5 -5h-33q-15 0 -20 5t-5 20zM782 1786v33q0 15 5 19.5t20 4.5h33q15 0 19.5 -4.5t4.5 -19.5v-33q0 -15 -4.5 -20t-19.5 -5h-33q-15 0 -20 5t-5 20z" />
    <glyph glyph-name="Igrave" unicode="&#xcc;" horiz-adv-x="364" 
d="M172 0q-15 0 -20 5t-5 20v1384q0 15 5 20t20 5h18q15 0 20 -5t5 -20v-1384q0 -15 -5 -20t-20 -5h-18zM-37 1806q-11 17 -6 27t23 10h24q16 0 26 -8t23 -29l162 -235q9 -17 2 -27t-22 -10h-13q-25 0 -51 37z" />
    <glyph glyph-name="Iacute" unicode="&#xcd;" horiz-adv-x="364" 
d="M172 0q-15 0 -20 5t-5 20v1384q0 15 5 20t20 5h18q15 0 20 -5t5 -20v-1384q0 -15 -5 -20t-20 -5h-18zM147 1571l162 235q13 20 23 28.5t24 8.5h23q18 0 24.5 -10t-4.5 -27l-168 -235q-29 -37 -51 -37h-12q-16 0 -23 10t2 27z" />
    <glyph glyph-name="Icircumflex" unicode="&#xce;" horiz-adv-x="364" 
d="M172 0q-15 0 -20 5t-5 20v1384q0 15 5 20t20 5h18q15 0 20 -5t5 -20v-1384q0 -15 -5 -20t-20 -5h-18zM-113 1571l217 246q23 26 50 26h12q14 0 21.5 -1t17 -7t18.5 -18l217 -246q9 -12 7 -21.5t-17 -9.5h-24q-25 0 -44 21l-188 215h-20l-189 -215q-19 -21 -43 -21h-24
q-15 0 -18.5 9.5t7.5 21.5z" />
    <glyph glyph-name="Idieresis" unicode="&#xcf;" horiz-adv-x="364" 
d="M172 0q-15 0 -20 5t-5 20v1384q0 15 5 20t20 5h18q15 0 20 -5t5 -20v-1384q0 -15 -5 -20t-20 -5h-18zM-115 1786v33q0 15 5 19.5t20 4.5h33q15 0 19.5 -4.5t4.5 -19.5v-33q0 -15 -4.5 -20t-19.5 -5h-33q-15 0 -20 5t-5 20zM395 1786v33q0 15 5 19.5t20 4.5h33
q15 0 19.5 -4.5t4.5 -19.5v-33q0 -15 -4.5 -20t-19.5 -5h-33q-15 0 -20 5t-5 20z" />
    <glyph glyph-name="Eth" unicode="&#xd0;" horiz-adv-x="1243" 
d="M184 0q-15 0 -19.5 5t-4.5 20v665h-133q-21 0 -21 21v20q0 21 21 21h133v657q0 15 4.5 20t19.5 5h478q434 0 434 -408v-618q0 -408 -434 -408h-478zM227 68h441q185 0 272.5 83.5t87.5 256.5v618q0 174 -87.5 257t-272.5 83h-441v-614h254q21 0 21 -21v-20q0 -21 -21 -21
h-254v-622z" />
    <glyph glyph-name="Ntilde" unicode="&#xd1;" horiz-adv-x="1183" 
d="M172 0q-15 0 -20 5t-5 20v1384q0 15 5 20t20 5h74q26 0 37 -23l669 -1350h15v1348q0 15 4.5 20t19.5 5h19q15 0 19.5 -5t4.5 -20v-1384q0 -15 -4.5 -20t-19.5 -5h-74q-23 0 -37 23l-668 1349h-16v-1347q0 -15 -5 -20t-20 -5h-18zM270 1780q-11 14 13 26q85 47 153 47
q54 0 107.5 -26t106.5 -52t106 -26q62 0 116 37q20 14 29 -6l12 -17q7 -16 -12 -28q-85 -47 -153 -47q-54 0 -107.5 26.5l-107 53t-107.5 26.5t-117 -39q-18 -13 -26 8z" />
    <glyph glyph-name="Ograve" unicode="&#xd2;" 
d="M582 -10q-218 0 -326.5 99.5t-108.5 307.5v639q0 208 108.5 308t326.5 100h98q434 0 434 -408v-639q0 -207 -109 -307t-325 -100h-98zM215 397q0 -173 86.5 -256.5t273.5 -83.5h111q185 0 273 83.5t88 256.5v639q0 174 -88 257t-273 83h-111q-188 0 -274 -82.5
t-86 -257.5v-639zM414 1806q-11 17 -6.5 27t22.5 10h25q16 0 26 -8t23 -29l162 -235q9 -17 1.5 -27t-22.5 -10h-12q-25 0 -51 37z" />
    <glyph glyph-name="Oacute" unicode="&#xd3;" 
d="M582 -10q-218 0 -326.5 99.5t-108.5 307.5v639q0 208 108.5 308t326.5 100h98q434 0 434 -408v-639q0 -207 -109 -307t-325 -100h-98zM215 397q0 -173 86.5 -256.5t273.5 -83.5h111q185 0 273 83.5t88 256.5v639q0 174 -88 257t-273 83h-111q-188 0 -274 -82.5
t-86 -257.5v-639zM598 1571l162 235q13 20 23 28.5t24 8.5h22q18 0 25 -10t-4 -27l-168 -235q-29 -37 -51 -37h-13q-16 0 -22.5 10t2.5 27z" />
    <glyph glyph-name="Ocircumflex" unicode="&#xd4;" 
d="M582 -10q-218 0 -326.5 99.5t-108.5 307.5v639q0 208 108.5 308t326.5 100h98q434 0 434 -408v-639q0 -207 -109 -307t-325 -100h-98zM215 397q0 -173 86.5 -256.5t273.5 -83.5h111q185 0 273 83.5t88 256.5v639q0 174 -88 257t-273 83h-111q-188 0 -274 -82.5
t-86 -257.5v-639zM338 1571l217 246q14 16 23 21t26 5h12q14 0 22 -1t17.5 -7t18.5 -18l217 -246q9 -12 7 -21.5t-17 -9.5h-25q-24 0 -43 21l-188 215h-21l-188 -215q-19 -21 -43 -21h-25q-15 0 -18 9.5t8 21.5z" />
    <glyph glyph-name="Otilde" unicode="&#xd5;" 
d="M582 -10q-218 0 -326.5 99.5t-108.5 307.5v639q0 208 108.5 308t326.5 100h98q434 0 434 -408v-639q0 -207 -109 -307t-325 -100h-98zM215 397q0 -173 86.5 -256.5t273.5 -83.5h111q185 0 273 83.5t88 256.5v639q0 174 -88 257t-273 83h-111q-188 0 -274 -82.5
t-86 -257.5v-639zM309 1780q-11 14 13 26q85 47 153 47q54 0 107.5 -26t106.5 -52t106 -26q62 0 116 37q20 14 29 -6l12 -17q7 -16 -12 -28q-85 -47 -154 -47q-43 0 -86.5 16.5t-74 36.5t-74 36.5t-86.5 16.5q-54 0 -117 -39q-18 -13 -26 8z" />
    <glyph glyph-name="Odieresis" unicode="&#xd6;" 
d="M582 -10q-218 0 -326.5 99.5t-108.5 307.5v639q0 208 108.5 308t326.5 100h98q434 0 434 -408v-639q0 -207 -109 -307t-325 -100h-98zM215 397q0 -173 86.5 -256.5t273.5 -83.5h111q185 0 273 83.5t88 256.5v639q0 174 -88 257t-273 83h-111q-188 0 -274 -82.5
t-86 -257.5v-639zM336 1786v33q0 15 4.5 19.5t19.5 4.5h33q15 0 20 -4.5t5 -19.5v-33q0 -15 -5 -20t-20 -5h-33q-15 0 -19.5 5t-4.5 20zM846 1786v33q0 15 4.5 19.5t19.5 4.5h33q15 0 20 -4.5t5 -19.5v-33q0 -15 -5 -20t-20 -5h-33q-15 0 -19.5 5t-4.5 20z" />
    <glyph glyph-name="multiply" unicode="&#xd7;" horiz-adv-x="798" 
d="M113 387q-11 11 -11 18t11 19l237 238l-235 235q-11 11 -11.5 18.5t9.5 18.5l12 16q17 18 39 -4l235 -235l238 235q11 11 18.5 12.5t18.5 -8.5l14 -16q10 -11 8.5 -18.5t-12.5 -18.5l-235 -235l239 -238q9 -13 9.5 -19.5t-9.5 -17.5l-14 -14q-10 -11 -17.5 -10.5
t-19.5 12.5l-238 237l-235 -237q-20 -21 -39 -2z" />
    <glyph glyph-name="Oslash" unicode="&#xd8;" 
d="M287 -72q-31 0 -19 29l39 94q-160 95 -160 346v639q0 208 108.5 308t326.5 100h98q116 0 219 -27l25 56q7 17 13.5 23.5t20.5 6.5h19q30 0 18 -30l-39 -93q158 -96 158 -344v-639q0 -207 -109 -307t-325 -100h-98q-133 0 -217 24l-25 -55q-12 -31 -35 -31h-18zM217 397
q0 -223 121 -284l534 1239q-59 24 -165 24h-132q-187 0 -272.5 -82.5t-85.5 -257.5v-639zM393 78q59 -21 160 -21h133q185 0 271.5 83.5t86.5 256.5v639q0 222 -114 283z" />
    <glyph glyph-name="Ugrave" unicode="&#xd9;" 
d="M582 -10q-218 0 -326.5 99.5t-108.5 307.5v1012q0 15 5 20t20 5h18q15 0 20 -5t5 -20v-1012q0 -173 86.5 -256.5t273.5 -83.5h111q185 0 273 83.5t88 256.5v1012q0 15 4.5 20t19.5 5h19q15 0 19.5 -5t4.5 -20v-1012q0 -207 -109 -307t-325 -100h-98zM414 1806
q-11 17 -6.5 27t22.5 10h25q16 0 26 -8t23 -29l162 -235q9 -17 1.5 -27t-22.5 -10h-12q-25 0 -51 37z" />
    <glyph glyph-name="Uacute" unicode="&#xda;" 
d="M582 -10q-218 0 -326.5 99.5t-108.5 307.5v1012q0 15 5 20t20 5h18q15 0 20 -5t5 -20v-1012q0 -173 86.5 -256.5t273.5 -83.5h111q185 0 273 83.5t88 256.5v1012q0 15 4.5 20t19.5 5h19q15 0 19.5 -5t4.5 -20v-1012q0 -207 -109 -307t-325 -100h-98zM598 1571l162 235
q13 20 23 28.5t24 8.5h22q18 0 25 -10t-4 -27l-168 -235q-29 -37 -51 -37h-13q-16 0 -22.5 10t2.5 27z" />
    <glyph glyph-name="Ucircumflex" unicode="&#xdb;" 
d="M582 -10q-218 0 -326.5 99.5t-108.5 307.5v1012q0 15 5 20t20 5h18q15 0 20 -5t5 -20v-1012q0 -173 86.5 -256.5t273.5 -83.5h111q185 0 273 83.5t88 256.5v1012q0 15 4.5 20t19.5 5h19q15 0 19.5 -5t4.5 -20v-1012q0 -207 -109 -307t-325 -100h-98zM338 1571l217 246
q14 16 23 21t26 5h12q14 0 22 -1t17.5 -7t18.5 -18l217 -246q9 -12 7 -21.5t-17 -9.5h-25q-24 0 -43 21l-188 215h-21l-188 -215q-19 -21 -43 -21h-25q-15 0 -18 9.5t8 21.5z" />
    <glyph glyph-name="Udieresis" unicode="&#xdc;" 
d="M582 -10q-218 0 -326.5 99.5t-108.5 307.5v1012q0 15 5 20t20 5h18q15 0 20 -5t5 -20v-1012q0 -173 86.5 -256.5t273.5 -83.5h111q185 0 273 83.5t88 256.5v1012q0 15 4.5 20t19.5 5h19q15 0 19.5 -5t4.5 -20v-1012q0 -207 -109 -307t-325 -100h-98zM336 1786v33
q0 15 4.5 19.5t19.5 4.5h33q15 0 20 -4.5t5 -19.5v-33q0 -15 -5 -20t-20 -5h-33q-15 0 -19.5 5t-4.5 20zM846 1786v33q0 15 4.5 19.5t19.5 4.5h33q15 0 20 -4.5t5 -19.5v-33q0 -15 -5 -20t-20 -5h-33q-15 0 -19.5 5t-4.5 20z" />
    <glyph glyph-name="Yacute" unicode="&#xdd;" horiz-adv-x="1107" 
d="M90 1405q-13 29 10 29h37q14 0 20 -6t15 -23l377 -752h10l377 752q6 12 9.5 17t9.5 8.5t16 3.5h35q25 0 12 -29l-430 -840v-540q0 -15 -5 -20t-20 -5h-18q-15 0 -20 5t-5 20v536zM520 1571l162 235q13 20 23 28.5t24 8.5h23q18 0 24.5 -10t-4.5 -27l-168 -235
q-29 -37 -51 -37h-12q-16 0 -23 10t2 27z" />
    <glyph glyph-name="Thorn" unicode="&#xde;" horiz-adv-x="1181" 
d="M172 0q-15 0 -20 5t-5 20v1384q0 15 5 20t20 5h18q15 0 20 -5t5 -20v-203h399q216 0 317 -93t101 -300v-190q0 -206 -101.5 -300t-316.5 -94h-399v-204q0 -15 -5 -20t-20 -5h-18zM215 297h403q186 0 266.5 76.5t80.5 249.5v190q0 174 -80.5 251t-266.5 77h-403v-844z" />
    <glyph glyph-name="germandbls" unicode="&#xdf;" horiz-adv-x="1105" 
d="M160 0q-23 0 -23 23v1077q0 163 97 253.5t255 90.5h89q158 0 254 -90.5t96 -253.5v-58q0 -108 -41.5 -170.5t-132.5 -103.5v-8q42 -14 70.5 -26t62 -35t53.5 -51.5t33.5 -73.5t13.5 -103v-111q0 -187 -94 -273.5t-293 -86.5h-80q-20 0 -20 20v21q0 20 20 20h80
q176 0 250 71.5t74 227.5v111q0 252 -342 252h-62q-20 0 -20 20v21q0 20 20 20h62q123 0 202.5 64.5t79.5 193.5v58q0 132 -72 206t-210 74h-97q-138 0 -210 -74t-72 -206v-1077q0 -23 -23 -23h-20z" />
    <glyph glyph-name="agrave" unicode="&#xe0;" horiz-adv-x="1038" 
d="M858 0q-22 0 -22 23v149h-17q-60 -82 -157.5 -132t-219.5 -50h-6q-172 0 -251 77t-79 224v43q0 256 312 256h418v104q0 69 -12.5 116t-44.5 84.5t-92.5 55t-151.5 17.5q-198 0 -308 -41q-16 -6 -20 10l-6 31q-3 15 8 18q118 47 307 47h35q182 0 266 -82t84 -250v-677
q0 -23 -22 -23h-21zM174 295q0 -123 61 -180.5t187 -57.5h55q138 0 248.5 93.5t110.5 207.5v168h-416q-124 0 -185 -45t-61 -153v-33zM324 1397q-11 17 -6.5 27t22.5 10h25q16 0 26 -8t23 -29l161 -236q9 -17 2 -27t-22 -10h-12q-25 0 -51 37z" />
    <glyph glyph-name="aacute" unicode="&#xe1;" horiz-adv-x="1038" 
d="M858 0q-22 0 -22 23v149h-17q-60 -82 -157.5 -132t-219.5 -50h-6q-172 0 -251 77t-79 224v43q0 256 312 256h418v104q0 69 -12.5 116t-44.5 84.5t-92.5 55t-151.5 17.5q-198 0 -308 -41q-16 -6 -20 10l-6 31q-3 15 8 18q118 47 307 47h35q182 0 266 -82t84 -250v-677
q0 -23 -22 -23h-21zM174 295q0 -123 61 -180.5t187 -57.5h55q138 0 248.5 93.5t110.5 207.5v168h-416q-124 0 -185 -45t-61 -153v-33zM506 1161l162 236q13 20 23 28.5t24 8.5h22q18 0 25 -10t-4 -27l-168 -236q-29 -37 -51 -37h-13q-16 0 -22.5 10t2.5 27z" />
    <glyph glyph-name="acircumflex" unicode="&#xe2;" horiz-adv-x="1038" 
d="M858 0q-22 0 -22 23v149h-17q-60 -82 -157.5 -132t-219.5 -50h-6q-172 0 -251 77t-79 224v43q0 256 312 256h418v104q0 69 -12.5 116t-44.5 84.5t-92.5 55t-151.5 17.5q-198 0 -308 -41q-16 -6 -20 10l-6 31q-3 15 8 18q118 47 307 47h35q182 0 266 -82t84 -250v-677
q0 -23 -22 -23h-21zM174 295q0 -123 61 -180.5t187 -57.5h55q138 0 248.5 93.5t110.5 207.5v168h-416q-124 0 -185 -45t-61 -153v-33zM248 1161l217 246q15 16 24 21.5t25 5.5h12q39 0 58 -27l217 -246q9 -12 7 -21.5t-17 -9.5h-25q-24 0 -43 21l-188 215h-21l-188 -215
q-19 -21 -43 -21h-25q-15 0 -18 9.5t8 21.5z" />
    <glyph glyph-name="atilde" unicode="&#xe3;" horiz-adv-x="1038" 
d="M858 0q-22 0 -22 23v149h-17q-60 -82 -157.5 -132t-219.5 -50h-6q-172 0 -251 77t-79 224v43q0 256 312 256h418v104q0 69 -12.5 116t-44.5 84.5t-92.5 55t-151.5 17.5q-198 0 -308 -41q-16 -6 -20 10l-6 31q-3 15 8 18q118 47 307 47h35q182 0 266 -82t84 -250v-677
q0 -23 -22 -23h-21zM174 295q0 -123 61 -180.5t187 -57.5h55q138 0 248.5 93.5t110.5 207.5v168h-416q-124 0 -185 -45t-61 -153v-33zM219 1370q-11 15 12 27q85 47 154 47q43 0 86.5 -16.5t74 -36t74 -36t85.5 -16.5q62 0 116 37q20 14 29 -6l12 -16q7 -17 -12 -29
q-85 -47 -154 -47q-43 0 -86.5 16.5t-74 36.5t-74 36.5t-86.5 16.5q-55 0 -117 -38q-19 -14 -27 8z" />
    <glyph glyph-name="adieresis" unicode="&#xe4;" horiz-adv-x="1038" 
d="M858 0q-22 0 -22 23v149h-17q-60 -82 -157.5 -132t-219.5 -50h-6q-172 0 -251 77t-79 224v43q0 256 312 256h418v104q0 69 -12.5 116t-44.5 84.5t-92.5 55t-151.5 17.5q-198 0 -308 -41q-16 -6 -20 10l-6 31q-3 15 8 18q118 47 307 47h35q182 0 266 -82t84 -250v-677
q0 -23 -22 -23h-21zM174 295q0 -123 61 -180.5t187 -57.5h55q138 0 248.5 93.5t110.5 207.5v168h-416q-124 0 -185 -45t-61 -153v-33zM246 1376v33q0 15 4.5 20t19.5 5h33q15 0 20 -5t5 -20v-33q0 -15 -5 -19.5t-20 -4.5h-33q-15 0 -19.5 4.5t-4.5 19.5zM756 1376v33
q0 15 4.5 20t19.5 5h33q15 0 20 -5t5 -20v-33q0 -15 -5 -19.5t-20 -4.5h-33q-15 0 -19.5 4.5t-4.5 19.5z" />
    <glyph glyph-name="aring" unicode="&#xe5;" horiz-adv-x="1038" 
d="M858 0q-22 0 -22 23v149h-17q-60 -82 -157.5 -132t-219.5 -50h-6q-172 0 -251 77t-79 224v43q0 256 312 256h418v104q0 69 -12.5 116t-44.5 84.5t-92.5 55t-151.5 17.5q-198 0 -308 -41q-16 -6 -20 10l-6 31q-3 15 8 18q118 47 307 47h35q182 0 266 -82t84 -250v-677
q0 -23 -22 -23h-21zM174 295q0 -123 61 -180.5t187 -57.5h55q138 0 248.5 93.5t110.5 207.5v168h-416q-124 0 -185 -45t-61 -153v-33zM356 1272v24q0 71 49 119.5t123 48.5h25q74 0 123 -48.5t49 -119.5v-24q0 -71 -49 -119.5t-123 -48.5h-25q-74 0 -123 48.5t-49 119.5z
M424 1276q0 -48 28.5 -77.5t79.5 -29.5h17q50 0 79 29.5t29 77.5v16q0 48 -29 77.5t-79 29.5h-17q-51 0 -79.5 -29.5t-28.5 -77.5v-16z" />
    <glyph glyph-name="ae" unicode="&#xe6;" horiz-adv-x="1744" 
d="M436 -10q-176 0 -253 64.5t-77 211.5v41q0 118 84 178t228 60h418v157q0 68 -12.5 114t-45 81.5t-92.5 52.5t-151 17q-198 0 -308 -41q-16 -6 -20 10l-6 31q-3 15 8 18q118 47 307 47h35q256 0 323 -168q41 81 122 124.5t190 43.5h92q165 0 256.5 -87t91.5 -251v-149
q0 -29 -17 -46.5t-46 -17.5h-662v-143q0 -134 79 -210.5t241 -76.5h20q184 0 299 88q14 11 23 2l20 -22q9 -12 -2 -23q-44 -44 -133 -75t-213 -31h-16q-297 0 -365 219q-53 -99 -163 -159t-242 -60h-13zM174 270q0 -122 58.5 -167.5t189.5 -45.5h55q138 0 248.5 93.5
t110.5 207.5v125h-416q-246 0 -246 -178v-35zM901 543h662v149q0 133 -69.5 205t-213.5 72h-96q-141 0 -212 -75t-71 -208v-143z" />
    <glyph glyph-name="ccedilla" unicode="&#xe7;" horiz-adv-x="1001" 
d="M508 -10q-190 0 -290.5 88.5t-100.5 255.5v354q0 163 95.5 253.5t256.5 90.5h84q156 0 249 -77t93 -214v-12q0 -20 -23 -20h-22q-21 0 -21 20v8q0 107 -70.5 169.5t-201.5 62.5h-92q-138 0 -210.5 -75.5t-72.5 -207.5v-358q0 -131 80.5 -203t245.5 -72h12
q131 0 192.5 27.5t104.5 93.5q9 14 15.5 16.5t29.5 -4.5l2 -2q14 -7 17 -15.5t-4 -21.5q-73 -138 -283 -155q-128 -123 -23 -123h70q29 0 49.5 -2.5t43.5 -11t37 -23.5t23 -42t9 -64q0 -68 -39 -100t-133 -32h-64q-95 0 -134.5 37.5t-39.5 116.5q0 23 21 23h22q8 0 14.5 -5
t6.5 -12q-3 -53 24.5 -75.5t98.5 -22.5h41q65 0 90.5 17.5t25.5 58.5t-23 59.5t-73 18.5h-111q-32 0 -53.5 18.5t-21.5 50.5q0 48 61 111h-8z" />
    <glyph glyph-name="egrave" unicode="&#xe8;" horiz-adv-x="1026" 
d="M500 -10q-188 0 -285.5 90t-97.5 254v354q0 163 94.5 253.5t255.5 90.5h92q165 0 256.5 -87t91.5 -251v-149q0 -29 -17 -46.5t-46 -17.5h-662v-143q0 -134 79 -210.5t241 -76.5h20q184 0 299 88q14 11 23 2l20 -22q9 -12 -2 -23q-44 -44 -133 -75t-213 -31h-16zM182 543
h662v149q0 133 -69.5 205t-213.5 72h-96q-141 0 -212 -75t-71 -208v-143zM297 1397q-11 17 -6.5 27t22.5 10h25q16 0 26 -8t23 -29l162 -236q9 -17 1.5 -27t-22.5 -10h-12q-25 0 -51 37z" />
    <glyph glyph-name="eacute" unicode="&#xe9;" horiz-adv-x="1026" 
d="M500 -10q-188 0 -285.5 90t-97.5 254v354q0 163 94.5 253.5t255.5 90.5h92q165 0 256.5 -87t91.5 -251v-149q0 -29 -17 -46.5t-46 -17.5h-662v-143q0 -134 79 -210.5t241 -76.5h20q184 0 299 88q14 11 23 2l20 -22q9 -12 -2 -23q-44 -44 -133 -75t-213 -31h-16zM182 543
h662v149q0 133 -69.5 205t-213.5 72h-96q-141 0 -212 -75t-71 -208v-143zM479 1161l162 236q13 20 23 28.5t24 8.5h23q18 0 24.5 -10t-4.5 -27l-168 -236q-29 -37 -51 -37h-12q-16 0 -23 10t2 27z" />
    <glyph glyph-name="ecircumflex" unicode="&#xea;" horiz-adv-x="1026" 
d="M500 -10q-188 0 -285.5 90t-97.5 254v354q0 163 94.5 253.5t255.5 90.5h92q165 0 256.5 -87t91.5 -251v-149q0 -29 -17 -46.5t-46 -17.5h-662v-143q0 -134 79 -210.5t241 -76.5h20q184 0 299 88q14 11 23 2l20 -22q9 -12 -2 -23q-44 -44 -133 -75t-213 -31h-16zM182 543
h662v149q0 133 -69.5 205t-213.5 72h-96q-141 0 -212 -75t-71 -208v-143zM221 1161l217 246q15 16 24 21.5t25 5.5h13q38 0 57 -27l217 -246q9 -12 7 -21.5t-17 -9.5h-25q-24 0 -43 21l-188 215h-21l-188 -215q-19 -21 -43 -21h-25q-15 0 -18 9.5t8 21.5z" />
    <glyph glyph-name="edieresis" unicode="&#xeb;" horiz-adv-x="1026" 
d="M500 -10q-188 0 -285.5 90t-97.5 254v354q0 163 94.5 253.5t255.5 90.5h92q165 0 256.5 -87t91.5 -251v-149q0 -29 -17 -46.5t-46 -17.5h-662v-143q0 -134 79 -210.5t241 -76.5h20q184 0 299 88q14 11 23 2l20 -22q9 -12 -2 -23q-44 -44 -133 -75t-213 -31h-16zM182 543
h662v149q0 133 -69.5 205t-213.5 72h-96q-141 0 -212 -75t-71 -208v-143zM219 1376v33q0 15 5 20t20 5h32q15 0 20 -5t5 -20v-33q0 -15 -5 -19.5t-20 -4.5h-32q-15 0 -20 4.5t-5 19.5zM729 1376v33q0 15 5 20t20 5h32q15 0 20 -5t5 -20v-33q0 -15 -5 -19.5t-20 -4.5h-32
q-15 0 -20 4.5t-5 19.5z" />
    <glyph glyph-name="igrave" unicode="&#xec;" horiz-adv-x="288" 
d="M135 0q-22 0 -22 23v978q0 23 22 23h21q20 0 20 -23v-978q0 -23 -20 -23h-21zM-72 1397q-11 17 -6 27t23 10h24q16 0 26 -8t23 -29l162 -236q9 -17 2 -27t-22 -10h-13q-25 0 -51 37z" />
    <glyph glyph-name="iacute" unicode="&#xed;" horiz-adv-x="288" 
d="M135 0q-22 0 -22 23v978q0 23 22 23h21q20 0 20 -23v-978q0 -23 -20 -23h-21zM113 1161l161 236q24 37 48 37h22q18 0 25 -10t-4 -27l-168 -236q-29 -37 -52 -37h-12q-16 0 -22.5 10t2.5 27z" />
    <glyph glyph-name="icircumflex" unicode="&#xee;" horiz-adv-x="288" 
d="M135 0q-22 0 -22 23v978q0 23 22 23h21q20 0 20 -23v-978q0 -23 -20 -23h-21zM-147 1161l217 246q15 16 24 21.5t25 5.5h12q38 0 57 -27l218 -246q9 -12 6.5 -21.5t-17.5 -9.5h-24q-24 0 -43 21l-189 215h-20l-189 -215q-19 -21 -43 -21h-24q-15 0 -18 9.5t8 21.5z" />
    <glyph glyph-name="idieresis" unicode="&#xef;" horiz-adv-x="288" 
d="M135 0q-22 0 -22 23v978q0 23 22 23h21q20 0 20 -23v-978q0 -23 -20 -23h-21zM-150 1376v33q0 15 5 20t20 5h33q15 0 19.5 -5t4.5 -20v-33q0 -15 -4.5 -19.5t-19.5 -4.5h-33q-15 0 -20 4.5t-5 19.5zM360 1376v33q0 15 5 20t20 5h33q15 0 19.5 -5t4.5 -20v-33
q0 -15 -4.5 -19.5t-19.5 -4.5h-33q-15 0 -20 4.5t-5 19.5z" />
    <glyph glyph-name="eth" unicode="&#xf0;" horiz-adv-x="1021" 
d="M608 1135l236 186v90q0 23 22 23h21q22 0 22 -23v-39h97l-97 -74v-1275q0 -23 -22 -23h-21q-22 0 -22 23v102h-15q-35 -65 -104.5 -100t-163.5 -35h-90q-170 0 -262 87.5t-92 258.5v350q0 171 92 258.5t262 87.5h90q93 0 163 -35t105 -98h15v348l-146 -112h-90zM182 338
q0 -285 291 -285h86q139 0 212 74t73 205v358q0 131 -73 205t-212 74h-86q-291 0 -291 -285v-346z" />
    <glyph glyph-name="ntilde" unicode="&#xf1;" horiz-adv-x="1067" 
d="M160 0q-23 0 -23 23v978q0 23 23 23h20q14 0 18.5 -5.5t4.5 -17.5v-98h16q94 129 285 129h82q177 0 260.5 -85.5t83.5 -260.5v-663q0 -23 -25 -23h-18q-23 0 -23 23v661q0 142 -67.5 213.5t-218.5 71.5h-66q-150 0 -229.5 -74.5t-79.5 -206.5v-665q0 -12 -4.5 -17.5
t-18.5 -5.5h-20zM211 1370q-11 15 12 27q85 47 154 47q43 0 86.5 -16.5t74 -36t73.5 -36t85 -16.5q63 0 117 37q20 14 29 -6l12 -16q7 -17 -12 -29q-85 -47 -154 -47q-43 0 -86.5 16.5t-74 36.5t-74 36.5t-86.5 16.5q-55 0 -117 -38q-19 -14 -27 8z" />
    <glyph glyph-name="ograve" unicode="&#xf2;" horiz-adv-x="1026" 
d="M469 -10q-165 0 -258.5 87.5t-93.5 250.5v366q0 163 93.5 250.5t258.5 87.5h88q164 0 258 -87.5t94 -250.5v-366q0 -163 -94.5 -250.5t-257.5 -87.5h-88zM182 330q0 -133 70 -205t213 -72h96q143 0 213 72t70 205v362q0 133 -70 205t-213 72h-96q-143 0 -213 -72
t-70 -205v-362zM295 1397q-11 17 -6.5 27t22.5 10h25q16 0 26 -8t23 -29l162 -236q9 -17 1.5 -27t-22.5 -10h-12q-25 0 -51 37z" />
    <glyph glyph-name="oacute" unicode="&#xf3;" horiz-adv-x="1026" 
d="M469 -10q-165 0 -258.5 87.5t-93.5 250.5v366q0 163 93.5 250.5t258.5 87.5h88q164 0 258 -87.5t94 -250.5v-366q0 -163 -94.5 -250.5t-257.5 -87.5h-88zM182 330q0 -133 70 -205t213 -72h96q143 0 213 72t70 205v362q0 133 -70 205t-213 72h-96q-143 0 -213 -72
t-70 -205v-362zM479 1161l162 236q13 20 23 28.5t24 8.5h23q18 0 24.5 -10t-4.5 -27l-168 -236q-29 -37 -51 -37h-12q-16 0 -23 10t2 27z" />
    <glyph glyph-name="ocircumflex" unicode="&#xf4;" horiz-adv-x="1026" 
d="M469 -10q-165 0 -258.5 87.5t-93.5 250.5v366q0 163 93.5 250.5t258.5 87.5h88q164 0 258 -87.5t94 -250.5v-366q0 -163 -94.5 -250.5t-257.5 -87.5h-88zM182 330q0 -133 70 -205t213 -72h96q143 0 213 72t70 205v362q0 133 -70 205t-213 72h-96q-143 0 -213 -72
t-70 -205v-362zM219 1161l217 246q15 16 24 21.5t25 5.5h13q38 0 57 -27l217 -246q9 -12 7 -21.5t-17 -9.5h-25q-24 0 -43 21l-188 215h-21l-188 -215q-19 -21 -43 -21h-25q-15 0 -18 9.5t8 21.5z" />
    <glyph glyph-name="otilde" unicode="&#xf5;" horiz-adv-x="1026" 
d="M469 -10q-165 0 -258.5 87.5t-93.5 250.5v366q0 163 93.5 250.5t258.5 87.5h88q164 0 258 -87.5t94 -250.5v-366q0 -163 -94.5 -250.5t-257.5 -87.5h-88zM182 330q0 -133 70 -205t213 -72h96q143 0 213 72t70 205v362q0 133 -70 205t-213 72h-96q-143 0 -213 -72
t-70 -205v-362zM190 1370q-11 15 13 27q85 47 153 47q43 0 86.5 -16.5t74 -36t74 -36t85.5 -16.5q63 0 117 37q19 14 28 -6l13 -16q7 -17 -13 -29q-85 -47 -153 -47q-54 0 -107.5 26.5l-107 53t-107.5 26.5q-55 0 -117 -38q-18 -13 -26 8z" />
    <glyph glyph-name="odieresis" unicode="&#xf6;" horiz-adv-x="1026" 
d="M469 -10q-165 0 -258.5 87.5t-93.5 250.5v366q0 163 93.5 250.5t258.5 87.5h88q164 0 258 -87.5t94 -250.5v-366q0 -163 -94.5 -250.5t-257.5 -87.5h-88zM182 330q0 -133 70 -205t213 -72h96q143 0 213 72t70 205v362q0 133 -70 205t-213 72h-96q-143 0 -213 -72
t-70 -205v-362zM217 1376v33q0 15 5 20t20 5h32q15 0 20 -5t5 -20v-33q0 -15 -5 -19.5t-20 -4.5h-32q-15 0 -20 4.5t-5 19.5zM727 1376v33q0 15 5 20t20 5h32q15 0 20 -5t5 -20v-33q0 -15 -5 -19.5t-20 -4.5h-32q-15 0 -20 4.5t-5 19.5z" />
    <glyph glyph-name="divide" unicode="&#xf7;" horiz-adv-x="999" 
d="M475 913q-31 0 -31 31v55q0 31 31 31h53q31 0 31 -31v-55q0 -31 -31 -31h-53zM102 649v23q0 14 6.5 19t22.5 5h741q15 0 20 -4.5t5 -19.5v-23q0 -15 -5 -19.5t-22 -4.5h-739q-16 0 -22.5 5t-6.5 19zM444 324v55q0 31 31 31h53q31 0 31 -31v-55q0 -31 -31 -31h-53
q-31 0 -31 31z" />
    <glyph glyph-name="oslash" unicode="&#xf8;" horiz-adv-x="1026" 
d="M268 -43q-28 0 -18 23l22 51q-155 84 -155 297v366q0 163 93.5 250.5t258.5 87.5h106q67 0 130 -18l10 26q7 17 28 17h17q25 0 18 -21l-22 -47q153 -83 153 -295v-366q0 -163 -94.5 -250.5t-257.5 -87.5h-106q-78 0 -121 14l-17 -31q-4 -7 -5.5 -9t-7.5 -4.5t-15 -2.5
h-17zM180 328q0 -79 30 -140.5t85 -97.5l381 864q-40 15 -94 15h-117q-143 0 -214 -72.5t-71 -204.5v-364zM354 68q51 -15 90 -15h117q143 0 214 72.5t71 204.5v364q0 156 -109 238z" />
    <glyph glyph-name="ugrave" unicode="&#xf9;" horiz-adv-x="1067" 
d="M481 -8q-177 0 -260.5 85.5t-83.5 260.5v663q0 12 4.5 17.5t18.5 5.5h20q23 0 23 -23v-661q0 -142 67.5 -213.5t218.5 -71.5h66q149 0 229 74.5t80 206.5v665q0 12 4.5 17.5t18.5 5.5h20q23 0 23 -23v-978q0 -23 -23 -23h-20q-14 0 -18.5 5.5t-4.5 17.5v98h-16
q-94 -129 -285 -129h-82zM283 1397q-11 17 -6.5 27t22.5 10h25q16 0 26 -8t23 -29l162 -236q9 -17 1.5 -27t-22.5 -10h-12q-25 0 -51 37z" />
    <glyph glyph-name="uacute" unicode="&#xfa;" horiz-adv-x="1067" 
d="M481 -8q-177 0 -260.5 85.5t-83.5 260.5v663q0 12 4.5 17.5t18.5 5.5h20q23 0 23 -23v-661q0 -142 67.5 -213.5t218.5 -71.5h66q149 0 229 74.5t80 206.5v665q0 12 4.5 17.5t18.5 5.5h20q23 0 23 -23v-978q0 -23 -23 -23h-20q-14 0 -18.5 5.5t-4.5 17.5v98h-16
q-94 -129 -285 -129h-82zM467 1161l162 236q13 20 23 28.5t24 8.5h22q18 0 25 -10t-4 -27l-168 -236q-29 -37 -51 -37h-13q-16 0 -22.5 10t2.5 27z" />
    <glyph glyph-name="ucircumflex" unicode="&#xfb;" horiz-adv-x="1067" 
d="M481 -8q-177 0 -260.5 85.5t-83.5 260.5v663q0 12 4.5 17.5t18.5 5.5h20q23 0 23 -23v-661q0 -142 67.5 -213.5t218.5 -71.5h66q149 0 229 74.5t80 206.5v665q0 12 4.5 17.5t18.5 5.5h20q23 0 23 -23v-978q0 -23 -23 -23h-20q-14 0 -18.5 5.5t-4.5 17.5v98h-16
q-94 -129 -285 -129h-82zM209 1161l217 246q15 16 24 21.5t25 5.5h12q39 0 58 -27l217 -246q9 -12 7 -21.5t-17 -9.5h-25q-24 0 -43 21l-188 215h-21l-188 -215q-19 -21 -43 -21h-25q-15 0 -18 9.5t8 21.5z" />
    <glyph glyph-name="udieresis" unicode="&#xfc;" horiz-adv-x="1067" 
d="M481 -8q-177 0 -260.5 85.5t-83.5 260.5v663q0 12 4.5 17.5t18.5 5.5h20q23 0 23 -23v-661q0 -142 67.5 -213.5t218.5 -71.5h66q149 0 229 74.5t80 206.5v665q0 12 4.5 17.5t18.5 5.5h20q23 0 23 -23v-978q0 -23 -23 -23h-20q-14 0 -18.5 5.5t-4.5 17.5v98h-16
q-94 -129 -285 -129h-82zM207 1376v33q0 15 4.5 20t19.5 5h33q15 0 20 -5t5 -20v-33q0 -15 -5 -19.5t-20 -4.5h-33q-15 0 -19.5 4.5t-4.5 19.5zM717 1376v33q0 15 4.5 20t19.5 5h33q15 0 20 -5t5 -20v-33q0 -15 -5 -19.5t-20 -4.5h-33q-15 0 -19.5 4.5t-4.5 19.5z" />
    <glyph glyph-name="yacute" unicode="&#xfd;" horiz-adv-x="1030" 
d="M375 -362q-25 0 -17 28l121 309l-391 1020q-5 12 -3 20.5t15 8.5h31q13 0 18.5 -7t12.5 -26l346 -921h10l348 921q5 14 7.5 19.5t8 9.5t15.5 4h31q14 0 16 -8.5t-2 -20.5l-514 -1329q-4 -10 -6.5 -14t-9 -9t-15.5 -5h-22zM479 1161l162 236q13 20 23 28.5t24 8.5h23
q18 0 24.5 -10t-4.5 -27l-168 -236q-29 -37 -51 -37h-12q-16 0 -23 10t2 27z" />
    <glyph glyph-name="thorn" unicode="&#xfe;" horiz-adv-x="1046" 
d="M485 -10q-94 0 -164.5 35.5t-105.5 99.5h-12v-465q0 -22 -23 -22h-20q-23 0 -23 22v1751q0 23 23 23h20q23 0 23 -23v-512h12q35 63 106 98t164 35h90q169 0 262 -88t93 -258v-350q0 -170 -93 -258t-262 -88h-90zM203 332q0 -131 72.5 -205t211.5 -74h86q291 0 291 285
v346q0 285 -291 285h-86q-139 0 -211.5 -74t-72.5 -205v-358z" />
    <glyph glyph-name="ydieresis" unicode="&#xff;" horiz-adv-x="1030" 
d="M375 -362q-25 0 -17 28l121 309l-391 1020q-5 12 -3 20.5t15 8.5h31q13 0 18.5 -7t12.5 -26l346 -921h10l348 921q5 14 7.5 19.5t8 9.5t15.5 4h31q14 0 16 -8.5t-2 -20.5l-514 -1329q-4 -10 -6.5 -14t-9 -9t-15.5 -5h-22zM217 1376v33q0 15 5 20t20 5h32q15 0 20 -5
t5 -20v-33q0 -15 -5 -19.5t-20 -4.5h-32q-15 0 -20 4.5t-5 19.5zM727 1376v33q0 15 5 20t20 5h32q15 0 20 -5t5 -20v-33q0 -15 -5 -19.5t-20 -4.5h-32q-15 0 -20 4.5t-5 19.5z" />
    <glyph glyph-name="Amacron" unicode="&#x100;" horiz-adv-x="1175" 
d="M618 1434q25 0 35 -33l432 -1370q8 -31 -20 -31h-18q-15 0 -21.5 6.5t-11.5 24.5l-94 299h-666l-94 -299q-5 -18 -11.5 -24.5t-21.5 -6.5h-18q-29 0 -21 31l432 1370q10 33 37 33h61zM225 1800v15q0 28 29 28h668q28 0 28 -28v-15q0 -28 -28 -28h-668q-29 0 -29 28z
M274 391h627l-305 969h-16z" />
    <glyph glyph-name="amacron" unicode="&#x101;" horiz-adv-x="1038" 
d="M858 0q-22 0 -22 23v149h-17q-60 -82 -157.5 -132t-219.5 -50h-6q-172 0 -251 77t-79 224v43q0 256 312 256h418v104q0 69 -12.5 116t-44.5 84.5t-92.5 55t-151.5 17.5q-198 0 -308 -41q-16 -6 -20 10l-6 31q-3 15 8 18q118 47 307 47h35q182 0 266 -82t84 -250v-677
q0 -23 -22 -23h-21zM174 295q0 -123 61 -180.5t187 -57.5h55q138 0 248.5 93.5t110.5 207.5v168h-416q-124 0 -185 -45t-61 -153v-33zM178 1391v14q0 29 29 29h667q29 0 29 -29v-14q0 -29 -29 -29h-667q-29 0 -29 29z" />
    <glyph glyph-name="Abreve" unicode="&#x102;" horiz-adv-x="1175" 
d="M618 1434q25 0 35 -33l432 -1370q8 -31 -20 -31h-18q-15 0 -21.5 6.5t-11.5 24.5l-94 299h-666l-94 -299q-5 -18 -11.5 -24.5t-21.5 -6.5h-18q-29 0 -21 31l432 1370q10 33 37 33h61zM274 391h627l-305 969h-16zM334 1817q0 26 24 26h17q24 0 24 -26q0 -77 39.5 -121.5
t112.5 -44.5h72q73 0 112 44t39 122q0 26 25 26h16q25 0 25 -26q0 -228 -224 -228h-61q-107 0 -164 57t-57 171z" />
    <glyph glyph-name="abreve" unicode="&#x103;" horiz-adv-x="1038" 
d="M858 0q-22 0 -22 23v149h-17q-60 -82 -157.5 -132t-219.5 -50h-6q-172 0 -251 77t-79 224v43q0 256 312 256h418v104q0 69 -12.5 116t-44.5 84.5t-92.5 55t-151.5 17.5q-198 0 -308 -41q-16 -6 -20 10l-6 31q-3 15 8 18q118 47 307 47h35q182 0 266 -82t84 -250v-677
q0 -23 -22 -23h-21zM174 295q0 -123 61 -180.5t187 -57.5h55q138 0 248.5 93.5t110.5 207.5v168h-416q-124 0 -185 -45t-61 -153v-33zM287 1407q0 27 24 27h17q24 0 24 -27q0 -77 39.5 -121.5t112.5 -44.5h71q73 0 112.5 44.5t39.5 121.5q0 27 25 27h16q25 0 25 -27
q0 -227 -224 -227h-61q-107 0 -164 56.5t-57 170.5z" />
    <glyph glyph-name="Aogonek" unicode="&#x104;" horiz-adv-x="1124" 
d="M891 -410q-98 0 -135 33t-37 111q0 22 1.5 38.5t8 30t11.5 22t19.5 15.5t22.5 11t31.5 7.5t36.5 5.5t45 5l94 10q43 6 51.5 18.5t1.5 41.5l-122 391h-666l-94 -299q-5 -18 -11.5 -24.5t-21.5 -6.5h-18q-29 0 -21 31l432 1370q10 33 37 33h61q25 0 35 -33l457 -1446
q19 -59 -3 -92t-75 -39l-188 -25q-36 -3 -49 -15t-13 -52q0 -51 22.5 -67.5t92.5 -16.5h180q21 0 21 -21v-16q0 -21 -21 -21h-186zM274 391h627l-305 969h-16z" />
    <glyph glyph-name="aogonek" unicode="&#x105;" horiz-adv-x="1038" 
d="M436 -10q-172 0 -251 77t-79 224v43q0 256 312 256h418v104q0 69 -12.5 116t-44.5 84.5t-92.5 55t-151.5 17.5q-198 0 -308 -41q-16 -6 -20 10l-6 31q-3 15 8 18q118 47 307 47h35q182 0 266 -82t84 -250v-745q0 -66 -15 -91.5t-63 -29.5l-194 -24q-20 -3 -28.5 -5
t-18 -9.5t-12.5 -21.5t-3 -38q0 -53 22.5 -70.5t92.5 -17.5h180q21 0 21 -21v-16q0 -21 -21 -21h-186q-98 0 -135 33t-37 111q0 22 1.5 38.5t8 30t11.5 22t19.5 15.5t22.5 11t31.5 7.5t36.5 5.5t45 5l92 10q23 3 36.5 8.5t19 15t7 18t1.5 24.5v227h-17q-60 -82 -157.5 -132
t-219.5 -50h-6zM174 295q0 -123 61 -180.5t187 -57.5h55q138 0 248.5 93.5t110.5 207.5v168h-416q-124 0 -185 -45t-61 -153v-33z" />
    <glyph glyph-name="Cacute" unicode="&#x106;" horiz-adv-x="1216" 
d="M582 -10q-435 0 -435 407v639q0 408 435 408h82q215 0 320.5 -93t105.5 -290v-8q0 -7 -5.5 -12t-11.5 -5h-37q-6 0 -10 5.5t-4 11.5q0 169 -84.5 246t-267.5 77h-95q-185 0 -272.5 -83t-87.5 -257v-639q0 -173 87.5 -256.5t272.5 -83.5h95q182 0 267 73t85 228
q0 6 4 11.5t10 5.5h37q6 0 11.5 -5t5.5 -12v-10q0 -181 -106 -269.5t-320 -88.5h-82zM588 1571l162 235q13 20 23 28.5t24 8.5h22q18 0 25 -10t-4 -27l-168 -235q-29 -37 -51 -37h-13q-16 0 -22.5 10t2.5 27z" />
    <glyph glyph-name="cacute" unicode="&#x107;" horiz-adv-x="1001" 
d="M508 -10q-190 0 -290.5 88.5t-100.5 255.5v354q0 163 95.5 253.5t256.5 90.5h84q156 0 249 -77t93 -214v-12q0 -20 -23 -20h-22q-21 0 -21 20v8q0 107 -70.5 169.5t-201.5 62.5h-92q-138 0 -210.5 -75.5t-72.5 -207.5v-358q0 -131 80.5 -203t245.5 -72h12
q131 0 192.5 27.5t104.5 93.5q9 14 15.5 16.5t29.5 -4.5l2 -2q14 -7 17 -15.5t-4 -21.5q-18 -34 -43.5 -60t-66 -49.5t-102.5 -35.5t-143 -12h-14zM479 1161l162 236q13 20 23 28.5t24 8.5h23q18 0 24.5 -10t-4.5 -27l-168 -236q-29 -37 -51 -37h-12q-16 0 -23 10t2 27z" />
    <glyph glyph-name="Ccircumflex" unicode="&#x108;" horiz-adv-x="1216" 
d="M582 -10q-435 0 -435 407v639q0 408 435 408h82q215 0 320.5 -93t105.5 -290v-8q0 -7 -5.5 -12t-11.5 -5h-37q-6 0 -10 5.5t-4 11.5q0 169 -84.5 246t-267.5 77h-95q-185 0 -272.5 -83t-87.5 -257v-639q0 -173 87.5 -256.5t272.5 -83.5h95q182 0 267 73t85 228
q0 6 4 11.5t10 5.5h37q6 0 11.5 -5t5.5 -12v-10q0 -181 -106 -269.5t-320 -88.5h-82zM328 1571l217 246q14 16 23 21t26 5h12q14 0 22 -1t17.5 -7t18.5 -18l217 -246q9 -12 6.5 -21.5t-17.5 -9.5h-24q-24 0 -43 21l-189 215h-20l-188 -215q-19 -21 -44 -21h-24
q-15 0 -18 9.5t8 21.5z" />
    <glyph glyph-name="ccircumflex" unicode="&#x109;" horiz-adv-x="1001" 
d="M508 -10q-190 0 -290.5 88.5t-100.5 255.5v354q0 163 95.5 253.5t256.5 90.5h84q156 0 249 -77t93 -214v-12q0 -20 -23 -20h-22q-21 0 -21 20v8q0 107 -70.5 169.5t-201.5 62.5h-92q-138 0 -210.5 -75.5t-72.5 -207.5v-358q0 -131 80.5 -203t245.5 -72h12
q131 0 192.5 27.5t104.5 93.5q9 14 15.5 16.5t29.5 -4.5l2 -2q14 -7 17 -15.5t-4 -21.5q-18 -34 -43.5 -60t-66 -49.5t-102.5 -35.5t-143 -12h-14zM219 1161l217 246q15 16 24 21.5t25 5.5h13q38 0 57 -27l217 -246q9 -12 7 -21.5t-17 -9.5h-25q-24 0 -43 21l-188 215h-21
l-188 -215q-19 -21 -43 -21h-25q-15 0 -18 9.5t8 21.5z" />
    <glyph glyph-name="Cdotaccent" unicode="&#x10a;" horiz-adv-x="1216" 
d="M582 -10q-435 0 -435 407v639q0 408 435 408h82q215 0 320.5 -93t105.5 -290v-8q0 -7 -5.5 -12t-11.5 -5h-37q-6 0 -10 5.5t-4 11.5q0 169 -84.5 246t-267.5 77h-95q-185 0 -272.5 -83t-87.5 -257v-639q0 -173 87.5 -256.5t272.5 -83.5h95q182 0 267 73t85 228
q0 6 4 11.5t10 5.5h37q6 0 11.5 -5t5.5 -12v-10q0 -181 -106 -269.5t-320 -88.5h-82zM580 1786v33q0 15 4.5 19.5t19.5 4.5h33q15 0 20 -4.5t5 -19.5v-33q0 -15 -5 -20t-20 -5h-33q-15 0 -19.5 5t-4.5 20z" />
    <glyph glyph-name="cdotaccent" unicode="&#x10b;" horiz-adv-x="1001" 
d="M508 -10q-190 0 -290.5 88.5t-100.5 255.5v354q0 163 95.5 253.5t256.5 90.5h84q156 0 249 -77t93 -214v-12q0 -20 -23 -20h-22q-21 0 -21 20v8q0 107 -70.5 169.5t-201.5 62.5h-92q-138 0 -210.5 -75.5t-72.5 -207.5v-358q0 -131 80.5 -203t245.5 -72h12
q131 0 192.5 27.5t104.5 93.5q9 14 15.5 16.5t29.5 -4.5l2 -2q14 -7 17 -15.5t-4 -21.5q-18 -34 -43.5 -60t-66 -49.5t-102.5 -35.5t-143 -12h-14zM471 1376v33q0 15 5 20t20 5h32q15 0 20 -5t5 -20v-33q0 -15 -5 -19.5t-20 -4.5h-32q-15 0 -20 4.5t-5 19.5z" />
    <glyph glyph-name="Ccaron" unicode="&#x10c;" horiz-adv-x="1216" 
d="M582 -10q-435 0 -435 407v639q0 408 435 408h82q215 0 320.5 -93t105.5 -290v-8q0 -7 -5.5 -12t-11.5 -5h-37q-6 0 -10 5.5t-4 11.5q0 169 -84.5 246t-267.5 77h-95q-185 0 -272.5 -83t-87.5 -257v-639q0 -173 87.5 -256.5t272.5 -83.5h95q182 0 267 73t85 228
q0 6 4 11.5t10 5.5h37q6 0 11.5 -5t5.5 -12v-10q0 -181 -106 -269.5t-320 -88.5h-82zM346 1812q-11 12 -8 21.5t18 9.5h25q25 0 43 -20l188 -215h21l188 215q18 20 43 20h25q15 0 17 -9.5t-7 -21.5l-217 -247q-20 -25 -57 -25h-13q-17 0 -26 5t-23 20z" />
    <glyph glyph-name="ccaron" unicode="&#x10d;" horiz-adv-x="1001" 
d="M508 -10q-190 0 -290.5 88.5t-100.5 255.5v354q0 163 95.5 253.5t256.5 90.5h84q156 0 249 -77t93 -214v-12q0 -20 -23 -20h-22q-21 0 -21 20v8q0 107 -70.5 169.5t-201.5 62.5h-92q-138 0 -210.5 -75.5t-72.5 -207.5v-358q0 -131 80.5 -203t245.5 -72h12
q131 0 192.5 27.5t104.5 93.5q9 14 15.5 16.5t29.5 -4.5l2 -2q14 -7 17 -15.5t-4 -21.5q-18 -34 -43.5 -60t-66 -49.5t-102.5 -35.5t-143 -12h-14zM238 1403q-11 12 -8 21.5t18 9.5h24q24 0 43 -21l189 -215h20l189 215q19 21 43 21h24q15 0 17.5 -9.5t-6.5 -21.5l-218 -248
q-20 -25 -57 -25h-12q-17 0 -26 5t-23 20z" />
    <glyph glyph-name="Dcaron" unicode="&#x10e;" horiz-adv-x="1230" 
d="M172 0q-15 0 -20 5t-5 20v1384q0 15 5 20t20 5h477q434 0 434 -408v-618q0 -408 -434 -408h-477zM215 68h440q185 0 273 83.5t88 256.5v618q0 174 -88 257t-273 83h-440v-1298zM319 1812q-11 12 -7.5 21.5t18.5 9.5h24q25 0 43 -20l189 -215h20l189 215q18 20 43 20h24
q15 0 17 -9.5t-7 -21.5l-217 -247q-20 -25 -57 -25h-12q-17 0 -26 5t-23 20z" />
    <glyph glyph-name="dcaron" unicode="&#x10f;" horiz-adv-x="997" 
d="M471 -10q-170 0 -262 87.5t-92 258.5v350q0 171 92 258.5t262 87.5h90q93 0 163 -35t105 -98h15v512q0 23 22 23h21q22 0 22 -23v-1388q0 -23 -22 -23h-21q-22 0 -22 23v102h-15q-35 -65 -104.5 -100t-163.5 -35h-90zM182 338q0 -285 291 -285h86q139 0 212 74t73 205
v358q0 131 -73 205t-212 74h-86q-291 0 -291 -285v-346zM961 1112v8q0 15 4.5 20t19.5 5h47v264q0 15 5 20t20 5h14q15 0 20 -5t5 -20v-283q0 -22 -8.5 -30.5t-30.5 -8.5h-72q-15 0 -19.5 5t-4.5 20z" />
    <glyph glyph-name="Dcroat" unicode="&#x110;" horiz-adv-x="1243" 
d="M184 0q-15 0 -19.5 5t-4.5 20v665h-133q-21 0 -21 21v20q0 21 21 21h133v657q0 15 4.5 20t19.5 5h478q434 0 434 -408v-618q0 -408 -434 -408h-478zM227 68h441q185 0 272.5 83.5t87.5 256.5v618q0 174 -87.5 257t-272.5 83h-441v-614h254q21 0 21 -21v-20q0 -21 -21 -21
h-254v-622z" />
    <glyph glyph-name="dcroat" unicode="&#x111;" horiz-adv-x="1021" 
d="M295 1174q-27 0 -27 28v6q0 29 27 29h549v174q0 23 22 23h21q22 0 22 -23v-174h56q28 0 28 -29v-6q0 -28 -28 -28h-56v-1151q0 -23 -22 -23h-21q-22 0 -22 23v102h-15q-35 -65 -104.5 -100t-163.5 -35h-90q-170 0 -262 87.5t-92 258.5v350q0 171 92 258.5t262 87.5h90
q93 0 163 -35t105 -98h15v275h-549zM182 338q0 -285 291 -285h86q139 0 212 74t73 205v358q0 131 -73 205t-212 74h-86q-291 0 -291 -285v-346z" />
    <glyph glyph-name="Emacron" unicode="&#x112;" horiz-adv-x="1056" 
d="M176 0q-16 0 -22.5 5.5t-6.5 19.5v1384q0 14 6.5 19.5t22.5 5.5h764q16 0 22.5 -5.5t6.5 -19.5v-16q0 -27 -29 -27h-725v-612h664q15 0 21.5 -5t6.5 -20v-14q0 -15 -6.5 -20t-21.5 -5h-664v-622h727q27 0 27 -25v-18q0 -15 -6 -20t-21 -5h-766zM207 1800v15q0 28 29 28
h667q29 0 29 -28v-15q0 -28 -29 -28h-667q-29 0 -29 28z" />
    <glyph glyph-name="emacron" unicode="&#x113;" horiz-adv-x="1026" 
d="M500 -10q-188 0 -285.5 90t-97.5 254v354q0 163 94.5 253.5t255.5 90.5h92q165 0 256.5 -87t91.5 -251v-149q0 -29 -17 -46.5t-46 -17.5h-662v-143q0 -134 79 -210.5t241 -76.5h20q184 0 299 88q14 11 23 2l20 -22q9 -12 -2 -23q-44 -44 -133 -75t-213 -31h-16zM152 1391
v14q0 29 28 29h668q29 0 29 -29v-14q0 -29 -29 -29h-668q-28 0 -28 29zM182 543h662v149q0 133 -69.5 205t-213.5 72h-96q-141 0 -212 -75t-71 -208v-143z" />
    <glyph glyph-name="Edotaccent" unicode="&#x116;" horiz-adv-x="1056" 
d="M176 0q-16 0 -22.5 5.5t-6.5 19.5v1384q0 14 6.5 19.5t22.5 5.5h764q16 0 22.5 -5.5t6.5 -19.5v-16q0 -27 -29 -27h-725v-612h664q15 0 21.5 -5t6.5 -20v-14q0 -15 -6.5 -20t-21.5 -5h-664v-622h727q27 0 27 -25v-18q0 -15 -6 -20t-21 -5h-766zM526 1786v33q0 15 5 19.5
t20 4.5h33q15 0 19.5 -4.5t4.5 -19.5v-33q0 -15 -4.5 -20t-19.5 -5h-33q-15 0 -20 5t-5 20z" />
    <glyph glyph-name="edotaccent" unicode="&#x117;" horiz-adv-x="1026" 
d="M500 -10q-188 0 -285.5 90t-97.5 254v354q0 163 94.5 253.5t255.5 90.5h92q165 0 256.5 -87t91.5 -251v-149q0 -29 -17 -46.5t-46 -17.5h-662v-143q0 -134 79 -210.5t241 -76.5h20q184 0 299 88q14 11 23 2l20 -22q9 -12 -2 -23q-44 -44 -133 -75t-213 -31h-16zM182 543
h662v149q0 133 -69.5 205t-213.5 72h-96q-141 0 -212 -75t-71 -208v-143zM473 1376v33q0 15 5 20t20 5h32q15 0 20 -5t5 -20v-33q0 -15 -5 -19.5t-20 -4.5h-32q-15 0 -20 4.5t-5 19.5z" />
    <glyph glyph-name="Eogonek" unicode="&#x118;" horiz-adv-x="1056" 
d="M176 0q-16 0 -22.5 5.5t-6.5 19.5v1384q0 14 6.5 19.5t22.5 5.5h764q16 0 22.5 -5.5t6.5 -19.5v-16q0 -27 -29 -27h-725v-612h664q15 0 21.5 -5t6.5 -20v-14q0 -15 -6.5 -20t-21.5 -5h-664v-622h727q27 0 27 -25v-88q0 -66 -15 -91.5t-63 -29.5l-195 -24q-20 -3 -28.5 -5
t-17.5 -9.5t-12 -21.5t-3 -38q0 -53 22.5 -70.5t92.5 -17.5h180q20 0 20 -21v-16q0 -21 -20 -21h-187q-98 0 -135 33t-37 111q0 22 1.5 38.5t8.5 30t11.5 22t19 15.5t23 11t32 7.5t36.5 5t45 5.5l92 10q23 3 36.5 8t19 15.5t6.5 18t1 24.5v55h-727z" />
    <glyph glyph-name="eogonek" unicode="&#x119;" horiz-adv-x="1026" 
d="M428 -410q-98 0 -135 33t-37 111q0 22 1.5 38.5t8 30t11.5 22t19.5 15.5t22.5 11t31.5 7.5t36.5 5.5t45 5l94 12q43 4 53.5 24.5t10.5 84.5q-134 -2 -227.5 20t-146.5 68.5t-76 108t-23 147.5v354q0 163 94.5 253.5t255.5 90.5h92q165 0 256.5 -87t91.5 -251v-149
q0 -29 -17 -46.5t-46 -17.5h-662v-143q0 -134 79 -210.5t241 -76.5h20q184 0 299 88q14 11 23 2l20 -22q9 -12 -2 -23q-29 -29 -84 -55.5t-125 -40.5v-45q0 -66 -14.5 -91.5t-60.5 -29.5l-197 -24q-20 -3 -28.5 -5t-18 -9.5t-12.5 -21.5t-3 -38q0 -53 22.5 -70.5t92.5 -17.5
h180q21 0 21 -21v-16q0 -21 -21 -21h-186zM182 543h662v149q0 133 -69.5 205t-213.5 72h-96q-141 0 -212 -75t-71 -208v-143z" />
    <glyph glyph-name="Ecaron" unicode="&#x11a;" horiz-adv-x="1056" 
d="M176 0q-16 0 -22.5 5.5t-6.5 19.5v1384q0 14 6.5 19.5t22.5 5.5h764q16 0 22.5 -5.5t6.5 -19.5v-16q0 -27 -29 -27h-725v-612h664q15 0 21.5 -5t6.5 -20v-14q0 -15 -6.5 -20t-21.5 -5h-664v-622h727q27 0 27 -25v-18q0 -15 -6 -20t-21 -5h-766zM293 1812q-11 12 -8 21.5
t18 9.5h25q25 0 43 -20l188 -215h21l188 215q18 20 43 20h25q15 0 17 -9.5t-7 -21.5l-217 -247q-20 -25 -58 -25h-12q-17 0 -26 5t-23 20z" />
    <glyph glyph-name="ecaron" unicode="&#x11b;" horiz-adv-x="1026" 
d="M500 -10q-188 0 -285.5 90t-97.5 254v354q0 163 94.5 253.5t255.5 90.5h92q165 0 256.5 -87t91.5 -251v-149q0 -29 -17 -46.5t-46 -17.5h-662v-143q0 -134 79 -210.5t241 -76.5h20q184 0 299 88q14 11 23 2l20 -22q9 -12 -2 -23q-44 -44 -133 -75t-213 -31h-16zM182 543
h662v149q0 133 -69.5 205t-213.5 72h-96q-141 0 -212 -75t-71 -208v-143zM238 1403q-11 12 -8 21.5t18 9.5h24q24 0 43 -21l189 -215h20l189 215q19 21 43 21h24q15 0 17.5 -9.5t-6.5 -21.5l-218 -248q-20 -25 -57 -25h-12q-17 0 -26 5t-23 20z" />
    <glyph glyph-name="Gcircumflex" unicode="&#x11c;" horiz-adv-x="1236" 
d="M582 -10q-435 0 -435 407v639q0 408 435 408h82q215 0 319 -93t104 -290v-8q0 -7 -5 -12t-11 -5h-37q-6 0 -11 5.5t-5 11.5q0 170 -83 246.5t-265 76.5h-95q-185 0 -272.5 -83t-87.5 -257v-639q0 -173 87.5 -256.5t272.5 -83.5h84q186 0 274.5 83.5t88.5 256.5v293h-332
q-15 0 -20.5 5t-5.5 20v14q0 15 5.5 20t20.5 5h373q11 0 19 -7.5t8 -19.5v-330q0 -407 -435 -407h-73zM324 1571l217 246q14 16 23 21t26 5h12q14 0 21.5 -1t17 -7t18.5 -18l218 -246q9 -12 6.5 -21.5t-17.5 -9.5h-24q-24 0 -43 21l-189 215h-20l-189 -215q-19 -21 -43 -21
h-24q-15 0 -18 9.5t8 21.5z" />
    <glyph glyph-name="gcircumflex" unicode="&#x11d;" horiz-adv-x="1036" 
d="M489 -379q-88 0 -161 6q-39 3 -39 23v24q0 10 7 14.5t15 2.5q72 -6 197 -6q83 0 140.5 11t104 39.5t69 82.5t22.5 135v172h-15q-35 -65 -104.5 -100t-163.5 -35h-90q-170 0 -262 87.5t-92 258.5v350q0 171 92 258.5t262 87.5h90q93 0 163 -35t105 -98h15v100q0 14 4 19.5
t18 5.5h21q22 0 22 -25v-1046q0 -182 -99 -257t-321 -75zM182 338q0 -285 291 -285h86q139 0 212 74t73 205v358q0 131 -73 205t-212 74h-86q-291 0 -291 -285v-346zM236 1161l217 246q15 16 24 21.5t25 5.5h12q38 0 57 -27l217 -246q9 -12 7 -21.5t-17 -9.5h-24
q-24 0 -43 21l-189 215h-20l-189 -215q-19 -21 -43 -21h-24q-15 0 -18 9.5t8 21.5z" />
    <glyph glyph-name="Gbreve" unicode="&#x11e;" horiz-adv-x="1236" 
d="M582 -10q-435 0 -435 407v639q0 408 435 408h82q215 0 319 -93t104 -290v-8q0 -7 -5 -12t-11 -5h-37q-6 0 -11 5.5t-5 11.5q0 170 -83 246.5t-265 76.5h-95q-185 0 -272.5 -83t-87.5 -257v-639q0 -173 87.5 -256.5t272.5 -83.5h84q186 0 274.5 83.5t88.5 256.5v293h-332
q-15 0 -20.5 5t-5.5 20v14q0 15 5.5 20t20.5 5h373q11 0 19 -7.5t8 -19.5v-330q0 -407 -435 -407h-73zM365 1817q0 26 24 26h17q24 0 24 -26q0 -77 39.5 -121.5t112.5 -44.5h71q73 0 112.5 44.5t39.5 121.5q0 26 24 26h17q24 0 24 -26q0 -228 -223 -228h-61q-107 0 -164 57
t-57 171z" />
    <glyph glyph-name="gbreve" unicode="&#x11f;" horiz-adv-x="1036" 
d="M489 -379q-88 0 -161 6q-39 3 -39 23v24q0 10 7 14.5t15 2.5q72 -6 197 -6q83 0 140.5 11t104 39.5t69 82.5t22.5 135v172h-15q-35 -65 -104.5 -100t-163.5 -35h-90q-170 0 -262 87.5t-92 258.5v350q0 171 92 258.5t262 87.5h90q93 0 163 -35t105 -98h15v100q0 14 4 19.5
t18 5.5h21q22 0 22 -25v-1046q0 -182 -99 -257t-321 -75zM182 338q0 -285 291 -285h86q139 0 212 74t73 205v358q0 131 -73 205t-212 74h-86q-291 0 -291 -285v-346zM276 1407q0 27 25 27h16q25 0 25 -27q0 -77 39.5 -121.5t112.5 -44.5h71q73 0 112.5 44.5t39.5 121.5
q0 27 24 27h17q24 0 24 -27q0 -115 -55 -171t-168 -56h-61q-108 0 -165 56.5t-57 170.5z" />
    <glyph glyph-name="Gdotaccent" unicode="&#x120;" horiz-adv-x="1236" 
d="M582 -10q-435 0 -435 407v639q0 408 435 408h82q215 0 319 -93t104 -290v-8q0 -7 -5 -12t-11 -5h-37q-6 0 -11 5.5t-5 11.5q0 170 -83 246.5t-265 76.5h-95q-185 0 -272.5 -83t-87.5 -257v-639q0 -173 87.5 -256.5t272.5 -83.5h84q186 0 274.5 83.5t88.5 256.5v293h-332
q-15 0 -20.5 5t-5.5 20v14q0 15 5.5 20t20.5 5h373q11 0 19 -7.5t8 -19.5v-330q0 -407 -435 -407h-73zM578 1786v33q0 15 4.5 19.5t19.5 4.5h33q15 0 19.5 -4.5t4.5 -19.5v-33q0 -15 -4.5 -20t-19.5 -5h-33q-15 0 -19.5 5t-4.5 20z" />
    <glyph glyph-name="gdotaccent" unicode="&#x121;" horiz-adv-x="1036" 
d="M489 -379q-88 0 -161 6q-39 3 -39 23v24q0 10 7 14.5t15 2.5q72 -6 197 -6q83 0 140.5 11t104 39.5t69 82.5t22.5 135v172h-15q-35 -65 -104.5 -100t-163.5 -35h-90q-170 0 -262 87.5t-92 258.5v350q0 171 92 258.5t262 87.5h90q93 0 163 -35t105 -98h15v100q0 14 4 19.5
t18 5.5h21q22 0 22 -25v-1046q0 -182 -99 -257t-321 -75zM182 338q0 -285 291 -285h86q139 0 212 74t73 205v358q0 131 -73 205t-212 74h-86q-291 0 -291 -285v-346zM487 1376v33q0 15 5 20t20 5h33q15 0 19.5 -5t4.5 -20v-33q0 -15 -4.5 -19.5t-19.5 -4.5h-33
q-15 0 -20 4.5t-5 19.5z" />
    <glyph glyph-name="uni0122" unicode="&#x122;" horiz-adv-x="1236" 
d="M582 -10q-435 0 -435 407v639q0 408 435 408h82q215 0 319 -93t104 -290v-8q0 -7 -5 -12t-11 -5h-37q-6 0 -11 5.5t-5 11.5q0 170 -83 246.5t-265 76.5h-95q-185 0 -272.5 -83t-87.5 -257v-639q0 -173 87.5 -256.5t272.5 -83.5h84q186 0 274.5 83.5t88.5 256.5v293h-332
q-15 0 -20.5 5t-5.5 20v14q0 15 5.5 20t20.5 5h373q11 0 19 -7.5t8 -19.5v-330q0 -407 -435 -407h-73zM512 -442v8q0 15 5 19.5t20 4.5h47v263q0 15 4.5 19.5t19.5 4.5h15q15 0 19.5 -4.5t4.5 -19.5v-281q0 -23 -8.5 -31t-30.5 -8h-71q-15 0 -20 5t-5 20z" />
    <glyph glyph-name="uni0123" unicode="&#x123;" horiz-adv-x="1036" 
d="M469 1239q-15 0 -20 5t-5 20v335q0 22 8.5 30.5t30.5 8.5h72q15 0 20 -4.5t5 -19.5v-8q0 -15 -5 -20t-20 -5h-47v-317q0 -15 -5 -20t-20 -5h-14zM117 336v350q0 171 92 258.5t262 87.5h90q93 0 163 -35t105 -98h15v100q0 14 4 19.5t18 5.5h21q22 0 22 -25v-1046
q0 -182 -99 -257t-321 -75q-88 0 -161 6q-39 3 -39 23v24q0 10 7 14.5t15 2.5q72 -6 197 -6q83 0 140.5 11t104 39.5t69 82.5t22.5 135v172h-15q-35 -65 -104.5 -100t-163.5 -35h-90q-170 0 -262 87.5t-92 258.5zM182 338q0 -285 291 -285h86q139 0 212 74t73 205v358
q0 131 -73 205t-212 74h-86q-291 0 -291 -285v-346z" />
    <glyph glyph-name="Hcircumflex" unicode="&#x124;" horiz-adv-x="1230" 
d="M1040 0q-15 0 -19.5 5t-4.5 20v665h-801v-665q0 -15 -5 -20t-20 -5h-18q-15 0 -20 5t-5 20v1384q0 15 5 20t20 5h18q15 0 20 -5t5 -20v-655h801v655q0 15 4.5 20t19.5 5h19q15 0 19.5 -5t4.5 -20v-1384q0 -15 -4.5 -20t-19.5 -5h-19zM322 1571l217 246q14 16 23 21t26 5
h12q14 0 21.5 -1t17 -7t18.5 -18l217 -246q9 -12 7 -21.5t-17 -9.5h-24q-24 0 -43 21l-189 215h-20l-189 -215q-19 -21 -43 -21h-24q-15 0 -18 9.5t8 21.5z" />
    <glyph glyph-name="hcircumflex" unicode="&#x125;" horiz-adv-x="1067" 
d="M160 0q-23 0 -23 23v1388q0 23 23 23h20q23 0 23 -23v-508h16q94 129 285 129h82q177 0 260.5 -85.5t83.5 -260.5v-663q0 -23 -25 -23h-18q-23 0 -23 23v661q0 142 -67.5 213.5t-218.5 71.5h-66q-150 0 -229.5 -74.5t-79.5 -206.5v-665q0 -23 -23 -23h-20zM-121 1571
l217 246q14 16 23 21t26 5h13q14 0 21.5 -1t17 -7t18.5 -18l217 -246q9 -12 7 -21.5t-17 -9.5h-25q-24 0 -43 21l-188 215h-21l-188 -215q-19 -21 -43 -21h-25q-15 0 -18 9.5t8 21.5z" />
    <glyph glyph-name="Hbar" unicode="&#x126;" horiz-adv-x="1230" 
d="M1040 0q-15 0 -19.5 5t-4.5 20v665h-801v-665q0 -15 -5 -20t-20 -5h-18q-15 0 -20 5t-5 20v1384q0 15 5 20t20 5h18q15 0 20 -5t5 -20v-383h799v-63h-799v-209h801v655q0 15 4.5 20t19.5 5h19q15 0 19.5 -5t4.5 -20v-1384q0 -15 -4.5 -20t-19.5 -5h-19z" />
    <glyph glyph-name="hbar" unicode="&#x127;" horiz-adv-x="1067" 
d="M160 0q-23 0 -23 23v1142h-108q-29 0 -29 29v14q0 29 29 29h108v174q0 23 23 23h20q23 0 23 -23v-174h493q29 0 29 -29v-14q0 -29 -29 -29h-493v-262h16q94 129 285 129h82q177 0 260.5 -85.5t83.5 -260.5v-663q0 -23 -25 -23h-18q-23 0 -23 23v661q0 142 -67.5 213.5
t-218.5 71.5h-66q-150 0 -229.5 -74.5t-79.5 -206.5v-665q0 -23 -23 -23h-20z" />
    <glyph glyph-name="Itilde" unicode="&#x128;" horiz-adv-x="364" 
d="M172 0q-15 0 -20 5t-5 20v1384q0 15 5 20t20 5h18q15 0 20 -5t5 -20v-1384q0 -15 -5 -20t-20 -5h-18zM-139 1780q-11 15 12 26q85 47 154 47q43 0 86.5 -16.5t74 -35.5t73.5 -35.5t85 -16.5q63 0 117 37q20 14 29 -6l12 -17q7 -16 -12 -28q-85 -47 -154 -47
q-54 0 -107.5 26.5l-107 53t-107.5 26.5q-53 0 -116 -39q-19 -14 -27 8z" />
    <glyph glyph-name="itilde" unicode="&#x129;" horiz-adv-x="288" 
d="M135 0q-22 0 -22 23v978q0 23 22 23h21q20 0 20 -23v-978q0 -23 -20 -23h-21zM-176 1370q-11 15 12 27q85 47 154 47q43 0 86.5 -16.5t74 -36t73.5 -36t85 -16.5q63 0 117 37q20 14 29 -6l12 -16q7 -17 -12 -29q-85 -47 -154 -47q-43 0 -86.5 16.5t-74 36.5t-74 36.5
t-86.5 16.5q-55 0 -117 -38q-19 -14 -27 8z" />
    <glyph glyph-name="Imacron" unicode="&#x12a;" horiz-adv-x="364" 
d="M172 0q-15 0 -20 5t-5 20v1384q0 15 5 20t20 5h18q15 0 20 -5t5 -20v-1384q0 -15 -5 -20t-20 -5h-18zM-180 1800v15q0 28 28 28h668q29 0 29 -28v-15q0 -28 -29 -28h-668q-28 0 -28 28z" />
    <glyph glyph-name="imacron" unicode="&#x12b;" horiz-adv-x="288" 
d="M135 0q-22 0 -22 23v978q0 23 22 23h21q20 0 20 -23v-978q0 -23 -20 -23h-21zM-217 1391v14q0 29 29 29h667q29 0 29 -29v-14q0 -29 -29 -29h-667q-29 0 -29 29z" />
    <glyph glyph-name="Iogonek" unicode="&#x12e;" horiz-adv-x="364" 
d="M-12 -410q-98 0 -135 33t-37 111q0 22 1.5 38.5t8.5 30t11.5 22t19 15.5t23 11t32 7.5t36.5 5.5t46 5l90 10q29 3 43.5 13t17 21t2.5 32v63q-2 4 -2 17v1384q0 15 5 20t20 5h18q15 0 20 -5t5 -20v-1368h2v-86q0 -65 -16 -91t-62 -30l-196 -24q-26 -4 -36 -7.5t-17 -19
t-7 -47.5q0 -53 22 -70.5t93 -17.5h178q21 0 21 -21v-16q0 -21 -21 -21h-186z" />
    <glyph glyph-name="iogonek" unicode="&#x12f;" horiz-adv-x="288" 
d="M129 1352q-15 0 -20 4.5t-5 19.5v33q0 15 5 20t20 5h33q15 0 19.5 -5t4.5 -20v-33q0 -15 -4.5 -19.5t-19.5 -4.5h-33zM-219 -266q0 22 1.5 38.5t8 30t11.5 22t19.5 15.5t22.5 11t31.5 7.5t36.5 5.5t45 5l92 10q23 3 36.5 8.5t19 15t7 18t1.5 24.5v1056q0 23 22 23h21
q20 0 20 -23v-960h2v-86q0 -66 -15 -91.5t-63 -29.5l-194 -24q-20 -3 -28.5 -5t-18 -9.5t-12.5 -21.5t-3 -38q0 -53 22.5 -70.5t92.5 -17.5h180q21 0 21 -21v-16q0 -21 -21 -21h-186q-98 0 -135 33t-37 111z" />
    <glyph glyph-name="Idotaccent" unicode="&#x130;" horiz-adv-x="364" 
d="M172 0q-15 0 -20 5t-5 20v1384q0 15 5 20t20 5h18q15 0 20 -5t5 -20v-1384q0 -15 -5 -20t-20 -5h-18zM139 1786v33q0 15 5 19.5t20 4.5h33q15 0 19.5 -4.5t4.5 -19.5v-33q0 -15 -4.5 -20t-19.5 -5h-33q-15 0 -20 5t-5 20z" />
    <glyph glyph-name="dotlessi" unicode="&#x131;" horiz-adv-x="288" 
d="M135 0q-22 0 -22 23v978q0 23 22 23h21q20 0 20 -23v-978q0 -23 -20 -23h-21z" />
    <glyph glyph-name="IJ" unicode="&#x132;" horiz-adv-x="1083" 
d="M172 0q-15 0 -20 5t-5 20v1384q0 15 5 20t20 5h18q15 0 20 -5t5 -20v-1384q0 -15 -5 -20t-20 -5h-18zM461 14v19q0 24 28 24h19q185 0 272.5 83.5t87.5 256.5v1012q0 15 5 20t20 5h18q15 0 20 -5t5 -20v-1012q0 -207 -109 -307t-325 -100h-13q-16 0 -22 5t-6 19z" />
    <glyph glyph-name="ij" unicode="&#x133;" horiz-adv-x="700" 
d="M160 1362q-13 0 -18 5t-5 17v27q0 23 23 23h26q23 0 23 -23v-27q0 -12 -5 -17t-18 -5h-26zM141 23v978q0 23 23 23h20q21 0 21 -23v-978q0 -23 -21 -23h-20q-23 0 -23 23zM330 -348v22q0 21 26 21q81 0 112.5 36t31.5 134v1136q0 23 20 23h21q22 0 22 -23v-1159
q0 -211 -176 -211q-57 0 -57 21zM494 1384v27q0 23 22 23h27q20 0 20 -23v-27q0 -12 -4 -17t-16 -5h-27q-13 0 -17.5 5t-4.5 17z" />
    <glyph glyph-name="Jcircumflex" unicode="&#x134;" horiz-adv-x="718" 
d="M125 -10q-16 0 -22.5 5t-6.5 19v19q0 24 29 24h18q185 0 273 83.5t88 256.5v1012q0 15 4.5 20t19.5 5h19q15 0 19.5 -5t4.5 -20v-1012q0 -207 -109 -307t-325 -100h-12zM244 1571l217 246q14 16 23 21t26 5h12q14 0 22 -1t17.5 -7t18.5 -18l217 -246q9 -12 6.5 -21.5
t-17.5 -9.5h-24q-24 0 -43 21l-189 215h-20l-188 -215q-19 -21 -43 -21h-25q-15 0 -18 9.5t8 21.5z" />
    <glyph glyph-name="jcircumflex" unicode="&#x135;" horiz-adv-x="329" 
d="M16 -369q-57 0 -57 21v22q0 21 27 21q81 0 112 36t31 134v1136q0 23 21 23h20q23 0 23 -23v-1159q0 -211 -177 -211zM-139 1161l217 246q15 16 24 21.5t25 5.5h12q39 0 58 -27l217 -246q9 -12 6.5 -21.5t-17.5 -9.5h-24q-24 0 -43 21l-189 215h-20l-188 -215
q-19 -21 -43 -21h-25q-15 0 -18 9.5t8 21.5z" />
    <glyph glyph-name="uni0136" unicode="&#x136;" horiz-adv-x="1095" 
d="M172 0q-15 0 -20 5t-5 20v1384q0 15 5 20t20 5h18q15 0 20 -5t5 -20v-817l662 815q1 2 4.5 6.5t4.5 6t4 5t4.5 4.5t4.5 2.5t6 2t6 0.5h31q19 0 21 -11t-13 -28l-522 -639l576 -725q11 -12 5.5 -21.5t-22.5 -9.5h-16q-13 0 -22.5 4.5t-13.5 8.5t-15 16l-533 676l-172 -209
v-471q0 -15 -5 -20t-20 -5h-18zM434 -442v8q0 15 5 19.5t20 4.5h47v263q0 15 4.5 19.5t19.5 4.5h15q15 0 19.5 -4.5t4.5 -19.5v-281q0 -23 -8.5 -31t-30.5 -8h-71q-15 0 -20 5t-5 20z" />
    <glyph glyph-name="uni0137" unicode="&#x137;" horiz-adv-x="948" 
d="M160 0q-23 0 -23 23v1388q0 23 23 23h20q23 0 23 -23v-950l540 545q22 18 37 18h35q12 0 16.5 -5t2 -11.5t-8.5 -12.5l-436 -430l485 -536q10 -12 5.5 -20.5t-19.5 -8.5h-31q-13 0 -19 3.5t-17 16.5l-445 504l-145 -143v-358q0 -23 -23 -23h-20zM367 -442v8
q0 15 4.5 19.5t19.5 4.5h47v263q0 15 5 19.5t20 4.5h14q15 0 20 -4.5t5 -19.5v-281q0 -23 -8.5 -31t-30.5 -8h-72q-15 0 -19.5 5t-4.5 20z" />
    <glyph glyph-name="Lacute" unicode="&#x139;" horiz-adv-x="1015" 
d="M176 0q-16 0 -22.5 5.5t-6.5 19.5v1384q0 15 5 20t20 5h18q15 0 20 -5t5 -20v-1341h676q27 0 27 -25v-18q0 -15 -6 -20t-21 -5h-715zM147 1571l162 235q13 20 23 28.5t24 8.5h23q18 0 24.5 -10t-4.5 -27l-168 -235q-29 -37 -51 -37h-12q-16 0 -23 10t2 27z" />
    <glyph glyph-name="lacute" unicode="&#x13a;" horiz-adv-x="339" 
d="M160 0q-23 0 -23 23v1388q0 23 23 23h20q23 0 23 -23v-1388q0 -23 -23 -23h-20zM135 1571l162 235q13 20 23 28.5t24 8.5h23q18 0 24.5 -10t-4.5 -27l-168 -235q-29 -37 -51 -37h-12q-16 0 -23 10t2 27z" />
    <glyph glyph-name="uni013B" unicode="&#x13b;" horiz-adv-x="1015" 
d="M176 0q-16 0 -22.5 5.5t-6.5 19.5v1384q0 15 5 20t20 5h18q15 0 20 -5t5 -20v-1341h676q27 0 27 -25v-18q0 -15 -6 -20t-21 -5h-715zM442 -442v8q0 15 5 19.5t20 4.5h47v263q0 15 5 19.5t20 4.5h14q15 0 20 -4.5t5 -19.5v-281q0 -23 -8.5 -31t-30.5 -8h-72q-15 0 -20 5
t-5 20z" />
    <glyph glyph-name="uni013C" unicode="&#x13c;" horiz-adv-x="339" 
d="M160 0q-23 0 -23 23v1388q0 23 23 23h20q23 0 23 -23v-1388q0 -23 -23 -23h-20zM63 -442v8q0 15 5 19.5t20 4.5h47v263q0 15 5 19.5t20 4.5h14q15 0 20 -4.5t5 -19.5v-281q0 -23 -8.5 -31t-30.5 -8h-72q-15 0 -20 5t-5 20z" />
    <glyph glyph-name="Lcaron" unicode="&#x13d;" horiz-adv-x="1015" 
d="M176 0q-16 0 -22.5 5.5t-6.5 19.5v1384q0 15 5 20t20 5h18q15 0 20 -5t5 -20v-1341h676q27 0 27 -25v-18q0 -15 -6 -20t-21 -5h-715zM471 1112v8q0 15 5 20t20 5h47v264q0 15 4.5 20t19.5 5h15q15 0 19.5 -5t4.5 -20v-283q0 -22 -8.5 -30.5t-30.5 -8.5h-71q-15 0 -20 5
t-5 20z" />
    <glyph glyph-name="lcaron" unicode="&#x13e;" horiz-adv-x="342" 
d="M160 0q-23 0 -23 23v1388q0 23 23 23h20q23 0 23 -23v-1388q0 -23 -23 -23h-20zM258 1112v8q0 15 5 20t20 5h47v264q0 15 4.5 20t19.5 5h15q15 0 19.5 -5t4.5 -20v-283q0 -22 -8.5 -30.5t-30.5 -8.5h-71q-15 0 -20 5t-5 20z" />
    <glyph glyph-name="Ldot" unicode="&#x13f;" horiz-adv-x="1015" 
d="M176 0q-16 0 -22.5 5.5t-6.5 19.5v1384q0 15 5 20t20 5h18q15 0 20 -5t5 -20v-1341h676q27 0 27 -25v-18q0 -15 -6 -20t-21 -5h-715zM500 721v33q0 15 4.5 19.5t19.5 4.5h33q15 0 20 -4.5t5 -19.5v-33q0 -15 -5 -20t-20 -5h-33q-15 0 -19.5 5t-4.5 20z" />
    <glyph glyph-name="ldot" unicode="&#x140;" horiz-adv-x="313" 
d="M160 0q-23 0 -23 23v1388q0 23 23 23h20q23 0 23 -23v-1388q0 -23 -23 -23h-20zM254 594v33q0 15 5 19.5t20 4.5h32q15 0 20 -4.5t5 -19.5v-33q0 -15 -5 -20t-20 -5h-32q-15 0 -20 5t-5 20z" />
    <glyph glyph-name="Lslash" unicode="&#x141;" horiz-adv-x="1081" 
d="M39 303q-20 0 -26 8t5 23l197 244v831q0 15 5 20t20 5h18q15 0 20 -5t5 -20v-747l215 268q22 33 47 33h16q19 0 24.5 -8t-5.5 -23l-297 -371v-493h675q27 0 27 -25v-18q0 -15 -6 -20t-21 -5h-714q-16 0 -22.5 5.5t-6.5 19.5v452l-113 -141q-22 -33 -47 -33h-16z" />
    <glyph glyph-name="lslash" unicode="&#x142;" horiz-adv-x="335" 
d="M158 0q-23 0 -23 23v639l-74 -78q-3 -3 -6.5 -7t-5.5 -5.5t-4.5 -4t-4 -3.5t-3.5 -2.5t-4 -1.5t-4.5 -0.5t-5.5 -0.5h-43q-7 0 -13 8.5t2 20.5l166 184v639q0 23 23 23h20q23 0 23 -23v-551l69 76q14 16 22 20.5t21 4.5h43q13 0 13.5 -10.5t-7.5 -18.5l-161 -182v-727
q0 -23 -23 -23h-20z" />
    <glyph glyph-name="Nacute" unicode="&#x143;" horiz-adv-x="1183" 
d="M172 0q-15 0 -20 5t-5 20v1384q0 15 5 20t20 5h74q26 0 37 -23l669 -1350h15v1348q0 15 4.5 20t19.5 5h19q15 0 19.5 -5t4.5 -20v-1384q0 -15 -4.5 -20t-19.5 -5h-74q-23 0 -37 23l-668 1349h-16v-1347q0 -15 -5 -20t-20 -5h-18zM557 1571l162 235q13 20 23 28.5t24 8.5
h22q18 0 25 -10t-4 -27l-168 -235q-29 -37 -51 -37h-12q-16 0 -23 10t2 27z" />
    <glyph glyph-name="nacute" unicode="&#x144;" horiz-adv-x="1067" 
d="M160 0q-23 0 -23 23v978q0 23 23 23h20q14 0 18.5 -5.5t4.5 -17.5v-98h16q94 129 285 129h82q177 0 260.5 -85.5t83.5 -260.5v-663q0 -23 -25 -23h-18q-23 0 -23 23v661q0 142 -67.5 213.5t-218.5 71.5h-66q-150 0 -229.5 -74.5t-79.5 -206.5v-665q0 -12 -4.5 -17.5
t-18.5 -5.5h-20zM500 1161l162 236q13 20 23 28.5t24 8.5h22q18 0 25 -10t-4 -27l-168 -236q-29 -37 -52 -37h-12q-16 0 -22.5 10t2.5 27z" />
    <glyph glyph-name="uni0145" unicode="&#x145;" horiz-adv-x="1183" 
d="M172 0q-15 0 -20 5t-5 20v1384q0 15 5 20t20 5h74q26 0 37 -23l669 -1350h15v1348q0 15 4.5 20t19.5 5h19q15 0 19.5 -5t4.5 -20v-1384q0 -15 -4.5 -20t-19.5 -5h-74q-23 0 -37 23l-668 1349h-16v-1347q0 -15 -5 -20t-20 -5h-18zM485 -442v8q0 15 5 19.5t20 4.5h47v263
q0 15 5 19.5t20 4.5h14q15 0 20 -4.5t5 -19.5v-281q0 -23 -8.5 -31t-30.5 -8h-72q-15 0 -20 5t-5 20z" />
    <glyph glyph-name="uni0146" unicode="&#x146;" horiz-adv-x="1067" 
d="M160 0q-23 0 -23 23v978q0 23 23 23h20q14 0 18.5 -5.5t4.5 -17.5v-98h16q94 129 285 129h82q177 0 260.5 -85.5t83.5 -260.5v-663q0 -23 -25 -23h-18q-23 0 -23 23v661q0 142 -67.5 213.5t-218.5 71.5h-66q-150 0 -229.5 -74.5t-79.5 -206.5v-665q0 -12 -4.5 -17.5
t-18.5 -5.5h-20zM426 -442v8q0 15 5 19.5t20 4.5h47v263q0 15 4.5 19.5t19.5 4.5h15q15 0 19.5 -4.5t4.5 -19.5v-281q0 -23 -8.5 -31t-30.5 -8h-71q-15 0 -20 5t-5 20z" />
    <glyph glyph-name="Ncaron" unicode="&#x147;" horiz-adv-x="1183" 
d="M172 0q-15 0 -20 5t-5 20v1384q0 15 5 20t20 5h74q26 0 37 -23l669 -1350h15v1348q0 15 4.5 20t19.5 5h19q15 0 19.5 -5t4.5 -20v-1384q0 -15 -4.5 -20t-19.5 -5h-74q-23 0 -37 23l-668 1349h-16v-1347q0 -15 -5 -20t-20 -5h-18zM315 1812q-11 12 -7.5 21.5t18.5 9.5h24
q25 0 43 -20l189 -215h20l189 215q18 20 43 20h24q15 0 17 -9.5t-7 -21.5l-217 -247q-20 -25 -57 -25h-12q-28 0 -50 25z" />
    <glyph glyph-name="ncaron" unicode="&#x148;" horiz-adv-x="1067" 
d="M160 0q-23 0 -23 23v978q0 23 23 23h20q14 0 18.5 -5.5t4.5 -17.5v-98h16q94 129 285 129h82q177 0 260.5 -85.5t83.5 -260.5v-663q0 -23 -25 -23h-18q-23 0 -23 23v661q0 142 -67.5 213.5t-218.5 71.5h-66q-150 0 -229.5 -74.5t-79.5 -206.5v-665q0 -12 -4.5 -17.5
t-18.5 -5.5h-20zM256 1403q-11 12 -8 21.5t18 9.5h25q24 0 43 -21l188 -215h21l188 215q19 21 43 21h25q15 0 17 -9.5t-7 -21.5l-217 -248q-20 -25 -57 -25h-13q-17 0 -26 5t-23 20z" />
    <glyph glyph-name="Eng" unicode="&#x14a;" horiz-adv-x="1183" 
d="M172 0q-15 0 -20 5t-5 20v1384q0 15 5 20t20 5h74q26 0 37 -23l669 -1350h15v1348q0 15 4.5 20t19.5 5h19q15 0 19.5 -5t4.5 -20v-393q2 -4 2 -17v-1011q0 -408 -434 -408h-12q-16 0 -22.5 5.5t-6.5 19.5v18q0 25 29 25h18q185 0 273 83.5t88 256.5v12h-33q-23 0 -37 23
l-668 1349h-16v-1347q0 -15 -5 -20t-20 -5h-18z" />
    <glyph glyph-name="eng" unicode="&#x14b;" horiz-adv-x="1067" 
d="M752 -420q-56 0 -56 21v22q0 10 5.5 14.5t21.5 4.5q79 0 110 36t31 136v870q0 142 -67.5 213.5t-218.5 71.5h-66q-150 0 -229.5 -74.5t-79.5 -206.5v-665q0 -12 -4.5 -17.5t-18.5 -5.5h-20q-23 0 -23 23v978q0 23 23 23h20q14 0 18.5 -5.5t4.5 -17.5v-98h16
q94 129 285 129h82q177 0 260.5 -85.5t83.5 -260.5v-895q0 -211 -178 -211z" />
    <glyph glyph-name="Omacron" unicode="&#x14c;" 
d="M582 -10q-218 0 -326.5 99.5t-108.5 307.5v639q0 208 108.5 308t326.5 100h98q434 0 434 -408v-639q0 -207 -109 -307t-325 -100h-98zM215 397q0 -173 86.5 -256.5t273.5 -83.5h111q185 0 273 83.5t88 256.5v639q0 174 -88 257t-273 83h-111q-188 0 -274 -82.5
t-86 -257.5v-639zM270 1800v15q0 28 29 28h668q28 0 28 -28v-15q0 -28 -28 -28h-668q-29 0 -29 28z" />
    <glyph glyph-name="omacron" unicode="&#x14d;" horiz-adv-x="1026" 
d="M469 -10q-165 0 -258.5 87.5t-93.5 250.5v366q0 163 93.5 250.5t258.5 87.5h88q164 0 258 -87.5t94 -250.5v-366q0 -163 -94.5 -250.5t-257.5 -87.5h-88zM150 1391v14q0 29 28 29h668q28 0 28 -29v-14q0 -29 -28 -29h-668q-28 0 -28 29zM182 330q0 -133 70 -205t213 -72
h96q143 0 213 72t70 205v362q0 133 -70 205t-213 72h-96q-143 0 -213 -72t-70 -205v-362z" />
    <glyph glyph-name="Ohungarumlaut" unicode="&#x150;" 
d="M582 -10q-218 0 -326.5 99.5t-108.5 307.5v639q0 208 108.5 308t326.5 100h98q434 0 434 -408v-639q0 -207 -109 -307t-325 -100h-98zM215 397q0 -173 86.5 -256.5t273.5 -83.5h111q185 0 273 83.5t88 256.5v639q0 174 -88 257t-273 83h-111q-188 0 -274 -82.5
t-86 -257.5v-639zM500 1571l162 235q13 20 23 28.5t24 8.5h22q18 0 25 -10t-4 -27l-168 -235q-29 -37 -52 -37h-12q-16 0 -22.5 10t2.5 27zM711 1571l161 235q24 37 48 37h22q18 0 25 -10t-4 -27l-168 -235q-29 -37 -52 -37h-12q-16 0 -22.5 10t2.5 27z" />
    <glyph glyph-name="ohungarumlaut" unicode="&#x151;" horiz-adv-x="1026" 
d="M469 -10q-165 0 -258.5 87.5t-93.5 250.5v366q0 163 93.5 250.5t258.5 87.5h88q164 0 258 -87.5t94 -250.5v-366q0 -163 -94.5 -250.5t-257.5 -87.5h-88zM182 330q0 -133 70 -205t213 -72h96q143 0 213 72t70 205v362q0 133 -70 205t-213 72h-96q-143 0 -213 -72
t-70 -205v-362zM381 1161l162 236q13 20 23 28.5t24 8.5h22q18 0 25 -10t-4 -27l-168 -236q-29 -37 -51 -37h-13q-16 0 -22.5 10t2.5 27zM592 1161l162 236q13 20 23 28.5t24 8.5h22q18 0 25 -10t-4 -27l-168 -236q-29 -37 -51 -37h-13q-16 0 -22.5 10t2.5 27z" />
    <glyph glyph-name="OE" unicode="&#x152;" horiz-adv-x="1953" 
d="M582 -10q-218 0 -326.5 99.5t-108.5 307.5v639q0 208 108.5 308t326.5 100h98q263 0 367 -148v113q0 15 6.5 20t21.5 5h764q16 0 22.5 -5.5t6.5 -19.5v-16q0 -27 -29 -27h-725v-612h664q16 0 22 -5t6 -20v-14q0 -15 -6 -20t-22 -5h-664v-622h727q27 0 27 -25v-18
q0 -15 -6 -20t-21 -5h-766q-15 0 -21.5 5t-6.5 20v112q-103 -147 -367 -147h-98zM215 397q0 -173 86.5 -256.5t273.5 -83.5h111q185 0 273 83.5t88 256.5v639q0 174 -88 257t-273 83h-111q-188 0 -274 -82.5t-86 -257.5v-639z" />
    <glyph glyph-name="oe" unicode="&#x153;" horiz-adv-x="1751" 
d="M469 -10q-165 0 -258.5 87.5t-93.5 250.5v366q0 163 93.5 250.5t258.5 87.5h88q238 0 322 -178q84 178 315 178h92q164 0 256 -87t92 -251v-149q0 -29 -17 -46.5t-46 -17.5h-662v-143q0 -134 79 -210.5t241 -76.5h20q184 0 299 88q14 11 23 2l20 -22q9 -12 -2 -23
q-44 -44 -133 -75t-213 -31h-16q-265 0 -350 180q-84 -180 -320 -180h-88zM182 330q0 -133 70 -205t213 -72h96q143 0 213 72t70 205v362q0 133 -70 205t-213 72h-96q-143 0 -213 -72t-70 -205v-362zM909 543h662v149q0 133 -69.5 205t-213.5 72h-96q-141 0 -212 -75
t-71 -208v-143z" />
    <glyph glyph-name="Racute" unicode="&#x154;" horiz-adv-x="1144" 
d="M172 0q-15 0 -20 5t-5 20v1384q0 15 5 20t20 5h442q220 0 319 -91t99 -303v-190q0 -158 -54.5 -249t-170.5 -126l223 -442q6 -15 1 -24t-19 -9h-21q-16 0 -26 18l-224 449q-45 -10 -88 -10h-438v-432q0 -15 -5 -20t-20 -5h-18zM215 524h403q186 0 266.5 76.5t80.5 249.5
v190q0 174 -80 250t-267 76h-403v-842zM508 1571l162 235q13 20 23 28.5t24 8.5h22q18 0 25 -10t-4 -27l-168 -235q-29 -37 -51 -37h-13q-16 0 -22.5 10t2.5 27z" />
    <glyph glyph-name="racute" unicode="&#x155;" horiz-adv-x="888" 
d="M160 0q-23 0 -23 23v978q0 23 23 23h20q14 0 18.5 -5.5t4.5 -17.5v-98h16q40 61 111.5 95t163.5 34h55q126 0 190 -67.5t64 -192.5v-6q0 -12 -4 -15t-17 -3h-24q-11 0 -15 3.5t-4 14.5q0 95 -46.5 149t-157.5 54h-48q-138 0 -211 -74.5t-73 -206.5v-665q0 -12 -4.5 -17.5
t-18.5 -5.5h-20zM442 1161l162 236q13 20 23 28.5t24 8.5h23q18 0 24.5 -10t-4.5 -27l-168 -236q-29 -37 -51 -37h-12q-16 0 -23 10t2 27z" />
    <glyph glyph-name="uni0156" unicode="&#x156;" horiz-adv-x="1144" 
d="M172 0q-15 0 -20 5t-5 20v1384q0 15 5 20t20 5h442q220 0 319 -91t99 -303v-190q0 -158 -54.5 -249t-170.5 -126l223 -442q6 -15 1 -24t-19 -9h-21q-16 0 -26 18l-224 449q-45 -10 -88 -10h-438v-432q0 -15 -5 -20t-20 -5h-18zM215 524h403q186 0 266.5 76.5t80.5 249.5
v190q0 174 -80 250t-267 76h-403v-842zM434 -442v8q0 15 5 19.5t20 4.5h47v263q0 15 4.5 19.5t19.5 4.5h15q15 0 19.5 -4.5t4.5 -19.5v-281q0 -23 -8.5 -31t-30.5 -8h-71q-15 0 -20 5t-5 20z" />
    <glyph glyph-name="uni0157" unicode="&#x157;" horiz-adv-x="888" 
d="M160 0q-23 0 -23 23v978q0 23 23 23h20q14 0 18.5 -5.5t4.5 -17.5v-98h16q40 61 111.5 95t163.5 34h55q126 0 190 -67.5t64 -192.5v-6q0 -12 -4 -15t-17 -3h-24q-11 0 -15 3.5t-4 14.5q0 95 -46.5 149t-157.5 54h-48q-138 0 -211 -74.5t-73 -206.5v-665q0 -12 -4.5 -17.5
t-18.5 -5.5h-20zM63 -442v8q0 15 5 19.5t20 4.5h47v263q0 15 5 19.5t20 4.5h14q15 0 20 -4.5t5 -19.5v-281q0 -23 -8.5 -31t-30.5 -8h-72q-15 0 -20 5t-5 20z" />
    <glyph glyph-name="Rcaron" unicode="&#x158;" horiz-adv-x="1144" 
d="M172 0q-15 0 -20 5t-5 20v1384q0 15 5 20t20 5h442q220 0 319 -91t99 -303v-190q0 -158 -54.5 -249t-170.5 -126l223 -442q6 -15 1 -24t-19 -9h-21q-16 0 -26 18l-224 449q-45 -10 -88 -10h-438v-432q0 -15 -5 -20t-20 -5h-18zM215 524h403q186 0 266.5 76.5t80.5 249.5
v190q0 174 -80 250t-267 76h-403v-842zM264 1812q-11 12 -8 21.5t18 9.5h25q25 0 43 -20l188 -215h21l188 215q18 20 43 20h25q15 0 17 -9.5t-7 -21.5l-217 -247q-20 -25 -57 -25h-13q-17 0 -26 5t-23 20z" />
    <glyph glyph-name="rcaron" unicode="&#x159;" horiz-adv-x="888" 
d="M160 0q-23 0 -23 23v978q0 23 23 23h20q14 0 18.5 -5.5t4.5 -17.5v-98h16q40 61 111.5 95t163.5 34h55q126 0 190 -67.5t64 -192.5v-6q0 -12 -4 -15t-17 -3h-24q-11 0 -15 3.5t-4 14.5q0 95 -46.5 149t-157.5 54h-48q-138 0 -211 -74.5t-73 -206.5v-665q0 -12 -4.5 -17.5
t-18.5 -5.5h-20zM201 1403q-11 12 -8 21.5t18 9.5h25q24 0 43 -21l188 -215h20l189 215q19 21 43 21h24q15 0 17.5 -9.5t-6.5 -21.5l-217 -248q-20 -25 -58 -25h-12q-17 0 -26 5t-23 20z" />
    <glyph glyph-name="Sacute" unicode="&#x15a;" horiz-adv-x="1155" 
d="M553 -10q-103 0 -180 18t-136 57.5t-89.5 108.5t-30.5 166q0 27 26 27h17q27 0 24 -27q-3 -149 89.5 -216t271.5 -67h92q170 0 252 71t82 226q0 49 -10 89t-25.5 69.5t-43 54t-55 40.5t-68.5 30.5t-76 23t-85 19.5l-76 18q-62 13 -94 21t-82 25t-76 34t-58.5 46.5
t-48 65.5t-27 87.5t-11.5 116.5q0 79 20 139.5t56 100t89.5 64.5t115.5 35.5t139 10.5h47q197 0 301.5 -87t104.5 -278q0 -24 -27 -24h-14q-27 0 -27 24q3 159 -80.5 228t-251.5 69h-57q-177 0 -262.5 -62.5t-85.5 -221.5q0 -73 19 -126.5t41.5 -84t74 -54.5t82.5 -32.5
t102 -23.5q9 -2 13 -3l75 -16q49 -11 80 -18.5t73 -20t68 -24t58 -29.5t52 -37.5t40.5 -47t31.5 -59.5t18 -73t7 -89q0 -188 -108 -276t-301 -88h-76zM545 1571l162 235q13 20 23 28.5t24 8.5h22q18 0 25 -10t-4 -27l-168 -235q-29 -37 -51 -37h-13q-16 0 -22.5 10t2.5 27z
" />
    <glyph glyph-name="sacute" unicode="&#x15b;" horiz-adv-x="958" 
d="M432 -10q-151 0 -238.5 62t-87.5 184q0 11 4.5 16.5t20.5 5.5h19q19 0 22 -27q8 -91 68.5 -135.5t181.5 -44.5h92q61 0 107.5 10t85 34t59 68.5t20.5 108.5q0 50 -18 86t-38 55.5t-71 35t-78 20t-97 13.5l-21 3l-19 2q-77 8 -129 21.5t-100 43t-72 83.5t-24 133
q0 135 86.5 199.5t243.5 64.5h51q153 0 241 -67.5t88 -202.5q0 -27 -20 -27h-21q-13 0 -17.5 6.5t-4.5 22.5q-8 107 -70 157t-190 50h-53q-136 0 -203.5 -46.5t-67.5 -160.5q0 -49 14 -85t37.5 -59t62.5 -39t80.5 -24t100.5 -14l21 -2q67 -7 112 -15t95 -27t79 -46.5
t48.5 -73.5t19.5 -109q0 -280 -338 -280h-82zM444 1161l162 236q13 20 23 28.5t24 8.5h23q18 0 24.5 -10t-4.5 -27l-168 -236q-29 -37 -51 -37h-12q-16 0 -23 10t2 27z" />
    <glyph glyph-name="Scircumflex" unicode="&#x15c;" horiz-adv-x="1155" 
d="M553 -10q-103 0 -180 18t-136 57.5t-89.5 108.5t-30.5 166q0 27 26 27h17q27 0 24 -27q-3 -149 89.5 -216t271.5 -67h92q170 0 252 71t82 226q0 49 -10 89t-25.5 69.5t-43 54t-55 40.5t-68.5 30.5t-76 23t-85 19.5l-76 18q-62 13 -94 21t-82 25t-76 34t-58.5 46.5
t-48 65.5t-27 87.5t-11.5 116.5q0 79 20 139.5t56 100t89.5 64.5t115.5 35.5t139 10.5h47q197 0 301.5 -87t104.5 -278q0 -24 -27 -24h-14q-27 0 -27 24q3 159 -80.5 228t-251.5 69h-57q-177 0 -262.5 -62.5t-85.5 -221.5q0 -73 19 -126.5t41.5 -84t74 -54.5t82.5 -32.5
t102 -23.5q9 -2 13 -3l75 -16q49 -11 80 -18.5t73 -20t68 -24t58 -29.5t52 -37.5t40.5 -47t31.5 -59.5t18 -73t7 -89q0 -188 -108 -276t-301 -88h-76zM285 1571l217 246q14 16 23 21t26 5h12q14 0 22 -1t17.5 -7t18.5 -18l217 -246q9 -12 6.5 -21.5t-17.5 -9.5h-24
q-24 0 -43 21l-189 215h-20l-189 -215q-19 -21 -43 -21h-24q-15 0 -18 9.5t8 21.5z" />
    <glyph glyph-name="scircumflex" unicode="&#x15d;" horiz-adv-x="958" 
d="M432 -10q-151 0 -238.5 62t-87.5 184q0 11 4.5 16.5t20.5 5.5h19q19 0 22 -27q8 -91 68.5 -135.5t181.5 -44.5h92q61 0 107.5 10t85 34t59 68.5t20.5 108.5q0 50 -18 86t-38 55.5t-71 35t-78 20t-97 13.5l-21 3l-19 2q-77 8 -129 21.5t-100 43t-72 83.5t-24 133
q0 135 86.5 199.5t243.5 64.5h51q153 0 241 -67.5t88 -202.5q0 -27 -20 -27h-21q-13 0 -17.5 6.5t-4.5 22.5q-8 107 -70 157t-190 50h-53q-136 0 -203.5 -46.5t-67.5 -160.5q0 -49 14 -85t37.5 -59t62.5 -39t80.5 -24t100.5 -14l21 -2q67 -7 112 -15t95 -27t79 -46.5
t48.5 -73.5t19.5 -109q0 -280 -338 -280h-82zM184 1161l217 246q14 16 24 21.5t26 5.5h12q38 0 57 -27l217 -246q9 -12 7 -21.5t-17 -9.5h-25q-24 0 -43 21l-188 215h-20l-189 -215q-19 -21 -43 -21h-24q-15 0 -18.5 9.5t7.5 21.5z" />
    <glyph glyph-name="Scedilla" unicode="&#x15e;" horiz-adv-x="1155" 
d="M578 -406q-95 0 -135 37.5t-40 116.5q0 23 21 23h22q8 0 14.5 -5t6.5 -12q-3 -53 24.5 -75.5t98.5 -22.5h41q65 0 91 17.5t26 58.5t-23.5 59.5t-73.5 18.5h-110q-32 0 -54 18.5t-22 50.5q0 48 61 111q-199 5 -304 86t-105 264q0 27 26 27h17q27 0 24 -27
q-3 -149 89.5 -216t271.5 -67h92q170 0 252 71t82 226q0 49 -10 89t-25.5 69.5t-43 54t-55 40.5t-68.5 30.5t-76 23t-85 19.5l-76 18q-62 13 -94 21t-82 25t-76 34t-58.5 46.5t-48 65.5t-27 87.5t-11.5 116.5q0 79 20 139.5t56 100t89.5 64.5t115.5 35.5t139 10.5h47
q197 0 301.5 -87t104.5 -278q0 -24 -27 -24h-14q-27 0 -27 24q3 159 -80.5 228t-251.5 69h-57q-177 0 -262.5 -62.5t-85.5 -221.5q0 -73 19 -126.5t41.5 -84t74 -54.5t82.5 -32.5t102 -23.5q9 -2 13 -3l75 -16q49 -11 80 -18.5t73 -20t68 -24t58 -29.5t52 -37.5t40.5 -47
t31.5 -59.5t18 -73t7 -89q0 -188 -108 -276t-301 -88h-27q-124 -121 -20 -121h69q29 0 49.5 -2.5t43.5 -11t37 -23.5t23 -42t9 -64q0 -68 -39 -100t-133 -32h-63z" />
    <glyph glyph-name="scedilla" unicode="&#x15f;" horiz-adv-x="958" 
d="M477 -406q-95 0 -134.5 37.5t-39.5 116.5q0 23 21 23h22q8 0 14.5 -5t6.5 -12q-3 -53 24 -75.5t98 -22.5h41q65 0 91 17.5t26 58.5t-23 59.5t-73 18.5h-111q-32 0 -53.5 18.5t-21.5 50.5q0 48 61 111q-148 2 -234 63.5t-86 182.5q0 11 4.5 16.5t20.5 5.5h19q19 0 22 -27
q8 -91 68.5 -135.5t181.5 -44.5h92q61 0 107.5 10t85 34t59 68.5t20.5 108.5q0 50 -18 86t-38 55.5t-71 35t-78 20t-97 13.5l-21 3l-19 2q-77 8 -129 21.5t-100 43t-72 83.5t-24 133q0 135 86.5 199.5t243.5 64.5h51q153 0 241 -67.5t88 -202.5q0 -27 -20 -27h-21
q-13 0 -17.5 6.5t-4.5 22.5q-8 107 -70 157t-190 50h-53q-136 0 -203.5 -46.5t-67.5 -160.5q0 -49 14 -85t37.5 -59t62.5 -39t80.5 -24t100.5 -14l21 -2q67 -7 112 -15t95 -27t79 -46.5t48.5 -73.5t19.5 -109q0 -280 -338 -280h-12q-124 -121 -21 -121h70q29 0 49.5 -2.5
t43.5 -11t37 -23.5t23 -42t9 -64q0 -68 -39 -100t-133 -32h-64z" />
    <glyph glyph-name="Scaron" unicode="&#x160;" horiz-adv-x="1155" 
d="M553 -10q-103 0 -180 18t-136 57.5t-89.5 108.5t-30.5 166q0 27 26 27h17q27 0 24 -27q-3 -149 89.5 -216t271.5 -67h92q170 0 252 71t82 226q0 49 -10 89t-25.5 69.5t-43 54t-55 40.5t-68.5 30.5t-76 23t-85 19.5l-76 18q-62 13 -94 21t-82 25t-76 34t-58.5 46.5
t-48 65.5t-27 87.5t-11.5 116.5q0 79 20 139.5t56 100t89.5 64.5t115.5 35.5t139 10.5h47q197 0 301.5 -87t104.5 -278q0 -24 -27 -24h-14q-27 0 -27 24q3 159 -80.5 228t-251.5 69h-57q-177 0 -262.5 -62.5t-85.5 -221.5q0 -73 19 -126.5t41.5 -84t74 -54.5t82.5 -32.5
t102 -23.5q9 -2 13 -3l75 -16q49 -11 80 -18.5t73 -20t68 -24t58 -29.5t52 -37.5t40.5 -47t31.5 -59.5t18 -73t7 -89q0 -188 -108 -276t-301 -88h-76zM303 1812q-11 12 -8 21.5t18 9.5h25q25 0 43 -20l188 -215h21l188 215q18 20 43 20h25q15 0 17 -9.5t-7 -21.5l-217 -247
q-20 -25 -57 -25h-13q-17 0 -26 5t-23 20z" />
    <glyph glyph-name="scaron" unicode="&#x161;" horiz-adv-x="958" 
d="M432 -10q-151 0 -238.5 62t-87.5 184q0 11 4.5 16.5t20.5 5.5h19q19 0 22 -27q8 -91 68.5 -135.5t181.5 -44.5h92q61 0 107.5 10t85 34t59 68.5t20.5 108.5q0 50 -18 86t-38 55.5t-71 35t-78 20t-97 13.5l-21 3l-19 2q-77 8 -129 21.5t-100 43t-72 83.5t-24 133
q0 135 86.5 199.5t243.5 64.5h51q153 0 241 -67.5t88 -202.5q0 -27 -20 -27h-21q-13 0 -17.5 6.5t-4.5 22.5q-8 107 -70 157t-190 50h-53q-136 0 -203.5 -46.5t-67.5 -160.5q0 -49 14 -85t37.5 -59t62.5 -39t80.5 -24t100.5 -14l21 -2q67 -7 112 -15t95 -27t79 -46.5
t48.5 -73.5t19.5 -109q0 -280 -338 -280h-82zM201 1403q-11 12 -8 21.5t18 9.5h25q24 0 43 -21l188 -215h20l189 215q19 21 43 21h24q15 0 17.5 -9.5t-6.5 -21.5l-217 -248q-20 -25 -58 -25h-12q-17 0 -26 5t-23 20z" />
    <glyph glyph-name="uni0162" unicode="&#x162;" horiz-adv-x="1069" 
d="M563 -406q-96 0 -135 38.5t-39 119.5q0 19 17 19h26q7 0 13.5 -5t5.5 -12q0 -54 25 -75t95 -21h45q73 0 95 12t22 60q0 43 -24 58t-93 15h-63q-28 0 -39.5 16.5t-11.5 53.5v1493h-367q-29 0 -29 27v16q0 14 6.5 19.5t22.5 5.5h799q16 0 22.5 -5.5t6.5 -19.5v-16
q0 -27 -29 -27h-365v-1477q0 -24 45 -24h10q34 0 51.5 -1t44.5 -7.5t41 -20t25 -40.5t11 -66q0 -70 -38 -103t-132 -33h-64z" />
    <glyph glyph-name="uni0163" unicode="&#x163;" horiz-adv-x="530" 
d="M414 -10q-21 0 -31 2q-115 -115 -14 -115h69q29 0 49.5 -2.5t43.5 -11t37 -23.5t23 -42t9 -64q0 -68 -39 -99.5t-133 -31.5h-63q-96 0 -135.5 37t-39.5 116q0 23 21 23h22q8 0 14.5 -5t6.5 -12q-3 -53 24.5 -75.5t98.5 -22.5h41q65 0 91 17.5t26 58.5t-23.5 59.5
t-73.5 18.5h-110q-32 0 -54 18.5t-22 50.5q0 49 72 121q-86 44 -86 193v762h-142q-20 0 -20 20v21q0 20 20 20h142v184q0 23 20 23h23q20 0 20 -23v-184h156q11 0 15.5 -4t4.5 -16v-21q0 -12 -4.5 -16t-15.5 -4h-156v-740q0 -100 31 -136t112 -36q27 0 27 -18v-23
q0 -20 -57 -20z" />
    <glyph glyph-name="Tcaron" unicode="&#x164;" horiz-adv-x="1069" 
d="M526 0q-15 0 -19.5 5t-4.5 20v1341h-367q-29 0 -29 27v16q0 14 6.5 19.5t22.5 5.5h799q16 0 22.5 -5.5t6.5 -19.5v-16q0 -27 -29 -27h-365v-1341q0 -15 -4.5 -20t-19.5 -5h-19zM258 1812q-11 12 -8 21.5t18 9.5h25q25 0 43 -20l188 -215h21l188 215q18 20 43 20h25
q15 0 17 -9.5t-7 -21.5l-217 -247q-20 -25 -57 -25h-13q-17 0 -26 5t-23 20z" />
    <glyph glyph-name="tcaron" unicode="&#x165;" horiz-adv-x="514" 
d="M414 -10q-85 0 -130.5 49t-45.5 162v762h-142q-20 0 -20 20v21q0 20 20 20h142v184q0 23 20 23h23q20 0 20 -23v-184h156q11 0 15.5 -4t4.5 -16v-21q0 -12 -4.5 -16t-15.5 -4h-156v-740q0 -100 31 -136t112 -36q27 0 27 -18v-23q0 -20 -57 -20zM369 1120v8q0 15 4.5 20
t19.5 5h47v264q0 15 5 20t20 5h14q15 0 20 -5t5 -20v-282q0 -22 -8.5 -30.5t-30.5 -8.5h-72q-15 0 -19.5 4.5t-4.5 19.5z" />
    <glyph glyph-name="Tbar" unicode="&#x166;" horiz-adv-x="1069" 
d="M526 0q-15 0 -19.5 5t-4.5 20v895h-301q-29 0 -29 28v15q0 28 29 28h301v375h-367q-29 0 -29 27v16q0 14 6.5 19.5t22.5 5.5h799q16 0 22.5 -5.5t6.5 -19.5v-16q0 -27 -29 -27h-365v-375h299q29 0 29 -28v-15q0 -28 -29 -28h-299v-895q0 -15 -4.5 -20t-19.5 -5h-19z" />
    <glyph glyph-name="tbar" unicode="&#x167;" horiz-adv-x="575" 
d="M96 723q-20 0 -20 22v19q0 22 20 22h142v177h-142q-20 0 -20 20v21q0 20 20 20h142v184q0 23 20 23h23q20 0 20 -23v-184h156q11 0 15.5 -4t4.5 -16v-21q0 -12 -4.5 -16t-15.5 -4h-156v-177h156q20 0 20 -22v-19q0 -22 -20 -22h-156v-500q0 -100 31 -136t112 -36
q27 0 27 -18v-23q0 -20 -57 -20q-85 0 -130.5 49t-45.5 162v522h-142z" />
    <glyph glyph-name="Utilde" unicode="&#x168;" 
d="M582 -10q-218 0 -326.5 99.5t-108.5 307.5v1012q0 15 5 20t20 5h18q15 0 20 -5t5 -20v-1012q0 -173 86.5 -256.5t273.5 -83.5h111q185 0 273 83.5t88 256.5v1012q0 15 4.5 20t19.5 5h19q15 0 19.5 -5t4.5 -20v-1012q0 -207 -109 -307t-325 -100h-98zM309 1780
q-11 14 13 26q85 47 153 47q54 0 107.5 -26t106.5 -52t106 -26q62 0 116 37q20 14 29 -6l12 -17q7 -16 -12 -28q-85 -47 -154 -47q-43 0 -86.5 16.5t-74 36.5t-74 36.5t-86.5 16.5q-54 0 -117 -39q-18 -13 -26 8z" />
    <glyph glyph-name="utilde" unicode="&#x169;" horiz-adv-x="1067" 
d="M481 -8q-177 0 -260.5 85.5t-83.5 260.5v663q0 12 4.5 17.5t18.5 5.5h20q23 0 23 -23v-661q0 -142 67.5 -213.5t218.5 -71.5h66q149 0 229 74.5t80 206.5v665q0 12 4.5 17.5t18.5 5.5h20q23 0 23 -23v-978q0 -23 -23 -23h-20q-14 0 -18.5 5.5t-4.5 17.5v98h-16
q-94 -129 -285 -129h-82zM180 1370q-11 15 13 27q85 47 153 47q43 0 86.5 -16.5t74 -36t74 -36t85.5 -16.5q62 0 116 37q20 14 29 -6l12 -16q7 -17 -12 -29q-85 -47 -154 -47q-43 0 -86.5 16.5t-74 36.5t-74 36.5t-86.5 16.5q-55 0 -117 -38q-18 -13 -26 8z" />
    <glyph glyph-name="Umacron" unicode="&#x16a;" 
d="M582 -10q-218 0 -326.5 99.5t-108.5 307.5v1012q0 15 5 20t20 5h18q15 0 20 -5t5 -20v-1012q0 -173 86.5 -256.5t273.5 -83.5h111q185 0 273 83.5t88 256.5v1012q0 15 4.5 20t19.5 5h19q15 0 19.5 -5t4.5 -20v-1012q0 -207 -109 -307t-325 -100h-98zM270 1800v15
q0 28 29 28h668q28 0 28 -28v-15q0 -28 -28 -28h-668q-29 0 -29 28z" />
    <glyph glyph-name="umacron" unicode="&#x16b;" horiz-adv-x="1067" 
d="M481 -8q-177 0 -260.5 85.5t-83.5 260.5v663q0 12 4.5 17.5t18.5 5.5h20q23 0 23 -23v-661q0 -142 67.5 -213.5t218.5 -71.5h66q149 0 229 74.5t80 206.5v665q0 12 4.5 17.5t18.5 5.5h20q23 0 23 -23v-978q0 -23 -23 -23h-20q-14 0 -18.5 5.5t-4.5 17.5v98h-16
q-94 -129 -285 -129h-82zM139 1391v14q0 29 29 29h668q28 0 28 -29v-14q0 -29 -28 -29h-668q-29 0 -29 29z" />
    <glyph glyph-name="Ubreve" unicode="&#x16c;" 
d="M582 -10q-218 0 -326.5 99.5t-108.5 307.5v1012q0 15 5 20t20 5h18q15 0 20 -5t5 -20v-1012q0 -173 86.5 -256.5t273.5 -83.5h111q185 0 273 83.5t88 256.5v1012q0 15 4.5 20t19.5 5h19q15 0 19.5 -5t4.5 -20v-1012q0 -207 -109 -307t-325 -100h-98zM379 1817q0 26 24 26
h17q24 0 24 -26q0 -77 39.5 -121.5t112.5 -44.5h72q73 0 112 44t39 122q0 26 25 26h16q25 0 25 -26q0 -228 -223 -228h-62q-107 0 -164 57t-57 171z" />
    <glyph glyph-name="ubreve" unicode="&#x16d;" horiz-adv-x="1067" 
d="M481 -8q-177 0 -260.5 85.5t-83.5 260.5v663q0 12 4.5 17.5t18.5 5.5h20q23 0 23 -23v-661q0 -142 67.5 -213.5t218.5 -71.5h66q149 0 229 74.5t80 206.5v665q0 12 4.5 17.5t18.5 5.5h20q23 0 23 -23v-978q0 -23 -23 -23h-20q-14 0 -18.5 5.5t-4.5 17.5v98h-16
q-94 -129 -285 -129h-82zM248 1407q0 27 24 27h17q24 0 24 -27q0 -77 39.5 -121.5t112.5 -44.5h72q73 0 112 44t39 122q0 27 25 27h16q25 0 25 -27q0 -227 -224 -227h-61q-107 0 -164 56.5t-57 170.5z" />
    <glyph glyph-name="Uring" unicode="&#x16e;" 
d="M582 -10q-218 0 -326.5 99.5t-108.5 307.5v1012q0 15 5 20t20 5h18q15 0 20 -5t5 -20v-1012q0 -173 86.5 -256.5t273.5 -83.5h111q185 0 273 83.5t88 256.5v1012q0 15 4.5 20t19.5 5h19q15 0 19.5 -5t4.5 -20v-1012q0 -207 -109 -307t-325 -100h-98zM449 1681v25
q0 71 49 119.5t123 48.5h24q74 0 123 -48.5t49 -119.5v-25q0 -71 -49 -119.5t-123 -48.5h-24q-74 0 -123 48.5t-49 119.5zM516 1686q0 -48 29 -77.5t80 -29.5h16q50 0 79.5 29.5t29.5 77.5v16q0 48 -29.5 77t-79.5 29h-16q-52 0 -80.5 -29t-28.5 -77v-16z" />
    <glyph glyph-name="uring" unicode="&#x16f;" horiz-adv-x="1067" 
d="M481 -8q-177 0 -260.5 85.5t-83.5 260.5v663q0 12 4.5 17.5t18.5 5.5h20q23 0 23 -23v-661q0 -142 67.5 -213.5t218.5 -71.5h66q149 0 229 74.5t80 206.5v665q0 12 4.5 17.5t18.5 5.5h20q23 0 23 -23v-978q0 -23 -23 -23h-20q-14 0 -18.5 5.5t-4.5 17.5v98h-16
q-94 -129 -285 -129h-82zM317 1272v24q0 71 49 119.5t123 48.5h25q74 0 123 -48.5t49 -119.5v-24q0 -71 -49 -119.5t-123 -48.5h-25q-74 0 -123 48.5t-49 119.5zM385 1276q0 -48 29 -77.5t80 -29.5h16q50 0 79 29.5t29 77.5v16q0 48 -29 77.5t-79 29.5h-16q-51 0 -80 -29.5
t-29 -77.5v-16z" />
    <glyph glyph-name="Uhungarumlaut" unicode="&#x170;" 
d="M582 -10q-218 0 -326.5 99.5t-108.5 307.5v1012q0 15 5 20t20 5h18q15 0 20 -5t5 -20v-1012q0 -173 86.5 -256.5t273.5 -83.5h111q185 0 273 83.5t88 256.5v1012q0 15 4.5 20t19.5 5h19q15 0 19.5 -5t4.5 -20v-1012q0 -207 -109 -307t-325 -100h-98zM500 1571l162 235
q13 20 23 28.5t24 8.5h22q18 0 25 -10t-4 -27l-168 -235q-29 -37 -52 -37h-12q-16 0 -22.5 10t2.5 27zM711 1571l161 235q24 37 48 37h22q18 0 25 -10t-4 -27l-168 -235q-29 -37 -52 -37h-12q-16 0 -22.5 10t2.5 27z" />
    <glyph glyph-name="uhungarumlaut" unicode="&#x171;" horiz-adv-x="1067" 
d="M481 -8q-177 0 -260.5 85.5t-83.5 260.5v663q0 12 4.5 17.5t18.5 5.5h20q23 0 23 -23v-661q0 -142 67.5 -213.5t218.5 -71.5h66q149 0 229 74.5t80 206.5v665q0 12 4.5 17.5t18.5 5.5h20q23 0 23 -23v-978q0 -23 -23 -23h-20q-14 0 -18.5 5.5t-4.5 17.5v98h-16
q-94 -129 -285 -129h-82zM371 1161l161 236q24 37 48 37h22q18 0 25 -10t-4 -27l-168 -236q-29 -37 -52 -37h-12q-16 0 -22.5 10t2.5 27zM582 1161l161 236q24 37 48 37h22q18 0 25 -10t-4 -27l-168 -236q-29 -37 -52 -37h-12q-16 0 -22.5 10t2.5 27z" />
    <glyph glyph-name="Uogonek" unicode="&#x172;" 
d="M582 -10q-218 0 -326.5 99.5t-108.5 307.5v1012q0 15 5 20t20 5h18q15 0 20 -5t5 -20v-1012q0 -173 86.5 -256.5t273.5 -83.5h111q185 0 273 83.5t88 256.5v1012q0 15 4.5 20t19.5 5h19q15 0 19.5 -5t4.5 -20v-1012q0 -384 -381 -405v-37q0 -66 -15 -91.5t-63 -29.5
l-194 -24q-20 -3 -28.5 -5t-18 -9.5t-12.5 -21.5t-3 -38q0 -53 22.5 -70.5t92.5 -17.5h180q21 0 21 -21v-16q0 -21 -21 -21h-186q-98 0 -135 33t-37 111q0 22 1.5 38.5t8 30t11.5 22t19.5 15.5t22.5 11t31.5 7.5t36.5 5.5t45 5l92 10q23 3 36.5 8.5t19 15t7 18t1.5 24.5v45
h-86z" />
    <glyph glyph-name="uogonek" unicode="&#x173;" horiz-adv-x="1067" 
d="M481 -8q-177 0 -260.5 85.5t-83.5 260.5v663q0 12 4.5 17.5t18.5 5.5h20q23 0 23 -23v-661q0 -142 67.5 -213.5t218.5 -71.5h66q149 0 229 74.5t80 206.5v665q0 12 4.5 17.5t18.5 5.5h20q23 0 23 -23v-1046q0 -66 -15 -91.5t-63 -29.5l-195 -24q-20 -3 -28.5 -5
t-17.5 -9.5t-12 -21.5t-3 -38q0 -53 22.5 -70.5t92.5 -17.5h180q20 0 20 -21v-16q0 -21 -20 -21h-186q-98 0 -135.5 33t-37.5 111q0 22 1.5 38.5t8.5 30t11.5 22t19 15.5t23 11t32 7.5t36.5 5t45 5.5l92 10q23 3 36.5 8t19 15.5t6.5 18t1 24.5v176h-16q-94 -129 -285 -129
h-82z" />
    <glyph glyph-name="Wcircumflex" unicode="&#x174;" horiz-adv-x="1824" 
d="M463 0q-30 0 -37 33l-336 1370q-11 31 21 31h18q14 0 20.5 -6.5t12.5 -24.5l321 -1327h15l366 1327q5 18 11 24.5t20 6.5h35q15 0 20 -5t11 -26l364 -1327h16l322 1327q5 18 11.5 24.5t21.5 6.5h18q29 0 21 -31l-338 -1370q-7 -33 -35 -33h-64q-23 0 -36 33l-340 1278
h-19l-340 -1278q-13 -33 -37 -33h-63zM618 1571l218 246q14 16 23 21t26 5h12q14 0 21.5 -1t17 -7t18.5 -18l217 -246q9 -12 7 -21.5t-17 -9.5h-24q-24 0 -43 21l-189 215h-20l-189 -215q-19 -21 -43 -21h-24q-15 0 -18.5 9.5t7.5 21.5z" />
    <glyph glyph-name="wcircumflex" unicode="&#x175;" horiz-adv-x="1454" 
d="M377 0q-27 0 -37 29l-250 966q-4 12 -2 20.5t16 8.5h25q22 0 29 -29l235 -923h6l277 923q0 1 1.5 4.5t2 4.5t1.5 4t2 4t2.5 3.5t2.5 3t3 2t4 2t4.5 1t5.5 0.5h45q6 0 10 -1t6.5 -4.5t3.5 -6t3 -8.5l3 -9l277 -923h6l235 923q7 29 29 29h25q23 0 16 -29l-250 -966
q-10 -29 -37 -29h-43q-27 0 -37 29l-268 917h-6l-268 -917q-10 -29 -37 -29h-41zM432 1161l217 246q15 16 24 21.5t25 5.5h13q38 0 57 -27l217 -246q9 -12 7 -21.5t-17 -9.5h-25q-24 0 -43 21l-188 215h-21l-188 -215q-19 -21 -43 -21h-25q-15 0 -18 9.5t8 21.5z" />
    <glyph glyph-name="Ycircumflex" unicode="&#x176;" horiz-adv-x="1107" 
d="M90 1405q-13 29 10 29h37q14 0 20 -6t15 -23l377 -752h10l377 752q6 12 9.5 17t9.5 8.5t16 3.5h35q25 0 12 -29l-430 -840v-540q0 -15 -5 -20t-20 -5h-18q-15 0 -20 5t-5 20v536zM260 1571l217 246q14 16 23 21t26 5h13q14 0 21.5 -1t17 -7t18.5 -18l217 -246
q9 -12 7 -21.5t-17 -9.5h-25q-24 0 -43 21l-188 215h-21l-188 -215q-19 -21 -43 -21h-25q-15 0 -18 9.5t8 21.5z" />
    <glyph glyph-name="ycircumflex" unicode="&#x177;" horiz-adv-x="1030" 
d="M375 -362q-25 0 -17 28l121 309l-391 1020q-5 12 -3 20.5t15 8.5h31q13 0 18.5 -7t12.5 -26l346 -921h10l348 921q5 14 7.5 19.5t8 9.5t15.5 4h31q14 0 16 -8.5t-2 -20.5l-514 -1329q-4 -10 -6.5 -14t-9 -9t-15.5 -5h-22zM219 1161l217 246q15 16 24 21.5t25 5.5h13
q38 0 57 -27l217 -246q9 -12 7 -21.5t-17 -9.5h-25q-24 0 -43 21l-188 215h-21l-188 -215q-19 -21 -43 -21h-25q-15 0 -18 9.5t8 21.5z" />
    <glyph glyph-name="Ydieresis" unicode="&#x178;" horiz-adv-x="1107" 
d="M90 1405q-13 29 10 29h37q14 0 20 -6t15 -23l377 -752h10l377 752q6 12 9.5 17t9.5 8.5t16 3.5h35q25 0 12 -29l-430 -840v-540q0 -15 -5 -20t-20 -5h-18q-15 0 -20 5t-5 20v536zM258 1786v33q0 15 5 19.5t20 4.5h32q15 0 20 -4.5t5 -19.5v-33q0 -15 -5 -20t-20 -5h-32
q-15 0 -20 5t-5 20zM768 1786v33q0 15 5 19.5t20 4.5h32q15 0 20 -4.5t5 -19.5v-33q0 -15 -5 -20t-20 -5h-32q-15 0 -20 5t-5 20z" />
    <glyph glyph-name="Zacute" unicode="&#x179;" horiz-adv-x="1056" 
d="M135 0q-16 0 -22.5 5.5t-6.5 19.5v43q0 17 13 43l758 1243v12h-723q-15 0 -21 6t-6 21v16q0 15 6 20t21 5h768q15 0 20.5 -5t5.5 -20v-43q0 -19 -12 -43l-756 -1243v-12h738q28 0 28 -25v-18q0 -15 -6 -20t-22 -5h-783zM496 1571l161 235q24 37 48 37h22q18 0 25 -10
t-4 -27l-168 -235q-29 -37 -52 -37h-12q-16 0 -22.5 10t2.5 27z" />
    <glyph glyph-name="zacute" unicode="&#x17a;" horiz-adv-x="866" 
d="M109 0q-23 0 -23 23v32q0 17 10 29l606 866v13h-569q-11 0 -15.5 4.5t-4.5 17.5v19q0 12 4.5 16t15.5 4h615q22 0 22 -23v-43q0 -11 -10 -24l-604 -860v-13h592q22 0 22 -22v-16q0 -23 -22 -23h-639zM410 1161l161 236q13 20 23 28.5t24 8.5h23q18 0 25 -10t-4 -27
l-168 -236q-29 -37 -52 -37h-12q-16 0 -22.5 10t2.5 27z" />
    <glyph glyph-name="Zdotaccent" unicode="&#x17b;" horiz-adv-x="1056" 
d="M135 0q-16 0 -22.5 5.5t-6.5 19.5v43q0 17 13 43l758 1243v12h-723q-15 0 -21 6t-6 21v16q0 15 6 20t21 5h768q15 0 20.5 -5t5.5 -20v-43q0 -19 -12 -43l-756 -1243v-12h738q28 0 28 -25v-18q0 -15 -6 -20t-22 -5h-783zM487 1786v33q0 15 5 19.5t20 4.5h33
q15 0 19.5 -4.5t4.5 -19.5v-33q0 -15 -4.5 -20t-19.5 -5h-33q-15 0 -20 5t-5 20z" />
    <glyph glyph-name="zdotaccent" unicode="&#x17c;" horiz-adv-x="866" 
d="M109 0q-23 0 -23 23v32q0 17 10 29l606 866v13h-569q-11 0 -15.5 4.5t-4.5 17.5v19q0 12 4.5 16t15.5 4h615q22 0 22 -23v-43q0 -11 -10 -24l-604 -860v-13h592q22 0 22 -22v-16q0 -23 -22 -23h-639zM401 1376v33q0 15 5 20t20 5h33q15 0 19.5 -5t4.5 -20v-33
q0 -15 -4.5 -19.5t-19.5 -4.5h-33q-15 0 -20 4.5t-5 19.5z" />
    <glyph glyph-name="Zcaron" unicode="&#x17d;" horiz-adv-x="1056" 
d="M135 0q-16 0 -22.5 5.5t-6.5 19.5v43q0 17 13 43l758 1243v12h-723q-15 0 -21 6t-6 21v16q0 15 6 20t21 5h768q15 0 20.5 -5t5.5 -20v-43q0 -19 -12 -43l-756 -1243v-12h738q28 0 28 -25v-18q0 -15 -6 -20t-22 -5h-783zM254 1812q-11 12 -8 21.5t18 9.5h25q25 0 43 -20
l188 -215h21l188 215q18 20 43 20h25q15 0 17 -9.5t-7 -21.5l-217 -247q-20 -25 -58 -25h-12q-17 0 -26 5t-23 20z" />
    <glyph glyph-name="zcaron" unicode="&#x17e;" horiz-adv-x="866" 
d="M109 0q-23 0 -23 23v32q0 17 10 29l606 866v13h-569q-11 0 -15.5 4.5t-4.5 17.5v19q0 12 4.5 16t15.5 4h615q22 0 22 -23v-43q0 -11 -10 -24l-604 -860v-13h592q22 0 22 -22v-16q0 -23 -22 -23h-639zM168 1403q-11 12 -8 21.5t18 9.5h25q24 0 43 -21l188 -215h21l188 215
q19 21 43 21h25q15 0 17 -9.5t-7 -21.5l-217 -248q-20 -25 -58 -25h-12q-17 0 -26 5t-23 20z" />
    <glyph glyph-name="uni018F" unicode="&#x18f;" horiz-adv-x="1236" 
d="M582 -10q-435 0 -435 407v330q0 12 8 19.5t19 7.5h848v282q0 174 -88 257t-275 83h-92q-183 0 -267.5 -77t-84.5 -246q0 -6 -4 -11.5t-10 -5.5h-37q-17 0 -17 17v8q0 197 104.5 290t321.5 93h82q435 0 435 -408v-639q0 -407 -435 -407h-73zM215 397q0 -173 87.5 -256.5
t272.5 -83.5h84q186 0 274.5 83.5t88.5 256.5v293h-807v-293z" />
    <glyph glyph-name="florin" unicode="&#x192;" horiz-adv-x="882" 
d="M117 -410q-31 0 -31 31v2q0 31 31 31h92q111 0 158 61t47 185v1063h-109q-11 0 -15.5 4.5t-4.5 17.5v16q0 23 20 23h109v102q0 308 274 308h86q31 0 31 -31v-2q0 -31 -31 -31h-90q-113 0 -160 -61t-47 -185v-1226q0 -308 -274 -308h-86z" />
    <glyph glyph-name="Ohorn" unicode="&#x1a0;" 
d="M582 -10q-218 0 -326.5 99.5t-108.5 307.5v639q0 208 108.5 308t326.5 100h352q110 0 110 110v41q0 12 7.5 19.5t19.5 7.5h16q12 0 19.5 -7.5t7.5 -19.5v-47q0 -81 -43.5 -123.5t-118.5 -42.5q162 -96 162 -346v-639q0 -207 -109 -307t-325 -100h-98zM215 397
q0 -173 86.5 -256.5t273.5 -83.5h111q185 0 273 83.5t88 256.5v639q0 174 -88 257t-273 83h-111q-188 0 -274 -82.5t-86 -257.5v-639z" />
    <glyph glyph-name="ohorn" unicode="&#x1a1;" horiz-adv-x="1026" 
d="M469 -10q-165 0 -258.5 87.5t-93.5 250.5v366q0 163 93.5 250.5t258.5 87.5h264q111 0 111 111v41q0 26 24 26h11q26 0 26 -26v-47q0 -70 -33.5 -111.5t-93.5 -52.5q131 -86 131 -279v-366q0 -163 -94.5 -250.5t-257.5 -87.5h-88zM182 330q0 -133 70 -205t213 -72h96
q143 0 213 72t70 205v362q0 133 -70 205t-213 72h-96q-143 0 -213 -72t-70 -205v-362z" />
    <glyph glyph-name="Uhorn" unicode="&#x1af;" 
d="M582 -10q-218 0 -326.5 99.5t-108.5 307.5v1012q0 15 5 20t20 5h18q15 0 20 -5t5 -20v-1012q0 -173 86.5 -256.5t273.5 -83.5h111q185 0 273 83.5t88 256.5v1012q0 21 10 23v2h30q111 0 111 110v51q0 12 7.5 19.5t19.5 7.5h16q12 0 19.5 -7.5t7.5 -19.5v-57
q0 -78 -41.5 -120.5t-112.5 -45.5v-975q0 -207 -109 -307t-325 -100h-98z" />
    <glyph glyph-name="uhorn" unicode="&#x1b0;" horiz-adv-x="1067" 
d="M481 -8q-177 0 -260.5 85.5t-83.5 260.5v663q0 12 4.5 17.5t18.5 5.5h20q23 0 23 -23v-661q0 -142 67.5 -213.5t218.5 -71.5h66q149 0 229 74.5t80 206.5v665q0 19 10 21v2h29q111 0 111 113v49q0 24 26 24h11q11 0 17.5 -7t6.5 -17v-58q0 -75 -39 -117.5t-106 -47.5
v-940q0 -23 -23 -23h-20q-14 0 -18.5 5.5t-4.5 17.5v98h-16q-94 -129 -285 -129h-82z" />
    <glyph glyph-name="uni01CD" unicode="&#x1cd;" horiz-adv-x="1175" 
d="M618 1434q25 0 35 -33l432 -1370q8 -31 -20 -31h-18q-15 0 -21.5 6.5t-11.5 24.5l-94 299h-666l-94 -299q-5 -18 -11.5 -24.5t-21.5 -6.5h-18q-29 0 -21 31l432 1370q10 33 37 33h61zM274 391h627l-305 969h-16zM311 1812q-11 12 -7.5 21.5t18.5 9.5h24q25 0 43 -20
l189 -215h20l188 215q18 20 43 20h25q15 0 17 -9.5t-7 -21.5l-217 -247q-20 -25 -57 -25h-12q-28 0 -50 25z" />
    <glyph glyph-name="uni01CE" unicode="&#x1ce;" horiz-adv-x="1038" 
d="M858 0q-22 0 -22 23v149h-17q-60 -82 -157.5 -132t-219.5 -50h-6q-172 0 -251 77t-79 224v43q0 256 312 256h418v104q0 69 -12.5 116t-44.5 84.5t-92.5 55t-151.5 17.5q-198 0 -308 -41q-16 -6 -20 10l-6 31q-3 15 8 18q118 47 307 47h35q182 0 266 -82t84 -250v-677
q0 -23 -22 -23h-21zM174 295q0 -123 61 -180.5t187 -57.5h55q138 0 248.5 93.5t110.5 207.5v168h-416q-124 0 -185 -45t-61 -153v-33zM264 1403q-11 12 -8 21.5t18 9.5h25q24 0 43 -21l188 -215h21l188 215q19 21 43 21h25q15 0 17 -9.5t-7 -21.5l-217 -248q-20 -25 -57 -25
h-13q-17 0 -26 5t-23 20z" />
    <glyph glyph-name="uni01CF" unicode="&#x1cf;" horiz-adv-x="364" 
d="M172 0q-15 0 -20 5t-5 20v1384q0 15 5 20t20 5h18q15 0 20 -5t5 -20v-1384q0 -15 -5 -20t-20 -5h-18zM-94 1812q-11 12 -8 21.5t18 9.5h25q25 0 43 -20l188 -215h21l188 215q18 20 43 20h25q15 0 17 -9.5t-7 -21.5l-217 -247q-20 -25 -58 -25h-12q-17 0 -26 5t-23 20z
" />
    <glyph glyph-name="uni01D0" unicode="&#x1d0;" horiz-adv-x="288" 
d="M135 0q-22 0 -22 23v978q0 23 22 23h21q20 0 20 -23v-978q0 -23 -20 -23h-21zM-131 1403q-11 12 -8 21.5t18 9.5h25q24 0 43 -21l188 -215h21l188 215q19 21 43 21h25q15 0 17 -9.5t-7 -21.5l-217 -248q-20 -25 -58 -25h-12q-17 0 -26 5t-23 20z" />
    <glyph glyph-name="uni01D1" unicode="&#x1d1;" 
d="M582 -10q-218 0 -326.5 99.5t-108.5 307.5v639q0 208 108.5 308t326.5 100h98q434 0 434 -408v-639q0 -207 -109 -307t-325 -100h-98zM215 397q0 -173 86.5 -256.5t273.5 -83.5h111q185 0 273 83.5t88 256.5v639q0 174 -88 257t-273 83h-111q-188 0 -274 -82.5
t-86 -257.5v-639zM356 1812q-11 12 -7.5 21.5t18.5 9.5h24q25 0 43 -20l189 -215h20l188 215q18 20 43 20h25q15 0 17 -9.5t-7 -21.5l-217 -247q-20 -25 -57 -25h-12q-17 0 -26.5 5t-23.5 20z" />
    <glyph glyph-name="uni01D2" unicode="&#x1d2;" horiz-adv-x="1026" 
d="M469 -10q-165 0 -258.5 87.5t-93.5 250.5v366q0 163 93.5 250.5t258.5 87.5h88q164 0 258 -87.5t94 -250.5v-366q0 -163 -94.5 -250.5t-257.5 -87.5h-88zM182 330q0 -133 70 -205t213 -72h96q143 0 213 72t70 205v362q0 133 -70 205t-213 72h-96q-143 0 -213 -72
t-70 -205v-362zM236 1403q-11 12 -8 21.5t18 9.5h24q24 0 43 -21l189 -215h20l189 215q19 21 43 21h24q15 0 17 -9.5t-7 -21.5l-217 -248q-20 -25 -57 -25h-12q-17 0 -26 5t-23 20z" />
    <glyph glyph-name="uni01D3" unicode="&#x1d3;" 
d="M582 -10q-218 0 -326.5 99.5t-108.5 307.5v1012q0 15 5 20t20 5h18q15 0 20 -5t5 -20v-1012q0 -173 86.5 -256.5t273.5 -83.5h111q185 0 273 83.5t88 256.5v1012q0 15 4.5 20t19.5 5h19q15 0 19.5 -5t4.5 -20v-1012q0 -207 -109 -307t-325 -100h-98zM356 1812
q-11 12 -7.5 21.5t18.5 9.5h24q25 0 43 -20l189 -215h20l188 215q18 20 43 20h25q15 0 17 -9.5t-7 -21.5l-217 -247q-20 -25 -57 -25h-12q-17 0 -26.5 5t-23.5 20z" />
    <glyph glyph-name="uni01D4" unicode="&#x1d4;" horiz-adv-x="1067" 
d="M481 -8q-177 0 -260.5 85.5t-83.5 260.5v663q0 12 4.5 17.5t18.5 5.5h20q23 0 23 -23v-661q0 -142 67.5 -213.5t218.5 -71.5h66q149 0 229 74.5t80 206.5v665q0 12 4.5 17.5t18.5 5.5h20q23 0 23 -23v-978q0 -23 -23 -23h-20q-14 0 -18.5 5.5t-4.5 17.5v98h-16
q-94 -129 -285 -129h-82zM225 1403q-11 12 -7.5 21.5t18.5 9.5h24q24 0 43 -21l189 -215h20l188 215q19 21 43 21h25q15 0 17 -9.5t-7 -21.5l-217 -248q-20 -25 -57 -25h-12q-28 0 -50 25z" />
    <glyph glyph-name="uni01D5" unicode="&#x1d5;" 
d="M582 -10q-218 0 -326.5 99.5t-108.5 307.5v1012q0 15 5 20t20 5h18q15 0 20 -5t5 -20v-1012q0 -173 86.5 -256.5t273.5 -83.5h111q185 0 273 83.5t88 256.5v1012q0 15 4.5 20t19.5 5h19q15 0 19.5 -5t4.5 -20v-1012q0 -207 -109 -307t-325 -100h-98zM270 2161v14
q0 29 29 29h668q28 0 28 -29v-14q0 -29 -28 -29h-668q-29 0 -29 29zM336 1786v33q0 15 4.5 19.5t19.5 4.5h33q15 0 20 -4.5t5 -19.5v-33q0 -15 -5 -20t-20 -5h-33q-15 0 -19.5 5t-4.5 20zM846 1786v33q0 15 4.5 19.5t19.5 4.5h33q15 0 20 -4.5t5 -19.5v-33q0 -15 -5 -20
t-20 -5h-33q-15 0 -19.5 5t-4.5 20z" />
    <glyph glyph-name="uni01D6" unicode="&#x1d6;" horiz-adv-x="1067" 
d="M481 -8q-177 0 -260.5 85.5t-83.5 260.5v663q0 12 4.5 17.5t18.5 5.5h20q23 0 23 -23v-661q0 -142 67.5 -213.5t218.5 -71.5h66q149 0 229 74.5t80 206.5v665q0 12 4.5 17.5t18.5 5.5h20q23 0 23 -23v-978q0 -23 -23 -23h-20q-14 0 -18.5 5.5t-4.5 17.5v98h-16
q-94 -129 -285 -129h-82zM139 1751v14q0 29 29 29h668q28 0 28 -29v-14q0 -29 -28 -29h-668q-29 0 -29 29zM207 1376v33q0 15 4.5 20t19.5 5h33q15 0 20 -5t5 -20v-33q0 -15 -5 -19.5t-20 -4.5h-33q-15 0 -19.5 4.5t-4.5 19.5zM717 1376v33q0 15 4.5 20t19.5 5h33
q15 0 20 -5t5 -20v-33q0 -15 -5 -19.5t-20 -4.5h-33q-15 0 -19.5 4.5t-4.5 19.5z" />
    <glyph glyph-name="uni01D7" unicode="&#x1d7;" 
d="M582 -10q-218 0 -326.5 99.5t-108.5 307.5v1012q0 15 5 20t20 5h18q15 0 20 -5t5 -20v-1012q0 -173 86.5 -256.5t273.5 -83.5h111q185 0 273 83.5t88 256.5v1012q0 15 4.5 20t19.5 5h19q15 0 19.5 -5t4.5 -20v-1012q0 -207 -109 -307t-325 -100h-98zM336 1786v33
q0 15 4.5 19.5t19.5 4.5h33q15 0 20 -4.5t5 -19.5v-33q0 -15 -5 -20t-20 -5h-33q-15 0 -19.5 5t-4.5 20zM598 1931l162 236q13 20 23 28.5t24 8.5h22q18 0 25 -10t-4 -27l-168 -236q-29 -37 -51 -37h-13q-16 0 -22.5 10t2.5 27zM846 1786v33q0 15 4.5 19.5t19.5 4.5h33
q15 0 20 -4.5t5 -19.5v-33q0 -15 -5 -20t-20 -5h-33q-15 0 -19.5 5t-4.5 20z" />
    <glyph glyph-name="uni01D8" unicode="&#x1d8;" horiz-adv-x="1067" 
d="M481 -8q-177 0 -260.5 85.5t-83.5 260.5v663q0 12 4.5 17.5t18.5 5.5h20q23 0 23 -23v-661q0 -142 67.5 -213.5t218.5 -71.5h66q149 0 229 74.5t80 206.5v665q0 12 4.5 17.5t18.5 5.5h20q23 0 23 -23v-978q0 -23 -23 -23h-20q-14 0 -18.5 5.5t-4.5 17.5v98h-16
q-94 -129 -285 -129h-82zM207 1376v33q0 15 4.5 20t19.5 5h33q15 0 20 -5t5 -20v-33q0 -15 -5 -19.5t-20 -4.5h-33q-15 0 -19.5 4.5t-4.5 19.5zM467 1522l162 235q13 20 23 28.5t24 8.5h22q18 0 25 -10t-4 -27l-168 -235q-29 -37 -51 -37h-13q-16 0 -22.5 10t2.5 27z
M717 1376v33q0 15 4.5 20t19.5 5h33q15 0 20 -5t5 -20v-33q0 -15 -5 -19.5t-20 -4.5h-33q-15 0 -19.5 4.5t-4.5 19.5z" />
    <glyph glyph-name="uni01D9" unicode="&#x1d9;" 
d="M582 -10q-218 0 -326.5 99.5t-108.5 307.5v1012q0 15 5 20t20 5h18q15 0 20 -5t5 -20v-1012q0 -173 86.5 -256.5t273.5 -83.5h111q185 0 273 83.5t88 256.5v1012q0 15 4.5 20t19.5 5h19q15 0 19.5 -5t4.5 -20v-1012q0 -207 -109 -307t-325 -100h-98zM336 1786v33
q0 15 4.5 19.5t19.5 4.5h33q15 0 20 -4.5t5 -19.5v-33q0 -15 -5 -20t-20 -5h-33q-15 0 -19.5 5t-4.5 20zM356 2173q-11 12 -7.5 21.5t18.5 9.5h24q24 0 43 -21l189 -215h20l188 215q19 21 43 21h25q15 0 17 -9.5t-7 -21.5l-217 -248q-12 -16 -24 -20t-33 -4h-12
q-17 0 -27 4.5t-23 19.5zM846 1786v33q0 15 4.5 19.5t19.5 4.5h33q15 0 20 -4.5t5 -19.5v-33q0 -15 -5 -20t-20 -5h-33q-15 0 -19.5 5t-4.5 20z" />
    <glyph glyph-name="uni01DA" unicode="&#x1da;" horiz-adv-x="1067" 
d="M481 -8q-177 0 -260.5 85.5t-83.5 260.5v663q0 12 4.5 17.5t18.5 5.5h20q23 0 23 -23v-661q0 -142 67.5 -213.5t218.5 -71.5h66q149 0 229 74.5t80 206.5v665q0 12 4.5 17.5t18.5 5.5h20q23 0 23 -23v-978q0 -23 -23 -23h-20q-14 0 -18.5 5.5t-4.5 17.5v98h-16
q-94 -129 -285 -129h-82zM207 1376v33q0 15 4.5 20t19.5 5h33q15 0 20 -5t5 -20v-33q0 -15 -5 -19.5t-20 -4.5h-33q-15 0 -19.5 4.5t-4.5 19.5zM225 1763q-11 12 -7.5 21.5t18.5 9.5h24q25 0 43 -20l189 -215h20l188 215q18 20 43 20h25q15 0 17 -9.5t-7 -21.5l-217 -247
q-20 -25 -57 -25h-12q-28 0 -50 25zM717 1376v33q0 15 4.5 20t19.5 5h33q15 0 20 -5t5 -20v-33q0 -15 -5 -19.5t-20 -4.5h-33q-15 0 -19.5 4.5t-4.5 19.5z" />
    <glyph glyph-name="uni01DB" unicode="&#x1db;" 
d="M582 -10q-218 0 -326.5 99.5t-108.5 307.5v1012q0 15 5 20t20 5h18q15 0 20 -5t5 -20v-1012q0 -173 86.5 -256.5t273.5 -83.5h111q185 0 273 83.5t88 256.5v1012q0 15 4.5 20t19.5 5h19q15 0 19.5 -5t4.5 -20v-1012q0 -207 -109 -307t-325 -100h-98zM336 1786v33
q0 15 4.5 19.5t19.5 4.5h33q15 0 20 -4.5t5 -19.5v-33q0 -15 -5 -20t-20 -5h-33q-15 0 -19.5 5t-4.5 20zM414 2167q-11 17 -6.5 27t22.5 10h25q16 0 26 -8t23 -29l162 -236q9 -17 1.5 -27t-22.5 -10h-12q-25 0 -51 37zM846 1786v33q0 15 4.5 19.5t19.5 4.5h33q15 0 20 -4.5
t5 -19.5v-33q0 -15 -5 -20t-20 -5h-33q-15 0 -19.5 5t-4.5 20z" />
    <glyph glyph-name="uni01DC" unicode="&#x1dc;" horiz-adv-x="1067" 
d="M481 -8q-177 0 -260.5 85.5t-83.5 260.5v663q0 12 4.5 17.5t18.5 5.5h20q23 0 23 -23v-661q0 -142 67.5 -213.5t218.5 -71.5h66q149 0 229 74.5t80 206.5v665q0 12 4.5 17.5t18.5 5.5h20q23 0 23 -23v-978q0 -23 -23 -23h-20q-14 0 -18.5 5.5t-4.5 17.5v98h-16
q-94 -129 -285 -129h-82zM207 1376v33q0 15 4.5 20t19.5 5h33q15 0 20 -5t5 -20v-33q0 -15 -5 -19.5t-20 -4.5h-33q-15 0 -19.5 4.5t-4.5 19.5zM283 1757q-11 17 -6.5 27t22.5 10h25q16 0 26 -8t23 -29l162 -235q9 -17 1.5 -27t-22.5 -10h-12q-25 0 -51 37zM717 1376v33
q0 15 4.5 20t19.5 5h33q15 0 20 -5t5 -20v-33q0 -15 -5 -19.5t-20 -4.5h-33q-15 0 -19.5 4.5t-4.5 19.5z" />
    <glyph glyph-name="Gcaron" unicode="&#x1e6;" horiz-adv-x="1236" 
d="M582 -10q-435 0 -435 407v639q0 408 435 408h82q215 0 319 -93t104 -290v-8q0 -7 -5 -12t-11 -5h-37q-6 0 -11 5.5t-5 11.5q0 170 -83 246.5t-265 76.5h-95q-185 0 -272.5 -83t-87.5 -257v-639q0 -173 87.5 -256.5t272.5 -83.5h84q186 0 274.5 83.5t88.5 256.5v293h-332
q-15 0 -20.5 5t-5.5 20v14q0 15 5.5 20t20.5 5h373q11 0 19 -7.5t8 -19.5v-330q0 -407 -435 -407h-73zM342 1812q-11 12 -8 21.5t18 9.5h25q25 0 43 -20l188 -215h21l188 215q18 20 43 20h25q15 0 17 -9.5t-7 -21.5l-217 -247q-20 -25 -57 -25h-13q-17 0 -26 5t-23 20z" />
    <glyph glyph-name="gcaron" unicode="&#x1e7;" horiz-adv-x="1036" 
d="M489 -379q-88 0 -161 6q-39 3 -39 23v24q0 10 7 14.5t15 2.5q72 -6 197 -6q83 0 140.5 11t104 39.5t69 82.5t22.5 135v172h-15q-35 -65 -104.5 -100t-163.5 -35h-90q-170 0 -262 87.5t-92 258.5v350q0 171 92 258.5t262 87.5h90q93 0 163 -35t105 -98h15v100q0 14 4 19.5
t18 5.5h21q22 0 22 -25v-1046q0 -182 -99 -257t-321 -75zM182 338q0 -285 291 -285h86q139 0 212 74t73 205v358q0 131 -73 205t-212 74h-86q-291 0 -291 -285v-346zM254 1403q-11 12 -8 21.5t18 9.5h25q24 0 43 -21l188 -215h21l188 215q19 21 43 21h25q15 0 17 -9.5
t-7 -21.5l-217 -248q-20 -25 -58 -25h-12q-17 0 -26 5t-23 20z" />
    <glyph glyph-name="uni0218" unicode="&#x218;" horiz-adv-x="1155" 
d="M553 -10q-103 0 -180 18t-136 57.5t-89.5 108.5t-30.5 166q0 27 26 27h17q27 0 24 -27q-3 -149 89.5 -216t271.5 -67h92q170 0 252 71t82 226q0 49 -10 89t-25.5 69.5t-43 54t-55 40.5t-68.5 30.5t-76 23t-85 19.5l-76 18q-62 13 -94 21t-82 25t-76 34t-58.5 46.5
t-48 65.5t-27 87.5t-11.5 116.5q0 79 20 139.5t56 100t89.5 64.5t115.5 35.5t139 10.5h47q197 0 301.5 -87t104.5 -278q0 -24 -27 -24h-14q-27 0 -27 24q3 159 -80.5 228t-251.5 69h-57q-177 0 -262.5 -62.5t-85.5 -221.5q0 -73 19 -126.5t41.5 -84t74 -54.5t82.5 -32.5
t102 -23.5q9 -2 13 -3l75 -16q49 -11 80 -18.5t73 -20t68 -24t58 -29.5t52 -37.5t40.5 -47t31.5 -59.5t18 -73t7 -89q0 -188 -108 -276t-301 -88h-76zM473 -442v8q0 15 5 19.5t20 4.5h47v263q0 15 4.5 19.5t19.5 4.5h15q15 0 19.5 -4.5t4.5 -19.5v-281q0 -23 -8.5 -31
t-30.5 -8h-71q-15 0 -20 5t-5 20z" />
    <glyph glyph-name="uni0219" unicode="&#x219;" horiz-adv-x="958" 
d="M432 -10q-151 0 -238.5 62t-87.5 184q0 11 4.5 16.5t20.5 5.5h19q19 0 22 -27q8 -91 68.5 -135.5t181.5 -44.5h92q61 0 107.5 10t85 34t59 68.5t20.5 108.5q0 50 -18 86t-38 55.5t-71 35t-78 20t-97 13.5l-21 3l-19 2q-77 8 -129 21.5t-100 43t-72 83.5t-24 133
q0 135 86.5 199.5t243.5 64.5h51q153 0 241 -67.5t88 -202.5q0 -27 -20 -27h-21q-13 0 -17.5 6.5t-4.5 22.5q-8 107 -70 157t-190 50h-53q-136 0 -203.5 -46.5t-67.5 -160.5q0 -49 14 -85t37.5 -59t62.5 -39t80.5 -24t100.5 -14l21 -2q67 -7 112 -15t95 -27t79 -46.5
t48.5 -73.5t19.5 -109q0 -280 -338 -280h-82zM371 -442v8q0 15 4.5 19.5t19.5 4.5h47v263q0 15 5 19.5t20 4.5h14q15 0 20 -4.5t5 -19.5v-281q0 -23 -8.5 -31t-30.5 -8h-72q-15 0 -19.5 5t-4.5 20z" />
    <glyph glyph-name="uni021A" unicode="&#x21a;" horiz-adv-x="1069" 
d="M526 0q-15 0 -19.5 5t-4.5 20v1341h-367q-29 0 -29 27v16q0 14 6.5 19.5t22.5 5.5h799q16 0 22.5 -5.5t6.5 -19.5v-16q0 -27 -29 -27h-365v-1341q0 -15 -4.5 -20t-19.5 -5h-19zM428 -442v8q0 15 5 19.5t20 4.5h47v263q0 15 4.5 19.5t19.5 4.5h15q15 0 19.5 -4.5
t4.5 -19.5v-281q0 -23 -8.5 -31t-30.5 -8h-71q-15 0 -20 5t-5 20z" />
    <glyph glyph-name="uni021B" unicode="&#x21b;" horiz-adv-x="575" 
d="M414 -10q-85 0 -130.5 49t-45.5 162v762h-142q-20 0 -20 20v21q0 20 20 20h142v184q0 23 20 23h23q20 0 20 -23v-184h156q11 0 15.5 -4t4.5 -16v-21q0 -12 -4.5 -16t-15.5 -4h-156v-740q0 -100 31 -136t112 -36q27 0 27 -18v-23q0 -20 -57 -20zM246 -442v8q0 15 4.5 19.5
t19.5 4.5h47v263q0 15 5 19.5t20 4.5h14q15 0 20 -4.5t5 -19.5v-281q0 -23 -8.5 -31t-30.5 -8h-72q-15 0 -19.5 5t-4.5 20z" />
    <glyph glyph-name="uni0228" unicode="&#x228;" horiz-adv-x="1056" 
d="M176 0q-16 0 -22.5 5.5t-6.5 19.5v1384q0 14 6.5 19.5t22.5 5.5h764q16 0 22.5 -5.5t6.5 -19.5v-16q0 -27 -29 -27h-725v-612h664q15 0 21.5 -5t6.5 -20v-14q0 -15 -6.5 -20t-21.5 -5h-664v-622h727q27 0 27 -25v-18q0 -15 -6 -20t-21 -5h-354q-140 -131 -31 -131h70
q37 0 61.5 -4.5t49.5 -18t37.5 -44t12.5 -76.5q0 -68 -39 -100t-133 -32h-63q-95 0 -134.5 37.5t-39.5 116.5q0 23 20 23h23q8 0 14 -5t6 -12q-3 -53 24.5 -75.5t98.5 -22.5h41q65 0 91 17.5t26 58.5t-23 59.5t-73 18.5h-111q-32 0 -54 18.5t-22 50.5q0 49 72 121h-336z" />
    <glyph glyph-name="uni0229" unicode="&#x229;" horiz-adv-x="1026" 
d="M547 -406q-95 0 -134.5 37.5t-39.5 116.5q0 23 20 23h23q8 0 14 -5t6 -12q-3 -53 24.5 -75.5t98.5 -22.5h41q65 0 91 17.5t26 58.5t-23 59.5t-73 18.5h-111q-32 0 -54 18.5t-22 50.5q0 46 62 111q-186 1 -282.5 91.5t-96.5 252.5v354q0 163 94.5 253.5t255.5 90.5h92
q165 0 256.5 -87t91.5 -251v-149q0 -29 -17 -46.5t-46 -17.5h-662v-143q0 -134 79 -210.5t241 -76.5h20q184 0 299 88q14 11 23 2l20 -22q9 -12 -2 -23q-38 -38 -112.5 -67.5t-176.5 -36.5q-126 -123 -22 -123h70q37 0 61.5 -4.5t49.5 -18t37.5 -44t12.5 -76.5
q0 -68 -39 -100t-133 -32h-63zM182 543h662v149q0 133 -69.5 205t-213.5 72h-96q-141 0 -212 -75t-71 -208v-143z" />
    <glyph glyph-name="uni0237" unicode="&#x237;" horiz-adv-x="329" 
d="M16 -369q-57 0 -57 21v22q0 21 27 21q81 0 112 36t31 134v1136q0 23 21 23h20q23 0 23 -23v-1159q0 -211 -177 -211z" />
    <glyph glyph-name="uni0259" unicode="&#x259;" horiz-adv-x="1026" 
d="M467 -10q-165 0 -257.5 87t-92.5 251v149q0 29 18 46.5t47 17.5h662v143q0 133 -79.5 210t-242.5 77h-20q-182 0 -297 -88q-16 -11 -25 -2l-18 22q-9 9 0 23q44 44 133.5 75t212.5 31h18q186 0 283.5 -90t97.5 -254v-354q0 -164 -93.5 -254t-254.5 -90h-92zM182 330
q0 -277 283 -277h96q139 0 211 75.5t72 207.5v143h-662v-149z" />
    <glyph glyph-name="circumflex" unicode="&#x2c6;" horiz-adv-x="808" 
d="M121 1130q-15 0 -18 9.5t8 21.5l217 246q15 16 24 21.5t25 5.5h12q38 0 57 -27l218 -246q9 -12 6.5 -21.5t-17.5 -9.5h-24q-24 0 -43 21l-189 215h-20l-189 -215q-19 -21 -43 -21h-24z" />
    <glyph glyph-name="caron" unicode="&#x2c7;" horiz-adv-x="774" 
d="M377 1130q-17 0 -26 5t-23 20l-217 248q-11 12 -8 21.5t18 9.5h24q24 0 43 -21l189 -215h20l189 215q19 21 43 21h24q15 0 17.5 -9.5t-6.5 -21.5l-218 -248q-20 -25 -57 -25h-12z" />
    <glyph glyph-name="breve" unicode="&#x2d8;" horiz-adv-x="710" 
d="M324 1180q-108 0 -165 56.5t-57 170.5q0 27 25 27h16q25 0 25 -27q0 -78 39 -122t112 -44h72q73 0 112.5 44.5t39.5 121.5q0 27 24 27h17q24 0 24 -27q0 -115 -55 -171t-168 -56h-61z" />
    <glyph glyph-name="dotaccent" unicode="&#x2d9;" horiz-adv-x="286" 
d="M127 1352q-15 0 -20 4.5t-5 19.5v33q0 15 5 20t20 5h33q15 0 19.5 -5t4.5 -20v-33q0 -15 -4.5 -19.5t-19.5 -4.5h-33z" />
    <glyph glyph-name="ring" unicode="&#x2da;" horiz-adv-x="573" 
d="M274 1104q-74 0 -123 48.5t-49 119.5v24q0 71 49 119.5t123 48.5h25q74 0 123 -48.5t49 -119.5v-24q0 -71 -49 -119.5t-123 -48.5h-25zM170 1276q0 -48 29 -77.5t80 -29.5h16q50 0 79 29.5t29 77.5v16q0 48 -29 77.5t-79 29.5h-16q-51 0 -80 -29.5t-29 -77.5v-16z" />
    <glyph glyph-name="ogonek" unicode="&#x2db;" horiz-adv-x="602" 
d="M274 -410q-98 0 -135 33t-37 111q0 22 1.5 38.5t8.5 30t11.5 22t19 15.5t23 11t32 7.5t36.5 5t45 5.5l92 10q23 3 36.5 8t19 15.5t6.5 18t1 24.5v96h66v-86q0 -66 -15 -91.5t-63 -29.5l-195 -24q-20 -3 -28.5 -5t-17.5 -9.5t-12 -21.5t-3 -38q0 -53 22.5 -70.5
t92.5 -17.5h180q20 0 20 -21v-16q0 -21 -20 -21h-187z" />
    <glyph glyph-name="tilde" unicode="&#x2dc;" horiz-adv-x="851" 
d="M582 1278q-54 0 -107.5 26.5l-107 53t-107.5 26.5q-55 0 -117 -38q-18 -13 -26 8l-13 16q-11 15 13 27q85 47 153 47q43 0 86.5 -16.5t74 -36t74 -36t85.5 -16.5q63 0 117 37q19 14 28 -6l13 -16q7 -17 -13 -29q-85 -47 -153 -47z" />
    <glyph glyph-name="hungarumlaut" unicode="&#x2dd;" horiz-adv-x="694" 
d="M340 1124q-16 0 -23 10t2 27l162 236q13 20 23 28.5t24 8.5h23q18 0 24.5 -10t-4.5 -27l-168 -236q-29 -37 -51 -37h-12zM109 1161l161 236q13 20 23 28.5t24 8.5h23q18 0 24.5 -10t-4.5 -27l-167 -236q-29 -37 -52 -37h-12q-16 0 -22.5 10t2.5 27z" />
    <glyph glyph-name="gravecomb" unicode="&#x300;" horiz-adv-x="0" 
d="M342 1124q-25 0 -51 37l-168 236q-11 17 -6.5 27t22.5 10h25q16 0 26 -8t23 -29l162 -236q9 -17 1.5 -27t-22.5 -10h-12z" />
    <glyph glyph-name="acutecomb" unicode="&#x301;" horiz-adv-x="0" 
d="M129 1124q-16 0 -22.5 10t2.5 27l161 236q13 20 23 28.5t24 8.5h23q18 0 24.5 -10t-4.5 -27l-167 -236q-29 -37 -52 -37h-12z" />
    <glyph glyph-name="uni0302" unicode="&#x302;" horiz-adv-x="0" 
d="M121 1130q-15 0 -18 9.5t8 21.5l217 246q15 16 24 21.5t25 5.5h12q38 0 57 -27l218 -246q9 -12 6.5 -21.5t-17.5 -9.5h-24q-24 0 -43 21l-189 215h-20l-189 -215q-19 -21 -43 -21h-24z" />
    <glyph glyph-name="tildecomb" unicode="&#x303;" horiz-adv-x="0" 
d="M582 1278q-54 0 -107.5 26.5l-107 53t-107.5 26.5q-55 0 -117 -38q-18 -13 -26 8l-13 16q-11 15 13 27q85 47 153 47q43 0 86.5 -16.5t74 -36t74 -36t85.5 -16.5q63 0 117 37q19 14 28 -6l13 -16q7 -17 -13 -29q-85 -47 -153 -47z" />
    <glyph glyph-name="uni0304" unicode="&#x304;" horiz-adv-x="0" 
d="M131 1362q-29 0 -29 29v14q0 29 29 29h668q28 0 28 -29v-14q0 -29 -28 -29h-668z" />
    <glyph glyph-name="uni0306" unicode="&#x306;" horiz-adv-x="0" 
d="M324 1180q-108 0 -165 56.5t-57 170.5q0 27 25 27h16q25 0 25 -27q0 -78 39 -122t112 -44h72q73 0 112.5 44.5t39.5 121.5q0 27 24 27h17q24 0 24 -27q0 -115 -55 -171t-168 -56h-61z" />
    <glyph glyph-name="uni0307" unicode="&#x307;" horiz-adv-x="0" 
d="M127 1352q-15 0 -20 4.5t-5 19.5v33q0 15 5 20t20 5h33q15 0 19.5 -5t4.5 -20v-33q0 -15 -4.5 -19.5t-19.5 -4.5h-33z" />
    <glyph glyph-name="uni0308" unicode="&#x308;" horiz-adv-x="0" 
d="M637 1352q-15 0 -20 4.5t-5 19.5v33q0 15 5 20t20 5h33q15 0 19.5 -5t4.5 -20v-33q0 -15 -4.5 -19.5t-19.5 -4.5h-33zM102 1376v33q0 15 5 20t20 5h33q15 0 19.5 -5t4.5 -20v-33q0 -15 -4.5 -19.5t-19.5 -4.5h-33q-15 0 -20 4.5t-5 19.5z" />
    <glyph glyph-name="hookabovecomb" unicode="&#x309;" horiz-adv-x="0" 
d="M315 1147q-26 0 -26 27v10q0 24 26 24h27q111 0 111 113v45q0 107 -111 107h-70q-54 0 -80 -26t-26 -81v-18q0 -12 -7 -19.5t-18 -7.5h-12q-12 0 -19.5 7.5t-7.5 19.5v26q0 81 44 122.5t120 41.5h84q76 0 120 -41.5t44 -122.5v-61q0 -80 -44.5 -123t-119.5 -43h-35z" />
    <glyph glyph-name="uni030A" unicode="&#x30a;" horiz-adv-x="0" 
d="M274 1104q-74 0 -123 48.5t-49 119.5v24q0 71 49 119.5t123 48.5h25q74 0 123 -48.5t49 -119.5v-24q0 -71 -49 -119.5t-123 -48.5h-25zM170 1276q0 -48 29 -77.5t80 -29.5h16q50 0 79 29.5t29 77.5v16q0 48 -29 77.5t-79 29.5h-16q-51 0 -80 -29.5t-29 -77.5v-16z" />
    <glyph glyph-name="uni030B" unicode="&#x30b;" horiz-adv-x="0" 
d="M340 1124q-16 0 -23 10t2 27l162 236q13 20 23 28.5t24 8.5h23q18 0 24.5 -10t-4.5 -27l-168 -236q-29 -37 -51 -37h-12zM109 1161l161 236q13 20 23 28.5t24 8.5h23q18 0 24.5 -10t-4.5 -27l-167 -236q-29 -37 -52 -37h-12q-16 0 -22.5 10t2.5 27z" />
    <glyph glyph-name="uni030C" unicode="&#x30c;" horiz-adv-x="0" 
d="M377 1130q-17 0 -26 5t-23 20l-217 248q-11 12 -8 21.5t18 9.5h24q24 0 43 -21l189 -215h20l189 215q19 21 43 21h24q15 0 17.5 -9.5t-6.5 -21.5l-218 -248q-20 -25 -57 -25h-12z" />
    <glyph glyph-name="uni031B" unicode="&#x31b;" horiz-adv-x="0" 
d="M102 1147v61h29q111 0 111 113v49q0 11 7 18t19 7h11q10 0 17 -7t7 -18v-57q0 -80 -44 -123t-118 -43h-39z" />
    <glyph glyph-name="dotbelowcomb" unicode="&#x323;" horiz-adv-x="0" 
d="M127 -362q-15 0 -20 4.5t-5 19.5v78q0 15 5 19.5t20 4.5h78q15 0 19.5 -4.5t4.5 -19.5v-78q0 -15 -4.5 -19.5t-19.5 -4.5h-78z" />
    <glyph glyph-name="uni0326" unicode="&#x326;" horiz-adv-x="0" 
d="M127 -467q-15 0 -20 5t-5 20v8q0 15 5 19.5t20 4.5h47v263q0 15 5 19.5t20 4.5h14q15 0 20 -4.5t5 -19.5v-281q0 -23 -8.5 -31t-30.5 -8h-72z" />
    <glyph glyph-name="uni0327" unicode="&#x327;" horiz-adv-x="0" 
d="M276 -406q-95 0 -134.5 37.5t-39.5 116.5q0 23 21 23h22q8 0 14.5 -5t6.5 -12q-3 -53 24.5 -75.5t98.5 -22.5h41q65 0 90.5 17.5t25.5 58.5t-23 59.5t-73 18.5h-110q-32 0 -54 18.5t-22 50.5q0 49 72 121h75q-140 -131 -30 -131h69q29 0 49.5 -2.5t43.5 -11t37 -23.5
t23 -42t9 -64q0 -68 -39 -100t-133 -32h-64z" />
    <glyph glyph-name="uni0328" unicode="&#x328;" horiz-adv-x="0" 
d="M274 -410q-98 0 -135 33t-37 111q0 22 1.5 38.5t8.5 30t11.5 22t19 15.5t23 11t32 7.5t36.5 5t45 5.5l92 10q23 3 36.5 8t19 15.5t6.5 18t1 24.5v96h66v-86q0 -66 -15 -91.5t-63 -29.5l-195 -24q-20 -3 -28.5 -5t-17.5 -9.5t-12 -21.5t-3 -38q0 -53 22.5 -70.5
t92.5 -17.5h180q20 0 20 -21v-16q0 -21 -20 -21h-187z" />
    <glyph glyph-name="uni0394" unicode="&#x394;" horiz-adv-x="1202" 
d="M111 0q-34 0 -23 33l461 1427q10 33 39 33h28q29 0 39 -33l457 -1427q7 -16 -1 -24.5t-24 -8.5h-976zM178 76h842l-416 1296z" />
    <glyph glyph-name="uni03A9" unicode="&#x3a9;" horiz-adv-x="1259" 
d="M178 0q-31 0 -31 31v6q0 31 31 31h146q-86 47 -131.5 125.5t-45.5 177.5v716q0 200 110.5 312t291.5 112h162q181 0 290 -112t109 -312v-716q0 -99 -45 -177.5t-129 -125.5h143q31 0 31 -31v-6q0 -31 -31 -31h-366q-31 0 -31 31q0 28 31 28q58 0 115 21.5t105.5 61
t78.5 103t30 140.5v696q0 175 -90 269t-245 94h-156q-154 0 -245 -94t-91 -269v-696q0 -76 30.5 -140t79.5 -103.5t106 -61t114 -21.5q30 0 30 -28q0 -31 -30 -31h-367zM575 29v2v-2zM682 31z" />
    <glyph glyph-name="uni03BC" unicode="&#x3bc;" horiz-adv-x="1067" 
d="M168 -410q-31 0 -31 31v1380q0 12 4.5 17.5t18.5 5.5h20q23 0 23 -23v-661q0 -142 67.5 -213.5t218.5 -71.5h66q149 0 229 74.5t80 206.5v665q0 12 4.5 17.5t18.5 5.5h20q23 0 23 -23v-978q0 -23 -23 -23h-20q-14 0 -18.5 5.5t-4.5 17.5v98h-20q-96 -129 -299 -129h-80
q-181 0 -266 129v-500q0 -31 -31 -31z" />
    <glyph glyph-name="pi" unicode="&#x3c0;" horiz-adv-x="1150" 
d="M223 0q-30 0 -30 31v925h-80q-31 0 -31 31v6q0 31 29 31h927q31 0 31 -31v-8q0 -29 -31 -29h-82v-925q0 -31 -30 -31h-6q-31 0 -31 31v925h-631v-925q0 -31 -31 -31h-4z" />
    <glyph glyph-name="uni0401" unicode="&#x401;" horiz-adv-x="1056" 
d="M176 0q-16 0 -22.5 5.5t-6.5 19.5v1384q0 14 6.5 19.5t22.5 5.5h764q16 0 22.5 -5.5t6.5 -19.5v-16q0 -27 -29 -27h-725v-612h664q15 0 21.5 -5t6.5 -20v-14q0 -15 -6.5 -20t-21.5 -5h-664v-622h727q27 0 27 -25v-18q0 -15 -6 -20t-21 -5h-766zM272 1786v33q0 15 5 19.5
t20 4.5h33q15 0 19.5 -4.5t4.5 -19.5v-33q0 -15 -4.5 -20t-19.5 -5h-33q-15 0 -20 5t-5 20zM782 1786v33q0 15 5 19.5t20 4.5h33q15 0 19.5 -4.5t4.5 -19.5v-33q0 -15 -4.5 -20t-19.5 -5h-33q-15 0 -20 5t-5 20z" />
    <glyph glyph-name="uni0403" unicode="&#x403;" horiz-adv-x="968" 
d="M172 0q-15 0 -20 5t-5 20v1384q0 15 5 20t20 5h688q15 0 21 -5t6 -20v-16q0 -15 -6 -21t-21 -6h-645v-1341q0 -15 -5 -20t-20 -5h-18zM483 1571l162 235q13 20 23 28.5t24 8.5h23q18 0 24.5 -10t-4.5 -27l-168 -235q-29 -37 -51 -37h-12q-16 0 -23 10t2 27z" />
    <glyph glyph-name="uni0404" unicode="&#x404;" horiz-adv-x="1216" 
d="M582 -10q-435 0 -435 407v639q0 408 435 408h82q215 0 320.5 -93t105.5 -290v-8q0 -7 -5.5 -12t-11.5 -5h-37q-6 0 -10 5.5t-4 11.5q0 169 -84.5 246t-267.5 77h-95q-185 0 -272.5 -83t-87.5 -257v-286h301q16 0 22.5 -5.5t6.5 -19.5v-16q0 -14 -6.5 -19.5t-22.5 -5.5
h-301v-287q0 -173 87.5 -256.5t272.5 -83.5h95q182 0 267 73t85 228q0 6 4 11.5t10 5.5h37q6 0 11.5 -5t5.5 -12v-10q0 -181 -106 -269.5t-320 -88.5h-82z" />
    <glyph glyph-name="uni0406" unicode="&#x406;" horiz-adv-x="364" 
d="M172 0q-15 0 -20 5t-5 20v1384q0 15 5 20t20 5h18q15 0 20 -5t5 -20v-1384q0 -15 -5 -20t-20 -5h-18z" />
    <glyph glyph-name="uni0407" unicode="&#x407;" horiz-adv-x="364" 
d="M172 0q-15 0 -20 5t-5 20v1384q0 15 5 20t20 5h18q15 0 20 -5t5 -20v-1384q0 -15 -5 -20t-20 -5h-18zM-115 1786v33q0 15 5 19.5t20 4.5h33q15 0 19.5 -4.5t4.5 -19.5v-33q0 -15 -4.5 -20t-19.5 -5h-33q-15 0 -20 5t-5 20zM395 1786v33q0 15 5 19.5t20 4.5h33
q15 0 19.5 -4.5t4.5 -19.5v-33q0 -15 -4.5 -20t-19.5 -5h-33q-15 0 -20 5t-5 20z" />
    <glyph glyph-name="uni0408" unicode="&#x408;" horiz-adv-x="718" 
d="M125 -10q-16 0 -22.5 5t-6.5 19v19q0 24 29 24h18q185 0 273 83.5t88 256.5v1012q0 15 4.5 20t19.5 5h19q15 0 19.5 -5t4.5 -20v-1012q0 -207 -109 -307t-325 -100h-12z" />
    <glyph glyph-name="uni040C" unicode="&#x40c;" horiz-adv-x="1095" 
d="M172 0q-15 0 -20 5t-5 20v1384q0 15 5 20t20 5h18q15 0 20 -5t5 -20v-817l662 815q1 2 4.5 6.5t4.5 6t4 5t4.5 4.5t4.5 2.5t6 2t6 0.5h31q19 0 21 -11t-13 -28l-522 -639l576 -725q11 -12 5.5 -21.5t-22.5 -9.5h-16q-13 0 -22.5 4.5t-13.5 8.5t-15 16l-533 676l-172 -209
v-471q0 -15 -5 -20t-20 -5h-18zM492 1571l161 235q13 20 23 28.5t24 8.5h23q18 0 24.5 -10t-4.5 -27l-168 -235q-29 -37 -51 -37h-12q-16 0 -22.5 10t2.5 27z" />
    <glyph glyph-name="uni040D" unicode="&#x40d;" horiz-adv-x="1183" 
d="M172 0q-15 0 -20 5t-5 20v1384q0 15 5 20t20 5h18q15 0 20 -5t5 -20v-1348h16l668 1350q14 23 37 23h74q15 0 19.5 -5t4.5 -20v-1384q0 -15 -4.5 -20t-19.5 -5h-19q-15 0 -19.5 5t-4.5 20v1347h-15l-669 -1349q-11 -23 -37 -23h-74zM387 1806q-11 17 -6.5 27t22.5 10h25
q16 0 26 -8t23 -29l162 -235q9 -17 1.5 -27t-22.5 -10h-12q-25 0 -51 37z" />
    <glyph glyph-name="uni040E" unicode="&#x40e;" horiz-adv-x="1124" 
d="M336 0q-26 0 -10 29l196 430l-432 946q-13 29 10 29h37q14 0 20 -6t15 -23l389 -858l393 858q8 17 14 23t19 6h37q26 0 10 -29l-628 -1376q-8 -17 -14 -23t-19 -6h-37zM313 1817q0 26 25 26h16q25 0 25 -26q0 -78 39 -122t112 -44h72q73 0 112.5 44.5t39.5 121.5
q0 26 24 26h17q24 0 24 -26q0 -228 -223 -228h-61q-107 0 -164.5 57t-57.5 171z" />
    <glyph glyph-name="uni0410" unicode="&#x410;" horiz-adv-x="1175" 
d="M618 1434q25 0 35 -33l432 -1370q8 -31 -20 -31h-18q-15 0 -21.5 6.5t-11.5 24.5l-94 299h-666l-94 -299q-5 -18 -11.5 -24.5t-21.5 -6.5h-18q-29 0 -21 31l432 1370q10 33 37 33h61zM274 391h627l-305 969h-16z" />
    <glyph glyph-name="uni0411" unicode="&#x411;" horiz-adv-x="1150" 
d="M193 1434h2h499q16 0 22.5 -5.5t6.5 -19.5v-16q0 -27 -29 -27h-479v-389h399q220 0 319 -91.5t99 -301.5v-191q0 -212 -98.5 -302.5t-319.5 -90.5h-442q-15 0 -20 5t-5 20v1384q0 15 5 20t20 5h21zM215 68h403q187 0 267 75.5t80 249.5v191q0 173 -80.5 249t-266.5 76
h-403v-841z" />
    <glyph glyph-name="uni0412" unicode="&#x412;" horiz-adv-x="1179" 
d="M172 0q-15 0 -20 5t-5 20v1384q0 15 5 20t20 5h504q176 0 255 -82.5t79 -272.5q0 -124 -34.5 -201.5t-117.5 -111.5v-8q104 -33 154.5 -111t50.5 -221v-47q0 -203 -99.5 -291t-289.5 -88h-502zM215 68h467q167 0 240 67.5t73 237.5v51q0 88 -18 145.5t-58 90.5t-96 46
t-141 13h-467v-651zM215 782h469q140 0 199 67.5t59 217.5v27q0 148 -57 210t-201 62h-469v-584z" />
    <glyph glyph-name="uni0413" unicode="&#x413;" horiz-adv-x="968" 
d="M172 0q-15 0 -20 5t-5 20v1384q0 15 5 20t20 5h688q15 0 21 -5t6 -20v-16q0 -15 -6 -21t-21 -6h-645v-1341q0 -15 -5 -20t-20 -5h-18z" />
    <glyph glyph-name="uni0414" unicode="&#x414;" horiz-adv-x="1335" 
d="M109 0v-174q0 -15 -5 -20t-20 -5h-18q-15 0 -20 5t-5 20v211q0 31 31 31h26q31 0 60 22.5t57.5 76t46 161.5t17.5 258v817q0 31 30 31h832q30 0 30 -31v-1335h93q30 0 30 -31v-211q0 -15 -5.5 -20t-20.5 -5h-17q-15 0 -19.5 5t-4.5 20v174h-1118zM231 68h873v1298h-758
v-780q0 -415 -115 -518z" />
    <glyph glyph-name="uni0415" unicode="&#x415;" horiz-adv-x="1056" 
d="M176 0q-16 0 -22.5 5.5t-6.5 19.5v1384q0 14 6.5 19.5t22.5 5.5h764q16 0 22.5 -5.5t6.5 -19.5v-16q0 -27 -29 -27h-725v-612h664q15 0 21.5 -5t6.5 -20v-14q0 -15 -6.5 -20t-21.5 -5h-664v-622h727q27 0 27 -25v-18q0 -15 -6 -20t-21 -5h-766z" />
    <glyph glyph-name="uni0416" unicode="&#x416;" horiz-adv-x="1828" 
d="M145 1395q-15 17 -11.5 28t22.5 11h28q8 0 14.5 -4.5t9 -8t11.5 -14.5l662 -813v815q0 15 4.5 20t19.5 5h19q15 0 19.5 -5t4.5 -20v-817l662 815q18 23 27 26q4 1 8 1h30q19 0 21 -11t-13 -28l-522 -639l576 -725q11 -12 5.5 -21.5t-22.5 -9.5h-16q-13 0 -22.5 4.5
t-13.5 8.5t-15 16l-533 676l-172 -209v-471q0 -15 -4.5 -20t-19.5 -5h-19q-15 0 -19.5 5t-4.5 20v473l-170 209l-533 -678q-10 -11 -15.5 -16t-15 -9t-22.5 -4h-14q-19 0 -24.5 9.5t5.5 21.5l578 725z" />
    <glyph glyph-name="uni0417" unicode="&#x417;" horiz-adv-x="1140" 
d="M518 -10q-87 0 -158 20.5t-126.5 62.5t-86 113t-30.5 166v29q0 11 4.5 15.5t17.5 4.5h21q13 0 17.5 -4.5t4.5 -15.5q0 -174 82.5 -249t259.5 -75h97q174 0 257 80t83 244q0 99 -28.5 167t-85.5 105.5t-130.5 53.5t-175.5 16h-111q-20 0 -20 20v21q0 20 20 20h111
q199 0 289 62.5t90 218.5q0 165 -77 239t-253 74h-49q-176 0 -259 -75.5t-83 -247.5q0 -23 -23 -23h-20q-23 0 -23 23v26q0 95 31 166t86.5 113.5t126.5 63t158 20.5h57q196 0 294.5 -90t98.5 -289q0 -133 -52.5 -200t-174.5 -105v-12q64 -17 109 -40.5t82.5 -64.5
t56 -106.5t18.5 -155.5q0 -199 -104 -295t-297 -96h-105z" />
    <glyph glyph-name="uni0418" unicode="&#x418;" horiz-adv-x="1183" 
d="M172 0q-15 0 -20 5t-5 20v1384q0 15 5 20t20 5h18q15 0 20 -5t5 -20v-1348h16l668 1350q14 23 37 23h74q15 0 19.5 -5t4.5 -20v-1384q0 -15 -4.5 -20t-19.5 -5h-19q-15 0 -19.5 5t-4.5 20v1347h-15l-669 -1349q-11 -23 -37 -23h-74z" />
    <glyph glyph-name="uni0419" unicode="&#x419;" horiz-adv-x="1183" 
d="M172 0q-15 0 -20 5t-5 20v1384q0 15 5 20t20 5h18q15 0 20 -5t5 -20v-1348h16l668 1350q14 23 37 23h74q15 0 19.5 -5t4.5 -20v-1384q0 -15 -4.5 -20t-19.5 -5h-19q-15 0 -19.5 5t-4.5 20v1347h-15l-669 -1349q-11 -23 -37 -23h-74zM352 1817q0 26 25 26h16q25 0 25 -26
q0 -78 39 -122t112 -44h72q73 0 112.5 44.5t39.5 121.5q0 26 24 26h17q24 0 24 -26q0 -228 -223 -228h-62q-107 0 -164 57t-57 171z" />
    <glyph glyph-name="uni041A" unicode="&#x41a;" horiz-adv-x="1095" 
d="M172 0q-15 0 -20 5t-5 20v1384q0 15 5 20t20 5h18q15 0 20 -5t5 -20v-817l662 815q1 2 4.5 6.5t4.5 6t4 5t4.5 4.5t4.5 2.5t6 2t6 0.5h31q19 0 21 -11t-13 -28l-522 -639l576 -725q11 -12 5.5 -21.5t-22.5 -9.5h-16q-13 0 -22.5 4.5t-13.5 8.5t-15 16l-533 676l-172 -209
v-471q0 -15 -5 -20t-20 -5h-18z" />
    <glyph glyph-name="uni041B" unicode="&#x41b;" horiz-adv-x="1267" 
d="M86 -8q-15 0 -20 5.5t-5 20.5v17q0 20 23 20q61 0 106.5 37.5t45.5 118.5v1192q0 31 30 31h824q30 0 30 -31v-1378q0 -15 -5.5 -20t-20.5 -5h-17q-15 0 -19.5 5t-4.5 20v1341h-750v-1143q0 -118 -61.5 -174.5t-143.5 -56.5h-12z" />
    <glyph glyph-name="uni041C" unicode="&#x41c;" horiz-adv-x="1447" 
d="M172 0q-15 0 -20 5t-5 20v1384q0 15 5 20t20 5h84q23 0 35 -31l426 -1340h14l428 1340q9 31 35 31h82q15 0 19.5 -5t4.5 -20v-1384q0 -15 -4.5 -20t-19.5 -5h-19q-15 0 -19.5 5t-4.5 20v1347h-14l-433 -1341q-9 -31 -38 -31h-48q-26 0 -38 31l-431 1341h-16v-1347
q0 -15 -5 -20t-20 -5h-18z" />
    <glyph glyph-name="uni041D" unicode="&#x41d;" horiz-adv-x="1230" 
d="M1040 0q-15 0 -19.5 5t-4.5 20v665h-801v-665q0 -15 -5 -20t-20 -5h-18q-15 0 -20 5t-5 20v1384q0 15 5 20t20 5h18q15 0 20 -5t5 -20v-655h801v655q0 15 4.5 20t19.5 5h19q15 0 19.5 -5t4.5 -20v-1384q0 -15 -4.5 -20t-19.5 -5h-19z" />
    <glyph glyph-name="uni041E" unicode="&#x41e;" 
d="M582 -10q-218 0 -326.5 99.5t-108.5 307.5v639q0 208 108.5 308t326.5 100h98q434 0 434 -408v-639q0 -207 -109 -307t-325 -100h-98zM215 397q0 -173 86.5 -256.5t273.5 -83.5h111q185 0 273 83.5t88 256.5v639q0 174 -88 257t-273 83h-111q-188 0 -274 -82.5
t-86 -257.5v-639z" />
    <glyph glyph-name="uni041F" unicode="&#x41f;" horiz-adv-x="1181" 
d="M172 0q-15 0 -20 5t-5 20v1378q0 31 31 31h823q31 0 31 -31v-1378q0 -15 -4.5 -20t-19.5 -5h-19q-15 0 -19.5 5t-4.5 20v1341h-750v-1341q0 -15 -5 -20t-20 -5h-18z" />
    <glyph glyph-name="uni0420" unicode="&#x420;" horiz-adv-x="1161" 
d="M172 0q-15 0 -20 5t-5 20v1384q0 15 5 20t20 5h442q220 0 319 -91t99 -303v-190q0 -210 -99 -301.5t-319 -91.5h-399v-432q0 -15 -5 -20t-20 -5h-18zM215 524h403q186 0 266.5 76.5t80.5 249.5v190q0 174 -80 250t-267 76h-403v-842z" />
    <glyph glyph-name="uni0421" unicode="&#x421;" horiz-adv-x="1216" 
d="M582 -10q-435 0 -435 407v639q0 408 435 408h82q215 0 320.5 -93t105.5 -290v-8q0 -7 -5.5 -12t-11.5 -5h-37q-6 0 -10 5.5t-4 11.5q0 169 -84.5 246t-267.5 77h-95q-185 0 -272.5 -83t-87.5 -257v-639q0 -173 87.5 -256.5t272.5 -83.5h95q182 0 267 73t85 228
q0 6 4 11.5t10 5.5h37q6 0 11.5 -5t5.5 -12v-10q0 -181 -106 -269.5t-320 -88.5h-82z" />
    <glyph glyph-name="uni0422" unicode="&#x422;" horiz-adv-x="1069" 
d="M526 0q-15 0 -19.5 5t-4.5 20v1341h-367q-29 0 -29 27v16q0 14 6.5 19.5t22.5 5.5h799q16 0 22.5 -5.5t6.5 -19.5v-16q0 -27 -29 -27h-365v-1341q0 -15 -4.5 -20t-19.5 -5h-19z" />
    <glyph glyph-name="uni0423" unicode="&#x423;" horiz-adv-x="1124" 
d="M336 0q-26 0 -10 29l196 430l-432 946q-13 29 10 29h37q14 0 20 -6t15 -23l389 -858l393 858q8 17 14 23t19 6h37q26 0 10 -29l-628 -1376q-8 -17 -14 -23t-19 -6h-37z" />
    <glyph glyph-name="uni0424" unicode="&#x424;" horiz-adv-x="1345" 
d="M582 195q-218 0 -326.5 100.5t-108.5 306.5v229q0 208 108.5 308t326.5 100h57v170q0 15 5 20t20 5h18q15 0 20 -5t5 -20v-170h57q434 0 434 -408v-229q0 -407 -434 -407h-57v-170q0 -15 -5 -20t-20 -5h-18q-15 0 -20 5t-5 20v170h-57zM215 602q0 -173 86.5 -256.5
t273.5 -83.5h64v909h-64q-188 0 -274 -82.5t-86 -257.5v-229zM707 262h63q185 0 272.5 83.5t87.5 256.5v229q0 174 -87.5 257t-272.5 83h-63v-909z" />
    <glyph glyph-name="uni0425" unicode="&#x425;" horiz-adv-x="1114" 
d="M121 0q-25 0 -8 25l401 692l-399 692q-17 25 8 25h35q14 0 20.5 -6t16.5 -23l356 -629h10l357 629q8 13 10.5 17t9 8t16.5 4h35q25 0 8 -25l-399 -692l401 -692q17 -25 -8 -25h-35q-10 0 -16.5 4.5t-9 7t-12.5 17.5l-357 628h-10l-356 -628q-10 -17 -17.5 -23t-21.5 -6
h-35z" />
    <glyph glyph-name="uni0426" unicode="&#x426;" horiz-adv-x="1165" 
d="M178 0q-31 0 -31 31v1378q0 15 5 20t20 5h18q15 0 20 -5t5 -20v-1341h750v1341q0 15 4.5 20t19.5 5h19q15 0 19.5 -5t4.5 -20v-1341h62q30 0 30 -31v-211q0 -15 -4.5 -20t-19.5 -5h-19q-15 0 -19.5 5t-4.5 20v174h-879z" />
    <glyph glyph-name="uni0427" unicode="&#x427;" horiz-adv-x="1130" 
d="M940 0q-15 0 -20 5t-5 20v540q-28 -60 -115.5 -108.5t-189.5 -48.5h-168q-174 0 -257 81.5t-83 219.5v700q0 15 5 20t20 5h18q15 0 20 -5t5 -20v-694q0 -116 63 -179t207 -63h150q148 0 236.5 66.5t88.5 175.5v694q0 15 5 20t20 5h18q15 0 20 -5t5 -20v-1384
q0 -15 -5 -20t-20 -5h-18z" />
    <glyph glyph-name="uni0428" unicode="&#x428;" horiz-adv-x="1736" 
d="M178 0q-31 0 -31 31v1378q0 15 5 20t20 5h18q15 0 20 -5t5 -20v-1341h619v1341q0 15 4.5 20t19.5 5h19q15 0 19.5 -5t4.5 -20v-1341h619v1341q0 15 4.5 20t19.5 5h19q15 0 19.5 -5t4.5 -20v-1378q0 -31 -31 -31h-1378z" />
    <glyph glyph-name="uni0429" unicode="&#x429;" horiz-adv-x="1720" 
d="M178 0q-31 0 -31 31v1378q0 15 5 20t20 5h18q15 0 20 -5t5 -20v-1341h619v1341q0 15 4.5 20t19.5 5h19q15 0 19.5 -5t4.5 -20v-1341h619v1341q0 15 4.5 20t19.5 5h19q15 0 19.5 -5t4.5 -20v-1341h62q30 0 30 -31v-211q0 -15 -4.5 -20t-19.5 -5h-19q-15 0 -19.5 5t-4.5 20
v174h-1434z" />
    <glyph glyph-name="uni042A" unicode="&#x42a;" horiz-adv-x="1323" 
d="M334 0q-15 0 -20 5t-5 20v1341h-174q-29 0 -29 27v16q0 14 6.5 19.5t22.5 5.5h217q15 0 20 -5t5 -20v-432h399q221 0 319.5 -90.5t98.5 -302.5v-191q0 -212 -98.5 -302.5t-319.5 -90.5h-442zM377 68h403q187 0 266.5 75.5t79.5 249.5v191q0 174 -79.5 249.5t-266.5 75.5
h-403v-841z" />
    <glyph glyph-name="uni042B" unicode="&#x42b;" horiz-adv-x="1523" 
d="M172 0q-15 0 -20 5t-5 20v1384q0 15 5 20t20 5h18q15 0 20 -5t5 -20v-432h399q221 0 319.5 -90.5t98.5 -302.5v-191q0 -212 -98.5 -302.5t-319.5 -90.5h-442zM215 68h403q187 0 267 75.5t80 249.5v191q0 174 -80 249.5t-267 75.5h-403v-841zM1309 25v1384q0 15 4.5 20
t19.5 5h19q15 0 19.5 -5t4.5 -20v-1384q0 -15 -4.5 -20t-19.5 -5h-19q-15 0 -19.5 5t-4.5 20z" />
    <glyph glyph-name="uni042C" unicode="&#x42c;" horiz-adv-x="1161" 
d="M172 0q-15 0 -20 5t-5 20v1384q0 15 5 20t20 5h18q15 0 20 -5t5 -20v-432h399q221 0 319.5 -90.5t98.5 -302.5v-191q0 -212 -98.5 -302.5t-319.5 -90.5h-442zM215 68h403q187 0 267 75.5t80 249.5v191q0 174 -80 249.5t-267 75.5h-403v-841z" />
    <glyph glyph-name="uni042D" unicode="&#x42d;" horiz-adv-x="1216" 
d="M573 -10q-215 0 -320.5 89t-105.5 271v8q0 17 17 17h37q6 0 10 -5.5t4 -11.5q0 -155 85 -228t267 -73h92q186 0 274.5 83.5t88.5 256.5v287h-301q-16 0 -22.5 5.5t-6.5 19.5v16q0 14 6.5 19.5t22.5 5.5h301v286q0 174 -88 257t-275 83h-92q-183 0 -267.5 -77t-84.5 -246
q0 -6 -4 -11.5t-10 -5.5h-37q-17 0 -17 17v6q0 197 105 291t321 94h82q435 0 435 -408v-639q0 -407 -435 -407h-82z" />
    <glyph glyph-name="uni042E" unicode="&#x42e;" horiz-adv-x="1646" 
d="M143 684v68h4v657q0 15 5 20t20 5h18q15 0 20 -5t5 -20v-657h317v284q0 208 108.5 308t326.5 100h98q434 0 434 -408v-639q0 -207 -109 -307t-325 -100h-98q-218 0 -326.5 99.5t-108.5 307.5v287h-317v-659q0 -15 -5 -20t-20 -5h-18q-15 0 -20 5t-5 20v659h-4zM600 397
q0 -173 87 -256.5t274 -83.5h110q185 0 273 83.5t88 256.5v639q0 174 -88 257t-273 83h-110q-188 0 -274.5 -83t-86.5 -257v-639z" />
    <glyph glyph-name="uni042F" unicode="&#x42f;" horiz-adv-x="1144" 
d="M954 0q-15 0 -19.5 5t-4.5 20v432h-438q-44 0 -89 10l-223 -449q-10 -18 -26 -18h-21q-14 0 -19 9t1 24l223 442q-116 35 -170.5 126t-54.5 249v190q0 212 98.5 303t318.5 91h443q15 0 19.5 -5t4.5 -20v-1384q0 -15 -4.5 -20t-19.5 -5h-19zM180 850q0 -173 80 -249.5
t266 -76.5h404v842h-404q-187 0 -266.5 -76t-79.5 -250v-190z" />
    <glyph glyph-name="uni0430" unicode="&#x430;" horiz-adv-x="1038" 
d="M858 0q-22 0 -22 23v149h-17q-60 -82 -157.5 -132t-219.5 -50h-6q-172 0 -251 77t-79 224v43q0 256 312 256h418v104q0 69 -12.5 116t-44.5 84.5t-92.5 55t-151.5 17.5q-198 0 -308 -41q-16 -6 -20 10l-6 31q-3 15 8 18q118 47 307 47h35q182 0 266 -82t84 -250v-677
q0 -23 -22 -23h-21zM174 295q0 -123 61 -180.5t187 -57.5h55q138 0 248.5 93.5t110.5 207.5v168h-416q-124 0 -185 -45t-61 -153v-33z" />
    <glyph glyph-name="uni0431" unicode="&#x431;" horiz-adv-x="1046" 
d="M485 -10q-94 0 -164.5 35.5t-105.5 99.5h-12v-102q0 -23 -23 -23h-20q-23 0 -23 23v1122q0 246 228 246q61 0 154.5 -11.5t144.5 -11.5q46 0 69 9t43 42q5 8 6.5 10t5.5 3.5t11 1.5h22q19 0 19 -15q0 -106 -203 -106q-43 0 -134 10t-143 10q-91 0 -124 -43t-33 -137v-254
h12q35 63 106 98t164 35h90q169 0 262 -88t93 -258v-350q0 -170 -93 -258t-262 -88h-90zM203 332q0 -131 72.5 -205t211.5 -74h86q291 0 291 285v346q0 285 -291 285h-86q-139 0 -211.5 -74t-72.5 -205v-358z" />
    <glyph glyph-name="uni0432" unicode="&#x432;" horiz-adv-x="1001" 
d="M168 0q-31 0 -31 31v962q0 31 31 31h416q126 0 198 -67t72 -214q0 -145 -106 -206v-17q137 -51 137 -237q0 -160 -70.5 -221.5t-218.5 -61.5h-428zM203 61h403q52 0 86.5 7t67 27t48 62.5t15.5 108.5q0 232 -194 232h-426v-437zM203 555h428q47 0 81 19t50.5 50.5
t23.5 62.5t7 65q0 211 -207 211h-383v-408z" />
    <glyph glyph-name="uni0433" unicode="&#x433;" horiz-adv-x="849" 
d="M160 0q-23 0 -23 23v981q0 20 21 20h590q11 0 15.5 -4t4.5 -16v-21q0 -12 -4.5 -16t-15.5 -4h-545v-940q0 -23 -23 -23h-20z" />
    <glyph glyph-name="uni0434" unicode="&#x434;" horiz-adv-x="1157" 
d="M115 0v-127q0 -23 -21 -23h-20q-23 0 -23 23v158q0 30 31 30h22q81 0 138 94t57 263v575q0 31 31 31h657q31 0 31 -31v-932h57q31 0 31 -30v-158q0 -23 -21 -23h-22q-21 0 -21 23v127h-927zM240 61h714v902h-592v-529q0 -287 -122 -373z" />
    <glyph glyph-name="uni0435" unicode="&#x435;" horiz-adv-x="1026" 
d="M500 -10q-188 0 -285.5 90t-97.5 254v354q0 163 94.5 253.5t255.5 90.5h92q165 0 256.5 -87t91.5 -251v-149q0 -29 -17 -46.5t-46 -17.5h-662v-143q0 -134 79 -210.5t241 -76.5h20q184 0 299 88q14 11 23 2l20 -22q9 -12 -2 -23q-44 -44 -133 -75t-213 -31h-16zM182 543
h662v149q0 133 -69.5 205t-213.5 72h-96q-141 0 -212 -75t-71 -208v-143z" />
    <glyph glyph-name="uni0436" unicode="&#x436;" horiz-adv-x="1378" 
d="M57 0q-14 0 -15.5 12t11.5 23l543 475l-524 481q-11 7 -10 20t14 13h39q14 0 26 -12l504 -467v456q0 23 21 23h22q21 0 21 -23v-456l503 467q12 12 27 12h39q13 0 14 -13t-10 -20l-524 -481l542 -475q13 -11 11.5 -23t-15.5 -12h-39q-9 0 -24 10l-524 467v-454
q0 -23 -21 -23h-22q-21 0 -21 23v454l-524 -467q-15 -10 -25 -10h-39z" />
    <glyph glyph-name="uni0437" unicode="&#x437;" horiz-adv-x="933" 
d="M393 -12q-143 0 -222 67t-79 193q0 20 23 20h22q23 0 23 -20q0 -85 53.5 -140t157.5 -55h170q115 0 178 52t63 157q0 49 -8 87t-27.5 71t-57.5 51t-93 18h-172q-21 0 -21 21v20q0 21 21 21h172q55 0 90.5 15.5t52 47.5t22 65.5t5.5 84.5q0 97 -56.5 152t-168.5 55h-170
q-100 0 -155.5 -59.5t-55.5 -147.5q0 -23 -23 -23h-22q-23 0 -23 23q0 127 80 199.5t221 72.5h127q146 0 228.5 -72.5t82.5 -213.5q0 -42 -3 -69t-13.5 -59t-35.5 -55.5t-64 -38.5v-14q74 -31 100.5 -92t26.5 -146q0 -288 -322 -288h-127z" />
    <glyph glyph-name="uni0438" unicode="&#x438;" horiz-adv-x="1009" 
d="M160 0q-23 0 -23 23v978q0 23 23 23h20q23 0 23 -23v-929h12l539 929q12 23 37 23h59q22 0 22 -23v-978q0 -23 -22 -23h-21q-22 0 -22 23v929h-12l-539 -929q-12 -23 -37 -23h-59z" />
    <glyph glyph-name="uni0439" unicode="&#x439;" horiz-adv-x="1009" 
d="M160 0q-23 0 -23 23v978q0 23 23 23h20q23 0 23 -23v-929h12l539 929q12 23 37 23h59q22 0 22 -23v-978q0 -23 -22 -23h-21q-22 0 -22 23v929h-12l-539 -929q-12 -23 -37 -23h-59zM272 1407q0 27 25 27h16q25 0 25 -27q0 -78 39 -122t112 -44h72q73 0 112.5 44.5
t39.5 121.5q0 27 24 27h17q24 0 24 -27q0 -115 -55 -171t-168 -56h-61q-108 0 -165 56.5t-57 170.5z" />
    <glyph glyph-name="uni043A" unicode="&#x43a;" horiz-adv-x="872" 
d="M752 0q-15 0 -25 10l-524 465v-452q0 -23 -23 -23h-20q-23 0 -23 23v978q0 23 23 23h20q23 0 23 -23v-454l502 465q15 12 28 12h37q13 0 15 -13t-9 -20l-526 -481l543 -475q14 -11 12.5 -23t-14.5 -12h-39z" />
    <glyph glyph-name="uni043B" unicode="&#x43b;" horiz-adv-x="1079" 
d="M57 -20q-57 0 -57 20v23q0 20 27 20q81 0 112 35.5t31 134.5v788q0 23 20 23h730q22 0 22 -23v-978q0 -23 -22 -23h-21q-22 0 -22 23v940h-644v-773q0 -113 -45.5 -161.5t-130.5 -48.5z" />
    <glyph glyph-name="uni043C" unicode="&#x43c;" horiz-adv-x="1294" 
d="M160 0q-23 0 -23 23v978q0 23 23 23h53q25 0 37 -29l397 -837l397 837q12 29 37 29h54q22 0 22 -23v-978q0 -23 -22 -23h-21q-22 0 -22 23v929l-394 -833q-16 -25 -39 -25h-24q-23 0 -39 25l-393 833v-929q0 -23 -23 -23h-20z" />
    <glyph glyph-name="uni043D" unicode="&#x43d;" horiz-adv-x="1048" 
d="M866 0q-20 0 -20 23v460h-643v-460q0 -23 -23 -23h-20q-23 0 -23 23v978q0 23 23 23h20q23 0 23 -23v-456h643v456q0 23 20 23h23q20 0 20 -23v-978q0 -23 -20 -23h-23z" />
    <glyph glyph-name="uni043E" unicode="&#x43e;" horiz-adv-x="1026" 
d="M469 -10q-165 0 -258.5 87.5t-93.5 250.5v366q0 163 93.5 250.5t258.5 87.5h88q164 0 258 -87.5t94 -250.5v-366q0 -163 -94.5 -250.5t-257.5 -87.5h-88zM182 330q0 -133 70 -205t213 -72h96q143 0 213 72t70 205v362q0 133 -70 205t-213 72h-96q-143 0 -213 -72
t-70 -205v-362z" />
    <glyph glyph-name="uni043F" unicode="&#x43f;" horiz-adv-x="1048" 
d="M162 0q-25 0 -25 23v978q0 23 23 23h729q20 0 20 -23v-978q0 -23 -20 -23h-23q-20 0 -20 23v940h-643v-940q0 -23 -23 -23h-18z" />
    <glyph glyph-name="uni0440" unicode="&#x440;" horiz-adv-x="1046" 
d="M160 -362q-23 0 -23 22v1341q0 23 23 23h20q23 0 23 -23v-102h12q35 63 106 98t164 35h90q169 0 262 -88t93 -258v-350q0 -170 -93 -258t-262 -88h-90q-94 0 -164.5 35.5t-105.5 99.5h-12v-465q0 -22 -23 -22h-20zM203 332q0 -131 72.5 -205t211.5 -74h86q291 0 291 285
v346q0 285 -291 285h-86q-139 0 -211.5 -74t-72.5 -205v-358z" />
    <glyph glyph-name="uni0441" unicode="&#x441;" horiz-adv-x="1001" 
d="M508 -10q-190 0 -290.5 88.5t-100.5 255.5v354q0 163 95.5 253.5t256.5 90.5h84q156 0 249 -77t93 -214v-12q0 -20 -23 -20h-22q-21 0 -21 20v8q0 107 -70.5 169.5t-201.5 62.5h-92q-138 0 -210.5 -75.5t-72.5 -207.5v-358q0 -131 80.5 -203t245.5 -72h12
q131 0 192.5 27.5t104.5 93.5q9 14 15.5 16.5t29.5 -4.5l2 -2q14 -7 17 -15.5t-4 -21.5q-18 -34 -43.5 -60t-66 -49.5t-102.5 -35.5t-143 -12h-14z" />
    <glyph glyph-name="uni0442" unicode="&#x442;" horiz-adv-x="897" 
d="M440 0q-22 0 -22 23v944h-314q-22 0 -22 22v12q0 23 22 23h689q22 0 22 -23v-12q0 -22 -22 -22h-312v-944q0 -23 -20 -23h-21z" />
    <glyph glyph-name="uni0443" unicode="&#x443;" horiz-adv-x="1030" 
d="M375 -362q-25 0 -17 28l121 309l-391 1020q-5 12 -3 20.5t15 8.5h31q13 0 18.5 -7t12.5 -26l346 -921h10l348 921q5 14 7.5 19.5t8 9.5t15.5 4h31q14 0 16 -8.5t-2 -20.5l-514 -1329q-4 -10 -6.5 -14t-9 -9t-15.5 -5h-22z" />
    <glyph glyph-name="uni0444" unicode="&#x444;" horiz-adv-x="1751" 
d="M471 -10q-170 0 -262 87.5t-92 258.5v350q0 171 92 258.5t262 87.5h90q93 0 163 -35t105 -98h13v102q0 11 2 13v397q0 23 22 23h21q22 0 22 -23v-512h11q35 63 106 98t164 35h90q169 0 261.5 -87.5t92.5 -258.5v-350q0 -171 -92.5 -258.5t-261.5 -87.5h-90
q-94 0 -164.5 35t-105.5 100h-11v-102q0 -9 -2 -13v-350q0 -22 -22 -22h-21q-22 0 -22 22v465h-13q-35 -65 -104.5 -100t-163.5 -35h-90zM182 338q0 -285 291 -285h86q127 0 199.5 62.5t83.5 173.5v444q-11 111 -83.5 173.5t-199.5 62.5h-86q-291 0 -291 -285v-346zM909 289
q11 -111 83.5 -173.5t199.5 -62.5h86q291 0 291 285v346q0 285 -291 285h-86q-127 0 -199.5 -62.5t-83.5 -173.5v-444z" />
    <glyph glyph-name="uni0445" unicode="&#x445;" horiz-adv-x="882" 
d="M109 0q-18 0 -23 8t2 19l311 493l-297 477q-9 11 -5 19t22 8h22q12 0 18.5 -5t18.5 -20l256 -424h15l256 424q9 12 12 15t9 6.5t15 3.5h23q33 0 18 -27l-297 -477l310 -493q15 -27 -23 -27h-14q-22 0 -39 25l-270 444h-15l-268 -444q-19 -25 -39 -25h-18z" />
    <glyph glyph-name="uni0446" unicode="&#x446;" horiz-adv-x="1048" 
d="M160 0q-23 0 -23 23v978q0 23 25 23h18q23 0 23 -23v-940h643v940q0 23 20 23h23q20 0 20 -23v-940h58q30 0 30 -30v-158q0 -23 -20 -23h-23q-20 0 -20 23v127h-774z" />
    <glyph glyph-name="uni0447" unicode="&#x447;" horiz-adv-x="1052" 
d="M872 0q-22 0 -22 23v362q-41 -65 -124.5 -107t-186.5 -42h-45q-102 0 -172 21.5t-110.5 67.5t-57.5 108.5t-17 152.5v415q0 23 23 23h20q23 0 23 -23v-432q0 -136 63.5 -203t200.5 -67h68q146 0 230.5 68.5t84.5 199.5v434q0 23 22 23h21q22 0 22 -23v-978q0 -23 -22 -23
h-21z" />
    <glyph glyph-name="uni0448" unicode="&#x448;" horiz-adv-x="1462" 
d="M160 0q-23 0 -23 23v978q0 23 25 23h18q23 0 23 -23v-940h495v940q0 23 25 23h18q23 0 23 -23v-940h498v940q0 23 20 23h21q22 0 22 -23v-978q0 -23 -22 -23h-1143z" />
    <glyph glyph-name="uni0449" unicode="&#x449;" horiz-adv-x="1439" 
d="M1346 -150q-23 0 -23 23v127h-1163q-23 0 -23 23v978q0 23 25 23h18q23 0 23 -23v-940h495v940q0 23 25 23h18q23 0 23 -23v-940h498v940q0 23 20 23h21q22 0 22 -23v-940h33q31 0 31 -30v-158q0 -23 -23 -23h-20z" />
    <glyph glyph-name="uni044A" unicode="&#x44a;" horiz-adv-x="1101" 
d="M221 0q-22 0 -22 23v940h-127q-21 0 -21 20v21q0 20 21 20h170q22 0 22 -23v-342h379q185 0 263.5 -74t78.5 -255t-78.5 -255.5t-263.5 -74.5h-422zM264 61h375q162 0 222.5 58.5t60.5 210.5t-60.5 210t-222.5 58h-375v-537z" />
    <glyph glyph-name="uni044B" unicode="&#x44b;" horiz-adv-x="1286" 
d="M160 0q-23 0 -23 23v978q0 23 23 23h20q23 0 23 -23v-342h379q185 0 263.5 -74t78.5 -255t-78.5 -255.5t-263.5 -74.5h-422zM203 61h375q161 0 221.5 58.5t60.5 210.5t-60 210t-222 58h-375v-537zM1083 23v978q0 23 23 23h20q21 0 21 -23v-978q0 -23 -21 -23h-20
q-23 0 -23 23z" />
    <glyph glyph-name="uni044C" unicode="&#x44c;" horiz-adv-x="1040" 
d="M160 0q-23 0 -23 23v978q0 23 23 23h20q23 0 23 -23v-342h379q185 0 263.5 -74t78.5 -255t-78.5 -255.5t-263.5 -74.5h-422zM203 61h375q161 0 221.5 58.5t60.5 210.5t-60 210t-222 58h-375v-537z" />
    <glyph glyph-name="uni044D" unicode="&#x44d;" horiz-adv-x="1001" 
d="M594 475q-21 0 -21 21v20q0 21 21 21h225v149q0 132 -72 207.5t-210 75.5h-93q-131 0 -201.5 -62.5t-70.5 -169.5v-8q0 -20 -20 -20h-23q-23 0 -23 20v12q0 137 93.5 214t249.5 77h83q161 0 257 -90.5t96 -253.5v-354q0 -167 -100.5 -255.5t-290.5 -88.5h-15
q-107 0 -181.5 23t-111 55t-61.5 79q-7 13 -4.5 21.5t16.5 15.5l2 2q23 7 29.5 4.5t15.5 -16.5q43 -66 104.5 -93.5t192.5 -27.5h13q165 0 245 72t80 203v147h-225z" />
    <glyph glyph-name="uni044E" unicode="&#x44e;" horiz-adv-x="1353" 
d="M160 -2q-23 0 -23 22v979q0 23 23 23h20q21 0 21 -23v-452h243v147q0 163 94 250.5t259 87.5h88q164 0 258 -87.5t94 -250.5v-366q0 -163 -94.5 -250.5t-257.5 -87.5h-88q-165 0 -259 87.5t-94 250.5v157h-243v-465q0 -22 -21 -22h-20zM510 330q0 -133 70 -205t213 -72
h96q143 0 212.5 72t69.5 205v362q0 133 -69.5 205t-212.5 72h-96q-143 0 -213 -72t-70 -205v-362z" />
    <glyph glyph-name="uni044F" unicode="&#x44f;" horiz-adv-x="991" 
d="M141 0q-24 0 -24 31v221q0 192 121 240v8q-113 45 -113 248q0 148 64.5 212t211.5 64h430q21 0 21 -23v-978q0 -23 -21 -23h-22q-21 0 -21 23v438h-421q-96 0 -140.5 -46.5t-44.5 -148.5v-235q0 -31 -24 -31h-17zM190 766q0 -122 39 -184t138 -62h421v441h-421
q-92 0 -134.5 -49t-42.5 -146z" />
    <glyph glyph-name="uni0451" unicode="&#x451;" horiz-adv-x="1026" 
d="M500 -10q-188 0 -285.5 90t-97.5 254v354q0 163 94.5 253.5t255.5 90.5h92q165 0 256.5 -87t91.5 -251v-149q0 -29 -17 -46.5t-46 -17.5h-662v-143q0 -134 79 -210.5t241 -76.5h20q184 0 299 88q14 11 23 2l20 -22q9 -12 -2 -23q-44 -44 -133 -75t-213 -31h-16zM182 543
h662v149q0 133 -69.5 205t-213.5 72h-96q-141 0 -212 -75t-71 -208v-143zM219 1376v33q0 15 5 20t20 5h32q15 0 20 -5t5 -20v-33q0 -15 -5 -19.5t-20 -4.5h-32q-15 0 -20 4.5t-5 19.5zM729 1376v33q0 15 5 20t20 5h32q15 0 20 -5t5 -20v-33q0 -15 -5 -19.5t-20 -4.5h-32
q-15 0 -20 4.5t-5 19.5z" />
    <glyph glyph-name="uni0453" unicode="&#x453;" horiz-adv-x="849" 
d="M160 0q-23 0 -23 23v981q0 20 21 20h590q11 0 15.5 -4t4.5 -16v-21q0 -12 -4.5 -16t-15.5 -4h-545v-940q0 -23 -23 -23h-20zM420 1161l162 236q13 20 23 28.5t24 8.5h22q18 0 25 -10t-4 -27l-168 -236q-29 -37 -51 -37h-13q-16 0 -22.5 10t2.5 27z" />
    <glyph glyph-name="uni0454" unicode="&#x454;" horiz-adv-x="1001" 
d="M508 -10q-190 0 -290.5 88.5t-100.5 255.5v354q0 163 95.5 253.5t256.5 90.5h84q156 0 249 -77t93 -214v-12q0 -20 -23 -20h-22q-21 0 -21 20v8q0 107 -70.5 169.5t-201.5 62.5h-92q-138 0 -210.5 -75.5t-72.5 -207.5v-149h226q20 0 20 -21v-20q0 -21 -20 -21h-226v-147
q0 -131 80.5 -203t245.5 -72h12q131 0 192.5 27.5t104.5 93.5q9 14 15.5 16.5t29.5 -4.5l2 -2q14 -7 17 -15.5t-4 -21.5q-18 -34 -43.5 -60t-66 -49.5t-102.5 -35.5t-143 -12h-14z" />
    <glyph glyph-name="uni0456" unicode="&#x456;" horiz-adv-x="346" 
d="M160 1362q-13 0 -18 5t-5 17v27q0 23 23 23h26q23 0 23 -23v-27q0 -12 -5 -17t-18 -5h-26zM141 23v978q0 23 23 23h20q21 0 21 -23v-978q0 -23 -21 -23h-20q-23 0 -23 23z" />
    <glyph glyph-name="uni0457" unicode="&#x457;" horiz-adv-x="288" 
d="M135 0q-22 0 -22 23v978q0 23 22 23h21q20 0 20 -23v-978q0 -23 -20 -23h-21zM-150 1376v33q0 15 5 20t20 5h33q15 0 19.5 -5t4.5 -20v-33q0 -15 -4.5 -19.5t-19.5 -4.5h-33q-15 0 -20 4.5t-5 19.5zM360 1376v33q0 15 5 20t20 5h33q15 0 19.5 -5t4.5 -20v-33
q0 -15 -4.5 -19.5t-19.5 -4.5h-33q-15 0 -20 4.5t-5 19.5z" />
    <glyph glyph-name="uni0458" unicode="&#x458;" horiz-adv-x="356" 
d="M170 1362q-13 0 -18 5t-5 17v27q0 23 23 23h27q20 0 20 -23v-27q0 -12 -4 -17t-16 -5h-27zM-16 -348v22q0 21 26 21q81 0 112.5 36t31.5 134v1136q0 23 20 23h21q22 0 22 -23v-1159q0 -211 -176 -211q-57 0 -57 21z" />
    <glyph glyph-name="uni045C" unicode="&#x45c;" horiz-adv-x="872" 
d="M752 0q-15 0 -25 10l-524 465v-452q0 -23 -23 -23h-20q-23 0 -23 23v978q0 23 23 23h20q23 0 23 -23v-454l502 465q15 12 28 12h37q13 0 15 -13t-9 -20l-526 -481l543 -475q14 -11 12.5 -23t-14.5 -12h-39zM399 1161l162 236q13 20 23 28.5t24 8.5h23q18 0 24.5 -10
t-4.5 -27l-168 -236q-29 -37 -51 -37h-12q-16 0 -23 10t2 27z" />
    <glyph glyph-name="uni045D" unicode="&#x45d;" horiz-adv-x="1009" 
d="M160 0q-23 0 -23 23v978q0 23 23 23h20q23 0 23 -23v-929h12l539 929q12 23 37 23h59q22 0 22 -23v-978q0 -23 -22 -23h-21q-22 0 -22 23v929h-12l-539 -929q-12 -23 -37 -23h-59zM307 1397q-11 17 -6 27t23 10h24q16 0 26 -8t23 -29l162 -236q9 -17 2 -27t-22 -10h-13
q-25 0 -51 37z" />
    <glyph glyph-name="uni045E" unicode="&#x45e;" horiz-adv-x="1030" 
d="M375 -362q-25 0 -17 28l121 309l-391 1020q-5 12 -3 20.5t15 8.5h31q13 0 18.5 -7t12.5 -26l346 -921h10l348 921q5 14 7.5 19.5t8 9.5t15.5 4h31q14 0 16 -8.5t-2 -20.5l-514 -1329q-4 -10 -6.5 -14t-9 -9t-15.5 -5h-22zM258 1407q0 12 7.5 19.5t19.5 7.5h16
q25 0 25 -27q0 -78 39 -122t112 -44h72q73 0 112 44t39 122q0 27 25 27h16q25 0 25 -27q0 -115 -55 -171t-168 -56h-62q-108 0 -165.5 56.5t-57.5 170.5z" />
    <glyph glyph-name="uni0490" unicode="&#x490;" horiz-adv-x="968" 
d="M819 1552q0 15 5 20t20 5h18q15 0 20 -5t5 -20v-159q0 -15 -6 -21t-21 -6h-645v-1341q0 -15 -5 -20t-20 -5h-18q-15 0 -20 5t-5 20v1384q0 15 5 20t20 5h647v118z" />
    <glyph glyph-name="uni0491" unicode="&#x491;" horiz-adv-x="849" 
d="M705 1112q0 23 20 23h23q20 0 20 -23v-129q0 -12 -4.5 -16t-15.5 -4h-545v-940q0 -23 -23 -23h-20q-23 0 -23 23v981q0 20 21 20h547v88z" />
    <glyph glyph-name="uni04C0" unicode="&#x4c0;" horiz-adv-x="364" 
d="M172 0q-15 0 -20 5t-5 20v1384q0 15 5 20t20 5h18q15 0 20 -5t5 -20v-1384q0 -15 -5 -20t-20 -5h-18z" />
    <glyph glyph-name="uni04E2" unicode="&#x4e2;" horiz-adv-x="1183" 
d="M172 0q-15 0 -20 5t-5 20v1384q0 15 5 20t20 5h18q15 0 20 -5t5 -20v-1348h16l668 1350q14 23 37 23h74q15 0 19.5 -5t4.5 -20v-1384q0 -15 -4.5 -20t-19.5 -5h-19q-15 0 -19.5 5t-4.5 20v1347h-15l-669 -1349q-11 -23 -37 -23h-74zM244 1800v15q0 28 28 28h668
q29 0 29 -28v-15q0 -28 -29 -28h-668q-28 0 -28 28z" />
    <glyph glyph-name="uni04E3" unicode="&#x4e3;" horiz-adv-x="1009" 
d="M160 0q-23 0 -23 23v978q0 23 23 23h20q23 0 23 -23v-929h12l539 929q12 23 37 23h59q22 0 22 -23v-978q0 -23 -22 -23h-21q-22 0 -22 23v929h-12l-539 -929q-12 -23 -37 -23h-59zM164 1391v14q0 29 29 29h667q29 0 29 -29v-14q0 -29 -29 -29h-667q-29 0 -29 29z" />
    <glyph glyph-name="uni04E8" unicode="&#x4e8;" 
d="M582 -10q-218 0 -326.5 99.5t-108.5 307.5v639q0 208 108.5 308t326.5 100h98q434 0 434 -408v-639q0 -207 -109 -307t-325 -100h-98zM215 397q0 -173 86.5 -256.5t273.5 -83.5h111q185 0 273 83.5t88 256.5v639q0 174 -88 257t-273 83h-111q-188 0 -274 -82.5
t-86 -257.5v-288h827v-64h-827v-287z" />
    <glyph glyph-name="uni04E9" unicode="&#x4e9;" horiz-adv-x="1026" 
d="M557 1032q163 0 257.5 -87.5t94.5 -250.5v-366q0 -163 -94 -250.5t-258 -87.5h-88q-165 0 -258.5 87.5t-93.5 250.5v366q0 163 93.5 250.5t258.5 87.5h88zM182 330q0 -133 70 -205t213 -72h96q143 0 213 72t70 205v362q0 133 -70 205t-213 72h-96q-143 0 -213 -72
t-70 -205v-149h656v-62h-656v-151z" />
    <glyph glyph-name="uni04EC" unicode="&#x4ec;" horiz-adv-x="1216" 
d="M700 684q-15 0 -21.5 5t-6.5 20v16q0 15 6.5 20t21.5 5h301v286q0 174 -87.5 257t-272.5 83h-94q-183 0 -267.5 -77t-84.5 -246q0 -6 -4.5 -11.5t-10.5 -5.5h-37q-6 0 -11 5t-5 12v8q0 197 105.5 290t320.5 93h82q434 0 434 -408v-639q0 -207 -109 -307t-325 -100h-82
q-214 0 -320 88.5t-106 269.5v10q0 7 5 12t11 5h37q6 0 10.5 -5.5t4.5 -11.5q0 -155 85 -228t267 -73h94q185 0 272.5 83.5t87.5 256.5v287h-301zM299 1786v33q0 15 5 19.5t20 4.5h32q15 0 20 -4.5t5 -19.5v-33q0 -15 -5 -20t-20 -5h-32q-15 0 -20 5t-5 20zM809 1786v33
q0 15 5 19.5t20 4.5h32q15 0 20 -4.5t5 -19.5v-33q0 -15 -5 -20t-20 -5h-32q-15 0 -20 5t-5 20z" />
    <glyph glyph-name="uni04ED" unicode="&#x4ed;" horiz-adv-x="1001" 
d="M594 475q-21 0 -21 21v20q0 21 21 21h225v149q0 132 -72 207.5t-210 75.5h-93q-131 0 -201.5 -62.5t-70.5 -169.5v-8q0 -20 -20 -20h-23q-23 0 -23 20v12q0 137 93.5 214t249.5 77h83q161 0 257 -90.5t96 -253.5v-354q0 -167 -100.5 -255.5t-290.5 -88.5h-15
q-107 0 -181.5 23t-111 55t-61.5 79q-7 13 -4.5 21.5t16.5 15.5l2 2q23 7 29.5 4.5t15.5 -16.5q43 -66 104.5 -93.5t192.5 -27.5h13q165 0 245 72t80 203v147h-225zM193 1376v33q0 15 4.5 20t19.5 5h33q15 0 19.5 -5t4.5 -20v-33q0 -15 -4.5 -19.5t-19.5 -4.5h-33
q-15 0 -19.5 4.5t-4.5 19.5zM702 1376v33q0 15 5 20t20 5h33q15 0 19.5 -5t4.5 -20v-33q0 -15 -4.5 -19.5t-19.5 -4.5h-33q-15 0 -20 4.5t-5 19.5z" />
    <glyph glyph-name="uni04EE" unicode="&#x4ee;" horiz-adv-x="1124" 
d="M336 0q-26 0 -10 29l196 430l-432 946q-13 29 10 29h37q14 0 20 -6t15 -23l389 -858l393 858q8 17 14 23t19 6h37q26 0 10 -29l-628 -1376q-8 -17 -14 -23t-19 -6h-37zM205 1800v15q0 28 28 28h668q29 0 29 -28v-15q0 -28 -29 -28h-668q-28 0 -28 28z" />
    <glyph glyph-name="uni04EF" unicode="&#x4ef;" horiz-adv-x="1030" 
d="M178 1362q-28 0 -28 29v14q0 29 28 29h668q28 0 28 -29v-14q0 -29 -28 -29h-668zM88 995q-5 12 -3 20.5t15 8.5h31q13 0 18.5 -7t12.5 -26l346 -921h10l348 921q5 14 7.5 19.5t8 9.5t15.5 4h31q14 0 16 -8.5t-2 -20.5l-514 -1329q-4 -10 -6.5 -14t-9 -9t-15.5 -5h-22
q-25 0 -17 28l121 309z" />
    <glyph glyph-name="uni1E20" unicode="&#x1e20;" horiz-adv-x="1236" 
d="M582 -10q-435 0 -435 407v639q0 408 435 408h82q215 0 319 -93t104 -290v-8q0 -7 -5 -12t-11 -5h-37q-6 0 -11 5.5t-5 11.5q0 170 -83 246.5t-265 76.5h-95q-185 0 -272.5 -83t-87.5 -257v-639q0 -173 87.5 -256.5t272.5 -83.5h84q186 0 274.5 83.5t88.5 256.5v293h-332
q-15 0 -20.5 5t-5.5 20v14q0 15 5.5 20t20.5 5h373q11 0 19 -7.5t8 -19.5v-330q0 -407 -435 -407h-73zM256 1800v15q0 28 29 28h667q29 0 29 -28v-15q0 -28 -29 -28h-667q-29 0 -29 28z" />
    <glyph glyph-name="uni1E21" unicode="&#x1e21;" horiz-adv-x="1036" 
d="M489 -379q-88 0 -161 6q-39 3 -39 23v24q0 10 7 14.5t15 2.5q72 -6 197 -6q83 0 140.5 11t104 39.5t69 82.5t22.5 135v172h-15q-35 -65 -104.5 -100t-163.5 -35h-90q-170 0 -262 87.5t-92 258.5v350q0 171 92 258.5t262 87.5h90q93 0 163 -35t105 -98h15v100q0 14 4 19.5
t18 5.5h21q22 0 22 -25v-1046q0 -182 -99 -257t-321 -75zM168 1391v14q0 29 29 29h667q29 0 29 -29v-14q0 -29 -29 -29h-667q-29 0 -29 29zM182 338q0 -285 291 -285h86q139 0 212 74t73 205v358q0 131 -73 205t-212 74h-86q-291 0 -291 -285v-346z" />
    <glyph glyph-name="uni1E3E" unicode="&#x1e3e;" horiz-adv-x="1447" 
d="M172 0q-15 0 -20 5t-5 20v1384q0 15 5 20t20 5h84q23 0 35 -31l426 -1340h14l428 1340q9 31 35 31h82q15 0 19.5 -5t4.5 -20v-1384q0 -15 -4.5 -20t-19.5 -5h-19q-15 0 -19.5 5t-4.5 20v1347h-14l-433 -1341q-9 -31 -38 -31h-48q-26 0 -38 31l-431 1341h-16v-1347
q0 -15 -5 -20t-20 -5h-18zM709 1542l161 236q24 37 48 37h22q18 0 25 -10t-4 -27l-168 -236q-29 -37 -52 -37h-12q-16 0 -22.5 10t2.5 27z" />
    <glyph glyph-name="uni1E3F" unicode="&#x1e3f;" horiz-adv-x="1705" 
d="M844 0q-23 0 -23 23v661q0 142 -63 213.5t-201 71.5h-59q-139 0 -217 -75t-78 -206v-665q0 -12 -4.5 -17.5t-18.5 -5.5h-20q-23 0 -23 23v978q0 23 23 23h20q14 0 18.5 -5.5t4.5 -17.5v-98h16q40 61 114.5 95t174.5 34h45q228 0 299 -164h14q45 87 126 125.5t212 38.5h41
q324 0 324 -346v-663q0 -12 -4.5 -17.5t-18.5 -5.5h-20q-23 0 -23 23v661q0 142 -63 213.5t-201 71.5h-59q-138 0 -216.5 -75t-78.5 -206v-665q0 -12 -4.5 -17.5t-18.5 -5.5h-18zM842 1161l162 236q13 20 23 28.5t24 8.5h22q18 0 25 -10t-4 -27l-168 -236q-29 -37 -52 -37
h-12q-16 0 -22.5 10t2.5 27z" />
    <glyph glyph-name="Wgrave" unicode="&#x1e80;" horiz-adv-x="1824" 
d="M463 0q-30 0 -37 33l-336 1370q-11 31 21 31h18q14 0 20.5 -6.5t12.5 -24.5l321 -1327h15l366 1327q5 18 11 24.5t20 6.5h35q15 0 20 -5t11 -26l364 -1327h16l322 1327q5 18 11.5 24.5t21.5 6.5h18q29 0 21 -31l-338 -1370q-7 -33 -35 -33h-64q-23 0 -36 33l-340 1278
h-19l-340 -1278q-13 -33 -37 -33h-63zM694 1806q-11 17 -6 27t23 10h24q16 0 26 -8t23 -29l162 -235q9 -17 2 -27t-22 -10h-13q-25 0 -51 37z" />
    <glyph glyph-name="wgrave" unicode="&#x1e81;" horiz-adv-x="1454" 
d="M377 0q-27 0 -37 29l-250 966q-4 12 -2 20.5t16 8.5h25q22 0 29 -29l235 -923h6l277 923q0 1 1.5 4.5t2 4.5t1.5 4t2 4t2.5 3.5t2.5 3t3 2t4 2t4.5 1t5.5 0.5h45q6 0 10 -1t6.5 -4.5t3.5 -6t3 -8.5l3 -9l277 -923h6l235 923q7 29 29 29h25q23 0 16 -29l-250 -966
q-10 -29 -37 -29h-43q-27 0 -37 29l-268 917h-6l-268 -917q-10 -29 -37 -29h-41zM508 1397q-11 17 -6.5 27t22.5 10h25q16 0 26 -8t23 -29l162 -236q9 -17 1.5 -27t-22.5 -10h-12q-25 0 -51 37z" />
    <glyph glyph-name="Wacute" unicode="&#x1e82;" horiz-adv-x="1824" 
d="M463 0q-30 0 -37 33l-336 1370q-11 31 21 31h18q14 0 20.5 -6.5t12.5 -24.5l321 -1327h15l366 1327q5 18 11 24.5t20 6.5h35q15 0 20 -5t11 -26l364 -1327h16l322 1327q5 18 11.5 24.5t21.5 6.5h18q29 0 21 -31l-338 -1370q-7 -33 -35 -33h-64q-23 0 -36 33l-340 1278
h-19l-340 -1278q-13 -33 -37 -33h-63zM877 1571l161 235q13 20 23 28.5t24 8.5h23q18 0 24.5 -10t-4.5 -27l-167 -235q-29 -37 -52 -37h-12q-16 0 -22.5 10t2.5 27z" />
    <glyph glyph-name="wacute" unicode="&#x1e83;" horiz-adv-x="1454" 
d="M377 0q-27 0 -37 29l-250 966q-4 12 -2 20.5t16 8.5h25q22 0 29 -29l235 -923h6l277 923q0 1 1.5 4.5t2 4.5t1.5 4t2 4t2.5 3.5t2.5 3t3 2t4 2t4.5 1t5.5 0.5h45q6 0 10 -1t6.5 -4.5t3.5 -6t3 -8.5l3 -9l277 -923h6l235 923q7 29 29 29h25q23 0 16 -29l-250 -966
q-10 -29 -37 -29h-43q-27 0 -37 29l-268 917h-6l-268 -917q-10 -29 -37 -29h-41zM692 1161l162 236q13 20 23 28.5t24 8.5h23q18 0 24.5 -10t-4.5 -27l-168 -236q-29 -37 -51 -37h-12q-16 0 -23 10t2 27z" />
    <glyph glyph-name="Wdieresis" unicode="&#x1e84;" horiz-adv-x="1824" 
d="M463 0q-30 0 -37 33l-336 1370q-11 31 21 31h18q14 0 20.5 -6.5t12.5 -24.5l321 -1327h15l366 1327q5 18 11 24.5t20 6.5h35q15 0 20 -5t11 -26l364 -1327h16l322 1327q5 18 11.5 24.5t21.5 6.5h18q29 0 21 -31l-338 -1370q-7 -33 -35 -33h-64q-23 0 -36 33l-340 1278
h-19l-340 -1278q-13 -33 -37 -33h-63zM616 1786v33q0 15 5 19.5t20 4.5h33q15 0 19.5 -4.5t4.5 -19.5v-33q0 -15 -4.5 -20t-19.5 -5h-33q-15 0 -20 5t-5 20zM1126 1786v33q0 15 5 19.5t20 4.5h33q15 0 19.5 -4.5t4.5 -19.5v-33q0 -15 -4.5 -20t-19.5 -5h-33q-15 0 -20 5
t-5 20z" />
    <glyph glyph-name="wdieresis" unicode="&#x1e85;" horiz-adv-x="1452" 
d="M377 0q-27 0 -37 29l-250 966q-4 12 -2 20.5t16 8.5h25q22 0 29 -29l235 -923h6l277 923q0 1 1.5 4.5t2 4.5t1.5 4t2 4t2.5 3.5t2.5 3t3 2t4 2t4.5 1t5.5 0.5h45q6 0 10 -1t6.5 -4.5t3.5 -6t3 -8.5l3 -9l277 -923h6l235 923q7 29 29 29h25q23 0 16 -29l-250 -966
q-10 -29 -37 -29h-43q-27 0 -37 29l-268 917h-6l-268 -917q-10 -29 -37 -29h-41zM430 1376v33q0 15 5 20t20 5h32q15 0 20 -5t5 -20v-33q0 -15 -5 -19.5t-20 -4.5h-32q-15 0 -20 4.5t-5 19.5zM940 1376v33q0 15 5 20t20 5h32q15 0 20 -5t5 -20v-33q0 -15 -5 -19.5t-20 -4.5
h-32q-15 0 -20 4.5t-5 19.5z" />
    <glyph glyph-name="uni1E9E" unicode="&#x1e9e;" horiz-adv-x="1181" 
d="M172 0q-15 0 -20 5t-5 20v1384q0 14 6.5 19.5t22.5 5.5h793q34 0 46 -25t-9 -53l-381 -543h96q169 0 255.5 -81.5t86.5 -225.5v-160q0 -190 -106 -268t-314 -78h-117q-20 0 -20 20v25q0 23 20 23h117q199 0 275.5 67t76.5 242v92q0 161 -76 222t-276 61h-80q-22 0 -22 22
v21q0 11 18 41l377 530h-721v-1341q0 -15 -5 -20t-20 -5h-18z" />
    <glyph glyph-name="uni1EA0" unicode="&#x1ea0;" horiz-adv-x="1175" 
d="M618 1434q25 0 35 -33l432 -1370q8 -31 -20 -31h-18q-15 0 -21.5 6.5t-11.5 24.5l-94 299h-666l-94 -299q-5 -18 -11.5 -24.5t-21.5 -6.5h-18q-29 0 -21 31l432 1370q10 33 37 33h61zM274 391h627l-305 969h-16zM524 -338v78q0 15 5 19.5t20 4.5h78q15 0 19.5 -4.5
t4.5 -19.5v-78q0 -15 -4.5 -19.5t-19.5 -4.5h-78q-15 0 -20 4.5t-5 19.5z" />
    <glyph glyph-name="uni1EA1" unicode="&#x1ea1;" horiz-adv-x="1038" 
d="M858 0q-22 0 -22 23v149h-17q-60 -82 -157.5 -132t-219.5 -50h-6q-172 0 -251 77t-79 224v43q0 256 312 256h418v104q0 69 -12.5 116t-44.5 84.5t-92.5 55t-151.5 17.5q-198 0 -308 -41q-16 -6 -20 10l-6 31q-3 15 8 18q118 47 307 47h35q182 0 266 -82t84 -250v-677
q0 -23 -22 -23h-21zM174 295q0 -123 61 -180.5t187 -57.5h55q138 0 248.5 93.5t110.5 207.5v168h-416q-124 0 -185 -45t-61 -153v-33zM446 -338v78q0 15 5 19.5t20 4.5h78q15 0 19.5 -4.5t4.5 -19.5v-78q0 -15 -4.5 -19.5t-19.5 -4.5h-78q-15 0 -20 4.5t-5 19.5z" />
    <glyph glyph-name="uni1EA2" unicode="&#x1ea2;" horiz-adv-x="1175" 
d="M618 1434q25 0 35 -33l432 -1370q8 -31 -20 -31h-18q-15 0 -21.5 6.5t-11.5 24.5l-94 299h-666l-94 -299q-5 -18 -11.5 -24.5t-21.5 -6.5h-18q-29 0 -21 31l432 1370q10 33 37 33h61zM274 391h627l-305 969h-16zM381 1757v27q0 81 44 122.5t120 41.5h84q76 0 120 -41.5
t44 -122.5v-62q0 -80 -44.5 -123t-119.5 -43h-35q-12 0 -19.5 7.5t-7.5 19.5v10q0 11 7.5 18t19.5 7h27q110 0 110 113v45q0 55 -27 80.5t-83 25.5h-70q-55 0 -81 -25.5t-26 -80.5v-19q0 -26 -24 -26h-12q-27 0 -27 26z" />
    <glyph glyph-name="uni1EA3" unicode="&#x1ea3;" horiz-adv-x="1038" 
d="M858 0q-22 0 -22 23v149h-17q-60 -82 -157.5 -132t-219.5 -50h-6q-172 0 -251 77t-79 224v43q0 256 312 256h418v104q0 69 -12.5 116t-44.5 84.5t-92.5 55t-151.5 17.5q-198 0 -308 -41q-16 -6 -20 10l-6 31q-3 15 8 18q118 47 307 47h35q182 0 266 -82t84 -250v-677
q0 -23 -22 -23h-21zM174 295q0 -123 61 -180.5t187 -57.5h55q138 0 248.5 93.5t110.5 207.5v168h-416q-124 0 -185 -45t-61 -153v-33zM336 1348v26q0 81 44 122.5t120 41.5h84q76 0 120 -41.5t44 -122.5v-61q0 -80 -44.5 -123t-119.5 -43h-35q-12 0 -19.5 7.5t-7.5 19.5v10
q0 11 7.5 17.5t19.5 6.5h26q111 0 111 113v45q0 107 -111 107h-69q-54 0 -80.5 -26t-26.5 -81v-18q0 -12 -6.5 -19.5t-17.5 -7.5h-13q-26 0 -26 27z" />
    <glyph glyph-name="uni1EA4" unicode="&#x1ea4;" horiz-adv-x="1175" 
d="M618 1434q25 0 35 -33l432 -1370q8 -31 -20 -31h-18q-15 0 -21.5 6.5t-11.5 24.5l-94 299h-666l-94 -299q-5 -18 -11.5 -24.5t-21.5 -6.5h-18q-29 0 -21 31l432 1370q10 33 37 33h61zM274 391h627l-305 969h-16zM293 1571l217 246q14 16 23 21t26 5h12q14 0 22 -1
t17.5 -7t18.5 -18l217 -246q9 -12 7 -21.5t-17 -9.5h-25q-24 0 -43 21l-188 215h-21l-188 -215q-19 -21 -43 -21h-25q-15 0 -18 9.5t8 21.5zM723 1898l162 236q13 20 23 28.5t24 8.5h22q18 0 25 -10t-4 -27l-168 -236q-28 -36 -51 -36h-13q-16 0 -22.5 9.5t2.5 26.5z" />
    </font>
</defs>
</svg>
