<svg width="18" height="20" viewBox="0 0 18 20" fill="none" xmlns="http://www.w3.org/2000/svg">
<path d="M11.8978 15.5083C11.8978 14.4391 11.2245 13.8175 9.93362 12.7216C9.64195 12.4716 9.32695 12.2066 9.00195 11.9116C8.63112 12.2525 8.27862 12.5525 7.95528 12.8283C6.66695 13.9166 6.10278 14.4491 6.10278 15.5083C6.10278 16.2768 6.40805 17.0137 6.95144 17.5571C7.49483 18.1005 8.23182 18.4058 9.00028 18.4058C9.76875 18.4058 10.5057 18.1005 11.0491 17.5571C11.5925 17.0137 11.8978 16.2768 11.8978 15.5083Z" fill="#4888FF"/>
<path d="M12.6738 3.3625C11.6738 2.51333 10.6405 1.63583 9.59551 0.591667L9.00051 0L8.41718 0.5925C6.53885 2.4775 5.65051 5.3725 5.26551 7.10917C4.97008 6.65171 4.75084 6.14935 4.61635 5.62167L4.26051 4.2575L3.23301 5.22167C1.43385 6.91167 0.233013 8.5875 0.233013 11.2708C0.215714 13.2071 0.845978 15.0936 2.02367 16.6307C3.20136 18.1677 4.85893 19.2671 6.73301 19.7542C7.20391 19.8735 7.68343 19.9557 8.16718 20C7.11824 19.8045 6.17059 19.2486 5.48812 18.4284C4.80564 17.6082 4.43125 16.5753 4.42968 15.5083C4.42968 13.6333 5.56051 12.675 6.86968 11.5567C7.33718 11.1592 7.86968 10.7083 8.40718 10.1675L9.00051 9.5775L9.59051 10.1675C10.0705 10.6475 10.5505 11.0542 11.0147 11.4492C12.328 12.5633 13.568 13.6158 13.568 15.5083C13.5667 16.5711 13.1953 17.6003 12.5177 18.419C11.8401 19.2378 10.8985 19.795 9.85468 19.995C12.0218 19.7847 14.0329 18.7748 15.4958 17.1622C16.9587 15.5495 17.7684 13.4498 17.7672 11.2725C17.7672 7.6875 15.4063 5.68333 12.6738 3.3625Z" fill="#4888FF"/>
</svg>
